<svg xmlns="http://www.w3.org/2000/svg" version="1.1"><path d="
M 51 113 C
82 113
82 113
113 113
" stroke="rgb(25,0,102)" stroke-width="5" fill-opacity="0.0"></path><path d="
M 20 144 C
20 175
20 175
20 206
" stroke="rgb(25,0,102)" stroke-width="5" fill-opacity="0.0"></path><path d="
M 51 237 C
82 237
82 237
113 237
" stroke="rgb(25,0,102)" stroke-width="5" fill-opacity="0.0"></path><path d="
M 20 268 C
20 299
20 299
20 330
" stroke="rgb(25,0,102)" stroke-width="5" fill-opacity="0.0"></path><path d="
M 51 299 C
82 299
82 299
113 299
" stroke="rgb(25,128,102)" stroke-width="5" fill-opacity="0.0"></path><path d="
M 20 330 C
20 361
20 361
20 392
" stroke="rgb(25,0,102)" stroke-width="5" fill-opacity="0.0"></path><path d="
M 51 423 C
82 423
82 423
113 423
" stroke="rgb(25,128,102)" stroke-width="5" fill-opacity="0.0"></path><path d="
M 82 20 C
82 51
82 51
82 82
" stroke="rgb(25,128,102)" stroke-width="5" fill-opacity="0.0"></path><path d="
M 82 268 C
82 299
82 299
82 330
" stroke="rgb(25,0,102)" stroke-width="5" fill-opacity="0.0"></path><path d="
M 113 299 C
144 299
144 299
175 299
" stroke="rgb(25,0,102)" stroke-width="5" fill-opacity="0.0"></path><path d="
M 82 330 C
82 361
82 361
82 392
" stroke="rgb(25,0,102)" stroke-width="5" fill-opacity="0.0"></path><path d="
M 113 361 C
144 361
144 361
175 361
" stroke="rgb(25,0,102)" stroke-width="5" fill-opacity="0.0"></path><path d="
M 82 392 C
82 423
82 423
82 454
" stroke="rgb(25,0,102)" stroke-width="5" fill-opacity="0.0"></path><path d="
M 113 485 C
144 485
144 485
175 485
" stroke="rgb(25,0,102)" stroke-width="5" fill-opacity="0.0"></path><path d="
M 175 51 C
206 51
206 51
237 51
" stroke="rgb(25,0,102)" stroke-width="5" fill-opacity="0.0"></path><path d="
M 144 82 C
144 113
144 113
144 144
" stroke="rgb(25,0,102)" stroke-width="5" fill-opacity="0.0"></path><path d="
M 175 237 C
206 237
206 237
237 237
" stroke="rgb(25,0,102)" stroke-width="5" fill-opacity="0.0"></path><path d="
M 144 268 C
144 299
144 299
144 330
" stroke="rgb(25,0,102)" stroke-width="5" fill-opacity="0.0"></path><path d="
M 175 361 C
206 361
206 361
237 361
" stroke="rgb(25,0,102)" stroke-width="5" fill-opacity="0.0"></path><path d="
M 144 392 C
144 423
144 423
144 454
" stroke="rgb(25,128,102)" stroke-width="5" fill-opacity="0.0"></path><path d="
M 175 423 C
206 423
206 423
237 423
" stroke="rgb(25,0,102)" stroke-width="5" fill-opacity="0.0"></path><path d="
M 175 485 C
206 485
206 485
237 485
" stroke="rgb(25,0,102)" stroke-width="5" fill-opacity="0.0"></path><path d="
M 237 51 C
268 51
268 51
299 51
" stroke="rgb(25,0,102)" stroke-width="5" fill-opacity="0.0"></path><path d="
M 206 82 C
206 113
206 113
206 144
" stroke="rgb(25,0,102)" stroke-width="5" fill-opacity="0.0"></path><path d="
M 206 206 C
206 237
206 237
206 268
" stroke="rgb(25,0,102)" stroke-width="5" fill-opacity="0.0"></path><path d="
M 237 237 C
268 237
268 237
299 237
" stroke="rgb(25,0,102)" stroke-width="5" fill-opacity="0.0"></path><path d="
M 206 268 C
206 299
206 299
206 330
" stroke="rgb(25,0,102)" stroke-width="5" fill-opacity="0.0"></path><path d="
M 237 299 C
268 299
268 299
299 299
" stroke="rgb(25,0,102)" stroke-width="5" fill-opacity="0.0"></path><path d="
M 237 361 C
268 361
268 361
299 361
" stroke="rgb(25,0,102)" stroke-width="5" fill-opacity="0.0"></path><path d="
M 237 423 C
268 423
268 423
299 423
" stroke="rgb(25,0,102)" stroke-width="5" fill-opacity="0.0"></path><path d="
M 299 51 C
330 51
330 51
361 51
" stroke="rgb(25,0,102)" stroke-width="5" fill-opacity="0.0"></path><path d="
M 268 82 C
268 113
268 113
268 144
" stroke="rgb(25,0,102)" stroke-width="5" fill-opacity="0.0"></path><path d="
M 268 144 C
268 175
268 175
268 206
" stroke="rgb(25,128,102)" stroke-width="5" fill-opacity="0.0"></path><path d="
M 268 206 C
268 237
268 237
268 268
" stroke="rgb(25,128,102)" stroke-width="5" fill-opacity="0.0"></path><path d="
M 268 268 C
268 299
268 299
268 330
" stroke="rgb(25,0,102)" stroke-width="5" fill-opacity="0.0"></path><path d="
M 299 361 C
330 361
330 361
361 361
" stroke="rgb(25,128,102)" stroke-width="5" fill-opacity="0.0"></path><path d="
M 268 392 C
268 423
268 423
268 454
" stroke="rgb(25,0,102)" stroke-width="5" fill-opacity="0.0"></path><path d="
M 299 423 C
330 423
330 423
361 423
" stroke="rgb(25,0,102)" stroke-width="5" fill-opacity="0.0"></path><path d="
M 361 51 C
392 51
392 51
423 51
" stroke="rgb(25,0,102)" stroke-width="5" fill-opacity="0.0"></path><path d="
M 361 113 C
392 113
392 113
423 113
" stroke="rgb(25,0,102)" stroke-width="5" fill-opacity="0.0"></path><path d="
M 330 268 C
330 299
330 299
330 330
" stroke="rgb(25,0,102)" stroke-width="5" fill-opacity="0.0"></path><path d="
M 330 330 C
330 361
330 361
330 392
" stroke="rgb(25,128,102)" stroke-width="5" fill-opacity="0.0"></path><path d="
M 361 361 C
392 361
392 361
423 361
" stroke="rgb(25,128,102)" stroke-width="5" fill-opacity="0.0"></path><path d="
M 361 485 C
392 485
392 485
423 485
" stroke="rgb(25,0,102)" stroke-width="5" fill-opacity="0.0"></path><path d="
M 392 20 C
392 51
392 51
392 82
" stroke="rgb(25,0,102)" stroke-width="5" fill-opacity="0.0"></path><path d="
M 423 113 C
454 113
454 113
485 113
" stroke="rgb(25,0,102)" stroke-width="5" fill-opacity="0.0"></path><path d="
M 392 144 C
392 175
392 175
392 206
" stroke="rgb(25,0,102)" stroke-width="5" fill-opacity="0.0"></path><path d="
M 423 237 C
454 237
454 237
485 237
" stroke="rgb(25,0,102)" stroke-width="5" fill-opacity="0.0"></path><path d="
M 392 268 C
392 299
392 299
392 330
" stroke="rgb(25,128,102)" stroke-width="5" fill-opacity="0.0"></path><path d="
M 423 299 C
454 299
454 299
485 299
" stroke="rgb(25,0,102)" stroke-width="5" fill-opacity="0.0"></path><path d="
M 392 330 C
392 361
392 361
392 392
" stroke="rgb(25,0,102)" stroke-width="5" fill-opacity="0.0"></path><path d="
M 392 392 C
392 423
392 423
392 454
" stroke="rgb(25,0,102)" stroke-width="5" fill-opacity="0.0"></path><path d="
M 423 423 C
454 423
454 423
485 423
" stroke="rgb(25,0,102)" stroke-width="5" fill-opacity="0.0"></path><path d="
M 454 20 C
454 51
454 51
454 82
" stroke="rgb(25,0,102)" stroke-width="5" fill-opacity="0.0"></path><path d="
M 454 144 C
454 175
454 175
454 206
" stroke="rgb(25,0,102)" stroke-width="5" fill-opacity="0.0"></path><path d="
M 454 268 C
454 299
454 299
454 330
" stroke="rgb(25,128,102)" stroke-width="5" fill-opacity="0.0"></path><path d="
M 454 330 C
454 361
454 361
454 392
" stroke="rgb(25,0,102)" stroke-width="5" fill-opacity="0.0"></path><path d="
M 454 392 C
454 423
454 423
454 454
" stroke="rgb(25,0,102)" stroke-width="5" fill-opacity="0.0"></path><line x1="20" y1="23" x2="20" y2="17" stroke="#040" stroke-width="5" stroke-opacity="0.0"></line><line x1="54" y1="51" x2="48" y2="51" stroke="#040" stroke-width="5" stroke-opacity="0.0"></line><line x1="20" y1="85" x2="20" y2="79" stroke="#040" stroke-width="5" stroke-opacity="0.0"></line><line x1="54" y1="113" x2="48" y2="113" stroke="rgb(0,0,0)" stroke-width="2"></line><line x1="20" y1="147" x2="20" y2="141" stroke="rgb(0,0,0)" stroke-width="2"></line><line x1="54" y1="175" x2="48" y2="175" stroke="#040" stroke-width="5" stroke-opacity="0.0"></line><line x1="20" y1="209" x2="20" y2="203" stroke="rgb(0,0,0)" stroke-width="2"></line><line x1="54" y1="237" x2="48" y2="237" stroke="rgb(0,0,0)" stroke-width="2"></line><line x1="20" y1="271" x2="20" y2="265" stroke="rgb(0,0,0)" stroke-width="2"></line><line x1="54" y1="299" x2="48" y2="299" stroke="rgb(255,0,255)" stroke-width="2"></line><line x1="20" y1="333" x2="20" y2="327" stroke="rgb(0,0,0)" stroke-width="2"></line><line x1="54" y1="361" x2="48" y2="361" stroke="#040" stroke-width="5" stroke-opacity="0.0"></line><line x1="20" y1="395" x2="20" y2="389" stroke="rgb(0,0,0)" stroke-width="2"></line><line x1="54" y1="423" x2="48" y2="423" stroke="rgb(255,0,255)" stroke-width="2"></line><line x1="20" y1="457" x2="20" y2="451" stroke="#040" stroke-width="5" stroke-opacity="0.0"></line><line x1="54" y1="485" x2="48" y2="485" stroke="#040" stroke-width="5" stroke-opacity="0.0"></line><line x1="82" y1="23" x2="82" y2="17" stroke="rgb(0,0,0)" stroke-width="2"></line><line x1="116" y1="51" x2="110" y2="51" stroke="#040" stroke-width="5" stroke-opacity="0.0"></line><line x1="82" y1="85" x2="82" y2="79" stroke="rgb(255,0,255)" stroke-width="2"></line><line x1="116" y1="113" x2="110" y2="113" stroke="rgb(0,0,0)" stroke-width="2"></line><line x1="82" y1="147" x2="82" y2="141" stroke="#040" stroke-width="5" stroke-opacity="0.0"></line><line x1="116" y1="175" x2="110" y2="175" stroke="#040" stroke-width="5" stroke-opacity="0.0"></line><line x1="82" y1="209" x2="82" y2="203" stroke="#040" stroke-width="5" stroke-opacity="0.0"></line><line x1="116" y1="237" x2="110" y2="237" stroke="rgb(0,0,0)" stroke-width="2"></line><line x1="82" y1="271" x2="82" y2="265" stroke="rgb(0,0,0)" stroke-width="2"></line><line x1="116" y1="299" x2="110" y2="299" stroke="rgb(0,0,0)" stroke-width="2"></line><line x1="82" y1="333" x2="82" y2="327" stroke="rgb(0,0,0)" stroke-width="2"></line><line x1="116" y1="361" x2="110" y2="361" stroke="rgb(0,0,0)" stroke-width="2"></line><line x1="82" y1="395" x2="82" y2="389" stroke="rgb(0,0,0)" stroke-width="2"></line><line x1="116" y1="423" x2="110" y2="423" stroke="rgb(0,0,0)" stroke-width="2"></line><line x1="82" y1="457" x2="82" y2="451" stroke="rgb(0,0,0)" stroke-width="2"></line><line x1="116" y1="485" x2="110" y2="485" stroke="rgb(0,0,0)" stroke-width="2"></line><line x1="144" y1="23" x2="144" y2="17" stroke="#040" stroke-width="5" stroke-opacity="0.0"></line><line x1="178" y1="51" x2="172" y2="51" stroke="rgb(0,0,0)" stroke-width="2"></line><line x1="144" y1="85" x2="144" y2="79" stroke="rgb(0,0,0)" stroke-width="2"></line><line x1="178" y1="113" x2="172" y2="113" stroke="#040" stroke-width="5" stroke-opacity="0.0"></line><line x1="144" y1="147" x2="144" y2="141" stroke="rgb(0,0,0)" stroke-width="2"></line><line x1="178" y1="175" x2="172" y2="175" stroke="#040" stroke-width="5" stroke-opacity="0.0"></line><line x1="144" y1="209" x2="144" y2="203" stroke="#040" stroke-width="5" stroke-opacity="0.0"></line><line x1="178" y1="237" x2="172" y2="237" stroke="rgb(0,0,0)" stroke-width="2"></line><line x1="144" y1="271" x2="144" y2="265" stroke="rgb(0,0,0)" stroke-width="2"></line><line x1="178" y1="299" x2="172" y2="299" stroke="rgb(0,0,0)" stroke-width="2"></line><line x1="144" y1="333" x2="144" y2="327" stroke="rgb(0,0,0)" stroke-width="2"></line><line x1="178" y1="361" x2="172" y2="361" stroke="rgb(0,0,0)" stroke-width="2"></line><line x1="144" y1="395" x2="144" y2="389" stroke="rgb(0,0,0)" stroke-width="2"></line><line x1="178" y1="423" x2="172" y2="423" stroke="rgb(0,0,0)" stroke-width="2"></line><line x1="144" y1="457" x2="144" y2="451" stroke="rgb(255,0,255)" stroke-width="2"></line><line x1="178" y1="485" x2="172" y2="485" stroke="rgb(0,0,0)" stroke-width="2"></line><line x1="206" y1="23" x2="206" y2="17" stroke="#040" stroke-width="5" stroke-opacity="0.0"></line><line x1="240" y1="51" x2="234" y2="51" stroke="rgb(0,0,0)" stroke-width="2"></line><line x1="206" y1="85" x2="206" y2="79" stroke="rgb(0,0,0)" stroke-width="2"></line><line x1="240" y1="113" x2="234" y2="113" stroke="#040" stroke-width="5" stroke-opacity="0.0"></line><line x1="206" y1="147" x2="206" y2="141" stroke="rgb(0,0,0)" stroke-width="2"></line><line x1="240" y1="175" x2="234" y2="175" stroke="#040" stroke-width="5" stroke-opacity="0.0"></line><line x1="206" y1="209" x2="206" y2="203" stroke="rgb(0,0,0)" stroke-width="2"></line><line x1="240" y1="237" x2="234" y2="237" stroke="rgb(0,0,0)" stroke-width="2"></line><line x1="206" y1="271" x2="206" y2="265" stroke="rgb(0,0,0)" stroke-width="2"></line><line x1="240" y1="299" x2="234" y2="299" stroke="rgb(0,0,0)" stroke-width="2"></line><line x1="206" y1="333" x2="206" y2="327" stroke="rgb(0,0,0)" stroke-width="2"></line><line x1="240" y1="361" x2="234" y2="361" stroke="rgb(0,0,0)" stroke-width="2"></line><line x1="206" y1="395" x2="206" y2="389" stroke="#040" stroke-width="5" stroke-opacity="0.0"></line><line x1="240" y1="423" x2="234" y2="423" stroke="rgb(0,0,0)" stroke-width="2"></line><line x1="206" y1="457" x2="206" y2="451" stroke="#040" stroke-width="5" stroke-opacity="0.0"></line><line x1="240" y1="485" x2="234" y2="485" stroke="rgb(0,0,0)" stroke-width="2"></line><line x1="268" y1="23" x2="268" y2="17" stroke="#040" stroke-width="5" stroke-opacity="0.0"></line><line x1="302" y1="51" x2="296" y2="51" stroke="rgb(0,0,0)" stroke-width="2"></line><line x1="268" y1="85" x2="268" y2="79" stroke="rgb(0,0,0)" stroke-width="2"></line><line x1="302" y1="113" x2="296" y2="113" stroke="#040" stroke-width="5" stroke-opacity="0.0"></line><line x1="268" y1="147" x2="268" y2="141" stroke="rgb(0,0,0)" stroke-width="2"></line><line x1="302" y1="175" x2="296" y2="175" stroke="#040" stroke-width="5" stroke-opacity="0.0"></line><line x1="268" y1="209" x2="268" y2="203" stroke="rgb(255,0,255)" stroke-width="2"></line><line x1="302" y1="237" x2="296" y2="237" stroke="rgb(0,0,0)" stroke-width="2"></line><line x1="268" y1="271" x2="268" y2="265" stroke="rgb(0,0,0)" stroke-width="2"></line><line x1="302" y1="299" x2="296" y2="299" stroke="rgb(0,0,0)" stroke-width="2"></line><line x1="268" y1="333" x2="268" y2="327" stroke="rgb(0,0,0)" stroke-width="2"></line><line x1="302" y1="361" x2="296" y2="361" stroke="rgb(0,0,0)" stroke-width="2"></line><line x1="268" y1="395" x2="268" y2="389" stroke="rgb(0,0,0)" stroke-width="2"></line><line x1="302" y1="423" x2="296" y2="423" stroke="rgb(0,0,0)" stroke-width="2"></line><line x1="268" y1="457" x2="268" y2="451" stroke="rgb(0,0,0)" stroke-width="2"></line><line x1="302" y1="485" x2="296" y2="485" stroke="#040" stroke-width="5" stroke-opacity="0.0"></line><line x1="330" y1="23" x2="330" y2="17" stroke="#040" stroke-width="5" stroke-opacity="0.0"></line><line x1="364" y1="51" x2="358" y2="51" stroke="rgb(0,0,0)" stroke-width="2"></line><line x1="330" y1="85" x2="330" y2="79" stroke="#040" stroke-width="5" stroke-opacity="0.0"></line><line x1="364" y1="113" x2="358" y2="113" stroke="rgb(0,0,0)" stroke-width="2"></line><line x1="330" y1="147" x2="330" y2="141" stroke="#040" stroke-width="5" stroke-opacity="0.0"></line><line x1="364" y1="175" x2="358" y2="175" stroke="#040" stroke-width="5" stroke-opacity="0.0"></line><line x1="330" y1="209" x2="330" y2="203" stroke="#040" stroke-width="5" stroke-opacity="0.0"></line><line x1="364" y1="237" x2="358" y2="237" stroke="#040" stroke-width="5" stroke-opacity="0.0"></line><line x1="330" y1="271" x2="330" y2="265" stroke="rgb(0,0,0)" stroke-width="2"></line><line x1="364" y1="299" x2="358" y2="299" stroke="#040" stroke-width="5" stroke-opacity="0.0"></line><line x1="330" y1="333" x2="330" y2="327" stroke="rgb(0,0,0)" stroke-width="2"></line><line x1="364" y1="361" x2="358" y2="361" stroke="rgb(255,0,255)" stroke-width="2"></line><line x1="330" y1="395" x2="330" y2="389" stroke="rgb(255,0,255)" stroke-width="2"></line><line x1="364" y1="423" x2="358" y2="423" stroke="rgb(0,0,0)" stroke-width="2"></line><line x1="330" y1="457" x2="330" y2="451" stroke="#040" stroke-width="5" stroke-opacity="0.0"></line><line x1="364" y1="485" x2="358" y2="485" stroke="rgb(0,0,0)" stroke-width="2"></line><line x1="392" y1="23" x2="392" y2="17" stroke="rgb(0,0,0)" stroke-width="2"></line><line x1="426" y1="51" x2="420" y2="51" stroke="rgb(0,0,0)" stroke-width="2"></line><line x1="392" y1="85" x2="392" y2="79" stroke="rgb(0,0,0)" stroke-width="2"></line><line x1="426" y1="113" x2="420" y2="113" stroke="rgb(0,0,0)" stroke-width="2"></line><line x1="392" y1="147" x2="392" y2="141" stroke="rgb(0,0,0)" stroke-width="2"></line><line x1="426" y1="175" x2="420" y2="175" stroke="#040" stroke-width="5" stroke-opacity="0.0"></line><line x1="392" y1="209" x2="392" y2="203" stroke="rgb(0,0,0)" stroke-width="2"></line><line x1="426" y1="237" x2="420" y2="237" stroke="rgb(0,0,0)" stroke-width="2"></line><line x1="392" y1="271" x2="392" y2="265" stroke="rgb(255,0,255)" stroke-width="2"></line><line x1="426" y1="299" x2="420" y2="299" stroke="rgb(0,0,0)" stroke-width="2"></line><line x1="392" y1="333" x2="392" y2="327" stroke="rgb(0,0,0)" stroke-width="2"></line><line x1="426" y1="361" x2="420" y2="361" stroke="rgb(0,0,0)" stroke-width="2"></line><line x1="392" y1="395" x2="392" y2="389" stroke="rgb(0,0,0)" stroke-width="2"></line><line x1="426" y1="423" x2="420" y2="423" stroke="rgb(0,0,0)" stroke-width="2"></line><line x1="392" y1="457" x2="392" y2="451" stroke="rgb(0,0,0)" stroke-width="2"></line><line x1="426" y1="485" x2="420" y2="485" stroke="rgb(0,0,0)" stroke-width="2"></line><line x1="454" y1="23" x2="454" y2="17" stroke="rgb(0,0,0)" stroke-width="2"></line><line x1="488" y1="51" x2="482" y2="51" stroke="#040" stroke-width="5" stroke-opacity="0.0"></line><line x1="454" y1="85" x2="454" y2="79" stroke="rgb(0,0,0)" stroke-width="2"></line><line x1="488" y1="113" x2="482" y2="113" stroke="rgb(0,0,0)" stroke-width="2"></line><line x1="454" y1="147" x2="454" y2="141" stroke="rgb(0,0,0)" stroke-width="2"></line><line x1="488" y1="175" x2="482" y2="175" stroke="#040" stroke-width="5" stroke-opacity="0.0"></line><line x1="454" y1="209" x2="454" y2="203" stroke="rgb(0,0,0)" stroke-width="2"></line><line x1="488" y1="237" x2="482" y2="237" stroke="rgb(0,0,0)" stroke-width="2"></line><line x1="454" y1="271" x2="454" y2="265" stroke="rgb(255,0,255)" stroke-width="2"></line><line x1="488" y1="299" x2="482" y2="299" stroke="rgb(0,0,0)" stroke-width="2"></line><line x1="454" y1="333" x2="454" y2="327" stroke="rgb(0,0,0)" stroke-width="2"></line><line x1="488" y1="361" x2="482" y2="361" stroke="#040" stroke-width="5" stroke-opacity="0.0"></line><line x1="454" y1="395" x2="454" y2="389" stroke="rgb(0,0,0)" stroke-width="2"></line><line x1="488" y1="423" x2="482" y2="423" stroke="rgb(0,0,0)" stroke-width="2"></line><line x1="454" y1="457" x2="454" y2="451" stroke="rgb(0,0,0)" stroke-width="2"></line><line x1="488" y1="485" x2="482" y2="485" stroke="#040" stroke-width="5" stroke-opacity="0.0"></line></svg>
