<svg xmlns="http://www.w3.org/2000/svg" version="1.1"><path d="
M 82 20 C
135.6935750346352 20
148.1532124826824 27.193575034635188
175 73.69357503463519
" stroke="rgb(25,179,102)" stroke-width="5" fill-opacity="0.0"></path><path d="
M 82 20 C
113 20
128.5 46.846787517317594
113 73.69357503463519
" stroke="rgb(25,179,102)" stroke-width="5" fill-opacity="0.0"></path><path d="
M 51 73.69357503463519 C
66.5 100.54036255195278
97.5 100.54036255195278
113 73.69357503463519
" stroke="rgb(25,179,102)" stroke-width="5" fill-opacity="0.0"></path><path d="
M 206 20 C
175 20
159.5 46.846787517317594
175 73.69357503463519
" stroke="rgb(25,179,102)" stroke-width="5" fill-opacity="0.0"></path><path d="
M 206 20 C
152.3064249653648 20
139.8467875173176 27.193575034635188
113 73.69357503463519
" stroke="rgb(25,179,102)" stroke-width="5" fill-opacity="0.0"></path><path d="
M 206 20 C
268 20
268 20
330 20
" stroke="rgb(25,179,102)" stroke-width="5" fill-opacity="0.0"></path><path d="
M 206 20 C
259.6935750346352 20
272.1532124826824 27.193575034635188
299 73.69357503463519
" stroke="rgb(25,179,102)" stroke-width="5" fill-opacity="0.0"></path><path d="
M 206 20 C
237 20
252.5 46.846787517317594
237 73.69357503463519
" stroke="rgb(25,179,102)" stroke-width="5" fill-opacity="0.0"></path><path d="
M 175 73.69357503463519 C
190.5 100.54036255195278
221.5 100.54036255195278
237 73.69357503463519
" stroke="rgb(25,179,102)" stroke-width="5" fill-opacity="0.0"></path><path d="
M 175 73.69357503463519 C
190.5 100.5403625519528
175 127.38715006927039
144 127.38715006927039
" stroke="rgb(25,179,102)" stroke-width="5" fill-opacity="0.0"></path><path d="
M 175 73.69357503463519 C
201.8467875173176 120.19357503463519
201.8467875173176 134.5807251039056
175 181.0807251039056
" stroke="rgb(25,179,102)" stroke-width="5" fill-opacity="0.0"></path><path d="
M 113 73.69357503463519 C
97.5 100.5403625519528
113 127.38715006927039
144 127.38715006927039
" stroke="rgb(25,179,102)" stroke-width="5" fill-opacity="0.0"></path><path d="
M 113 73.69357503463519 C
82 127.38715006927039
82 127.38715006927039
51 181.0807251039056
" stroke="rgb(25,179,102)" stroke-width="5" fill-opacity="0.0"></path><path d="
M 330 20 C
299 20
283.5 46.846787517317594
299 73.69357503463519
" stroke="rgb(25,179,102)" stroke-width="5" fill-opacity="0.0"></path><path d="
M 330 20 C
276.3064249653648 20
263.8467875173176 27.193575034635188
237 73.69357503463519
" stroke="rgb(25,179,102)" stroke-width="5" fill-opacity="0.0"></path><path d="
M 330 20 C
392 20
392 20
454 20
" stroke="rgb(25,179,102)" stroke-width="5" fill-opacity="0.0"></path><path d="
M 330 20 C
361 20
376.5 46.846787517317594
361 73.69357503463519
" stroke="rgb(25,179,102)" stroke-width="5" fill-opacity="0.0"></path><path d="
M 299 73.69357503463519 C
283.5 46.846787517317594
252.5 46.846787517317594
237 73.69357503463519
" stroke="rgb(25,179,102)" stroke-width="5" fill-opacity="0.0"></path><path d="
M 299 73.69357503463519 C
314.5 100.54036255195278
345.5 100.54036255195278
361 73.69357503463519
" stroke="rgb(25,179,102)" stroke-width="5" fill-opacity="0.0"></path><path d="
M 299 73.69357503463519 C
325.8467875173176 120.19357503463519
338.3064249653648 127.38715006927039
392 127.38715006927039
" stroke="rgb(25,179,102)" stroke-width="5" fill-opacity="0.0"></path><path d="
M 299 73.69357503463519 C
330 127.38715006927039
330 127.38715006927039
361 181.0807251039056
" stroke="rgb(25,179,102)" stroke-width="5" fill-opacity="0.0"></path><path d="
M 237 73.69357503463519 C
210.1532124826824 120.19357503463519
197.6935750346352 127.38715006927039
144 127.38715006927039
" stroke="rgb(25,179,102)" stroke-width="5" fill-opacity="0.0"></path><path d="
M 237 73.69357503463519 C
221.5 100.5403625519528
237 127.38715006927039
268 127.38715006927039
" stroke="rgb(25,179,102)" stroke-width="5" fill-opacity="0.0"></path><path d="
M 237 73.69357503463519 C
206 127.38715006927039
206 127.38715006927039
175 181.0807251039056
" stroke="rgb(25,179,102)" stroke-width="5" fill-opacity="0.0"></path><path d="
M 454 20 C
400.3064249653648 20
387.8467875173176 27.193575034635188
361 73.69357503463519
" stroke="rgb(25,179,102)" stroke-width="5" fill-opacity="0.0"></path><path d="
M 423 73.69357503463519 C
454 127.38715006927039
454 127.38715006927039
485 181.0807251039056
" stroke="rgb(25,179,102)" stroke-width="5" fill-opacity="0.0"></path><path d="
M 144 127.38715006927039 C
113 127.38715006927039
97.5 154.23393758658798
113 181.0807251039056
" stroke="rgb(25,179,102)" stroke-width="5" fill-opacity="0.0"></path><path d="
M 144 127.38715006927039 C
90.30642496536481 127.38715006927039
77.8467875173176 134.5807251039056
51 181.0807251039056
" stroke="rgb(25,179,102)" stroke-width="5" fill-opacity="0.0"></path><path d="
M 144 127.38715006927039 C
206 127.38715006927039
206 127.38715006927039
268 127.38715006927039
" stroke="rgb(25,179,102)" stroke-width="5" fill-opacity="0.0"></path><path d="
M 144 127.38715006927039 C
197.6935750346352 127.38715006927039
210.1532124826824 134.5807251039056
237 181.0807251039056
" stroke="rgb(25,179,102)" stroke-width="5" fill-opacity="0.0"></path><path d="
M 113 181.0807251039056 C
128.5 207.92751262122317
113 234.77430013854078
82 234.77430013854078
" stroke="rgb(25,179,102)" stroke-width="5" fill-opacity="0.0"></path><path d="
M 113 181.0807251039056 C
144 234.77430013854078
144 234.77430013854078
175 288.46787517317597
" stroke="rgb(25,179,102)" stroke-width="5" fill-opacity="0.0"></path><path d="
M 51 181.0807251039056 C
35.5 207.92751262122317
51 234.77430013854078
82 234.77430013854078
" stroke="rgb(25,179,102)" stroke-width="5" fill-opacity="0.0"></path><path d="
M 268 127.38715006927039 C
214.3064249653648 127.38715006927039
201.8467875173176 134.5807251039056
175 181.0807251039056
" stroke="rgb(25,179,102)" stroke-width="5" fill-opacity="0.0"></path><path d="
M 268 127.38715006927039 C
330 127.38715006927039
330 127.38715006927039
392 127.38715006927039
" stroke="rgb(25,179,102)" stroke-width="5" fill-opacity="0.0"></path><path d="
M 268 127.38715006927039 C
321.6935750346352 127.38715006927039
334.1532124826824 134.5807251039056
361 181.0807251039056
" stroke="rgb(25,179,102)" stroke-width="5" fill-opacity="0.0"></path><path d="
M 268 127.38715006927039 C
299 127.38715006927039
314.5 154.23393758658798
299 181.0807251039056
" stroke="rgb(25,179,102)" stroke-width="5" fill-opacity="0.0"></path><path d="
M 237 181.0807251039056 C
268 234.77430013854078
268 234.77430013854078
299 288.46787517317597
" stroke="rgb(25,179,102)" stroke-width="5" fill-opacity="0.0"></path><path d="
M 237 181.0807251039056 C
263.8467875173176 227.5807251039056
263.8467875173176 241.96787517317597
237 288.46787517317597
" stroke="rgb(25,179,102)" stroke-width="5" fill-opacity="0.0"></path><path d="
M 175 181.0807251039056 C
148.1532124826824 227.5807251039056
135.6935750346352 234.77430013854078
82 234.77430013854078
" stroke="rgb(25,179,102)" stroke-width="5" fill-opacity="0.0"></path><path d="
M 175 181.0807251039056 C
159.5 207.92751262122317
175 234.77430013854078
206 234.77430013854078
" stroke="rgb(25,179,102)" stroke-width="5" fill-opacity="0.0"></path><path d="
M 392 127.38715006927039 C
361 127.38715006927039
345.5 154.23393758658798
361 181.0807251039056
" stroke="rgb(25,179,102)" stroke-width="5" fill-opacity="0.0"></path><path d="
M 392 127.38715006927039 C
338.3064249653648 127.38715006927039
325.8467875173176 134.5807251039056
299 181.0807251039056
" stroke="rgb(25,179,102)" stroke-width="5" fill-opacity="0.0"></path><path d="
M 392 127.38715006927039 C
445.6935750346352 127.38715006927039
458.1532124826824 134.5807251039056
485 181.0807251039056
" stroke="rgb(25,179,102)" stroke-width="5" fill-opacity="0.0"></path><path d="
M 361 181.0807251039056 C
392 234.77430013854078
392 234.77430013854078
423 288.46787517317597
" stroke="rgb(25,179,102)" stroke-width="5" fill-opacity="0.0"></path><path d="
M 361 181.0807251039056 C
387.8467875173176 227.5807251039056
387.8467875173176 241.96787517317597
361 288.46787517317597
" stroke="rgb(25,179,102)" stroke-width="5" fill-opacity="0.0"></path><path d="
M 299 181.0807251039056 C
272.1532124826824 227.5807251039056
259.6935750346352 234.77430013854078
206 234.77430013854078
" stroke="rgb(25,179,102)" stroke-width="5" fill-opacity="0.0"></path><path d="
M 299 181.0807251039056 C
283.5 207.92751262122317
299 234.77430013854078
330 234.77430013854078
" stroke="rgb(25,179,102)" stroke-width="5" fill-opacity="0.0"></path><path d="
M 516 127.38715006927039 C
485 127.38715006927039
469.5 154.23393758658798
485 181.0807251039056
" stroke="rgb(25,179,102)" stroke-width="5" fill-opacity="0.0"></path><path d="
M 516 127.38715006927039 C
462.3064249653648 127.38715006927039
449.8467875173176 134.5807251039056
423 181.0807251039056
" stroke="rgb(25,179,102)" stroke-width="5" fill-opacity="0.0"></path><path d="
M 485 181.0807251039056 C
469.5 154.23393758658798
438.5 154.23393758658798
423 181.0807251039056
" stroke="rgb(25,179,102)" stroke-width="5" fill-opacity="0.0"></path><path d="
M 485 181.0807251039056 C
500.5 207.92751262122317
485 234.77430013854078
454 234.77430013854078
" stroke="rgb(25,179,102)" stroke-width="5" fill-opacity="0.0"></path><path d="
M 82 234.77430013854078 C
51 234.77430013854078
35.5 261.6210876558584
51 288.46787517317597
" stroke="rgb(25,179,102)" stroke-width="5" fill-opacity="0.0"></path><path d="
M 82 234.77430013854078 C
28.306424965364805 234.77430013854078
15.846787517317598 241.96787517317597
-11 288.46787517317597
" stroke="rgb(25,179,102)" stroke-width="5" fill-opacity="0.0"></path><path d="
M 82 234.77430013854078 C
135.6935750346352 234.77430013854078
148.1532124826824 241.96787517317597
175 288.46787517317597
" stroke="rgb(25,179,102)" stroke-width="5" fill-opacity="0.0"></path><path d="
M 82 234.77430013854078 C
113 234.77430013854078
128.5 261.6210876558584
113 288.46787517317597
" stroke="rgb(25,179,102)" stroke-width="5" fill-opacity="0.0"></path><path d="
M 51 288.46787517317597 C
35.5 261.6210876558584
4.5 261.6210876558584
-11 288.46787517317597
" stroke="rgb(25,179,102)" stroke-width="5" fill-opacity="0.0"></path><path d="
M 206 234.77430013854078 C
268 234.77430013854078
268 234.77430013854078
330 234.77430013854078
" stroke="rgb(25,179,102)" stroke-width="5" fill-opacity="0.0"></path><path d="
M 206 234.77430013854078 C
237 234.77430013854078
252.5 261.6210876558584
237 288.46787517317597
" stroke="rgb(25,179,102)" stroke-width="5" fill-opacity="0.0"></path><path d="
M 175 288.46787517317597 C
190.5 315.31466269049355
221.5 315.31466269049355
237 288.46787517317597
" stroke="rgb(25,179,102)" stroke-width="5" fill-opacity="0.0"></path><path d="
M 175 288.46787517317597 C
190.5 315.31466269049355
175 342.1614502078112
144 342.1614502078112
" stroke="rgb(25,179,102)" stroke-width="5" fill-opacity="0.0"></path><path d="
M 175 288.46787517317597 C
206 342.1614502078112
206 342.1614502078112
237 395.8550252424464
" stroke="rgb(25,179,102)" stroke-width="5" fill-opacity="0.0"></path><path d="
M 113 288.46787517317597 C
86.15321248268239 334.96787517317597
86.15321248268239 349.3550252424464
113 395.8550252424464
" stroke="rgb(25,179,102)" stroke-width="5" fill-opacity="0.0"></path><path d="
M 330 234.77430013854078 C
276.3064249653648 234.77430013854078
263.8467875173176 241.96787517317597
237 288.46787517317597
" stroke="rgb(25,179,102)" stroke-width="5" fill-opacity="0.0"></path><path d="
M 330 234.77430013854078 C
383.6935750346352 234.77430013854078
396.1532124826824 241.96787517317597
423 288.46787517317597
" stroke="rgb(25,179,102)" stroke-width="5" fill-opacity="0.0"></path><path d="
M 330 234.77430013854078 C
361 234.77430013854078
376.5 261.6210876558584
361 288.46787517317597
" stroke="rgb(25,179,102)" stroke-width="5" fill-opacity="0.0"></path><path d="
M 299 288.46787517317597 C
330 342.1614502078112
330 342.1614502078112
361 395.8550252424464
" stroke="rgb(25,179,102)" stroke-width="5" fill-opacity="0.0"></path><path d="
M 299 288.46787517317597 C
325.8467875173176 334.96787517317597
325.8467875173176 349.3550252424464
299 395.8550252424464
" stroke="rgb(25,179,102)" stroke-width="5" fill-opacity="0.0"></path><path d="
M 237 288.46787517317597 C
210.1532124826824 334.96787517317597
197.69357503463522 342.1614502078112
144 342.1614502078112
" stroke="rgb(25,179,102)" stroke-width="5" fill-opacity="0.0"></path><path d="
M 237 288.46787517317597 C
221.5 315.31466269049355
237 342.1614502078112
268 342.1614502078112
" stroke="rgb(25,179,102)" stroke-width="5" fill-opacity="0.0"></path><path d="
M 237 288.46787517317597 C
210.1532124826824 334.96787517317597
210.1532124826824 349.3550252424464
237 395.8550252424464
" stroke="rgb(25,179,102)" stroke-width="5" fill-opacity="0.0"></path><path d="
M 454 234.77430013854078 C
400.3064249653648 234.77430013854078
387.8467875173176 241.96787517317597
361 288.46787517317597
" stroke="rgb(25,179,102)" stroke-width="5" fill-opacity="0.0"></path><path d="
M 423 288.46787517317597 C
449.8467875173176 334.96787517317597
462.3064249653648 342.1614502078112
516 342.1614502078112
" stroke="rgb(25,179,102)" stroke-width="5" fill-opacity="0.0"></path><path d="
M 423 288.46787517317597 C
449.8467875173176 334.96787517317597
449.8467875173176 349.3550252424464
423 395.8550252424464
" stroke="rgb(25,179,102)" stroke-width="5" fill-opacity="0.0"></path><path d="
M 361 288.46787517317597 C
330 342.1614502078112
330 342.1614502078112
299 395.8550252424464
" stroke="rgb(25,179,102)" stroke-width="5" fill-opacity="0.0"></path><path d="
M 144 342.1614502078112 C
206 342.1614502078112
206 342.1614502078112
268 342.1614502078112
" stroke="rgb(25,179,102)" stroke-width="5" fill-opacity="0.0"></path><path d="
M 144 342.1614502078112 C
175 342.1614502078112
190.5 369.0082377251288
175 395.8550252424464
" stroke="rgb(25,179,102)" stroke-width="5" fill-opacity="0.0"></path><path d="
M 113 395.8550252424464 C
128.5 422.701812759764
159.5 422.701812759764
175 395.8550252424464
" stroke="rgb(25,179,102)" stroke-width="5" fill-opacity="0.0"></path><path d="
M 113 395.8550252424464 C
144 449.5486002770816
144 449.5486002770816
175 503.2421753117168
" stroke="rgb(25,179,102)" stroke-width="5" fill-opacity="0.0"></path><path d="
M 113 395.8550252424464 C
139.84678751731758 442.3550252424464
139.84678751731758 456.7421753117168
113 503.2421753117168
" stroke="rgb(25,179,102)" stroke-width="5" fill-opacity="0.0"></path><path d="
M 51 395.8550252424464 C
35.50000000000001 422.701812759764
51.000000000000014 449.54860027708156
82 449.54860027708156
" stroke="rgb(25,179,102)" stroke-width="5" fill-opacity="0.0"></path><path d="
M 268 342.1614502078112 C
214.30642496536478 342.1614502078112
201.8467875173176 349.3550252424464
175 395.8550252424464
" stroke="rgb(25,179,102)" stroke-width="5" fill-opacity="0.0"></path><path d="
M 268 342.1614502078112 C
321.6935750346352 342.1614502078112
334.1532124826824 349.3550252424464
361 395.8550252424464
" stroke="rgb(25,179,102)" stroke-width="5" fill-opacity="0.0"></path><path d="
M 237 395.8550252424464 C
252.5 422.701812759764
283.5 422.701812759764
299 395.8550252424464
" stroke="rgb(25,179,102)" stroke-width="5" fill-opacity="0.0"></path><path d="
M 237 395.8550252424464 C
252.5 422.701812759764
236.99999999999997 449.54860027708156
206 449.54860027708156
" stroke="rgb(25,179,102)" stroke-width="5" fill-opacity="0.0"></path><path d="
M 237 395.8550252424464 C
263.8467875173176 442.3550252424464
276.30642496536484 449.54860027708156
330 449.54860027708156
" stroke="rgb(25,179,102)" stroke-width="5" fill-opacity="0.0"></path><path d="
M 237 395.8550252424464 C
263.8467875173176 442.3550252424464
263.8467875173176 456.7421753117168
237 503.2421753117168
" stroke="rgb(25,179,102)" stroke-width="5" fill-opacity="0.0"></path><path d="
M 392 342.1614502078112 C
338.3064249653648 342.1614502078112
325.8467875173176 349.3550252424464
299 395.8550252424464
" stroke="rgb(25,179,102)" stroke-width="5" fill-opacity="0.0"></path><path d="
M 361 395.8550252424464 C
376.5 422.701812759764
407.5 422.701812759764
423 395.8550252424464
" stroke="rgb(25,179,102)" stroke-width="5" fill-opacity="0.0"></path><path d="
M 361 395.8550252424464 C
387.8467875173176 442.3550252424464
400.30642496536484 449.54860027708156
454 449.54860027708156
" stroke="rgb(25,179,102)" stroke-width="5" fill-opacity="0.0"></path><path d="
M 485 395.8550252424464 C
500.5 422.701812759764
485 449.54860027708156
454 449.54860027708156
" stroke="rgb(25,179,102)" stroke-width="5" fill-opacity="0.0"></path><path d="
M 423 395.8550252424464 C
396.1532124826824 442.3550252424464
383.69357503463516 449.54860027708156
330 449.54860027708156
" stroke="rgb(25,179,102)" stroke-width="5" fill-opacity="0.0"></path><path d="
M 423 395.8550252424464 C
392 449.5486002770816
392 449.5486002770816
361 503.2421753117168
" stroke="rgb(25,179,102)" stroke-width="5" fill-opacity="0.0"></path><path d="
M 82 449.54860027708156 C
144 449.54860027708156
144 449.54860027708156
206 449.54860027708156
" stroke="rgb(25,179,102)" stroke-width="5" fill-opacity="0.0"></path><path d="
M 82 449.54860027708156 C
113.00000000000001 449.54860027708156
128.5 476.3953877943992
113 503.2421753117168
" stroke="rgb(25,179,102)" stroke-width="5" fill-opacity="0.0"></path><path d="
M 206 449.54860027708156 C
175 449.54860027708156
159.5 476.3953877943992
175 503.2421753117168
" stroke="rgb(25,179,102)" stroke-width="5" fill-opacity="0.0"></path><path d="
M 206 449.54860027708156 C
152.30642496536478 449.54860027708156
139.8467875173176 456.7421753117168
113 503.2421753117168
" stroke="rgb(25,179,102)" stroke-width="5" fill-opacity="0.0"></path><path d="
M 206 449.54860027708156 C
268 449.54860027708156
268 449.54860027708156
330 449.54860027708156
" stroke="rgb(25,179,102)" stroke-width="5" fill-opacity="0.0"></path><path d="
M 206 449.54860027708156 C
237 449.54860027708156
252.5 476.3953877943992
237 503.2421753117168
" stroke="rgb(25,179,102)" stroke-width="5" fill-opacity="0.0"></path><path d="
M 175 503.2421753117168 C
159.5 476.3953877943992
128.5 476.3953877943992
113 503.2421753117168
" stroke="rgb(25,179,102)" stroke-width="5" fill-opacity="0.0"></path><path d="
M 330 449.54860027708156 C
276.3064249653648 449.54860027708156
263.8467875173176 456.7421753117168
237 503.2421753117168
" stroke="rgb(25,179,102)" stroke-width="5" fill-opacity="0.0"></path><path d="
M 330 449.54860027708156 C
383.6935750346352 449.54860027708156
396.1532124826824 456.7421753117168
423 503.2421753117168
" stroke="rgb(25,179,102)" stroke-width="5" fill-opacity="0.0"></path><path d="
M 330 449.54860027708156 C
361 449.54860027708156
376.5 476.3953877943992
361 503.2421753117168
" stroke="rgb(25,179,102)" stroke-width="5" fill-opacity="0.0"></path><path d="
M 454 449.54860027708156 C
423 449.54860027708156
407.5 476.3953877943992
423 503.2421753117168
" stroke="rgb(25,179,102)" stroke-width="5" fill-opacity="0.0"></path><path d="
M 454 449.54860027708156 C
400.3064249653648 449.54860027708156
387.8467875173176 456.7421753117168
361 503.2421753117168
" stroke="rgb(25,179,102)" stroke-width="5" fill-opacity="0.0"></path><line x1="85" y1="20" x2="79" y2="20" stroke="#040" stroke-width="5" stroke-opacity="0.0"></line><line x1="52.5" y1="76.2916512459885" x2="49.5" y2="71.09549882328187" stroke="#040" stroke-width="5" stroke-opacity="0.0"></line><line x1="-12.5" y1="76.2916512459885" x2="-9.5" y2="71.09549882328187" stroke="#040" stroke-width="5" stroke-opacity="0.0"></line><line x1="209" y1="20" x2="203" y2="20" stroke="#808" stroke-width="2"></line><line x1="176.5" y1="76.2916512459885" x2="173.5" y2="71.09549882328187" stroke="#808" stroke-width="2"></line><line x1="111.5" y1="76.2916512459885" x2="114.5" y2="71.09549882328187" stroke="#808" stroke-width="2"></line><line x1="333" y1="20" x2="327" y2="20" stroke="#808" stroke-width="2"></line><line x1="300.5" y1="76.2916512459885" x2="297.5" y2="71.09549882328187" stroke="#808" stroke-width="2"></line><line x1="235.5" y1="76.2916512459885" x2="238.5" y2="71.09549882328187" stroke="#808" stroke-width="2"></line><line x1="457" y1="20" x2="451" y2="20" stroke="#040" stroke-width="5" stroke-opacity="0.0"></line><line x1="424.5" y1="76.2916512459885" x2="421.5" y2="71.09549882328187" stroke="#040" stroke-width="5" stroke-opacity="0.0"></line><line x1="359.5" y1="76.2916512459885" x2="362.5" y2="71.09549882328187" stroke="#808" stroke-width="2"></line><line x1="147" y1="127.38715006927039" x2="141" y2="127.38715006927039" stroke="#808" stroke-width="2"></line><line x1="114.5" y1="183.6788013152589" x2="111.5" y2="178.48264889255228" stroke="#808" stroke-width="2"></line><line x1="49.5" y1="183.6788013152589" x2="52.5" y2="178.48264889255228" stroke="#808" stroke-width="2"></line><line x1="271" y1="127.38715006927039" x2="265" y2="127.38715006927039" stroke="#808" stroke-width="2"></line><line x1="238.5" y1="183.6788013152589" x2="235.5" y2="178.48264889255228" stroke="#808" stroke-width="2"></line><line x1="173.5" y1="183.6788013152589" x2="176.5" y2="178.48264889255228" stroke="#808" stroke-width="2"></line><line x1="395" y1="127.38715006927039" x2="389" y2="127.38715006927039" stroke="#808" stroke-width="2"></line><line x1="362.5" y1="183.6788013152589" x2="359.5" y2="178.48264889255228" stroke="#808" stroke-width="2"></line><line x1="297.5" y1="183.6788013152589" x2="300.5" y2="178.48264889255228" stroke="#808" stroke-width="2"></line><line x1="519" y1="127.38715006927039" x2="513" y2="127.38715006927039" stroke="#040" stroke-width="5" stroke-opacity="0.0"></line><line x1="486.5" y1="183.6788013152589" x2="483.5" y2="178.48264889255228" stroke="#808" stroke-width="2"></line><line x1="421.5" y1="183.6788013152589" x2="424.5" y2="178.48264889255228" stroke="#040" stroke-width="5" stroke-opacity="0.0"></line><line x1="85" y1="234.77430013854078" x2="79" y2="234.77430013854078" stroke="#808" stroke-width="2"></line><line x1="52.5" y1="291.0659513845293" x2="49.5" y2="285.86979896182265" stroke="#040" stroke-width="5" stroke-opacity="0.0"></line><line x1="-12.5" y1="291.0659513845293" x2="-9.5" y2="285.86979896182265" stroke="#040" stroke-width="5" stroke-opacity="0.0"></line><line x1="209" y1="234.77430013854078" x2="203" y2="234.77430013854078" stroke="#808" stroke-width="2"></line><line x1="176.5" y1="291.0659513845293" x2="173.5" y2="285.86979896182265" stroke="#808" stroke-width="2"></line><line x1="111.5" y1="291.0659513845293" x2="114.5" y2="285.86979896182265" stroke="#808" stroke-width="2"></line><line x1="333" y1="234.77430013854078" x2="327" y2="234.77430013854078" stroke="#808" stroke-width="2"></line><line x1="300.5" y1="291.0659513845293" x2="297.5" y2="285.86979896182265" stroke="#808" stroke-width="2"></line><line x1="235.5" y1="291.0659513845293" x2="238.5" y2="285.86979896182265" stroke="#808" stroke-width="2"></line><line x1="457" y1="234.77430013854078" x2="451" y2="234.77430013854078" stroke="#808" stroke-width="2"></line><line x1="424.5" y1="291.0659513845293" x2="421.5" y2="285.86979896182265" stroke="#808" stroke-width="2"></line><line x1="359.5" y1="291.0659513845293" x2="362.5" y2="285.86979896182265" stroke="#808" stroke-width="2"></line><line x1="147" y1="342.1614502078112" x2="141" y2="342.1614502078112" stroke="#040" stroke-width="5" stroke-opacity="0.0"></line><line x1="114.5" y1="398.4531014537997" x2="111.5" y2="393.2569490310931" stroke="#808" stroke-width="2"></line><line x1="49.5" y1="398.4531014537997" x2="52.5" y2="393.2569490310931" stroke="#040" stroke-width="5" stroke-opacity="0.0"></line><line x1="271" y1="342.1614502078112" x2="265" y2="342.1614502078112" stroke="#808" stroke-width="2"></line><line x1="238.5" y1="398.4531014537997" x2="235.5" y2="393.2569490310931" stroke="#808" stroke-width="2"></line><line x1="173.5" y1="398.4531014537997" x2="176.5" y2="393.2569490310931" stroke="#808" stroke-width="2"></line><line x1="395" y1="342.1614502078112" x2="389" y2="342.1614502078112" stroke="#040" stroke-width="5" stroke-opacity="0.0"></line><line x1="362.5" y1="398.4531014537997" x2="359.5" y2="393.2569490310931" stroke="#808" stroke-width="2"></line><line x1="297.5" y1="398.4531014537997" x2="300.5" y2="393.2569490310931" stroke="#808" stroke-width="2"></line><line x1="519" y1="342.1614502078112" x2="513" y2="342.1614502078112" stroke="#040" stroke-width="5" stroke-opacity="0.0"></line><line x1="486.5" y1="398.4531014537997" x2="483.5" y2="393.2569490310931" stroke="#040" stroke-width="5" stroke-opacity="0.0"></line><line x1="421.5" y1="398.4531014537997" x2="424.5" y2="393.2569490310931" stroke="#808" stroke-width="2"></line><line x1="85" y1="449.54860027708156" x2="79" y2="449.54860027708156" stroke="#808" stroke-width="2"></line><line x1="52.5" y1="505.8402515230701" x2="49.5" y2="500.64409910036346" stroke="#040" stroke-width="5" stroke-opacity="0.0"></line><line x1="-12.5" y1="505.8402515230701" x2="-9.5" y2="500.64409910036346" stroke="#040" stroke-width="5" stroke-opacity="0.0"></line><line x1="209" y1="449.54860027708156" x2="203" y2="449.54860027708156" stroke="#808" stroke-width="2"></line><line x1="176.5" y1="505.8402515230701" x2="173.5" y2="500.64409910036346" stroke="#040" stroke-width="5" stroke-opacity="0.0"></line><line x1="111.5" y1="505.8402515230701" x2="114.5" y2="500.64409910036346" stroke="#040" stroke-width="5" stroke-opacity="0.0"></line><line x1="333" y1="449.54860027708156" x2="327" y2="449.54860027708156" stroke="#808" stroke-width="2"></line><line x1="300.5" y1="505.8402515230701" x2="297.5" y2="500.64409910036346" stroke="#040" stroke-width="5" stroke-opacity="0.0"></line><line x1="235.5" y1="505.8402515230701" x2="238.5" y2="500.64409910036346" stroke="#040" stroke-width="5" stroke-opacity="0.0"></line><line x1="457" y1="449.54860027708156" x2="451" y2="449.54860027708156" stroke="#808" stroke-width="2"></line><line x1="424.5" y1="505.8402515230701" x2="421.5" y2="500.64409910036346" stroke="#040" stroke-width="5" stroke-opacity="0.0"></line><line x1="359.5" y1="505.8402515230701" x2="362.5" y2="500.64409910036346" stroke="#040" stroke-width="5" stroke-opacity="0.0"></line></svg>
