<svg viewBox="15 15 549 549" xmlns="http://www.w3.org/2000/svg" version="1.1"><path d="
M 20 20 C
20 74.44722215136416
42.55277784863584 97
97 97
" stroke="rgb(25,152,102)" stroke-width="5" fill-opacity="0.0"></path><path d="
M 20 20 C
20 97
20 97
20 174
" stroke="rgb(25,152,102)" stroke-width="5" fill-opacity="0.0"></path><path d="
M 97 97 C
42.55277784863584 97
20 119.55277784863584
20 174
" stroke="rgb(25,179,102)" stroke-width="5" fill-opacity="0.0"></path><path d="
M 97 97 C
151.44722215136414 97
174 74.44722215136416
174 20
" stroke="rgb(25,179,102)" stroke-width="5" fill-opacity="0.0"></path><path d="
M 97 97 C
174 97
174 97
251 97
" stroke="rgb(25,217,102)" stroke-width="5" fill-opacity="0.0"></path><path d="
M 97 97 C
151.44722215136414 97
174 119.55277784863584
174 174
" stroke="rgb(25,179,102)" stroke-width="5" fill-opacity="0.0"></path><path d="
M 20 174 C
20 228.44722215136414
42.55277784863584 251
97 251
" stroke="rgb(25,217,102)" stroke-width="5" fill-opacity="0.0"></path><path d="
M 20 174 C
20 251
20 251
20 328
" stroke="rgb(25,179,102)" stroke-width="5" fill-opacity="0.0"></path><path d="
M 97 251 C
42.55277784863584 251
20 273.55277784863586
20 328
" stroke="rgb(25,217,102)" stroke-width="5" fill-opacity="0.0"></path><path d="
M 97 251 C
151.44722215136414 251
174 228.44722215136414
174 174
" stroke="rgb(25,217,102)" stroke-width="5" fill-opacity="0.0"></path><path d="
M 97 251 C
174 251
174 251
251 251
" stroke="rgb(25,217,102)" stroke-width="5" fill-opacity="0.0"></path><path d="
M 97 251 C
151.44722215136414 251
174 273.55277784863586
174 328
" stroke="rgb(25,217,102)" stroke-width="5" fill-opacity="0.0"></path><path d="
M 20 328 C
20 382.44722215136414
42.55277784863584 405
97 405
" stroke="rgb(25,152,102)" stroke-width="5" fill-opacity="0.0"></path><path d="
M 20 328 C
20 405
20 405
20 482
" stroke="rgb(25,152,102)" stroke-width="5" fill-opacity="0.0"></path><path d="
M 97 405 C
42.55277784863584 405
20 427.55277784863586
20 482
" stroke="rgb(25,125,102)" stroke-width="5" fill-opacity="0.0"></path><path d="
M 97 405 C
151.44722215136414 405
174 382.44722215136414
174 328
" stroke="rgb(25,152,102)" stroke-width="5" fill-opacity="0.0"></path><path d="
M 97 405 C
174 405
174 405
251 405
" stroke="rgb(25,125,102)" stroke-width="5" fill-opacity="0.0"></path><path d="
M 97 405 C
151.44722215136414 405
174 427.55277784863586
174 482
" stroke="rgb(25,125,102)" stroke-width="5" fill-opacity="0.0"></path><path d="
M 20 482 C
20 536.4472221513641
42.55277784863584 559
97 559
" stroke="rgb(25,106,102)" stroke-width="5" fill-opacity="0.0"></path><path d="
M 97 559 C
151.44722215136414 559
174 536.4472221513641
174 482
" stroke="rgb(25,106,102)" stroke-width="5" fill-opacity="0.0"></path><path d="
M 97 559 C
174 559
174 559
251 559
" stroke="rgb(25,87,102)" stroke-width="5" fill-opacity="0.0"></path><path d="
M 174 20 C
174 74.44722215136416
196.55277784863586 97
251 97
" stroke="rgb(25,217,102)" stroke-width="5" fill-opacity="0.0"></path><path d="
M 174 20 C
174 97
174 97
174 174
" stroke="rgb(25,179,102)" stroke-width="5" fill-opacity="0.0"></path><path d="
M 251 97 C
196.55277784863586 97
174 119.55277784863584
174 174
" stroke="rgb(25,217,102)" stroke-width="5" fill-opacity="0.0"></path><path d="
M 251 97 C
305.44722215136414 97
328 74.44722215136416
328 20
" stroke="rgb(25,217,102)" stroke-width="5" fill-opacity="0.0"></path><path d="
M 251 97 C
328 97
328 97
405 97
" stroke="rgb(25,217,102)" stroke-width="5" fill-opacity="0.0"></path><path d="
M 251 97 C
305.44722215136414 97
328 119.55277784863584
328 174
" stroke="rgb(25,217,102)" stroke-width="5" fill-opacity="0.0"></path><path d="
M 174 174 C
174 228.44722215136414
196.55277784863586 251
251 251
" stroke="rgb(25,179,102)" stroke-width="5" fill-opacity="0.0"></path><path d="
M 174 174 C
174 251
174 251
174 328
" stroke="rgb(25,179,102)" stroke-width="5" fill-opacity="0.0"></path><path d="
M 251 251 C
196.55277784863586 251
174 273.55277784863586
174 328
" stroke="rgb(25,179,102)" stroke-width="5" fill-opacity="0.0"></path><path d="
M 251 251 C
305.44722215136414 251
328 228.44722215136414
328 174
" stroke="rgb(25,179,102)" stroke-width="5" fill-opacity="0.0"></path><path d="
M 251 251 C
328 251
328 251
405 251
" stroke="rgb(25,152,102)" stroke-width="5" fill-opacity="0.0"></path><path d="
M 251 251 C
305.44722215136414 251
328 273.55277784863586
328 328
" stroke="rgb(25,152,102)" stroke-width="5" fill-opacity="0.0"></path><path d="
M 174 328 C
174 382.44722215136414
196.55277784863586 405
251 405
" stroke="rgb(25,152,102)" stroke-width="5" fill-opacity="0.0"></path><path d="
M 174 328 C
174 405
174 405
174 482
" stroke="rgb(25,152,102)" stroke-width="5" fill-opacity="0.0"></path><path d="
M 251 405 C
196.55277784863586 405
174 427.55277784863586
174 482
" stroke="rgb(25,125,102)" stroke-width="5" fill-opacity="0.0"></path><path d="
M 251 405 C
305.44722215136414 405
328 382.44722215136414
328 328
" stroke="rgb(25,125,102)" stroke-width="5" fill-opacity="0.0"></path><path d="
M 251 405 C
328 405
328 405
405 405
" stroke="rgb(25,106,102)" stroke-width="5" fill-opacity="0.0"></path><path d="
M 251 405 C
305.44722215136414 405
328 427.55277784863586
328 482
" stroke="rgb(25,106,102)" stroke-width="5" fill-opacity="0.0"></path><path d="
M 174 482 C
174 536.4472221513641
196.55277784863586 559
251 559
" stroke="rgb(25,106,102)" stroke-width="5" fill-opacity="0.0"></path><path d="
M 251 559 C
305.44722215136414 559
328 536.4472221513641
328 482
" stroke="rgb(25,87,102)" stroke-width="5" fill-opacity="0.0"></path><path d="
M 251 559 C
328 559
328 559
405 559
" stroke="rgb(25,74,102)" stroke-width="5" fill-opacity="0.0"></path><path d="
M 328 20 C
328 74.44722215136416
350.55277784863586 97
405 97
" stroke="rgb(25,179,102)" stroke-width="5" fill-opacity="0.0"></path><path d="
M 328 20 C
328 97
328 97
328 174
" stroke="rgb(25,179,102)" stroke-width="5" fill-opacity="0.0"></path><path d="
M 405 97 C
350.55277784863586 97
328 119.55277784863584
328 174
" stroke="rgb(25,179,102)" stroke-width="5" fill-opacity="0.0"></path><path d="
M 405 97 C
459.44722215136414 97
482 74.44722215136416
482 20
" stroke="rgb(25,152,102)" stroke-width="5" fill-opacity="0.0"></path><path d="
M 405 97 C
482 97
482 97
559 97
" stroke="rgb(25,152,102)" stroke-width="5" fill-opacity="0.0"></path><path d="
M 405 97 C
459.44722215136414 97
482 119.55277784863584
482 174
" stroke="rgb(25,152,102)" stroke-width="5" fill-opacity="0.0"></path><path d="
M 328 174 C
328 228.44722215136414
350.55277784863586 251
405 251
" stroke="rgb(25,152,102)" stroke-width="5" fill-opacity="0.0"></path><path d="
M 328 174 C
328 251
328 251
328 328
" stroke="rgb(25,152,102)" stroke-width="5" fill-opacity="0.0"></path><path d="
M 405 251 C
350.55277784863586 251
328 273.55277784863586
328 328
" stroke="rgb(25,125,102)" stroke-width="5" fill-opacity="0.0"></path><path d="
M 405 251 C
459.44722215136414 251
482 228.44722215136414
482 174
" stroke="rgb(25,125,102)" stroke-width="5" fill-opacity="0.0"></path><path d="
M 405 251 C
482 251
482 251
559 251
" stroke="rgb(25,106,102)" stroke-width="5" fill-opacity="0.0"></path><path d="
M 405 251 C
459.44722215136414 251
482 273.55277784863586
482 328
" stroke="rgb(25,106,102)" stroke-width="5" fill-opacity="0.0"></path><path d="
M 328 328 C
328 382.44722215136414
350.55277784863586 405
405 405
" stroke="rgb(25,106,102)" stroke-width="5" fill-opacity="0.0"></path><path d="
M 328 328 C
328 405
328 405
328 482
" stroke="rgb(25,106,102)" stroke-width="5" fill-opacity="0.0"></path><path d="
M 405 405 C
350.55277784863586 405
328 427.55277784863586
328 482
" stroke="rgb(25,87,102)" stroke-width="5" fill-opacity="0.0"></path><path d="
M 405 405 C
459.44722215136414 405
482 382.44722215136414
482 328
" stroke="rgb(25,87,102)" stroke-width="5" fill-opacity="0.0"></path><path d="
M 405 405 C
482 405
482 405
559 405
" stroke="rgb(25,74,102)" stroke-width="5" fill-opacity="0.0"></path><path d="
M 405 405 C
459.44722215136414 405
482 427.55277784863586
482 482
" stroke="rgb(25,74,102)" stroke-width="5" fill-opacity="0.0"></path><path d="
M 328 482 C
328 536.4472221513641
350.55277784863586 559
405 559
" stroke="rgb(25,74,102)" stroke-width="5" fill-opacity="0.0"></path><path d="
M 405 559 C
459.44722215136414 559
482 536.4472221513641
482 482
" stroke="rgb(25,61,102)" stroke-width="5" fill-opacity="0.0"></path><path d="
M 405 559 C
482 559
482 559
559 559
" stroke="rgb(25,52,102)" stroke-width="5" fill-opacity="0.0"></path><path d="
M 482 20 C
482 74.44722215136416
504.55277784863586 97
559 97
" stroke="rgb(25,125,102)" stroke-width="5" fill-opacity="0.0"></path><path d="
M 482 20 C
482 97
482 97
482 174
" stroke="rgb(25,125,102)" stroke-width="5" fill-opacity="0.0"></path><path d="
M 559 97 C
504.55277784863586 97
482 119.55277784863584
482 174
" stroke="rgb(25,125,102)" stroke-width="5" fill-opacity="0.0"></path><path d="
M 482 174 C
482 228.44722215136414
504.55277784863586 251
559 251
" stroke="rgb(25,106,102)" stroke-width="5" fill-opacity="0.0"></path><path d="
M 482 174 C
482 251
482 251
482 328
" stroke="rgb(25,106,102)" stroke-width="5" fill-opacity="0.0"></path><path d="
M 559 251 C
504.55277784863586 251
482 273.55277784863586
482 328
" stroke="rgb(25,87,102)" stroke-width="5" fill-opacity="0.0"></path><path d="
M 482 328 C
482 382.44722215136414
504.55277784863586 405
559 405
" stroke="rgb(25,74,102)" stroke-width="5" fill-opacity="0.0"></path><path d="
M 482 328 C
482 405
482 405
482 482
" stroke="rgb(25,74,102)" stroke-width="5" fill-opacity="0.0"></path><path d="
M 559 405 C
504.55277784863586 405
482 427.55277784863586
482 482
" stroke="rgb(25,61,102)" stroke-width="5" fill-opacity="0.0"></path><path d="
M 482 482 C
482 536.4472221513641
504.55277784863586 559
559 559
" stroke="rgb(25,52,102)" stroke-width="5" fill-opacity="0.0"></path><line x1="20" y1="23" x2="20" y2="17" stroke="rgb(255,0,125)" stroke-width="2"></line><line x1="100" y1="97" x2="94" y2="97" stroke="rgb(255,0,179)" stroke-width="2"></line><line x1="20" y1="177" x2="20" y2="171" stroke="rgb(255,0,179)" stroke-width="2"></line><line x1="100" y1="251" x2="94" y2="251" stroke="rgb(255,0,255)" stroke-width="2"></line><line x1="20" y1="331" x2="20" y2="325" stroke="rgb(255,0,179)" stroke-width="2"></line><line x1="100" y1="405" x2="94" y2="405" stroke="rgb(255,0,125)" stroke-width="2"></line><line x1="20" y1="485" x2="20" y2="479" stroke="rgb(255,0,125)" stroke-width="2"></line><line x1="100" y1="559" x2="94" y2="559" stroke="rgb(255,0,87)" stroke-width="2"></line><line x1="174" y1="23" x2="174" y2="17" stroke="rgb(255,0,179)" stroke-width="2"></line><line x1="254" y1="97" x2="248" y2="97" stroke="rgb(255,0,255)" stroke-width="2"></line><line x1="174" y1="177" x2="174" y2="171" stroke="rgb(255,0,179)" stroke-width="2"></line><line x1="254" y1="251" x2="248" y2="251" stroke="rgb(255,0,179)" stroke-width="2"></line><line x1="174" y1="331" x2="174" y2="325" stroke="rgb(255,0,179)" stroke-width="2"></line><line x1="254" y1="405" x2="248" y2="405" stroke="rgb(255,0,125)" stroke-width="2"></line><line x1="174" y1="485" x2="174" y2="479" stroke="rgb(255,0,125)" stroke-width="2"></line><line x1="254" y1="559" x2="248" y2="559" stroke="rgb(255,0,87)" stroke-width="2"></line><line x1="328" y1="23" x2="328" y2="17" stroke="rgb(255,0,179)" stroke-width="2"></line><line x1="408" y1="97" x2="402" y2="97" stroke="rgb(255,0,179)" stroke-width="2"></line><line x1="328" y1="177" x2="328" y2="171" stroke="rgb(255,0,179)" stroke-width="2"></line><line x1="408" y1="251" x2="402" y2="251" stroke="rgb(255,0,125)" stroke-width="2"></line><line x1="328" y1="331" x2="328" y2="325" stroke="rgb(255,0,125)" stroke-width="2"></line><line x1="408" y1="405" x2="402" y2="405" stroke="rgb(255,0,87)" stroke-width="2"></line><line x1="328" y1="485" x2="328" y2="479" stroke="rgb(255,0,87)" stroke-width="2"></line><line x1="408" y1="559" x2="402" y2="559" stroke="rgb(184,0,61)" stroke-width="2"></line><line x1="482" y1="23" x2="482" y2="17" stroke="rgb(255,0,125)" stroke-width="2"></line><line x1="562" y1="97" x2="556" y2="97" stroke="rgb(255,0,125)" stroke-width="2"></line><line x1="482" y1="177" x2="482" y2="171" stroke="rgb(255,0,125)" stroke-width="2"></line><line x1="562" y1="251" x2="556" y2="251" stroke="rgb(255,0,87)" stroke-width="2"></line><line x1="482" y1="331" x2="482" y2="325" stroke="rgb(255,0,87)" stroke-width="2"></line><line x1="562" y1="405" x2="556" y2="405" stroke="rgb(184,0,61)" stroke-width="2"></line><line x1="482" y1="485" x2="482" y2="479" stroke="rgb(184,0,61)" stroke-width="2"></line><line x1="562" y1="559" x2="556" y2="559" stroke="rgb(129,0,43)" stroke-width="2"></line></svg>
