<svg xmlns="http://www.w3.org/2000/svg" version="1.1"><path d="
M 82 20 C
51 20
35.5 46.846787517317594
51 73.69357503463519
" stroke="rgb(25,152,102)" stroke-width="5" fill-opacity="0.0"></path><path d="
M 82 20 C
28.306424965364805 20
15.846787517317598 27.193575034635188
-11 73.69357503463519
" stroke="rgb(25,217,102)" stroke-width="5" fill-opacity="0.0"></path><path d="
M 51 73.69357503463519 C
77.8467875173176 120.19357503463519
90.30642496536481 127.38715006927039
144 127.38715006927039
" stroke="rgb(25,106,102)" stroke-width="5" fill-opacity="0.0"></path><path d="
M 51 73.69357503463519 C
82 127.38715006927039
82 127.38715006927039
113 181.0807251039056
" stroke="rgb(25,106,102)" stroke-width="5" fill-opacity="0.0"></path><path d="
M 206 20 C
152.3064249653648 20
139.8467875173176 27.193575034635188
113 73.69357503463519
" stroke="rgb(25,52,102)" stroke-width="5" fill-opacity="0.0"></path><path d="
M 206 20 C
268 20
268 20
330 20
" stroke="rgb(25,43,102)" stroke-width="5" fill-opacity="0.0"></path><path d="
M 175 73.69357503463519 C
159.5 46.846787517317594
128.5 46.846787517317594
113 73.69357503463519
" stroke="rgb(25,61,102)" stroke-width="5" fill-opacity="0.0"></path><path d="
M 175 73.69357503463519 C
190.5 100.5403625519528
175 127.38715006927039
144 127.38715006927039
" stroke="rgb(25,74,102)" stroke-width="5" fill-opacity="0.0"></path><path d="
M 113 73.69357503463519 C
97.5 100.5403625519528
113 127.38715006927039
144 127.38715006927039
" stroke="rgb(25,74,102)" stroke-width="5" fill-opacity="0.0"></path><path d="
M 113 73.69357503463519 C
82 127.38715006927039
82 127.38715006927039
51 181.0807251039056
" stroke="rgb(25,61,102)" stroke-width="5" fill-opacity="0.0"></path><path d="
M 330 20 C
276.3064249653648 20
263.8467875173176 27.193575034635188
237 73.69357503463519
" stroke="rgb(25,52,102)" stroke-width="5" fill-opacity="0.0"></path><path d="
M 330 20 C
383.6935750346352 20
396.1532124826824 27.193575034635188
423 73.69357503463519
" stroke="rgb(25,36,102)" stroke-width="5" fill-opacity="0.0"></path><path d="
M 330 20 C
361 20
376.5 46.846787517317594
361 73.69357503463519
" stroke="rgb(25,43,102)" stroke-width="5" fill-opacity="0.0"></path><path d="
M 299 73.69357503463519 C
314.5 100.54036255195278
345.5 100.54036255195278
361 73.69357503463519
" stroke="rgb(25,36,102)" stroke-width="5" fill-opacity="0.0"></path><path d="
M 299 73.69357503463519 C
325.8467875173176 120.19357503463519
338.3064249653648 127.38715006927039
392 127.38715006927039
" stroke="rgb(25,30,102)" stroke-width="5" fill-opacity="0.0"></path><path d="
M 299 73.69357503463519 C
330 127.38715006927039
330 127.38715006927039
361 181.0807251039056
" stroke="rgb(25,25,102)" stroke-width="5" fill-opacity="0.0"></path><path d="
M 237 73.69357503463519 C
210.1532124826824 120.19357503463519
197.6935750346352 127.38715006927039
144 127.38715006927039
" stroke="rgb(25,74,102)" stroke-width="5" fill-opacity="0.0"></path><path d="
M 237 73.69357503463519 C
221.5 100.5403625519528
237 127.38715006927039
268 127.38715006927039
" stroke="rgb(25,61,102)" stroke-width="5" fill-opacity="0.0"></path><path d="
M 237 73.69357503463519 C
206 127.38715006927039
206 127.38715006927039
175 181.0807251039056
" stroke="rgb(25,52,102)" stroke-width="5" fill-opacity="0.0"></path><path d="
M 423 73.69357503463519 C
438.5 100.5403625519528
423 127.38715006927039
392 127.38715006927039
" stroke="rgb(25,30,102)" stroke-width="5" fill-opacity="0.0"></path><path d="
M 423 73.69357503463519 C
454 127.38715006927039
454 127.38715006927039
485 181.0807251039056
" stroke="rgb(25,25,102)" stroke-width="5" fill-opacity="0.0"></path><path d="
M 361 73.69357503463519 C
334.1532124826824 120.19357503463519
321.6935750346352 127.38715006927039
268 127.38715006927039
" stroke="rgb(25,52,102)" stroke-width="5" fill-opacity="0.0"></path><path d="
M 361 73.69357503463519 C
345.5 100.5403625519528
361 127.38715006927039
392 127.38715006927039
" stroke="rgb(25,36,102)" stroke-width="5" fill-opacity="0.0"></path><path d="
M 361 73.69357503463519 C
330 127.38715006927039
330 127.38715006927039
299 181.0807251039056
" stroke="rgb(25,36,102)" stroke-width="5" fill-opacity="0.0"></path><path d="
M 144 127.38715006927039 C
90.30642496536481 127.38715006927039
77.8467875173176 134.5807251039056
51 181.0807251039056
" stroke="rgb(25,74,102)" stroke-width="5" fill-opacity="0.0"></path><path d="
M 144 127.38715006927039 C
206 127.38715006927039
206 127.38715006927039
268 127.38715006927039
" stroke="rgb(25,74,102)" stroke-width="5" fill-opacity="0.0"></path><path d="
M 113 181.0807251039056 C
97.5 154.23393758658798
66.5 154.23393758658798
51 181.0807251039056
" stroke="rgb(25,74,102)" stroke-width="5" fill-opacity="0.0"></path><path d="
M 113 181.0807251039056 C
128.5 207.92751262122317
113 234.77430013854078
82 234.77430013854078
" stroke="rgb(25,74,102)" stroke-width="5" fill-opacity="0.0"></path><path d="
M 113 181.0807251039056 C
139.8467875173176 227.5807251039056
152.3064249653648 234.77430013854078
206 234.77430013854078
" stroke="rgb(25,74,102)" stroke-width="5" fill-opacity="0.0"></path><path d="
M 113 181.0807251039056 C
144 234.77430013854078
144 234.77430013854078
175 288.46787517317597
" stroke="rgb(25,74,102)" stroke-width="5" fill-opacity="0.0"></path><path d="
M 113 181.0807251039056 C
139.84678751731758 227.5807251039056
139.84678751731758 241.96787517317597
113 288.46787517317597
" stroke="rgb(25,74,102)" stroke-width="5" fill-opacity="0.0"></path><path d="
M 51 181.0807251039056 C
24.153212482682406 227.5807251039056
24.153212482682406 241.96787517317597
51 288.46787517317597
" stroke="rgb(25,52,102)" stroke-width="5" fill-opacity="0.0"></path><path d="
M 268 127.38715006927039 C
237 127.38715006927039
221.5 154.23393758658798
237 181.0807251039056
" stroke="rgb(25,52,102)" stroke-width="5" fill-opacity="0.0"></path><path d="
M 237 181.0807251039056 C
221.5 154.23393758658798
190.5 154.23393758658798
175 181.0807251039056
" stroke="rgb(25,43,102)" stroke-width="5" fill-opacity="0.0"></path><path d="
M 237 181.0807251039056 C
252.5 207.9275126212232
283.5 207.9275126212232
299 181.0807251039056
" stroke="rgb(25,36,102)" stroke-width="5" fill-opacity="0.0"></path><path d="
M 237 181.0807251039056 C
263.8467875173176 227.5807251039056
276.3064249653648 234.77430013854078
330 234.77430013854078
" stroke="rgb(25,43,102)" stroke-width="5" fill-opacity="0.0"></path><path d="
M 175 181.0807251039056 C
148.1532124826824 227.5807251039056
135.6935750346352 234.77430013854078
82 234.77430013854078
" stroke="rgb(25,52,102)" stroke-width="5" fill-opacity="0.0"></path><path d="
M 175 181.0807251039056 C
144 234.77430013854078
144 234.77430013854078
113 288.46787517317597
" stroke="rgb(25,52,102)" stroke-width="5" fill-opacity="0.0"></path><path d="
M 392 127.38715006927039 C
338.3064249653648 127.38715006927039
325.8467875173176 134.5807251039056
299 181.0807251039056
" stroke="rgb(25,30,102)" stroke-width="5" fill-opacity="0.0"></path><path d="
M 392 127.38715006927039 C
445.6935750346352 127.38715006927039
458.1532124826824 134.5807251039056
485 181.0807251039056
" stroke="rgb(25,25,102)" stroke-width="5" fill-opacity="0.0"></path><path d="
M 392 127.38715006927039 C
423 127.38715006927039
438.5 154.23393758658798
423 181.0807251039056
" stroke="rgb(25,30,102)" stroke-width="5" fill-opacity="0.0"></path><path d="
M 361 181.0807251039056 C
376.5 207.9275126212232
407.5 207.9275126212232
423 181.0807251039056
" stroke="rgb(25,25,102)" stroke-width="5" fill-opacity="0.0"></path><path d="
M 361 181.0807251039056 C
392 234.77430013854078
392 234.77430013854078
423 288.46787517317597
" stroke="rgb(25,21,102)" stroke-width="5" fill-opacity="0.0"></path><path d="
M 299 181.0807251039056 C
283.5 207.92751262122317
299 234.77430013854078
330 234.77430013854078
" stroke="rgb(25,36,102)" stroke-width="5" fill-opacity="0.0"></path><path d="
M 299 181.0807251039056 C
272.1532124826824 227.5807251039056
272.1532124826824 241.96787517317597
299 288.46787517317597
" stroke="rgb(25,36,102)" stroke-width="5" fill-opacity="0.0"></path><path d="
M 299 181.0807251039056 C
268 234.77430013854078
268 234.77430013854078
237 288.46787517317597
" stroke="rgb(25,36,102)" stroke-width="5" fill-opacity="0.0"></path><path d="
M 516 127.38715006927039 C
485 127.38715006927039
469.5 154.23393758658798
485 181.0807251039056
" stroke="rgb(25,17,102)" stroke-width="5" fill-opacity="0.0"></path><path d="
M 485 181.0807251039056 C
469.5 154.23393758658798
438.5 154.23393758658798
423 181.0807251039056
" stroke="rgb(25,25,102)" stroke-width="5" fill-opacity="0.0"></path><path d="
M 485 181.0807251039056 C
500.5 207.92751262122317
485 234.77430013854078
454 234.77430013854078
" stroke="rgb(25,25,102)" stroke-width="5" fill-opacity="0.0"></path><path d="
M 423 181.0807251039056 C
396.1532124826824 227.5807251039056
383.6935750346352 234.77430013854078
330 234.77430013854078
" stroke="rgb(25,36,102)" stroke-width="5" fill-opacity="0.0"></path><path d="
M 82 234.77430013854078 C
28.306424965364805 234.77430013854078
15.846787517317598 241.96787517317597
-11 288.46787517317597
" stroke="rgb(25,52,102)" stroke-width="5" fill-opacity="0.0"></path><path d="
M 82 234.77430013854078 C
135.6935750346352 234.77430013854078
148.1532124826824 241.96787517317597
175 288.46787517317597
" stroke="rgb(25,61,102)" stroke-width="5" fill-opacity="0.0"></path><path d="
M 82 234.77430013854078 C
113 234.77430013854078
128.5 261.6210876558584
113 288.46787517317597
" stroke="rgb(25,61,102)" stroke-width="5" fill-opacity="0.0"></path><path d="
M 51 288.46787517317597 C
35.5 261.6210876558584
4.5 261.6210876558584
-11 288.46787517317597
" stroke="rgb(25,43,102)" stroke-width="5" fill-opacity="0.0"></path><path d="
M 51 288.46787517317597 C
77.84678751731761 334.96787517317597
90.3064249653648 342.1614502078112
144 342.1614502078112
" stroke="rgb(25,43,102)" stroke-width="5" fill-opacity="0.0"></path><path d="
M 51 288.46787517317597 C
82.00000000000001 342.1614502078112
81.99999999999999 342.1614502078112
113 395.8550252424464
" stroke="rgb(25,36,102)" stroke-width="5" fill-opacity="0.0"></path><path d="
M 51 288.46787517317597 C
77.84678751731761 334.96787517317597
77.84678751731761 349.3550252424464
51 395.8550252424464
" stroke="rgb(25,36,102)" stroke-width="5" fill-opacity="0.0"></path><path d="
M 206 234.77430013854078 C
268 234.77430013854078
268 234.77430013854078
330 234.77430013854078
" stroke="rgb(25,52,102)" stroke-width="5" fill-opacity="0.0"></path><path d="
M 206 234.77430013854078 C
259.6935750346352 234.77430013854078
272.1532124826824 241.96787517317597
299 288.46787517317597
" stroke="rgb(25,52,102)" stroke-width="5" fill-opacity="0.0"></path><path d="
M 206 234.77430013854078 C
237 234.77430013854078
252.5 261.6210876558584
237 288.46787517317597
" stroke="rgb(25,52,102)" stroke-width="5" fill-opacity="0.0"></path><path d="
M 175 288.46787517317597 C
159.5 261.6210876558584
128.5 261.6210876558584
113 288.46787517317597
" stroke="rgb(25,61,102)" stroke-width="5" fill-opacity="0.0"></path><path d="
M 175 288.46787517317597 C
201.8467875173176 334.96787517317597
214.30642496536478 342.1614502078112
268 342.1614502078112
" stroke="rgb(25,52,102)" stroke-width="5" fill-opacity="0.0"></path><path d="
M 113 288.46787517317597 C
97.5 315.31466269049355
112.99999999999999 342.1614502078112
144 342.1614502078112
" stroke="rgb(25,52,102)" stroke-width="5" fill-opacity="0.0"></path><path d="
M 330 234.77430013854078 C
299 234.77430013854078
283.5 261.6210876558584
299 288.46787517317597
" stroke="rgb(25,43,102)" stroke-width="5" fill-opacity="0.0"></path><path d="
M 330 234.77430013854078 C
392 234.77430013854078
392 234.77430013854078
454 234.77430013854078
" stroke="rgb(25,36,102)" stroke-width="5" fill-opacity="0.0"></path><path d="
M 299 288.46787517317597 C
283.5 261.6210876558584
252.5 261.6210876558584
237 288.46787517317597
" stroke="rgb(25,43,102)" stroke-width="5" fill-opacity="0.0"></path><path d="
M 299 288.46787517317597 C
314.5 315.31466269049355
345.5 315.31466269049355
361 288.46787517317597
" stroke="rgb(25,36,102)" stroke-width="5" fill-opacity="0.0"></path><path d="
M 299 288.46787517317597 C
325.8467875173176 334.96787517317597
338.3064249653648 342.1614502078112
392 342.1614502078112
" stroke="rgb(25,36,102)" stroke-width="5" fill-opacity="0.0"></path><path d="
M 299 288.46787517317597 C
330 342.1614502078112
330 342.1614502078112
361 395.8550252424464
" stroke="rgb(25,36,102)" stroke-width="5" fill-opacity="0.0"></path><path d="
M 299 288.46787517317597 C
325.8467875173176 334.96787517317597
325.8467875173176 349.3550252424464
299 395.8550252424464
" stroke="rgb(25,36,102)" stroke-width="5" fill-opacity="0.0"></path><path d="
M 237 288.46787517317597 C
210.1532124826824 334.96787517317597
210.1532124826824 349.3550252424464
237 395.8550252424464
" stroke="rgb(25,36,102)" stroke-width="5" fill-opacity="0.0"></path><path d="
M 423 288.46787517317597 C
407.5 261.6210876558584
376.5 261.6210876558584
361 288.46787517317597
" stroke="rgb(25,25,102)" stroke-width="5" fill-opacity="0.0"></path><path d="
M 423 288.46787517317597 C
449.8467875173176 334.96787517317597
462.3064249653648 342.1614502078112
516 342.1614502078112
" stroke="rgb(25,21,102)" stroke-width="5" fill-opacity="0.0"></path><path d="
M 423 288.46787517317597 C
449.8467875173176 334.96787517317597
449.8467875173176 349.3550252424464
423 395.8550252424464
" stroke="rgb(25,21,102)" stroke-width="5" fill-opacity="0.0"></path><path d="
M 361 288.46787517317597 C
345.5 315.31466269049355
361 342.1614502078112
392 342.1614502078112
" stroke="rgb(25,30,102)" stroke-width="5" fill-opacity="0.0"></path><path d="
M 361 288.46787517317597 C
334.1532124826824 334.96787517317597
334.1532124826824 349.3550252424464
361 395.8550252424464
" stroke="rgb(25,30,102)" stroke-width="5" fill-opacity="0.0"></path><path d="
M 361 288.46787517317597 C
330 342.1614502078112
330 342.1614502078112
299 395.8550252424464
" stroke="rgb(25,30,102)" stroke-width="5" fill-opacity="0.0"></path><path d="
M 144 342.1614502078112 C
90.3064249653648 342.1614502078112
77.84678751731761 349.3550252424464
51 395.8550252424464
" stroke="rgb(25,36,102)" stroke-width="5" fill-opacity="0.0"></path><path d="
M 144 342.1614502078112 C
175 342.1614502078112
190.5 369.0082377251288
175 395.8550252424464
" stroke="rgb(25,36,102)" stroke-width="5" fill-opacity="0.0"></path><path d="
M 113 395.8550252424464 C
97.5 369.0082377251288
66.5 369.0082377251288
51 395.8550252424464
" stroke="rgb(25,30,102)" stroke-width="5" fill-opacity="0.0"></path><path d="
M 113 395.8550252424464 C
128.5 422.701812759764
159.5 422.701812759764
175 395.8550252424464
" stroke="rgb(25,30,102)" stroke-width="5" fill-opacity="0.0"></path><path d="
M 113 395.8550252424464 C
128.5 422.701812759764
112.99999999999999 449.54860027708156
82 449.54860027708156
" stroke="rgb(25,25,102)" stroke-width="5" fill-opacity="0.0"></path><path d="
M 113 395.8550252424464 C
139.84678751731758 442.3550252424464
152.3064249653648 449.54860027708156
206 449.54860027708156
" stroke="rgb(25,25,102)" stroke-width="5" fill-opacity="0.0"></path><path d="
M 113 395.8550252424464 C
139.84678751731758 442.3550252424464
139.84678751731758 456.7421753117168
113 503.2421753117168
" stroke="rgb(25,25,102)" stroke-width="5" fill-opacity="0.0"></path><path d="
M 51 395.8550252424464 C
35.50000000000001 422.701812759764
51.000000000000014 449.54860027708156
82 449.54860027708156
" stroke="rgb(25,25,102)" stroke-width="5" fill-opacity="0.0"></path><path d="
M 51 395.8550252424464 C
20.000000000000004 449.5486002770816
19.999999999999996 449.5486002770816
-11 503.2421753117168
" stroke="rgb(25,25,102)" stroke-width="5" fill-opacity="0.0"></path><path d="
M 268 342.1614502078112 C
237 342.1614502078112
221.5 369.0082377251288
237 395.8550252424464
" stroke="rgb(25,36,102)" stroke-width="5" fill-opacity="0.0"></path><path d="
M 268 342.1614502078112 C
214.30642496536478 342.1614502078112
201.8467875173176 349.3550252424464
175 395.8550252424464
" stroke="rgb(25,36,102)" stroke-width="5" fill-opacity="0.0"></path><path d="
M 268 342.1614502078112 C
321.6935750346352 342.1614502078112
334.1532124826824 349.3550252424464
361 395.8550252424464
" stroke="rgb(25,36,102)" stroke-width="5" fill-opacity="0.0"></path><path d="
M 268 342.1614502078112 C
299 342.1614502078112
314.5 369.0082377251288
299 395.8550252424464
" stroke="rgb(25,36,102)" stroke-width="5" fill-opacity="0.0"></path><path d="
M 237 395.8550252424464 C
252.5 422.701812759764
236.99999999999997 449.54860027708156
206 449.54860027708156
" stroke="rgb(25,25,102)" stroke-width="5" fill-opacity="0.0"></path><path d="
M 175 395.8550252424464 C
159.5 422.701812759764
175.00000000000003 449.54860027708156
206 449.54860027708156
" stroke="rgb(25,25,102)" stroke-width="5" fill-opacity="0.0"></path><path d="
M 175 395.8550252424464 C
144 449.5486002770816
144 449.5486002770816
113 503.2421753117168
" stroke="rgb(25,25,102)" stroke-width="5" fill-opacity="0.0"></path><path d="
M 392 342.1614502078112 C
338.3064249653648 342.1614502078112
325.8467875173176 349.3550252424464
299 395.8550252424464
" stroke="rgb(25,30,102)" stroke-width="5" fill-opacity="0.0"></path><path d="
M 392 342.1614502078112 C
454 342.1614502078112
454 342.1614502078112
516 342.1614502078112
" stroke="rgb(25,25,102)" stroke-width="5" fill-opacity="0.0"></path><path d="
M 392 342.1614502078112 C
423 342.1614502078112
438.5 369.0082377251288
423 395.8550252424464
" stroke="rgb(25,25,102)" stroke-width="5" fill-opacity="0.0"></path><path d="
M 361 395.8550252424464 C
345.5 369.0082377251288
314.5 369.0082377251288
299 395.8550252424464
" stroke="rgb(25,30,102)" stroke-width="5" fill-opacity="0.0"></path><path d="
M 361 395.8550252424464 C
376.5 422.701812759764
407.5 422.701812759764
423 395.8550252424464
" stroke="rgb(25,25,102)" stroke-width="5" fill-opacity="0.0"></path><path d="
M 361 395.8550252424464 C
376.5 422.701812759764
361 449.54860027708156
330 449.54860027708156
" stroke="rgb(25,25,102)" stroke-width="5" fill-opacity="0.0"></path><path d="
M 299 395.8550252424464 C
272.1532124826824 442.3550252424464
272.1532124826824 456.7421753117168
299 503.2421753117168
" stroke="rgb(25,25,102)" stroke-width="5" fill-opacity="0.0"></path><path d="
M 299 395.8550252424464 C
268 449.5486002770816
268 449.5486002770816
237 503.2421753117168
" stroke="rgb(25,25,102)" stroke-width="5" fill-opacity="0.0"></path><path d="
M 516 342.1614502078112 C
485 342.1614502078112
469.5 369.0082377251288
485 395.8550252424464
" stroke="rgb(25,17,102)" stroke-width="5" fill-opacity="0.0"></path><path d="
M 516 342.1614502078112 C
462.3064249653648 342.1614502078112
449.8467875173176 349.3550252424464
423 395.8550252424464
" stroke="rgb(25,21,102)" stroke-width="5" fill-opacity="0.0"></path><path d="
M 485 395.8550252424464 C
469.5 369.0082377251288
438.5 369.0082377251288
423 395.8550252424464
" stroke="rgb(25,17,102)" stroke-width="5" fill-opacity="0.0"></path><path d="
M 82 449.54860027708156 C
144 449.54860027708156
144 449.54860027708156
206 449.54860027708156
" stroke="rgb(25,21,102)" stroke-width="5" fill-opacity="0.0"></path><path d="
M 51 503.2421753117168 C
35.5 476.3953877943992
4.5 476.3953877943992
-11 503.2421753117168
" stroke="rgb(25,17,102)" stroke-width="5" fill-opacity="0.0"></path><path d="
M 206 449.54860027708156 C
152.30642496536478 449.54860027708156
139.8467875173176 456.7421753117168
113 503.2421753117168
" stroke="rgb(25,21,102)" stroke-width="5" fill-opacity="0.0"></path><path d="
M 206 449.54860027708156 C
268 449.54860027708156
268 449.54860027708156
330 449.54860027708156
" stroke="rgb(25,21,102)" stroke-width="5" fill-opacity="0.0"></path><path d="
M 206 449.54860027708156 C
259.6935750346352 449.54860027708156
272.1532124826824 456.7421753117168
299 503.2421753117168
" stroke="rgb(25,21,102)" stroke-width="5" fill-opacity="0.0"></path><path d="
M 206 449.54860027708156 C
237 449.54860027708156
252.5 476.3953877943992
237 503.2421753117168
" stroke="rgb(25,21,102)" stroke-width="5" fill-opacity="0.0"></path><path d="
M 175 503.2421753117168 C
190.5 530.0889628290344
221.5 530.0889628290344
237 503.2421753117168
" stroke="rgb(25,17,102)" stroke-width="5" fill-opacity="0.0"></path><path d="
M 330 449.54860027708156 C
299 449.54860027708156
283.5 476.3953877943992
299 503.2421753117168
" stroke="rgb(25,21,102)" stroke-width="5" fill-opacity="0.0"></path><path d="
M 330 449.54860027708156 C
392 449.54860027708156
392 449.54860027708156
454 449.54860027708156
" stroke="rgb(25,17,102)" stroke-width="5" fill-opacity="0.0"></path><path d="
M 330 449.54860027708156 C
383.6935750346352 449.54860027708156
396.1532124826824 456.7421753117168
423 503.2421753117168
" stroke="rgb(25,17,102)" stroke-width="5" fill-opacity="0.0"></path><path d="
M 330 449.54860027708156 C
361 449.54860027708156
376.5 476.3953877943992
361 503.2421753117168
" stroke="rgb(25,17,102)" stroke-width="5" fill-opacity="0.0"></path><path d="
M 299 503.2421753117168 C
283.5 476.3953877943992
252.5 476.3953877943992
237 503.2421753117168
" stroke="rgb(25,21,102)" stroke-width="5" fill-opacity="0.0"></path><path d="
M 454 449.54860027708156 C
423 449.54860027708156
407.5 476.3953877943992
423 503.2421753117168
" stroke="rgb(25,14,102)" stroke-width="5" fill-opacity="0.0"></path><path d="
M 423 503.2421753117168 C
407.5 476.3953877943992
376.5 476.3953877943992
361 503.2421753117168
" stroke="rgb(25,14,102)" stroke-width="5" fill-opacity="0.0"></path><line x1="85" y1="20" x2="79" y2="20" stroke="rgb(255,0,179)" stroke-width="2"></line><line x1="52.5" y1="76.2916512459885" x2="49.5" y2="71.09549882328187" stroke="rgb(255,0,125)" stroke-width="2"></line><line x1="-12.5" y1="76.2916512459885" x2="-9.5" y2="71.09549882328187" stroke="rgb(255,0,255)" stroke-width="2"></line><line x1="209" y1="20" x2="203" y2="20" stroke="rgb(129,0,43)" stroke-width="2"></line><line x1="176.5" y1="76.2916512459885" x2="173.5" y2="71.09549882328187" stroke="rgb(184,0,61)" stroke-width="2"></line><line x1="111.5" y1="76.2916512459885" x2="114.5" y2="71.09549882328187" stroke="rgb(184,0,61)" stroke-width="2"></line><line x1="333" y1="20" x2="327" y2="20" stroke="rgb(129,0,43)" stroke-width="2"></line><line x1="300.5" y1="76.2916512459885" x2="297.5" y2="71.09549882328187" stroke="rgb(90,0,30)" stroke-width="2"></line><line x1="235.5" y1="76.2916512459885" x2="238.5" y2="71.09549882328187" stroke="rgb(184,0,61)" stroke-width="2"></line><line x1="457" y1="20" x2="451" y2="20" stroke="#040" stroke-width="5" stroke-opacity="0.0"></line><line x1="424.5" y1="76.2916512459885" x2="421.5" y2="71.09549882328187" stroke="rgb(90,0,30)" stroke-width="2"></line><line x1="359.5" y1="76.2916512459885" x2="362.5" y2="71.09549882328187" stroke="rgb(129,0,43)" stroke-width="2"></line><line x1="147" y1="127.38715006927039" x2="141" y2="127.38715006927039" stroke="rgb(255,0,87)" stroke-width="2"></line><line x1="114.5" y1="183.6788013152589" x2="111.5" y2="178.48264889255228" stroke="rgb(255,0,87)" stroke-width="2"></line><line x1="49.5" y1="183.6788013152589" x2="52.5" y2="178.48264889255228" stroke="rgb(184,0,61)" stroke-width="2"></line><line x1="271" y1="127.38715006927039" x2="265" y2="127.38715006927039" stroke="rgb(184,0,61)" stroke-width="2"></line><line x1="238.5" y1="183.6788013152589" x2="235.5" y2="178.48264889255228" stroke="rgb(129,0,43)" stroke-width="2"></line><line x1="173.5" y1="183.6788013152589" x2="176.5" y2="178.48264889255228" stroke="rgb(129,0,43)" stroke-width="2"></line><line x1="395" y1="127.38715006927039" x2="389" y2="127.38715006927039" stroke="rgb(90,0,30)" stroke-width="2"></line><line x1="362.5" y1="183.6788013152589" x2="359.5" y2="178.48264889255228" stroke="rgb(63,0,21)" stroke-width="2"></line><line x1="297.5" y1="183.6788013152589" x2="300.5" y2="178.48264889255228" stroke="rgb(90,0,30)" stroke-width="2"></line><line x1="519" y1="127.38715006927039" x2="513" y2="127.38715006927039" stroke="rgb(44,0,14)" stroke-width="2"></line><line x1="486.5" y1="183.6788013152589" x2="483.5" y2="178.48264889255228" stroke="rgb(63,0,21)" stroke-width="2"></line><line x1="421.5" y1="183.6788013152589" x2="424.5" y2="178.48264889255228" stroke="rgb(90,0,30)" stroke-width="2"></line><line x1="85" y1="234.77430013854078" x2="79" y2="234.77430013854078" stroke="rgb(184,0,61)" stroke-width="2"></line><line x1="52.5" y1="291.0659513845293" x2="49.5" y2="285.86979896182265" stroke="rgb(129,0,43)" stroke-width="2"></line><line x1="-12.5" y1="291.0659513845293" x2="-9.5" y2="285.86979896182265" stroke="rgb(129,0,43)" stroke-width="2"></line><line x1="209" y1="234.77430013854078" x2="203" y2="234.77430013854078" stroke="rgb(184,0,61)" stroke-width="2"></line><line x1="176.5" y1="291.0659513845293" x2="173.5" y2="285.86979896182265" stroke="rgb(184,0,61)" stroke-width="2"></line><line x1="111.5" y1="291.0659513845293" x2="114.5" y2="285.86979896182265" stroke="rgb(184,0,61)" stroke-width="2"></line><line x1="333" y1="234.77430013854078" x2="327" y2="234.77430013854078" stroke="rgb(129,0,43)" stroke-width="2"></line><line x1="300.5" y1="291.0659513845293" x2="297.5" y2="285.86979896182265" stroke="rgb(129,0,43)" stroke-width="2"></line><line x1="235.5" y1="291.0659513845293" x2="238.5" y2="285.86979896182265" stroke="rgb(129,0,43)" stroke-width="2"></line><line x1="457" y1="234.77430013854078" x2="451" y2="234.77430013854078" stroke="rgb(90,0,30)" stroke-width="2"></line><line x1="424.5" y1="291.0659513845293" x2="421.5" y2="285.86979896182265" stroke="rgb(63,0,21)" stroke-width="2"></line><line x1="359.5" y1="291.0659513845293" x2="362.5" y2="285.86979896182265" stroke="rgb(90,0,30)" stroke-width="2"></line><line x1="147" y1="342.1614502078112" x2="141" y2="342.1614502078112" stroke="rgb(129,0,43)" stroke-width="2"></line><line x1="114.5" y1="398.4531014537997" x2="111.5" y2="393.2569490310931" stroke="rgb(90,0,30)" stroke-width="2"></line><line x1="49.5" y1="398.4531014537997" x2="52.5" y2="393.2569490310931" stroke="rgb(90,0,30)" stroke-width="2"></line><line x1="271" y1="342.1614502078112" x2="265" y2="342.1614502078112" stroke="rgb(129,0,43)" stroke-width="2"></line><line x1="238.5" y1="398.4531014537997" x2="235.5" y2="393.2569490310931" stroke="rgb(90,0,30)" stroke-width="2"></line><line x1="173.5" y1="398.4531014537997" x2="176.5" y2="393.2569490310931" stroke="rgb(90,0,30)" stroke-width="2"></line><line x1="395" y1="342.1614502078112" x2="389" y2="342.1614502078112" stroke="rgb(90,0,30)" stroke-width="2"></line><line x1="362.5" y1="398.4531014537997" x2="359.5" y2="393.2569490310931" stroke="rgb(90,0,30)" stroke-width="2"></line><line x1="297.5" y1="398.4531014537997" x2="300.5" y2="393.2569490310931" stroke="rgb(90,0,30)" stroke-width="2"></line><line x1="519" y1="342.1614502078112" x2="513" y2="342.1614502078112" stroke="rgb(63,0,21)" stroke-width="2"></line><line x1="486.5" y1="398.4531014537997" x2="483.5" y2="393.2569490310931" stroke="rgb(44,0,14)" stroke-width="2"></line><line x1="421.5" y1="398.4531014537997" x2="424.5" y2="393.2569490310931" stroke="rgb(63,0,21)" stroke-width="2"></line><line x1="85" y1="449.54860027708156" x2="79" y2="449.54860027708156" stroke="rgb(63,0,21)" stroke-width="2"></line><line x1="52.5" y1="505.8402515230701" x2="49.5" y2="500.64409910036346" stroke="rgb(44,0,14)" stroke-width="2"></line><line x1="-12.5" y1="505.8402515230701" x2="-9.5" y2="500.64409910036346" stroke="rgb(63,0,21)" stroke-width="2"></line><line x1="209" y1="449.54860027708156" x2="203" y2="449.54860027708156" stroke="rgb(63,0,21)" stroke-width="2"></line><line x1="176.5" y1="505.8402515230701" x2="173.5" y2="500.64409910036346" stroke="rgb(44,0,14)" stroke-width="2"></line><line x1="111.5" y1="505.8402515230701" x2="114.5" y2="500.64409910036346" stroke="rgb(63,0,21)" stroke-width="2"></line><line x1="333" y1="449.54860027708156" x2="327" y2="449.54860027708156" stroke="rgb(63,0,21)" stroke-width="2"></line><line x1="300.5" y1="505.8402515230701" x2="297.5" y2="500.64409910036346" stroke="rgb(63,0,21)" stroke-width="2"></line><line x1="235.5" y1="505.8402515230701" x2="238.5" y2="500.64409910036346" stroke="rgb(63,0,21)" stroke-width="2"></line><line x1="457" y1="449.54860027708156" x2="451" y2="449.54860027708156" stroke="rgb(44,0,14)" stroke-width="2"></line><line x1="424.5" y1="505.8402515230701" x2="421.5" y2="500.64409910036346" stroke="rgb(44,0,14)" stroke-width="2"></line><line x1="359.5" y1="505.8402515230701" x2="362.5" y2="500.64409910036346" stroke="rgb(44,0,14)" stroke-width="2"></line></svg>
