<svg viewBox="15 15 430 430" xmlns="http://www.w3.org/2000/svg" version="1.1"><path d="
M 80 80 C
122.42640687119285 80
140 62.42640687119285
140 20
" stroke="rgb(25,0,102)" stroke-width="5" fill-opacity="0.0"></path><path d="
M 80 80 C
140 80
140 80
200 80
" stroke="rgb(25,0,102)" stroke-width="5" fill-opacity="0.0"></path><path d="
M 80 80 C
122.42640687119285 80
140 97.57359312880715
140 140
" stroke="rgb(25,0,102)" stroke-width="5" fill-opacity="0.0"></path><path d="
M 20 140 C
20 182.42640687119285
37.57359312880715 200
80 200
" stroke="rgb(25,0,102)" stroke-width="5" fill-opacity="0.0"></path><path d="
M 20 140 C
20 200
20 200
20 260
" stroke="rgb(25,0,102)" stroke-width="5" fill-opacity="0.0"></path><path d="
M 80 200 C
140 200
140 200
200 200
" stroke="rgb(25,0,102)" stroke-width="5" fill-opacity="0.0"></path><path d="
M 80 200 C
122.42640687119285 200
140 217.57359312880715
140 260
" stroke="rgb(25,0,102)" stroke-width="5" fill-opacity="0.0"></path><path d="
M 20 260 C
20 302.42640687119285
37.57359312880715 320
80 320
" stroke="rgb(25,0,102)" stroke-width="5" fill-opacity="0.0"></path><path d="
M 80 320 C
37.57359312880715 320
20 337.57359312880715
20 380
" stroke="rgb(25,0,102)" stroke-width="5" fill-opacity="0.0"></path><path d="
M 80 320 C
122.42640687119285 320
140 302.42640687119285
140 260
" stroke="rgb(25,0,102)" stroke-width="5" fill-opacity="0.0"></path><path d="
M 80 320 C
122.42640687119285 320
140 337.57359312880715
140 380
" stroke="rgb(25,0,102)" stroke-width="5" fill-opacity="0.0"></path><path d="
M 20 380 C
20 422.42640687119285
37.57359312880715 440
80 440
" stroke="rgb(25,0,102)" stroke-width="5" fill-opacity="0.0"></path><path d="
M 80 440 C
122.42640687119285 440
140 422.42640687119285
140 380
" stroke="rgb(25,0,102)" stroke-width="5" fill-opacity="0.0"></path><path d="
M 80 440 C
140 440
140 440
200 440
" stroke="rgb(25,0,102)" stroke-width="5" fill-opacity="0.0"></path><path d="
M 140 20 C
140 62.42640687119285
157.57359312880715 80
200 80
" stroke="rgb(25,0,102)" stroke-width="5" fill-opacity="0.0"></path><path d="
M 140 20 C
140 80
140 80
140 140
" stroke="rgb(25,0,102)" stroke-width="5" fill-opacity="0.0"></path><path d="
M 200 80 C
157.57359312880715 80
140 97.57359312880715
140 140
" stroke="rgb(25,0,102)" stroke-width="5" fill-opacity="0.0"></path><path d="
M 200 80 C
242.42640687119285 80
260 62.42640687119285
260 20
" stroke="rgb(25,0,102)" stroke-width="5" fill-opacity="0.0"></path><path d="
M 200 80 C
260 80
260 80
320 80
" stroke="rgb(25,0,102)" stroke-width="5" fill-opacity="0.0"></path><path d="
M 200 80 C
242.42640687119285 80
260 97.57359312880715
260 140
" stroke="rgb(25,0,102)" stroke-width="5" fill-opacity="0.0"></path><path d="
M 140 140 C
140 182.42640687119285
157.57359312880715 200
200 200
" stroke="rgb(25,0,102)" stroke-width="5" fill-opacity="0.0"></path><path d="
M 140 140 C
140 200
140 200
140 260
" stroke="rgb(25,0,102)" stroke-width="5" fill-opacity="0.0"></path><path d="
M 200 200 C
157.57359312880715 200
140 217.57359312880715
140 260
" stroke="rgb(25,0,102)" stroke-width="5" fill-opacity="0.0"></path><path d="
M 200 200 C
260 200
260 200
320 200
" stroke="rgb(25,0,102)" stroke-width="5" fill-opacity="0.0"></path><path d="
M 200 200 C
242.42640687119285 200
260 217.57359312880715
260 260
" stroke="rgb(25,0,102)" stroke-width="5" fill-opacity="0.0"></path><path d="
M 140 260 C
140 320
140 320
140 380
" stroke="rgb(25,0,102)" stroke-width="5" fill-opacity="0.0"></path><path d="
M 200 320 C
157.57359312880715 320
140 337.57359312880715
140 380
" stroke="rgb(25,0,102)" stroke-width="5" fill-opacity="0.0"></path><path d="
M 200 320 C
260 320
260 320
320 320
" stroke="rgb(25,0,102)" stroke-width="5" fill-opacity="0.0"></path><path d="
M 140 380 C
140 422.42640687119285
157.57359312880715 440
200 440
" stroke="rgb(25,0,102)" stroke-width="5" fill-opacity="0.0"></path><path d="
M 200 440 C
242.42640687119285 440
260 422.42640687119285
260 380
" stroke="rgb(25,0,102)" stroke-width="5" fill-opacity="0.0"></path><path d="
M 200 440 C
260 440
260 440
320 440
" stroke="rgb(25,0,102)" stroke-width="5" fill-opacity="0.0"></path><path d="
M 260 20 C
260 62.42640687119285
277.57359312880715 80
320 80
" stroke="rgb(25,0,102)" stroke-width="5" fill-opacity="0.0"></path><path d="
M 320 80 C
277.57359312880715 80
260 97.57359312880715
260 140
" stroke="rgb(25,0,102)" stroke-width="5" fill-opacity="0.0"></path><path d="
M 260 140 C
260 200
260 200
260 260
" stroke="rgb(25,0,102)" stroke-width="5" fill-opacity="0.0"></path><path d="
M 320 200 C
277.57359312880715 200
260 217.57359312880715
260 260
" stroke="rgb(25,0,102)" stroke-width="5" fill-opacity="0.0"></path><path d="
M 320 200 C
362.42640687119285 200
380 182.42640687119285
380 140
" stroke="rgb(25,0,102)" stroke-width="5" fill-opacity="0.0"></path><path d="
M 320 200 C
380 200
380 200
440 200
" stroke="rgb(25,0,102)" stroke-width="5" fill-opacity="0.0"></path><path d="
M 260 260 C
260 302.42640687119285
277.57359312880715 320
320 320
" stroke="rgb(25,0,102)" stroke-width="5" fill-opacity="0.0"></path><path d="
M 260 260 C
260 320
260 320
260 380
" stroke="rgb(25,0,102)" stroke-width="5" fill-opacity="0.0"></path><path d="
M 320 320 C
362.42640687119285 320
380 337.57359312880715
380 380
" stroke="rgb(25,0,102)" stroke-width="5" fill-opacity="0.0"></path><path d="
M 320 440 C
380 440
380 440
440 440
" stroke="rgb(25,0,102)" stroke-width="5" fill-opacity="0.0"></path><path d="
M 380 20 C
380 80
380 80
380 140
" stroke="rgb(25,0,102)" stroke-width="5" fill-opacity="0.0"></path><path d="
M 380 140 C
380 182.42640687119285
397.57359312880715 200
440 200
" stroke="rgb(25,0,102)" stroke-width="5" fill-opacity="0.0"></path><path d="
M 380 260 C
380 320
380 320
380 380
" stroke="rgb(25,0,102)" stroke-width="5" fill-opacity="0.0"></path><path d="
M 440 320 C
397.57359312880715 320
380 337.57359312880715
380 380
" stroke="rgb(25,0,102)" stroke-width="5" fill-opacity="0.0"></path><path d="
M 380 380 C
380 422.42640687119285
397.57359312880715 440
440 440
" stroke="rgb(25,0,102)" stroke-width="5" fill-opacity="0.0"></path><line x1="20" y1="23" x2="20" y2="17" stroke="#040" stroke-width="5" stroke-opacity="0.0"></line><line x1="83" y1="80" x2="77" y2="80" stroke="rgb(0,0,0)" stroke-width="2"></line><line x1="20" y1="143" x2="20" y2="137" stroke="rgb(0,0,0)" stroke-width="2"></line><line x1="83" y1="200" x2="77" y2="200" stroke="rgb(0,0,0)" stroke-width="2"></line><line x1="20" y1="263" x2="20" y2="257" stroke="rgb(0,0,0)" stroke-width="2"></line><line x1="83" y1="320" x2="77" y2="320" stroke="rgb(0,0,0)" stroke-width="2"></line><line x1="20" y1="383" x2="20" y2="377" stroke="rgb(0,0,0)" stroke-width="2"></line><line x1="83" y1="440" x2="77" y2="440" stroke="rgb(0,0,0)" stroke-width="2"></line><line x1="140" y1="23" x2="140" y2="17" stroke="rgb(0,0,0)" stroke-width="2"></line><line x1="203" y1="80" x2="197" y2="80" stroke="rgb(0,0,0)" stroke-width="2"></line><line x1="140" y1="143" x2="140" y2="137" stroke="rgb(0,0,0)" stroke-width="2"></line><line x1="203" y1="200" x2="197" y2="200" stroke="rgb(0,0,0)" stroke-width="2"></line><line x1="140" y1="263" x2="140" y2="257" stroke="rgb(0,0,0)" stroke-width="2"></line><line x1="203" y1="320" x2="197" y2="320" stroke="rgb(0,0,0)" stroke-width="2"></line><line x1="140" y1="383" x2="140" y2="377" stroke="rgb(0,0,0)" stroke-width="2"></line><line x1="203" y1="440" x2="197" y2="440" stroke="rgb(0,0,0)" stroke-width="2"></line><line x1="260" y1="23" x2="260" y2="17" stroke="rgb(0,0,0)" stroke-width="2"></line><line x1="323" y1="80" x2="317" y2="80" stroke="rgb(0,0,0)" stroke-width="2"></line><line x1="260" y1="143" x2="260" y2="137" stroke="rgb(0,0,0)" stroke-width="2"></line><line x1="323" y1="200" x2="317" y2="200" stroke="rgb(0,0,0)" stroke-width="2"></line><line x1="260" y1="263" x2="260" y2="257" stroke="rgb(0,0,0)" stroke-width="2"></line><line x1="323" y1="320" x2="317" y2="320" stroke="rgb(0,0,0)" stroke-width="2"></line><line x1="260" y1="383" x2="260" y2="377" stroke="rgb(0,0,0)" stroke-width="2"></line><line x1="323" y1="440" x2="317" y2="440" stroke="rgb(0,0,0)" stroke-width="2"></line><line x1="380" y1="23" x2="380" y2="17" stroke="rgb(0,0,0)" stroke-width="2"></line><line x1="443" y1="80" x2="437" y2="80" stroke="#040" stroke-width="5" stroke-opacity="0.0"></line><line x1="380" y1="143" x2="380" y2="137" stroke="rgb(0,0,0)" stroke-width="2"></line><line x1="443" y1="200" x2="437" y2="200" stroke="rgb(0,0,0)" stroke-width="2"></line><line x1="380" y1="263" x2="380" y2="257" stroke="rgb(0,0,0)" stroke-width="2"></line><line x1="443" y1="320" x2="437" y2="320" stroke="rgb(0,0,0)" stroke-width="2"></line><line x1="380" y1="383" x2="380" y2="377" stroke="rgb(0,0,0)" stroke-width="2"></line><line x1="443" y1="440" x2="437" y2="440" stroke="rgb(0,0,0)" stroke-width="2"></line></svg>
