<svg viewBox="-14.5 15 570.5 469.85948940953693" xmlns="http://www.w3.org/2000/svg" version="1.1"><path d="
M 79 20 C
27.90450117671812 20
16.04774941164094 26.845498823281872
-9.5 71.09549882328187
" stroke="rgb(25,152,102)" stroke-width="5" fill-opacity="0.0"></path><path d="
M 79 20 C
138 20
138 20
197 20
" stroke="rgb(25,217,102)" stroke-width="5" fill-opacity="0.0"></path><path d="
M 79 20 C
130.09549882328187 20
141.95225058835905 26.845498823281872
167.5 71.09549882328187
" stroke="rgb(25,152,102)" stroke-width="5" fill-opacity="0.0"></path><path d="
M 49.5 71.09549882328187 C
34.75 45.547749411640936
5.25 45.547749411640936
-9.5 71.09549882328187
" stroke="rgb(25,106,102)" stroke-width="5" fill-opacity="0.0"></path><path d="
M 49.5 71.09549882328187 C
75.04774941164094 115.34549882328187
86.90450117671813 122.19099764656376
138 122.19099764656376
" stroke="rgb(25,106,102)" stroke-width="5" fill-opacity="0.0"></path><path d="
M 49.5 71.09549882328187 C
79 122.19099764656376
79 122.19099764656376
108.5 173.28649646984564
" stroke="rgb(25,106,102)" stroke-width="5" fill-opacity="0.0"></path><path d="
M 49.5 71.09549882328187 C
75.04774941164095 115.34549882328187
75.04774941164095 129.03649646984564
49.5 173.28649646984564
" stroke="rgb(25,106,102)" stroke-width="5" fill-opacity="0.0"></path><path d="
M 197 20 C
145.90450117671813 20
134.04774941164095 26.845498823281872
108.5 71.09549882328187
" stroke="rgb(25,217,102)" stroke-width="5" fill-opacity="0.0"></path><path d="
M 197 20 C
256 20
256 20
315 20
" stroke="rgb(25,217,102)" stroke-width="5" fill-opacity="0.0"></path><path d="
M 197 20 C
248.09549882328187 20
259.95225058835905 26.845498823281872
285.5 71.09549882328187
" stroke="rgb(25,217,102)" stroke-width="5" fill-opacity="0.0"></path><path d="
M 167.5 71.09549882328187 C
182.25 96.64324823492281
211.75 96.64324823492281
226.5 71.09549882328187
" stroke="rgb(25,125,102)" stroke-width="5" fill-opacity="0.0"></path><path d="
M 167.5 71.09549882328187 C
193.04774941164095 115.34549882328187
204.90450117671813 122.19099764656376
256 122.19099764656376
" stroke="rgb(25,125,102)" stroke-width="5" fill-opacity="0.0"></path><path d="
M 167.5 71.09549882328187 C
197 122.19099764656376
197 122.19099764656376
226.5 173.28649646984564
" stroke="rgb(25,125,102)" stroke-width="5" fill-opacity="0.0"></path><path d="
M 167.5 71.09549882328187 C
193.04774941164095 115.34549882328187
193.04774941164095 129.03649646984564
167.5 173.28649646984564
" stroke="rgb(25,125,102)" stroke-width="5" fill-opacity="0.0"></path><path d="
M 108.5 71.09549882328187 C
93.75 96.64324823492282
108.5 122.19099764656376
138 122.19099764656376
" stroke="rgb(25,152,102)" stroke-width="5" fill-opacity="0.0"></path><path d="
M 108.5 71.09549882328187 C
82.95225058835905 115.34549882328187
82.95225058835905 129.03649646984564
108.5 173.28649646984564
" stroke="rgb(25,152,102)" stroke-width="5" fill-opacity="0.0"></path><path d="
M 108.5 71.09549882328187 C
79 122.19099764656376
79 122.19099764656376
49.5 173.28649646984564
" stroke="rgb(25,152,102)" stroke-width="5" fill-opacity="0.0"></path><path d="
M 315 20 C
285.5 20
270.75 45.547749411640936
285.5 71.09549882328187
" stroke="rgb(25,179,102)" stroke-width="5" fill-opacity="0.0"></path><path d="
M 315 20 C
263.9045011767181 20
252.04774941164095 26.845498823281872
226.5 71.09549882328187
" stroke="rgb(25,152,102)" stroke-width="5" fill-opacity="0.0"></path><path d="
M 315 20 C
374 20
374 20
433 20
" stroke="rgb(25,152,102)" stroke-width="5" fill-opacity="0.0"></path><path d="
M 315 20 C
366.0954988232819 20
377.95225058835905 26.845498823281872
403.5 71.09549882328187
" stroke="rgb(25,152,102)" stroke-width="5" fill-opacity="0.0"></path><path d="
M 285.5 71.09549882328187 C
300.25 96.64324823492281
329.75 96.64324823492281
344.5 71.09549882328187
" stroke="rgb(25,152,102)" stroke-width="5" fill-opacity="0.0"></path><path d="
M 285.5 71.09549882328187 C
300.25 96.64324823492282
285.5 122.19099764656376
256 122.19099764656376
" stroke="rgb(25,152,102)" stroke-width="5" fill-opacity="0.0"></path><path d="
M 285.5 71.09549882328187 C
311.04774941164095 115.34549882328187
322.9045011767181 122.19099764656376
374 122.19099764656376
" stroke="rgb(25,152,102)" stroke-width="5" fill-opacity="0.0"></path><path d="
M 285.5 71.09549882328187 C
315 122.19099764656376
315 122.19099764656376
344.5 173.28649646984564
" stroke="rgb(25,152,102)" stroke-width="5" fill-opacity="0.0"></path><path d="
M 285.5 71.09549882328187 C
311.04774941164095 115.34549882328187
311.04774941164095 129.03649646984564
285.5 173.28649646984564
" stroke="rgb(25,152,102)" stroke-width="5" fill-opacity="0.0"></path><path d="
M 226.5 71.09549882328187 C
200.95225058835905 115.34549882328187
189.09549882328187 122.19099764656376
138 122.19099764656376
" stroke="rgb(25,125,102)" stroke-width="5" fill-opacity="0.0"></path><path d="
M 226.5 71.09549882328187 C
211.75 96.64324823492282
226.5 122.19099764656376
256 122.19099764656376
" stroke="rgb(25,125,102)" stroke-width="5" fill-opacity="0.0"></path><path d="
M 226.5 71.09549882328187 C
200.95225058835905 115.34549882328187
200.95225058835905 129.03649646984564
226.5 173.28649646984564
" stroke="rgb(25,125,102)" stroke-width="5" fill-opacity="0.0"></path><path d="
M 226.5 71.09549882328187 C
197 122.19099764656376
197 122.19099764656376
167.5 173.28649646984564
" stroke="rgb(25,125,102)" stroke-width="5" fill-opacity="0.0"></path><path d="
M 433 20 C
381.9045011767181 20
370.04774941164095 26.845498823281872
344.5 71.09549882328187
" stroke="rgb(25,125,102)" stroke-width="5" fill-opacity="0.0"></path><path d="
M 433 20 C
492 20
492 20
551 20
" stroke="rgb(25,106,102)" stroke-width="5" fill-opacity="0.0"></path><path d="
M 433 20 C
484.0954988232819 20
495.95225058835905 26.845498823281872
521.5 71.09549882328187
" stroke="rgb(25,106,102)" stroke-width="5" fill-opacity="0.0"></path><path d="
M 433 20 C
462.5 20
477.25 45.547749411640936
462.5 71.09549882328187
" stroke="rgb(25,106,102)" stroke-width="5" fill-opacity="0.0"></path><path d="
M 403.5 71.09549882328187 C
418.25 96.64324823492282
403.5 122.19099764656376
374 122.19099764656376
" stroke="rgb(25,125,102)" stroke-width="5" fill-opacity="0.0"></path><path d="
M 403.5 71.09549882328187 C
429.04774941164095 115.34549882328187
440.9045011767181 122.19099764656376
492 122.19099764656376
" stroke="rgb(25,106,102)" stroke-width="5" fill-opacity="0.0"></path><path d="
M 403.5 71.09549882328187 C
433 122.19099764656376
433 122.19099764656376
462.5 173.28649646984564
" stroke="rgb(25,106,102)" stroke-width="5" fill-opacity="0.0"></path><path d="
M 403.5 71.09549882328187 C
429.04774941164095 115.34549882328187
429.04774941164095 129.03649646984564
403.5 173.28649646984564
" stroke="rgb(25,106,102)" stroke-width="5" fill-opacity="0.0"></path><path d="
M 344.5 71.09549882328187 C
318.95225058835905 115.34549882328187
307.0954988232819 122.19099764656376
256 122.19099764656376
" stroke="rgb(25,125,102)" stroke-width="5" fill-opacity="0.0"></path><path d="
M 344.5 71.09549882328187 C
318.95225058835905 115.34549882328187
318.95225058835905 129.03649646984564
344.5 173.28649646984564
" stroke="rgb(25,125,102)" stroke-width="5" fill-opacity="0.0"></path><path d="
M 344.5 71.09549882328187 C
315 122.19099764656376
315 122.19099764656376
285.5 173.28649646984564
" stroke="rgb(25,125,102)" stroke-width="5" fill-opacity="0.0"></path><path d="
M 551 20 C
499.9045011767181 20
488.04774941164095 26.845498823281872
462.5 71.09549882328187
" stroke="rgb(25,87,102)" stroke-width="5" fill-opacity="0.0"></path><path d="
M 521.5 71.09549882328187 C
536.25 96.64324823492282
521.5 122.19099764656376
492 122.19099764656376
" stroke="rgb(25,87,102)" stroke-width="5" fill-opacity="0.0"></path><path d="
M 462.5 71.09549882328187 C
436.95225058835905 115.34549882328187
425.0954988232819 122.19099764656376
374 122.19099764656376
" stroke="rgb(25,106,102)" stroke-width="5" fill-opacity="0.0"></path><path d="
M 462.5 71.09549882328187 C
447.75 96.64324823492282
462.5 122.19099764656376
492 122.19099764656376
" stroke="rgb(25,87,102)" stroke-width="5" fill-opacity="0.0"></path><path d="
M 462.5 71.09549882328187 C
436.95225058835905 115.34549882328187
436.95225058835905 129.03649646984564
462.5 173.28649646984564
" stroke="rgb(25,87,102)" stroke-width="5" fill-opacity="0.0"></path><path d="
M 462.5 71.09549882328187 C
433 122.19099764656376
433 122.19099764656376
403.5 173.28649646984564
" stroke="rgb(25,87,102)" stroke-width="5" fill-opacity="0.0"></path><path d="
M 138 122.19099764656376 C
108.5 122.19099764656376
93.75 147.7387470582047
108.5 173.28649646984564
" stroke="rgb(25,125,102)" stroke-width="5" fill-opacity="0.0"></path><path d="
M 138 122.19099764656376 C
86.90450117671813 122.19099764656376
75.04774941164094 129.03649646984564
49.5 173.28649646984564
" stroke="rgb(25,125,102)" stroke-width="5" fill-opacity="0.0"></path><path d="
M 138 122.19099764656376 C
197 122.19099764656376
197 122.19099764656376
256 122.19099764656376
" stroke="rgb(25,125,102)" stroke-width="5" fill-opacity="0.0"></path><path d="
M 138 122.19099764656376 C
189.09549882328187 122.19099764656376
200.95225058835905 129.03649646984564
226.5 173.28649646984564
" stroke="rgb(25,125,102)" stroke-width="5" fill-opacity="0.0"></path><path d="
M 108.5 173.28649646984564 C
134.04774941164095 217.53649646984564
145.90450117671813 224.38199529312752
197 224.38199529312752
" stroke="rgb(25,106,102)" stroke-width="5" fill-opacity="0.0"></path><path d="
M 108.5 173.28649646984564 C
138 224.38199529312752
138 224.38199529312752
167.5 275.4774941164094
" stroke="rgb(25,152,102)" stroke-width="5" fill-opacity="0.0"></path><path d="
M 108.5 173.28649646984564 C
134.04774941164095 217.53649646984564
134.04774941164095 231.2274941164094
108.5 275.4774941164094
" stroke="rgb(25,125,102)" stroke-width="5" fill-opacity="0.0"></path><path d="
M 49.5 173.28649646984564 C
34.75 198.8342458814866
49.5 224.38199529312752
79 224.38199529312752
" stroke="rgb(25,125,102)" stroke-width="5" fill-opacity="0.0"></path><path d="
M 49.5 173.28649646984564 C
23.952250588359064 217.53649646984564
23.952250588359064 231.2274941164094
49.5 275.4774941164094
" stroke="rgb(25,125,102)" stroke-width="5" fill-opacity="0.0"></path><path d="
M 49.5 173.28649646984564 C
20.000000000000004 224.38199529312752
19.999999999999996 224.38199529312752
-9.5 275.4774941164094
" stroke="rgb(25,106,102)" stroke-width="5" fill-opacity="0.0"></path><path d="
M 256 122.19099764656376 C
204.90450117671813 122.19099764656376
193.04774941164095 129.03649646984564
167.5 173.28649646984564
" stroke="rgb(25,125,102)" stroke-width="5" fill-opacity="0.0"></path><path d="
M 256 122.19099764656376 C
315 122.19099764656376
315 122.19099764656376
374 122.19099764656376
" stroke="rgb(25,125,102)" stroke-width="5" fill-opacity="0.0"></path><path d="
M 256 122.19099764656376 C
307.0954988232819 122.19099764656376
318.95225058835905 129.03649646984564
344.5 173.28649646984564
" stroke="rgb(25,125,102)" stroke-width="5" fill-opacity="0.0"></path><path d="
M 226.5 173.28649646984564 C
211.75 147.7387470582047
182.25 147.7387470582047
167.5 173.28649646984564
" stroke="rgb(25,125,102)" stroke-width="5" fill-opacity="0.0"></path><path d="
M 226.5 173.28649646984564 C
241.25 198.8342458814866
270.75 198.8342458814866
285.5 173.28649646984564
" stroke="rgb(25,125,102)" stroke-width="5" fill-opacity="0.0"></path><path d="
M 226.5 173.28649646984564 C
252.04774941164095 217.53649646984564
263.9045011767181 224.38199529312752
315 224.38199529312752
" stroke="rgb(25,125,102)" stroke-width="5" fill-opacity="0.0"></path><path d="
M 226.5 173.28649646984564 C
256 224.38199529312752
256 224.38199529312752
285.5 275.4774941164094
" stroke="rgb(25,125,102)" stroke-width="5" fill-opacity="0.0"></path><path d="
M 226.5 173.28649646984564 C
252.04774941164095 217.53649646984564
252.04774941164095 231.2274941164094
226.5 275.4774941164094
" stroke="rgb(25,152,102)" stroke-width="5" fill-opacity="0.0"></path><path d="
M 167.5 173.28649646984564 C
141.95225058835905 217.53649646984564
130.09549882328187 224.38199529312752
79 224.38199529312752
" stroke="rgb(25,125,102)" stroke-width="5" fill-opacity="0.0"></path><path d="
M 167.5 173.28649646984564 C
141.95225058835905 217.53649646984564
141.95225058835905 231.2274941164094
167.5 275.4774941164094
" stroke="rgb(25,152,102)" stroke-width="5" fill-opacity="0.0"></path><path d="
M 167.5 173.28649646984564 C
138 224.38199529312752
138 224.38199529312752
108.5 275.4774941164094
" stroke="rgb(25,125,102)" stroke-width="5" fill-opacity="0.0"></path><path d="
M 374 122.19099764656376 C
344.5 122.19099764656376
329.75 147.7387470582047
344.5 173.28649646984564
" stroke="rgb(25,125,102)" stroke-width="5" fill-opacity="0.0"></path><path d="
M 374 122.19099764656376 C
322.9045011767181 122.19099764656376
311.04774941164095 129.03649646984564
285.5 173.28649646984564
" stroke="rgb(25,125,102)" stroke-width="5" fill-opacity="0.0"></path><path d="
M 374 122.19099764656376 C
433 122.19099764656376
433 122.19099764656376
492 122.19099764656376
" stroke="rgb(25,106,102)" stroke-width="5" fill-opacity="0.0"></path><path d="
M 374 122.19099764656376 C
425.0954988232819 122.19099764656376
436.95225058835905 129.03649646984564
462.5 173.28649646984564
" stroke="rgb(25,106,102)" stroke-width="5" fill-opacity="0.0"></path><path d="
M 344.5 173.28649646984564 C
359.25 198.8342458814866
388.75 198.8342458814866
403.5 173.28649646984564
" stroke="rgb(25,106,102)" stroke-width="5" fill-opacity="0.0"></path><path d="
M 344.5 173.28649646984564 C
359.25 198.8342458814866
344.5 224.38199529312752
315 224.38199529312752
" stroke="rgb(25,125,102)" stroke-width="5" fill-opacity="0.0"></path><path d="
M 344.5 173.28649646984564 C
370.04774941164095 217.53649646984564
381.9045011767181 224.38199529312752
433 224.38199529312752
" stroke="rgb(25,106,102)" stroke-width="5" fill-opacity="0.0"></path><path d="
M 344.5 173.28649646984564 C
374 224.38199529312752
374 224.38199529312752
403.5 275.4774941164094
" stroke="rgb(25,125,102)" stroke-width="5" fill-opacity="0.0"></path><path d="
M 344.5 173.28649646984564 C
370.04774941164095 217.53649646984564
370.04774941164095 231.2274941164094
344.5 275.4774941164094
" stroke="rgb(25,125,102)" stroke-width="5" fill-opacity="0.0"></path><path d="
M 285.5 173.28649646984564 C
259.95225058835905 217.53649646984564
248.09549882328187 224.38199529312752
197 224.38199529312752
" stroke="rgb(25,106,102)" stroke-width="5" fill-opacity="0.0"></path><path d="
M 285.5 173.28649646984564 C
270.75 198.8342458814866
285.5 224.38199529312752
315 224.38199529312752
" stroke="rgb(25,125,102)" stroke-width="5" fill-opacity="0.0"></path><path d="
M 285.5 173.28649646984564 C
259.95225058835905 217.53649646984564
259.95225058835905 231.2274941164094
285.5 275.4774941164094
" stroke="rgb(25,125,102)" stroke-width="5" fill-opacity="0.0"></path><path d="
M 285.5 173.28649646984564 C
256 224.38199529312752
256 224.38199529312752
226.5 275.4774941164094
" stroke="rgb(25,152,102)" stroke-width="5" fill-opacity="0.0"></path><path d="
M 492 122.19099764656376 C
440.9045011767181 122.19099764656376
429.04774941164095 129.03649646984564
403.5 173.28649646984564
" stroke="rgb(25,87,102)" stroke-width="5" fill-opacity="0.0"></path><path d="
M 462.5 173.28649646984564 C
447.75 147.7387470582047
418.25 147.7387470582047
403.5 173.28649646984564
" stroke="rgb(25,87,102)" stroke-width="5" fill-opacity="0.0"></path><path d="
M 462.5 173.28649646984564 C
488.04774941164095 217.53649646984564
499.9045011767181 224.38199529312752
551 224.38199529312752
" stroke="rgb(25,87,102)" stroke-width="5" fill-opacity="0.0"></path><path d="
M 462.5 173.28649646984564 C
492 224.38199529312752
492 224.38199529312752
521.5 275.4774941164094
" stroke="rgb(25,87,102)" stroke-width="5" fill-opacity="0.0"></path><path d="
M 462.5 173.28649646984564 C
488.04774941164095 217.53649646984564
488.04774941164095 231.2274941164094
462.5 275.4774941164094
" stroke="rgb(25,106,102)" stroke-width="5" fill-opacity="0.0"></path><path d="
M 403.5 173.28649646984564 C
377.95225058835905 217.53649646984564
366.0954988232819 224.38199529312752
315 224.38199529312752
" stroke="rgb(25,106,102)" stroke-width="5" fill-opacity="0.0"></path><path d="
M 403.5 173.28649646984564 C
377.95225058835905 217.53649646984564
377.95225058835905 231.2274941164094
403.5 275.4774941164094
" stroke="rgb(25,106,102)" stroke-width="5" fill-opacity="0.0"></path><path d="
M 403.5 173.28649646984564 C
374 224.38199529312752
374 224.38199529312752
344.5 275.4774941164094
" stroke="rgb(25,106,102)" stroke-width="5" fill-opacity="0.0"></path><path d="
M 79 224.38199529312752 C
27.90450117671812 224.38199529312752
16.04774941164094 231.2274941164094
-9.5 275.4774941164094
" stroke="rgb(25,106,102)" stroke-width="5" fill-opacity="0.0"></path><path d="
M 79 224.38199529312752 C
138 224.38199529312752
138 224.38199529312752
197 224.38199529312752
" stroke="rgb(25,106,102)" stroke-width="5" fill-opacity="0.0"></path><path d="
M 79 224.38199529312752 C
130.09549882328187 224.38199529312752
141.95225058835905 231.2274941164094
167.5 275.4774941164094
" stroke="rgb(25,152,102)" stroke-width="5" fill-opacity="0.0"></path><path d="
M 79 224.38199529312752 C
108.5 224.38199529312752
123.25 249.92974470476844
108.5 275.4774941164094
" stroke="rgb(25,125,102)" stroke-width="5" fill-opacity="0.0"></path><path d="
M 49.5 275.4774941164094 C
64.25 301.02524352805034
93.75 301.02524352805034
108.5 275.4774941164094
" stroke="rgb(25,125,102)" stroke-width="5" fill-opacity="0.0"></path><path d="
M 49.5 275.4774941164094 C
75.04774941164095 319.7274941164094
86.90450117671811 326.5729929396913
138 326.5729929396913
" stroke="rgb(25,152,102)" stroke-width="5" fill-opacity="0.0"></path><path d="
M 49.5 275.4774941164094 C
79.00000000000001 326.5729929396913
78.99999999999999 326.5729929396913
108.5 377.6684917629732
" stroke="rgb(25,152,102)" stroke-width="5" fill-opacity="0.0"></path><path d="
M 49.5 275.4774941164094 C
75.04774941164095 319.7274941164094
75.04774941164095 333.4184917629732
49.5 377.6684917629732
" stroke="rgb(25,152,102)" stroke-width="5" fill-opacity="0.0"></path><path d="
M 197 224.38199529312752 C
145.90450117671813 224.38199529312752
134.04774941164095 231.2274941164094
108.5 275.4774941164094
" stroke="rgb(25,106,102)" stroke-width="5" fill-opacity="0.0"></path><path d="
M 197 224.38199529312752 C
256 224.38199529312752
256 224.38199529312752
315 224.38199529312752
" stroke="rgb(25,106,102)" stroke-width="5" fill-opacity="0.0"></path><path d="
M 197 224.38199529312752 C
248.09549882328187 224.38199529312752
259.95225058835905 231.2274941164094
285.5 275.4774941164094
" stroke="rgb(25,106,102)" stroke-width="5" fill-opacity="0.0"></path><path d="
M 167.5 275.4774941164094 C
152.75 249.92974470476844
123.25 249.92974470476844
108.5 275.4774941164094
" stroke="rgb(25,152,102)" stroke-width="5" fill-opacity="0.0"></path><path d="
M 167.5 275.4774941164094 C
182.25 301.02524352805034
211.75 301.02524352805034
226.5 275.4774941164094
" stroke="rgb(25,179,102)" stroke-width="5" fill-opacity="0.0"></path><path d="
M 167.5 275.4774941164094 C
182.25 301.02524352805034
167.5 326.5729929396913
138 326.5729929396913
" stroke="rgb(25,179,102)" stroke-width="5" fill-opacity="0.0"></path><path d="
M 167.5 275.4774941164094 C
193.04774941164095 319.7274941164094
204.9045011767181 326.5729929396913
256 326.5729929396913
" stroke="rgb(25,179,102)" stroke-width="5" fill-opacity="0.0"></path><path d="
M 167.5 275.4774941164094 C
197 326.5729929396913
197 326.5729929396913
226.5 377.6684917629732
" stroke="rgb(25,217,102)" stroke-width="5" fill-opacity="0.0"></path><path d="
M 167.5 275.4774941164094 C
193.04774941164095 319.7274941164094
193.04774941164095 333.4184917629732
167.5 377.6684917629732
" stroke="rgb(25,179,102)" stroke-width="5" fill-opacity="0.0"></path><path d="
M 108.5 275.4774941164094 C
93.75 301.02524352805034
108.49999999999999 326.5729929396913
138 326.5729929396913
" stroke="rgb(25,152,102)" stroke-width="5" fill-opacity="0.0"></path><path d="
M 108.5 275.4774941164094 C
82.95225058835905 319.7274941164094
82.95225058835905 333.4184917629732
108.5 377.6684917629732
" stroke="rgb(25,152,102)" stroke-width="5" fill-opacity="0.0"></path><path d="
M 108.5 275.4774941164094 C
78.99999999999999 326.5729929396913
79.00000000000001 326.5729929396913
49.5 377.6684917629732
" stroke="rgb(25,152,102)" stroke-width="5" fill-opacity="0.0"></path><path d="
M 315 224.38199529312752 C
285.5 224.38199529312752
270.75 249.92974470476844
285.5 275.4774941164094
" stroke="rgb(25,125,102)" stroke-width="5" fill-opacity="0.0"></path><path d="
M 315 224.38199529312752 C
263.9045011767181 224.38199529312752
252.04774941164095 231.2274941164094
226.5 275.4774941164094
" stroke="rgb(25,152,102)" stroke-width="5" fill-opacity="0.0"></path><path d="
M 315 224.38199529312752 C
374 224.38199529312752
374 224.38199529312752
433 224.38199529312752
" stroke="rgb(25,106,102)" stroke-width="5" fill-opacity="0.0"></path><path d="
M 315 224.38199529312752 C
366.0954988232819 224.38199529312752
377.95225058835905 231.2274941164094
403.5 275.4774941164094
" stroke="rgb(25,125,102)" stroke-width="5" fill-opacity="0.0"></path><path d="
M 285.5 275.4774941164094 C
311.04774941164095 319.7274941164094
322.9045011767181 326.5729929396913
374 326.5729929396913
" stroke="rgb(25,125,102)" stroke-width="5" fill-opacity="0.0"></path><path d="
M 285.5 275.4774941164094 C
315 326.5729929396913
315 326.5729929396913
344.5 377.6684917629732
" stroke="rgb(25,125,102)" stroke-width="5" fill-opacity="0.0"></path><path d="
M 285.5 275.4774941164094 C
311.04774941164095 319.7274941164094
311.04774941164095 333.4184917629732
285.5 377.6684917629732
" stroke="rgb(25,152,102)" stroke-width="5" fill-opacity="0.0"></path><path d="
M 226.5 275.4774941164094 C
200.95225058835905 319.7274941164094
189.0954988232819 326.5729929396913
138 326.5729929396913
" stroke="rgb(25,179,102)" stroke-width="5" fill-opacity="0.0"></path><path d="
M 226.5 275.4774941164094 C
211.75 301.02524352805034
226.5 326.5729929396913
256 326.5729929396913
" stroke="rgb(25,179,102)" stroke-width="5" fill-opacity="0.0"></path><path d="
M 226.5 275.4774941164094 C
200.95225058835905 319.7274941164094
200.95225058835905 333.4184917629732
226.5 377.6684917629732
" stroke="rgb(25,217,102)" stroke-width="5" fill-opacity="0.0"></path><path d="
M 226.5 275.4774941164094 C
197 326.5729929396913
197 326.5729929396913
167.5 377.6684917629732
" stroke="rgb(25,179,102)" stroke-width="5" fill-opacity="0.0"></path><path d="
M 433 224.38199529312752 C
381.9045011767181 224.38199529312752
370.04774941164095 231.2274941164094
344.5 275.4774941164094
" stroke="rgb(25,106,102)" stroke-width="5" fill-opacity="0.0"></path><path d="
M 433 224.38199529312752 C
492 224.38199529312752
492 224.38199529312752
551 224.38199529312752
" stroke="rgb(25,87,102)" stroke-width="5" fill-opacity="0.0"></path><path d="
M 433 224.38199529312752 C
484.0954988232819 224.38199529312752
495.95225058835905 231.2274941164094
521.5 275.4774941164094
" stroke="rgb(25,87,102)" stroke-width="5" fill-opacity="0.0"></path><path d="
M 433 224.38199529312752 C
462.5 224.38199529312752
477.25 249.92974470476844
462.5 275.4774941164094
" stroke="rgb(25,106,102)" stroke-width="5" fill-opacity="0.0"></path><path d="
M 403.5 275.4774941164094 C
418.25 301.02524352805034
447.75 301.02524352805034
462.5 275.4774941164094
" stroke="rgb(25,125,102)" stroke-width="5" fill-opacity="0.0"></path><path d="
M 403.5 275.4774941164094 C
429.04774941164095 319.7274941164094
440.9045011767181 326.5729929396913
492 326.5729929396913
" stroke="rgb(25,125,102)" stroke-width="5" fill-opacity="0.0"></path><path d="
M 403.5 275.4774941164094 C
433 326.5729929396913
433 326.5729929396913
462.5 377.6684917629732
" stroke="rgb(25,152,102)" stroke-width="5" fill-opacity="0.0"></path><path d="
M 403.5 275.4774941164094 C
429.04774941164095 319.7274941164094
429.04774941164095 333.4184917629732
403.5 377.6684917629732
" stroke="rgb(25,125,102)" stroke-width="5" fill-opacity="0.0"></path><path d="
M 344.5 275.4774941164094 C
318.95225058835905 319.7274941164094
307.0954988232819 326.5729929396913
256 326.5729929396913
" stroke="rgb(25,152,102)" stroke-width="5" fill-opacity="0.0"></path><path d="
M 344.5 275.4774941164094 C
329.75 301.02524352805034
344.5 326.5729929396913
374 326.5729929396913
" stroke="rgb(25,125,102)" stroke-width="5" fill-opacity="0.0"></path><path d="
M 344.5 275.4774941164094 C
318.95225058835905 319.7274941164094
318.95225058835905 333.4184917629732
344.5 377.6684917629732
" stroke="rgb(25,125,102)" stroke-width="5" fill-opacity="0.0"></path><path d="
M 344.5 275.4774941164094 C
315 326.5729929396913
315 326.5729929396913
285.5 377.6684917629732
" stroke="rgb(25,152,102)" stroke-width="5" fill-opacity="0.0"></path><path d="
M 551 224.38199529312752 C
499.9045011767181 224.38199529312752
488.04774941164095 231.2274941164094
462.5 275.4774941164094
" stroke="rgb(25,106,102)" stroke-width="5" fill-opacity="0.0"></path><path d="
M 521.5 275.4774941164094 C
536.25 301.02524352805034
521.5 326.5729929396913
492 326.5729929396913
" stroke="rgb(25,106,102)" stroke-width="5" fill-opacity="0.0"></path><path d="
M 462.5 275.4774941164094 C
436.95225058835905 319.7274941164094
425.0954988232819 326.5729929396913
374 326.5729929396913
" stroke="rgb(25,125,102)" stroke-width="5" fill-opacity="0.0"></path><path d="
M 462.5 275.4774941164094 C
447.75 301.02524352805034
462.5 326.5729929396913
492 326.5729929396913
" stroke="rgb(25,125,102)" stroke-width="5" fill-opacity="0.0"></path><path d="
M 462.5 275.4774941164094 C
436.95225058835905 319.7274941164094
436.95225058835905 333.4184917629732
462.5 377.6684917629732
" stroke="rgb(25,152,102)" stroke-width="5" fill-opacity="0.0"></path><path d="
M 462.5 275.4774941164094 C
433 326.5729929396913
433 326.5729929396913
403.5 377.6684917629732
" stroke="rgb(25,125,102)" stroke-width="5" fill-opacity="0.0"></path><path d="
M 138 326.5729929396913 C
108.49999999999999 326.5729929396913
93.75 352.12074235133224
108.5 377.6684917629732
" stroke="rgb(25,179,102)" stroke-width="5" fill-opacity="0.0"></path><path d="
M 138 326.5729929396913 C
86.90450117671811 326.5729929396913
75.04774941164095 333.4184917629732
49.5 377.6684917629732
" stroke="rgb(25,179,102)" stroke-width="5" fill-opacity="0.0"></path><path d="
M 138 326.5729929396913 C
197 326.5729929396913
197 326.5729929396913
256 326.5729929396913
" stroke="rgb(25,179,102)" stroke-width="5" fill-opacity="0.0"></path><path d="
M 138 326.5729929396913 C
189.0954988232819 326.5729929396913
200.95225058835905 333.4184917629732
226.5 377.6684917629732
" stroke="rgb(25,217,102)" stroke-width="5" fill-opacity="0.0"></path><path d="
M 108.5 377.6684917629732 C
93.75 352.12074235133224
64.25 352.12074235133224
49.5 377.6684917629732
" stroke="rgb(25,179,102)" stroke-width="5" fill-opacity="0.0"></path><path d="
M 108.5 377.6684917629732 C
134.04774941164095 421.9184917629732
145.90450117671813 428.76399058625503
197 428.76399058625503
" stroke="rgb(25,179,102)" stroke-width="5" fill-opacity="0.0"></path><path d="
M 108.5 377.6684917629732 C
138 428.7639905862551
138 428.7639905862551
167.5 479.85948940953693
" stroke="rgb(25,179,102)" stroke-width="5" fill-opacity="0.0"></path><path d="
M 108.5 377.6684917629732 C
134.04774941164095 421.9184917629732
134.04774941164095 435.60948940953693
108.5 479.85948940953693
" stroke="rgb(25,217,102)" stroke-width="5" fill-opacity="0.0"></path><path d="
M 49.5 377.6684917629732 C
34.75000000000001 403.21624117461414
49.500000000000014 428.76399058625503
79 428.76399058625503
" stroke="rgb(25,179,102)" stroke-width="5" fill-opacity="0.0"></path><path d="
M 49.5 377.6684917629732 C
23.952250588359064 421.9184917629732
23.952250588359064 435.60948940953693
49.5 479.85948940953693
" stroke="rgb(25,179,102)" stroke-width="5" fill-opacity="0.0"></path><path d="
M 49.5 377.6684917629732 C
20.000000000000004 428.7639905862551
19.999999999999996 428.7639905862551
-9.5 479.85948940953693
" stroke="rgb(25,217,102)" stroke-width="5" fill-opacity="0.0"></path><path d="
M 256 326.5729929396913 C
226.5 326.5729929396913
211.75 352.12074235133224
226.5 377.6684917629732
" stroke="rgb(25,217,102)" stroke-width="5" fill-opacity="0.0"></path><path d="
M 256 326.5729929396913 C
204.9045011767181 326.5729929396913
193.04774941164095 333.4184917629732
167.5 377.6684917629732
" stroke="rgb(25,179,102)" stroke-width="5" fill-opacity="0.0"></path><path d="
M 256 326.5729929396913 C
315 326.5729929396913
315 326.5729929396913
374 326.5729929396913
" stroke="rgb(25,152,102)" stroke-width="5" fill-opacity="0.0"></path><path d="
M 256 326.5729929396913 C
307.0954988232819 326.5729929396913
318.95225058835905 333.4184917629732
344.5 377.6684917629732
" stroke="rgb(25,152,102)" stroke-width="5" fill-opacity="0.0"></path><path d="
M 256 326.5729929396913 C
285.5 326.5729929396913
300.25 352.12074235133224
285.5 377.6684917629732
" stroke="rgb(25,179,102)" stroke-width="5" fill-opacity="0.0"></path><path d="
M 226.5 377.6684917629732 C
241.25 403.21624117461414
270.75 403.21624117461414
285.5 377.6684917629732
" stroke="rgb(25,217,102)" stroke-width="5" fill-opacity="0.0"></path><path d="
M 226.5 377.6684917629732 C
241.25 403.21624117461414
226.5 428.76399058625503
197 428.76399058625503
" stroke="rgb(25,217,102)" stroke-width="5" fill-opacity="0.0"></path><path d="
M 226.5 377.6684917629732 C
252.04774941164095 421.9184917629732
263.9045011767181 428.76399058625503
315 428.76399058625503
" stroke="rgb(25,217,102)" stroke-width="5" fill-opacity="0.0"></path><path d="
M 226.5 377.6684917629732 C
256 428.7639905862551
256 428.7639905862551
285.5 479.85948940953693
" stroke="rgb(25,217,102)" stroke-width="5" fill-opacity="0.0"></path><path d="
M 226.5 377.6684917629732 C
252.04774941164095 421.9184917629732
252.04774941164095 435.60948940953693
226.5 479.85948940953693
" stroke="rgb(25,217,102)" stroke-width="5" fill-opacity="0.0"></path><path d="
M 167.5 377.6684917629732 C
141.95225058835905 421.9184917629732
130.09549882328187 428.76399058625503
79 428.76399058625503
" stroke="rgb(25,179,102)" stroke-width="5" fill-opacity="0.0"></path><path d="
M 167.5 377.6684917629732 C
152.75 403.21624117461414
167.5 428.76399058625503
197 428.76399058625503
" stroke="rgb(25,179,102)" stroke-width="5" fill-opacity="0.0"></path><path d="
M 167.5 377.6684917629732 C
141.95225058835905 421.9184917629732
141.95225058835905 435.60948940953693
167.5 479.85948940953693
" stroke="rgb(25,179,102)" stroke-width="5" fill-opacity="0.0"></path><path d="
M 167.5 377.6684917629732 C
138 428.7639905862551
138 428.7639905862551
108.5 479.85948940953693
" stroke="rgb(25,217,102)" stroke-width="5" fill-opacity="0.0"></path><path d="
M 374 326.5729929396913 C
344.5 326.5729929396913
329.75 352.12074235133224
344.5 377.6684917629732
" stroke="rgb(25,125,102)" stroke-width="5" fill-opacity="0.0"></path><path d="
M 374 326.5729929396913 C
322.9045011767181 326.5729929396913
311.04774941164095 333.4184917629732
285.5 377.6684917629732
" stroke="rgb(25,152,102)" stroke-width="5" fill-opacity="0.0"></path><path d="
M 374 326.5729929396913 C
433 326.5729929396913
433 326.5729929396913
492 326.5729929396913
" stroke="rgb(25,125,102)" stroke-width="5" fill-opacity="0.0"></path><path d="
M 374 326.5729929396913 C
425.0954988232819 326.5729929396913
436.95225058835905 333.4184917629732
462.5 377.6684917629732
" stroke="rgb(25,152,102)" stroke-width="5" fill-opacity="0.0"></path><path d="
M 374 326.5729929396913 C
403.5 326.5729929396913
418.25 352.12074235133224
403.5 377.6684917629732
" stroke="rgb(25,125,102)" stroke-width="5" fill-opacity="0.0"></path><path d="
M 344.5 377.6684917629732 C
329.75 352.12074235133224
300.25 352.12074235133224
285.5 377.6684917629732
" stroke="rgb(25,152,102)" stroke-width="5" fill-opacity="0.0"></path><path d="
M 344.5 377.6684917629732 C
359.25 403.21624117461414
388.75 403.21624117461414
403.5 377.6684917629732
" stroke="rgb(25,125,102)" stroke-width="5" fill-opacity="0.0"></path><path d="
M 344.5 377.6684917629732 C
359.25 403.21624117461414
344.5 428.76399058625503
315 428.76399058625503
" stroke="rgb(25,152,102)" stroke-width="5" fill-opacity="0.0"></path><path d="
M 344.5 377.6684917629732 C
370.04774941164095 421.9184917629732
381.9045011767181 428.76399058625503
433 428.76399058625503
" stroke="rgb(25,152,102)" stroke-width="5" fill-opacity="0.0"></path><path d="
M 344.5 377.6684917629732 C
374 428.7639905862551
374 428.7639905862551
403.5 479.85948940953693
" stroke="rgb(25,125,102)" stroke-width="5" fill-opacity="0.0"></path><path d="
M 344.5 377.6684917629732 C
370.04774941164095 421.9184917629732
370.04774941164095 435.60948940953693
344.5 479.85948940953693
" stroke="rgb(25,125,102)" stroke-width="5" fill-opacity="0.0"></path><path d="
M 285.5 377.6684917629732 C
259.95225058835905 421.9184917629732
248.09549882328187 428.76399058625503
197 428.76399058625503
" stroke="rgb(25,179,102)" stroke-width="5" fill-opacity="0.0"></path><path d="
M 285.5 377.6684917629732 C
259.95225058835905 421.9184917629732
259.95225058835905 435.60948940953693
285.5 479.85948940953693
" stroke="rgb(25,179,102)" stroke-width="5" fill-opacity="0.0"></path><path d="
M 285.5 377.6684917629732 C
256 428.7639905862551
256 428.7639905862551
226.5 479.85948940953693
" stroke="rgb(25,179,102)" stroke-width="5" fill-opacity="0.0"></path><path d="
M 492 326.5729929396913 C
462.5 326.5729929396913
447.75 352.12074235133224
462.5 377.6684917629732
" stroke="rgb(25,152,102)" stroke-width="5" fill-opacity="0.0"></path><path d="
M 492 326.5729929396913 C
440.9045011767181 326.5729929396913
429.04774941164095 333.4184917629732
403.5 377.6684917629732
" stroke="rgb(25,125,102)" stroke-width="5" fill-opacity="0.0"></path><path d="
M 462.5 377.6684917629732 C
447.75 352.12074235133224
418.25 352.12074235133224
403.5 377.6684917629732
" stroke="rgb(25,152,102)" stroke-width="5" fill-opacity="0.0"></path><path d="
M 462.5 377.6684917629732 C
477.25 403.21624117461414
462.5 428.76399058625503
433 428.76399058625503
" stroke="rgb(25,179,102)" stroke-width="5" fill-opacity="0.0"></path><path d="
M 462.5 377.6684917629732 C
488.04774941164095 421.9184917629732
499.9045011767181 428.76399058625503
551 428.76399058625503
" stroke="rgb(25,179,102)" stroke-width="5" fill-opacity="0.0"></path><path d="
M 462.5 377.6684917629732 C
492 428.7639905862551
492 428.7639905862551
521.5 479.85948940953693
" stroke="rgb(25,152,102)" stroke-width="5" fill-opacity="0.0"></path><path d="
M 462.5 377.6684917629732 C
488.04774941164095 421.9184917629732
488.04774941164095 435.60948940953693
462.5 479.85948940953693
" stroke="rgb(25,217,102)" stroke-width="5" fill-opacity="0.0"></path><path d="
M 403.5 377.6684917629732 C
377.95225058835905 421.9184917629732
366.0954988232819 428.76399058625503
315 428.76399058625503
" stroke="rgb(25,152,102)" stroke-width="5" fill-opacity="0.0"></path><path d="
M 403.5 377.6684917629732 C
377.95225058835905 421.9184917629732
377.95225058835905 435.60948940953693
403.5 479.85948940953693
" stroke="rgb(25,125,102)" stroke-width="5" fill-opacity="0.0"></path><path d="
M 403.5 377.6684917629732 C
374 428.7639905862551
374 428.7639905862551
344.5 479.85948940953693
" stroke="rgb(25,125,102)" stroke-width="5" fill-opacity="0.0"></path><path d="
M 79 428.76399058625503 C
27.904501176718114 428.76399058625503
16.047749411640943 435.60948940953693
-9.5 479.85948940953693
" stroke="rgb(25,217,102)" stroke-width="5" fill-opacity="0.0"></path><path d="
M 79 428.76399058625503 C
138 428.76399058625503
138 428.76399058625503
197 428.76399058625503
" stroke="rgb(25,179,102)" stroke-width="5" fill-opacity="0.0"></path><path d="
M 79 428.76399058625503 C
130.0954988232819 428.76399058625503
141.95225058835905 435.60948940953693
167.5 479.85948940953693
" stroke="rgb(25,179,102)" stroke-width="5" fill-opacity="0.0"></path><path d="
M 49.5 479.85948940953693 C
34.75 454.311739997896
5.25 454.311739997896
-9.5 479.85948940953693
" stroke="rgb(25,217,102)" stroke-width="5" fill-opacity="0.0"></path><path d="
M 49.5 479.85948940953693 C
64.25 505.4072388211779
93.75 505.4072388211779
108.5 479.85948940953693
" stroke="rgb(25,217,102)" stroke-width="5" fill-opacity="0.0"></path><path d="
M 197 428.76399058625503 C
145.9045011767181 428.76399058625503
134.04774941164095 435.60948940953693
108.5 479.85948940953693
" stroke="rgb(25,217,102)" stroke-width="5" fill-opacity="0.0"></path><path d="
M 197 428.76399058625503 C
256 428.76399058625503
256 428.76399058625503
315 428.76399058625503
" stroke="rgb(25,179,102)" stroke-width="5" fill-opacity="0.0"></path><path d="
M 197 428.76399058625503 C
248.0954988232819 428.76399058625503
259.95225058835905 435.60948940953693
285.5 479.85948940953693
" stroke="rgb(25,179,102)" stroke-width="5" fill-opacity="0.0"></path><path d="
M 197 428.76399058625503 C
226.5 428.76399058625503
241.25 454.311739997896
226.5 479.85948940953693
" stroke="rgb(25,179,102)" stroke-width="5" fill-opacity="0.0"></path><path d="
M 167.5 479.85948940953693 C
152.75 454.311739997896
123.25 454.311739997896
108.5 479.85948940953693
" stroke="rgb(25,217,102)" stroke-width="5" fill-opacity="0.0"></path><path d="
M 167.5 479.85948940953693 C
182.25 505.4072388211779
211.75 505.4072388211779
226.5 479.85948940953693
" stroke="rgb(25,179,102)" stroke-width="5" fill-opacity="0.0"></path><path d="
M 315 428.76399058625503 C
263.9045011767181 428.76399058625503
252.04774941164095 435.60948940953693
226.5 479.85948940953693
" stroke="rgb(25,179,102)" stroke-width="5" fill-opacity="0.0"></path><path d="
M 315 428.76399058625503 C
374 428.76399058625503
374 428.76399058625503
433 428.76399058625503
" stroke="rgb(25,179,102)" stroke-width="5" fill-opacity="0.0"></path><path d="
M 315 428.76399058625503 C
366.0954988232819 428.76399058625503
377.95225058835905 435.60948940953693
403.5 479.85948940953693
" stroke="rgb(25,152,102)" stroke-width="5" fill-opacity="0.0"></path><path d="
M 315 428.76399058625503 C
344.5 428.76399058625503
359.25 454.311739997896
344.5 479.85948940953693
" stroke="rgb(25,152,102)" stroke-width="5" fill-opacity="0.0"></path><path d="
M 285.5 479.85948940953693 C
270.75 454.311739997896
241.25 454.311739997896
226.5 479.85948940953693
" stroke="rgb(25,179,102)" stroke-width="5" fill-opacity="0.0"></path><path d="
M 433 428.76399058625503 C
403.5 428.76399058625503
388.75 454.311739997896
403.5 479.85948940953693
" stroke="rgb(25,152,102)" stroke-width="5" fill-opacity="0.0"></path><path d="
M 433 428.76399058625503 C
381.9045011767181 428.76399058625503
370.04774941164095 435.60948940953693
344.5 479.85948940953693
" stroke="rgb(25,152,102)" stroke-width="5" fill-opacity="0.0"></path><path d="
M 433 428.76399058625503 C
492 428.76399058625503
492 428.76399058625503
551 428.76399058625503
" stroke="rgb(25,179,102)" stroke-width="5" fill-opacity="0.0"></path><path d="
M 433 428.76399058625503 C
484.0954988232819 428.76399058625503
495.95225058835905 435.60948940953693
521.5 479.85948940953693
" stroke="rgb(25,152,102)" stroke-width="5" fill-opacity="0.0"></path><path d="
M 433 428.76399058625503 C
462.5 428.76399058625503
477.25 454.311739997896
462.5 479.85948940953693
" stroke="rgb(25,217,102)" stroke-width="5" fill-opacity="0.0"></path><path d="
M 551 428.76399058625503 C
521.5 428.76399058625503
506.75 454.311739997896
521.5 479.85948940953693
" stroke="rgb(25,152,102)" stroke-width="5" fill-opacity="0.0"></path><path d="
M 551 428.76399058625503 C
499.9045011767181 428.76399058625503
488.04774941164095 435.60948940953693
462.5 479.85948940953693
" stroke="rgb(25,217,102)" stroke-width="5" fill-opacity="0.0"></path><line x1="82" y1="20" x2="76" y2="20" stroke="rgb(255,0,179)" stroke-width="2"></line><line x1="51" y1="73.69357503463519" x2="48" y2="68.49742261192856" stroke="rgb(255,0,87)" stroke-width="2"></line><line x1="-11" y1="73.69357503463519" x2="-8" y2="68.49742261192856" stroke="rgb(255,0,125)" stroke-width="2"></line><line x1="200" y1="20" x2="194" y2="20" stroke="rgb(255,0,255)" stroke-width="2"></line><line x1="169" y1="73.69357503463519" x2="166" y2="68.49742261192856" stroke="rgb(255,0,125)" stroke-width="2"></line><line x1="107" y1="73.69357503463519" x2="110" y2="68.49742261192856" stroke="rgb(255,0,179)" stroke-width="2"></line><line x1="318" y1="20" x2="312" y2="20" stroke="rgb(255,0,179)" stroke-width="2"></line><line x1="287" y1="73.69357503463519" x2="284" y2="68.49742261192856" stroke="rgb(255,0,179)" stroke-width="2"></line><line x1="225" y1="73.69357503463519" x2="228" y2="68.49742261192856" stroke="rgb(255,0,125)" stroke-width="2"></line><line x1="436" y1="20" x2="430" y2="20" stroke="rgb(255,0,125)" stroke-width="2"></line><line x1="405" y1="73.69357503463519" x2="402" y2="68.49742261192856" stroke="rgb(255,0,125)" stroke-width="2"></line><line x1="343" y1="73.69357503463519" x2="346" y2="68.49742261192856" stroke="rgb(255,0,125)" stroke-width="2"></line><line x1="554" y1="20" x2="548" y2="20" stroke="rgb(255,0,87)" stroke-width="2"></line><line x1="523" y1="73.69357503463519" x2="520" y2="68.49742261192856" stroke="rgb(255,0,87)" stroke-width="2"></line><line x1="461" y1="73.69357503463519" x2="464" y2="68.49742261192856" stroke="rgb(255,0,87)" stroke-width="2"></line><line x1="141" y1="122.19099764656376" x2="135" y2="122.19099764656376" stroke="rgb(255,0,125)" stroke-width="2"></line><line x1="110" y1="175.88457268119896" x2="107" y2="170.68842025849233" stroke="rgb(255,0,125)" stroke-width="2"></line><line x1="48" y1="175.88457268119896" x2="51" y2="170.68842025849233" stroke="rgb(255,0,125)" stroke-width="2"></line><line x1="259" y1="122.19099764656376" x2="253" y2="122.19099764656376" stroke="rgb(255,0,125)" stroke-width="2"></line><line x1="228" y1="175.88457268119896" x2="225" y2="170.68842025849233" stroke="rgb(255,0,125)" stroke-width="2"></line><line x1="166" y1="175.88457268119896" x2="169" y2="170.68842025849233" stroke="rgb(255,0,125)" stroke-width="2"></line><line x1="377" y1="122.19099764656376" x2="371" y2="122.19099764656376" stroke="rgb(255,0,125)" stroke-width="2"></line><line x1="346" y1="175.88457268119896" x2="343" y2="170.68842025849233" stroke="rgb(255,0,125)" stroke-width="2"></line><line x1="284" y1="175.88457268119896" x2="287" y2="170.68842025849233" stroke="rgb(255,0,125)" stroke-width="2"></line><line x1="495" y1="122.19099764656376" x2="489" y2="122.19099764656376" stroke="rgb(255,0,87)" stroke-width="2"></line><line x1="464" y1="175.88457268119896" x2="461" y2="170.68842025849233" stroke="rgb(255,0,87)" stroke-width="2"></line><line x1="402" y1="175.88457268119896" x2="405" y2="170.68842025849233" stroke="rgb(255,0,87)" stroke-width="2"></line><line x1="82" y1="224.38199529312752" x2="76" y2="224.38199529312752" stroke="rgb(255,0,125)" stroke-width="2"></line><line x1="51" y1="278.0755703277627" x2="48" y2="272.8794179050561" stroke="rgb(255,0,125)" stroke-width="2"></line><line x1="-11" y1="278.0755703277627" x2="-8" y2="272.8794179050561" stroke="rgb(255,0,87)" stroke-width="2"></line><line x1="200" y1="224.38199529312752" x2="194" y2="224.38199529312752" stroke="rgb(255,0,87)" stroke-width="2"></line><line x1="169" y1="278.0755703277627" x2="166" y2="272.8794179050561" stroke="rgb(255,0,179)" stroke-width="2"></line><line x1="107" y1="278.0755703277627" x2="110" y2="272.8794179050561" stroke="rgb(255,0,125)" stroke-width="2"></line><line x1="318" y1="224.38199529312752" x2="312" y2="224.38199529312752" stroke="rgb(255,0,125)" stroke-width="2"></line><line x1="287" y1="278.0755703277627" x2="284" y2="272.8794179050561" stroke="rgb(255,0,125)" stroke-width="2"></line><line x1="225" y1="278.0755703277627" x2="228" y2="272.8794179050561" stroke="rgb(255,0,179)" stroke-width="2"></line><line x1="436" y1="224.38199529312752" x2="430" y2="224.38199529312752" stroke="rgb(255,0,87)" stroke-width="2"></line><line x1="405" y1="278.0755703277627" x2="402" y2="272.8794179050561" stroke="rgb(255,0,125)" stroke-width="2"></line><line x1="343" y1="278.0755703277627" x2="346" y2="272.8794179050561" stroke="rgb(255,0,125)" stroke-width="2"></line><line x1="554" y1="224.38199529312752" x2="548" y2="224.38199529312752" stroke="rgb(255,0,87)" stroke-width="2"></line><line x1="523" y1="278.0755703277627" x2="520" y2="272.8794179050561" stroke="rgb(255,0,87)" stroke-width="2"></line><line x1="461" y1="278.0755703277627" x2="464" y2="272.8794179050561" stroke="rgb(255,0,125)" stroke-width="2"></line><line x1="141" y1="326.5729929396913" x2="135" y2="326.5729929396913" stroke="rgb(255,0,179)" stroke-width="2"></line><line x1="110" y1="380.2665679743265" x2="107" y2="375.0704155516199" stroke="rgb(255,0,179)" stroke-width="2"></line><line x1="48" y1="380.2665679743265" x2="51" y2="375.0704155516199" stroke="rgb(255,0,179)" stroke-width="2"></line><line x1="259" y1="326.5729929396913" x2="253" y2="326.5729929396913" stroke="rgb(255,0,179)" stroke-width="2"></line><line x1="228" y1="380.2665679743265" x2="225" y2="375.0704155516199" stroke="rgb(255,0,255)" stroke-width="2"></line><line x1="166" y1="380.2665679743265" x2="169" y2="375.0704155516199" stroke="rgb(255,0,179)" stroke-width="2"></line><line x1="377" y1="326.5729929396913" x2="371" y2="326.5729929396913" stroke="rgb(255,0,125)" stroke-width="2"></line><line x1="346" y1="380.2665679743265" x2="343" y2="375.0704155516199" stroke="rgb(255,0,125)" stroke-width="2"></line><line x1="284" y1="380.2665679743265" x2="287" y2="375.0704155516199" stroke="rgb(255,0,179)" stroke-width="2"></line><line x1="495" y1="326.5729929396913" x2="489" y2="326.5729929396913" stroke="rgb(255,0,125)" stroke-width="2"></line><line x1="464" y1="380.2665679743265" x2="461" y2="375.0704155516199" stroke="rgb(255,0,179)" stroke-width="2"></line><line x1="402" y1="380.2665679743265" x2="405" y2="375.0704155516199" stroke="rgb(255,0,125)" stroke-width="2"></line><line x1="82" y1="428.76399058625503" x2="76" y2="428.76399058625503" stroke="rgb(255,0,179)" stroke-width="2"></line><line x1="51" y1="482.45756562089025" x2="48" y2="477.2614131981836" stroke="rgb(255,0,179)" stroke-width="2"></line><line x1="-11" y1="482.45756562089025" x2="-8" y2="477.2614131981836" stroke="rgb(255,0,255)" stroke-width="2"></line><line x1="200" y1="428.76399058625503" x2="194" y2="428.76399058625503" stroke="rgb(255,0,179)" stroke-width="2"></line><line x1="169" y1="482.45756562089025" x2="166" y2="477.2614131981836" stroke="rgb(255,0,179)" stroke-width="2"></line><line x1="107" y1="482.45756562089025" x2="110" y2="477.2614131981836" stroke="rgb(255,0,255)" stroke-width="2"></line><line x1="318" y1="428.76399058625503" x2="312" y2="428.76399058625503" stroke="rgb(255,0,179)" stroke-width="2"></line><line x1="287" y1="482.45756562089025" x2="284" y2="477.2614131981836" stroke="rgb(255,0,179)" stroke-width="2"></line><line x1="225" y1="482.45756562089025" x2="228" y2="477.2614131981836" stroke="rgb(255,0,179)" stroke-width="2"></line><line x1="436" y1="428.76399058625503" x2="430" y2="428.76399058625503" stroke="rgb(255,0,179)" stroke-width="2"></line><line x1="405" y1="482.45756562089025" x2="402" y2="477.2614131981836" stroke="rgb(255,0,125)" stroke-width="2"></line><line x1="343" y1="482.45756562089025" x2="346" y2="477.2614131981836" stroke="rgb(255,0,125)" stroke-width="2"></line><line x1="554" y1="428.76399058625503" x2="548" y2="428.76399058625503" stroke="rgb(255,0,179)" stroke-width="2"></line><line x1="523" y1="482.45756562089025" x2="520" y2="477.2614131981836" stroke="rgb(255,0,125)" stroke-width="2"></line><line x1="461" y1="482.45756562089025" x2="464" y2="477.2614131981836" stroke="rgb(255,0,255)" stroke-width="2"></line></svg>
