<svg xmlns="http://www.w3.org/2000/svg" version="1.1"><path d="
M 103 20 C
61.5 20
40.75 55.9400542570542
61.5 91.8801085141084
" stroke="#000" stroke-width="5" fill-opacity="0.0"></path><path d="
M 103 20 C
144.5 20
165.25 55.9400542570542
144.5 91.8801085141084
" stroke="#000" stroke-width="5" fill-opacity="0.0"></path><path d="
M 227.5 91.8801085141084 C
206.75 55.9400542570542
165.25 55.9400542570542
144.5 91.8801085141084
" stroke="#000" stroke-width="5" fill-opacity="0.0"></path><path d="
M 435 20 C
393.5 20
372.75 55.9400542570542
393.5 91.8801085141084
" stroke="#000" stroke-width="5" fill-opacity="0.0"></path><path d="
M 393.5 91.8801085141084 C
372.75 55.9400542570542
331.25 55.9400542570542
310.5 91.8801085141084
" stroke="#000" stroke-width="5" fill-opacity="0.0"></path><path d="
M 310.5 91.8801085141084 C
289.75 127.8201627711626
310.5 163.7602170282168
352 163.7602170282168
" stroke="#000" stroke-width="5" fill-opacity="0.0"></path><path d="
M 186 163.7602170282168 C
144.5 163.7602170282168
123.75 199.70027128527101
144.5 235.6403255423252
" stroke="#000" stroke-width="5" fill-opacity="0.0"></path><path d="
M 186 163.7602170282168 C
227.5 163.7602170282168
248.25 199.70027128527101
227.5 235.6403255423252
" stroke="#000" stroke-width="5" fill-opacity="0.0"></path><path d="
M 144.5 235.6403255423252 C
123.75 199.70027128527101
82.25 199.70027128527101
61.5 235.6403255423252
" stroke="#000" stroke-width="5" fill-opacity="0.0"></path><path d="
M 144.5 235.6403255423252 C
165.25 271.5803797993794
206.75 271.5803797993794
227.5 235.6403255423252
" stroke="#000" stroke-width="5" fill-opacity="0.0"></path><path d="
M 352 163.7602170282168 C
393.5 163.7602170282168
414.25 199.70027128527101
393.5 235.6403255423252
" stroke="#000" stroke-width="5" fill-opacity="0.0"></path><path d="
M 310.5 235.6403255423252 C
331.25 271.5803797993794
372.75 271.5803797993794
393.5 235.6403255423252
" stroke="#000" stroke-width="5" fill-opacity="0.0"></path><path d="
M 227.5 235.6403255423252 C
206.75 271.5803797993794
227.5 307.5204340564336
269 307.5204340564336
" stroke="#000" stroke-width="5" fill-opacity="0.0"></path><path d="
M 518 163.7602170282168 C
476.5 163.7602170282168
455.75 199.70027128527101
476.5 235.6403255423252
" stroke="#000" stroke-width="5" fill-opacity="0.0"></path><path d="
M 476.5 235.6403255423252 C
455.75 199.70027128527101
414.25 199.70027128527101
393.5 235.6403255423252
" stroke="#000" stroke-width="5" fill-opacity="0.0"></path><path d="
M 393.5 235.6403255423252 C
372.75 271.5803797993794
393.5 307.5204340564336
435 307.5204340564336
" stroke="#000" stroke-width="5" fill-opacity="0.0"></path><path d="
M 103 307.5204340564336 C
144.5 307.5204340564336
165.25 343.4604883134878
144.5 379.40054257054203
" stroke="#000" stroke-width="5" fill-opacity="0.0"></path><path d="
M 61.5 379.40054257054203 C
82.25 415.34059682759624
123.75 415.34059682759624
144.5 379.40054257054203
" stroke="#000" stroke-width="5" fill-opacity="0.0"></path><path d="
M 269 307.5204340564336 C
227.5 307.5204340564336
206.75 343.4604883134878
227.5 379.40054257054203
" stroke="#000" stroke-width="5" fill-opacity="0.0"></path><path d="
M 269 307.5204340564336 C
310.5 307.5204340564336
331.25 343.4604883134878
310.5 379.40054257054203
" stroke="#000" stroke-width="5" fill-opacity="0.0"></path><path d="
M 227.5 379.40054257054203 C
248.25 415.34059682759624
289.75 415.34059682759624
310.5 379.40054257054203
" stroke="#000" stroke-width="5" fill-opacity="0.0"></path><path d="
M 227.5 379.40054257054203 C
248.25 415.34059682759624
227.5 451.2806510846504
186 451.2806510846504
" stroke="#000" stroke-width="5" fill-opacity="0.0"></path><path d="
M 393.5 379.40054257054203 C
414.25 415.34059682759624
393.5 451.2806510846504
352 451.2806510846504
" stroke="#000" stroke-width="5" fill-opacity="0.0"></path><path d="
M 186 451.2806510846504 C
144.5 451.2806510846504
123.75 487.22070534170456
144.5 523.1607595987588
" stroke="#000" stroke-width="5" fill-opacity="0.0"></path><path d="
M 186 451.2806510846504 C
227.5 451.2806510846504
248.25 487.22070534170456
227.5 523.1607595987588
" stroke="#000" stroke-width="5" fill-opacity="0.0"></path><path d="
M 144.5 523.1607595987588 C
123.75 487.22070534170456
82.25 487.22070534170456
61.5 523.1607595987588
" stroke="#000" stroke-width="5" fill-opacity="0.0"></path><path d="
M 352 451.2806510846504 C
393.5 451.2806510846504
414.25 487.22070534170456
393.5 523.1607595987588
" stroke="#000" stroke-width="5" fill-opacity="0.0"></path><path d="
M 310.5 523.1607595987588 C
289.75 487.22070534170456
248.25 487.22070534170456
227.5 523.1607595987588
" stroke="#000" stroke-width="5" fill-opacity="0.0"></path><path d="
M 476.5 523.1607595987588 C
455.75 487.22070534170456
414.25 487.22070534170456
393.5 523.1607595987588
" stroke="#000" stroke-width="5" fill-opacity="0.0"></path><line x1="106" y1="20" x2="100" y2="20" stroke="#808" stroke-width="2"></line><line x1="63" y1="94.47818472546172" x2="60" y2="89.28203230275508" stroke="#808" stroke-width="2"></line><line x1="-23" y1="94.47818472546172" x2="-20" y2="89.28203230275508" stroke="#808" stroke-width="2"></line><line x1="272" y1="20" x2="266" y2="20" stroke="#808" stroke-width="2"></line><line x1="229" y1="94.47818472546172" x2="226" y2="89.28203230275508" stroke="#808" stroke-width="2"></line><line x1="143" y1="94.47818472546172" x2="146" y2="89.28203230275508" stroke="#808" stroke-width="2"></line><line x1="438" y1="20" x2="432" y2="20" stroke="#808" stroke-width="2"></line><line x1="395" y1="94.47818472546172" x2="392" y2="89.28203230275508" stroke="#808" stroke-width="2"></line><line x1="309" y1="94.47818472546172" x2="312" y2="89.28203230275508" stroke="#808" stroke-width="2"></line><line x1="189" y1="163.7602170282168" x2="183" y2="163.7602170282168" stroke="#808" stroke-width="2"></line><line x1="146" y1="238.23840175367852" x2="143" y2="233.04224933097188" stroke="#808" stroke-width="2"></line><line x1="60" y1="238.23840175367852" x2="63" y2="233.04224933097188" stroke="#808" stroke-width="2"></line><line x1="355" y1="163.7602170282168" x2="349" y2="163.7602170282168" stroke="#808" stroke-width="2"></line><line x1="312" y1="238.23840175367852" x2="309" y2="233.04224933097188" stroke="#808" stroke-width="2"></line><line x1="226" y1="238.23840175367852" x2="229" y2="233.04224933097188" stroke="#808" stroke-width="2"></line><line x1="521" y1="163.7602170282168" x2="515" y2="163.7602170282168" stroke="#808" stroke-width="2"></line><line x1="478" y1="238.23840175367852" x2="475" y2="233.04224933097188" stroke="#808" stroke-width="2"></line><line x1="392" y1="238.23840175367852" x2="395" y2="233.04224933097188" stroke="#808" stroke-width="2"></line><line x1="106" y1="307.5204340564336" x2="100" y2="307.5204340564336" stroke="#808" stroke-width="2"></line><line x1="63" y1="381.99861878189535" x2="60" y2="376.8024663591887" stroke="#808" stroke-width="2"></line><line x1="-23" y1="381.99861878189535" x2="-20" y2="376.8024663591887" stroke="#808" stroke-width="2"></line><line x1="272" y1="307.5204340564336" x2="266" y2="307.5204340564336" stroke="#808" stroke-width="2"></line><line x1="229" y1="381.99861878189535" x2="226" y2="376.8024663591887" stroke="#808" stroke-width="2"></line><line x1="143" y1="381.99861878189535" x2="146" y2="376.8024663591887" stroke="#808" stroke-width="2"></line><line x1="438" y1="307.5204340564336" x2="432" y2="307.5204340564336" stroke="#808" stroke-width="2"></line><line x1="395" y1="381.99861878189535" x2="392" y2="376.8024663591887" stroke="#808" stroke-width="2"></line><line x1="309" y1="381.99861878189535" x2="312" y2="376.8024663591887" stroke="#808" stroke-width="2"></line><line x1="189" y1="451.2806510846504" x2="183" y2="451.2806510846504" stroke="#808" stroke-width="2"></line><line x1="146" y1="525.758835810112" x2="143" y2="520.5626833874055" stroke="#808" stroke-width="2"></line><line x1="60" y1="525.758835810112" x2="63" y2="520.5626833874055" stroke="#808" stroke-width="2"></line><line x1="355" y1="451.2806510846504" x2="349" y2="451.2806510846504" stroke="#808" stroke-width="2"></line><line x1="312" y1="525.758835810112" x2="309" y2="520.5626833874055" stroke="#808" stroke-width="2"></line><line x1="226" y1="525.758835810112" x2="229" y2="520.5626833874055" stroke="#808" stroke-width="2"></line><line x1="521" y1="451.2806510846504" x2="515" y2="451.2806510846504" stroke="#808" stroke-width="2"></line><line x1="478" y1="525.758835810112" x2="475" y2="520.5626833874055" stroke="#808" stroke-width="2"></line><line x1="392" y1="525.758835810112" x2="395" y2="520.5626833874055" stroke="#808" stroke-width="2"></line></svg>
