<svg viewBox="-20.5 15 542.5 440.414625680866" xmlns="http://www.w3.org/2000/svg" version="1.1"><path d="
M 91 20 C
55.5 20
37.75 50.74390183434757
55.5 81.48780366869514
" stroke="rgb(25,36,102)" stroke-width="5" fill-opacity="0.0"></path><path d="
M 91 20 C
162 20
162 20
233 20
" stroke="rgb(25,30,102)" stroke-width="5" fill-opacity="0.0"></path><path d="
M 91 20 C
152.48780366869514 20
166.75609816565242 28.237803668695143
197.5 81.48780366869514
" stroke="rgb(25,36,102)" stroke-width="5" fill-opacity="0.0"></path><path d="
M 55.5 81.48780366869514 C
37.75 50.74390183434757
2.25 50.74390183434757
-15.5 81.48780366869514
" stroke="rgb(25,36,102)" stroke-width="5" fill-opacity="0.0"></path><path d="
M 55.5 81.48780366869514 C
73.25 112.2317055030427
108.75 112.2317055030427
126.5 81.48780366869514
" stroke="rgb(25,43,102)" stroke-width="5" fill-opacity="0.0"></path><path d="
M 55.5 81.48780366869514 C
86.24390183434757 134.73780366869514
100.51219633130486 142.97560733739027
162 142.97560733739027
" stroke="rgb(25,43,102)" stroke-width="5" fill-opacity="0.0"></path><path d="
M 55.5 81.48780366869514 C
91 142.97560733739027
91 142.97560733739027
126.5 204.4634110060854
" stroke="rgb(25,52,102)" stroke-width="5" fill-opacity="0.0"></path><path d="
M 233 20 C
294.48780366869516 20
308.7560981656524 28.237803668695143
339.5 81.48780366869514
" stroke="rgb(25,36,102)" stroke-width="5" fill-opacity="0.0"></path><path d="
M 197.5 81.48780366869514 C
179.75 50.74390183434757
144.25 50.74390183434757
126.5 81.48780366869514
" stroke="rgb(25,43,102)" stroke-width="5" fill-opacity="0.0"></path><path d="
M 197.5 81.48780366869514 C
215.25 112.2317055030427
250.75 112.2317055030427
268.5 81.48780366869514
" stroke="rgb(25,36,102)" stroke-width="5" fill-opacity="0.0"></path><path d="
M 197.5 81.48780366869514 C
228.24390183434758 134.73780366869514
242.51219633130486 142.97560733739027
304 142.97560733739027
" stroke="rgb(25,52,102)" stroke-width="5" fill-opacity="0.0"></path><path d="
M 126.5 81.48780366869514 C
95.75609816565243 134.73780366869514
95.75609816565243 151.2134110060854
126.5 204.4634110060854
" stroke="rgb(25,52,102)" stroke-width="5" fill-opacity="0.0"></path><path d="
M 126.5 81.48780366869514 C
91 142.97560733739027
91 142.97560733739027
55.5 204.4634110060854
" stroke="rgb(25,52,102)" stroke-width="5" fill-opacity="0.0"></path><path d="
M 375 20 C
313.51219633130484 20
299.2439018343476 28.237803668695143
268.5 81.48780366869514
" stroke="rgb(25,30,102)" stroke-width="5" fill-opacity="0.0"></path><path d="
M 375 20 C
446 20
446 20
517 20
" stroke="rgb(25,30,102)" stroke-width="5" fill-opacity="0.0"></path><path d="
M 375 20 C
410.5 20
428.25 50.74390183434757
410.5 81.48780366869514
" stroke="rgb(25,36,102)" stroke-width="5" fill-opacity="0.0"></path><path d="
M 339.5 81.48780366869514 C
321.75 50.74390183434757
286.25 50.74390183434757
268.5 81.48780366869514
" stroke="rgb(25,36,102)" stroke-width="5" fill-opacity="0.0"></path><path d="
M 339.5 81.48780366869514 C
357.25 112.2317055030427
392.75 112.2317055030427
410.5 81.48780366869514
" stroke="rgb(25,43,102)" stroke-width="5" fill-opacity="0.0"></path><path d="
M 339.5 81.48780366869514 C
357.25 112.2317055030427
339.5 142.97560733739027
304 142.97560733739027
" stroke="rgb(25,52,102)" stroke-width="5" fill-opacity="0.0"></path><path d="
M 339.5 81.48780366869514 C
370.2439018343476 134.73780366869514
384.51219633130484 142.97560733739027
446 142.97560733739027
" stroke="rgb(25,52,102)" stroke-width="5" fill-opacity="0.0"></path><path d="
M 339.5 81.48780366869514 C
370.2439018343476 134.73780366869514
370.2439018343476 151.2134110060854
339.5 204.4634110060854
" stroke="rgb(25,52,102)" stroke-width="5" fill-opacity="0.0"></path><path d="
M 268.5 81.48780366869514 C
237.75609816565242 134.73780366869514
223.48780366869514 142.97560733739027
162 142.97560733739027
" stroke="rgb(25,36,102)" stroke-width="5" fill-opacity="0.0"></path><path d="
M 517 20 C
455.51219633130484 20
441.2439018343476 28.237803668695143
410.5 81.48780366869514
" stroke="rgb(25,36,102)" stroke-width="5" fill-opacity="0.0"></path><path d="
M 481.5 81.48780366869514 C
463.75 50.74390183434757
428.25 50.74390183434757
410.5 81.48780366869514
" stroke="rgb(25,43,102)" stroke-width="5" fill-opacity="0.0"></path><path d="
M 481.5 81.48780366869514 C
499.25 112.2317055030427
481.5 142.97560733739027
446 142.97560733739027
" stroke="rgb(25,52,102)" stroke-width="5" fill-opacity="0.0"></path><path d="
M 410.5 81.48780366869514 C
379.7560981656524 134.73780366869514
365.48780366869516 142.97560733739027
304 142.97560733739027
" stroke="rgb(25,52,102)" stroke-width="5" fill-opacity="0.0"></path><path d="
M 410.5 81.48780366869514 C
375 142.97560733739027
375 142.97560733739027
339.5 204.4634110060854
" stroke="rgb(25,52,102)" stroke-width="5" fill-opacity="0.0"></path><path d="
M 162 142.97560733739027 C
126.5 142.97560733739027
108.75 173.71950917173783
126.5 204.4634110060854
" stroke="rgb(25,52,102)" stroke-width="5" fill-opacity="0.0"></path><path d="
M 162 142.97560733739027 C
233 142.97560733739027
233 142.97560733739027
304 142.97560733739027
" stroke="rgb(25,52,102)" stroke-width="5" fill-opacity="0.0"></path><path d="
M 162 142.97560733739027 C
223.48780366869514 142.97560733739027
237.75609816565242 151.2134110060854
268.5 204.4634110060854
" stroke="rgb(25,52,102)" stroke-width="5" fill-opacity="0.0"></path><path d="
M 126.5 204.4634110060854 C
144.25 235.207312840433
179.75 235.207312840433
197.5 204.4634110060854
" stroke="rgb(25,74,102)" stroke-width="5" fill-opacity="0.0"></path><path d="
M 126.5 204.4634110060854 C
157.24390183434758 257.7134110060854
157.24390183434758 274.1890183434757
126.5 327.4390183434757
" stroke="rgb(25,74,102)" stroke-width="5" fill-opacity="0.0"></path><path d="
M 55.5 204.4634110060854 C
37.75 235.207312840433
55.5 265.95121467478054
91 265.95121467478054
" stroke="rgb(25,74,102)" stroke-width="5" fill-opacity="0.0"></path><path d="
M 55.5 204.4634110060854 C
20 265.95121467478054
20 265.95121467478054
-15.5 327.4390183434757
" stroke="rgb(25,61,102)" stroke-width="5" fill-opacity="0.0"></path><path d="
M 304 142.97560733739027 C
242.51219633130486 142.97560733739027
228.24390183434758 151.2134110060854
197.5 204.4634110060854
" stroke="rgb(25,74,102)" stroke-width="5" fill-opacity="0.0"></path><path d="
M 268.5 204.4634110060854 C
250.75 173.71950917173783
215.25 173.71950917173783
197.5 204.4634110060854
" stroke="rgb(25,74,102)" stroke-width="5" fill-opacity="0.0"></path><path d="
M 197.5 204.4634110060854 C
166.75609816565242 257.7134110060854
152.48780366869514 265.95121467478054
91 265.95121467478054
" stroke="rgb(25,87,102)" stroke-width="5" fill-opacity="0.0"></path><path d="
M 197.5 204.4634110060854 C
166.75609816565242 257.7134110060854
166.75609816565242 274.1890183434757
197.5 327.4390183434757
" stroke="rgb(25,106,102)" stroke-width="5" fill-opacity="0.0"></path><path d="
M 446 142.97560733739027 C
410.5 142.97560733739027
392.75 173.71950917173783
410.5 204.4634110060854
" stroke="rgb(25,74,102)" stroke-width="5" fill-opacity="0.0"></path><path d="
M 410.5 204.4634110060854 C
392.75 173.71950917173783
357.25 173.71950917173783
339.5 204.4634110060854
" stroke="rgb(25,74,102)" stroke-width="5" fill-opacity="0.0"></path><path d="
M 410.5 204.4634110060854 C
446 265.95121467478054
446 265.95121467478054
481.5 327.4390183434757
" stroke="rgb(25,74,102)" stroke-width="5" fill-opacity="0.0"></path><path d="
M 410.5 204.4634110060854 C
441.2439018343476 257.7134110060854
441.2439018343476 274.1890183434757
410.5 327.4390183434757
" stroke="rgb(25,106,102)" stroke-width="5" fill-opacity="0.0"></path><path d="
M 339.5 204.4634110060854 C
308.7560981656524 257.7134110060854
308.7560981656524 274.1890183434757
339.5 327.4390183434757
" stroke="rgb(25,52,102)" stroke-width="5" fill-opacity="0.0"></path><path d="
M 91 265.95121467478054 C
162 265.95121467478054
162 265.95121467478054
233 265.95121467478054
" stroke="rgb(25,74,102)" stroke-width="5" fill-opacity="0.0"></path><path d="
M 91 265.95121467478054 C
152.48780366869516 265.95121467478054
166.75609816565242 274.1890183434757
197.5 327.4390183434757
" stroke="rgb(25,106,102)" stroke-width="5" fill-opacity="0.0"></path><path d="
M 55.5 327.4390183434757 C
37.75 296.6951165091281
2.25 296.6951165091281
-15.5 327.4390183434757
" stroke="rgb(25,74,102)" stroke-width="5" fill-opacity="0.0"></path><path d="
M 55.5 327.4390183434757 C
86.24390183434757 380.6890183434757
100.51219633130486 388.9268220121708
162 388.9268220121708
" stroke="rgb(25,106,102)" stroke-width="5" fill-opacity="0.0"></path><path d="
M 233 265.95121467478054 C
171.51219633130484 265.95121467478054
157.24390183434758 274.1890183434757
126.5 327.4390183434757
" stroke="rgb(25,74,102)" stroke-width="5" fill-opacity="0.0"></path><path d="
M 233 265.95121467478054 C
294.48780366869516 265.95121467478054
308.7560981656524 274.1890183434757
339.5 327.4390183434757
" stroke="rgb(25,52,102)" stroke-width="5" fill-opacity="0.0"></path><path d="
M 197.5 327.4390183434757 C
179.75 296.6951165091281
144.25 296.6951165091281
126.5 327.4390183434757
" stroke="rgb(25,106,102)" stroke-width="5" fill-opacity="0.0"></path><path d="
M 197.5 327.4390183434757 C
215.25 358.1829201778233
197.5 388.9268220121708
162 388.9268220121708
" stroke="rgb(25,125,102)" stroke-width="5" fill-opacity="0.0"></path><path d="
M 197.5 327.4390183434757 C
228.24390183434758 380.6890183434757
242.51219633130486 388.9268220121708
304 388.9268220121708
" stroke="rgb(25,152,102)" stroke-width="5" fill-opacity="0.0"></path><path d="
M 197.5 327.4390183434757 C
228.24390183434758 380.6890183434757
228.24390183434758 397.164625680866
197.5 450.414625680866
" stroke="rgb(25,106,102)" stroke-width="5" fill-opacity="0.0"></path><path d="
M 126.5 327.4390183434757 C
108.75 358.1829201778233
126.50000000000001 388.9268220121708
162 388.9268220121708
" stroke="rgb(25,106,102)" stroke-width="5" fill-opacity="0.0"></path><path d="
M 126.5 327.4390183434757 C
95.75609816565243 380.6890183434757
95.75609816565243 397.164625680866
126.5 450.414625680866
" stroke="rgb(25,74,102)" stroke-width="5" fill-opacity="0.0"></path><path d="
M 375 265.95121467478054 C
313.51219633130484 265.95121467478054
299.2439018343476 274.1890183434757
268.5 327.4390183434757
" stroke="rgb(25,106,102)" stroke-width="5" fill-opacity="0.0"></path><path d="
M 375 265.95121467478054 C
446 265.95121467478054
446 265.95121467478054
517 265.95121467478054
" stroke="rgb(25,74,102)" stroke-width="5" fill-opacity="0.0"></path><path d="
M 375 265.95121467478054 C
410.5 265.95121467478054
428.25 296.6951165091281
410.5 327.4390183434757
" stroke="rgb(25,106,102)" stroke-width="5" fill-opacity="0.0"></path><path d="
M 268.5 327.4390183434757 C
237.75609816565242 380.6890183434757
223.48780366869514 388.9268220121708
162 388.9268220121708
" stroke="rgb(25,125,102)" stroke-width="5" fill-opacity="0.0"></path><path d="
M 268.5 327.4390183434757 C
250.75 358.1829201778233
268.5 388.9268220121708
304 388.9268220121708
" stroke="rgb(25,152,102)" stroke-width="5" fill-opacity="0.0"></path><path d="
M 268.5 327.4390183434757 C
237.75609816565242 380.6890183434757
237.75609816565242 397.164625680866
268.5 450.414625680866
" stroke="rgb(25,106,102)" stroke-width="5" fill-opacity="0.0"></path><path d="
M 410.5 327.4390183434757 C
392.75 358.1829201778233
410.5 388.9268220121708
446 388.9268220121708
" stroke="rgb(25,125,102)" stroke-width="5" fill-opacity="0.0"></path><path d="
M 410.5 327.4390183434757 C
379.7560981656524 380.6890183434757
379.7560981656524 397.164625680866
410.5 450.414625680866
" stroke="rgb(25,152,102)" stroke-width="5" fill-opacity="0.0"></path><path d="
M 162 388.9268220121708 C
233 388.9268220121708
233 388.9268220121708
304 388.9268220121708
" stroke="rgb(25,152,102)" stroke-width="5" fill-opacity="0.0"></path><path d="
M 126.5 450.414625680866 C
144.25 481.15852751521356
179.75 481.15852751521356
197.5 450.414625680866
" stroke="rgb(25,74,102)" stroke-width="5" fill-opacity="0.0"></path><path d="
M 304 388.9268220121708 C
375 388.9268220121708
375 388.9268220121708
446 388.9268220121708
" stroke="rgb(25,152,102)" stroke-width="5" fill-opacity="0.0"></path><path d="
M 304 388.9268220121708 C
365.48780366869516 388.9268220121708
379.7560981656524 397.164625680866
410.5 450.414625680866
" stroke="rgb(25,179,102)" stroke-width="5" fill-opacity="0.0"></path><path d="
M 304 388.9268220121708 C
339.5 388.9268220121708
357.25 419.6707238465184
339.5 450.414625680866
" stroke="rgb(25,217,102)" stroke-width="5" fill-opacity="0.0"></path><path d="
M 268.5 450.414625680866 C
250.75 419.6707238465184
215.25 419.6707238465184
197.5 450.414625680866
" stroke="rgb(25,87,102)" stroke-width="5" fill-opacity="0.0"></path><path d="
M 410.5 450.414625680866 C
392.75 419.6707238465184
357.25 419.6707238465184
339.5 450.414625680866
" stroke="rgb(25,217,102)" stroke-width="5" fill-opacity="0.0"></path><line x1="94" y1="20" x2="88" y2="20" stroke="rgb(90,0,30)" stroke-width="2"></line><line x1="57" y1="84.08587988004845" x2="54" y2="78.88972745734182" stroke="rgb(129,0,43)" stroke-width="2"></line><line x1="-17" y1="84.08587988004845" x2="-14" y2="78.88972745734182" stroke="rgb(90,0,30)" stroke-width="2"></line><line x1="236" y1="20" x2="230" y2="20" stroke="rgb(90,0,30)" stroke-width="2"></line><line x1="199" y1="84.08587988004845" x2="196" y2="78.88972745734182" stroke="rgb(129,0,43)" stroke-width="2"></line><line x1="125" y1="84.08587988004845" x2="128" y2="78.88972745734182" stroke="rgb(129,0,43)" stroke-width="2"></line><line x1="378" y1="20" x2="372" y2="20" stroke="rgb(90,0,30)" stroke-width="2"></line><line x1="341" y1="84.08587988004845" x2="338" y2="78.88972745734182" stroke="rgb(129,0,43)" stroke-width="2"></line><line x1="267" y1="84.08587988004845" x2="270" y2="78.88972745734182" stroke="rgb(90,0,30)" stroke-width="2"></line><line x1="520" y1="20" x2="514" y2="20" stroke="rgb(90,0,30)" stroke-width="2"></line><line x1="483" y1="84.08587988004845" x2="480" y2="78.88972745734182" stroke="rgb(129,0,43)" stroke-width="2"></line><line x1="409" y1="84.08587988004845" x2="412" y2="78.88972745734182" stroke="rgb(129,0,43)" stroke-width="2"></line><line x1="165" y1="142.97560733739027" x2="159" y2="142.97560733739027" stroke="rgb(129,0,43)" stroke-width="2"></line><line x1="128" y1="207.06148721743872" x2="125" y2="201.8653347947321" stroke="rgb(184,0,61)" stroke-width="2"></line><line x1="54" y1="207.06148721743872" x2="57" y2="201.8653347947321" stroke="rgb(184,0,61)" stroke-width="2"></line><line x1="307" y1="142.97560733739027" x2="301" y2="142.97560733739027" stroke="rgb(184,0,61)" stroke-width="2"></line><line x1="270" y1="207.06148721743872" x2="267" y2="201.8653347947321" stroke="rgb(184,0,61)" stroke-width="2"></line><line x1="196" y1="207.06148721743872" x2="199" y2="201.8653347947321" stroke="rgb(255,0,87)" stroke-width="2"></line><line x1="449" y1="142.97560733739027" x2="443" y2="142.97560733739027" stroke="rgb(184,0,61)" stroke-width="2"></line><line x1="412" y1="207.06148721743872" x2="409" y2="201.8653347947321" stroke="rgb(255,0,87)" stroke-width="2"></line><line x1="338" y1="207.06148721743872" x2="341" y2="201.8653347947321" stroke="rgb(184,0,61)" stroke-width="2"></line><line x1="94" y1="265.95121467478054" x2="88" y2="265.95121467478054" stroke="rgb(255,0,87)" stroke-width="2"></line><line x1="57" y1="330.037094554829" x2="54" y2="324.8409421321224" stroke="rgb(255,0,87)" stroke-width="2"></line><line x1="-17" y1="330.037094554829" x2="-14" y2="324.8409421321224" stroke="rgb(184,0,61)" stroke-width="2"></line><line x1="236" y1="265.95121467478054" x2="230" y2="265.95121467478054" stroke="rgb(184,0,61)" stroke-width="2"></line><line x1="199" y1="330.037094554829" x2="196" y2="324.8409421321224" stroke="rgb(255,0,125)" stroke-width="2"></line><line x1="125" y1="330.037094554829" x2="128" y2="324.8409421321224" stroke="rgb(255,0,87)" stroke-width="2"></line><line x1="378" y1="265.95121467478054" x2="372" y2="265.95121467478054" stroke="rgb(255,0,87)" stroke-width="2"></line><line x1="341" y1="330.037094554829" x2="338" y2="324.8409421321224" stroke="rgb(129,0,43)" stroke-width="2"></line><line x1="267" y1="330.037094554829" x2="270" y2="324.8409421321224" stroke="rgb(255,0,125)" stroke-width="2"></line><line x1="520" y1="265.95121467478054" x2="514" y2="265.95121467478054" stroke="rgb(184,0,61)" stroke-width="2"></line><line x1="483" y1="330.037094554829" x2="480" y2="324.8409421321224" stroke="rgb(184,0,61)" stroke-width="2"></line><line x1="409" y1="330.037094554829" x2="412" y2="324.8409421321224" stroke="rgb(255,0,125)" stroke-width="2"></line><line x1="165" y1="388.9268220121708" x2="159" y2="388.9268220121708" stroke="rgb(255,0,125)" stroke-width="2"></line><line x1="128" y1="453.0127018922193" x2="125" y2="447.81654946951267" stroke="rgb(184,0,61)" stroke-width="2"></line><line x1="54" y1="453.0127018922193" x2="57" y2="447.81654946951267" stroke="#040" stroke-width="5" stroke-opacity="0.0"></line><line x1="307" y1="388.9268220121708" x2="301" y2="388.9268220121708" stroke="rgb(255,0,179)" stroke-width="2"></line><line x1="270" y1="453.0127018922193" x2="267" y2="447.81654946951267" stroke="rgb(255,0,87)" stroke-width="2"></line><line x1="196" y1="453.0127018922193" x2="199" y2="447.81654946951267" stroke="rgb(255,0,87)" stroke-width="2"></line><line x1="449" y1="388.9268220121708" x2="443" y2="388.9268220121708" stroke="rgb(255,0,125)" stroke-width="2"></line><line x1="412" y1="453.0127018922193" x2="409" y2="447.81654946951267" stroke="rgb(255,0,179)" stroke-width="2"></line><line x1="338" y1="453.0127018922193" x2="341" y2="447.81654946951267" stroke="rgb(255,0,255)" stroke-width="2"></line></svg>
