<svg xmlns="http://www.w3.org/2000/svg" version="1.1"><path d="
M 80 20 C
50 20
35 45.98076211353316
50 71.96152422706632
" stroke="#000" stroke-width="5" fill-opacity="0.0"></path><path d="
M 80 20 C
131.96152422706632 20
144.01923788646684 26.96152422706632
170 71.96152422706632
" stroke="#000" stroke-width="5" fill-opacity="0.0"></path><path d="
M 80 20 C
110 20
125 45.98076211353316
110 71.96152422706632
" stroke="#000" stroke-width="5" fill-opacity="0.0"></path><path d="
M 50 71.96152422706632 C
35 45.98076211353316
5 45.98076211353316
-10 71.96152422706632
" stroke="#000" stroke-width="5" fill-opacity="0.0"></path><path d="
M 50 71.96152422706632 C
75.98076211353316 116.9615242270663
75.98076211353316 130.88457268119896
50 175.88457268119893
" stroke="#000" stroke-width="5" fill-opacity="0.0"></path><path d="
M 200 20 C
251.96152422706632 20
264.01923788646684 26.96152422706632
290 71.96152422706632
" stroke="#000" stroke-width="5" fill-opacity="0.0"></path><path d="
M 170 71.96152422706632 C
155 45.98076211353316
125 45.98076211353316
110 71.96152422706632
" stroke="#000" stroke-width="5" fill-opacity="0.0"></path><path d="
M 170 71.96152422706632 C
185 97.94228634059948
170 123.92304845413263
140 123.92304845413263
" stroke="#000" stroke-width="5" fill-opacity="0.0"></path><path d="
M 170 71.96152422706632 C
195.98076211353316 116.96152422706632
208.03847577293368 123.92304845413263
260 123.92304845413263
" stroke="#000" stroke-width="5" fill-opacity="0.0"></path><path d="
M 170 71.96152422706632 C
200 123.92304845413263
200 123.92304845413263
230 175.88457268119893
" stroke="#000" stroke-width="5" fill-opacity="0.0"></path><path d="
M 170 71.96152422706632 C
195.98076211353316 116.9615242270663
195.98076211353316 130.88457268119896
170 175.88457268119893
" stroke="#000" stroke-width="5" fill-opacity="0.0"></path><path d="
M 110 71.96152422706632 C
84.01923788646684 116.9615242270663
84.01923788646684 130.88457268119896
110 175.88457268119893
" stroke="#000" stroke-width="5" fill-opacity="0.0"></path><path d="
M 110 71.96152422706632 C
80 123.92304845413263
80 123.92304845413263
50 175.88457268119893
" stroke="#000" stroke-width="5" fill-opacity="0.0"></path><path d="
M 320 20 C
371.9615242270663 20
384.01923788646684 26.96152422706632
410 71.96152422706632
" stroke="#000" stroke-width="5" fill-opacity="0.0"></path><path d="
M 290 71.96152422706632 C
275 45.98076211353316
245 45.98076211353316
230 71.96152422706632
" stroke="#000" stroke-width="5" fill-opacity="0.0"></path><path d="
M 290 71.96152422706632 C
305 97.94228634059948
335 97.94228634059948
350 71.96152422706632
" stroke="#000" stroke-width="5" fill-opacity="0.0"></path><path d="
M 290 71.96152422706632 C
315.98076211353316 116.96152422706632
328.0384757729337 123.92304845413263
380 123.92304845413263
" stroke="#000" stroke-width="5" fill-opacity="0.0"></path><path d="
M 290 71.96152422706632 C
320 123.92304845413263
320 123.92304845413263
350 175.88457268119893
" stroke="#000" stroke-width="5" fill-opacity="0.0"></path><path d="
M 230 71.96152422706632 C
200 123.92304845413263
200 123.92304845413263
170 175.88457268119893
" stroke="#000" stroke-width="5" fill-opacity="0.0"></path><path d="
M 440 20 C
410 20
395 45.98076211353316
410 71.96152422706632
" stroke="#000" stroke-width="5" fill-opacity="0.0"></path><path d="
M 410 71.96152422706632 C
425 97.94228634059948
410 123.92304845413263
380 123.92304845413263
" stroke="#000" stroke-width="5" fill-opacity="0.0"></path><path d="
M 350 71.96152422706632 C
324.01923788646684 116.96152422706632
311.9615242270663 123.92304845413263
260 123.92304845413263
" stroke="#000" stroke-width="5" fill-opacity="0.0"></path><path d="
M 350 71.96152422706632 C
324.01923788646684 116.9615242270663
324.01923788646684 130.88457268119896
350 175.88457268119893
" stroke="#000" stroke-width="5" fill-opacity="0.0"></path><path d="
M 140 123.92304845413263 C
191.96152422706632 123.92304845413263
204.01923788646684 130.88457268119893
230 175.88457268119893
" stroke="#000" stroke-width="5" fill-opacity="0.0"></path><path d="
M 140 123.92304845413263 C
170 123.92304845413263
185 149.90381056766577
170 175.88457268119893
" stroke="#000" stroke-width="5" fill-opacity="0.0"></path><path d="
M 110 175.88457268119893 C
95 149.90381056766577
65 149.90381056766577
50 175.88457268119893
" stroke="#000" stroke-width="5" fill-opacity="0.0"></path><path d="
M 50 175.88457268119893 C
35 201.8653347947321
50 227.84609690826525
80 227.84609690826525
" stroke="#000" stroke-width="5" fill-opacity="0.0"></path><path d="
M 50 175.88457268119893 C
24.019237886466847 220.8845726811989
24.019237886466847 234.80762113533154
50 279.80762113533154
" stroke="#000" stroke-width="5" fill-opacity="0.0"></path><path d="
M 260 123.92304845413263 C
208.03847577293368 123.92304845413263
195.98076211353316 130.88457268119893
170 175.88457268119893
" stroke="#000" stroke-width="5" fill-opacity="0.0"></path><path d="
M 260 123.92304845413263 C
290 123.92304845413263
305 149.90381056766577
290 175.88457268119893
" stroke="#000" stroke-width="5" fill-opacity="0.0"></path><path d="
M 230 175.88457268119893 C
245 201.8653347947321
230 227.84609690826525
200 227.84609690826525
" stroke="#000" stroke-width="5" fill-opacity="0.0"></path><path d="
M 230 175.88457268119893 C
260 227.84609690826522
260 227.84609690826522
290 279.80762113533154
" stroke="#000" stroke-width="5" fill-opacity="0.0"></path><path d="
M 230 175.88457268119893 C
255.98076211353316 220.8845726811989
255.98076211353316 234.80762113533154
230 279.80762113533154
" stroke="#000" stroke-width="5" fill-opacity="0.0"></path><path d="
M 170 175.88457268119893 C
144.01923788646684 220.88457268119893
131.96152422706632 227.84609690826525
80 227.84609690826525
" stroke="#000" stroke-width="5" fill-opacity="0.0"></path><path d="
M 170 175.88457268119893 C
144.01923788646684 220.8845726811989
144.01923788646684 234.80762113533154
170 279.80762113533154
" stroke="#000" stroke-width="5" fill-opacity="0.0"></path><path d="
M 170 175.88457268119893 C
140 227.84609690826522
140 227.84609690826522
110 279.80762113533154
" stroke="#000" stroke-width="5" fill-opacity="0.0"></path><path d="
M 380 123.92304845413263 C
350 123.92304845413263
335 149.90381056766577
350 175.88457268119893
" stroke="#000" stroke-width="5" fill-opacity="0.0"></path><path d="
M 380 123.92304845413263 C
328.0384757729337 123.92304845413263
315.98076211353316 130.88457268119893
290 175.88457268119893
" stroke="#000" stroke-width="5" fill-opacity="0.0"></path><path d="
M 380 123.92304845413263 C
431.9615242270663 123.92304845413263
444.01923788646684 130.88457268119893
470 175.88457268119893
" stroke="#000" stroke-width="5" fill-opacity="0.0"></path><path d="
M 380 123.92304845413263 C
410 123.92304845413263
425 149.90381056766577
410 175.88457268119893
" stroke="#000" stroke-width="5" fill-opacity="0.0"></path><path d="
M 350 175.88457268119893 C
335 149.90381056766577
305 149.90381056766577
290 175.88457268119893
" stroke="#000" stroke-width="5" fill-opacity="0.0"></path><path d="
M 350 175.88457268119893 C
365 201.8653347947321
350 227.84609690826525
320 227.84609690826525
" stroke="#000" stroke-width="5" fill-opacity="0.0"></path><path d="
M 290 175.88457268119893 C
264.01923788646684 220.8845726811989
264.01923788646684 234.80762113533154
290 279.80762113533154
" stroke="#000" stroke-width="5" fill-opacity="0.0"></path><path d="
M 500 123.92304845413263 C
448.0384757729337 123.92304845413263
435.98076211353316 130.88457268119893
410 175.88457268119893
" stroke="#000" stroke-width="5" fill-opacity="0.0"></path><path d="
M 470 175.88457268119893 C
485 201.8653347947321
470 227.84609690826525
440 227.84609690826525
" stroke="#000" stroke-width="5" fill-opacity="0.0"></path><path d="
M 410 175.88457268119893 C
384.01923788646684 220.88457268119893
371.9615242270663 227.84609690826525
320 227.84609690826525
" stroke="#000" stroke-width="5" fill-opacity="0.0"></path><path d="
M 410 175.88457268119893 C
384.01923788646684 220.8845726811989
384.01923788646684 234.80762113533154
410 279.80762113533154
" stroke="#000" stroke-width="5" fill-opacity="0.0"></path><path d="
M 80 227.84609690826525 C
50.000000000000014 227.84609690826525
35.00000000000001 253.82685902179838
50 279.80762113533154
" stroke="#000" stroke-width="5" fill-opacity="0.0"></path><path d="
M 80 227.84609690826525 C
28.038475772933687 227.84609690826525
15.980762113533157 234.80762113533154
-10 279.80762113533154
" stroke="#000" stroke-width="5" fill-opacity="0.0"></path><path d="
M 80 227.84609690826525 C
140 227.84609690826525
140 227.84609690826525
200 227.84609690826525
" stroke="#000" stroke-width="5" fill-opacity="0.0"></path><path d="
M 80 227.84609690826525 C
131.96152422706632 227.84609690826525
144.01923788646684 234.80762113533154
170 279.80762113533154
" stroke="#000" stroke-width="5" fill-opacity="0.0"></path><path d="
M 80 227.84609690826525 C
109.99999999999999 227.84609690826525
125 253.82685902179838
110 279.80762113533154
" stroke="#000" stroke-width="5" fill-opacity="0.0"></path><path d="
M 50 279.80762113533154 C
65 305.7883832488647
95 305.7883832488647
110 279.80762113533154
" stroke="#000" stroke-width="5" fill-opacity="0.0"></path><path d="
M 50 279.80762113533154 C
75.98076211353316 324.80762113533154
88.03847577293368 331.76914536239786
140 331.76914536239786
" stroke="#000" stroke-width="5" fill-opacity="0.0"></path><path d="
M 200 227.84609690826525 C
148.03847577293368 227.84609690826525
135.98076211353316 234.80762113533154
110 279.80762113533154
" stroke="#000" stroke-width="5" fill-opacity="0.0"></path><path d="
M 200 227.84609690826525 C
260 227.84609690826525
260 227.84609690826525
320 227.84609690826525
" stroke="#000" stroke-width="5" fill-opacity="0.0"></path><path d="
M 200 227.84609690826525 C
251.96152422706632 227.84609690826525
264.01923788646684 234.80762113533154
290 279.80762113533154
" stroke="#000" stroke-width="5" fill-opacity="0.0"></path><path d="
M 200 227.84609690826525 C
230 227.84609690826525
245 253.82685902179838
230 279.80762113533154
" stroke="#000" stroke-width="5" fill-opacity="0.0"></path><path d="
M 170 279.80762113533154 C
185 305.7883832488647
215 305.7883832488647
230 279.80762113533154
" stroke="#000" stroke-width="5" fill-opacity="0.0"></path><path d="
M 170 279.80762113533154 C
200 331.76914536239786
200 331.76914536239786
230 383.7306695894642
" stroke="#000" stroke-width="5" fill-opacity="0.0"></path><path d="
M 110 279.80762113533154 C
95 305.7883832488647
110 331.76914536239786
140 331.76914536239786
" stroke="#000" stroke-width="5" fill-opacity="0.0"></path><path d="
M 110 279.80762113533154 C
80 331.76914536239786
80 331.76914536239786
50 383.7306695894642
" stroke="#000" stroke-width="5" fill-opacity="0.0"></path><path d="
M 320 227.84609690826525 C
290 227.84609690826525
275 253.82685902179838
290 279.80762113533154
" stroke="#000" stroke-width="5" fill-opacity="0.0"></path><path d="
M 320 227.84609690826525 C
380 227.84609690826525
380 227.84609690826525
440 227.84609690826525
" stroke="#000" stroke-width="5" fill-opacity="0.0"></path><path d="
M 290 279.80762113533154 C
305 305.7883832488647
335 305.7883832488647
350 279.80762113533154
" stroke="#000" stroke-width="5" fill-opacity="0.0"></path><path d="
M 290 279.80762113533154 C
305 305.7883832488647
290 331.76914536239786
260 331.76914536239786
" stroke="#000" stroke-width="5" fill-opacity="0.0"></path><path d="
M 290 279.80762113533154 C
315.98076211353316 324.80762113533154
328.0384757729337 331.76914536239786
380 331.76914536239786
" stroke="#000" stroke-width="5" fill-opacity="0.0"></path><path d="
M 290 279.80762113533154 C
315.98076211353316 324.80762113533154
315.98076211353316 338.7306695894642
290 383.7306695894642
" stroke="#000" stroke-width="5" fill-opacity="0.0"></path><path d="
M 230 279.80762113533154 C
215 305.7883832488647
230 331.76914536239786
260 331.76914536239786
" stroke="#000" stroke-width="5" fill-opacity="0.0"></path><path d="
M 230 279.80762113533154 C
204.01923788646684 324.80762113533154
204.01923788646684 338.7306695894642
230 383.7306695894642
" stroke="#000" stroke-width="5" fill-opacity="0.0"></path><path d="
M 440 227.84609690826525 C
410 227.84609690826525
395 253.82685902179838
410 279.80762113533154
" stroke="#000" stroke-width="5" fill-opacity="0.0"></path><path d="
M 410 279.80762113533154 C
395 253.82685902179838
365 253.82685902179838
350 279.80762113533154
" stroke="#000" stroke-width="5" fill-opacity="0.0"></path><path d="
M 410 279.80762113533154 C
440 331.76914536239786
440 331.76914536239786
470 383.7306695894642
" stroke="#000" stroke-width="5" fill-opacity="0.0"></path><path d="
M 410 279.80762113533154 C
435.98076211353316 324.80762113533154
435.98076211353316 338.7306695894642
410 383.7306695894642
" stroke="#000" stroke-width="5" fill-opacity="0.0"></path><path d="
M 350 279.80762113533154 C
324.01923788646684 324.80762113533154
311.9615242270663 331.76914536239786
260 331.76914536239786
" stroke="#000" stroke-width="5" fill-opacity="0.0"></path><path d="
M 350 279.80762113533154 C
335 305.7883832488647
350 331.76914536239786
380 331.76914536239786
" stroke="#000" stroke-width="5" fill-opacity="0.0"></path><path d="
M 350 279.80762113533154 C
324.01923788646684 324.80762113533154
324.01923788646684 338.7306695894642
350 383.7306695894642
" stroke="#000" stroke-width="5" fill-opacity="0.0"></path><path d="
M 350 279.80762113533154 C
320 331.76914536239786
320 331.76914536239786
290 383.7306695894642
" stroke="#000" stroke-width="5" fill-opacity="0.0"></path><path d="
M 140 331.76914536239786 C
88.03847577293368 331.76914536239786
75.98076211353316 338.7306695894642
50 383.7306695894642
" stroke="#000" stroke-width="5" fill-opacity="0.0"></path><path d="
M 140 331.76914536239786 C
200 331.76914536239786
200 331.76914536239786
260 331.76914536239786
" stroke="#000" stroke-width="5" fill-opacity="0.0"></path><path d="
M 110 383.7306695894642 C
125 409.71143170299734
155 409.71143170299734
170 383.7306695894642
" stroke="#000" stroke-width="5" fill-opacity="0.0"></path><path d="
M 110 383.7306695894642 C
135.98076211353316 428.7306695894642
135.98076211353316 442.6537180435968
110 487.6537180435968
" stroke="#000" stroke-width="5" fill-opacity="0.0"></path><path d="
M 50 383.7306695894642 C
24.01923788646684 428.7306695894642
24.01923788646684 442.6537180435968
50 487.6537180435968
" stroke="#000" stroke-width="5" fill-opacity="0.0"></path><path d="
M 260 331.76914536239786 C
230 331.76914536239786
215 357.749907475931
230 383.7306695894642
" stroke="#000" stroke-width="5" fill-opacity="0.0"></path><path d="
M 260 331.76914536239786 C
208.03847577293368 331.76914536239786
195.98076211353316 338.7306695894642
170 383.7306695894642
" stroke="#000" stroke-width="5" fill-opacity="0.0"></path><path d="
M 260 331.76914536239786 C
320 331.76914536239786
320 331.76914536239786
380 331.76914536239786
" stroke="#000" stroke-width="5" fill-opacity="0.0"></path><path d="
M 260 331.76914536239786 C
311.9615242270663 331.76914536239786
324.01923788646684 338.7306695894642
350 383.7306695894642
" stroke="#000" stroke-width="5" fill-opacity="0.0"></path><path d="
M 260 331.76914536239786 C
290 331.76914536239786
305 357.749907475931
290 383.7306695894642
" stroke="#000" stroke-width="5" fill-opacity="0.0"></path><path d="
M 230 383.7306695894642 C
245 409.71143170299734
275 409.71143170299734
290 383.7306695894642
" stroke="#000" stroke-width="5" fill-opacity="0.0"></path><path d="
M 230 383.7306695894642 C
255.98076211353316 428.7306695894642
268.0384757729337 435.6921938165305
320 435.6921938165305
" stroke="#000" stroke-width="5" fill-opacity="0.0"></path><path d="
M 230 383.7306695894642 C
260 435.6921938165305
260 435.6921938165305
290 487.6537180435968
" stroke="#000" stroke-width="5" fill-opacity="0.0"></path><path d="
M 230 383.7306695894642 C
255.98076211353316 428.7306695894642
255.98076211353316 442.6537180435968
230 487.6537180435968
" stroke="#000" stroke-width="5" fill-opacity="0.0"></path><path d="
M 170 383.7306695894642 C
140 435.6921938165305
140 435.6921938165305
110 487.6537180435968
" stroke="#000" stroke-width="5" fill-opacity="0.0"></path><path d="
M 380 331.76914536239786 C
350 331.76914536239786
335 357.749907475931
350 383.7306695894642
" stroke="#000" stroke-width="5" fill-opacity="0.0"></path><path d="
M 380 331.76914536239786 C
440 331.76914536239786
440 331.76914536239786
500 331.76914536239786
" stroke="#000" stroke-width="5" fill-opacity="0.0"></path><path d="
M 380 331.76914536239786 C
431.9615242270663 331.76914536239786
444.01923788646684 338.7306695894642
470 383.7306695894642
" stroke="#000" stroke-width="5" fill-opacity="0.0"></path><path d="
M 380 331.76914536239786 C
410 331.76914536239786
425 357.749907475931
410 383.7306695894642
" stroke="#000" stroke-width="5" fill-opacity="0.0"></path><path d="
M 350 383.7306695894642 C
335 357.749907475931
305 357.749907475931
290 383.7306695894642
" stroke="#000" stroke-width="5" fill-opacity="0.0"></path><path d="
M 350 383.7306695894642 C
365 409.71143170299734
395 409.71143170299734
410 383.7306695894642
" stroke="#000" stroke-width="5" fill-opacity="0.0"></path><path d="
M 350 383.7306695894642 C
380 435.6921938165305
380 435.6921938165305
410 487.6537180435968
" stroke="#000" stroke-width="5" fill-opacity="0.0"></path><path d="
M 350 383.7306695894642 C
375.98076211353316 428.7306695894642
375.98076211353316 442.6537180435968
350 487.6537180435968
" stroke="#000" stroke-width="5" fill-opacity="0.0"></path><path d="
M 290 383.7306695894642 C
275 409.71143170299734
290 435.6921938165305
320 435.6921938165305
" stroke="#000" stroke-width="5" fill-opacity="0.0"></path><path d="
M 290 383.7306695894642 C
264.01923788646684 428.7306695894642
264.01923788646684 442.6537180435968
290 487.6537180435968
" stroke="#000" stroke-width="5" fill-opacity="0.0"></path><path d="
M 290 383.7306695894642 C
260 435.6921938165305
260 435.6921938165305
230 487.6537180435968
" stroke="#000" stroke-width="5" fill-opacity="0.0"></path><path d="
M 500 331.76914536239786 C
470 331.76914536239786
455 357.749907475931
470 383.7306695894642
" stroke="#000" stroke-width="5" fill-opacity="0.0"></path><path d="
M 410 383.7306695894642 C
384.01923788646684 428.7306695894642
371.9615242270663 435.6921938165305
320 435.6921938165305
" stroke="#000" stroke-width="5" fill-opacity="0.0"></path><path d="
M 80 435.6921938165305 C
110 435.6921938165305
125 461.67295593006367
110 487.6537180435968
" stroke="#000" stroke-width="5" fill-opacity="0.0"></path><path d="
M 50 487.6537180435968 C
35 461.67295593006367
5 461.67295593006367
-10 487.6537180435968
" stroke="#000" stroke-width="5" fill-opacity="0.0"></path><path d="
M 50 487.6537180435968 C
65 513.6344801571299
95 513.6344801571299
110 487.6537180435968
" stroke="#000" stroke-width="5" fill-opacity="0.0"></path><path d="
M 200 435.6921938165305 C
230 435.6921938165305
245 461.67295593006367
230 487.6537180435968
" stroke="#000" stroke-width="5" fill-opacity="0.0"></path><path d="
M 170 487.6537180435968 C
155 461.67295593006367
125 461.67295593006367
110 487.6537180435968
" stroke="#000" stroke-width="5" fill-opacity="0.0"></path><path d="
M 320 435.6921938165305 C
290 435.6921938165305
275 461.67295593006367
290 487.6537180435968
" stroke="#000" stroke-width="5" fill-opacity="0.0"></path><path d="
M 290 487.6537180435968 C
275 461.67295593006367
245 461.67295593006367
230 487.6537180435968
" stroke="#000" stroke-width="5" fill-opacity="0.0"></path><path d="
M 290 487.6537180435968 C
305 513.6344801571299
335 513.6344801571299
350 487.6537180435968
" stroke="#000" stroke-width="5" fill-opacity="0.0"></path><path d="
M 440 435.6921938165305 C
388.0384757729337 435.6921938165305
375.98076211353316 442.6537180435968
350 487.6537180435968
" stroke="#000" stroke-width="5" fill-opacity="0.0"></path><line x1="83" y1="20" x2="77" y2="20" stroke="#808" stroke-width="2"></line><line x1="51.5" y1="74.55960043841964" x2="48.5" y2="69.363448015713" stroke="#808" stroke-width="2"></line><line x1="-11.5" y1="74.55960043841964" x2="-8.5" y2="69.363448015713" stroke="#808" stroke-width="2"></line><line x1="203" y1="20" x2="197" y2="20" stroke="#808" stroke-width="2"></line><line x1="171.5" y1="74.55960043841964" x2="168.5" y2="69.363448015713" stroke="#808" stroke-width="2"></line><line x1="108.5" y1="74.55960043841964" x2="111.5" y2="69.363448015713" stroke="#808" stroke-width="2"></line><line x1="323" y1="20" x2="317" y2="20" stroke="#808" stroke-width="2"></line><line x1="291.5" y1="74.55960043841964" x2="288.5" y2="69.363448015713" stroke="#808" stroke-width="2"></line><line x1="228.5" y1="74.55960043841964" x2="231.5" y2="69.363448015713" stroke="#808" stroke-width="2"></line><line x1="443" y1="20" x2="437" y2="20" stroke="#808" stroke-width="2"></line><line x1="411.5" y1="74.55960043841964" x2="408.5" y2="69.363448015713" stroke="#808" stroke-width="2"></line><line x1="348.5" y1="74.55960043841964" x2="351.5" y2="69.363448015713" stroke="#808" stroke-width="2"></line><line x1="143" y1="123.92304845413263" x2="137" y2="123.92304845413263" stroke="#808" stroke-width="2"></line><line x1="111.5" y1="178.48264889255225" x2="108.5" y2="173.28649646984562" stroke="#808" stroke-width="2"></line><line x1="48.5" y1="178.48264889255225" x2="51.5" y2="173.28649646984562" stroke="#808" stroke-width="2"></line><line x1="263" y1="123.92304845413263" x2="257" y2="123.92304845413263" stroke="#808" stroke-width="2"></line><line x1="231.5" y1="178.48264889255225" x2="228.5" y2="173.28649646984562" stroke="#808" stroke-width="2"></line><line x1="168.5" y1="178.48264889255225" x2="171.5" y2="173.28649646984562" stroke="#808" stroke-width="2"></line><line x1="383" y1="123.92304845413263" x2="377" y2="123.92304845413263" stroke="#808" stroke-width="2"></line><line x1="351.5" y1="178.48264889255225" x2="348.5" y2="173.28649646984562" stroke="#808" stroke-width="2"></line><line x1="288.5" y1="178.48264889255225" x2="291.5" y2="173.28649646984562" stroke="#808" stroke-width="2"></line><line x1="503" y1="123.92304845413263" x2="497" y2="123.92304845413263" stroke="#808" stroke-width="2"></line><line x1="471.5" y1="178.48264889255225" x2="468.5" y2="173.28649646984562" stroke="#808" stroke-width="2"></line><line x1="408.5" y1="178.48264889255225" x2="411.5" y2="173.28649646984562" stroke="#808" stroke-width="2"></line><line x1="83" y1="227.84609690826525" x2="77" y2="227.84609690826525" stroke="#808" stroke-width="2"></line><line x1="51.5" y1="282.40569734668486" x2="48.5" y2="277.2095449239782" stroke="#808" stroke-width="2"></line><line x1="-11.5" y1="282.40569734668486" x2="-8.5" y2="277.2095449239782" stroke="#808" stroke-width="2"></line><line x1="203" y1="227.84609690826525" x2="197" y2="227.84609690826525" stroke="#808" stroke-width="2"></line><line x1="171.5" y1="282.40569734668486" x2="168.5" y2="277.2095449239782" stroke="#808" stroke-width="2"></line><line x1="108.5" y1="282.40569734668486" x2="111.5" y2="277.2095449239782" stroke="#808" stroke-width="2"></line><line x1="323" y1="227.84609690826525" x2="317" y2="227.84609690826525" stroke="#808" stroke-width="2"></line><line x1="291.5" y1="282.40569734668486" x2="288.5" y2="277.2095449239782" stroke="#808" stroke-width="2"></line><line x1="228.5" y1="282.40569734668486" x2="231.5" y2="277.2095449239782" stroke="#808" stroke-width="2"></line><line x1="443" y1="227.84609690826525" x2="437" y2="227.84609690826525" stroke="#808" stroke-width="2"></line><line x1="411.5" y1="282.40569734668486" x2="408.5" y2="277.2095449239782" stroke="#808" stroke-width="2"></line><line x1="348.5" y1="282.40569734668486" x2="351.5" y2="277.2095449239782" stroke="#808" stroke-width="2"></line><line x1="143" y1="331.76914536239786" x2="137" y2="331.76914536239786" stroke="#808" stroke-width="2"></line><line x1="111.5" y1="386.3287458008175" x2="108.5" y2="381.13259337811087" stroke="#808" stroke-width="2"></line><line x1="48.5" y1="386.3287458008175" x2="51.5" y2="381.13259337811087" stroke="#808" stroke-width="2"></line><line x1="263" y1="331.76914536239786" x2="257" y2="331.76914536239786" stroke="#808" stroke-width="2"></line><line x1="231.5" y1="386.3287458008175" x2="228.5" y2="381.13259337811087" stroke="#808" stroke-width="2"></line><line x1="168.5" y1="386.3287458008175" x2="171.5" y2="381.13259337811087" stroke="#808" stroke-width="2"></line><line x1="383" y1="331.76914536239786" x2="377" y2="331.76914536239786" stroke="#808" stroke-width="2"></line><line x1="351.5" y1="386.3287458008175" x2="348.5" y2="381.13259337811087" stroke="#808" stroke-width="2"></line><line x1="288.5" y1="386.3287458008175" x2="291.5" y2="381.13259337811087" stroke="#808" stroke-width="2"></line><line x1="503" y1="331.76914536239786" x2="497" y2="331.76914536239786" stroke="#808" stroke-width="2"></line><line x1="471.5" y1="386.3287458008175" x2="468.5" y2="381.13259337811087" stroke="#808" stroke-width="2"></line><line x1="408.5" y1="386.3287458008175" x2="411.5" y2="381.13259337811087" stroke="#808" stroke-width="2"></line><line x1="83" y1="435.6921938165305" x2="77" y2="435.6921938165305" stroke="#808" stroke-width="2"></line><line x1="51.5" y1="490.25179425495014" x2="48.5" y2="485.0556418322435" stroke="#808" stroke-width="2"></line><line x1="-11.5" y1="490.25179425495014" x2="-8.5" y2="485.0556418322435" stroke="#808" stroke-width="2"></line><line x1="203" y1="435.6921938165305" x2="197" y2="435.6921938165305" stroke="#808" stroke-width="2"></line><line x1="171.5" y1="490.25179425495014" x2="168.5" y2="485.0556418322435" stroke="#808" stroke-width="2"></line><line x1="108.5" y1="490.25179425495014" x2="111.5" y2="485.0556418322435" stroke="#808" stroke-width="2"></line><line x1="323" y1="435.6921938165305" x2="317" y2="435.6921938165305" stroke="#808" stroke-width="2"></line><line x1="291.5" y1="490.25179425495014" x2="288.5" y2="485.0556418322435" stroke="#808" stroke-width="2"></line><line x1="228.5" y1="490.25179425495014" x2="231.5" y2="485.0556418322435" stroke="#808" stroke-width="2"></line><line x1="443" y1="435.6921938165305" x2="437" y2="435.6921938165305" stroke="#808" stroke-width="2"></line><line x1="411.5" y1="490.25179425495014" x2="408.5" y2="485.0556418322435" stroke="#808" stroke-width="2"></line><line x1="348.5" y1="490.25179425495014" x2="351.5" y2="485.0556418322435" stroke="#808" stroke-width="2"></line></svg>
