<svg xmlns="http://www.w3.org/2000/svg" version="1.1"><path d="
M 74 20 C
27.234628195640312 20
16.382685902179844 26.265371804359688
-7 66.76537180435969
" stroke="#000" stroke-width="5" fill-opacity="0.0"></path><path d="
M 74 20 C
128 20
128 20
182 20
" stroke="#000" stroke-width="5" fill-opacity="0.0"></path><path d="
M 74 20 C
120.76537180435969 20
131.61731409782016 26.265371804359688
155 66.76537180435969
" stroke="#000" stroke-width="5" fill-opacity="0.0"></path><path d="
M 74 20 C
101 20
114.5 43.382685902179844
101 66.76537180435969
" stroke="#000" stroke-width="5" fill-opacity="0.0"></path><path d="
M 47 66.76537180435969 C
60.5 90.14805770653953
87.5 90.14805770653953
101 66.76537180435969
" stroke="#000" stroke-width="5" fill-opacity="0.0"></path><path d="
M 47 66.76537180435969 C
70.38268590217984 107.26537180435969
81.23462819564031 113.53074360871936
128 113.53074360871936
" stroke="#000" stroke-width="5" fill-opacity="0.0"></path><path d="
M 47 66.76537180435969 C
74 113.53074360871936
74 113.53074360871936
101 160.29611541307904
" stroke="#000" stroke-width="5" fill-opacity="0.0"></path><path d="
M 47 66.76537180435969 C
70.38268590217984 107.26537180435967
70.38268590217984 119.79611541307905
47 160.29611541307904
" stroke="#000" stroke-width="5" fill-opacity="0.0"></path><path d="
M 182 20 C
135.2346281956403 20
124.38268590217984 26.265371804359688
101 66.76537180435969
" stroke="#000" stroke-width="5" fill-opacity="0.0"></path><path d="
M 182 20 C
236 20
236 20
290 20
" stroke="#000" stroke-width="5" fill-opacity="0.0"></path><path d="
M 182 20 C
228.7653718043597 20
239.61731409782016 26.265371804359688
263 66.76537180435969
" stroke="#000" stroke-width="5" fill-opacity="0.0"></path><path d="
M 182 20 C
209 20
222.5 43.382685902179844
209 66.76537180435969
" stroke="#000" stroke-width="5" fill-opacity="0.0"></path><path d="
M 155 66.76537180435969 C
168.5 90.14805770653953
195.5 90.14805770653953
209 66.76537180435969
" stroke="#000" stroke-width="5" fill-opacity="0.0"></path><path d="
M 155 66.76537180435969 C
168.5 90.14805770653953
155 113.53074360871936
128 113.53074360871936
" stroke="#000" stroke-width="5" fill-opacity="0.0"></path><path d="
M 155 66.76537180435969 C
178.38268590217984 107.26537180435969
189.2346281956403 113.53074360871936
236 113.53074360871936
" stroke="#000" stroke-width="5" fill-opacity="0.0"></path><path d="
M 155 66.76537180435969 C
182 113.53074360871936
182 113.53074360871936
209 160.29611541307904
" stroke="#000" stroke-width="5" fill-opacity="0.0"></path><path d="
M 155 66.76537180435969 C
178.38268590217984 107.26537180435967
178.38268590217984 119.79611541307905
155 160.29611541307904
" stroke="#000" stroke-width="5" fill-opacity="0.0"></path><path d="
M 101 66.76537180435969 C
87.5 90.14805770653953
101 113.53074360871936
128 113.53074360871936
" stroke="#000" stroke-width="5" fill-opacity="0.0"></path><path d="
M 101 66.76537180435969 C
77.61731409782016 107.26537180435967
77.61731409782016 119.79611541307905
101 160.29611541307904
" stroke="#000" stroke-width="5" fill-opacity="0.0"></path><path d="
M 101 66.76537180435969 C
74 113.53074360871936
74 113.53074360871936
47 160.29611541307904
" stroke="#000" stroke-width="5" fill-opacity="0.0"></path><path d="
M 290 20 C
263 20
249.5 43.382685902179844
263 66.76537180435969
" stroke="#000" stroke-width="5" fill-opacity="0.0"></path><path d="
M 290 20 C
243.2346281956403 20
232.38268590217984 26.265371804359688
209 66.76537180435969
" stroke="#000" stroke-width="5" fill-opacity="0.0"></path><path d="
M 290 20 C
344 20
344 20
398 20
" stroke="#000" stroke-width="5" fill-opacity="0.0"></path><path d="
M 290 20 C
336.7653718043597 20
347.61731409782016 26.265371804359688
371 66.76537180435969
" stroke="#000" stroke-width="5" fill-opacity="0.0"></path><path d="
M 290 20 C
317 20
330.5 43.382685902179844
317 66.76537180435969
" stroke="#000" stroke-width="5" fill-opacity="0.0"></path><path d="
M 263 66.76537180435969 C
249.5 43.382685902179844
222.5 43.382685902179844
209 66.76537180435969
" stroke="#000" stroke-width="5" fill-opacity="0.0"></path><path d="
M 263 66.76537180435969 C
286.38268590217984 107.26537180435969
297.2346281956403 113.53074360871936
344 113.53074360871936
" stroke="#000" stroke-width="5" fill-opacity="0.0"></path><path d="
M 263 66.76537180435969 C
290 113.53074360871936
290 113.53074360871936
317 160.29611541307904
" stroke="#000" stroke-width="5" fill-opacity="0.0"></path><path d="
M 263 66.76537180435969 C
286.38268590217984 107.26537180435967
286.38268590217984 119.79611541307905
263 160.29611541307904
" stroke="#000" stroke-width="5" fill-opacity="0.0"></path><path d="
M 209 66.76537180435969 C
185.61731409782016 107.26537180435969
174.7653718043597 113.53074360871936
128 113.53074360871936
" stroke="#000" stroke-width="5" fill-opacity="0.0"></path><path d="
M 209 66.76537180435969 C
195.5 90.14805770653953
209 113.53074360871936
236 113.53074360871936
" stroke="#000" stroke-width="5" fill-opacity="0.0"></path><path d="
M 209 66.76537180435969 C
185.61731409782016 107.26537180435967
185.61731409782016 119.79611541307905
209 160.29611541307904
" stroke="#000" stroke-width="5" fill-opacity="0.0"></path><path d="
M 209 66.76537180435969 C
182 113.53074360871936
182 113.53074360871936
155 160.29611541307904
" stroke="#000" stroke-width="5" fill-opacity="0.0"></path><path d="
M 398 20 C
351.2346281956403 20
340.38268590217984 26.265371804359688
317 66.76537180435969
" stroke="#000" stroke-width="5" fill-opacity="0.0"></path><path d="
M 398 20 C
452 20
452 20
506 20
" stroke="#000" stroke-width="5" fill-opacity="0.0"></path><path d="
M 398 20 C
444.7653718043597 20
455.61731409782016 26.265371804359688
479 66.76537180435969
" stroke="#000" stroke-width="5" fill-opacity="0.0"></path><path d="
M 371 66.76537180435969 C
394.38268590217984 107.26537180435969
405.2346281956403 113.53074360871936
452 113.53074360871936
" stroke="#000" stroke-width="5" fill-opacity="0.0"></path><path d="
M 371 66.76537180435969 C
398 113.53074360871936
398 113.53074360871936
425 160.29611541307904
" stroke="#000" stroke-width="5" fill-opacity="0.0"></path><path d="
M 371 66.76537180435969 C
394.38268590217984 107.26537180435967
394.38268590217984 119.79611541307905
371 160.29611541307904
" stroke="#000" stroke-width="5" fill-opacity="0.0"></path><path d="
M 317 66.76537180435969 C
293.61731409782016 107.26537180435969
282.7653718043597 113.53074360871936
236 113.53074360871936
" stroke="#000" stroke-width="5" fill-opacity="0.0"></path><path d="
M 317 66.76537180435969 C
293.61731409782016 107.26537180435967
293.61731409782016 119.79611541307905
317 160.29611541307904
" stroke="#000" stroke-width="5" fill-opacity="0.0"></path><path d="
M 317 66.76537180435969 C
290 113.53074360871936
290 113.53074360871936
263 160.29611541307904
" stroke="#000" stroke-width="5" fill-opacity="0.0"></path><path d="
M 506 20 C
459.2346281956403 20
448.38268590217984 26.265371804359688
425 66.76537180435969
" stroke="#000" stroke-width="5" fill-opacity="0.0"></path><path d="
M 479 66.76537180435969 C
465.5 43.382685902179844
438.5 43.382685902179844
425 66.76537180435969
" stroke="#000" stroke-width="5" fill-opacity="0.0"></path><path d="
M 479 66.76537180435969 C
492.5 90.14805770653953
479 113.53074360871936
452 113.53074360871936
" stroke="#000" stroke-width="5" fill-opacity="0.0"></path><path d="
M 425 66.76537180435969 C
401.61731409782016 107.26537180435969
390.7653718043597 113.53074360871936
344 113.53074360871936
" stroke="#000" stroke-width="5" fill-opacity="0.0"></path><path d="
M 425 66.76537180435969 C
401.61731409782016 107.26537180435967
401.61731409782016 119.79611541307905
425 160.29611541307904
" stroke="#000" stroke-width="5" fill-opacity="0.0"></path><path d="
M 425 66.76537180435969 C
398 113.53074360871936
398 113.53074360871936
371 160.29611541307904
" stroke="#000" stroke-width="5" fill-opacity="0.0"></path><path d="
M 128 113.53074360871936 C
81.23462819564031 113.53074360871936
70.38268590217984 119.79611541307904
47 160.29611541307904
" stroke="#000" stroke-width="5" fill-opacity="0.0"></path><path d="
M 128 113.53074360871936 C
182 113.53074360871936
182 113.53074360871936
236 113.53074360871936
" stroke="#000" stroke-width="5" fill-opacity="0.0"></path><path d="
M 128 113.53074360871936 C
174.7653718043597 113.53074360871936
185.61731409782016 119.79611541307904
209 160.29611541307904
" stroke="#000" stroke-width="5" fill-opacity="0.0"></path><path d="
M 101 160.29611541307904 C
124.38268590217984 200.79611541307904
135.2346281956403 207.06148721743872
182 207.06148721743872
" stroke="#000" stroke-width="5" fill-opacity="0.0"></path><path d="
M 101 160.29611541307904 C
128 207.06148721743872
128 207.06148721743872
155 253.8268590217984
" stroke="#000" stroke-width="5" fill-opacity="0.0"></path><path d="
M 101 160.29611541307904 C
124.38268590217984 200.79611541307904
124.38268590217984 213.3268590217984
101 253.8268590217984
" stroke="#000" stroke-width="5" fill-opacity="0.0"></path><path d="
M 47 160.29611541307904 C
33.5 183.67880131525888
47 207.06148721743872
74 207.06148721743872
" stroke="#000" stroke-width="5" fill-opacity="0.0"></path><path d="
M 47 160.29611541307904 C
23.617314097820156 200.79611541307904
23.617314097820156 213.3268590217984
47 253.8268590217984
" stroke="#000" stroke-width="5" fill-opacity="0.0"></path><path d="
M 47 160.29611541307904 C
20 207.06148721743872
20 207.06148721743872
-7 253.8268590217984
" stroke="#000" stroke-width="5" fill-opacity="0.0"></path><path d="
M 236 113.53074360871936 C
209 113.53074360871936
195.5 136.9134295108992
209 160.29611541307904
" stroke="#000" stroke-width="5" fill-opacity="0.0"></path><path d="
M 236 113.53074360871936 C
189.2346281956403 113.53074360871936
178.38268590217984 119.79611541307904
155 160.29611541307904
" stroke="#000" stroke-width="5" fill-opacity="0.0"></path><path d="
M 236 113.53074360871936 C
290 113.53074360871936
290 113.53074360871936
344 113.53074360871936
" stroke="#000" stroke-width="5" fill-opacity="0.0"></path><path d="
M 236 113.53074360871936 C
282.7653718043597 113.53074360871936
293.61731409782016 119.79611541307904
317 160.29611541307904
" stroke="#000" stroke-width="5" fill-opacity="0.0"></path><path d="
M 236 113.53074360871936 C
263 113.53074360871936
276.5 136.9134295108992
263 160.29611541307904
" stroke="#000" stroke-width="5" fill-opacity="0.0"></path><path d="
M 209 160.29611541307904 C
222.5 183.67880131525888
249.5 183.67880131525888
263 160.29611541307904
" stroke="#000" stroke-width="5" fill-opacity="0.0"></path><path d="
M 209 160.29611541307904 C
232.38268590217984 200.79611541307904
243.2346281956403 207.06148721743872
290 207.06148721743872
" stroke="#000" stroke-width="5" fill-opacity="0.0"></path><path d="
M 209 160.29611541307904 C
236 207.06148721743872
236 207.06148721743872
263 253.8268590217984
" stroke="#000" stroke-width="5" fill-opacity="0.0"></path><path d="
M 209 160.29611541307904 C
232.38268590217984 200.79611541307904
232.38268590217984 213.3268590217984
209 253.8268590217984
" stroke="#000" stroke-width="5" fill-opacity="0.0"></path><path d="
M 155 160.29611541307904 C
131.61731409782016 200.79611541307904
120.76537180435969 207.06148721743872
74 207.06148721743872
" stroke="#000" stroke-width="5" fill-opacity="0.0"></path><path d="
M 155 160.29611541307904 C
131.61731409782016 200.79611541307904
131.61731409782016 213.3268590217984
155 253.8268590217984
" stroke="#000" stroke-width="5" fill-opacity="0.0"></path><path d="
M 155 160.29611541307904 C
128 207.06148721743872
128 207.06148721743872
101 253.8268590217984
" stroke="#000" stroke-width="5" fill-opacity="0.0"></path><path d="
M 344 113.53074360871936 C
317 113.53074360871936
303.5 136.9134295108992
317 160.29611541307904
" stroke="#000" stroke-width="5" fill-opacity="0.0"></path><path d="
M 344 113.53074360871936 C
297.2346281956403 113.53074360871936
286.38268590217984 119.79611541307904
263 160.29611541307904
" stroke="#000" stroke-width="5" fill-opacity="0.0"></path><path d="
M 344 113.53074360871936 C
398 113.53074360871936
398 113.53074360871936
452 113.53074360871936
" stroke="#000" stroke-width="5" fill-opacity="0.0"></path><path d="
M 344 113.53074360871936 C
390.7653718043597 113.53074360871936
401.61731409782016 119.79611541307904
425 160.29611541307904
" stroke="#000" stroke-width="5" fill-opacity="0.0"></path><path d="
M 317 160.29611541307904 C
340.38268590217984 200.79611541307904
351.2346281956403 207.06148721743872
398 207.06148721743872
" stroke="#000" stroke-width="5" fill-opacity="0.0"></path><path d="
M 317 160.29611541307904 C
344 207.06148721743872
344 207.06148721743872
371 253.8268590217984
" stroke="#000" stroke-width="5" fill-opacity="0.0"></path><path d="
M 317 160.29611541307904 C
340.38268590217984 200.79611541307904
340.38268590217984 213.3268590217984
317 253.8268590217984
" stroke="#000" stroke-width="5" fill-opacity="0.0"></path><path d="
M 263 160.29611541307904 C
239.61731409782016 200.79611541307904
228.7653718043597 207.06148721743872
182 207.06148721743872
" stroke="#000" stroke-width="5" fill-opacity="0.0"></path><path d="
M 263 160.29611541307904 C
239.61731409782016 200.79611541307904
239.61731409782016 213.3268590217984
263 253.8268590217984
" stroke="#000" stroke-width="5" fill-opacity="0.0"></path><path d="
M 263 160.29611541307904 C
236 207.06148721743872
236 207.06148721743872
209 253.8268590217984
" stroke="#000" stroke-width="5" fill-opacity="0.0"></path><path d="
M 452 113.53074360871936 C
405.2346281956403 113.53074360871936
394.38268590217984 119.79611541307904
371 160.29611541307904
" stroke="#000" stroke-width="5" fill-opacity="0.0"></path><path d="
M 425 160.29611541307904 C
411.5 136.9134295108992
384.5 136.9134295108992
371 160.29611541307904
" stroke="#000" stroke-width="5" fill-opacity="0.0"></path><path d="
M 425 160.29611541307904 C
438.5 183.67880131525888
425 207.06148721743872
398 207.06148721743872
" stroke="#000" stroke-width="5" fill-opacity="0.0"></path><path d="
M 425 160.29611541307904 C
448.38268590217984 200.79611541307904
459.2346281956403 207.06148721743872
506 207.06148721743872
" stroke="#000" stroke-width="5" fill-opacity="0.0"></path><path d="
M 425 160.29611541307904 C
452 207.06148721743872
452 207.06148721743872
479 253.8268590217984
" stroke="#000" stroke-width="5" fill-opacity="0.0"></path><path d="
M 425 160.29611541307904 C
448.38268590217984 200.79611541307904
448.38268590217984 213.3268590217984
425 253.8268590217984
" stroke="#000" stroke-width="5" fill-opacity="0.0"></path><path d="
M 371 160.29611541307904 C
347.61731409782016 200.79611541307904
336.7653718043597 207.06148721743872
290 207.06148721743872
" stroke="#000" stroke-width="5" fill-opacity="0.0"></path><path d="
M 371 160.29611541307904 C
357.5 183.67880131525888
371 207.06148721743872
398 207.06148721743872
" stroke="#000" stroke-width="5" fill-opacity="0.0"></path><path d="
M 371 160.29611541307904 C
347.61731409782016 200.79611541307904
347.61731409782016 213.3268590217984
371 253.8268590217984
" stroke="#000" stroke-width="5" fill-opacity="0.0"></path><path d="
M 371 160.29611541307904 C
344 207.06148721743872
344 207.06148721743872
317 253.8268590217984
" stroke="#000" stroke-width="5" fill-opacity="0.0"></path><path d="
M 74 207.06148721743872 C
47 207.06148721743872
33.5 230.44417311961857
47 253.8268590217984
" stroke="#000" stroke-width="5" fill-opacity="0.0"></path><path d="
M 74 207.06148721743872 C
27.234628195640312 207.06148721743872
16.382685902179844 213.3268590217984
-7 253.8268590217984
" stroke="#000" stroke-width="5" fill-opacity="0.0"></path><path d="
M 74 207.06148721743872 C
128 207.06148721743872
128 207.06148721743872
182 207.06148721743872
" stroke="#000" stroke-width="5" fill-opacity="0.0"></path><path d="
M 74 207.06148721743872 C
120.76537180435969 207.06148721743872
131.61731409782016 213.3268590217984
155 253.8268590217984
" stroke="#000" stroke-width="5" fill-opacity="0.0"></path><path d="
M 74 207.06148721743872 C
101 207.06148721743872
114.5 230.44417311961857
101 253.8268590217984
" stroke="#000" stroke-width="5" fill-opacity="0.0"></path><path d="
M 47 253.8268590217984 C
33.5 230.44417311961857
6.5 230.44417311961857
-7 253.8268590217984
" stroke="#000" stroke-width="5" fill-opacity="0.0"></path><path d="
M 47 253.8268590217984 C
60.5 277.2095449239782
87.5 277.2095449239782
101 253.8268590217984
" stroke="#000" stroke-width="5" fill-opacity="0.0"></path><path d="
M 47 253.8268590217984 C
70.38268590217984 294.3268590217984
81.23462819564033 300.5922308261581
128 300.5922308261581
" stroke="#000" stroke-width="5" fill-opacity="0.0"></path><path d="
M 47 253.8268590217984 C
74 300.5922308261581
74 300.5922308261581
101 347.35760263051776
" stroke="#000" stroke-width="5" fill-opacity="0.0"></path><path d="
M 47 253.8268590217984 C
70.38268590217984 294.3268590217984
70.38268590217984 306.85760263051776
47 347.35760263051776
" stroke="#000" stroke-width="5" fill-opacity="0.0"></path><path d="
M 182 207.06148721743872 C
155 207.06148721743872
141.5 230.44417311961857
155 253.8268590217984
" stroke="#000" stroke-width="5" fill-opacity="0.0"></path><path d="
M 182 207.06148721743872 C
135.2346281956403 207.06148721743872
124.38268590217984 213.3268590217984
101 253.8268590217984
" stroke="#000" stroke-width="5" fill-opacity="0.0"></path><path d="
M 182 207.06148721743872 C
236 207.06148721743872
236 207.06148721743872
290 207.06148721743872
" stroke="#000" stroke-width="5" fill-opacity="0.0"></path><path d="
M 182 207.06148721743872 C
228.7653718043597 207.06148721743872
239.61731409782016 213.3268590217984
263 253.8268590217984
" stroke="#000" stroke-width="5" fill-opacity="0.0"></path><path d="
M 182 207.06148721743872 C
209 207.06148721743872
222.5 230.44417311961857
209 253.8268590217984
" stroke="#000" stroke-width="5" fill-opacity="0.0"></path><path d="
M 155 253.8268590217984 C
141.5 230.44417311961857
114.5 230.44417311961857
101 253.8268590217984
" stroke="#000" stroke-width="5" fill-opacity="0.0"></path><path d="
M 155 253.8268590217984 C
178.38268590217984 294.3268590217984
189.2346281956403 300.5922308261581
236 300.5922308261581
" stroke="#000" stroke-width="5" fill-opacity="0.0"></path><path d="
M 155 253.8268590217984 C
182 300.5922308261581
182 300.5922308261581
209 347.35760263051776
" stroke="#000" stroke-width="5" fill-opacity="0.0"></path><path d="
M 155 253.8268590217984 C
178.38268590217984 294.3268590217984
178.38268590217984 306.85760263051776
155 347.35760263051776
" stroke="#000" stroke-width="5" fill-opacity="0.0"></path><path d="
M 101 253.8268590217984 C
77.61731409782016 294.3268590217984
77.61731409782016 306.85760263051776
101 347.35760263051776
" stroke="#000" stroke-width="5" fill-opacity="0.0"></path><path d="
M 101 253.8268590217984 C
74 300.5922308261581
74 300.5922308261581
47 347.35760263051776
" stroke="#000" stroke-width="5" fill-opacity="0.0"></path><path d="
M 290 207.06148721743872 C
243.2346281956403 207.06148721743872
232.38268590217984 213.3268590217984
209 253.8268590217984
" stroke="#000" stroke-width="5" fill-opacity="0.0"></path><path d="
M 290 207.06148721743872 C
344 207.06148721743872
344 207.06148721743872
398 207.06148721743872
" stroke="#000" stroke-width="5" fill-opacity="0.0"></path><path d="
M 290 207.06148721743872 C
336.7653718043597 207.06148721743872
347.61731409782016 213.3268590217984
371 253.8268590217984
" stroke="#000" stroke-width="5" fill-opacity="0.0"></path><path d="
M 263 253.8268590217984 C
249.5 230.44417311961857
222.5 230.44417311961857
209 253.8268590217984
" stroke="#000" stroke-width="5" fill-opacity="0.0"></path><path d="
M 263 253.8268590217984 C
276.5 277.2095449239782
263 300.5922308261581
236 300.5922308261581
" stroke="#000" stroke-width="5" fill-opacity="0.0"></path><path d="
M 263 253.8268590217984 C
286.38268590217984 294.3268590217984
297.2346281956403 300.5922308261581
344 300.5922308261581
" stroke="#000" stroke-width="5" fill-opacity="0.0"></path><path d="
M 263 253.8268590217984 C
290 300.5922308261581
290 300.5922308261581
317 347.35760263051776
" stroke="#000" stroke-width="5" fill-opacity="0.0"></path><path d="
M 263 253.8268590217984 C
286.38268590217984 294.3268590217984
286.38268590217984 306.85760263051776
263 347.35760263051776
" stroke="#000" stroke-width="5" fill-opacity="0.0"></path><path d="
M 209 253.8268590217984 C
185.61731409782016 294.3268590217984
174.7653718043597 300.5922308261581
128 300.5922308261581
" stroke="#000" stroke-width="5" fill-opacity="0.0"></path><path d="
M 209 253.8268590217984 C
185.61731409782016 294.3268590217984
185.61731409782016 306.85760263051776
209 347.35760263051776
" stroke="#000" stroke-width="5" fill-opacity="0.0"></path><path d="
M 209 253.8268590217984 C
182 300.5922308261581
182 300.5922308261581
155 347.35760263051776
" stroke="#000" stroke-width="5" fill-opacity="0.0"></path><path d="
M 398 207.06148721743872 C
371 207.06148721743872
357.5 230.44417311961857
371 253.8268590217984
" stroke="#000" stroke-width="5" fill-opacity="0.0"></path><path d="
M 398 207.06148721743872 C
351.2346281956403 207.06148721743872
340.38268590217984 213.3268590217984
317 253.8268590217984
" stroke="#000" stroke-width="5" fill-opacity="0.0"></path><path d="
M 398 207.06148721743872 C
452 207.06148721743872
452 207.06148721743872
506 207.06148721743872
" stroke="#000" stroke-width="5" fill-opacity="0.0"></path><path d="
M 398 207.06148721743872 C
444.7653718043597 207.06148721743872
455.61731409782016 213.3268590217984
479 253.8268590217984
" stroke="#000" stroke-width="5" fill-opacity="0.0"></path><path d="
M 371 253.8268590217984 C
357.5 230.44417311961857
330.5 230.44417311961857
317 253.8268590217984
" stroke="#000" stroke-width="5" fill-opacity="0.0"></path><path d="
M 371 253.8268590217984 C
394.38268590217984 294.3268590217984
405.2346281956403 300.5922308261581
452 300.5922308261581
" stroke="#000" stroke-width="5" fill-opacity="0.0"></path><path d="
M 371 253.8268590217984 C
398 300.5922308261581
398 300.5922308261581
425 347.35760263051776
" stroke="#000" stroke-width="5" fill-opacity="0.0"></path><path d="
M 371 253.8268590217984 C
394.38268590217984 294.3268590217984
394.38268590217984 306.85760263051776
371 347.35760263051776
" stroke="#000" stroke-width="5" fill-opacity="0.0"></path><path d="
M 317 253.8268590217984 C
293.61731409782016 294.3268590217984
282.7653718043597 300.5922308261581
236 300.5922308261581
" stroke="#000" stroke-width="5" fill-opacity="0.0"></path><path d="
M 317 253.8268590217984 C
293.61731409782016 294.3268590217984
293.61731409782016 306.85760263051776
317 347.35760263051776
" stroke="#000" stroke-width="5" fill-opacity="0.0"></path><path d="
M 317 253.8268590217984 C
290 300.5922308261581
290 300.5922308261581
263 347.35760263051776
" stroke="#000" stroke-width="5" fill-opacity="0.0"></path><path d="
M 506 207.06148721743872 C
479 207.06148721743872
465.5 230.44417311961857
479 253.8268590217984
" stroke="#000" stroke-width="5" fill-opacity="0.0"></path><path d="
M 506 207.06148721743872 C
459.2346281956403 207.06148721743872
448.38268590217984 213.3268590217984
425 253.8268590217984
" stroke="#000" stroke-width="5" fill-opacity="0.0"></path><path d="
M 425 253.8268590217984 C
401.61731409782016 294.3268590217984
390.7653718043597 300.5922308261581
344 300.5922308261581
" stroke="#000" stroke-width="5" fill-opacity="0.0"></path><path d="
M 425 253.8268590217984 C
411.5 277.2095449239782
425 300.5922308261581
452 300.5922308261581
" stroke="#000" stroke-width="5" fill-opacity="0.0"></path><path d="
M 425 253.8268590217984 C
401.61731409782016 294.3268590217984
401.61731409782016 306.85760263051776
425 347.35760263051776
" stroke="#000" stroke-width="5" fill-opacity="0.0"></path><path d="
M 425 253.8268590217984 C
398 300.5922308261581
398 300.5922308261581
371 347.35760263051776
" stroke="#000" stroke-width="5" fill-opacity="0.0"></path><path d="
M 128 300.5922308261581 C
101 300.5922308261581
87.5 323.9749167283379
101 347.35760263051776
" stroke="#000" stroke-width="5" fill-opacity="0.0"></path><path d="
M 128 300.5922308261581 C
81.23462819564031 300.5922308261581
70.38268590217984 306.85760263051776
47 347.35760263051776
" stroke="#000" stroke-width="5" fill-opacity="0.0"></path><path d="
M 128 300.5922308261581 C
182 300.5922308261581
182 300.5922308261581
236 300.5922308261581
" stroke="#000" stroke-width="5" fill-opacity="0.0"></path><path d="
M 128 300.5922308261581 C
174.7653718043597 300.5922308261581
185.61731409782016 306.85760263051776
209 347.35760263051776
" stroke="#000" stroke-width="5" fill-opacity="0.0"></path><path d="
M 128 300.5922308261581 C
155 300.5922308261581
168.5 323.9749167283379
155 347.35760263051776
" stroke="#000" stroke-width="5" fill-opacity="0.0"></path><path d="
M 101 347.35760263051776 C
114.5 370.7402885326976
141.5 370.7402885326976
155 347.35760263051776
" stroke="#000" stroke-width="5" fill-opacity="0.0"></path><path d="
M 101 347.35760263051776 C
114.5 370.7402885326976
101 394.12297443487745
74 394.12297443487745
" stroke="#000" stroke-width="5" fill-opacity="0.0"></path><path d="
M 101 347.35760263051776 C
124.38268590217984 387.85760263051776
135.2346281956403 394.12297443487745
182 394.12297443487745
" stroke="#000" stroke-width="5" fill-opacity="0.0"></path><path d="
M 101 347.35760263051776 C
128 394.12297443487745
128 394.12297443487745
155 440.88834623923714
" stroke="#000" stroke-width="5" fill-opacity="0.0"></path><path d="
M 101 347.35760263051776 C
124.38268590217984 387.85760263051776
124.38268590217984 400.38834623923714
101 440.88834623923714
" stroke="#000" stroke-width="5" fill-opacity="0.0"></path><path d="
M 47 347.35760263051776 C
33.5 370.7402885326976
47 394.12297443487745
74 394.12297443487745
" stroke="#000" stroke-width="5" fill-opacity="0.0"></path><path d="
M 47 347.35760263051776 C
23.617314097820156 387.85760263051776
23.617314097820156 400.38834623923714
47 440.88834623923714
" stroke="#000" stroke-width="5" fill-opacity="0.0"></path><path d="
M 47 347.35760263051776 C
20 394.12297443487745
20 394.12297443487745
-7 440.88834623923714
" stroke="#000" stroke-width="5" fill-opacity="0.0"></path><path d="
M 236 300.5922308261581 C
189.2346281956403 300.5922308261581
178.38268590217984 306.85760263051776
155 347.35760263051776
" stroke="#000" stroke-width="5" fill-opacity="0.0"></path><path d="
M 236 300.5922308261581 C
290 300.5922308261581
290 300.5922308261581
344 300.5922308261581
" stroke="#000" stroke-width="5" fill-opacity="0.0"></path><path d="
M 236 300.5922308261581 C
282.7653718043597 300.5922308261581
293.61731409782016 306.85760263051776
317 347.35760263051776
" stroke="#000" stroke-width="5" fill-opacity="0.0"></path><path d="
M 236 300.5922308261581 C
263 300.5922308261581
276.5 323.9749167283379
263 347.35760263051776
" stroke="#000" stroke-width="5" fill-opacity="0.0"></path><path d="
M 209 347.35760263051776 C
195.5 323.9749167283379
168.5 323.9749167283379
155 347.35760263051776
" stroke="#000" stroke-width="5" fill-opacity="0.0"></path><path d="
M 209 347.35760263051776 C
232.38268590217984 387.85760263051776
243.2346281956403 394.12297443487745
290 394.12297443487745
" stroke="#000" stroke-width="5" fill-opacity="0.0"></path><path d="
M 209 347.35760263051776 C
236 394.12297443487745
236 394.12297443487745
263 440.88834623923714
" stroke="#000" stroke-width="5" fill-opacity="0.0"></path><path d="
M 209 347.35760263051776 C
232.38268590217984 387.85760263051776
232.38268590217984 400.38834623923714
209 440.88834623923714
" stroke="#000" stroke-width="5" fill-opacity="0.0"></path><path d="
M 155 347.35760263051776 C
131.61731409782016 387.85760263051776
120.76537180435969 394.12297443487745
74 394.12297443487745
" stroke="#000" stroke-width="5" fill-opacity="0.0"></path><path d="
M 155 347.35760263051776 C
131.61731409782016 387.85760263051776
131.61731409782016 400.38834623923714
155 440.88834623923714
" stroke="#000" stroke-width="5" fill-opacity="0.0"></path><path d="
M 155 347.35760263051776 C
128 394.12297443487745
128 394.12297443487745
101 440.88834623923714
" stroke="#000" stroke-width="5" fill-opacity="0.0"></path><path d="
M 344 300.5922308261581 C
317 300.5922308261581
303.5 323.9749167283379
317 347.35760263051776
" stroke="#000" stroke-width="5" fill-opacity="0.0"></path><path d="
M 344 300.5922308261581 C
297.2346281956403 300.5922308261581
286.38268590217984 306.85760263051776
263 347.35760263051776
" stroke="#000" stroke-width="5" fill-opacity="0.0"></path><path d="
M 344 300.5922308261581 C
398 300.5922308261581
398 300.5922308261581
452 300.5922308261581
" stroke="#000" stroke-width="5" fill-opacity="0.0"></path><path d="
M 344 300.5922308261581 C
390.7653718043597 300.5922308261581
401.61731409782016 306.85760263051776
425 347.35760263051776
" stroke="#000" stroke-width="5" fill-opacity="0.0"></path><path d="
M 344 300.5922308261581 C
371 300.5922308261581
384.5 323.9749167283379
371 347.35760263051776
" stroke="#000" stroke-width="5" fill-opacity="0.0"></path><path d="
M 317 347.35760263051776 C
303.5 323.9749167283379
276.5 323.9749167283379
263 347.35760263051776
" stroke="#000" stroke-width="5" fill-opacity="0.0"></path><path d="
M 317 347.35760263051776 C
330.5 370.7402885326976
357.5 370.7402885326976
371 347.35760263051776
" stroke="#000" stroke-width="5" fill-opacity="0.0"></path><path d="
M 317 347.35760263051776 C
340.38268590217984 387.85760263051776
351.2346281956403 394.12297443487745
398 394.12297443487745
" stroke="#000" stroke-width="5" fill-opacity="0.0"></path><path d="
M 317 347.35760263051776 C
344 394.12297443487745
344 394.12297443487745
371 440.88834623923714
" stroke="#000" stroke-width="5" fill-opacity="0.0"></path><path d="
M 317 347.35760263051776 C
340.38268590217984 387.85760263051776
340.38268590217984 400.38834623923714
317 440.88834623923714
" stroke="#000" stroke-width="5" fill-opacity="0.0"></path><path d="
M 263 347.35760263051776 C
239.61731409782016 387.85760263051776
228.7653718043597 394.12297443487745
182 394.12297443487745
" stroke="#000" stroke-width="5" fill-opacity="0.0"></path><path d="
M 263 347.35760263051776 C
249.5 370.7402885326976
263 394.12297443487745
290 394.12297443487745
" stroke="#000" stroke-width="5" fill-opacity="0.0"></path><path d="
M 263 347.35760263051776 C
239.61731409782016 387.85760263051776
239.61731409782016 400.38834623923714
263 440.88834623923714
" stroke="#000" stroke-width="5" fill-opacity="0.0"></path><path d="
M 263 347.35760263051776 C
236 394.12297443487745
236 394.12297443487745
209 440.88834623923714
" stroke="#000" stroke-width="5" fill-opacity="0.0"></path><path d="
M 452 300.5922308261581 C
405.2346281956403 300.5922308261581
394.38268590217984 306.85760263051776
371 347.35760263051776
" stroke="#000" stroke-width="5" fill-opacity="0.0"></path><path d="
M 425 347.35760263051776 C
411.5 323.9749167283379
384.5 323.9749167283379
371 347.35760263051776
" stroke="#000" stroke-width="5" fill-opacity="0.0"></path><path d="
M 425 347.35760263051776 C
438.5 370.7402885326976
425 394.12297443487745
398 394.12297443487745
" stroke="#000" stroke-width="5" fill-opacity="0.0"></path><path d="
M 425 347.35760263051776 C
448.38268590217984 387.85760263051776
459.2346281956403 394.12297443487745
506 394.12297443487745
" stroke="#000" stroke-width="5" fill-opacity="0.0"></path><path d="
M 425 347.35760263051776 C
452 394.12297443487745
452 394.12297443487745
479 440.88834623923714
" stroke="#000" stroke-width="5" fill-opacity="0.0"></path><path d="
M 425 347.35760263051776 C
448.38268590217984 387.85760263051776
448.38268590217984 400.38834623923714
425 440.88834623923714
" stroke="#000" stroke-width="5" fill-opacity="0.0"></path><path d="
M 371 347.35760263051776 C
347.61731409782016 387.85760263051776
336.7653718043597 394.12297443487745
290 394.12297443487745
" stroke="#000" stroke-width="5" fill-opacity="0.0"></path><path d="
M 371 347.35760263051776 C
347.61731409782016 387.85760263051776
347.61731409782016 400.38834623923714
371 440.88834623923714
" stroke="#000" stroke-width="5" fill-opacity="0.0"></path><path d="
M 371 347.35760263051776 C
344 394.12297443487745
344 394.12297443487745
317 440.88834623923714
" stroke="#000" stroke-width="5" fill-opacity="0.0"></path><path d="
M 74 394.12297443487745 C
47 394.12297443487745
33.5 417.5056603370573
47 440.88834623923714
" stroke="#000" stroke-width="5" fill-opacity="0.0"></path><path d="
M 74 394.12297443487745 C
27.234628195640312 394.12297443487745
16.382685902179844 400.38834623923714
-7 440.88834623923714
" stroke="#000" stroke-width="5" fill-opacity="0.0"></path><path d="
M 74 394.12297443487745 C
128 394.12297443487745
128 394.12297443487745
182 394.12297443487745
" stroke="#000" stroke-width="5" fill-opacity="0.0"></path><path d="
M 74 394.12297443487745 C
120.76537180435969 394.12297443487745
131.61731409782016 400.38834623923714
155 440.88834623923714
" stroke="#000" stroke-width="5" fill-opacity="0.0"></path><path d="
M 74 394.12297443487745 C
101 394.12297443487745
114.5 417.5056603370573
101 440.88834623923714
" stroke="#000" stroke-width="5" fill-opacity="0.0"></path><path d="
M 47 440.88834623923714 C
33.5 417.5056603370573
6.5 417.5056603370573
-7 440.88834623923714
" stroke="#000" stroke-width="5" fill-opacity="0.0"></path><path d="
M 47 440.88834623923714 C
70.38268590217984 481.38834623923714
81.23462819564031 487.6537180435968
128 487.6537180435968
" stroke="#000" stroke-width="5" fill-opacity="0.0"></path><path d="
M 47 440.88834623923714 C
73.99999999999999 487.65371804359677
74.00000000000001 487.65371804359677
101 534.4190898479565
" stroke="#000" stroke-width="5" fill-opacity="0.0"></path><path d="
M 47 440.88834623923714 C
70.38268590217983 481.3883462392371
70.38268590217983 493.91908984795646
47 534.4190898479565
" stroke="#000" stroke-width="5" fill-opacity="0.0"></path><path d="
M 182 394.12297443487745 C
135.2346281956403 394.12297443487745
124.38268590217984 400.38834623923714
101 440.88834623923714
" stroke="#000" stroke-width="5" fill-opacity="0.0"></path><path d="
M 182 394.12297443487745 C
236 394.12297443487745
236 394.12297443487745
290 394.12297443487745
" stroke="#000" stroke-width="5" fill-opacity="0.0"></path><path d="
M 182 394.12297443487745 C
228.7653718043597 394.12297443487745
239.61731409782016 400.38834623923714
263 440.88834623923714
" stroke="#000" stroke-width="5" fill-opacity="0.0"></path><path d="
M 182 394.12297443487745 C
209 394.12297443487745
222.5 417.5056603370573
209 440.88834623923714
" stroke="#000" stroke-width="5" fill-opacity="0.0"></path><path d="
M 155 440.88834623923714 C
168.5 464.271032141417
195.5 464.271032141417
209 440.88834623923714
" stroke="#000" stroke-width="5" fill-opacity="0.0"></path><path d="
M 155 440.88834623923714 C
168.5 464.271032141417
155 487.6537180435968
128 487.6537180435968
" stroke="#000" stroke-width="5" fill-opacity="0.0"></path><path d="
M 155 440.88834623923714 C
178.38268590217984 481.38834623923714
189.2346281956403 487.6537180435968
236 487.6537180435968
" stroke="#000" stroke-width="5" fill-opacity="0.0"></path><path d="
M 155 440.88834623923714 C
182 487.65371804359677
182 487.65371804359677
209 534.4190898479565
" stroke="#000" stroke-width="5" fill-opacity="0.0"></path><path d="
M 155 440.88834623923714 C
178.38268590217984 481.3883462392371
178.38268590217984 493.91908984795646
155 534.4190898479565
" stroke="#000" stroke-width="5" fill-opacity="0.0"></path><path d="
M 101 440.88834623923714 C
87.5 464.271032141417
101 487.6537180435968
128 487.6537180435968
" stroke="#000" stroke-width="5" fill-opacity="0.0"></path><path d="
M 101 440.88834623923714 C
77.61731409782017 481.3883462392371
77.61731409782017 493.91908984795646
101 534.4190898479565
" stroke="#000" stroke-width="5" fill-opacity="0.0"></path><path d="
M 101 440.88834623923714 C
74.00000000000001 487.65371804359677
73.99999999999999 487.65371804359677
47 534.4190898479565
" stroke="#000" stroke-width="5" fill-opacity="0.0"></path><path d="
M 290 394.12297443487745 C
243.2346281956403 394.12297443487745
232.38268590217984 400.38834623923714
209 440.88834623923714
" stroke="#000" stroke-width="5" fill-opacity="0.0"></path><path d="
M 290 394.12297443487745 C
344 394.12297443487745
344 394.12297443487745
398 394.12297443487745
" stroke="#000" stroke-width="5" fill-opacity="0.0"></path><path d="
M 290 394.12297443487745 C
336.7653718043597 394.12297443487745
347.61731409782016 400.38834623923714
371 440.88834623923714
" stroke="#000" stroke-width="5" fill-opacity="0.0"></path><path d="
M 290 394.12297443487745 C
317 394.12297443487745
330.5 417.5056603370573
317 440.88834623923714
" stroke="#000" stroke-width="5" fill-opacity="0.0"></path><path d="
M 263 440.88834623923714 C
276.5 464.271032141417
263 487.6537180435968
236 487.6537180435968
" stroke="#000" stroke-width="5" fill-opacity="0.0"></path><path d="
M 263 440.88834623923714 C
286.38268590217984 481.38834623923714
297.2346281956403 487.6537180435968
344 487.6537180435968
" stroke="#000" stroke-width="5" fill-opacity="0.0"></path><path d="
M 263 440.88834623923714 C
290 487.65371804359677
290 487.65371804359677
317 534.4190898479565
" stroke="#000" stroke-width="5" fill-opacity="0.0"></path><path d="
M 263 440.88834623923714 C
286.38268590217984 481.3883462392371
286.38268590217984 493.91908984795646
263 534.4190898479565
" stroke="#000" stroke-width="5" fill-opacity="0.0"></path><path d="
M 209 440.88834623923714 C
185.61731409782016 481.38834623923714
174.7653718043597 487.6537180435968
128 487.6537180435968
" stroke="#000" stroke-width="5" fill-opacity="0.0"></path><path d="
M 209 440.88834623923714 C
185.61731409782016 481.3883462392371
185.61731409782016 493.91908984795646
209 534.4190898479565
" stroke="#000" stroke-width="5" fill-opacity="0.0"></path><path d="
M 209 440.88834623923714 C
182 487.65371804359677
182 487.65371804359677
155 534.4190898479565
" stroke="#000" stroke-width="5" fill-opacity="0.0"></path><path d="
M 398 394.12297443487745 C
351.2346281956403 394.12297443487745
340.38268590217984 400.38834623923714
317 440.88834623923714
" stroke="#000" stroke-width="5" fill-opacity="0.0"></path><path d="
M 398 394.12297443487745 C
452 394.12297443487745
452 394.12297443487745
506 394.12297443487745
" stroke="#000" stroke-width="5" fill-opacity="0.0"></path><path d="
M 398 394.12297443487745 C
444.7653718043597 394.12297443487745
455.61731409782016 400.38834623923714
479 440.88834623923714
" stroke="#000" stroke-width="5" fill-opacity="0.0"></path><path d="
M 398 394.12297443487745 C
425 394.12297443487745
438.5 417.5056603370573
425 440.88834623923714
" stroke="#000" stroke-width="5" fill-opacity="0.0"></path><path d="
M 371 440.88834623923714 C
357.5 417.5056603370573
330.5 417.5056603370573
317 440.88834623923714
" stroke="#000" stroke-width="5" fill-opacity="0.0"></path><path d="
M 371 440.88834623923714 C
384.5 464.271032141417
411.5 464.271032141417
425 440.88834623923714
" stroke="#000" stroke-width="5" fill-opacity="0.0"></path><path d="
M 371 440.88834623923714 C
384.5 464.271032141417
371 487.6537180435968
344 487.6537180435968
" stroke="#000" stroke-width="5" fill-opacity="0.0"></path><path d="
M 371 440.88834623923714 C
394.38268590217984 481.38834623923714
405.2346281956403 487.6537180435968
452 487.6537180435968
" stroke="#000" stroke-width="5" fill-opacity="0.0"></path><path d="
M 371 440.88834623923714 C
398 487.65371804359677
398 487.65371804359677
425 534.4190898479565
" stroke="#000" stroke-width="5" fill-opacity="0.0"></path><path d="
M 371 440.88834623923714 C
394.38268590217984 481.3883462392371
394.38268590217984 493.91908984795646
371 534.4190898479565
" stroke="#000" stroke-width="5" fill-opacity="0.0"></path><path d="
M 317 440.88834623923714 C
293.61731409782016 481.38834623923714
282.7653718043597 487.6537180435968
236 487.6537180435968
" stroke="#000" stroke-width="5" fill-opacity="0.0"></path><path d="
M 317 440.88834623923714 C
303.5 464.271032141417
317 487.6537180435968
344 487.6537180435968
" stroke="#000" stroke-width="5" fill-opacity="0.0"></path><path d="
M 317 440.88834623923714 C
293.61731409782016 481.3883462392371
293.61731409782016 493.91908984795646
317 534.4190898479565
" stroke="#000" stroke-width="5" fill-opacity="0.0"></path><path d="
M 317 440.88834623923714 C
290 487.65371804359677
290 487.65371804359677
263 534.4190898479565
" stroke="#000" stroke-width="5" fill-opacity="0.0"></path><path d="
M 506 394.12297443487745 C
479 394.12297443487745
465.5 417.5056603370573
479 440.88834623923714
" stroke="#000" stroke-width="5" fill-opacity="0.0"></path><path d="
M 506 394.12297443487745 C
459.2346281956403 394.12297443487745
448.38268590217984 400.38834623923714
425 440.88834623923714
" stroke="#000" stroke-width="5" fill-opacity="0.0"></path><path d="
M 479 440.88834623923714 C
465.5 417.5056603370573
438.5 417.5056603370573
425 440.88834623923714
" stroke="#000" stroke-width="5" fill-opacity="0.0"></path><path d="
M 479 440.88834623923714 C
492.5 464.271032141417
479 487.6537180435968
452 487.6537180435968
" stroke="#000" stroke-width="5" fill-opacity="0.0"></path><path d="
M 425 440.88834623923714 C
401.61731409782016 481.38834623923714
390.7653718043597 487.6537180435968
344 487.6537180435968
" stroke="#000" stroke-width="5" fill-opacity="0.0"></path><path d="
M 425 440.88834623923714 C
411.5 464.271032141417
425 487.6537180435968
452 487.6537180435968
" stroke="#000" stroke-width="5" fill-opacity="0.0"></path><path d="
M 425 440.88834623923714 C
401.61731409782016 481.3883462392371
401.61731409782016 493.91908984795646
425 534.4190898479565
" stroke="#000" stroke-width="5" fill-opacity="0.0"></path><path d="
M 425 440.88834623923714 C
398 487.65371804359677
398 487.65371804359677
371 534.4190898479565
" stroke="#000" stroke-width="5" fill-opacity="0.0"></path><path d="
M 128 487.6537180435968 C
101.00000000000003 487.6537180435968
87.50000000000001 511.0364039457766
101 534.4190898479565
" stroke="#000" stroke-width="5" fill-opacity="0.0"></path><path d="
M 128 487.6537180435968 C
81.23462819564033 487.6537180435968
70.38268590217984 493.91908984795646
47 534.4190898479565
" stroke="#000" stroke-width="5" fill-opacity="0.0"></path><path d="
M 128 487.6537180435968 C
182 487.6537180435968
182 487.6537180435968
236 487.6537180435968
" stroke="#000" stroke-width="5" fill-opacity="0.0"></path><path d="
M 128 487.6537180435968 C
174.7653718043597 487.6537180435968
185.61731409782016 493.91908984795646
209 534.4190898479565
" stroke="#000" stroke-width="5" fill-opacity="0.0"></path><path d="
M 101 534.4190898479565 C
87.5 511.0364039457766
60.5 511.0364039457766
47 534.4190898479565
" stroke="#000" stroke-width="5" fill-opacity="0.0"></path><path d="
M 236 487.6537180435968 C
209.00000000000003 487.6537180435968
195.5 511.0364039457766
209 534.4190898479565
" stroke="#000" stroke-width="5" fill-opacity="0.0"></path><path d="
M 236 487.6537180435968 C
189.2346281956403 487.6537180435968
178.38268590217984 493.91908984795646
155 534.4190898479565
" stroke="#000" stroke-width="5" fill-opacity="0.0"></path><path d="
M 236 487.6537180435968 C
290 487.6537180435968
290 487.6537180435968
344 487.6537180435968
" stroke="#000" stroke-width="5" fill-opacity="0.0"></path><path d="
M 236 487.6537180435968 C
282.7653718043597 487.6537180435968
293.61731409782016 493.91908984795646
317 534.4190898479565
" stroke="#000" stroke-width="5" fill-opacity="0.0"></path><path d="
M 236 487.6537180435968 C
263 487.6537180435968
276.5 511.0364039457766
263 534.4190898479565
" stroke="#000" stroke-width="5" fill-opacity="0.0"></path><path d="
M 209 534.4190898479565 C
222.5 557.8017757501362
249.5 557.8017757501362
263 534.4190898479565
" stroke="#000" stroke-width="5" fill-opacity="0.0"></path><path d="
M 344 487.6537180435968 C
317 487.6537180435968
303.5 511.0364039457766
317 534.4190898479565
" stroke="#000" stroke-width="5" fill-opacity="0.0"></path><path d="
M 344 487.6537180435968 C
297.2346281956403 487.6537180435968
286.38268590217984 493.91908984795646
263 534.4190898479565
" stroke="#000" stroke-width="5" fill-opacity="0.0"></path><path d="
M 344 487.6537180435968 C
398 487.6537180435968
398 487.6537180435968
452 487.6537180435968
" stroke="#000" stroke-width="5" fill-opacity="0.0"></path><path d="
M 344 487.6537180435968 C
390.7653718043597 487.6537180435968
401.61731409782016 493.91908984795646
425 534.4190898479565
" stroke="#000" stroke-width="5" fill-opacity="0.0"></path><path d="
M 452 487.6537180435968 C
425 487.6537180435968
411.5 511.0364039457766
425 534.4190898479565
" stroke="#000" stroke-width="5" fill-opacity="0.0"></path><path d="
M 452 487.6537180435968 C
405.2346281956403 487.6537180435968
394.38268590217984 493.91908984795646
371 534.4190898479565
" stroke="#000" stroke-width="5" fill-opacity="0.0"></path><line x1="77" y1="20" x2="71" y2="20" stroke="#808" stroke-width="2"></line><line x1="48.5" y1="69.363448015713" x2="45.5" y2="64.16729559300637" stroke="#808" stroke-width="2"></line><line x1="-8.5" y1="69.363448015713" x2="-5.5" y2="64.16729559300637" stroke="#808" stroke-width="2"></line><line x1="185" y1="20" x2="179" y2="20" stroke="#808" stroke-width="2"></line><line x1="156.5" y1="69.363448015713" x2="153.5" y2="64.16729559300637" stroke="#808" stroke-width="2"></line><line x1="99.5" y1="69.363448015713" x2="102.5" y2="64.16729559300637" stroke="#808" stroke-width="2"></line><line x1="293" y1="20" x2="287" y2="20" stroke="#808" stroke-width="2"></line><line x1="264.5" y1="69.363448015713" x2="261.5" y2="64.16729559300637" stroke="#808" stroke-width="2"></line><line x1="207.5" y1="69.363448015713" x2="210.5" y2="64.16729559300637" stroke="#808" stroke-width="2"></line><line x1="401" y1="20" x2="395" y2="20" stroke="#808" stroke-width="2"></line><line x1="372.5" y1="69.363448015713" x2="369.5" y2="64.16729559300637" stroke="#808" stroke-width="2"></line><line x1="315.5" y1="69.363448015713" x2="318.5" y2="64.16729559300637" stroke="#808" stroke-width="2"></line><line x1="509" y1="20" x2="503" y2="20" stroke="#808" stroke-width="2"></line><line x1="480.5" y1="69.363448015713" x2="477.5" y2="64.16729559300637" stroke="#808" stroke-width="2"></line><line x1="423.5" y1="69.363448015713" x2="426.5" y2="64.16729559300637" stroke="#808" stroke-width="2"></line><line x1="131" y1="113.53074360871936" x2="125" y2="113.53074360871936" stroke="#808" stroke-width="2"></line><line x1="102.5" y1="162.89419162443235" x2="99.5" y2="157.69803920172572" stroke="#808" stroke-width="2"></line><line x1="45.5" y1="162.89419162443235" x2="48.5" y2="157.69803920172572" stroke="#808" stroke-width="2"></line><line x1="239" y1="113.53074360871936" x2="233" y2="113.53074360871936" stroke="#808" stroke-width="2"></line><line x1="210.5" y1="162.89419162443235" x2="207.5" y2="157.69803920172572" stroke="#808" stroke-width="2"></line><line x1="153.5" y1="162.89419162443235" x2="156.5" y2="157.69803920172572" stroke="#808" stroke-width="2"></line><line x1="347" y1="113.53074360871936" x2="341" y2="113.53074360871936" stroke="#808" stroke-width="2"></line><line x1="318.5" y1="162.89419162443235" x2="315.5" y2="157.69803920172572" stroke="#808" stroke-width="2"></line><line x1="261.5" y1="162.89419162443235" x2="264.5" y2="157.69803920172572" stroke="#808" stroke-width="2"></line><line x1="455" y1="113.53074360871936" x2="449" y2="113.53074360871936" stroke="#808" stroke-width="2"></line><line x1="426.5" y1="162.89419162443235" x2="423.5" y2="157.69803920172572" stroke="#808" stroke-width="2"></line><line x1="369.5" y1="162.89419162443235" x2="372.5" y2="157.69803920172572" stroke="#808" stroke-width="2"></line><line x1="77" y1="207.06148721743872" x2="71" y2="207.06148721743872" stroke="#808" stroke-width="2"></line><line x1="48.5" y1="256.4249352331517" x2="45.5" y2="251.2287828104451" stroke="#808" stroke-width="2"></line><line x1="-8.5" y1="256.4249352331517" x2="-5.5" y2="251.2287828104451" stroke="#808" stroke-width="2"></line><line x1="185" y1="207.06148721743872" x2="179" y2="207.06148721743872" stroke="#808" stroke-width="2"></line><line x1="156.5" y1="256.4249352331517" x2="153.5" y2="251.2287828104451" stroke="#808" stroke-width="2"></line><line x1="99.5" y1="256.4249352331517" x2="102.5" y2="251.2287828104451" stroke="#808" stroke-width="2"></line><line x1="293" y1="207.06148721743872" x2="287" y2="207.06148721743872" stroke="#808" stroke-width="2"></line><line x1="264.5" y1="256.4249352331517" x2="261.5" y2="251.2287828104451" stroke="#808" stroke-width="2"></line><line x1="207.5" y1="256.4249352331517" x2="210.5" y2="251.2287828104451" stroke="#808" stroke-width="2"></line><line x1="401" y1="207.06148721743872" x2="395" y2="207.06148721743872" stroke="#808" stroke-width="2"></line><line x1="372.5" y1="256.4249352331517" x2="369.5" y2="251.2287828104451" stroke="#808" stroke-width="2"></line><line x1="315.5" y1="256.4249352331517" x2="318.5" y2="251.2287828104451" stroke="#808" stroke-width="2"></line><line x1="509" y1="207.06148721743872" x2="503" y2="207.06148721743872" stroke="#808" stroke-width="2"></line><line x1="480.5" y1="256.4249352331517" x2="477.5" y2="251.2287828104451" stroke="#808" stroke-width="2"></line><line x1="423.5" y1="256.4249352331517" x2="426.5" y2="251.2287828104451" stroke="#808" stroke-width="2"></line><line x1="131" y1="300.5922308261581" x2="125" y2="300.5922308261581" stroke="#808" stroke-width="2"></line><line x1="102.5" y1="349.9556788418711" x2="99.5" y2="344.75952641916444" stroke="#808" stroke-width="2"></line><line x1="45.5" y1="349.9556788418711" x2="48.5" y2="344.75952641916444" stroke="#808" stroke-width="2"></line><line x1="239" y1="300.5922308261581" x2="233" y2="300.5922308261581" stroke="#808" stroke-width="2"></line><line x1="210.5" y1="349.9556788418711" x2="207.5" y2="344.75952641916444" stroke="#808" stroke-width="2"></line><line x1="153.5" y1="349.9556788418711" x2="156.5" y2="344.75952641916444" stroke="#808" stroke-width="2"></line><line x1="347" y1="300.5922308261581" x2="341" y2="300.5922308261581" stroke="#808" stroke-width="2"></line><line x1="318.5" y1="349.9556788418711" x2="315.5" y2="344.75952641916444" stroke="#808" stroke-width="2"></line><line x1="261.5" y1="349.9556788418711" x2="264.5" y2="344.75952641916444" stroke="#808" stroke-width="2"></line><line x1="455" y1="300.5922308261581" x2="449" y2="300.5922308261581" stroke="#808" stroke-width="2"></line><line x1="426.5" y1="349.9556788418711" x2="423.5" y2="344.75952641916444" stroke="#808" stroke-width="2"></line><line x1="369.5" y1="349.9556788418711" x2="372.5" y2="344.75952641916444" stroke="#808" stroke-width="2"></line><line x1="77" y1="394.12297443487745" x2="71" y2="394.12297443487745" stroke="#808" stroke-width="2"></line><line x1="48.5" y1="443.48642245059045" x2="45.5" y2="438.2902700278838" stroke="#808" stroke-width="2"></line><line x1="-8.5" y1="443.48642245059045" x2="-5.5" y2="438.2902700278838" stroke="#808" stroke-width="2"></line><line x1="185" y1="394.12297443487745" x2="179" y2="394.12297443487745" stroke="#808" stroke-width="2"></line><line x1="156.5" y1="443.48642245059045" x2="153.5" y2="438.2902700278838" stroke="#808" stroke-width="2"></line><line x1="99.5" y1="443.48642245059045" x2="102.5" y2="438.2902700278838" stroke="#808" stroke-width="2"></line><line x1="293" y1="394.12297443487745" x2="287" y2="394.12297443487745" stroke="#808" stroke-width="2"></line><line x1="264.5" y1="443.48642245059045" x2="261.5" y2="438.2902700278838" stroke="#808" stroke-width="2"></line><line x1="207.5" y1="443.48642245059045" x2="210.5" y2="438.2902700278838" stroke="#808" stroke-width="2"></line><line x1="401" y1="394.12297443487745" x2="395" y2="394.12297443487745" stroke="#808" stroke-width="2"></line><line x1="372.5" y1="443.48642245059045" x2="369.5" y2="438.2902700278838" stroke="#808" stroke-width="2"></line><line x1="315.5" y1="443.48642245059045" x2="318.5" y2="438.2902700278838" stroke="#808" stroke-width="2"></line><line x1="509" y1="394.12297443487745" x2="503" y2="394.12297443487745" stroke="#808" stroke-width="2"></line><line x1="480.5" y1="443.48642245059045" x2="477.5" y2="438.2902700278838" stroke="#808" stroke-width="2"></line><line x1="423.5" y1="443.48642245059045" x2="426.5" y2="438.2902700278838" stroke="#808" stroke-width="2"></line><line x1="131" y1="487.6537180435968" x2="125" y2="487.6537180435968" stroke="#808" stroke-width="2"></line><line x1="102.5" y1="537.0171660593098" x2="99.5" y2="531.8210136366031" stroke="#808" stroke-width="2"></line><line x1="45.5" y1="537.0171660593098" x2="48.5" y2="531.8210136366031" stroke="#808" stroke-width="2"></line><line x1="239" y1="487.6537180435968" x2="233" y2="487.6537180435968" stroke="#808" stroke-width="2"></line><line x1="210.5" y1="537.0171660593098" x2="207.5" y2="531.8210136366031" stroke="#808" stroke-width="2"></line><line x1="153.5" y1="537.0171660593098" x2="156.5" y2="531.8210136366031" stroke="#808" stroke-width="2"></line><line x1="347" y1="487.6537180435968" x2="341" y2="487.6537180435968" stroke="#808" stroke-width="2"></line><line x1="318.5" y1="537.0171660593098" x2="315.5" y2="531.8210136366031" stroke="#808" stroke-width="2"></line><line x1="261.5" y1="537.0171660593098" x2="264.5" y2="531.8210136366031" stroke="#808" stroke-width="2"></line><line x1="455" y1="487.6537180435968" x2="449" y2="487.6537180435968" stroke="#808" stroke-width="2"></line><line x1="426.5" y1="537.0171660593098" x2="423.5" y2="531.8210136366031" stroke="#808" stroke-width="2"></line><line x1="369.5" y1="537.0171660593098" x2="372.5" y2="531.8210136366031" stroke="#808" stroke-width="2"></line></svg>
