<svg xmlns="http://www.w3.org/2000/svg" version="1.1"><path d="
M 89 20 C
54.5 20
37.25 49.877876430563134
54.5 79.75575286112627
" stroke="rgb(25,179,102)" stroke-width="5" fill-opacity="0.0"></path><path d="
M 89 20 C
29.24424713887373 20
15.377876430563134 28.00575286112627
-14.5 79.75575286112627
" stroke="rgb(25,179,102)" stroke-width="5" fill-opacity="0.0"></path><path d="
M 89 20 C
158 20
158 20
227 20
" stroke="rgb(25,179,102)" stroke-width="5" fill-opacity="0.0"></path><path d="
M 89 20 C
148.75575286112627 20
162.62212356943687 28.00575286112627
192.5 79.75575286112627
" stroke="rgb(25,179,102)" stroke-width="5" fill-opacity="0.0"></path><path d="
M 54.5 79.75575286112627 C
37.25 49.877876430563134
2.75 49.877876430563134
-14.5 79.75575286112627
" stroke="rgb(25,179,102)" stroke-width="5" fill-opacity="0.0"></path><path d="
M 54.5 79.75575286112627 C
71.75 109.6336292916894
106.25 109.6336292916894
123.5 79.75575286112627
" stroke="rgb(25,179,102)" stroke-width="5" fill-opacity="0.0"></path><path d="
M 54.5 79.75575286112627 C
84.37787643056313 131.50575286112627
98.24424713887373 139.51150572225254
158 139.51150572225254
" stroke="rgb(25,179,102)" stroke-width="5" fill-opacity="0.0"></path><path d="
M 54.5 79.75575286112627 C
89 139.51150572225254
89 139.51150572225254
123.5 199.2672585833788
" stroke="rgb(25,179,102)" stroke-width="5" fill-opacity="0.0"></path><path d="
M 54.5 79.75575286112627 C
84.37787643056313 131.50575286112627
84.37787643056313 147.5172585833788
54.5 199.2672585833788
" stroke="rgb(25,179,102)" stroke-width="5" fill-opacity="0.0"></path><path d="
M 227 20 C
192.5 20
175.25 49.877876430563134
192.5 79.75575286112627
" stroke="rgb(25,179,102)" stroke-width="5" fill-opacity="0.0"></path><path d="
M 227 20 C
167.24424713887373 20
153.37787643056313 28.00575286112627
123.5 79.75575286112627
" stroke="rgb(25,179,102)" stroke-width="5" fill-opacity="0.0"></path><path d="
M 227 20 C
296 20
296 20
365 20
" stroke="rgb(25,179,102)" stroke-width="5" fill-opacity="0.0"></path><path d="
M 227 20 C
286.75575286112627 20
300.6221235694369 28.00575286112627
330.5 79.75575286112627
" stroke="rgb(25,179,102)" stroke-width="5" fill-opacity="0.0"></path><path d="
M 227 20 C
261.5 20
278.75 49.877876430563134
261.5 79.75575286112627
" stroke="rgb(25,179,102)" stroke-width="5" fill-opacity="0.0"></path><path d="
M 192.5 79.75575286112627 C
175.25 49.877876430563134
140.75 49.877876430563134
123.5 79.75575286112627
" stroke="rgb(25,179,102)" stroke-width="5" fill-opacity="0.0"></path><path d="
M 192.5 79.75575286112627 C
222.37787643056313 131.50575286112627
236.24424713887373 139.51150572225254
296 139.51150572225254
" stroke="rgb(25,179,102)" stroke-width="5" fill-opacity="0.0"></path><path d="
M 192.5 79.75575286112627 C
227 139.51150572225254
227 139.51150572225254
261.5 199.2672585833788
" stroke="rgb(25,179,102)" stroke-width="5" fill-opacity="0.0"></path><path d="
M 192.5 79.75575286112627 C
222.37787643056313 131.50575286112627
222.37787643056313 147.5172585833788
192.5 199.2672585833788
" stroke="rgb(25,179,102)" stroke-width="5" fill-opacity="0.0"></path><path d="
M 123.5 79.75575286112627 C
93.62212356943687 131.50575286112627
93.62212356943687 147.5172585833788
123.5 199.2672585833788
" stroke="rgb(25,179,102)" stroke-width="5" fill-opacity="0.0"></path><path d="
M 123.5 79.75575286112627 C
89 139.51150572225254
89 139.51150572225254
54.5 199.2672585833788
" stroke="rgb(25,179,102)" stroke-width="5" fill-opacity="0.0"></path><path d="
M 365 20 C
305.24424713887373 20
291.3778764305631 28.00575286112627
261.5 79.75575286112627
" stroke="rgb(25,179,102)" stroke-width="5" fill-opacity="0.0"></path><path d="
M 365 20 C
434 20
434 20
503 20
" stroke="rgb(25,179,102)" stroke-width="5" fill-opacity="0.0"></path><path d="
M 365 20 C
424.75575286112627 20
438.6221235694369 28.00575286112627
468.5 79.75575286112627
" stroke="rgb(25,179,102)" stroke-width="5" fill-opacity="0.0"></path><path d="
M 365 20 C
399.5 20
416.75 49.877876430563134
399.5 79.75575286112627
" stroke="rgb(25,179,102)" stroke-width="5" fill-opacity="0.0"></path><path d="
M 330.5 79.75575286112627 C
360.3778764305631 131.50575286112627
374.24424713887373 139.51150572225254
434 139.51150572225254
" stroke="rgb(25,179,102)" stroke-width="5" fill-opacity="0.0"></path><path d="
M 330.5 79.75575286112627 C
365 139.51150572225254
365 139.51150572225254
399.5 199.2672585833788
" stroke="rgb(25,179,102)" stroke-width="5" fill-opacity="0.0"></path><path d="
M 330.5 79.75575286112627 C
360.3778764305631 131.50575286112627
360.3778764305631 147.5172585833788
330.5 199.2672585833788
" stroke="rgb(25,179,102)" stroke-width="5" fill-opacity="0.0"></path><path d="
M 261.5 79.75575286112627 C
231.62212356943687 131.50575286112627
217.75575286112627 139.51150572225254
158 139.51150572225254
" stroke="rgb(25,179,102)" stroke-width="5" fill-opacity="0.0"></path><path d="
M 261.5 79.75575286112627 C
231.62212356943687 131.50575286112627
231.62212356943687 147.5172585833788
261.5 199.2672585833788
" stroke="rgb(25,179,102)" stroke-width="5" fill-opacity="0.0"></path><path d="
M 261.5 79.75575286112627 C
227 139.51150572225254
227 139.51150572225254
192.5 199.2672585833788
" stroke="rgb(25,179,102)" stroke-width="5" fill-opacity="0.0"></path><path d="
M 503 20 C
443.24424713887373 20
429.3778764305631 28.00575286112627
399.5 79.75575286112627
" stroke="rgb(25,179,102)" stroke-width="5" fill-opacity="0.0"></path><path d="
M 468.5 79.75575286112627 C
485.75 109.6336292916894
468.5 139.51150572225254
434 139.51150572225254
" stroke="rgb(25,179,102)" stroke-width="5" fill-opacity="0.0"></path><path d="
M 399.5 79.75575286112627 C
369.6221235694369 131.50575286112627
355.75575286112627 139.51150572225254
296 139.51150572225254
" stroke="rgb(25,179,102)" stroke-width="5" fill-opacity="0.0"></path><path d="
M 399.5 79.75575286112627 C
382.25 109.6336292916894
399.5 139.51150572225254
434 139.51150572225254
" stroke="rgb(25,179,102)" stroke-width="5" fill-opacity="0.0"></path><path d="
M 399.5 79.75575286112627 C
369.6221235694369 131.50575286112627
369.6221235694369 147.5172585833788
399.5 199.2672585833788
" stroke="rgb(25,179,102)" stroke-width="5" fill-opacity="0.0"></path><path d="
M 399.5 79.75575286112627 C
365 139.51150572225254
365 139.51150572225254
330.5 199.2672585833788
" stroke="rgb(25,179,102)" stroke-width="5" fill-opacity="0.0"></path><path d="
M 158 139.51150572225254 C
98.24424713887373 139.51150572225254
84.37787643056313 147.5172585833788
54.5 199.2672585833788
" stroke="rgb(25,179,102)" stroke-width="5" fill-opacity="0.0"></path><path d="
M 158 139.51150572225254 C
227 139.51150572225254
227 139.51150572225254
296 139.51150572225254
" stroke="rgb(25,179,102)" stroke-width="5" fill-opacity="0.0"></path><path d="
M 158 139.51150572225254 C
217.75575286112627 139.51150572225254
231.62212356943687 147.5172585833788
261.5 199.2672585833788
" stroke="rgb(25,179,102)" stroke-width="5" fill-opacity="0.0"></path><path d="
M 158 139.51150572225254 C
192.5 139.51150572225254
209.75 169.38938215281567
192.5 199.2672585833788
" stroke="rgb(25,179,102)" stroke-width="5" fill-opacity="0.0"></path><path d="
M 123.5 199.2672585833788 C
140.75 229.14513501394194
175.25 229.14513501394194
192.5 199.2672585833788
" stroke="rgb(25,179,102)" stroke-width="5" fill-opacity="0.0"></path><path d="
M 123.5 199.2672585833788 C
153.37787643056313 251.0172585833788
167.24424713887373 259.0230114445051
227 259.0230114445051
" stroke="rgb(25,179,102)" stroke-width="5" fill-opacity="0.0"></path><path d="
M 123.5 199.2672585833788 C
158 259.0230114445051
158 259.0230114445051
192.5 318.77876430563134
" stroke="rgb(25,179,102)" stroke-width="5" fill-opacity="0.0"></path><path d="
M 123.5 199.2672585833788 C
153.37787643056313 251.0172585833788
153.37787643056313 267.02876430563134
123.5 318.77876430563134
" stroke="rgb(25,179,102)" stroke-width="5" fill-opacity="0.0"></path><path d="
M 54.5 199.2672585833788 C
37.25 229.14513501394194
54.5 259.0230114445051
89 259.0230114445051
" stroke="rgb(25,179,102)" stroke-width="5" fill-opacity="0.0"></path><path d="
M 54.5 199.2672585833788 C
24.622123569436866 251.0172585833788
24.622123569436866 267.02876430563134
54.5 318.77876430563134
" stroke="rgb(25,179,102)" stroke-width="5" fill-opacity="0.0"></path><path d="
M 54.5 199.2672585833788 C
20 259.0230114445051
20 259.0230114445051
-14.5 318.77876430563134
" stroke="rgb(25,179,102)" stroke-width="5" fill-opacity="0.0"></path><path d="
M 296 139.51150572225254 C
261.5 139.51150572225254
244.25 169.38938215281567
261.5 199.2672585833788
" stroke="rgb(25,179,102)" stroke-width="5" fill-opacity="0.0"></path><path d="
M 296 139.51150572225254 C
236.24424713887373 139.51150572225254
222.37787643056313 147.5172585833788
192.5 199.2672585833788
" stroke="rgb(25,179,102)" stroke-width="5" fill-opacity="0.0"></path><path d="
M 296 139.51150572225254 C
365 139.51150572225254
365 139.51150572225254
434 139.51150572225254
" stroke="rgb(25,179,102)" stroke-width="5" fill-opacity="0.0"></path><path d="
M 296 139.51150572225254 C
355.75575286112627 139.51150572225254
369.6221235694369 147.5172585833788
399.5 199.2672585833788
" stroke="rgb(25,179,102)" stroke-width="5" fill-opacity="0.0"></path><path d="
M 261.5 199.2672585833788 C
244.25 169.38938215281567
209.75 169.38938215281567
192.5 199.2672585833788
" stroke="rgb(25,179,102)" stroke-width="5" fill-opacity="0.0"></path><path d="
M 261.5 199.2672585833788 C
278.75 229.14513501394194
313.25 229.14513501394194
330.5 199.2672585833788
" stroke="rgb(25,179,102)" stroke-width="5" fill-opacity="0.0"></path><path d="
M 261.5 199.2672585833788 C
291.3778764305631 251.0172585833788
305.24424713887373 259.0230114445051
365 259.0230114445051
" stroke="rgb(25,179,102)" stroke-width="5" fill-opacity="0.0"></path><path d="
M 261.5 199.2672585833788 C
296 259.0230114445051
296 259.0230114445051
330.5 318.77876430563134
" stroke="rgb(25,179,102)" stroke-width="5" fill-opacity="0.0"></path><path d="
M 261.5 199.2672585833788 C
291.3778764305631 251.0172585833788
291.3778764305631 267.02876430563134
261.5 318.77876430563134
" stroke="rgb(25,179,102)" stroke-width="5" fill-opacity="0.0"></path><path d="
M 192.5 199.2672585833788 C
162.62212356943687 251.0172585833788
148.75575286112627 259.0230114445051
89 259.0230114445051
" stroke="rgb(25,179,102)" stroke-width="5" fill-opacity="0.0"></path><path d="
M 192.5 199.2672585833788 C
175.25 229.14513501394194
192.5 259.0230114445051
227 259.0230114445051
" stroke="rgb(25,179,102)" stroke-width="5" fill-opacity="0.0"></path><path d="
M 192.5 199.2672585833788 C
162.62212356943687 251.0172585833788
162.62212356943687 267.02876430563134
192.5 318.77876430563134
" stroke="rgb(25,179,102)" stroke-width="5" fill-opacity="0.0"></path><path d="
M 192.5 199.2672585833788 C
158 259.0230114445051
158 259.0230114445051
123.5 318.77876430563134
" stroke="rgb(25,179,102)" stroke-width="5" fill-opacity="0.0"></path><path d="
M 434 139.51150572225254 C
374.24424713887373 139.51150572225254
360.3778764305631 147.5172585833788
330.5 199.2672585833788
" stroke="rgb(25,179,102)" stroke-width="5" fill-opacity="0.0"></path><path d="
M 399.5 199.2672585833788 C
382.25 169.38938215281567
347.75 169.38938215281567
330.5 199.2672585833788
" stroke="rgb(25,179,102)" stroke-width="5" fill-opacity="0.0"></path><path d="
M 399.5 199.2672585833788 C
416.75 229.14513501394194
399.5 259.0230114445051
365 259.0230114445051
" stroke="rgb(25,179,102)" stroke-width="5" fill-opacity="0.0"></path><path d="
M 399.5 199.2672585833788 C
429.3778764305631 251.0172585833788
443.24424713887373 259.0230114445051
503 259.0230114445051
" stroke="rgb(25,179,102)" stroke-width="5" fill-opacity="0.0"></path><path d="
M 399.5 199.2672585833788 C
434 259.0230114445051
434 259.0230114445051
468.5 318.77876430563134
" stroke="rgb(25,179,102)" stroke-width="5" fill-opacity="0.0"></path><path d="
M 399.5 199.2672585833788 C
429.3778764305631 251.0172585833788
429.3778764305631 267.02876430563134
399.5 318.77876430563134
" stroke="rgb(25,179,102)" stroke-width="5" fill-opacity="0.0"></path><path d="
M 330.5 199.2672585833788 C
300.6221235694369 251.0172585833788
286.75575286112627 259.0230114445051
227 259.0230114445051
" stroke="rgb(25,179,102)" stroke-width="5" fill-opacity="0.0"></path><path d="
M 330.5 199.2672585833788 C
313.25 229.14513501394194
330.5 259.0230114445051
365 259.0230114445051
" stroke="rgb(25,179,102)" stroke-width="5" fill-opacity="0.0"></path><path d="
M 330.5 199.2672585833788 C
300.6221235694369 251.0172585833788
300.6221235694369 267.02876430563134
330.5 318.77876430563134
" stroke="rgb(25,179,102)" stroke-width="5" fill-opacity="0.0"></path><path d="
M 330.5 199.2672585833788 C
296 259.0230114445051
296 259.0230114445051
261.5 318.77876430563134
" stroke="rgb(25,179,102)" stroke-width="5" fill-opacity="0.0"></path><path d="
M 89 259.0230114445051 C
54.5 259.0230114445051
37.25 288.90088787506824
54.5 318.77876430563134
" stroke="rgb(25,179,102)" stroke-width="5" fill-opacity="0.0"></path><path d="
M 89 259.0230114445051 C
29.24424713887373 259.0230114445051
15.377876430563134 267.02876430563134
-14.5 318.77876430563134
" stroke="rgb(25,179,102)" stroke-width="5" fill-opacity="0.0"></path><path d="
M 89 259.0230114445051 C
158 259.0230114445051
158 259.0230114445051
227 259.0230114445051
" stroke="rgb(25,179,102)" stroke-width="5" fill-opacity="0.0"></path><path d="
M 89 259.0230114445051 C
148.75575286112627 259.0230114445051
162.62212356943687 267.02876430563134
192.5 318.77876430563134
" stroke="rgb(25,179,102)" stroke-width="5" fill-opacity="0.0"></path><path d="
M 54.5 318.77876430563134 C
37.25 288.90088787506824
2.75 288.90088787506824
-14.5 318.77876430563134
" stroke="rgb(25,179,102)" stroke-width="5" fill-opacity="0.0"></path><path d="
M 54.5 318.77876430563134 C
71.75 348.65664073619445
106.25 348.65664073619445
123.5 318.77876430563134
" stroke="rgb(25,179,102)" stroke-width="5" fill-opacity="0.0"></path><path d="
M 54.5 318.77876430563134 C
84.37787643056313 370.52876430563134
98.24424713887373 378.5345171667576
158 378.5345171667576
" stroke="rgb(25,179,102)" stroke-width="5" fill-opacity="0.0"></path><path d="
M 54.5 318.77876430563134 C
89 378.5345171667576
89 378.5345171667576
123.5 438.2902700278839
" stroke="rgb(25,179,102)" stroke-width="5" fill-opacity="0.0"></path><path d="
M 54.5 318.77876430563134 C
84.37787643056313 370.52876430563134
84.37787643056313 386.5402700278839
54.5 438.2902700278839
" stroke="rgb(25,179,102)" stroke-width="5" fill-opacity="0.0"></path><path d="
M 227 259.0230114445051 C
192.5 259.0230114445051
175.25 288.90088787506824
192.5 318.77876430563134
" stroke="rgb(25,179,102)" stroke-width="5" fill-opacity="0.0"></path><path d="
M 227 259.0230114445051 C
167.24424713887373 259.0230114445051
153.37787643056313 267.02876430563134
123.5 318.77876430563134
" stroke="rgb(25,179,102)" stroke-width="5" fill-opacity="0.0"></path><path d="
M 227 259.0230114445051 C
296 259.0230114445051
296 259.0230114445051
365 259.0230114445051
" stroke="rgb(25,179,102)" stroke-width="5" fill-opacity="0.0"></path><path d="
M 227 259.0230114445051 C
286.75575286112627 259.0230114445051
300.6221235694369 267.02876430563134
330.5 318.77876430563134
" stroke="rgb(25,179,102)" stroke-width="5" fill-opacity="0.0"></path><path d="
M 192.5 318.77876430563134 C
175.25 288.90088787506824
140.75 288.90088787506824
123.5 318.77876430563134
" stroke="rgb(25,179,102)" stroke-width="5" fill-opacity="0.0"></path><path d="
M 192.5 318.77876430563134 C
209.75 348.65664073619445
244.25 348.65664073619445
261.5 318.77876430563134
" stroke="rgb(25,179,102)" stroke-width="5" fill-opacity="0.0"></path><path d="
M 192.5 318.77876430563134 C
222.37787643056313 370.52876430563134
236.24424713887373 378.5345171667576
296 378.5345171667576
" stroke="rgb(25,179,102)" stroke-width="5" fill-opacity="0.0"></path><path d="
M 192.5 318.77876430563134 C
227 378.5345171667576
227 378.5345171667576
261.5 438.2902700278839
" stroke="rgb(25,179,102)" stroke-width="5" fill-opacity="0.0"></path><path d="
M 192.5 318.77876430563134 C
222.37787643056313 370.52876430563134
222.37787643056313 386.5402700278839
192.5 438.2902700278839
" stroke="rgb(25,179,102)" stroke-width="5" fill-opacity="0.0"></path><path d="
M 123.5 318.77876430563134 C
106.25 348.65664073619445
123.5 378.5345171667576
158 378.5345171667576
" stroke="rgb(25,179,102)" stroke-width="5" fill-opacity="0.0"></path><path d="
M 123.5 318.77876430563134 C
93.62212356943687 370.52876430563134
93.62212356943687 386.5402700278839
123.5 438.2902700278839
" stroke="rgb(25,179,102)" stroke-width="5" fill-opacity="0.0"></path><path d="
M 123.5 318.77876430563134 C
89 378.5345171667576
89 378.5345171667576
54.5 438.2902700278839
" stroke="rgb(25,179,102)" stroke-width="5" fill-opacity="0.0"></path><path d="
M 365 259.0230114445051 C
330.5 259.0230114445051
313.25 288.90088787506824
330.5 318.77876430563134
" stroke="rgb(25,179,102)" stroke-width="5" fill-opacity="0.0"></path><path d="
M 365 259.0230114445051 C
305.24424713887373 259.0230114445051
291.3778764305631 267.02876430563134
261.5 318.77876430563134
" stroke="rgb(25,179,102)" stroke-width="5" fill-opacity="0.0"></path><path d="
M 365 259.0230114445051 C
434 259.0230114445051
434 259.0230114445051
503 259.0230114445051
" stroke="rgb(25,179,102)" stroke-width="5" fill-opacity="0.0"></path><path d="
M 365 259.0230114445051 C
424.75575286112627 259.0230114445051
438.6221235694369 267.02876430563134
468.5 318.77876430563134
" stroke="rgb(25,179,102)" stroke-width="5" fill-opacity="0.0"></path><path d="
M 330.5 318.77876430563134 C
347.75 348.65664073619445
382.25 348.65664073619445
399.5 318.77876430563134
" stroke="rgb(25,179,102)" stroke-width="5" fill-opacity="0.0"></path><path d="
M 330.5 318.77876430563134 C
347.75 348.65664073619445
330.5 378.5345171667576
296 378.5345171667576
" stroke="rgb(25,179,102)" stroke-width="5" fill-opacity="0.0"></path><path d="
M 330.5 318.77876430563134 C
360.3778764305631 370.52876430563134
374.24424713887373 378.5345171667576
434 378.5345171667576
" stroke="rgb(25,179,102)" stroke-width="5" fill-opacity="0.0"></path><path d="
M 330.5 318.77876430563134 C
365 378.5345171667576
365 378.5345171667576
399.5 438.2902700278839
" stroke="rgb(25,179,102)" stroke-width="5" fill-opacity="0.0"></path><path d="
M 330.5 318.77876430563134 C
360.3778764305631 370.52876430563134
360.3778764305631 386.5402700278839
330.5 438.2902700278839
" stroke="rgb(25,179,102)" stroke-width="5" fill-opacity="0.0"></path><path d="
M 261.5 318.77876430563134 C
231.62212356943687 370.52876430563134
217.75575286112627 378.5345171667576
158 378.5345171667576
" stroke="rgb(25,179,102)" stroke-width="5" fill-opacity="0.0"></path><path d="
M 261.5 318.77876430563134 C
244.25 348.65664073619445
261.5 378.5345171667576
296 378.5345171667576
" stroke="rgb(25,179,102)" stroke-width="5" fill-opacity="0.0"></path><path d="
M 261.5 318.77876430563134 C
231.62212356943687 370.52876430563134
231.62212356943687 386.5402700278839
261.5 438.2902700278839
" stroke="rgb(25,179,102)" stroke-width="5" fill-opacity="0.0"></path><path d="
M 261.5 318.77876430563134 C
227 378.5345171667576
227 378.5345171667576
192.5 438.2902700278839
" stroke="rgb(25,179,102)" stroke-width="5" fill-opacity="0.0"></path><path d="
M 503 259.0230114445051 C
443.24424713887373 259.0230114445051
429.3778764305631 267.02876430563134
399.5 318.77876430563134
" stroke="rgb(25,179,102)" stroke-width="5" fill-opacity="0.0"></path><path d="
M 468.5 318.77876430563134 C
485.75 348.65664073619445
468.5 378.5345171667576
434 378.5345171667576
" stroke="rgb(25,179,102)" stroke-width="5" fill-opacity="0.0"></path><path d="
M 399.5 318.77876430563134 C
369.6221235694369 370.52876430563134
355.75575286112627 378.5345171667576
296 378.5345171667576
" stroke="rgb(25,179,102)" stroke-width="5" fill-opacity="0.0"></path><path d="
M 399.5 318.77876430563134 C
369.6221235694369 370.52876430563134
369.6221235694369 386.5402700278839
399.5 438.2902700278839
" stroke="rgb(25,179,102)" stroke-width="5" fill-opacity="0.0"></path><path d="
M 399.5 318.77876430563134 C
365 378.5345171667576
365 378.5345171667576
330.5 438.2902700278839
" stroke="rgb(25,179,102)" stroke-width="5" fill-opacity="0.0"></path><path d="
M 158 378.5345171667576 C
98.24424713887373 378.5345171667576
84.37787643056313 386.5402700278839
54.5 438.2902700278839
" stroke="rgb(25,179,102)" stroke-width="5" fill-opacity="0.0"></path><path d="
M 158 378.5345171667576 C
227 378.5345171667576
227 378.5345171667576
296 378.5345171667576
" stroke="rgb(25,179,102)" stroke-width="5" fill-opacity="0.0"></path><path d="
M 158 378.5345171667576 C
217.75575286112627 378.5345171667576
231.62212356943687 386.5402700278839
261.5 438.2902700278839
" stroke="rgb(25,179,102)" stroke-width="5" fill-opacity="0.0"></path><path d="
M 158 378.5345171667576 C
192.5 378.5345171667576
209.75 408.4123935973208
192.5 438.2902700278839
" stroke="rgb(25,179,102)" stroke-width="5" fill-opacity="0.0"></path><path d="
M 123.5 438.2902700278839 C
140.75 468.168146458447
175.25 468.168146458447
192.5 438.2902700278839
" stroke="rgb(25,179,102)" stroke-width="5" fill-opacity="0.0"></path><path d="
M 123.5 438.2902700278839 C
140.75 468.168146458447
123.5 498.04602288901015
89 498.04602288901015
" stroke="rgb(25,179,102)" stroke-width="5" fill-opacity="0.0"></path><path d="
M 123.5 438.2902700278839 C
153.37787643056313 490.0402700278839
167.24424713887373 498.04602288901015
227 498.04602288901015
" stroke="rgb(25,179,102)" stroke-width="5" fill-opacity="0.0"></path><path d="
M 123.5 438.2902700278839 C
158 498.04602288901015
158 498.04602288901015
192.5 557.8017757501364
" stroke="rgb(25,179,102)" stroke-width="5" fill-opacity="0.0"></path><path d="
M 123.5 438.2902700278839 C
153.3778764305631 490.0402700278838
153.3778764305631 506.05177575013636
123.5 557.8017757501364
" stroke="rgb(25,179,102)" stroke-width="5" fill-opacity="0.0"></path><path d="
M 54.5 438.2902700278839 C
24.62212356943688 490.0402700278838
24.62212356943688 506.05177575013636
54.5 557.8017757501364
" stroke="rgb(25,179,102)" stroke-width="5" fill-opacity="0.0"></path><path d="
M 54.5 438.2902700278839 C
20.000000000000014 498.04602288901015
19.999999999999986 498.04602288901015
-14.5 557.8017757501364
" stroke="rgb(25,179,102)" stroke-width="5" fill-opacity="0.0"></path><path d="
M 296 378.5345171667576 C
261.5 378.5345171667576
244.25 408.4123935973208
261.5 438.2902700278839
" stroke="rgb(25,179,102)" stroke-width="5" fill-opacity="0.0"></path><path d="
M 296 378.5345171667576 C
236.24424713887373 378.5345171667576
222.37787643056313 386.5402700278839
192.5 438.2902700278839
" stroke="rgb(25,179,102)" stroke-width="5" fill-opacity="0.0"></path><path d="
M 296 378.5345171667576 C
365 378.5345171667576
365 378.5345171667576
434 378.5345171667576
" stroke="rgb(25,179,102)" stroke-width="5" fill-opacity="0.0"></path><path d="
M 296 378.5345171667576 C
355.75575286112627 378.5345171667576
369.6221235694369 386.5402700278839
399.5 438.2902700278839
" stroke="rgb(25,179,102)" stroke-width="5" fill-opacity="0.0"></path><path d="
M 296 378.5345171667576 C
330.5 378.5345171667576
347.75 408.4123935973208
330.5 438.2902700278839
" stroke="rgb(25,179,102)" stroke-width="5" fill-opacity="0.0"></path><path d="
M 261.5 438.2902700278839 C
278.75 468.168146458447
313.25 468.168146458447
330.5 438.2902700278839
" stroke="rgb(25,179,102)" stroke-width="5" fill-opacity="0.0"></path><path d="
M 261.5 438.2902700278839 C
291.3778764305631 490.0402700278839
305.24424713887373 498.04602288901015
365 498.04602288901015
" stroke="rgb(25,179,102)" stroke-width="5" fill-opacity="0.0"></path><path d="
M 261.5 438.2902700278839 C
296 498.04602288901015
296 498.04602288901015
330.5 557.8017757501364
" stroke="rgb(25,179,102)" stroke-width="5" fill-opacity="0.0"></path><path d="
M 261.5 438.2902700278839 C
291.3778764305631 490.0402700278838
291.3778764305631 506.05177575013636
261.5 557.8017757501364
" stroke="rgb(25,179,102)" stroke-width="5" fill-opacity="0.0"></path><path d="
M 192.5 438.2902700278839 C
162.62212356943687 490.0402700278839
148.75575286112627 498.04602288901015
89 498.04602288901015
" stroke="rgb(25,179,102)" stroke-width="5" fill-opacity="0.0"></path><path d="
M 192.5 438.2902700278839 C
175.25 468.168146458447
192.5 498.04602288901015
227 498.04602288901015
" stroke="rgb(25,179,102)" stroke-width="5" fill-opacity="0.0"></path><path d="
M 192.5 438.2902700278839 C
162.6221235694369 490.0402700278838
162.6221235694369 506.05177575013636
192.5 557.8017757501364
" stroke="rgb(25,179,102)" stroke-width="5" fill-opacity="0.0"></path><path d="
M 192.5 438.2902700278839 C
158 498.04602288901015
158 498.04602288901015
123.5 557.8017757501364
" stroke="rgb(25,179,102)" stroke-width="5" fill-opacity="0.0"></path><path d="
M 434 378.5345171667576 C
399.5 378.5345171667576
382.25 408.4123935973208
399.5 438.2902700278839
" stroke="rgb(25,179,102)" stroke-width="5" fill-opacity="0.0"></path><path d="
M 434 378.5345171667576 C
374.24424713887373 378.5345171667576
360.3778764305631 386.5402700278839
330.5 438.2902700278839
" stroke="rgb(25,179,102)" stroke-width="5" fill-opacity="0.0"></path><path d="
M 399.5 438.2902700278839 C
416.75 468.168146458447
399.5 498.04602288901015
365 498.04602288901015
" stroke="rgb(25,179,102)" stroke-width="5" fill-opacity="0.0"></path><path d="
M 399.5 438.2902700278839 C
429.3778764305631 490.0402700278839
443.24424713887373 498.04602288901015
503 498.04602288901015
" stroke="rgb(25,179,102)" stroke-width="5" fill-opacity="0.0"></path><path d="
M 399.5 438.2902700278839 C
434 498.04602288901015
434 498.04602288901015
468.5 557.8017757501364
" stroke="rgb(25,179,102)" stroke-width="5" fill-opacity="0.0"></path><path d="
M 399.5 438.2902700278839 C
429.3778764305631 490.0402700278838
429.3778764305631 506.05177575013636
399.5 557.8017757501364
" stroke="rgb(25,179,102)" stroke-width="5" fill-opacity="0.0"></path><path d="
M 330.5 438.2902700278839 C
300.6221235694369 490.0402700278839
286.75575286112627 498.04602288901015
227 498.04602288901015
" stroke="rgb(25,179,102)" stroke-width="5" fill-opacity="0.0"></path><path d="
M 330.5 438.2902700278839 C
313.25 468.168146458447
330.5 498.04602288901015
365 498.04602288901015
" stroke="rgb(25,179,102)" stroke-width="5" fill-opacity="0.0"></path><path d="
M 330.5 438.2902700278839 C
300.6221235694369 490.0402700278838
300.6221235694369 506.05177575013636
330.5 557.8017757501364
" stroke="rgb(25,179,102)" stroke-width="5" fill-opacity="0.0"></path><path d="
M 330.5 438.2902700278839 C
296 498.04602288901015
296 498.04602288901015
261.5 557.8017757501364
" stroke="rgb(25,179,102)" stroke-width="5" fill-opacity="0.0"></path><path d="
M 89 498.04602288901015 C
29.244247138873746 498.04602288901015
15.377876430563127 506.05177575013636
-14.5 557.8017757501364
" stroke="rgb(25,179,102)" stroke-width="5" fill-opacity="0.0"></path><path d="
M 89 498.04602288901015 C
158 498.04602288901015
158 498.04602288901015
227 498.04602288901015
" stroke="rgb(25,179,102)" stroke-width="5" fill-opacity="0.0"></path><path d="
M 89 498.04602288901015 C
148.75575286112627 498.04602288901015
162.62212356943687 506.05177575013636
192.5 557.8017757501364
" stroke="rgb(25,179,102)" stroke-width="5" fill-opacity="0.0"></path><path d="
M 89 498.04602288901015 C
123.49999999999997 498.04602288901015
140.75 527.9238993195733
123.5 557.8017757501364
" stroke="rgb(25,179,102)" stroke-width="5" fill-opacity="0.0"></path><path d="
M 54.5 557.8017757501364 C
37.25 527.9238993195733
2.75 527.9238993195733
-14.5 557.8017757501364
" stroke="rgb(25,179,102)" stroke-width="5" fill-opacity="0.0"></path><path d="
M 54.5 557.8017757501364 C
71.75 587.6796521806995
106.25 587.6796521806995
123.5 557.8017757501364
" stroke="rgb(25,179,102)" stroke-width="5" fill-opacity="0.0"></path><path d="
M 227 498.04602288901015 C
167.24424713887373 498.04602288901015
153.37787643056313 506.05177575013636
123.5 557.8017757501364
" stroke="rgb(25,179,102)" stroke-width="5" fill-opacity="0.0"></path><path d="
M 227 498.04602288901015 C
296 498.04602288901015
296 498.04602288901015
365 498.04602288901015
" stroke="rgb(25,179,102)" stroke-width="5" fill-opacity="0.0"></path><path d="
M 227 498.04602288901015 C
286.75575286112627 498.04602288901015
300.6221235694369 506.05177575013636
330.5 557.8017757501364
" stroke="rgb(25,179,102)" stroke-width="5" fill-opacity="0.0"></path><path d="
M 227 498.04602288901015 C
261.5 498.04602288901015
278.75 527.9238993195733
261.5 557.8017757501364
" stroke="rgb(25,179,102)" stroke-width="5" fill-opacity="0.0"></path><path d="
M 365 498.04602288901015 C
330.5 498.04602288901015
313.25 527.9238993195733
330.5 557.8017757501364
" stroke="rgb(25,179,102)" stroke-width="5" fill-opacity="0.0"></path><path d="
M 365 498.04602288901015 C
305.24424713887373 498.04602288901015
291.3778764305631 506.05177575013636
261.5 557.8017757501364
" stroke="rgb(25,179,102)" stroke-width="5" fill-opacity="0.0"></path><path d="
M 365 498.04602288901015 C
434 498.04602288901015
434 498.04602288901015
503 498.04602288901015
" stroke="rgb(25,179,102)" stroke-width="5" fill-opacity="0.0"></path><path d="
M 365 498.04602288901015 C
424.75575286112627 498.04602288901015
438.6221235694369 506.05177575013636
468.5 557.8017757501364
" stroke="rgb(25,179,102)" stroke-width="5" fill-opacity="0.0"></path><path d="
M 330.5 557.8017757501364 C
313.25 527.9238993195733
278.75 527.9238993195733
261.5 557.8017757501364
" stroke="rgb(25,179,102)" stroke-width="5" fill-opacity="0.0"></path><path d="
M 503 498.04602288901015 C
468.5 498.04602288901015
451.25 527.9238993195733
468.5 557.8017757501364
" stroke="rgb(25,179,102)" stroke-width="5" fill-opacity="0.0"></path><path d="
M 503 498.04602288901015 C
443.24424713887373 498.04602288901015
429.3778764305631 506.05177575013636
399.5 557.8017757501364
" stroke="rgb(25,179,102)" stroke-width="5" fill-opacity="0.0"></path><path d="
M 468.5 557.8017757501364 C
451.25 527.9238993195733
416.75 527.9238993195733
399.5 557.8017757501364
" stroke="rgb(25,179,102)" stroke-width="5" fill-opacity="0.0"></path><line x1="92" y1="20" x2="86" y2="20" stroke="#040" stroke-width="5"></line><line x1="56" y1="82.35382907247958" x2="53" y2="77.15767664977295" stroke="#040" stroke-width="5"></line><line x1="-16" y1="82.35382907247958" x2="-13" y2="77.15767664977295" stroke="#040" stroke-width="5"></line><line x1="230" y1="20" x2="224" y2="20" stroke="#040" stroke-width="5"></line><line x1="194" y1="82.35382907247958" x2="191" y2="77.15767664977295" stroke="#040" stroke-width="5"></line><line x1="122" y1="82.35382907247958" x2="125" y2="77.15767664977295" stroke="#040" stroke-width="5"></line><line x1="368" y1="20" x2="362" y2="20" stroke="#040" stroke-width="5"></line><line x1="332" y1="82.35382907247958" x2="329" y2="77.15767664977295" stroke="#040" stroke-width="5"></line><line x1="260" y1="82.35382907247958" x2="263" y2="77.15767664977295" stroke="#040" stroke-width="5"></line><line x1="506" y1="20" x2="500" y2="20" stroke="#040" stroke-width="5"></line><line x1="470" y1="82.35382907247958" x2="467" y2="77.15767664977295" stroke="#040" stroke-width="5"></line><line x1="398" y1="82.35382907247958" x2="401" y2="77.15767664977295" stroke="#040" stroke-width="5"></line><line x1="161" y1="139.51150572225254" x2="155" y2="139.51150572225254" stroke="#040" stroke-width="5"></line><line x1="125" y1="201.86533479473212" x2="122" y2="196.6691823720255" stroke="#040" stroke-width="5"></line><line x1="53" y1="201.86533479473212" x2="56" y2="196.6691823720255" stroke="#040" stroke-width="5"></line><line x1="299" y1="139.51150572225254" x2="293" y2="139.51150572225254" stroke="#040" stroke-width="5"></line><line x1="263" y1="201.86533479473212" x2="260" y2="196.6691823720255" stroke="#040" stroke-width="5"></line><line x1="191" y1="201.86533479473212" x2="194" y2="196.6691823720255" stroke="#040" stroke-width="5"></line><line x1="437" y1="139.51150572225254" x2="431" y2="139.51150572225254" stroke="#040" stroke-width="5"></line><line x1="401" y1="201.86533479473212" x2="398" y2="196.6691823720255" stroke="#040" stroke-width="5"></line><line x1="329" y1="201.86533479473212" x2="332" y2="196.6691823720255" stroke="#040" stroke-width="5"></line><line x1="92" y1="259.0230114445051" x2="86" y2="259.0230114445051" stroke="#040" stroke-width="5"></line><line x1="56" y1="321.37684051698466" x2="53" y2="316.180688094278" stroke="#040" stroke-width="5"></line><line x1="-16" y1="321.37684051698466" x2="-13" y2="316.180688094278" stroke="#040" stroke-width="5"></line><line x1="230" y1="259.0230114445051" x2="224" y2="259.0230114445051" stroke="#040" stroke-width="5"></line><line x1="194" y1="321.37684051698466" x2="191" y2="316.180688094278" stroke="#040" stroke-width="5"></line><line x1="122" y1="321.37684051698466" x2="125" y2="316.180688094278" stroke="#040" stroke-width="5"></line><line x1="368" y1="259.0230114445051" x2="362" y2="259.0230114445051" stroke="#040" stroke-width="5"></line><line x1="332" y1="321.37684051698466" x2="329" y2="316.180688094278" stroke="#040" stroke-width="5"></line><line x1="260" y1="321.37684051698466" x2="263" y2="316.180688094278" stroke="#040" stroke-width="5"></line><line x1="506" y1="259.0230114445051" x2="500" y2="259.0230114445051" stroke="#040" stroke-width="5"></line><line x1="470" y1="321.37684051698466" x2="467" y2="316.180688094278" stroke="#040" stroke-width="5"></line><line x1="398" y1="321.37684051698466" x2="401" y2="316.180688094278" stroke="#040" stroke-width="5"></line><line x1="161" y1="378.5345171667576" x2="155" y2="378.5345171667576" stroke="#040" stroke-width="5"></line><line x1="125" y1="440.8883462392372" x2="122" y2="435.69219381653056" stroke="#040" stroke-width="5"></line><line x1="53" y1="440.8883462392372" x2="56" y2="435.69219381653056" stroke="#040" stroke-width="5"></line><line x1="299" y1="378.5345171667576" x2="293" y2="378.5345171667576" stroke="#040" stroke-width="5"></line><line x1="263" y1="440.8883462392372" x2="260" y2="435.69219381653056" stroke="#040" stroke-width="5"></line><line x1="191" y1="440.8883462392372" x2="194" y2="435.69219381653056" stroke="#040" stroke-width="5"></line><line x1="437" y1="378.5345171667576" x2="431" y2="378.5345171667576" stroke="#040" stroke-width="5"></line><line x1="401" y1="440.8883462392372" x2="398" y2="435.69219381653056" stroke="#040" stroke-width="5"></line><line x1="329" y1="440.8883462392372" x2="332" y2="435.69219381653056" stroke="#040" stroke-width="5"></line><line x1="92" y1="498.04602288901015" x2="86" y2="498.04602288901015" stroke="#040" stroke-width="5"></line><line x1="56" y1="560.3998519614897" x2="53" y2="555.203699538783" stroke="#040" stroke-width="5"></line><line x1="-16" y1="560.3998519614897" x2="-13" y2="555.203699538783" stroke="#040" stroke-width="5"></line><line x1="230" y1="498.04602288901015" x2="224" y2="498.04602288901015" stroke="#040" stroke-width="5"></line><line x1="194" y1="560.3998519614897" x2="191" y2="555.203699538783" stroke="#040" stroke-width="5"></line><line x1="122" y1="560.3998519614897" x2="125" y2="555.203699538783" stroke="#040" stroke-width="5"></line><line x1="368" y1="498.04602288901015" x2="362" y2="498.04602288901015" stroke="#040" stroke-width="5"></line><line x1="332" y1="560.3998519614897" x2="329" y2="555.203699538783" stroke="#040" stroke-width="5"></line><line x1="260" y1="560.3998519614897" x2="263" y2="555.203699538783" stroke="#040" stroke-width="5"></line><line x1="506" y1="498.04602288901015" x2="500" y2="498.04602288901015" stroke="#040" stroke-width="5"></line><line x1="470" y1="560.3998519614897" x2="467" y2="555.203699538783" stroke="#040" stroke-width="5"></line><line x1="398" y1="560.3998519614897" x2="401" y2="555.203699538783" stroke="#040" stroke-width="5"></line></svg>
