<svg xmlns="http://www.w3.org/2000/svg" version="1.1"><path d="
M 382 48 C
348.76068747403315 66.37520347645443
347.1757140447827 63.43203936079859
311 75
" stroke="rgb(25,52,102)" stroke-width="5" fill-opacity="0.0"></path><path d="
M 382 48 C
407.8213241516376 33.72557465058381
412.86858235225986 57.89513019176305
441 49
" stroke="rgb(25,36,102)" stroke-width="5" fill-opacity="0.0"></path><path d="
M 382 48 C
416.23259620784705 29.075694018789118
416.4791339799275 29.161066584780578
448 6
" stroke="rgb(25,36,102)" stroke-width="5" fill-opacity="0.0"></path><path d="
M 382 48 C
360.45135344775673 59.912423421222684
337.2473632066595 48.559687788541396
339 24
" stroke="rgb(25,36,102)" stroke-width="5" fill-opacity="0.0"></path><path d="
M 382 48 C
349.0557938354344 66.21206413854824
345.9164679874433 81.26975276157211
310 70
" stroke="rgb(25,36,102)" stroke-width="5" fill-opacity="0.0"></path><path d="
M 357 164 C
373.5407954739207 180.59524284516272
365.21612084442114 191.37082802725914
387 200
" stroke="rgb(25,25,102)" stroke-width="5" fill-opacity="0.0"></path><path d="
M 357 164 C
332.64237615934337 139.56219811773005
303.83999797471137 134.34719484025746
288 165
" stroke="rgb(25,36,102)" stroke-width="5" fill-opacity="0.0"></path><path d="
M 258 121 C
232.4078268051739 142.04853133038083
209.1822321592088 143.33321192570745
192 115
" stroke="rgb(25,106,102)" stroke-width="5" fill-opacity="0.0"></path><path d="
M 258 121 C
285.1006132117764 98.71083753153366
277.57800861554813 85.68739874326896
311 75
" stroke="rgb(25,74,102)" stroke-width="5" fill-opacity="0.0"></path><path d="
M 258 121 C
231.94297524268464 142.43085301140985
236.66561653292624 147.1378450192527
215 173
" stroke="rgb(25,74,102)" stroke-width="5" fill-opacity="0.0"></path><path d="
M 258 121 C
284.3189682165894 99.35370904717954
265.0547273307202 86.32537102116476
284 58
" stroke="rgb(25,74,102)" stroke-width="5" fill-opacity="0.0"></path><path d="
M 367 343 C
400.5186187433372 332.9749215694437
433.255101431662 344.5780054895185
427 379
" stroke="rgb(25,152,102)" stroke-width="5" fill-opacity="0.0"></path><path d="
M 367 343 C
335.64254395293017 352.3786966181918
332.5327936384041 353.7374796967328
313 380
" stroke="rgb(25,106,102)" stroke-width="5" fill-opacity="0.0"></path><path d="
M 367 343 C
396.20137232772225 334.2661661237612
411.20127580431824 358.81143790081995
407 389
" stroke="rgb(25,152,102)" stroke-width="5" fill-opacity="0.0"></path><path d="
M 367 343 C
326.5195878498467 355.10728013030666
330.10381251649636 376.5382158746643
288 373
" stroke="rgb(25,106,102)" stroke-width="5" fill-opacity="0.0"></path><path d="
M 18 436 C
48.424936869223025 435.09268720730205
50.52743989926435 436.0234337524062
77 421
" stroke="rgb(25,52,102)" stroke-width="5" fill-opacity="0.0"></path><path d="
M 339 223 C
301.05830072178173 232.09271443966276
302.0413754649828 207.895095102689
272 183
" stroke="rgb(25,74,102)" stroke-width="5" fill-opacity="0.0"></path><path d="
M 339 223 C
375.19084079615874 214.32687815910018
378.76265399457867 213.24094648933504
403 185
" stroke="rgb(25,52,102)" stroke-width="5" fill-opacity="0.0"></path><path d="
M 494 51 C
450.5634978159501 64.87516767520394
447.6882220245954 35.932871883530865
403 45
" stroke="rgb(25,0,102)" stroke-width="5" fill-opacity="0.0"></path><path d="
M 389 29 C
360.51280856218165 64.19204347555126
354.1256974434931 61.209633071876134
311 75
" stroke="rgb(25,52,102)" stroke-width="5" fill-opacity="0.0"></path><path d="
M 7 15 C
27.058575071898684 -2.3465721710372733
44.66178914300866 -4.633060063395401
60 17
" stroke="rgb(25,52,102)" stroke-width="5" fill-opacity="0.0"></path><path d="
M 347 178 C
366.85933233482746 189.25197401413976
365.77889918609964 191.5937594463234
387 200
" stroke="rgb(25,17,102)" stroke-width="5" fill-opacity="0.0"></path><path d="
M 60 17 C
82.74178650577583 49.075086071992274
72.25487787335734 55.74550311395848
70 95
" stroke="rgb(25,74,102)" stroke-width="5" fill-opacity="0.0"></path><path d="
M 60 17 C
76.48661583173909 40.25277399401307
76.62292260014212 54.69099948763924
105 52
" stroke="rgb(25,74,102)" stroke-width="5" fill-opacity="0.0"></path><path d="
M 60 17 C
81.06359674816078 46.708162043971534
95.9468729532564 35.311361117031666
112 68
" stroke="rgb(25,74,102)" stroke-width="5" fill-opacity="0.0"></path><path d="
M 344 131 C
358.7102947318732 168.89600544782292
349.20626783746326 185.02890086779078
387 200
" stroke="rgb(25,21,102)" stroke-width="5" fill-opacity="0.0"></path><path d="
M 344 131 C
350.3739189280427 147.42020576907424
344.9572547875721 148.65088758546284
348 166
" stroke="rgb(25,25,102)" stroke-width="5" fill-opacity="0.0"></path><path d="
M 344 131 C
328.68458596879447 91.54511319173818
302.0117393988333 112.85235101169673
278 78
" stroke="rgb(25,17,102)" stroke-width="5" fill-opacity="0.0"></path><path d="
M 344 131 C
351.60784708456146 150.5989964727261
357.9038321103901 148.3791026233064
362 169
" stroke="rgb(25,17,102)" stroke-width="5" fill-opacity="0.0"></path><path d="
M 344 131 C
331.3643664505363 98.448644194079
343.3161707117873 80.45383992143769
310 70
" stroke="rgb(25,25,102)" stroke-width="5" fill-opacity="0.0"></path><path d="
M 399 308 C
354.04173938550423 300.26987694023705
360.4755922334384 281.81567515367203
317 268
" stroke="rgb(25,74,102)" stroke-width="5" fill-opacity="0.0"></path><path d="
M 399 308 C
442.6427649597293 315.5039367447913
449.25451794336794 321.1576895288037
487 298
" stroke="rgb(25,74,102)" stroke-width="5" fill-opacity="0.0"></path><path d="
M 399 308 C
432.68176813055743 313.79124300986996
433.71316642893385 314.38519431328655
463 332
" stroke="rgb(25,74,102)" stroke-width="5" fill-opacity="0.0"></path><path d="
M 399 308 C
364.0933000250291 301.998142216166
340.134273672851 327.6277879257427
352 361
" stroke="rgb(25,106,102)" stroke-width="5" fill-opacity="0.0"></path><path d="
M 399 308 C
366.1171226717939 302.3461182698833
351.33806667068797 306.7234042547834
341 275
" stroke="rgb(25,87,102)" stroke-width="5" fill-opacity="0.0"></path><path d="
M 387 200 C
351.82721180978217 186.06712625026432
355.06117034524607 177.73360966430783
333 147
" stroke="rgb(25,17,102)" stroke-width="5" fill-opacity="0.0"></path><path d="
M 387 200 C
362.9484407433138 190.47253982836384
352.4689334014112 191.48094649446426
348 166
" stroke="rgb(25,25,102)" stroke-width="5" fill-opacity="0.0"></path><path d="
M 70 120 C
53.688017383973005 154.13457518608416
37.679088096980124 141.99569160127297
16 173
" stroke="rgb(25,152,102)" stroke-width="5" fill-opacity="0.0"></path><path d="
M 70 120 C
87.53146729168654 83.31352218322772
91.14398711236586 80.17219595819203
128 63
" stroke="rgb(25,152,102)" stroke-width="5" fill-opacity="0.0"></path><path d="
M 70 120 C
84.49399882699454 89.66975110548744
94.48514460381708 83.40106410757242
128 86
" stroke="rgb(25,152,102)" stroke-width="5" fill-opacity="0.0"></path><path d="
M 70 120 C
58.37237906784787 144.33204536117293
77.75233914689687 152.6996439732316
60 173
" stroke="rgb(25,217,102)" stroke-width="5" fill-opacity="0.0"></path><path d="
M 290 249 C
263.18304517591156 227.61423524952173
259.8766073340748 231.6147074414708
235 208
" stroke="rgb(25,52,102)" stroke-width="5" fill-opacity="0.0"></path><path d="
M 290 249 C
317.094740650905 270.60729110879464
330.47583445000765 265.1712114793286
338 299
" stroke="rgb(25,74,102)" stroke-width="5" fill-opacity="0.0"></path><path d="
M 290 249 C
323.44788816004444 275.6737469740035
313.5025119064604 287.67997843052257
350 310
" stroke="rgb(25,52,102)" stroke-width="5" fill-opacity="0.0"></path><path d="
M 363 438 C
360.8399676868009 398.6860805769008
329.1041701606566 416.4757917658455
303 387
" stroke="rgb(25,217,102)" stroke-width="5" fill-opacity="0.0"></path><path d="
M 363 438 C
360.86642914722967 399.16769546606577
365.0288680662041 397.6435341760787
352 361
" stroke="rgb(25,152,102)" stroke-width="5" fill-opacity="0.0"></path><path d="
M 49 350 C
28.919844552888193 377.509768396332
32.49039558527393 390.80889618365137
53 418
" stroke="rgb(25,179,102)" stroke-width="5" fill-opacity="0.0"></path><path d="
M 49 350 C
59.87120122099174 335.1064784549554
59.26714534079434 331.0542918035555
77 326
" stroke="rgb(25,152,102)" stroke-width="5" fill-opacity="0.0"></path><path d="
M 49 350 C
32.40530786348589 372.73469139650496
40.75195379591598 385.4483600453241
61 405
" stroke="rgb(25,179,102)" stroke-width="5" fill-opacity="0.0"></path><path d="
M 49 350 C
62.34704149785828 331.7145827705669
62.56662873461234 331.4422147305445
80 317
" stroke="rgb(25,217,102)" stroke-width="5" fill-opacity="0.0"></path><path d="
M 427 379 C
432.82784666973026 346.92920014726616
433.72113651164284 340.2112886534927
462 324
" stroke="rgb(25,217,102)" stroke-width="5" fill-opacity="0.0"></path><path d="
M 427 379 C
433.225005565067 344.7436238677398
404.6456397941437 335.54606843518184
370 339
" stroke="rgb(25,152,102)" stroke-width="5" fill-opacity="0.0"></path><path d="
M 138 356 C
139.75530366077385 394.61889316200654
149.23205294404187 394.573580340099
145 433
" stroke="rgb(25,106,102)" stroke-width="5" fill-opacity="0.0"></path><path d="
M 138 356 C
136.2292024765961 317.0402223295473
146.02274609207205 292.6758734210348
108 284
" stroke="rgb(25,125,102)" stroke-width="5" fill-opacity="0.0"></path><path d="
M 138 356 C
136.45672867251753 322.04608544497745
109.68715968103587 316.6833701379488
77 326
" stroke="rgb(25,125,102)" stroke-width="5" fill-opacity="0.0"></path><path d="
M 138 356 C
136.34645127279504 319.61984364235417
110.69741606716366 316.56494675433737
127 284
" stroke="rgb(25,152,102)" stroke-width="5" fill-opacity="0.0"></path><path d="
M 138 356 C
139.87896888741363 397.3396840326596
153.29082939214842 395.08281808451966
177 429
" stroke="rgb(25,106,102)" stroke-width="5" fill-opacity="0.0"></path><path d="
M 138 356 C
139.08806490061488 379.93879935945097
140.24887229711658 382.8637891970923
157 400
" stroke="rgb(25,125,102)" stroke-width="5" fill-opacity="0.0"></path><path d="
M 145 433 C
147.70375944778735 408.45026100243626
137.66005494502994 409.2792106810125
127 387
" stroke="rgb(25,87,102)" stroke-width="5" fill-opacity="0.0"></path><path d="
M 145 433 C
148.56415075314302 400.6380342159369
160.67744475102216 386.1452340915519
133 369
" stroke="rgb(25,74,102)" stroke-width="5" fill-opacity="0.0"></path><path d="
M 216 70 C
213.85241131812967 48.60168551372556
211.56101203602088 47.80666743925346
217 27
" stroke="rgb(25,152,102)" stroke-width="5" fill-opacity="0.0"></path><path d="
M 216 70 C
212.6453592386883 36.574764243725284
219.70944916403775 35.85224883986098
233 5
" stroke="rgb(25,106,102)" stroke-width="5" fill-opacity="0.0"></path><path d="
M 216 70 C
219.68268601129787 106.69383904338972
196.7611408929438 120.93573163779227
160 118
" stroke="rgb(25,106,102)" stroke-width="5" fill-opacity="0.0"></path><path d="
M 216 70 C
219.8215533423213 108.07749637320964
224.30445270323372 107.66530190240044
239 143
" stroke="rgb(25,106,102)" stroke-width="5" fill-opacity="0.0"></path><path d="
M 158 63 C
119.41711688700833 74.46128835206682
123.63256750877323 113.27549868472639
86 99
" stroke="rgb(25,106,102)" stroke-width="5" fill-opacity="0.0"></path><path d="
M 158 63 C
121.34062070424531 73.88989943250131
95.2359887288545 76.19423094200957
101 114
" stroke="rgb(25,152,102)" stroke-width="5" fill-opacity="0.0"></path><path d="
M 158 63 C
117.31877458820375 75.08461414339006
117.2373502057186 80.2400040157973
88 111
" stroke="rgb(25,152,102)" stroke-width="5" fill-opacity="0.0"></path><path d="
M 192 115 C
170.78277575374105 80.01315396775581
144.79131090234594 91.74157534560676
141 51
" stroke="rgb(25,125,102)" stroke-width="5" fill-opacity="0.0"></path><path d="
M 192 115 C
169.92110598539918 78.5922750080148
185.4158078128102 72.92857968597866
178 31
" stroke="rgb(25,152,102)" stroke-width="5" fill-opacity="0.0"></path><path d="
M 192 115 C
200.99998820933 129.8408292299292
200.1837437282368 131.95961560057108
215 141
" stroke="rgb(25,125,102)" stroke-width="5" fill-opacity="0.0"></path><path d="
M 127 307 C
157.45518759382304 305.06827832619507
155.81513875992593 320.035217864982
177 342
" stroke="rgb(25,74,102)" stroke-width="5" fill-opacity="0.0"></path><path d="
M 127 307 C
92.55473003395096 309.1848059332583
63.176408954303675 280.52504415912165
84 253
" stroke="rgb(25,74,102)" stroke-width="5" fill-opacity="0.0"></path><path d="
M 158 342 C
143.7097261750497 306.4783435914379
145.32895717061066 292.5175675256915
108 284
" stroke="rgb(25,125,102)" stroke-width="5" fill-opacity="0.0"></path><path d="
M 158 342 C
146.78918951897634 314.13303517857446
138.2863831749522 301.6555745457849
161 282
" stroke="rgb(25,152,102)" stroke-width="5" fill-opacity="0.0"></path><path d="
M 158 342 C
172.28174195359617 377.5004485432352
165.74910376882224 383.59480383806505
149 418
" stroke="rgb(25,106,102)" stroke-width="5" fill-opacity="0.0"></path><path d="
M 158 342 C
174.61805390961933 383.3078719405513
151.4901638168229 392.50687382660306
177 429
" stroke="rgb(25,106,102)" stroke-width="5" fill-opacity="0.0"></path><path d="
M 158 342 C
171.62407966238248 375.8656825319239
181.58252265312063 393.8375504741578
217 385
" stroke="rgb(25,106,102)" stroke-width="5" fill-opacity="0.0"></path><path d="
M 487 2 C
460.5162049667102 21.48996153497213
472.352363878037 39.08640936596838
441 49
" stroke="rgb(25,25,102)" stroke-width="5" fill-opacity="0.0"></path><path d="
M 141 51 C
144.3819883745 87.34297944080461
120.12708597541712 111.94573299687926
86 99
" stroke="rgb(25,106,102)" stroke-width="5" fill-opacity="0.0"></path><path d="
M 141 51 C
144.7503287071424 91.30117907193764
144.41483324667155 100.41047645143611
178 123
" stroke="rgb(25,106,102)" stroke-width="5" fill-opacity="0.0"></path><path d="
M 141 51 C
144.45730631315354 88.15234895746201
95.37612709676253 77.113389237174
101 114
" stroke="rgb(25,152,102)" stroke-width="5" fill-opacity="0.0"></path><path d="
M 108 284 C
74.4635468724816 276.34779040892363
82.13524569695217 259.2709406320998
50 247
" stroke="rgb(25,106,102)" stroke-width="5" fill-opacity="0.0"></path><path d="
M 108 284 C
133.85435709046584 289.8993405935476
140.9470754351115 299.353103941223
161 282
" stroke="rgb(25,152,102)" stroke-width="5" fill-opacity="0.0"></path><path d="
M 108 284 C
151.94005149644676 294.0260597689026
145.7122617267142 309.56040330487497
177 342
" stroke="rgb(25,106,102)" stroke-width="5" fill-opacity="0.0"></path><path d="
M 108 284 C
135.31578594395023 290.2328034033083
152.84998213647742 305.10265156503186
140 330
" stroke="rgb(25,152,102)" stroke-width="5" fill-opacity="0.0"></path><path d="
M 108 284 C
66.70282444854413 274.57698076664195
65.83227784730789 288.3433844856688
24 295
" stroke="rgb(25,125,102)" stroke-width="5" fill-opacity="0.0"></path><path d="
M 326 492 C
343.0214562447673 470.910428470273
348.9877696104272 474.1844246038323
359 449
" stroke="rgb(25,74,102)" stroke-width="5" fill-opacity="0.0"></path><path d="
M 70 95 C
71.5091352698091 68.72791384877443
64.09036737151267 69.3421919047463
57 44
" stroke="rgb(25,106,102)" stroke-width="5" fill-opacity="0.0"></path><path d="
M 70 95 C
67.64855714538791 135.935567865873
95.90044335602995 126.8267974177337
120 160
" stroke="rgb(25,106,102)" stroke-width="5" fill-opacity="0.0"></path><path d="
M 485 233 C
512.620134327106 250.15745260091416
514.7150091492795 280.99622783452577
487 298
" stroke="rgb(25,52,102)" stroke-width="5" fill-opacity="0.0"></path><path d="
M 485 233 C
447.01151821097096 209.4017955902444
469.59844664852204 190.34857992587956
445 153
" stroke="rgb(25,36,102)" stroke-width="5" fill-opacity="0.0"></path><path d="
M 485 233 C
451.999727070235 212.50043935687845
434.0478623264842 204.55269571851517
444 167
" stroke="rgb(25,36,102)" stroke-width="5" fill-opacity="0.0"></path><path d="
M 487 400 C
456.10284850988063 381.4159738001526
493.89745255388306 350.58352565259196
463 332
" stroke="rgb(25,52,102)" stroke-width="5" fill-opacity="0.0"></path><path d="
M 487 400 C
455.00529185025556 380.75581515333323
452.79737914250984 384.6088475588728
417 374
" stroke="rgb(25,43,102)" stroke-width="5" fill-opacity="0.0"></path><path d="
M 217 27 C
210.3638804460234 52.38625449461439
198.2256444930949 53.1540857479624
172 54
" stroke="rgb(25,152,102)" stroke-width="5" fill-opacity="0.0"></path><path d="
M 217 27 C
206.0575353717123 68.8600342553452
182.24735661017957 57.81131778215365
169 99
" stroke="rgb(25,217,102)" stroke-width="5" fill-opacity="0.0"></path><path d="
M 233 5 C
243.92476549081283 -20.360392326830148
270.3295826913758 -21.219244853176875
288 0
" stroke="rgb(25,74,102)" stroke-width="5" fill-opacity="0.0"></path><path d="
M 272 183 C
298.0571535453748 204.59339596063487
304.5996046442792 203.44642911287244
338 198
" stroke="rgb(25,74,102)" stroke-width="5" fill-opacity="0.0"></path><path d="
M 272 183 C
292.0785006150604 199.63892463625632
310.5427215392864 201.336106563831
324 179
" stroke="rgb(25,74,102)" stroke-width="5" fill-opacity="0.0"></path><path d="
M 272 183 C
244.74189384481434 160.41138231691392
245.21995477699065 159.43920641667208
215 141
" stroke="rgb(25,106,102)" stroke-width="5" fill-opacity="0.0"></path><path d="
M 272 183 C
303.0028640894922 208.69187455691926
293.56875170048914 217.24045594243827
310 254
" stroke="rgb(25,74,102)" stroke-width="5" fill-opacity="0.0"></path><path d="
M 272 183 C
304.6876981588596 210.08808574032668
289.1309207859074 222.97556520781933
317 255
" stroke="rgb(25,74,102)" stroke-width="5" fill-opacity="0.0"></path><path d="
M 272 183 C
252.0362451892976 166.45616447560732
248.9564950530328 166.93988734850132
239 143
" stroke="rgb(25,87,102)" stroke-width="5" fill-opacity="0.0"></path><path d="
M 172 54 C
191.68747684052414 53.36497586358861
188.51211429917274 40.86745722051655
208 38
" stroke="rgb(25,152,102)" stroke-width="5" fill-opacity="0.0"></path><path d="
M 172 54 C
138.50249882042897 55.08046967779596
138.36523542323914 48.835973269419604
105 52
" stroke="rgb(25,106,102)" stroke-width="5" fill-opacity="0.0"></path><path d="
M 172 54 C
149.55616067719626 54.72393124823302
148.3545750020866 53.5162625255424
128 63
" stroke="rgb(25,125,102)" stroke-width="5" fill-opacity="0.0"></path><path d="
M 157 261 C
120.50354996430534 251.4863711028839
102.27401637005738 270.52690586476103
98 308
" stroke="rgb(25,106,102)" stroke-width="5" fill-opacity="0.0"></path><path d="
M 157 261 C
123.45122093971484 252.25474851338328
97.98636668246994 230.57584477031284
119 203
" stroke="rgb(25,106,102)" stroke-width="5" fill-opacity="0.0"></path><path d="
M 338 117 C
303.44605056925303 107.71158900901865
298.29985387965684 107.4646556481589
278 78
" stroke="rgb(25,17,102)" stroke-width="5" fill-opacity="0.0"></path><path d="
M 338 117 C
369.8430756969863 125.55970385912974
395.0091019541764 96.84954040580007
381 67
" stroke="rgb(25,17,102)" stroke-width="5" fill-opacity="0.0"></path><path d="
M 338 117 C
369.4785537143885 125.46171708640492
369.6845158506238 146.58218364621337
361 178
" stroke="rgb(25,25,102)" stroke-width="5" fill-opacity="0.0"></path><path d="
M 280 308 C
312.7388809811267 295.5836530290259
320.12877707859076 291.732267760352
350 310
" stroke="rgb(25,43,102)" stroke-width="5" fill-opacity="0.0"></path><path d="
M 280 308 C
311.74923384856817 295.95898052368767
314.1999245753177 303.90609940259685
346 292
" stroke="rgb(25,43,102)" stroke-width="5" fill-opacity="0.0"></path><path d="
M 280 308 C
253.20484415682955 318.16216627202135
244.78405882650074 319.15710959978156
238 347
" stroke="rgb(25,36,102)" stroke-width="5" fill-opacity="0.0"></path><path d="
M 280 308 C
308.87970703868746 297.0472596415516
322.6043295991449 282.1980650995085
310 254
" stroke="rgb(25,52,102)" stroke-width="5" fill-opacity="0.0"></path><path d="
M 478 406 C
445.19055800555554 395.52190303474976
450.0223485724692 383.78644443903625
417 374
" stroke="rgb(25,36,102)" stroke-width="5" fill-opacity="0.0"></path><path d="
M 98 308 C
94.32055895627639 340.26006375700086
95.2778131038719 340.60369750723237
87 372
" stroke="rgb(25,106,102)" stroke-width="5" fill-opacity="0.0"></path><path d="
M 98 308 C
103.01821010400613 264.00207314711236
118.96502815510136 262.90417412744165
108 220
" stroke="rgb(25,106,102)" stroke-width="5" fill-opacity="0.0"></path><path d="
M 98 308 C
101.01207739482575 281.59114940464883
98.19668797275986 279.0762757960705
113 257
" stroke="rgb(25,152,102)" stroke-width="5" fill-opacity="0.0"></path><path d="
M 98 308 C
93.23176106928837 349.80626624681577
108.83888572157773 349.04378933341627
127 387
" stroke="rgb(25,106,102)" stroke-width="5" fill-opacity="0.0"></path><path d="
M 98 308 C
93.12193308612503 350.76919993621294
108.19298545150774 353.3606205267195
94 394
" stroke="rgb(25,125,102)" stroke-width="5" fill-opacity="0.0"></path><path d="
M 203 396 C
204.39032097209818 366.0656216434257
197.80322418205682 363.56909510459553
177 342
" stroke="rgb(25,74,102)" stroke-width="5" fill-opacity="0.0"></path><path d="
M 203 396 C
201.15741651801312 435.67183996378174
198.50925104252929 435.7011012883517
188 474
" stroke="rgb(25,61,102)" stroke-width="5" fill-opacity="0.0"></path><path d="
M 437 200 C
423.36439585637197 231.86016791604015
409.8379432051864 221.9341535691495
387 248
" stroke="rgb(25,52,102)" stroke-width="5" fill-opacity="0.0"></path><path d="
M 387 248 C
375.202241502824 261.4652476561819
375.7329002529788 261.97433353672574
366 277
" stroke="rgb(25,74,102)" stroke-width="5" fill-opacity="0.0"></path><path d="
M 387 248 C
367.1833726034288 270.6174993893105
374.1616278533197 281.4561526637035
346 292
" stroke="rgb(25,52,102)" stroke-width="5" fill-opacity="0.0"></path><path d="
M 387 248 C
363.53367335387674 274.7830452663144
361.61955010922526 273.6468724225979
343 304
" stroke="rgb(25,74,102)" stroke-width="5" fill-opacity="0.0"></path><path d="
M 387 248 C
363.8199581279596 274.45629714851367
340.09105810619474 281.5339977300131
317 255
" stroke="rgb(25,61,102)" stroke-width="5" fill-opacity="0.0"></path><path d="
M 53 418 C
74.76205370440213 446.8515687366687
104.03571322380866 430.76289692259775
123 400
" stroke="rgb(25,217,102)" stroke-width="5" fill-opacity="0.0"></path><path d="
M 86 99 C
117.74833803669681 111.04338124895291
118.05943712660999 116.01891699242863
152 115
" stroke="rgb(25,87,102)" stroke-width="5" fill-opacity="0.0"></path><path d="
M 86 99 C
121.71668907258497 112.54873136837135
121.92110140921753 114.95903270111235
160 118
" stroke="rgb(25,87,102)" stroke-width="5" fill-opacity="0.0"></path><path d="
M 134 176 C
117.19950891924191 149.0001203809097
120.21416284523697 115.95423077443861
152 115
" stroke="rgb(25,106,102)" stroke-width="5" fill-opacity="0.0"></path><path d="
M 134 176 C
115.44682371216813 146.18339976401347
106.29300672847425 148.71648138524878
101 114
" stroke="rgb(25,152,102)" stroke-width="5" fill-opacity="0.0"></path><path d="
M 134 176 C
157.30879987523645 213.45930923517113
159.89732612977303 211.84077242149317
189 245
" stroke="rgb(25,106,102)" stroke-width="5" fill-opacity="0.0"></path><path d="
M 134 176 C
156.10414733181614 211.5233257273776
136.3014994014148 222.25032193464426
113 257
" stroke="rgb(25,152,102)" stroke-width="5" fill-opacity="0.0"></path><path d="
M 134 176 C
117.20989562260303 149.0168127346654
128.32036172419942 115.47007535400147
160 118
" stroke="rgb(25,106,102)" stroke-width="5" fill-opacity="0.0"></path><path d="
M 134 176 C
128.38393751926108 166.9744893655574
126.24787203574337 168.60023807955199
120 160
" stroke="rgb(25,125,102)" stroke-width="5" fill-opacity="0.0"></path><path d="
M 136 13 C
173.5061814704203 19.748062796677345
170.29755166079974 43.547557050624675
208 38
" stroke="rgb(25,152,102)" stroke-width="5" fill-opacity="0.0"></path><path d="
M 136 13 C
106.46998122849878 7.686997896218576
98.77400027484218 41.06817994880173
112 68
" stroke="rgb(25,106,102)" stroke-width="5" fill-opacity="0.0"></path><path d="
M 311 75 C
276.8562856030343 85.91818515956004
273.62379933642666 101.17952999005206
275 137
" stroke="rgb(25,52,102)" stroke-width="5" fill-opacity="0.0"></path><path d="
M 311 75 C
271.38293913107555 87.66840511303354
278.19979385300223 107.29237470832922
237 113
" stroke="rgb(25,61,102)" stroke-width="5" fill-opacity="0.0"></path><path d="
M 215 173 C
190.42061371015157 202.3403096373302
163.75214421444977 216.23290459166833
189 245
" stroke="rgb(25,74,102)" stroke-width="5" fill-opacity="0.0"></path><path d="
M 257 378 C
286.5591126483953 353.15027445947385
298.33228650539814 361.8344273221459
315 327
" stroke="rgb(25,61,102)" stroke-width="5" fill-opacity="0.0"></path><path d="
M 257 378 C
279.2507430584819 359.29426736678244
302.9727616478377 355.53595764777657
315 382
" stroke="rgb(25,61,102)" stroke-width="5" fill-opacity="0.0"></path><path d="
M 257 378 C
226.47547838266112 403.6613245962209
211.0368515087311 407.57043165248854
217 447
" stroke="rgb(25,74,102)" stroke-width="5" fill-opacity="0.0"></path><path d="
M 31 234 C
16.64669713567381 203.4306902779123
37.76887881588108 198.42198361452188
60 173
" stroke="rgb(25,217,102)" stroke-width="5" fill-opacity="0.0"></path><path d="
M 436 285 C
475.68199438579626 293.6220253749123
488.683194912036 308.4808629773039
486 349
" stroke="rgb(25,52,102)" stroke-width="5" fill-opacity="0.0"></path><path d="
M 436 285 C
399.51498321487986 277.07260760467204
390.84875270848363 283.13354186781845
366 311
" stroke="rgb(25,74,102)" stroke-width="5" fill-opacity="0.0"></path><path d="
M 436 285 C
391.8932227090212 275.41656653364817
388.27033207508424 276.17378673648983
346 292
" stroke="rgb(25,52,102)" stroke-width="5" fill-opacity="0.0"></path><path d="
M 470 361 C
459.0822766904779 323.00916797783026
495.05432425472765 309.8469906921843
467 282
" stroke="rgb(25,36,102)" stroke-width="5" fill-opacity="0.0"></path><path d="
M 470 361 C
460.9885453065374 329.642485999243
459.1901265703516 315.061973503289
487 298
" stroke="rgb(25,52,102)" stroke-width="5" fill-opacity="0.0"></path><path d="
M 470 361 C
481.9222338370508 402.4862668883895
501.71868753692405 400.09331068552507
497 443
" stroke="rgb(25,36,102)" stroke-width="5" fill-opacity="0.0"></path><path d="
M 317 268 C
292.3819438513069 260.17687329389366
291.03575625036547 240.34230032919757
304 218
" stroke="rgb(25,52,102)" stroke-width="5" fill-opacity="0.0"></path><path d="
M 317 268 C
278.62623061856914 255.8055822828329
275.60433751610776 257.29163242153857
246 230
" stroke="rgb(25,61,102)" stroke-width="5" fill-opacity="0.0"></path><path d="
M 317 268 C
345.989385767578 277.2122479785634
348.4737765671793 274.7187445691677
372 294
" stroke="rgb(25,52,102)" stroke-width="5" fill-opacity="0.0"></path><path d="
M 497 17 C
495.0951629672413 36.81468132165216
488.91858174203776 36.09413726895339
489 56
" stroke="rgb(25,0,102)" stroke-width="5" fill-opacity="0.0"></path><path d="
M 497 17 C
493.7986235953665 50.301669464395566
504.3265207487071 55.0109193211494
486 83
" stroke="rgb(25,0,102)" stroke-width="5" fill-opacity="0.0"></path><path d="
M 175 312 C
204.9035119504317 294.5635447114275
208.57842087161768 295.33873105214667
243 299
" stroke="rgb(25,52,102)" stroke-width="5" fill-opacity="0.0"></path><path d="
M 175 312 C
147.0207401737933 328.31444205535746
145.18267316558152 350.38216330097646
165 376
" stroke="rgb(25,74,102)" stroke-width="5" fill-opacity="0.0"></path><path d="
M 54 224 C
61.72378659811445 257.84291832254996
38.090470844441356 293.3079046784937
8 276
" stroke="rgb(25,152,102)" stroke-width="5" fill-opacity="0.0"></path><path d="
M 54 224 C
62.57504727729602 261.57284344033786
62.06009048542126 288.9436386962512
24 295
" stroke="rgb(25,152,102)" stroke-width="5" fill-opacity="0.0"></path><path d="
M 54 224 C
48.28703173173893 198.967780890104
43.09797302490473 192.32799741652383
60 173
" stroke="rgb(25,217,102)" stroke-width="5" fill-opacity="0.0"></path><path d="
M 288 165 C
268.5525728548908 202.6337292523033
256.53873744846084 199.69137248470992
215 208
" stroke="rgb(25,52,102)" stroke-width="5" fill-opacity="0.0"></path><path d="
M 8 244 C
19.58041707874586 201.54833406941145
31.033605800130054 206.12397933609034
60 173
" stroke="rgb(25,217,102)" stroke-width="5" fill-opacity="0.0"></path><path d="
M 315 327 C
303.9409412927463 350.11270690571564
307.40054141364106 363.92670419465145
330 376
" stroke="rgb(25,61,102)" stroke-width="5" fill-opacity="0.0"></path><path d="
M 315 327 C
330.41340054275184 294.78700442820167
346.58551289681634 306.9721152159856
366 277
" stroke="rgb(25,74,102)" stroke-width="5" fill-opacity="0.0"></path><path d="
M 315 327 C
325.09010954974696 305.91233324253
324.1068335189254 300.196905601015
346 292
" stroke="rgb(25,52,102)" stroke-width="5" fill-opacity="0.0"></path><path d="
M 315 327 C
330.7910128184022 293.9978195543225
324.92982618772345 287.4006031383322
310 254
" stroke="rgb(25,61,102)" stroke-width="5" fill-opacity="0.0"></path><path d="
M 315 327 C
330.54428628955264 294.5134618072589
340.64204779309046 282.1671414791698
317 255
" stroke="rgb(25,61,102)" stroke-width="5" fill-opacity="0.0"></path><path d="
M 34 409 C
64.11876725620522 416.00784267564137
83.80418910158838 423.1940994059387
94 394
" stroke="rgb(25,106,102)" stroke-width="5" fill-opacity="0.0"></path><path d="
M 50 247 C
88.22553055731464 261.59653430139514
94.1995780652348 235.54518507948015
119 203
" stroke="rgb(25,106,102)" stroke-width="5" fill-opacity="0.0"></path><path d="
M 338 299 C
347.34975557777545 341.0366753042609
297.18232708720205 342.7950190412934
315 382
" stroke="rgb(25,74,102)" stroke-width="5" fill-opacity="0.0"></path><path d="
M 338 299 C
347.20238607454144 340.3740992715864
338.2948760213338 345.99015955542643
313 380
" stroke="rgb(25,87,102)" stroke-width="5" fill-opacity="0.0"></path><path d="
M 338 299 C
344.8999751351643 330.0224167842242
341.3531856433297 331.05596313028923
352 361
" stroke="rgb(25,106,102)" stroke-width="5" fill-opacity="0.0"></path><path d="
M 338 299 C
332.7073712204079 275.2042423822768
333.0029370948515 273.38901858007176
317 255
" stroke="rgb(25,74,102)" stroke-width="5" fill-opacity="0.0"></path><path d="
M 287 21 C
246.89513102649636 25.909122591472375
247.97380190518692 32.11823485296505
208 38
" stroke="rgb(25,152,102)" stroke-width="5" fill-opacity="0.0"></path><path d="
M 169 99 C
158.67466198215538 131.103541779954
168.08710425683537 134.92628561542165
151 164
" stroke="rgb(25,217,102)" stroke-width="5" fill-opacity="0.0"></path><path d="
M 169 99 C
179.5008903451179 66.35063091023335
183.97323199009682 64.77233334539508
178 31
" stroke="rgb(25,217,102)" stroke-width="5" fill-opacity="0.0"></path><path d="
M 169 99 C
180.08395663141815 64.53776116685333
172.18480058479716 43.26986630278748
208 38
" stroke="rgb(25,217,102)" stroke-width="5" fill-opacity="0.0"></path><path d="
M 152 115 C
194.49261940711398 113.72434490470232
194.89040076757396 118.83366544159543
237 113
" stroke="rgb(25,74,102)" stroke-width="5" fill-opacity="0.0"></path><path d="
M 152 115 C
124.40355729726149 115.82846252448125
103.77287353416634 137.6632507588539
120 160
" stroke="rgb(25,106,102)" stroke-width="5" fill-opacity="0.0"></path><path d="
M 338 198 C
302.19277630467855 203.83889811807066
301.76854158833066 200.92863832045407
266 207
" stroke="rgb(25,74,102)" stroke-width="5" fill-opacity="0.0"></path><path d="
M 338 198 C
370.71157747415043 192.66589284390972
381.4145947469767 210.15094988390607
403 185
" stroke="rgb(25,52,102)" stroke-width="5" fill-opacity="0.0"></path><path d="
M 338 198 C
308.02324318659157 202.88815414545925
297.061233368004 232.08830898438953
317 255
" stroke="rgb(25,61,102)" stroke-width="5" fill-opacity="0.0"></path><path d="
M 131 397 C
106.5549529386399 373.6560570132659
124.49771203501773 360.0362958410448
140 330
" stroke="rgb(25,152,102)" stroke-width="5" fill-opacity="0.0"></path><path d="
M 333 147 C
307.27247539457653 111.15876009849367
303.0306843517223 114.33132038454485
278 78
" stroke="rgb(25,14,102)" stroke-width="5" fill-opacity="0.0"></path><path d="
M 333 147 C
309.7895983380985 114.66538612116733
287.6051652299974 141.47335743800693
262 111
" stroke="rgb(25,12,102)" stroke-width="5" fill-opacity="0.0"></path><path d="
M 350 310 C
323.6879247395993 293.90886282791024
319.93013182607274 302.6909996036878
291 292
" stroke="rgb(25,43,102)" stroke-width="5" fill-opacity="0.0"></path><path d="
M 350 310 C
320.6448962942481 292.0479002224099
324.0417557740619 285.41383604053476
310 254
" stroke="rgb(25,52,102)" stroke-width="5" fill-opacity="0.0"></path><path d="
M 467 282 C
491.7132961153743 306.5306541925369
488.3008206553788 314.2551266470608
486 349
" stroke="rgb(25,36,102)" stroke-width="5" fill-opacity="0.0"></path><path d="
M 87 372 C
83.02991611381425 387.05783629664796
82.39813661918987 387.5101958143681
84 403
" stroke="rgb(25,74,102)" stroke-width="5" fill-opacity="0.0"></path><path d="
M 284 58 C
261.89781311261146 91.04532243442253
273.4737437718426 97.27380534299805
275 137
" stroke="rgb(25,52,102)" stroke-width="5" fill-opacity="0.0"></path><path d="
M 284 58 C
263.88940776824484 88.0676583738752
272.8309938913117 108.03614295524324
237 113
" stroke="rgb(25,61,102)" stroke-width="5" fill-opacity="0.0"></path><path d="
M 284 58 C
300.160930076236 33.83754277663361
306.60181138518004 22.33769489428545
288 0
" stroke="rgb(25,61,102)" stroke-width="5" fill-opacity="0.0"></path><path d="
M 161 282 C
141.19093265825256 299.14207837603465
152.0145877665959 306.7212611853914
140 330
" stroke="rgb(25,179,102)" stroke-width="5" fill-opacity="0.0"></path><path d="
M 161 282 C
127.63815550627868 310.87018067100996
113.9751707661525 288.85416955549584
80 317
" stroke="rgb(25,217,102)" stroke-width="5" fill-opacity="0.0"></path><path d="
M 8 276 C
42.415018694834835 295.7953653220689
60.04662469960307 284.66205634064744
84 253
" stroke="rgb(25,106,102)" stroke-width="5" fill-opacity="0.0"></path><path d="
M 15 402 C
34.628926051657906 427.8061090065617
48.80148515717852 437.00292975236647
77 421
" stroke="rgb(25,52,102)" stroke-width="5" fill-opacity="0.0"></path><path d="
M 304 218 C
314.99857912305356 199.0452840360524
312.6906806064318 197.7709694702821
324 179
" stroke="rgb(25,52,102)" stroke-width="5" fill-opacity="0.0"></path><path d="
M 304 218 C
289.13712951534075 243.61435302630628
267.77359542569235 250.07263167196243
246 230
" stroke="rgb(25,52,102)" stroke-width="5" fill-opacity="0.0"></path><path d="
M 304 218 C
318.926287941587 192.27635468513776
307.76117185433395 183.55954919754785
331 165
" stroke="rgb(25,52,102)" stroke-width="5" fill-opacity="0.0"></path><path d="
M 304 218 C
321.4742680377709 187.88522029726704
351.72364758996855 211.55889280004487
361 178
" stroke="rgb(25,36,102)" stroke-width="5" fill-opacity="0.0"></path><path d="
M 330 376 C
364.64122617238166 394.50636239983163
373.50933542580754 412.5037099761988
359 449
" stroke="rgb(25,74,102)" stroke-width="5" fill-opacity="0.0"></path><path d="
M 330 376 C
368.37820447904585 396.50276617836107
375.2819666085319 361.63651788740924
417 374
" stroke="rgb(25,52,102)" stroke-width="5" fill-opacity="0.0"></path><path d="
M 499 102 C
472.899022965756 135.6338965607297
454.90623347462457 125.84718634896298
444 167
" stroke="rgb(25,25,102)" stroke-width="5" fill-opacity="0.0"></path><path d="
M 89 212 C
127.74415051610491 217.99089315423066
131.1355095057903 197.7994381226294
151 164
" stroke="rgb(25,152,102)" stroke-width="5" fill-opacity="0.0"></path><path d="
M 89 212 C
114.20051347688299 215.8966807030393
127.20178686792926 235.82078259807713
113 257
" stroke="rgb(25,152,102)" stroke-width="5" fill-opacity="0.0"></path><path d="
M 89 212 C
118.91411805809214 216.62553140801418
137.79098109323579 184.48940570410247
120 160
" stroke="rgb(25,125,102)" stroke-width="5" fill-opacity="0.0"></path><path d="
M 151 164 C
138.2193072574924 185.74635355689807
134.288427338046 182.93724870489376
119 203
" stroke="rgb(25,152,102)" stroke-width="5" fill-opacity="0.0"></path><path d="
M 151 164 C
168.22924986736672 134.68442480509987
185.97308866574107 123.28874881909609
215 141
" stroke="rgb(25,152,102)" stroke-width="5" fill-opacity="0.0"></path><path d="
M 141 397 C
107.0189493009699 393.35470256495506
106.72313763498215 404.13183207541766
77 421
" stroke="rgb(25,61,102)" stroke-width="5" fill-opacity="0.0"></path><path d="
M 141 397 C
164.94580152796388 399.56877192124233
163.2020340623343 409.26130358957266
177 429
" stroke="rgb(25,74,102)" stroke-width="5" fill-opacity="0.0"></path><path d="
M 141 397 C
179.25130351641002 401.10338632052583
179.67370589732755 394.31384821439553
217 385
" stroke="rgb(25,74,102)" stroke-width="5" fill-opacity="0.0"></path><path d="
M 348 166 C
353.0260079810844 194.65727209233418
384.0515514311827 207.0784124618344
403 185
" stroke="rgb(25,36,102)" stroke-width="5" fill-opacity="0.0"></path><path d="
M 178 123 C
208.86920647939775 143.7627573152582
202.70267874476974 155.24844213710068
238 167
" stroke="rgb(25,74,102)" stroke-width="5" fill-opacity="0.0"></path><path d="
M 178 123 C
195.0708797858942 134.48194510244448
197.43802167358666 130.28426776824898
215 141
" stroke="rgb(25,106,102)" stroke-width="5" fill-opacity="0.0"></path><path d="
M 178 123 C
142.3561155065276 99.02577429371289
130.93540294447396 106.5577555795252
112 68
" stroke="rgb(25,87,102)" stroke-width="5" fill-opacity="0.0"></path><path d="
M 454 104 C
484.06285094804014 136.37630295255963
442.354404914878 152.42664287994472
462 192
" stroke="rgb(25,17,102)" stroke-width="5" fill-opacity="0.0"></path><path d="
M 454 104 C
426.1559225637984 74.01321371459075
398.38553916707997 104.04379877752723
381 67
" stroke="rgb(25,14,102)" stroke-width="5" fill-opacity="0.0"></path><path d="
M 454 104 C
465.06631670716496 115.91791233969784
465.35789810344676 115.6438799130041
477 127
" stroke="rgb(25,12,102)" stroke-width="5" fill-opacity="0.0"></path><path d="
M 101 114 C
94.76914111798891 73.13220831030304
68.13858132974765 83.8112045278788
57 44
" stroke="rgb(25,152,102)" stroke-width="5" fill-opacity="0.0"></path><path d="
M 101 114 C
96.65120430542676 85.47653639533128
101.84641630364885 75.18564975033976
128 63
" stroke="rgb(25,152,102)" stroke-width="5" fill-opacity="0.0"></path><path d="
M 101 114 C
104.75067895479249 138.60045543029796
105.37398845317028 139.86719626500064
120 160
" stroke="rgb(25,152,102)" stroke-width="5" fill-opacity="0.0"></path><path d="
M 101 114 C
106.41446921060664 149.51314577966014
83.64790792168907 145.9578763606237
60 173
" stroke="rgb(25,217,102)" stroke-width="5" fill-opacity="0.0"></path><path d="
M 77 326 C
41.73041592332048 336.05268317704457
21.362312696014 363.9596765546654
45 392
" stroke="rgb(25,125,102)" stroke-width="5" fill-opacity="0.0"></path><path d="
M 84 403 C
80.93252141954461 373.33789327848666
107.64958946853056 353.29628432867037
133 369
" stroke="rgb(25,61,102)" stroke-width="5" fill-opacity="0.0"></path><path d="
M 448 6 C
424.4195158421199 23.32659132316469
427.43342635683285 31.08694961608397
399 38
" stroke="rgb(25,25,102)" stroke-width="5" fill-opacity="0.0"></path><path d="
M 243 299 C
267.1178194305349 301.5653042541021
268.24986146294975 283.5927890150764
291 292
" stroke="rgb(25,43,102)" stroke-width="5" fill-opacity="0.0"></path><path d="
M 84 253 C
61.9062946303343 282.20390698242966
60.164663197946375 289.24525102379755
24 295
" stroke="rgb(25,106,102)" stroke-width="5" fill-opacity="0.0"></path><path d="
M 84 253 C
102.41142114138808 228.66341084797526
100.50381933968475 227.2722331271966
119 203
" stroke="rgb(25,106,102)" stroke-width="5" fill-opacity="0.0"></path><path d="
M 23 462 C
55.936840991788415 453.9741352190779
47.51640157578501 437.7322271069821
77 421
" stroke="rgb(25,74,102)" stroke-width="5" fill-opacity="0.0"></path><path d="
M 23 462 C
58.644884918576516 453.3142542553079
68.64647291562703 420.0507454205858
45 392
" stroke="rgb(25,106,102)" stroke-width="5" fill-opacity="0.0"></path><path d="
M 23 462 C
57.10893433315343 453.6885260839832
84.20477744957331 433.7100499514232
64 405
" stroke="rgb(25,74,102)" stroke-width="5" fill-opacity="0.0"></path><path d="
M 57 44 C
68.11329692550495 83.72083372042388
86.87724547700327 82.81110356998656
128 86
" stroke="rgb(25,125,102)" stroke-width="5" fill-opacity="0.0"></path><path d="
M 272 184 C
258.39738959680335 221.4295203044181
293.74836142158483 217.64227395014137
310 254
" stroke="rgb(25,52,102)" stroke-width="5" fill-opacity="0.0"></path><path d="
M 272 184 C
257.6441970383085 223.50203692627875
289.4087152176884 223.29477954561142
317 255
" stroke="rgb(25,52,102)" stroke-width="5" fill-opacity="0.0"></path><path d="
M 324 179 C
307.3814870116786 206.58305686571
297.74836896721615 201.6110234810768
266 207
" stroke="rgb(25,74,102)" stroke-width="5" fill-opacity="0.0"></path><path d="
M 324 179 C
304.3065977447721 211.68669312753713
291.94853824407704 226.2132970993285
317 255
" stroke="rgb(25,61,102)" stroke-width="5" fill-opacity="0.0"></path><path d="
M 206 353 C
247.40439101041136 361.1655621396795
245.9463339133747 369.4659982067603
288 373
" stroke="rgb(25,74,102)" stroke-width="5" fill-opacity="0.0"></path><path d="
M 462 324 C
425.0651372360977 345.1734719073586
412.8683004831655 346.8329150943621
407 389
" stroke="rgb(25,217,102)" stroke-width="5" fill-opacity="0.0"></path><path d="
M 462 324 C
435.36942429988574 339.26638260625236
438.9622018732305 354.99150798875917
449 384
" stroke="rgb(25,217,102)" stroke-width="5" fill-opacity="0.0"></path><path d="
M 149 418 C
136.4946585590515 443.6878655291812
108.86375301542274 437.0621732331283
92 414
" stroke="rgb(25,74,102)" stroke-width="5" fill-opacity="0.0"></path><path d="
M 326 433 C
363.3672067420589 424.71194472169555
364.82265055622827 397.0635499183436
352 361
" stroke="rgb(25,106,102)" stroke-width="5" fill-opacity="0.0"></path><path d="
M 326 433 C
292.17734623612415 440.5018725908253
293.71429828656346 445.5971631767462
261 457
" stroke="rgb(25,74,102)" stroke-width="5" fill-opacity="0.0"></path><path d="
M 399 38 C
442.25123818331866 27.484278645293063
441.3871745389687 6.102165695765109
485 15
" stroke="rgb(25,17,102)" stroke-width="5" fill-opacity="0.0"></path><path d="
M 266 207 C
240.85476544268874 211.26815874327568
240.0095116381347 202.99756782934497
215 208
" stroke="rgb(25,74,102)" stroke-width="5" fill-opacity="0.0"></path><path d="
M 266 207 C
304.14865243742236 200.52463767741526
300.7648263981478 189.1471380760922
331 165
" stroke="rgb(25,74,102)" stroke-width="5" fill-opacity="0.0"></path><path d="
M 266 207 C
228.894325536052 213.29832696638704
232.5852325352228 230.03778307182142
195 232
" stroke="rgb(25,106,102)" stroke-width="5" fill-opacity="0.0"></path><path d="
M 121 408 C
135.044060789627 370.39661775136096
121.59019617272304 365.66972277774494
140 330
" stroke="rgb(25,152,102)" stroke-width="5" fill-opacity="0.0"></path><path d="
M 178 31 C
184.47285248467134 67.59716082856269
165.0539297402241 88.87337620344697
128 86
" stroke="rgb(25,152,102)" stroke-width="5" fill-opacity="0.0"></path><path d="
M 366 277 C
356.3586337578037 291.88435611586334
352.27299191964903 288.8833991632337
343 304
" stroke="rgb(25,87,102)" stroke-width="5" fill-opacity="0.0"></path><path d="
M 366 277 C
342.85127062871624 312.7370442047893
337.73545587694355 320.8811418287936
352 361
" stroke="rgb(25,106,102)" stroke-width="5" fill-opacity="0.0"></path><path d="
M 486 349 C
483.5753722421212 385.61449412781394
452.18220246264525 384.4265348931194
417 374
" stroke="rgb(25,43,102)" stroke-width="5" fill-opacity="0.0"></path><path d="
M 123 400 C
141.90065110113073 369.3403296176667
123.48116043434933 362.0059047584082
140 330
" stroke="rgb(25,217,102)" stroke-width="5" fill-opacity="0.0"></path><path d="
M 123 400 C
106.67946862197533 426.4743320130823
83.37285296429067 426.6033666412953
61 405
" stroke="rgb(25,217,102)" stroke-width="5" fill-opacity="0.0"></path><path d="
M 469 76 C
451.72616716029574 43.8929182418278
438.7308259549437 37.75030507003778
403 45
" stroke="rgb(25,0,102)" stroke-width="5" fill-opacity="0.0"></path><path d="
M 238 167 C
260.59752912796154 174.52340862315276
275.91436048929216 160.7994526175629
275 137
" stroke="rgb(25,52,102)" stroke-width="5" fill-opacity="0.0"></path><path d="
M 140 330 C
123.48116043434933 362.0059047584082
131.82291841260252 374.24413537188997
157 400
" stroke="rgb(25,152,102)" stroke-width="5" fill-opacity="0.0"></path><path d="
M 140 330 C
121.92603556261614 365.01902068185495
106.99336910779654 356.79553307425897
94 394
" stroke="rgb(25,152,102)" stroke-width="5" fill-opacity="0.0"></path><path d="
M 366 311 C
337.04716127158747 343.4689563978662
338.96192484865827 345.09328921034495
313 380
" stroke="rgb(25,87,102)" stroke-width="5" fill-opacity="0.0"></path><path d="
M 366 311 C
344.3699975736359 335.2568133734727
339.47315456740023 357.2229802312784
366 376
" stroke="rgb(25,74,102)" stroke-width="5" fill-opacity="0.0"></path><path d="
M 366 311 C
348.7216146561385 330.37672314683346
343.3026100360311 336.5386957049577
352 361
" stroke="rgb(25,106,102)" stroke-width="5" fill-opacity="0.0"></path><path d="
M 88 111 C
109.52316138807025 88.35593844154539
99.6819076159064 76.19415187596155
128 63
" stroke="rgb(25,152,102)" stroke-width="5" fill-opacity="0.0"></path><path d="
M 88 111 C
65.0209979871519 135.1757205992608
56.00721083721044 121.53544050253328
27 138
" stroke="rgb(25,152,102)" stroke-width="5" fill-opacity="0.0"></path><path d="
M 88 111 C
64.56592406671993 135.65449421815958
82.3913563032624 147.3947825062869
60 173
" stroke="rgb(25,217,102)" stroke-width="5" fill-opacity="0.0"></path><path d="
M 202 442 C
227.44549644095653 432.0111706955585
254.18071066188205 451.6306655503334
244 477
" stroke="rgb(25,0,102)" stroke-width="5" fill-opacity="0.0"></path><path d="
M 370 339 C
400.9472354131539 335.9147738684445
411.2868936059677 358.1962251791909
407 389
" stroke="rgb(25,152,102)" stroke-width="5" fill-opacity="0.0"></path><path d="
M 445 153 C
456.7004341549338 170.76512990625338
452.54123199481234 172.94660902033345
462 192
" stroke="rgb(25,25,102)" stroke-width="5" fill-opacity="0.0"></path><path d="
M 127 284 C
114.14597689076594 309.67633326445343
102.11208902626522 298.68182544862833
80 317
" stroke="rgb(25,217,102)" stroke-width="5" fill-opacity="0.0"></path><path d="
M 127 284 C
146.16048425301483 245.72630350763112
152.25634195695082 234.23152349279061
195 232
" stroke="rgb(25,152,102)" stroke-width="5" fill-opacity="0.0"></path><path d="
M 246 230 C
274.163226727095 255.96310190093325
255.07017211473809 278.72229431959516
291 292
" stroke="rgb(25,52,102)" stroke-width="5" fill-opacity="0.0"></path><path d="
M 246 230 C
213.91361125920272 200.42021538999245
255.75836191892927 183.29463122792146
239 143
" stroke="rgb(25,74,102)" stroke-width="5" fill-opacity="0.0"></path><path d="
M 113 257 C
128.12972349868727 234.43694464720545
102.53441759627889 224.60751249233167
119 203
" stroke="rgb(25,152,102)" stroke-width="5" fill-opacity="0.0"></path><path d="
M 113 257 C
93.93165807073834 285.43674271200484
106.36601925715456 295.1577696072183
80 317
" stroke="rgb(25,217,102)" stroke-width="5" fill-opacity="0.0"></path><path d="
M 315 382 C
297.85558341596067 344.2764134791916
321.3332035152932 339.3206728431141
343 304
" stroke="rgb(25,74,102)" stroke-width="5" fill-opacity="0.0"></path><path d="
M 222 113 C
193.5143128350652 100.5173870226836
191.00194178322005 120.47580404512046
160 118
" stroke="rgb(25,74,102)" stroke-width="5" fill-opacity="0.0"></path><path d="
M 175 299 C
164.66864948707337 265.60070065736335
160.0868547639515 233.82271493289102
195 232
" stroke="rgb(25,106,102)" stroke-width="5" fill-opacity="0.0"></path><path d="
M 275 137 C
273.65617550003117 102.02223369462705
250.44121295496646 90.91648813656857
276 67
" stroke="rgb(25,43,102)" stroke-width="5" fill-opacity="0.0"></path><path d="
M 160 118 C
198.45864215401093 121.07129348479316
198.7838959312166 118.29427896921906
237 113
" stroke="rgb(25,74,102)" stroke-width="5" fill-opacity="0.0"></path><path d="
M 160 118 C
189.71311906676027 120.37287912134741
189.5549288539346 125.47426799240469
215 141
" stroke="rgb(25,106,102)" stroke-width="5" fill-opacity="0.0"></path><path d="
M 160 118 C
125.45453595387167 115.24121152719988
127.27630947785069 99.10682190029912
112 68
" stroke="rgb(25,87,102)" stroke-width="5" fill-opacity="0.0"></path><path d="
M 343 304 C
321.6382058960871 338.8234655464104
337.3807528884963 347.2192298963237
313 380
" stroke="rgb(25,87,102)" stroke-width="5" fill-opacity="0.0"></path><path d="
M 343 304 C
323.2388746587746 336.2140951331615
335.15360879078247 354.16539101866243
366 376
" stroke="rgb(25,74,102)" stroke-width="5" fill-opacity="0.0"></path><path d="
M 343 304 C
327.91304213141376 328.59438355136194
342.3339037401084 333.8142209400851
352 361
" stroke="rgb(25,106,102)" stroke-width="5" fill-opacity="0.0"></path><path d="
M 61 405 C
53.58490928303295 397.839942063143
51.643673947753484 399.88109107141526
45 392
" stroke="rgb(25,152,102)" stroke-width="5" fill-opacity="0.0"></path><path d="
M 313 380 C
328.8598171061919 358.6759243727156
344.30890500766077 360.6459647638376
366 376
" stroke="rgb(25,74,102)" stroke-width="5" fill-opacity="0.0"></path><path d="
M 276 67 C
300.8501513591292 43.74661363524941
309.7785036182258 26.152376185557724
288 0
" stroke="rgb(25,52,102)" stroke-width="5" fill-opacity="0.0"></path><path d="
M 238 347 C
247.04076395893955 309.89522150667466
255.17746675095074 278.7619445679979
291 292
" stroke="rgb(25,36,102)" stroke-width="5" fill-opacity="0.0"></path><path d="
M 140 379 C
178.38065522691306 383.2632504445353
179.53210933116966 394.34918011531363
217 385
" stroke="rgb(25,74,102)" stroke-width="5" fill-opacity="0.0"></path><path d="
M 208 38 C
166.5387845355703 44.10062391990654
165.98676009920223 45.3009588631006
128 63
" stroke="rgb(25,152,102)" stroke-width="5" fill-opacity="0.0"></path><path d="
M 372 294 C
340.6664184010733 268.3201116789149
329.0005994242316 306.04294995359203
291 292
" stroke="rgb(25,43,102)" stroke-width="5" fill-opacity="0.0"></path><path d="
M 372 294 C
345.9260162561506 272.63069089264985
339.13093807261896 280.4307211857215
317 255
" stroke="rgb(25,52,102)" stroke-width="5" fill-opacity="0.0"></path><path d="
M 133 369 C
164.6257697640244 388.5910869232138
155.68579606671904 398.5089404793715
177 429
" stroke="rgb(25,74,102)" stroke-width="5" fill-opacity="0.0"></path><path d="
M 133 369 C
169.34637939515937 391.51534376515565
175.51681324734096 395.35109737390263
217 385
" stroke="rgb(25,74,102)" stroke-width="5" fill-opacity="0.0"></path><path d="
M 165 376 C
142.59153049159474 347.03259600359615
106.0751049872771 359.42483782328367
94 394
" stroke="rgb(25,106,102)" stroke-width="5" fill-opacity="0.0"></path><path d="
M 165 376 C
191.9239046137268 410.8045020126842
210.42003418506687 403.49190822531614
217 447
" stroke="rgb(25,87,102)" stroke-width="5" fill-opacity="0.0"></path><path d="
M 352 361 C
366.7870430453615 402.58838008355974
375.30636941600443 407.9835116511811
359 449
" stroke="rgb(25,106,102)" stroke-width="5" fill-opacity="0.0"></path><path d="
M 352 361 C
337.4771693160511 320.1547139938358
354.43183215471305 316.2169368702675
341 275
" stroke="rgb(25,106,102)" stroke-width="5" fill-opacity="0.0"></path><path d="
M 215 208 C
248.97171079237748 201.20493812838592
252.30383758042225 174.98840267399646
239 143
" stroke="rgb(25,74,102)" stroke-width="5" fill-opacity="0.0"></path><path d="
M 188 474 C
194.12923625201307 451.6632038338752
190.27045870404294 447.9840703165652
177 429
" stroke="rgb(25,74,102)" stroke-width="5" fill-opacity="0.0"></path><path d="
M 288 373 C
252.12298625633505 369.9850564123226
251.93239808276667 376.28348899001907
217 385
" stroke="rgb(25,87,102)" stroke-width="5" fill-opacity="0.0"></path><path d="
M 328 492 C
312.8895139016362 457.3564838696885
296.6896159217085 444.56009182666804
261 457
" stroke="rgb(25,52,102)" stroke-width="5" fill-opacity="0.0"></path><path d="
M 177 429 C
166.90847113431192 414.5635515048547
169.3125906980215 412.5956385428844
157 400
" stroke="rgb(25,106,102)" stroke-width="5" fill-opacity="0.0"></path><path d="
M 157 400 C
183.63877441582173 427.25115956474076
211.30145982382672 409.32007643504915
217 447
" stroke="rgb(25,106,102)" stroke-width="5" fill-opacity="0.0"></path><line x1="379.3744797231232" y1="49.45142801258236" x2="384.6255202768768" y2="46.54857198741764" stroke="rgb(129,0,43)" stroke-width="2"></line><line x1="359.117831844089" y1="166.12480311562337" x2="354.882168155911" y2="161.87519688437663" stroke="rgb(90,0,30)" stroke-width="2"></line><line x1="255.68299350695708" y1="122.90564448709536" x2="260.3170064930429" y2="119.09435551290464" stroke="rgb(255,0,87)" stroke-width="2"></line><line x1="369.87419784520677" y1="342.14035661660847" x2="364.12580215479323" y2="343.85964338339153" stroke="rgb(255,0,125)" stroke-width="2"></line><line x1="15.001333080593788" y1="436.08942430574996" x2="20.99866691940621" y2="435.91057569425004" stroke="rgb(129,0,43)" stroke-width="2"></line><line x1="341.9173937008277" y1="222.3008476601119" x2="336.0826062991723" y2="223.6991523398881" stroke="rgb(184,0,61)" stroke-width="2"></line><line x1="496.8577402068753" y1="50.08713587538532" x2="491.1422597931247" y2="51.91286412461468" stroke="rgb(0,0,0)" stroke-width="2"></line><line x1="387.11246958556126" y1="31.331786640018482" x2="390.88753041443874" y2="26.668213359981518" stroke="rgb(129,0,43)" stroke-width="2"></line><line x1="9.269167017913528" y1="13.037633814800758" x2="4.730832982086472" y2="16.962366185199244" stroke="rgb(129,0,43)" stroke-width="2"></line><line x1="344.3898405608791" y1="176.52112620471917" x2="349.6101594391209" y2="179.47887379528083" stroke="rgb(44,0,14)" stroke-width="2"></line><line x1="58.26483376482468" y1="14.552716171690028" x2="61.73516623517532" y2="19.44728382830997" stroke="rgb(184,0,61)" stroke-width="2"></line><line x1="342.91439485007885" y1="128.20331241314574" x2="345.08560514992115" y2="133.79668758685426" stroke="rgb(63,0,21)" stroke-width="2"></line><line x1="401.9566145861959" y1="308.5083602941751" x2="396.0433854138041" y2="307.4916397058249" stroke="rgb(255,0,87)" stroke-width="2"></line><line x1="389.78913991991556" y1="201.10485225579413" x2="384.21086008008444" y2="198.89514774420587" stroke="rgb(63,0,21)" stroke-width="2"></line><line x1="68.70648861724351" y1="122.70681146419166" x2="71.29351138275649" y2="117.29318853580834" stroke="rgb(255,0,179)" stroke-width="2"></line><line x1="292.34549628466215" y1="250.87046710172513" x2="287.65450371533785" y2="247.12953289827487" stroke="rgb(184,0,61)" stroke-width="2"></line><line x1="363.1645813547057" y1="440.99548209436864" x2="362.8354186452943" y2="435.00451790563136" stroke="rgb(255,0,179)" stroke-width="2"></line><line x1="50.76872099343135" y1="347.5768561645261" x2="47.23127900656865" y2="352.4231438354739" stroke="rgb(255,0,179)" stroke-width="2"></line><line x1="427.5363705227265" y1="376.0483383218346" x2="426.4636294772735" y2="381.9516616781654" stroke="rgb(255,0,179)" stroke-width="2"></line><line x1="137.863784805892" y1="353.0030940253498" x2="138.136215194108" y2="358.9969059746502" stroke="rgb(255,0,125)" stroke-width="2"></line><line x1="145.32841606049737" y1="430.0180303671554" x2="144.67158393950263" y2="435.9819696328446" stroke="rgb(255,0,87)" stroke-width="2"></line><line x1="232.82421268709226" y1="205.93458247102683" x2="237.17578731290774" y2="210.06541752897317" stroke="rgb(129,0,43)" stroke-width="2"></line><line x1="14.28088664135332" y1="175.45858684209497" x2="17.71911335864668" y2="170.54141315790503" stroke="rgb(255,0,125)" stroke-width="2"></line><line x1="216.29958253591246" y1="72.98500423855248" x2="215.70041746408754" y2="67.01499576144752" stroke="rgb(255,0,125)" stroke-width="2"></line><line x1="155.12420168638073" y1="63.85427399549826" x2="160.87579831361927" y2="62.14572600450174" stroke="rgb(255,0,125)" stroke-width="2"></line><line x1="190.44439379279027" y1="112.4348315205253" x2="193.55560620720973" y2="117.5651684794747" stroke="rgb(255,0,125)" stroke-width="2"></line><line x1="129.99398341867064" y1="306.8100966331913" x2="124.00601658132936" y2="307.1899033668087" stroke="rgb(184,0,61)" stroke-width="2"></line><line x1="156.88031768113615" y1="339.21678037071746" x2="159.11968231886385" y2="344.78321962928254" stroke="rgb(255,0,125)" stroke-width="2"></line><line x1="489.4162307806723" y1="0.22184679666471063" x2="484.5837692193277" y2="3.7781532033352896" stroke="rgb(63,0,21)" stroke-width="2"></line><line x1="140.72202835278082" y1="48.01290579938592" x2="141.27797164721918" y2="53.98709420061408" stroke="rgb(255,0,125)" stroke-width="2"></line><line x1="105.07517337753292" y1="283.3326251214589" x2="110.92482662246708" y2="284.6673748785411" stroke="rgb(255,0,125)" stroke-width="2"></line><line x1="327.88417860222484" y1="489.66550412403063" x2="324.11582139777516" y2="494.33449587596937" stroke="rgb(184,0,61)" stroke-width="2"></line><line x1="69.82795599856239" y1="97.99506274751788" x2="70.17204400143761" y2="92.00493725248212" stroke="rgb(255,0,87)" stroke-width="2"></line><line x1="36.90741901903904" y1="9.3155458721019" x2="33.09258098096096" y2="4.6844541278981" stroke="#040" stroke-width="5" stroke-opacity="0.0"></line><line x1="482.45165517073156" y1="231.41698432378553" x2="487.54834482926844" y2="234.58301567621447" stroke="rgb(129,0,43)" stroke-width="2"></line><line x1="484.4292016008445" y1="398.4537155530435" x2="489.5707983991555" y2="401.5462844469565" stroke="rgb(129,0,43)" stroke-width="2"></line><line x1="39.590879217991706" y1="493.51239706353147" x2="34.409120782008294" y2="490.48760293646853" stroke="#040" stroke-width="5" stroke-opacity="0.0"></line><line x1="217.75872340956235" y1="24.097528848070652" x2="216.24127659043765" y2="29.902471151929348" stroke="rgb(255,0,179)" stroke-width="2"></line><line x1="489.8685988916924" y1="286.87814600072033" x2="484.1314011083076" y2="285.12185399927967" stroke="#040" stroke-width="5" stroke-opacity="0.0"></line><line x1="234.18689815286035" y1="2.244773552911364" x2="231.81310184713965" y2="7.755226447088636" stroke="rgb(255,0,87)" stroke-width="2"></line><line x1="269.69007394995475" y1="181.08577910278822" x2="274.30992605004525" y2="184.91422089721178" stroke="rgb(255,0,87)" stroke-width="2"></line><line x1="306.62702467003487" y1="501.9337416490154" x2="305.37297532996513" y2="496.0662583509846" stroke="#040" stroke-width="5" stroke-opacity="0.0"></line><line x1="174.99844061667747" y1="53.903284601749114" x2="169.00155938332253" y2="54.096715398250886" stroke="rgb(255,0,125)" stroke-width="2"></line><line x1="159.90299134090907" y1="261.75673064865043" x2="154.09700865909093" y2="260.24326935134957" stroke="rgb(255,0,87)" stroke-width="2"></line><line x1="340.89715383181846" y1="117.7787808900965" x2="335.10284616818154" y2="116.2212191099035" stroke="rgb(63,0,21)" stroke-width="2"></line><line x1="301.01102063971126" y1="384.7541235331512" x2="304.98897936028874" y2="389.2458764668488" stroke="rgb(255,0,255)" stroke-width="2"></line><line x1="277.19495488443033" y1="309.06382418642306" x2="282.80504511556967" y2="306.93617581357694" stroke="rgb(129,0,43)" stroke-width="2"></line><line x1="480.85780101538313" y1="406.9126737404326" x2="475.14219898461687" y2="405.0873262595674" stroke="rgb(90,0,30)" stroke-width="2"></line><line x1="97.66003727756959" y1="310.9806753173329" x2="98.33996272243041" y2="305.0193246826671" stroke="rgb(255,0,125)" stroke-width="2"></line><line x1="203.1391868352624" y1="393.003230568614" x2="202.8608131647376" y2="398.996769431386" stroke="rgb(184,0,61)" stroke-width="2"></line><line x1="435.81961376674275" y1="202.7580225416658" x2="438.18038623325725" y2="197.2419774583342" stroke="rgb(129,0,43)" stroke-width="2"></line><line x1="385.02299968000244" y1="250.25642853525866" x2="388.97700031999756" y2="245.74357146474134" stroke="rgb(184,0,61)" stroke-width="2"></line><line x1="51.193451839013726" y1="415.6049251072175" x2="54.806548160986274" y2="420.3950748927825" stroke="rgb(255,0,179)" stroke-width="2"></line><line x1="88.80496597058223" y1="100.06403284905856" x2="83.19503402941777" y2="97.93596715094144" stroke="rgb(255,0,87)" stroke-width="2"></line><line x1="135.58494415213318" y1="178.54714586049147" x2="132.41505584786682" y2="173.45285413950853" stroke="rgb(255,0,125)" stroke-width="2"></line><line x1="133.0474081765736" y1="12.46877356594803" x2="138.9525918234264" y2="13.53122643405197" stroke="rgb(255,0,125)" stroke-width="2"></line><line x1="313.85746194903624" y1="74.08626524099711" x2="308.14253805096376" y2="75.91373475900289" stroke="rgb(184,0,61)" stroke-width="2"></line><line x1="343.3552750575979" y1="412.4161320485874" x2="348.6447249424021" y2="409.5838679514126" stroke="#040" stroke-width="5" stroke-opacity="0.0"></line><line x1="213.07348019775455" y1="175.29967855396274" x2="216.92651980224545" y2="170.70032144603726" stroke="rgb(184,0,61)" stroke-width="2"></line><line x1="259.29634649362987" y1="376.0695097044549" x2="254.70365350637013" y2="379.9304902955451" stroke="rgb(184,0,61)" stroke-width="2"></line><line x1="29.724955157871133" y1="231.2844410058773" x2="32.27504484212887" y2="236.7155589941227" stroke="rgb(255,0,179)" stroke-width="2"></line><line x1="433.06840198993666" y1="284.36302817378413" x2="438.93159801006334" y2="285.63697182621587" stroke="rgb(184,0,61)" stroke-width="2"></line><line x1="470.8285969405184" y1="363.883301425478" x2="469.1714030594816" y2="358.116698574522" stroke="rgb(129,0,43)" stroke-width="2"></line><line x1="314.1408909423101" y1="267.0914322280449" x2="319.8591090576899" y2="268.9085677719551" stroke="rgb(184,0,61)" stroke-width="2"></line><line x1="497.28707438485725" y1="14.01376687153216" x2="496.71292561514275" y2="19.986233128467838" stroke="rgb(0,0,0)" stroke-width="2"></line><line x1="177.59161050660072" y1="310.4888563992536" x2="172.40838949339928" y2="313.5111436007464" stroke="rgb(184,0,61)" stroke-width="2"></line><line x1="53.33248966022342" y1="221.0752042898193" x2="54.66751033977658" y2="226.9247957101807" stroke="rgb(255,0,179)" stroke-width="2"></line><line x1="289.3772464974664" y1="162.33481856429688" x2="286.6227535025336" y2="167.66518143570312" stroke="rgb(129,0,43)" stroke-width="2"></line><line x1="7.210477083049764" y1="246.8942449038757" x2="8.789522916950235" y2="241.1057550961243" stroke="rgb(255,0,179)" stroke-width="2"></line><line x1="313.70514227218405" y1="329.7061676712124" x2="316.29485772781595" y2="324.2938323287876" stroke="rgb(184,0,61)" stroke-width="2"></line><line x1="31.07805038327697" y1="408.3201393986028" x2="36.921949616723026" y2="409.6798606013972" stroke="rgb(255,0,87)" stroke-width="2"></line><line x1="47.197377379874354" y1="245.9298100873396" x2="52.802622620125646" y2="248.0701899126604" stroke="rgb(255,0,87)" stroke-width="2"></line><line x1="337.3486594845077" y1="296.071560905042" x2="338.6513405154923" y2="301.928439094958" stroke="rgb(255,0,87)" stroke-width="2"></line><line x1="289.9777741914619" y1="20.635499156841355" x2="284.0222258085381" y2="21.364500843158645" stroke="rgb(255,0,125)" stroke-width="2"></line><line x1="168.08146108610848" y1="101.85592126356225" x2="169.91853891389152" y2="96.14407873643775" stroke="rgb(255,0,255)" stroke-width="2"></line><line x1="154.99864905596712" y1="114.90997867392912" x2="149.00135094403288" y2="115.09002132607088" stroke="rgb(255,0,87)" stroke-width="2"></line><line x1="340.9608929916171" y1="197.51718254775446" x2="335.0391070083829" y2="198.48281745224554" stroke="rgb(184,0,61)" stroke-width="2"></line><line x1="133.16962176063834" y1="399.0718931960322" x2="128.83037823936166" y2="394.9281068039678" stroke="rgb(255,0,125)" stroke-width="2"></line><line x1="331.2505881945664" y1="144.56287908896388" x2="334.7494118054336" y2="149.43712091103612" stroke="rgb(44,0,14)" stroke-width="2"></line><line x1="489.01227039159716" y1="58.99997490614339" x2="488.98772960840284" y2="53.00002509385661" stroke="rgb(0,0,0)" stroke-width="2"></line><line x1="347.4406538818448" y1="308.43483309277127" x2="352.5593461181552" y2="311.56516690722873" stroke="rgb(129,0,43)" stroke-width="2"></line><line x1="469.1291735086843" y1="284.1134379976515" x2="464.8708264913157" y2="279.8865620023485" stroke="rgb(90,0,30)" stroke-width="2"></line><line x1="87.76483026772851" y1="369.0991320847777" x2="86.23516973227149" y2="374.9008679152223" stroke="rgb(255,0,87)" stroke-width="2"></line><line x1="107.25716525496641" y1="217.0934218500837" x2="108.74283474503359" y2="222.9065781499163" stroke="rgb(255,0,87)" stroke-width="2"></line><line x1="282.3321413124576" y1="60.49364139330206" x2="285.6678586875424" y2="55.50635860669794" stroke="rgb(184,0,61)" stroke-width="2"></line><line x1="469.53798313715646" y1="474.28580252973177" x2="474.46201686284354" y2="477.71419747026823" stroke="#040" stroke-width="5" stroke-opacity="0.0"></line><line x1="163.26852779283917" y1="280.036894895041" x2="158.73147220716083" y2="283.963105104959" stroke="rgb(255,0,179)" stroke-width="2"></line><line x1="5.399500858514969" y1="274.5042044875266" x2="10.600499141485031" y2="277.4957955124734" stroke="rgb(255,0,125)" stroke-width="2"></line><line x1="443.8604113025996" y1="48.09554039340575" x2="438.1395886974004" y2="49.90445960659425" stroke="rgb(90,0,30)" stroke-width="2"></line><line x1="13.183795325096954" y1="399.6122394217886" x2="16.816204674903048" y2="404.3877605782114" stroke="rgb(129,0,43)" stroke-width="2"></line><line x1="305.50565042612624" y1="215.40519426655754" x2="302.49434957387376" y2="220.59480573344246" stroke="rgb(129,0,43)" stroke-width="2"></line><line x1="179.08263774715624" y1="344.1593100782704" x2="174.91736225284376" y2="339.8406899217296" stroke="rgb(255,0,87)" stroke-width="2"></line><line x1="327.35392637206917" y1="374.5863896026242" x2="332.64607362793083" y2="377.4136103973758" stroke="rgb(184,0,61)" stroke-width="2"></line><line x1="484.44290163754266" y1="299.5688365003142" x2="489.55709836245734" y2="296.4311634996858" stroke="rgb(184,0,61)" stroke-width="2"></line><line x1="500.83924257563166" y1="99.62993950541681" x2="497.16075742436834" y2="104.37006049458319" stroke="rgb(63,0,21)" stroke-width="2"></line><line x1="91.96476629139799" y1="212.45843302388698" x2="86.03523370860201" y2="211.54156697611302" stroke="rgb(255,0,125)" stroke-width="2"></line><line x1="149.4799364283765" y1="166.58638874460573" x2="152.5200635716235" y2="161.41361125539427" stroke="rgb(255,0,179)" stroke-width="2"></line><line x1="143.98288586755828" y1="397.3199873452516" x2="138.01711413244172" y2="396.6800126547484" stroke="rgb(184,0,61)" stroke-width="2"></line><line x1="348.5182400199627" y1="168.95489886150256" x2="347.4817599800373" y2="163.04510113849744" stroke="rgb(90,0,30)" stroke-width="2"></line><line x1="180.48930823230876" y1="124.67431912267638" x2="175.51069176769124" y2="121.32568087732362" stroke="rgb(255,0,87)" stroke-width="2"></line><line x1="451.9586780209406" y1="101.80159044356856" x2="456.0413219790594" y2="106.19840955643144" stroke="rgb(44,0,14)" stroke-width="2"></line><line x1="0.17408153132325205" y1="466.00505498874315" x2="-0.17408153132325205" y2="471.99494501125685" stroke="#040" stroke-width="5" stroke-opacity="0.0"></line><line x1="100.547833754644" y1="111.03427147456807" x2="101.452166245356" y2="116.96572852543193" stroke="rgb(255,0,179)" stroke-width="2"></line><line x1="74.11490279026012" y1="326.8223223761708" x2="79.88509720973988" y2="325.1776776238292" stroke="rgb(255,0,125)" stroke-width="2"></line><line x1="83.69140359913489" y1="400.015914166554" x2="84.30859640086511" y2="405.984085833446" stroke="rgb(184,0,61)" stroke-width="2"></line><line x1="484.3566210262265" y1="85.50984173775144" x2="487.6433789737735" y2="80.49015826224856" stroke="rgb(0,0,0)" stroke-width="2"></line><line x1="450.4175400655544" y1="4.223627282511056" x2="445.5824599344456" y2="7.776372717488944" stroke="rgb(90,0,30)" stroke-width="2"></line><line x1="245.9831722197304" y1="299.317306645737" x2="240.0168277802696" y2="298.682693354263" stroke="rgb(129,0,43)" stroke-width="2"></line><line x1="85.8099868681373" y1="250.60752271961246" x2="82.1900131318627" y2="255.39247728038754" stroke="rgb(255,0,87)" stroke-width="2"></line><line x1="25.91471396445631" y1="461.28975883996816" x2="20.08528603554369" y2="462.71024116003184" stroke="rgb(255,0,87)" stroke-width="2"></line><line x1="57.808314005153456" y1="46.8890532132643" x2="56.191685994846544" y2="41.1109467867357" stroke="rgb(255,0,125)" stroke-width="2"></line><line x1="270.97531135721766" y1="186.81957677415474" x2="273.02468864278234" y2="181.18042322584526" stroke="rgb(129,0,43)" stroke-width="2"></line><line x1="325.5481892136806" y1="176.43034824175666" x2="322.4518107863194" y2="181.56965175824334" stroke="rgb(184,0,61)" stroke-width="2"></line><line x1="190.97891410149606" y1="247.25475031409246" x2="187.02108589850394" y2="242.74524968590754" stroke="rgb(255,0,87)" stroke-width="2"></line><line x1="208.9433079010886" y1="353.5804641241192" x2="203.0566920989114" y2="352.4195358758808" stroke="rgb(184,0,61)" stroke-width="2"></line><line x1="338.78645603436115" y1="26.99239017755694" x2="339.21354396563885" y2="21.00760982244306" stroke="rgb(90,0,30)" stroke-width="2"></line><line x1="459.39733221360433" y1="325.4920188985593" x2="464.60266778639567" y2="322.5079811014407" stroke="rgb(255,0,255)" stroke-width="2"></line><line x1="150.31312240535505" y1="415.30264767808234" x2="147.68687759464495" y2="420.69735232191766" stroke="rgb(255,0,87)" stroke-width="2"></line><line x1="323.0711773315142" y1="433.6496135594058" x2="328.9288226684858" y2="432.3503864405942" stroke="rgb(255,0,87)" stroke-width="2"></line><line x1="401.9150778651703" y1="37.29125389595835" x2="396.0849221348297" y2="38.70874610404165" stroke="rgb(63,0,21)" stroke-width="2"></line><line x1="268.95769437503446" y1="206.4979601769883" x2="263.04230562496554" y2="207.5020398230117" stroke="rgb(255,0,87)" stroke-width="2"></line><line x1="282.8979466111967" y1="63.22417435035086" x2="277.1020533888033" y2="64.77582564964914" stroke="#040" stroke-width="5" stroke-opacity="0.0"></line><line x1="122.04962094932542" y1="405.18960930425374" x2="119.95037905067458" y2="410.81039069574626" stroke="rgb(255,0,125)" stroke-width="2"></line><line x1="178.5224934119188" y1="33.9541497312258" x2="177.4775065880812" y2="28.0458502687742" stroke="rgb(255,0,179)" stroke-width="2"></line><line x1="74.3908774046999" y1="422.4807022937426" x2="79.6091225953001" y2="419.5192977062574" stroke="rgb(184,0,61)" stroke-width="2"></line><line x1="367.63098328544777" y1="274.4820854814768" x2="364.36901671455223" y2="279.5179145185232" stroke="rgb(255,0,87)" stroke-width="2"></line><line x1="485.80177284467453" y1="351.9934438352659" x2="486.19822715532547" y2="346.0065561647341" stroke="rgb(129,0,43)" stroke-width="2"></line><line x1="121.42570476733019" y1="402.55374127906356" x2="124.57429523266981" y2="397.44625872093644" stroke="rgb(255,0,255)" stroke-width="2"></line><line x1="467.57863167570497" y1="73.35808552623467" x2="470.42136832429503" y2="78.64191447376533" stroke="rgb(0,0,0)" stroke-width="2"></line><line x1="487.93944838296034" y1="15.599702596219126" x2="482.06055161703966" y2="14.400297403780874" stroke="rgb(44,0,14)" stroke-width="2"></line><line x1="235.15360637994584" y1="166.05234850302705" x2="240.84639362005416" y2="167.94765149697295" stroke="rgb(184,0,61)" stroke-width="2"></line><line x1="141.37590658852412" y1="327.3341265859655" x2="138.62409341147588" y2="332.6658734140345" stroke="rgb(255,0,179)" stroke-width="2"></line><line x1="364.00338439141257" y1="313.23909046524363" x2="367.99661560858743" y2="308.76090953475637" stroke="rgb(255,0,87)" stroke-width="2"></line><line x1="85.93318117718448" y1="113.17445624321472" x2="90.06681882281552" y2="108.82554375678528" stroke="rgb(255,0,179)" stroke-width="2"></line><line x1="199.20746116630542" y1="443.09623303284826" x2="204.79253883369458" y2="440.90376696715174" stroke="rgb(0,0,0)" stroke-width="2"></line><line x1="367.0147978612486" y1="339.29760408396726" x2="372.9852021387514" y2="338.70239591603274" stroke="rgb(255,0,125)" stroke-width="2"></line><line x1="443.3498860345901" y1="150.49458109267948" x2="446.6501139654099" y2="155.50541890732052" stroke="rgb(90,0,30)" stroke-width="2"></line><line x1="125.65703405146895" y1="286.6826185828563" x2="128.34296594853106" y2="281.3173814171437" stroke="rgb(255,0,179)" stroke-width="2"></line><line x1="248.20572622662843" y1="232.03341383224458" x2="243.79427377337157" y2="227.96658616775542" stroke="rgb(184,0,61)" stroke-width="2"></line><line x1="111.3292015449495" y1="259.49167263552033" x2="114.6707984550505" y2="254.50832736447967" stroke="rgb(255,0,179)" stroke-width="2"></line><line x1="316.2412487324782" y1="384.7311721996464" x2="313.7587512675218" y2="379.2688278003536" stroke="rgb(184,0,61)" stroke-width="2"></line><line x1="224.74775866449198" y1="114.2040856787244" x2="219.25224133550802" y2="111.7959143212756" stroke="rgb(184,0,61)" stroke-width="2"></line><line x1="490.3772111695969" y1="421.45635804358426" x2="495.6227888304031" y2="418.54364195641574" stroke="#040" stroke-width="5" stroke-opacity="0.0"></line><line x1="343.1904630306922" y1="293.051903996614" x2="348.8095369693078" y2="290.948096003386" stroke="rgb(129,0,43)" stroke-width="2"></line><line x1="27.19519068695407" y1="8.248360630130058" x2="24.80480931304593" y2="13.751639369869942" stroke="#040" stroke-width="5" stroke-opacity="0.0"></line><line x1="175.88653998468052" y1="301.8660158505428" x2="174.11346001531948" y2="296.1339841494572" stroke="rgb(255,0,87)" stroke-width="2"></line><line x1="275.11517320537183" y1="139.99778837357883" x2="274.88482679462817" y2="134.00221162642117" stroke="rgb(129,0,43)" stroke-width="2"></line><line x1="128.29483902593378" y1="389.706176619683" x2="125.7051609740662" y2="384.293823380317" stroke="rgb(255,0,87)" stroke-width="2"></line><line x1="26.962724648657787" y1="294.5285525944121" x2="21.037275351342213" y2="295.4714474055879" stroke="rgb(255,0,125)" stroke-width="2"></line><line x1="157.0095208285591" y1="117.76118139691788" x2="162.9904791714409" y2="118.23881860308212" stroke="rgb(255,0,87)" stroke-width="2"></line><line x1="341.43133281662426" y1="306.5572022344351" x2="344.56866718337574" y2="301.4427977655649" stroke="rgb(255,0,87)" stroke-width="2"></line><line x1="279.7020282897234" y1="80.47044524346953" x2="276.2979717102766" y2="75.52955475653047" stroke="rgb(44,0,14)" stroke-width="2"></line><line x1="120.81831939255406" y1="200.6138494207905" x2="117.18168060744594" y2="205.3861505792095" stroke="rgb(255,0,125)" stroke-width="2"></line><line x1="463.3339714556106" y1="194.6871025577034" x2="460.6660285443894" y2="189.3128974422966" stroke="rgb(63,0,21)" stroke-width="2"></line><line x1="58.841891605911144" y1="402.91611704758566" x2="63.158108394088856" y2="407.08388295241434" stroke="rgb(255,0,179)" stroke-width="2"></line><line x1="314.790359310465" y1="377.59279964701085" x2="311.209640689535" y2="382.40720035298915" stroke="rgb(255,0,87)" stroke-width="2"></line><line x1="363.55136811391384" y1="374.2667366367334" x2="368.44863188608616" y2="377.7332633632666" stroke="rgb(184,0,61)" stroke-width="2"></line><line x1="278.19052966325665" y1="64.95022445267959" x2="273.80947033674335" y2="69.04977554732041" stroke="rgb(129,0,43)" stroke-width="2"></line><line x1="237.28981226359005" y1="349.91472698190637" x2="238.71018773640995" y2="344.08527301809363" stroke="rgb(90,0,30)" stroke-width="2"></line><line x1="142.98166200392768" y1="379.3311973646241" x2="137.01833799607232" y2="378.6688026353759" stroke="rgb(184,0,61)" stroke-width="2"></line><line x1="205.03195749806542" y1="38.436719253880426" x2="210.96804250193458" y2="37.563280746119574" stroke="rgb(255,0,179)" stroke-width="2"></line><line x1="374.3202988517695" y1="295.90163435982765" x2="369.6797011482305" y2="292.09836564017235" stroke="rgb(129,0,43)" stroke-width="2"></line><line x1="135.55031787354915" y1="370.5798350369123" x2="130.44968212645085" y2="367.4201649630877" stroke="rgb(184,0,61)" stroke-width="2"></line><line x1="239.9716198188603" y1="112.5883257936709" x2="234.0283801811397" y2="113.4116742063291" stroke="rgb(184,0,61)" stroke-width="2"></line><line x1="496.6720505477583" y1="445.98202098530084" x2="497.3279494522417" y2="440.01797901469916" stroke="rgb(90,0,30)" stroke-width="2"></line><line x1="460.4291765508252" y1="330.45375720109257" x2="465.5708234491748" y2="333.54624279890743" stroke="rgb(184,0,61)" stroke-width="2"></line><line x1="379.7254207541667" y1="64.2842224417138" x2="382.2745792458333" y2="69.7157775582862" stroke="rgb(44,0,14)" stroke-width="2"></line><line x1="163.164397744764" y1="373.6271189746276" x2="166.835602255236" y2="378.3728810253724" stroke="rgb(255,0,87)" stroke-width="2"></line><line x1="102.01339880423501" y1="52.28321952167021" x2="107.98660119576499" y2="51.71678047832979" stroke="rgb(255,0,87)" stroke-width="2"></line><line x1="242.88270877544548" y1="479.7841803676367" x2="245.11729122455452" y2="474.2158196323633" stroke="rgb(0,0,0)" stroke-width="2"></line><line x1="362.58450451310017" y1="171.94250819440924" x2="361.41549548689983" y2="166.05749180559076" stroke="rgb(44,0,14)" stroke-width="2"></line><line x1="350.994967167913" y1="358.1733572906313" x2="353.005032832087" y2="363.8266427093687" stroke="rgb(255,0,125)" stroke-width="2"></line><line x1="93.77077707374025" y1="416.4216417065941" x2="90.22922292625975" y2="411.5783582934059" stroke="rgb(184,0,61)" stroke-width="2"></line><line x1="407.41351816374834" y1="386.02863621744996" x2="406.58648183625166" y2="391.97136378255004" stroke="rgb(255,0,179)" stroke-width="2"></line><line x1="217.9417300413673" y1="207.411591669232" x2="212.0582699586327" y2="208.588408330768" stroke="rgb(184,0,61)" stroke-width="2"></line><line x1="188.79385786743862" y1="471.10694111945406" x2="187.20614213256138" y2="476.89305888054594" stroke="rgb(184,0,61)" stroke-width="2"></line><line x1="82.31023255215936" y1="315.0861490248864" x2="77.68976744784064" y2="318.9138509751136" stroke="rgb(255,0,255)" stroke-width="2"></line><line x1="333.3441562722846" y1="163.1278538061602" x2="328.6558437277154" y2="166.8721461938398" stroke="rgb(184,0,61)" stroke-width="2"></line><line x1="9.730399153461304" y1="80.03813558129242" x2="14.269600846538696" y2="83.96186441870758" stroke="#040" stroke-width="5" stroke-opacity="0.0"></line><line x1="130.71932014588313" y1="61.73299647033084" x2="125.28067985411687" y2="64.26700352966917" stroke="rgb(255,0,125)" stroke-width="2"></line><line x1="400.05990762533474" y1="45.59653736549804" x2="405.94009237466526" y2="44.40346263450196" stroke="rgb(0,0,0)" stroke-width="2"></line><line x1="288.18599844922875" y1="290.9600984314576" x2="293.81400155077125" y2="293.0399015685424" stroke="rgb(129,0,43)" stroke-width="2"></line><line x1="444.7685232978057" y1="164.10010828810283" x2="443.2314767021943" y2="169.89989171189717" stroke="rgb(90,0,30)" stroke-width="2"></line><line x1="479.14753283434374" y1="129.09477987516962" x2="474.85246716565626" y2="124.90522012483038" stroke="rgb(30,0,10)" stroke-width="2"></line><line x1="24.390981152175193" y1="139.4808850906451" x2="29.609018847824807" y2="136.5191149093549" stroke="rgb(255,0,125)" stroke-width="2"></line><line x1="285.01053717632556" y1="372.7487789302857" x2="290.98946282367444" y2="373.2512210697143" stroke="rgb(255,0,87)" stroke-width="2"></line><line x1="326.8006123627672" y1="489.2501874071761" x2="329.1993876372328" y2="494.7498125928239" stroke="rgb(129,0,43)" stroke-width="2"></line><line x1="258.1671537344705" y1="457.9874117863767" x2="263.8328462655295" y2="456.0125882136233" stroke="rgb(184,0,61)" stroke-width="2"></line><line x1="307.1376024511328" y1="69.10184618675919" x2="312.8623975488672" y2="70.89815381324081" stroke="rgb(90,0,30)" stroke-width="2"></line><line x1="217.56092115766012" y1="142.5625885012532" x2="212.43907884233988" y2="139.4374114987468" stroke="rgb(255,0,125)" stroke-width="2"></line><line x1="46.93359313614719" y1="394.29373441876874" x2="43.06640686385281" y2="389.70626558123126" stroke="rgb(255,0,125)" stroke-width="2"></line><line x1="357.89170291957964" y1="451.78777287122386" x2="360.10829708042036" y2="446.21222712877614" stroke="rgb(255,0,87)" stroke-width="2"></line><line x1="178.71878805344852" y1="431.45881427263686" x2="175.28121194655148" y2="426.54118572736314" stroke="rgb(255,0,87)" stroke-width="2"></line><line x1="449.9810172384209" y1="386.83506704998683" x2="448.0189827615791" y2="381.16493295001317" stroke="rgb(255,0,179)" stroke-width="2"></line><line x1="340.07046824380535" y1="272.14763769583425" x2="341.92953175619465" y2="277.85236230416575" stroke="rgb(255,0,87)" stroke-width="2"></line><line x1="311.22424071441407" y1="256.7388381976982" x2="308.77575928558593" y2="251.26116180230176" stroke="rgb(184,0,61)" stroke-width="2"></line><line x1="130.99102045362795" y1="86.23194103987703" x2="125.00897954637205" y2="85.76805896012297" stroke="rgb(255,0,125)" stroke-width="2"></line><line x1="33.91290815500485" y1="280.85772614162477" x2="32.08709184499515" y2="275.14227385837523" stroke="#040" stroke-width="5" stroke-opacity="0.0"></line><line x1="65.72656074229097" y1="407.4533625910533" x2="62.27343925770903" y2="402.5466374089467" stroke="rgb(184,0,61)" stroke-width="2"></line><line x1="404.95380596320666" y1="182.7234582678681" x2="401.04619403679334" y2="187.2765417321319" stroke="rgb(129,0,43)" stroke-width="2"></line><line x1="318.96941099231117" y1="257.2630555325409" x2="315.03058900768883" y2="252.7369444674591" stroke="rgb(184,0,61)" stroke-width="2"></line><line x1="263.9299096580031" y1="113.29683449816181" x2="260.0700903419969" y2="108.70316550183819" stroke="rgb(30,0,10)" stroke-width="2"></line><line x1="118.23674891789577" y1="157.57287296964944" x2="121.76325108210423" y2="162.42712703035056" stroke="rgb(255,0,125)" stroke-width="2"></line><line x1="237.8479738652261" y1="140.23001159121597" x2="240.1520261347739" y2="145.76998840878403" stroke="rgb(255,0,87)" stroke-width="2"></line><line x1="286.08023470329726" y1="-2.3053201958894878" x2="289.91976529670274" y2="2.3053201958894878" stroke="rgb(184,0,61)" stroke-width="2"></line><line x1="414.12365418172254" y1="373.1475712735497" x2="419.87634581827746" y2="374.8524287264503" stroke="rgb(129,0,43)" stroke-width="2"></line><line x1="461.09784671128506" y1="419.7599383453947" x2="466.90215328871494" y2="418.2400616546053" stroke="#040" stroke-width="5" stroke-opacity="0.0"></line><line x1="61.97485391818793" y1="170.74169266887392" x2="58.02514608181207" y2="175.25830733112608" stroke="rgb(255,0,255)" stroke-width="2"></line><line x1="154.90292094682349" y1="397.8547122699441" x2="159.09707905317651" y2="402.1452877300559" stroke="rgb(255,0,125)" stroke-width="2"></line><line x1="219.91075244323164" y1="384.2736941317729" x2="214.08924755676836" y2="385.7263058682271" stroke="rgb(255,0,87)" stroke-width="2"></line><line x1="197.99591996264073" y1="231.84359163241433" x2="192.00408003735927" y2="232.15640836758567" stroke="rgb(255,0,125)" stroke-width="2"></line><line x1="93.01086105240059" y1="396.8322436587169" x2="94.98913894759941" y2="391.1677563412831" stroke="rgb(255,0,125)" stroke-width="2"></line><line x1="360.2007136476978" y1="180.8915638203269" x2="361.7992863523022" y2="175.1084361796731" stroke="rgb(90,0,30)" stroke-width="2"></line><line x1="110.67758368366403" y1="65.30719197002675" x2="113.32241631633597" y2="70.69280802997325" stroke="rgb(255,0,87)" stroke-width="2"></line><line x1="217.44860506908455" y1="449.9662692885157" x2="216.55139493091545" y2="444.0337307114843" stroke="rgb(255,0,87)" stroke-width="2"></line></svg>
