<svg viewBox="0 15 505 503.63448015713004" xmlns="http://www.w3.org/2000/svg" version="1.1"><path d="
M 50 20 C
24.01923788646684 20
17.99038105676658 23.48076211353316
5 45.98076211353316
" stroke="rgb(25,152,102)" stroke-width="5" fill-opacity="0.0"></path><path d="
M 50 20 C
75.98076211353316 20
82.00961894323342 23.48076211353316
95 45.98076211353316
" stroke="rgb(25,217,102)" stroke-width="5" fill-opacity="0.0"></path><path d="
M 35 45.98076211353316 C
47.99038105676658 68.48076211353316
54.01923788646684 71.96152422706632
80 71.96152422706632
" stroke="rgb(25,106,102)" stroke-width="5" fill-opacity="0.0"></path><path d="
M 35 45.98076211353316 C
50 71.96152422706632
50 71.96152422706632
65 97.94228634059948
" stroke="rgb(25,74,102)" stroke-width="5" fill-opacity="0.0"></path><path d="
M 110 20 C
140 20
140 20
170 20
" stroke="rgb(25,0,102)" stroke-width="5" fill-opacity="0.0"></path><path d="
M 95 45.98076211353316 C
107.99038105676658 68.48076211353316
114.01923788646684 71.96152422706632
140 71.96152422706632
" stroke="rgb(25,217,102)" stroke-width="5" fill-opacity="0.0"></path><path d="
M 65 45.98076211353316 C
52.00961894323342 68.48076211353316
52.00961894323342 75.44228634059948
65 97.94228634059948
" stroke="rgb(25,52,102)" stroke-width="5" fill-opacity="0.0"></path><path d="
M 170 20 C
144.01923788646684 20
137.99038105676658 23.48076211353316
125 45.98076211353316
" stroke="rgb(25,0,102)" stroke-width="5" fill-opacity="0.0"></path><path d="
M 155 45.98076211353316 C
167.99038105676658 68.48076211353316
174.01923788646684 71.96152422706632
200 71.96152422706632
" stroke="rgb(25,106,102)" stroke-width="5" fill-opacity="0.0"></path><path d="
M 185 45.98076211353316 C
172.00961894323342 68.48076211353316
165.98076211353316 71.96152422706632
140 71.96152422706632
" stroke="rgb(25,152,102)" stroke-width="5" fill-opacity="0.0"></path><path d="
M 185 45.98076211353316 C
172.00961894323342 68.48076211353316
172.00961894323342 75.44228634059948
185 97.94228634059948
" stroke="rgb(25,106,102)" stroke-width="5" fill-opacity="0.0"></path><path d="
M 185 45.98076211353316 C
170 71.96152422706632
170 71.96152422706632
155 97.94228634059948
" stroke="rgb(25,106,102)" stroke-width="5" fill-opacity="0.0"></path><path d="
M 290 20 C
264.01923788646684 20
257.9903810567666 23.48076211353316
245 45.98076211353316
" stroke="rgb(25,217,102)" stroke-width="5" fill-opacity="0.0"></path><path d="
M 290 20 C
315.98076211353316 20
322.0096189432334 23.48076211353316
335 45.98076211353316
" stroke="rgb(25,217,102)" stroke-width="5" fill-opacity="0.0"></path><path d="
M 275 45.98076211353316 C
287.9903810567666 68.48076211353316
294.01923788646684 71.96152422706632
320 71.96152422706632
" stroke="rgb(25,106,102)" stroke-width="5" fill-opacity="0.0"></path><path d="
M 245 45.98076211353316 C
232.00961894323342 68.48076211353316
232.00961894323342 75.44228634059948
245 97.94228634059948
" stroke="rgb(25,152,102)" stroke-width="5" fill-opacity="0.0"></path><path d="
M 245 45.98076211353316 C
230 71.96152422706632
230 71.96152422706632
215 97.94228634059948
" stroke="rgb(25,152,102)" stroke-width="5" fill-opacity="0.0"></path><path d="
M 350 20 C
324.01923788646684 20
317.9903810567666 23.48076211353316
305 45.98076211353316
" stroke="rgb(25,0,102)" stroke-width="5" fill-opacity="0.0"></path><path d="
M 335 45.98076211353316 C
347.9903810567666 68.48076211353316
354.01923788646684 71.96152422706632
380 71.96152422706632
" stroke="rgb(25,179,102)" stroke-width="5" fill-opacity="0.0"></path><path d="
M 335 45.98076211353316 C
350 71.96152422706632
350 71.96152422706632
365 97.94228634059948
" stroke="rgb(25,152,102)" stroke-width="5" fill-opacity="0.0"></path><path d="
M 410 20 C
384.01923788646684 20
377.9903810567666 23.48076211353316
365 45.98076211353316
" stroke="rgb(25,217,102)" stroke-width="5" fill-opacity="0.0"></path><path d="
M 410 20 C
440 20
440 20
470 20
" stroke="rgb(25,217,102)" stroke-width="5" fill-opacity="0.0"></path><path d="
M 395 45.98076211353316 C
410 71.96152422706632
410 71.96152422706632
425 97.94228634059948
" stroke="rgb(25,152,102)" stroke-width="5" fill-opacity="0.0"></path><path d="
M 395 45.98076211353316 C
407.9903810567666 68.48076211353316
407.9903810567666 75.44228634059948
395 97.94228634059948
" stroke="rgb(25,217,102)" stroke-width="5" fill-opacity="0.0"></path><path d="
M 365 45.98076211353316 C
352.0096189432334 68.48076211353316
345.98076211353316 71.96152422706632
320 71.96152422706632
" stroke="rgb(25,152,102)" stroke-width="5" fill-opacity="0.0"></path><path d="
M 365 45.98076211353316 C
352.0096189432334 68.48076211353316
352.0096189432334 75.44228634059948
365 97.94228634059948
" stroke="rgb(25,152,102)" stroke-width="5" fill-opacity="0.0"></path><path d="
M 470 20 C
444.01923788646684 20
437.9903810567666 23.48076211353316
425 45.98076211353316
" stroke="rgb(25,152,102)" stroke-width="5" fill-opacity="0.0"></path><path d="
M 455 45.98076211353316 C
467.9903810567666 68.48076211353316
467.9903810567666 75.44228634059948
455 97.94228634059948
" stroke="rgb(25,25,102)" stroke-width="5" fill-opacity="0.0"></path><path d="
M 425 45.98076211353316 C
412.0096189432334 68.48076211353316
405.98076211353316 71.96152422706632
380 71.96152422706632
" stroke="rgb(25,152,102)" stroke-width="5" fill-opacity="0.0"></path><path d="
M 425 45.98076211353316 C
412.0096189432334 68.48076211353316
412.0096189432334 75.44228634059948
425 97.94228634059948
" stroke="rgb(25,125,102)" stroke-width="5" fill-opacity="0.0"></path><path d="
M 80 71.96152422706632 C
110 71.96152422706632
110 71.96152422706632
140 71.96152422706632
" stroke="rgb(25,152,102)" stroke-width="5" fill-opacity="0.0"></path><path d="
M 65 97.94228634059948 C
80 123.92304845413264
80 123.92304845413264
95 149.9038105676658
" stroke="rgb(25,52,102)" stroke-width="5" fill-opacity="0.0"></path><path d="
M 35 97.94228634059948 C
22.00961894323342 120.44228634059948
22.00961894323342 127.4038105676658
35 149.9038105676658
" stroke="rgb(25,25,102)" stroke-width="5" fill-opacity="0.0"></path><path d="
M 140 71.96152422706632 C
170 71.96152422706632
170 71.96152422706632
200 71.96152422706632
" stroke="rgb(25,152,102)" stroke-width="5" fill-opacity="0.0"></path><path d="
M 125 97.94228634059948 C
140 123.92304845413264
140 123.92304845413264
155 149.9038105676658
" stroke="rgb(25,52,102)" stroke-width="5" fill-opacity="0.0"></path><path d="
M 125 97.94228634059948 C
137.99038105676658 120.44228634059948
137.99038105676658 127.4038105676658
125 149.9038105676658
" stroke="rgb(25,43,102)" stroke-width="5" fill-opacity="0.0"></path><path d="
M 95 97.94228634059948 C
82.00961894323342 120.44228634059948
75.98076211353316 123.92304845413264
50 123.92304845413264
" stroke="rgb(25,25,102)" stroke-width="5" fill-opacity="0.0"></path><path d="
M 200 71.96152422706632 C
174.01923788646684 71.96152422706632
167.99038105676658 75.44228634059948
155 97.94228634059948
" stroke="rgb(25,106,102)" stroke-width="5" fill-opacity="0.0"></path><path d="
M 185 97.94228634059948 C
197.99038105676658 120.44228634059948
204.01923788646684 123.92304845413264
230 123.92304845413264
" stroke="rgb(25,87,102)" stroke-width="5" fill-opacity="0.0"></path><path d="
M 155 97.94228634059948 C
142.00961894323342 120.44228634059948
135.98076211353316 123.92304845413264
110 123.92304845413264
" stroke="rgb(25,74,102)" stroke-width="5" fill-opacity="0.0"></path><path d="
M 155 97.94228634059948 C
142.00961894323342 120.44228634059948
142.00961894323342 127.4038105676658
155 149.9038105676658
" stroke="rgb(25,74,102)" stroke-width="5" fill-opacity="0.0"></path><path d="
M 260 71.96152422706632 C
290 71.96152422706632
290 71.96152422706632
320 71.96152422706632
" stroke="rgb(25,106,102)" stroke-width="5" fill-opacity="0.0"></path><path d="
M 260 71.96152422706632 C
285.98076211353316 71.96152422706632
292.0096189432334 75.44228634059948
305 97.94228634059948
" stroke="rgb(25,106,102)" stroke-width="5" fill-opacity="0.0"></path><path d="
M 245 97.94228634059948 C
260 123.92304845413264
260 123.92304845413264
275 149.9038105676658
" stroke="rgb(25,106,102)" stroke-width="5" fill-opacity="0.0"></path><path d="
M 215 97.94228634059948 C
202.00961894323342 120.44228634059948
195.98076211353316 123.92304845413264
170 123.92304845413264
" stroke="rgb(25,106,102)" stroke-width="5" fill-opacity="0.0"></path><path d="
M 215 97.94228634059948 C
202.00961894323342 120.44228634059948
202.00961894323342 127.4038105676658
215 149.9038105676658
" stroke="rgb(25,106,102)" stroke-width="5" fill-opacity="0.0"></path><path d="
M 215 97.94228634059948 C
200 123.92304845413264
200 123.92304845413264
185 149.9038105676658
" stroke="rgb(25,106,102)" stroke-width="5" fill-opacity="0.0"></path><path d="
M 305 97.94228634059948 C
317.9903810567666 120.44228634059948
324.01923788646684 123.92304845413264
350 123.92304845413264
" stroke="rgb(25,152,102)" stroke-width="5" fill-opacity="0.0"></path><path d="
M 305 97.94228634059948 C
317.9903810567666 120.44228634059948
317.9903810567666 127.4038105676658
305 149.9038105676658
" stroke="rgb(25,125,102)" stroke-width="5" fill-opacity="0.0"></path><path d="
M 275 97.94228634059948 C
262.0096189432334 120.44228634059948
255.98076211353316 123.92304845413264
230 123.92304845413264
" stroke="rgb(25,74,102)" stroke-width="5" fill-opacity="0.0"></path><path d="
M 275 97.94228634059948 C
260 123.92304845413264
260 123.92304845413264
245 149.9038105676658
" stroke="rgb(25,52,102)" stroke-width="5" fill-opacity="0.0"></path><path d="
M 380 71.96152422706632 C
410 71.96152422706632
410 71.96152422706632
440 71.96152422706632
" stroke="rgb(25,217,102)" stroke-width="5" fill-opacity="0.0"></path><path d="
M 380 71.96152422706632 C
405.98076211353316 71.96152422706632
412.0096189432334 75.44228634059948
425 97.94228634059948
" stroke="rgb(25,152,102)" stroke-width="5" fill-opacity="0.0"></path><path d="
M 335 97.94228634059948 C
322.0096189432334 120.44228634059948
315.98076211353316 123.92304845413264
290 123.92304845413264
" stroke="rgb(25,106,102)" stroke-width="5" fill-opacity="0.0"></path><path d="
M 335 97.94228634059948 C
322.0096189432334 120.44228634059948
322.0096189432334 127.4038105676658
335 149.9038105676658
" stroke="rgb(25,87,102)" stroke-width="5" fill-opacity="0.0"></path><path d="
M 335 97.94228634059948 C
320 123.92304845413264
320 123.92304845413264
305 149.9038105676658
" stroke="rgb(25,106,102)" stroke-width="5" fill-opacity="0.0"></path><path d="
M 440 71.96152422706632 C
470 71.96152422706632
470 71.96152422706632
500 71.96152422706632
" stroke="rgb(25,217,102)" stroke-width="5" fill-opacity="0.0"></path><path d="
M 395 97.94228634059948 C
382.0096189432334 120.44228634059948
375.98076211353316 123.92304845413264
350 123.92304845413264
" stroke="rgb(25,217,102)" stroke-width="5" fill-opacity="0.0"></path><path d="
M 395 97.94228634059948 C
382.0096189432334 120.44228634059948
382.0096189432334 127.4038105676658
395 149.9038105676658
" stroke="rgb(25,217,102)" stroke-width="5" fill-opacity="0.0"></path><path d="
M 395 97.94228634059948 C
380 123.92304845413264
380 123.92304845413264
365 149.9038105676658
" stroke="rgb(25,217,102)" stroke-width="5" fill-opacity="0.0"></path><path d="
M 455 97.94228634059948 C
442.0096189432334 120.44228634059948
442.0096189432334 127.4038105676658
455 149.9038105676658
" stroke="rgb(25,36,102)" stroke-width="5" fill-opacity="0.0"></path><path d="
M 50 123.92304845413264 C
24.01923788646684 123.92304845413264
17.99038105676658 127.4038105676658
5 149.9038105676658
" stroke="rgb(25,25,102)" stroke-width="5" fill-opacity="0.0"></path><path d="
M 50 123.92304845413264 C
75.98076211353316 123.92304845413264
82.00961894323342 127.4038105676658
95 149.9038105676658
" stroke="rgb(25,36,102)" stroke-width="5" fill-opacity="0.0"></path><path d="
M 35 149.9038105676658 C
47.99038105676658 172.4038105676658
54.01923788646684 175.88457268119896
80 175.88457268119896
" stroke="rgb(25,36,102)" stroke-width="5" fill-opacity="0.0"></path><path d="
M 35 149.9038105676658 C
47.99038105676658 172.4038105676658
47.99038105676658 179.36533479473212
35 201.86533479473212
" stroke="rgb(25,25,102)" stroke-width="5" fill-opacity="0.0"></path><path d="
M 110 123.92304845413264 C
140 123.92304845413264
140 123.92304845413264
170 123.92304845413264
" stroke="rgb(25,74,102)" stroke-width="5" fill-opacity="0.0"></path><path d="
M 110 123.92304845413264 C
135.98076211353316 123.92304845413264
142.00961894323342 127.4038105676658
155 149.9038105676658
" stroke="rgb(25,61,102)" stroke-width="5" fill-opacity="0.0"></path><path d="
M 95 149.9038105676658 C
107.99038105676658 172.4038105676658
114.01923788646684 175.88457268119896
140 175.88457268119896
" stroke="rgb(25,52,102)" stroke-width="5" fill-opacity="0.0"></path><path d="
M 95 149.9038105676658 C
110 175.88457268119896
110 175.88457268119896
125 201.86533479473212
" stroke="rgb(25,52,102)" stroke-width="5" fill-opacity="0.0"></path><path d="
M 65 149.9038105676658 C
50 175.88457268119896
50 175.88457268119896
35 201.86533479473212
" stroke="rgb(25,17,102)" stroke-width="5" fill-opacity="0.0"></path><path d="
M 125 149.9038105676658 C
112.00961894323342 172.4038105676658
112.00961894323342 179.36533479473212
125 201.86533479473212
" stroke="rgb(25,52,102)" stroke-width="5" fill-opacity="0.0"></path><path d="
M 230 123.92304845413264 C
260 123.92304845413264
260 123.92304845413264
290 123.92304845413264
" stroke="rgb(25,106,102)" stroke-width="5" fill-opacity="0.0"></path><path d="
M 230 123.92304845413264 C
255.98076211353316 123.92304845413264
262.0096189432334 127.4038105676658
275 149.9038105676658
" stroke="rgb(25,87,102)" stroke-width="5" fill-opacity="0.0"></path><path d="
M 215 149.9038105676658 C
227.99038105676658 172.4038105676658
234.01923788646684 175.88457268119896
260 175.88457268119896
" stroke="rgb(25,87,102)" stroke-width="5" fill-opacity="0.0"></path><path d="
M 215 149.9038105676658 C
230 175.88457268119896
230 175.88457268119896
245 201.86533479473212
" stroke="rgb(25,106,102)" stroke-width="5" fill-opacity="0.0"></path><path d="
M 185 149.9038105676658 C
172.00961894323342 172.4038105676658
165.98076211353316 175.88457268119896
140 175.88457268119896
" stroke="rgb(25,74,102)" stroke-width="5" fill-opacity="0.0"></path><path d="
M 290 123.92304845413264 C
320 123.92304845413264
320 123.92304845413264
350 123.92304845413264
" stroke="rgb(25,152,102)" stroke-width="5" fill-opacity="0.0"></path><path d="
M 290 123.92304845413264 C
315.98076211353316 123.92304845413264
322.0096189432334 127.4038105676658
335 149.9038105676658
" stroke="rgb(25,106,102)" stroke-width="5" fill-opacity="0.0"></path><path d="
M 275 149.9038105676658 C
287.9903810567666 172.4038105676658
294.01923788646684 175.88457268119896
320 175.88457268119896
" stroke="rgb(25,74,102)" stroke-width="5" fill-opacity="0.0"></path><path d="
M 275 149.9038105676658 C
287.9903810567666 172.4038105676658
287.9903810567666 179.36533479473212
275 201.86533479473212
" stroke="rgb(25,74,102)" stroke-width="5" fill-opacity="0.0"></path><path d="
M 245 149.9038105676658 C
230 175.88457268119896
230 175.88457268119896
215 201.86533479473212
" stroke="rgb(25,52,102)" stroke-width="5" fill-opacity="0.0"></path><path d="
M 350 123.92304845413264 C
380 123.92304845413264
380 123.92304845413264
410 123.92304845413264
" stroke="rgb(25,152,102)" stroke-width="5" fill-opacity="0.0"></path><path d="
M 335 149.9038105676658 C
347.9903810567666 172.4038105676658
354.01923788646684 175.88457268119896
380 175.88457268119896
" stroke="rgb(25,87,102)" stroke-width="5" fill-opacity="0.0"></path><path d="
M 305 149.9038105676658 C
292.0096189432334 172.4038105676658
285.98076211353316 175.88457268119896
260 175.88457268119896
" stroke="rgb(25,106,102)" stroke-width="5" fill-opacity="0.0"></path><path d="
M 305 149.9038105676658 C
292.0096189432334 172.4038105676658
292.0096189432334 179.36533479473212
305 201.86533479473212
" stroke="rgb(25,152,102)" stroke-width="5" fill-opacity="0.0"></path><path d="
M 410 123.92304845413264 C
440 123.92304845413264
440 123.92304845413264
470 123.92304845413264
" stroke="rgb(25,106,102)" stroke-width="5" fill-opacity="0.0"></path><path d="
M 395 149.9038105676658 C
407.9903810567666 172.4038105676658
414.01923788646684 175.88457268119896
440 175.88457268119896
" stroke="rgb(25,152,102)" stroke-width="5" fill-opacity="0.0"></path><path d="
M 395 149.9038105676658 C
410 175.88457268119896
410 175.88457268119896
425 201.86533479473212
" stroke="rgb(25,152,102)" stroke-width="5" fill-opacity="0.0"></path><path d="
M 395 149.9038105676658 C
407.9903810567666 172.4038105676658
407.9903810567666 179.36533479473212
395 201.86533479473212
" stroke="rgb(25,152,102)" stroke-width="5" fill-opacity="0.0"></path><path d="
M 365 149.9038105676658 C
352.0096189432334 172.4038105676658
352.0096189432334 179.36533479473212
365 201.86533479473212
" stroke="rgb(25,152,102)" stroke-width="5" fill-opacity="0.0"></path><path d="
M 365 149.9038105676658 C
350 175.88457268119896
350 175.88457268119896
335 201.86533479473212
" stroke="rgb(25,152,102)" stroke-width="5" fill-opacity="0.0"></path><path d="
M 470 123.92304845413264 C
444.01923788646684 123.92304845413264
437.9903810567666 127.4038105676658
425 149.9038105676658
" stroke="rgb(25,87,102)" stroke-width="5" fill-opacity="0.0"></path><path d="
M 455 149.9038105676658 C
467.9903810567666 172.4038105676658
467.9903810567666 179.36533479473212
455 201.86533479473212
" stroke="rgb(25,52,102)" stroke-width="5" fill-opacity="0.0"></path><path d="
M 425 149.9038105676658 C
412.0096189432334 172.4038105676658
405.98076211353316 175.88457268119896
380 175.88457268119896
" stroke="rgb(25,87,102)" stroke-width="5" fill-opacity="0.0"></path><path d="
M 425 149.9038105676658 C
412.0096189432334 172.4038105676658
412.0096189432334 179.36533479473212
425 201.86533479473212
" stroke="rgb(25,106,102)" stroke-width="5" fill-opacity="0.0"></path><path d="
M 425 149.9038105676658 C
410 175.88457268119896
410 175.88457268119896
395 201.86533479473212
" stroke="rgb(25,106,102)" stroke-width="5" fill-opacity="0.0"></path><path d="
M 80 175.88457268119896 C
110 175.88457268119896
110 175.88457268119896
140 175.88457268119896
" stroke="rgb(25,52,102)" stroke-width="5" fill-opacity="0.0"></path><path d="
M 80 175.88457268119896 C
105.98076211353316 175.88457268119896
112.00961894323342 179.36533479473212
125 201.86533479473212
" stroke="rgb(25,52,102)" stroke-width="5" fill-opacity="0.0"></path><path d="
M 65 201.86533479473212 C
80 227.84609690826528
80 227.84609690826528
95 253.82685902179844
" stroke="rgb(25,152,102)" stroke-width="5" fill-opacity="0.0"></path><path d="
M 65 201.86533479473212 C
77.99038105676658 224.36533479473212
77.99038105676658 231.32685902179844
65 253.82685902179844
" stroke="rgb(25,217,102)" stroke-width="5" fill-opacity="0.0"></path><path d="
M 125 201.86533479473212 C
137.99038105676658 224.36533479473212
144.01923788646684 227.84609690826528
170 227.84609690826528
" stroke="rgb(25,74,102)" stroke-width="5" fill-opacity="0.0"></path><path d="
M 125 201.86533479473212 C
140 227.84609690826528
140 227.84609690826528
155 253.82685902179844
" stroke="rgb(25,74,102)" stroke-width="5" fill-opacity="0.0"></path><path d="
M 95 201.86533479473212 C
82.00961894323342 224.36533479473212
75.98076211353316 227.84609690826528
50 227.84609690826528
" stroke="rgb(25,106,102)" stroke-width="5" fill-opacity="0.0"></path><path d="
M 200 175.88457268119896 C
174.01923788646684 175.88457268119896
167.99038105676658 179.36533479473212
155 201.86533479473212
" stroke="rgb(25,61,102)" stroke-width="5" fill-opacity="0.0"></path><path d="
M 200 175.88457268119896 C
230 175.88457268119896
230 175.88457268119896
260 175.88457268119896
" stroke="rgb(25,74,102)" stroke-width="5" fill-opacity="0.0"></path><path d="
M 185 201.86533479473212 C
197.99038105676658 224.36533479473212
204.01923788646684 227.84609690826528
230 227.84609690826528
" stroke="rgb(25,106,102)" stroke-width="5" fill-opacity="0.0"></path><path d="
M 185 201.86533479473212 C
197.99038105676658 224.36533479473212
197.99038105676658 231.32685902179844
185 253.82685902179844
" stroke="rgb(25,87,102)" stroke-width="5" fill-opacity="0.0"></path><path d="
M 155 201.86533479473212 C
142.00961894323342 224.36533479473212
142.00961894323342 231.32685902179844
155 253.82685902179844
" stroke="rgb(25,74,102)" stroke-width="5" fill-opacity="0.0"></path><path d="
M 260 175.88457268119896 C
290 175.88457268119896
290 175.88457268119896
320 175.88457268119896
" stroke="rgb(25,74,102)" stroke-width="5" fill-opacity="0.0"></path><path d="
M 245 201.86533479473212 C
257.9903810567666 224.36533479473212
264.01923788646684 227.84609690826528
290 227.84609690826528
" stroke="rgb(25,152,102)" stroke-width="5" fill-opacity="0.0"></path><path d="
M 245 201.86533479473212 C
260 227.84609690826528
260 227.84609690826528
275 253.82685902179844
" stroke="rgb(25,106,102)" stroke-width="5" fill-opacity="0.0"></path><path d="
M 245 201.86533479473212 C
257.9903810567666 224.36533479473212
257.9903810567666 231.32685902179844
245 253.82685902179844
" stroke="rgb(25,106,102)" stroke-width="5" fill-opacity="0.0"></path><path d="
M 215 201.86533479473212 C
202.00961894323342 224.36533479473212
195.98076211353316 227.84609690826528
170 227.84609690826528
" stroke="rgb(25,74,102)" stroke-width="5" fill-opacity="0.0"></path><path d="
M 215 201.86533479473212 C
200 227.84609690826528
200 227.84609690826528
185 253.82685902179844
" stroke="rgb(25,74,102)" stroke-width="5" fill-opacity="0.0"></path><path d="
M 320 175.88457268119896 C
294.01923788646684 175.88457268119896
287.9903810567666 179.36533479473212
275 201.86533479473212
" stroke="rgb(25,61,102)" stroke-width="5" fill-opacity="0.0"></path><path d="
M 305 201.86533479473212 C
317.9903810567666 224.36533479473212
324.01923788646684 227.84609690826528
350 227.84609690826528
" stroke="rgb(25,217,102)" stroke-width="5" fill-opacity="0.0"></path><path d="
M 275 201.86533479473212 C
262.0096189432334 224.36533479473212
262.0096189432334 231.32685902179844
275 253.82685902179844
" stroke="rgb(25,74,102)" stroke-width="5" fill-opacity="0.0"></path><path d="
M 275 201.86533479473212 C
260 227.84609690826528
260 227.84609690826528
245 253.82685902179844
" stroke="rgb(25,74,102)" stroke-width="5" fill-opacity="0.0"></path><path d="
M 380 175.88457268119896 C
410 175.88457268119896
410 175.88457268119896
440 175.88457268119896
" stroke="rgb(25,106,102)" stroke-width="5" fill-opacity="0.0"></path><path d="
M 380 175.88457268119896 C
405.98076211353316 175.88457268119896
412.0096189432334 179.36533479473212
425 201.86533479473212
" stroke="rgb(25,106,102)" stroke-width="5" fill-opacity="0.0"></path><path d="
M 365 201.86533479473212 C
377.9903810567666 224.36533479473212
384.01923788646684 227.84609690826528
410 227.84609690826528
" stroke="rgb(25,106,102)" stroke-width="5" fill-opacity="0.0"></path><path d="
M 335 201.86533479473212 C
322.0096189432334 224.36533479473212
322.0096189432334 231.32685902179844
335 253.82685902179844
" stroke="rgb(25,125,102)" stroke-width="5" fill-opacity="0.0"></path><path d="
M 335 201.86533479473212 C
320 227.84609690826528
320 227.84609690826528
305 253.82685902179844
" stroke="rgb(25,152,102)" stroke-width="5" fill-opacity="0.0"></path><path d="
M 440 175.88457268119896 C
465.98076211353316 175.88457268119896
472.0096189432334 179.36533479473212
485 201.86533479473212
" stroke="rgb(25,106,102)" stroke-width="5" fill-opacity="0.0"></path><path d="
M 425 201.86533479473212 C
440 227.84609690826528
440 227.84609690826528
455 253.82685902179844
" stroke="rgb(25,106,102)" stroke-width="5" fill-opacity="0.0"></path><path d="
M 500 175.88457268119896 C
474.01923788646684 175.88457268119896
467.9903810567666 179.36533479473212
455 201.86533479473212
" stroke="rgb(25,52,102)" stroke-width="5" fill-opacity="0.0"></path><path d="
M 455 201.86533479473212 C
442.0096189432334 224.36533479473212
442.0096189432334 231.32685902179844
455 253.82685902179844
" stroke="rgb(25,74,102)" stroke-width="5" fill-opacity="0.0"></path><path d="
M 50 227.84609690826528 C
24.01923788646684 227.84609690826528
17.99038105676658 231.32685902179844
5 253.82685902179844
" stroke="rgb(25,106,102)" stroke-width="5" fill-opacity="0.0"></path><path d="
M 50 227.84609690826528 C
80 227.84609690826528
80 227.84609690826528
110 227.84609690826528
" stroke="rgb(25,152,102)" stroke-width="5" fill-opacity="0.0"></path><path d="
M 35 253.82685902179844 C
47.99038105676658 276.32685902179844
54.01923788646684 279.8076211353316
80 279.8076211353316
" stroke="rgb(25,36,102)" stroke-width="5" fill-opacity="0.0"></path><path d="
M 110 227.84609690826528 C
84.01923788646684 227.84609690826528
77.99038105676658 231.32685902179844
65 253.82685902179844
" stroke="rgb(25,217,102)" stroke-width="5" fill-opacity="0.0"></path><path d="
M 95 253.82685902179844 C
110 279.8076211353316
110 279.8076211353316
125 305.78838324886476
" stroke="rgb(25,106,102)" stroke-width="5" fill-opacity="0.0"></path><path d="
M 95 253.82685902179844 C
107.99038105676658 276.32685902179844
107.99038105676658 283.28838324886476
95 305.78838324886476
" stroke="rgb(25,106,102)" stroke-width="5" fill-opacity="0.0"></path><path d="
M 170 227.84609690826528 C
144.01923788646684 227.84609690826528
137.99038105676658 231.32685902179844
125 253.82685902179844
" stroke="rgb(25,74,102)" stroke-width="5" fill-opacity="0.0"></path><path d="
M 170 227.84609690826528 C
200 227.84609690826528
200 227.84609690826528
230 227.84609690826528
" stroke="rgb(25,106,102)" stroke-width="5" fill-opacity="0.0"></path><path d="
M 170 227.84609690826528 C
195.98076211353316 227.84609690826528
202.00961894323342 231.32685902179844
215 253.82685902179844
" stroke="rgb(25,106,102)" stroke-width="5" fill-opacity="0.0"></path><path d="
M 155 253.82685902179844 C
170 279.8076211353316
170 279.8076211353316
185 305.78838324886476
" stroke="rgb(25,106,102)" stroke-width="5" fill-opacity="0.0"></path><path d="
M 125 253.82685902179844 C
112.00961894323342 276.32685902179844
105.98076211353316 279.8076211353316
80 279.8076211353316
" stroke="rgb(25,52,102)" stroke-width="5" fill-opacity="0.0"></path><path d="
M 125 253.82685902179844 C
112.00961894323342 276.32685902179844
112.00961894323342 283.28838324886476
125 305.78838324886476
" stroke="rgb(25,74,102)" stroke-width="5" fill-opacity="0.0"></path><path d="
M 230 227.84609690826528 C
260 227.84609690826528
260 227.84609690826528
290 227.84609690826528
" stroke="rgb(25,152,102)" stroke-width="5" fill-opacity="0.0"></path><path d="
M 215 253.82685902179844 C
227.99038105676658 276.32685902179844
234.01923788646684 279.8076211353316
260 279.8076211353316
" stroke="rgb(25,125,102)" stroke-width="5" fill-opacity="0.0"></path><path d="
M 215 253.82685902179844 C
230 279.8076211353316
230 279.8076211353316
245 305.78838324886476
" stroke="rgb(25,152,102)" stroke-width="5" fill-opacity="0.0"></path><path d="
M 185 253.82685902179844 C
172.00961894323342 276.32685902179844
172.00961894323342 283.28838324886476
185 305.78838324886476
" stroke="rgb(25,106,102)" stroke-width="5" fill-opacity="0.0"></path><path d="
M 185 253.82685902179844 C
170 279.8076211353316
170 279.8076211353316
155 305.78838324886476
" stroke="rgb(25,87,102)" stroke-width="5" fill-opacity="0.0"></path><path d="
M 290 227.84609690826528 C
320 227.84609690826528
320 227.84609690826528
350 227.84609690826528
" stroke="rgb(25,217,102)" stroke-width="5" fill-opacity="0.0"></path><path d="
M 290 227.84609690826528 C
315.98076211353316 227.84609690826528
322.0096189432334 231.32685902179844
335 253.82685902179844
" stroke="rgb(25,152,102)" stroke-width="5" fill-opacity="0.0"></path><path d="
M 275 253.82685902179844 C
290 279.8076211353316
290 279.8076211353316
305 305.78838324886476
" stroke="rgb(25,106,102)" stroke-width="5" fill-opacity="0.0"></path><path d="
M 245 253.82685902179844 C
232.00961894323342 276.32685902179844
225.98076211353316 279.8076211353316
200 279.8076211353316
" stroke="rgb(25,106,102)" stroke-width="5" fill-opacity="0.0"></path><path d="
M 350 227.84609690826528 C
324.01923788646684 227.84609690826528
317.9903810567666 231.32685902179844
305 253.82685902179844
" stroke="rgb(25,217,102)" stroke-width="5" fill-opacity="0.0"></path><path d="
M 350 227.84609690826528 C
375.98076211353316 227.84609690826528
382.0096189432334 231.32685902179844
395 253.82685902179844
" stroke="rgb(25,217,102)" stroke-width="5" fill-opacity="0.0"></path><path d="
M 335 253.82685902179844 C
347.9903810567666 276.32685902179844
354.01923788646684 279.8076211353316
380 279.8076211353316
" stroke="rgb(25,106,102)" stroke-width="5" fill-opacity="0.0"></path><path d="
M 335 253.82685902179844 C
347.9903810567666 276.32685902179844
347.9903810567666 283.28838324886476
335 305.78838324886476
" stroke="rgb(25,152,102)" stroke-width="5" fill-opacity="0.0"></path><path d="
M 305 253.82685902179844 C
292.0096189432334 276.32685902179844
285.98076211353316 279.8076211353316
260 279.8076211353316
" stroke="rgb(25,152,102)" stroke-width="5" fill-opacity="0.0"></path><path d="
M 305 253.82685902179844 C
290 279.8076211353316
290 279.8076211353316
275 305.78838324886476
" stroke="rgb(25,152,102)" stroke-width="5" fill-opacity="0.0"></path><path d="
M 410 227.84609690826528 C
384.01923788646684 227.84609690826528
377.9903810567666 231.32685902179844
365 253.82685902179844
" stroke="rgb(25,106,102)" stroke-width="5" fill-opacity="0.0"></path><path d="
M 410 227.84609690826528 C
435.98076211353316 227.84609690826528
442.0096189432334 231.32685902179844
455 253.82685902179844
" stroke="rgb(25,87,102)" stroke-width="5" fill-opacity="0.0"></path><path d="
M 395 253.82685902179844 C
407.9903810567666 276.32685902179844
414.01923788646684 279.8076211353316
440 279.8076211353316
" stroke="rgb(25,152,102)" stroke-width="5" fill-opacity="0.0"></path><path d="
M 365 253.82685902179844 C
352.0096189432334 276.32685902179844
345.98076211353316 279.8076211353316
320 279.8076211353316
" stroke="rgb(25,125,102)" stroke-width="5" fill-opacity="0.0"></path><path d="
M 365 253.82685902179844 C
352.0096189432334 276.32685902179844
352.0096189432334 283.28838324886476
365 305.78838324886476
" stroke="rgb(25,152,102)" stroke-width="5" fill-opacity="0.0"></path><path d="
M 470 227.84609690826528 C
444.01923788646684 227.84609690826528
437.9903810567666 231.32685902179844
425 253.82685902179844
" stroke="rgb(25,106,102)" stroke-width="5" fill-opacity="0.0"></path><path d="
M 455 253.82685902179844 C
470 279.8076211353316
470 279.8076211353316
485 305.78838324886476
" stroke="rgb(25,74,102)" stroke-width="5" fill-opacity="0.0"></path><path d="
M 425 253.82685902179844 C
412.0096189432334 276.32685902179844
405.98076211353316 279.8076211353316
380 279.8076211353316
" stroke="rgb(25,106,102)" stroke-width="5" fill-opacity="0.0"></path><path d="
M 425 253.82685902179844 C
412.0096189432334 276.32685902179844
412.0096189432334 283.28838324886476
425 305.78838324886476
" stroke="rgb(25,106,102)" stroke-width="5" fill-opacity="0.0"></path><path d="
M 425 253.82685902179844 C
410 279.8076211353316
410 279.8076211353316
395 305.78838324886476
" stroke="rgb(25,152,102)" stroke-width="5" fill-opacity="0.0"></path><path d="
M 80 279.8076211353316 C
54.01923788646684 279.8076211353316
47.99038105676658 283.28838324886476
35 305.78838324886476
" stroke="rgb(25,36,102)" stroke-width="5" fill-opacity="0.0"></path><path d="
M 65 305.78838324886476 C
80 331.7691453623979
80 331.7691453623979
95 357.7499074759311
" stroke="rgb(25,52,102)" stroke-width="5" fill-opacity="0.0"></path><path d="
M 65 305.78838324886476 C
77.99038105676658 328.28838324886476
77.99038105676658 335.2499074759311
65 357.7499074759311
" stroke="rgb(25,52,102)" stroke-width="5" fill-opacity="0.0"></path><path d="
M 140 279.8076211353316 C
170 279.8076211353316
170 279.8076211353316
200 279.8076211353316
" stroke="rgb(25,106,102)" stroke-width="5" fill-opacity="0.0"></path><path d="
M 125 305.78838324886476 C
140 331.7691453623979
140 331.7691453623979
155 357.7499074759311
" stroke="rgb(25,74,102)" stroke-width="5" fill-opacity="0.0"></path><path d="
M 125 305.78838324886476 C
137.99038105676658 328.28838324886476
137.99038105676658 335.2499074759311
125 357.7499074759311
" stroke="rgb(25,106,102)" stroke-width="5" fill-opacity="0.0"></path><path d="
M 95 305.78838324886476 C
82.00961894323342 328.28838324886476
75.98076211353316 331.7691453623979
50 331.7691453623979
" stroke="rgb(25,74,102)" stroke-width="5" fill-opacity="0.0"></path><path d="
M 95 305.78838324886476 C
82.00961894323342 328.28838324886476
82.00961894323342 335.2499074759311
95 357.7499074759311
" stroke="rgb(25,74,102)" stroke-width="5" fill-opacity="0.0"></path><path d="
M 95 305.78838324886476 C
80 331.7691453623979
80 331.7691453623979
65 357.7499074759311
" stroke="rgb(25,74,102)" stroke-width="5" fill-opacity="0.0"></path><path d="
M 200 279.8076211353316 C
230 279.8076211353316
230 279.8076211353316
260 279.8076211353316
" stroke="rgb(25,125,102)" stroke-width="5" fill-opacity="0.0"></path><path d="
M 200 279.8076211353316 C
225.98076211353316 279.8076211353316
232.00961894323342 283.28838324886476
245 305.78838324886476
" stroke="rgb(25,152,102)" stroke-width="5" fill-opacity="0.0"></path><path d="
M 185 305.78838324886476 C
197.99038105676658 328.28838324886476
204.01923788646684 331.7691453623979
230 331.7691453623979
" stroke="rgb(25,152,102)" stroke-width="5" fill-opacity="0.0"></path><path d="
M 185 305.78838324886476 C
200 331.7691453623979
200 331.7691453623979
215 357.7499074759311
" stroke="rgb(25,106,102)" stroke-width="5" fill-opacity="0.0"></path><path d="
M 185 305.78838324886476 C
197.99038105676658 328.28838324886476
197.99038105676658 335.2499074759311
185 357.7499074759311
" stroke="rgb(25,125,102)" stroke-width="5" fill-opacity="0.0"></path><path d="
M 155 305.78838324886476 C
142.00961894323342 328.28838324886476
135.98076211353316 331.7691453623979
110 331.7691453623979
" stroke="rgb(25,74,102)" stroke-width="5" fill-opacity="0.0"></path><path d="
M 155 305.78838324886476 C
140 331.7691453623979
140 331.7691453623979
125 357.7499074759311
" stroke="rgb(25,106,102)" stroke-width="5" fill-opacity="0.0"></path><path d="
M 260 279.8076211353316 C
234.01923788646684 279.8076211353316
227.99038105676658 283.28838324886476
215 305.78838324886476
" stroke="rgb(25,106,102)" stroke-width="5" fill-opacity="0.0"></path><path d="
M 260 279.8076211353316 C
285.98076211353316 279.8076211353316
292.0096189432334 283.28838324886476
305 305.78838324886476
" stroke="rgb(25,125,102)" stroke-width="5" fill-opacity="0.0"></path><path d="
M 245 305.78838324886476 C
257.9903810567666 328.28838324886476
264.01923788646684 331.7691453623979
290 331.7691453623979
" stroke="rgb(25,217,102)" stroke-width="5" fill-opacity="0.0"></path><path d="
M 245 305.78838324886476 C
260 331.7691453623979
260 331.7691453623979
275 357.7499074759311
" stroke="rgb(25,152,102)" stroke-width="5" fill-opacity="0.0"></path><path d="
M 215 305.78838324886476 C
202.00961894323342 328.28838324886476
202.00961894323342 335.2499074759311
215 357.7499074759311
" stroke="rgb(25,87,102)" stroke-width="5" fill-opacity="0.0"></path><path d="
M 215 305.78838324886476 C
200 331.7691453623979
200 331.7691453623979
185 357.7499074759311
" stroke="rgb(25,106,102)" stroke-width="5" fill-opacity="0.0"></path><path d="
M 320 279.8076211353316 C
294.01923788646684 279.8076211353316
287.9903810567666 283.28838324886476
275 305.78838324886476
" stroke="rgb(25,125,102)" stroke-width="5" fill-opacity="0.0"></path><path d="
M 320 279.8076211353316 C
345.98076211353316 279.8076211353316
352.0096189432334 283.28838324886476
365 305.78838324886476
" stroke="rgb(25,152,102)" stroke-width="5" fill-opacity="0.0"></path><path d="
M 305 305.78838324886476 C
317.9903810567666 328.28838324886476
324.01923788646684 331.7691453623979
350 331.7691453623979
" stroke="rgb(25,152,102)" stroke-width="5" fill-opacity="0.0"></path><path d="
M 305 305.78838324886476 C
317.9903810567666 328.28838324886476
317.9903810567666 335.2499074759311
305 357.7499074759311
" stroke="rgb(25,125,102)" stroke-width="5" fill-opacity="0.0"></path><path d="
M 275 305.78838324886476 C
262.0096189432334 328.28838324886476
255.98076211353316 331.7691453623979
230 331.7691453623979
" stroke="rgb(25,152,102)" stroke-width="5" fill-opacity="0.0"></path><path d="
M 275 305.78838324886476 C
262.0096189432334 328.28838324886476
262.0096189432334 335.2499074759311
275 357.7499074759311
" stroke="rgb(25,125,102)" stroke-width="5" fill-opacity="0.0"></path><path d="
M 275 305.78838324886476 C
260 331.7691453623979
260 331.7691453623979
245 357.7499074759311
" stroke="rgb(25,152,102)" stroke-width="5" fill-opacity="0.0"></path><path d="
M 365 305.78838324886476 C
377.9903810567666 328.28838324886476
384.01923788646684 331.7691453623979
410 331.7691453623979
" stroke="rgb(25,217,102)" stroke-width="5" fill-opacity="0.0"></path><path d="
M 335 305.78838324886476 C
322.0096189432334 328.28838324886476
315.98076211353316 331.7691453623979
290 331.7691453623979
" stroke="rgb(25,217,102)" stroke-width="5" fill-opacity="0.0"></path><path d="
M 335 305.78838324886476 C
322.0096189432334 328.28838324886476
322.0096189432334 335.2499074759311
335 357.7499074759311
" stroke="rgb(25,152,102)" stroke-width="5" fill-opacity="0.0"></path><path d="
M 425 305.78838324886476 C
437.9903810567666 328.28838324886476
444.01923788646684 331.7691453623979
470 331.7691453623979
" stroke="rgb(25,74,102)" stroke-width="5" fill-opacity="0.0"></path><path d="
M 425 305.78838324886476 C
437.9903810567666 328.28838324886476
437.9903810567666 335.2499074759311
425 357.7499074759311
" stroke="rgb(25,87,102)" stroke-width="5" fill-opacity="0.0"></path><path d="
M 395 305.78838324886476 C
382.0096189432334 328.28838324886476
382.0096189432334 335.2499074759311
395 357.7499074759311
" stroke="rgb(25,217,102)" stroke-width="5" fill-opacity="0.0"></path><path d="
M 395 305.78838324886476 C
380 331.7691453623979
380 331.7691453623979
365 357.7499074759311
" stroke="rgb(25,179,102)" stroke-width="5" fill-opacity="0.0"></path><path d="
M 455 305.78838324886476 C
442.0096189432334 328.28838324886476
435.98076211353316 331.7691453623979
410 331.7691453623979
" stroke="rgb(25,217,102)" stroke-width="5" fill-opacity="0.0"></path><path d="
M 50 331.7691453623979 C
24.01923788646684 331.7691453623979
17.99038105676658 335.2499074759311
5 357.7499074759311
" stroke="rgb(25,52,102)" stroke-width="5" fill-opacity="0.0"></path><path d="
M 50 331.7691453623979 C
80 331.7691453623979
80 331.7691453623979
110 331.7691453623979
" stroke="rgb(25,61,102)" stroke-width="5" fill-opacity="0.0"></path><path d="
M 50 331.7691453623979 C
75.98076211353316 331.7691453623979
82.00961894323342 335.2499074759311
95 357.7499074759311
" stroke="rgb(25,61,102)" stroke-width="5" fill-opacity="0.0"></path><path d="
M 35 357.7499074759311 C
47.99038105676658 380.2499074759311
54.01923788646684 383.73066958946424
80 383.73066958946424
" stroke="rgb(25,106,102)" stroke-width="5" fill-opacity="0.0"></path><path d="
M 35 357.7499074759311 C
50 383.73066958946424
50 383.73066958946424
65 409.7114317029974
" stroke="rgb(25,74,102)" stroke-width="5" fill-opacity="0.0"></path><path d="
M 35 357.7499074759311 C
47.99038105676658 380.2499074759311
47.99038105676658 387.2114317029974
35 409.7114317029974
" stroke="rgb(25,74,102)" stroke-width="5" fill-opacity="0.0"></path><path d="
M 110 331.7691453623979 C
140 331.7691453623979
140 331.7691453623979
170 331.7691453623979
" stroke="rgb(25,61,102)" stroke-width="5" fill-opacity="0.0"></path><path d="
M 95 357.7499074759311 C
107.99038105676658 380.2499074759311
114.01923788646684 383.73066958946424
140 383.73066958946424
" stroke="rgb(25,74,102)" stroke-width="5" fill-opacity="0.0"></path><path d="
M 95 357.7499074759311 C
107.99038105676658 380.2499074759311
107.99038105676658 387.2114317029974
95 409.7114317029974
" stroke="rgb(25,52,102)" stroke-width="5" fill-opacity="0.0"></path><path d="
M 65 357.7499074759311 C
50 383.73066958946424
50 383.73066958946424
35 409.7114317029974
" stroke="rgb(25,61,102)" stroke-width="5" fill-opacity="0.0"></path><path d="
M 170 331.7691453623979 C
195.98076211353316 331.7691453623979
202.00961894323342 335.2499074759311
215 357.7499074759311
" stroke="rgb(25,74,102)" stroke-width="5" fill-opacity="0.0"></path><path d="
M 155 357.7499074759311 C
167.99038105676658 380.2499074759311
174.01923788646684 383.73066958946424
200 383.73066958946424
" stroke="rgb(25,61,102)" stroke-width="5" fill-opacity="0.0"></path><path d="
M 125 357.7499074759311 C
112.00961894323342 380.2499074759311
112.00961894323342 387.2114317029974
125 409.7114317029974
" stroke="rgb(25,152,102)" stroke-width="5" fill-opacity="0.0"></path><path d="
M 230 331.7691453623979 C
204.01923788646684 331.7691453623979
197.99038105676658 335.2499074759311
185 357.7499074759311
" stroke="rgb(25,152,102)" stroke-width="5" fill-opacity="0.0"></path><path d="
M 230 331.7691453623979 C
260 331.7691453623979
260 331.7691453623979
290 331.7691453623979
" stroke="rgb(25,217,102)" stroke-width="5" fill-opacity="0.0"></path><path d="
M 230 331.7691453623979 C
255.98076211353316 331.7691453623979
262.0096189432334 335.2499074759311
275 357.7499074759311
" stroke="rgb(25,152,102)" stroke-width="5" fill-opacity="0.0"></path><path d="
M 215 357.7499074759311 C
227.99038105676658 380.2499074759311
234.01923788646684 383.73066958946424
260 383.73066958946424
" stroke="rgb(25,87,102)" stroke-width="5" fill-opacity="0.0"></path><path d="
M 185 357.7499074759311 C
172.00961894323342 380.2499074759311
172.00961894323342 387.2114317029974
185 409.7114317029974
" stroke="rgb(25,106,102)" stroke-width="5" fill-opacity="0.0"></path><path d="
M 290 331.7691453623979 C
264.01923788646684 331.7691453623979
257.9903810567666 335.2499074759311
245 357.7499074759311
" stroke="rgb(25,217,102)" stroke-width="5" fill-opacity="0.0"></path><path d="
M 290 331.7691453623979 C
320 331.7691453623979
320 331.7691453623979
350 331.7691453623979
" stroke="rgb(25,217,102)" stroke-width="5" fill-opacity="0.0"></path><path d="
M 275 357.7499074759311 C
290 383.73066958946424
290 383.73066958946424
305 409.7114317029974
" stroke="rgb(25,106,102)" stroke-width="5" fill-opacity="0.0"></path><path d="
M 245 357.7499074759311 C
232.00961894323342 380.2499074759311
232.00961894323342 387.2114317029974
245 409.7114317029974
" stroke="rgb(25,152,102)" stroke-width="5" fill-opacity="0.0"></path><path d="
M 350 331.7691453623979 C
324.01923788646684 331.7691453623979
317.9903810567666 335.2499074759311
305 357.7499074759311
" stroke="rgb(25,152,102)" stroke-width="5" fill-opacity="0.0"></path><path d="
M 350 331.7691453623979 C
380 331.7691453623979
380 331.7691453623979
410 331.7691453623979
" stroke="rgb(25,217,102)" stroke-width="5" fill-opacity="0.0"></path><path d="
M 335 357.7499074759311 C
347.9903810567666 380.2499074759311
354.01923788646684 383.73066958946424
380 383.73066958946424
" stroke="rgb(25,125,102)" stroke-width="5" fill-opacity="0.0"></path><path d="
M 335 357.7499074759311 C
350 383.73066958946424
350 383.73066958946424
365 409.7114317029974
" stroke="rgb(25,106,102)" stroke-width="5" fill-opacity="0.0"></path><path d="
M 305 357.7499074759311 C
292.0096189432334 380.2499074759311
285.98076211353316 383.73066958946424
260 383.73066958946424
" stroke="rgb(25,106,102)" stroke-width="5" fill-opacity="0.0"></path><path d="
M 410 331.7691453623979 C
384.01923788646684 331.7691453623979
377.9903810567666 335.2499074759311
365 357.7499074759311
" stroke="rgb(25,217,102)" stroke-width="5" fill-opacity="0.0"></path><path d="
M 410 331.7691453623979 C
435.98076211353316 331.7691453623979
442.0096189432334 335.2499074759311
455 357.7499074759311
" stroke="rgb(25,217,102)" stroke-width="5" fill-opacity="0.0"></path><path d="
M 395 357.7499074759311 C
407.9903810567666 380.2499074759311
414.01923788646684 383.73066958946424
440 383.73066958946424
" stroke="rgb(25,217,102)" stroke-width="5" fill-opacity="0.0"></path><path d="
M 365 357.7499074759311 C
352.0096189432334 380.2499074759311
345.98076211353316 383.73066958946424
320 383.73066958946424
" stroke="rgb(25,152,102)" stroke-width="5" fill-opacity="0.0"></path><path d="
M 455 357.7499074759311 C
470 383.73066958946424
470 383.73066958946424
485 409.7114317029974
" stroke="rgb(25,152,102)" stroke-width="5" fill-opacity="0.0"></path><path d="
M 425 357.7499074759311 C
412.0096189432334 380.2499074759311
405.98076211353316 383.73066958946424
380 383.73066958946424
" stroke="rgb(25,106,102)" stroke-width="5" fill-opacity="0.0"></path><path d="
M 425 357.7499074759311 C
412.0096189432334 380.2499074759311
412.0096189432334 387.2114317029974
425 409.7114317029974
" stroke="rgb(25,87,102)" stroke-width="5" fill-opacity="0.0"></path><path d="
M 425 357.7499074759311 C
410 383.73066958946424
410 383.73066958946424
395 409.7114317029974
" stroke="rgb(25,106,102)" stroke-width="5" fill-opacity="0.0"></path><path d="
M 80 383.73066958946424 C
110 383.73066958946424
110 383.73066958946424
140 383.73066958946424
" stroke="rgb(25,106,102)" stroke-width="5" fill-opacity="0.0"></path><path d="
M 80 383.73066958946424 C
105.98076211353316 383.73066958946424
112.00961894323342 387.2114317029974
125 409.7114317029974
" stroke="rgb(25,152,102)" stroke-width="5" fill-opacity="0.0"></path><path d="
M 65 409.7114317029974 C
77.99038105676658 432.2114317029974
84.01923788646684 435.69219381653056
110 435.69219381653056
" stroke="rgb(25,52,102)" stroke-width="5" fill-opacity="0.0"></path><path d="
M 65 409.7114317029974 C
80 435.69219381653056
80 435.69219381653056
95 461.6729559300637
" stroke="rgb(25,61,102)" stroke-width="5" fill-opacity="0.0"></path><path d="
M 65 409.7114317029974 C
77.99038105676658 432.2114317029974
77.99038105676658 439.1729559300637
65 461.6729559300637
" stroke="rgb(25,52,102)" stroke-width="5" fill-opacity="0.0"></path><path d="
M 35 409.7114317029974 C
22.00961894323342 432.2114317029974
22.00961894323342 439.1729559300637
35 461.6729559300637
" stroke="rgb(25,61,102)" stroke-width="5" fill-opacity="0.0"></path><path d="
M 35 409.7114317029974 C
20 435.69219381653056
20 435.69219381653056
5 461.6729559300637
" stroke="rgb(25,52,102)" stroke-width="5" fill-opacity="0.0"></path><path d="
M 140 383.73066958946424 C
170 383.73066958946424
170 383.73066958946424
200 383.73066958946424
" stroke="rgb(25,74,102)" stroke-width="5" fill-opacity="0.0"></path><path d="
M 140 383.73066958946424 C
165.98076211353316 383.73066958946424
172.00961894323342 387.2114317029974
185 409.7114317029974
" stroke="rgb(25,87,102)" stroke-width="5" fill-opacity="0.0"></path><path d="
M 125 409.7114317029974 C
140 435.69219381653056
140 435.69219381653056
155 461.6729559300637
" stroke="rgb(25,217,102)" stroke-width="5" fill-opacity="0.0"></path><path d="
M 125 409.7114317029974 C
137.99038105676658 432.2114317029974
137.99038105676658 439.1729559300637
125 461.6729559300637
" stroke="rgb(25,152,102)" stroke-width="5" fill-opacity="0.0"></path><path d="
M 95 409.7114317029974 C
80 435.69219381653056
80 435.69219381653056
65 461.6729559300637
" stroke="rgb(25,43,102)" stroke-width="5" fill-opacity="0.0"></path><path d="
M 200 383.73066958946424 C
174.01923788646684 383.73066958946424
167.99038105676658 387.2114317029974
155 409.7114317029974
" stroke="rgb(25,52,102)" stroke-width="5" fill-opacity="0.0"></path><path d="
M 185 409.7114317029974 C
197.99038105676658 432.2114317029974
197.99038105676658 439.1729559300637
185 461.6729559300637
" stroke="rgb(25,74,102)" stroke-width="5" fill-opacity="0.0"></path><path d="
M 260 383.73066958946424 C
234.01923788646684 383.73066958946424
227.99038105676658 387.2114317029974
215 409.7114317029974
" stroke="rgb(25,74,102)" stroke-width="5" fill-opacity="0.0"></path><path d="
M 245 409.7114317029974 C
257.9903810567666 432.2114317029974
264.01923788646684 435.69219381653056
290 435.69219381653056
" stroke="rgb(25,106,102)" stroke-width="5" fill-opacity="0.0"></path><path d="
M 245 409.7114317029974 C
260 435.69219381653056
260 435.69219381653056
275 461.6729559300637
" stroke="rgb(25,106,102)" stroke-width="5" fill-opacity="0.0"></path><path d="
M 215 409.7114317029974 C
202.00961894323342 432.2114317029974
202.00961894323342 439.1729559300637
215 461.6729559300637
" stroke="rgb(25,52,102)" stroke-width="5" fill-opacity="0.0"></path><path d="
M 320 383.73066958946424 C
345.98076211353316 383.73066958946424
352.0096189432334 387.2114317029974
365 409.7114317029974
" stroke="rgb(25,106,102)" stroke-width="5" fill-opacity="0.0"></path><path d="
M 305 409.7114317029974 C
317.9903810567666 432.2114317029974
324.01923788646684 435.69219381653056
350 435.69219381653056
" stroke="rgb(25,87,102)" stroke-width="5" fill-opacity="0.0"></path><path d="
M 275 409.7114317029974 C
262.0096189432334 432.2114317029974
255.98076211353316 435.69219381653056
230 435.69219381653056
" stroke="rgb(25,61,102)" stroke-width="5" fill-opacity="0.0"></path><path d="
M 275 409.7114317029974 C
262.0096189432334 432.2114317029974
262.0096189432334 439.1729559300637
275 461.6729559300637
" stroke="rgb(25,74,102)" stroke-width="5" fill-opacity="0.0"></path><path d="
M 380 383.73066958946424 C
354.01923788646684 383.73066958946424
347.9903810567666 387.2114317029974
335 409.7114317029974
" stroke="rgb(25,106,102)" stroke-width="5" fill-opacity="0.0"></path><path d="
M 380 383.73066958946424 C
410 383.73066958946424
410 383.73066958946424
440 383.73066958946424
" stroke="rgb(25,152,102)" stroke-width="5" fill-opacity="0.0"></path><path d="
M 380 383.73066958946424 C
405.98076211353316 383.73066958946424
412.0096189432334 387.2114317029974
425 409.7114317029974
" stroke="rgb(25,106,102)" stroke-width="5" fill-opacity="0.0"></path><path d="
M 365 409.7114317029974 C
377.9903810567666 432.2114317029974
384.01923788646684 435.69219381653056
410 435.69219381653056
" stroke="rgb(25,74,102)" stroke-width="5" fill-opacity="0.0"></path><path d="
M 365 409.7114317029974 C
380 435.69219381653056
380 435.69219381653056
395 461.6729559300637
" stroke="rgb(25,74,102)" stroke-width="5" fill-opacity="0.0"></path><path d="
M 365 409.7114317029974 C
377.9903810567666 432.2114317029974
377.9903810567666 439.1729559300637
365 461.6729559300637
" stroke="rgb(25,87,102)" stroke-width="5" fill-opacity="0.0"></path><path d="
M 335 409.7114317029974 C
322.0096189432334 432.2114317029974
315.98076211353316 435.69219381653056
290 435.69219381653056
" stroke="rgb(25,87,102)" stroke-width="5" fill-opacity="0.0"></path><path d="
M 335 409.7114317029974 C
322.0096189432334 432.2114317029974
322.0096189432334 439.1729559300637
335 461.6729559300637
" stroke="rgb(25,74,102)" stroke-width="5" fill-opacity="0.0"></path><path d="
M 335 409.7114317029974 C
320 435.69219381653056
320 435.69219381653056
305 461.6729559300637
" stroke="rgb(25,74,102)" stroke-width="5" fill-opacity="0.0"></path><path d="
M 440 383.73066958946424 C
414.01923788646684 383.73066958946424
407.9903810567666 387.2114317029974
395 409.7114317029974
" stroke="rgb(25,152,102)" stroke-width="5" fill-opacity="0.0"></path><path d="
M 440 383.73066958946424 C
470 383.73066958946424
470 383.73066958946424
500 383.73066958946424
" stroke="rgb(25,152,102)" stroke-width="5" fill-opacity="0.0"></path><path d="
M 440 383.73066958946424 C
465.98076211353316 383.73066958946424
472.0096189432334 387.2114317029974
485 409.7114317029974
" stroke="rgb(25,152,102)" stroke-width="5" fill-opacity="0.0"></path><path d="
M 425 409.7114317029974 C
440 435.69219381653056
440 435.69219381653056
455 461.6729559300637
" stroke="rgb(25,74,102)" stroke-width="5" fill-opacity="0.0"></path><path d="
M 425 409.7114317029974 C
437.9903810567666 432.2114317029974
437.9903810567666 439.1729559300637
425 461.6729559300637
" stroke="rgb(25,74,102)" stroke-width="5" fill-opacity="0.0"></path><path d="
M 395 409.7114317029974 C
382.0096189432334 432.2114317029974
375.98076211353316 435.69219381653056
350 435.69219381653056
" stroke="rgb(25,106,102)" stroke-width="5" fill-opacity="0.0"></path><path d="
M 395 409.7114317029974 C
380 435.69219381653056
380 435.69219381653056
365 461.6729559300637
" stroke="rgb(25,106,102)" stroke-width="5" fill-opacity="0.0"></path><path d="
M 500 383.73066958946424 C
474.01923788646684 383.73066958946424
467.9903810567666 387.2114317029974
455 409.7114317029974
" stroke="rgb(25,106,102)" stroke-width="5" fill-opacity="0.0"></path><path d="
M 455 409.7114317029974 C
442.0096189432334 432.2114317029974
442.0096189432334 439.1729559300637
455 461.6729559300637
" stroke="rgb(25,74,102)" stroke-width="5" fill-opacity="0.0"></path><path d="
M 455 409.7114317029974 C
440 435.69219381653056
440 435.69219381653056
425 461.6729559300637
" stroke="rgb(25,74,102)" stroke-width="5" fill-opacity="0.0"></path><path d="
M 50 435.69219381653056 C
24.01923788646684 435.69219381653056
17.99038105676658 439.1729559300637
5 461.6729559300637
" stroke="rgb(25,36,102)" stroke-width="5" fill-opacity="0.0"></path><path d="
M 35 461.6729559300637 C
47.99038105676658 484.1729559300637
54.01923788646684 487.6537180435969
80 487.6537180435969
" stroke="rgb(25,74,102)" stroke-width="5" fill-opacity="0.0"></path><path d="
M 35 461.6729559300637 C
47.99038105676658 484.1729559300637
47.99038105676658 491.13448015713004
35 513.63448015713
" stroke="rgb(25,61,102)" stroke-width="5" fill-opacity="0.0"></path><path d="
M 110 435.69219381653056 C
84.01923788646684 435.69219381653056
77.99038105676658 439.1729559300637
65 461.6729559300637
" stroke="rgb(25,43,102)" stroke-width="5" fill-opacity="0.0"></path><path d="
M 95 461.6729559300637 C
110 487.6537180435969
110 487.6537180435969
125 513.63448015713
" stroke="rgb(25,74,102)" stroke-width="5" fill-opacity="0.0"></path><path d="
M 95 461.6729559300637 C
107.99038105676658 484.1729559300637
107.99038105676658 491.13448015713004
95 513.63448015713
" stroke="rgb(25,52,102)" stroke-width="5" fill-opacity="0.0"></path><path d="
M 65 461.6729559300637 C
52.00961894323342 484.1729559300637
52.00961894323342 491.13448015713004
65 513.63448015713
" stroke="rgb(25,36,102)" stroke-width="5" fill-opacity="0.0"></path><path d="
M 65 461.6729559300637 C
50 487.6537180435969
50 487.6537180435969
35 513.63448015713
" stroke="rgb(25,52,102)" stroke-width="5" fill-opacity="0.0"></path><path d="
M 170 435.69219381653056 C
200 435.69219381653056
200 435.69219381653056
230 435.69219381653056
" stroke="rgb(25,52,102)" stroke-width="5" fill-opacity="0.0"></path><path d="
M 170 435.69219381653056 C
195.98076211353316 435.69219381653056
202.00961894323342 439.1729559300637
215 461.6729559300637
" stroke="rgb(25,43,102)" stroke-width="5" fill-opacity="0.0"></path><path d="
M 155 461.6729559300637 C
167.99038105676658 484.1729559300637
167.99038105676658 491.13448015713004
155 513.63448015713
" stroke="rgb(25,217,102)" stroke-width="5" fill-opacity="0.0"></path><path d="
M 125 461.6729559300637 C
112.00961894323342 484.1729559300637
105.98076211353316 487.6537180435969
80 487.6537180435969
" stroke="rgb(25,106,102)" stroke-width="5" fill-opacity="0.0"></path><path d="
M 125 461.6729559300637 C
112.00961894323342 484.1729559300637
112.00961894323342 491.13448015713004
125 513.63448015713
" stroke="rgb(25,106,102)" stroke-width="5" fill-opacity="0.0"></path><path d="
M 230 435.69219381653056 C
204.01923788646684 435.69219381653056
197.99038105676658 439.1729559300637
185 461.6729559300637
" stroke="rgb(25,61,102)" stroke-width="5" fill-opacity="0.0"></path><path d="
M 230 435.69219381653056 C
260 435.69219381653056
260 435.69219381653056
290 435.69219381653056
" stroke="rgb(25,74,102)" stroke-width="5" fill-opacity="0.0"></path><path d="
M 215 461.6729559300637 C
230 487.6537180435969
230 487.6537180435969
245 513.63448015713
" stroke="rgb(25,36,102)" stroke-width="5" fill-opacity="0.0"></path><path d="
M 215 461.6729559300637 C
227.99038105676658 484.1729559300637
227.99038105676658 491.13448015713004
215 513.63448015713
" stroke="rgb(25,36,102)" stroke-width="5" fill-opacity="0.0"></path><path d="
M 185 461.6729559300637 C
172.00961894323342 484.1729559300637
172.00961894323342 491.13448015713004
185 513.63448015713
" stroke="rgb(25,52,102)" stroke-width="5" fill-opacity="0.0"></path><path d="
M 290 435.69219381653056 C
315.98076211353316 435.69219381653056
322.0096189432334 439.1729559300637
335 461.6729559300637
" stroke="rgb(25,74,102)" stroke-width="5" fill-opacity="0.0"></path><path d="
M 245 461.6729559300637 C
230 487.6537180435969
230 487.6537180435969
215 513.63448015713
" stroke="rgb(25,25,102)" stroke-width="5" fill-opacity="0.0"></path><path d="
M 350 435.69219381653056 C
380 435.69219381653056
380 435.69219381653056
410 435.69219381653056
" stroke="rgb(25,74,102)" stroke-width="5" fill-opacity="0.0"></path><path d="
M 350 435.69219381653056 C
375.98076211353316 435.69219381653056
382.0096189432334 439.1729559300637
395 461.6729559300637
" stroke="rgb(25,74,102)" stroke-width="5" fill-opacity="0.0"></path><path d="
M 335 461.6729559300637 C
350 487.6537180435969
350 487.6537180435969
365 513.63448015713
" stroke="rgb(25,52,102)" stroke-width="5" fill-opacity="0.0"></path><path d="
M 335 461.6729559300637 C
347.9903810567666 484.1729559300637
347.9903810567666 491.13448015713004
335 513.63448015713
" stroke="rgb(25,61,102)" stroke-width="5" fill-opacity="0.0"></path><path d="
M 305 461.6729559300637 C
292.0096189432334 484.1729559300637
285.98076211353316 487.6537180435969
260 487.6537180435969
" stroke="rgb(25,52,102)" stroke-width="5" fill-opacity="0.0"></path><path d="
M 305 461.6729559300637 C
292.0096189432334 484.1729559300637
292.0096189432334 491.13448015713004
305 513.63448015713
" stroke="rgb(25,52,102)" stroke-width="5" fill-opacity="0.0"></path><path d="
M 410 435.69219381653056 C
384.01923788646684 435.69219381653056
377.9903810567666 439.1729559300637
365 461.6729559300637
" stroke="rgb(25,74,102)" stroke-width="5" fill-opacity="0.0"></path><path d="
M 410 435.69219381653056 C
435.98076211353316 435.69219381653056
442.0096189432334 439.1729559300637
455 461.6729559300637
" stroke="rgb(25,61,102)" stroke-width="5" fill-opacity="0.0"></path><path d="
M 395 461.6729559300637 C
407.9903810567666 484.1729559300637
414.01923788646684 487.6537180435969
440 487.6537180435969
" stroke="rgb(25,52,102)" stroke-width="5" fill-opacity="0.0"></path><path d="
M 395 461.6729559300637 C
407.9903810567666 484.1729559300637
407.9903810567666 491.13448015713004
395 513.63448015713
" stroke="rgb(25,52,102)" stroke-width="5" fill-opacity="0.0"></path><path d="
M 365 461.6729559300637 C
350 487.6537180435969
350 487.6537180435969
335 513.63448015713
" stroke="rgb(25,74,102)" stroke-width="5" fill-opacity="0.0"></path><path d="
M 470 435.69219381653056 C
444.01923788646684 435.69219381653056
437.9903810567666 439.1729559300637
425 461.6729559300637
" stroke="rgb(25,52,102)" stroke-width="5" fill-opacity="0.0"></path><path d="
M 455 461.6729559300637 C
470 487.6537180435969
470 487.6537180435969
485 513.63448015713
" stroke="rgb(25,52,102)" stroke-width="5" fill-opacity="0.0"></path><path d="
M 455 461.6729559300637 C
467.9903810567666 484.1729559300637
467.9903810567666 491.13448015713004
455 513.63448015713
" stroke="rgb(25,52,102)" stroke-width="5" fill-opacity="0.0"></path><path d="
M 425 461.6729559300637 C
410 487.6537180435969
410 487.6537180435969
395 513.63448015713
" stroke="rgb(25,52,102)" stroke-width="5" fill-opacity="0.0"></path><path d="
M 80 487.6537180435969 C
54.01923788646684 487.6537180435969
47.99038105676658 491.13448015713004
35 513.63448015713
" stroke="rgb(25,74,102)" stroke-width="5" fill-opacity="0.0"></path><path d="
M 140 487.6537180435969 C
170 487.6537180435969
170 487.6537180435969
200 487.6537180435969
" stroke="rgb(25,25,102)" stroke-width="5" fill-opacity="0.0"></path><path d="
M 140 487.6537180435969 C
165.98076211353316 487.6537180435969
172.00961894323342 491.13448015713004
185 513.63448015713
" stroke="rgb(25,36,102)" stroke-width="5" fill-opacity="0.0"></path><path d="
M 260 487.6537180435969 C
234.01923788646684 487.6537180435969
227.99038105676658 491.13448015713004
215 513.63448015713
" stroke="rgb(25,36,102)" stroke-width="5" fill-opacity="0.0"></path><path d="
M 260 487.6537180435969 C
285.98076211353316 487.6537180435969
292.0096189432334 491.13448015713004
305 513.63448015713
" stroke="rgb(25,43,102)" stroke-width="5" fill-opacity="0.0"></path><path d="
M 320 487.6537180435969 C
294.01923788646684 487.6537180435969
287.9903810567666 491.13448015713004
275 513.63448015713
" stroke="rgb(25,0,102)" stroke-width="5" fill-opacity="0.0"></path><path d="
M 380 487.6537180435969 C
405.98076211353316 487.6537180435969
412.0096189432334 491.13448015713004
425 513.63448015713
" stroke="rgb(25,0,102)" stroke-width="5" fill-opacity="0.0"></path><line x1="53" y1="20" x2="47" y2="20" stroke="rgb(255,0,179)" stroke-width="2"></line><line x1="36.5" y1="48.578838324886476" x2="33.5" y2="43.382685902179844" stroke="rgb(255,0,87)" stroke-width="2"></line><line x1="3.5" y1="48.578838324886476" x2="6.5" y2="43.382685902179844" stroke="rgb(255,0,125)" stroke-width="2"></line><line x1="113" y1="20" x2="107" y2="20" stroke="rgb(0,0,0)" stroke-width="2"></line><line x1="96.5" y1="48.578838324886476" x2="93.5" y2="43.382685902179844" stroke="rgb(255,0,255)" stroke-width="2"></line><line x1="63.5" y1="48.578838324886476" x2="66.5" y2="43.382685902179844" stroke="rgb(129,0,43)" stroke-width="2"></line><line x1="173" y1="20" x2="167" y2="20" stroke="rgb(0,0,0)" stroke-width="2"></line><line x1="156.5" y1="48.578838324886476" x2="153.5" y2="43.382685902179844" stroke="rgb(255,0,87)" stroke-width="2"></line><line x1="123.5" y1="48.578838324886476" x2="126.5" y2="43.382685902179844" stroke="rgb(0,0,0)" stroke-width="2"></line><line x1="233" y1="20" x2="227" y2="20" stroke="#040" stroke-width="5" stroke-opacity="0.0"></line><line x1="216.5" y1="48.578838324886476" x2="213.5" y2="43.382685902179844" stroke="#040" stroke-width="5" stroke-opacity="0.0"></line><line x1="183.5" y1="48.578838324886476" x2="186.5" y2="43.382685902179844" stroke="rgb(255,0,125)" stroke-width="2"></line><line x1="293" y1="20" x2="287" y2="20" stroke="rgb(255,0,255)" stroke-width="2"></line><line x1="276.5" y1="48.578838324886476" x2="273.5" y2="43.382685902179844" stroke="rgb(255,0,87)" stroke-width="2"></line><line x1="243.5" y1="48.578838324886476" x2="246.5" y2="43.382685902179844" stroke="rgb(255,0,179)" stroke-width="2"></line><line x1="353" y1="20" x2="347" y2="20" stroke="rgb(0,0,0)" stroke-width="2"></line><line x1="336.5" y1="48.578838324886476" x2="333.5" y2="43.382685902179844" stroke="rgb(255,0,179)" stroke-width="2"></line><line x1="303.5" y1="48.578838324886476" x2="306.5" y2="43.382685902179844" stroke="rgb(0,0,0)" stroke-width="2"></line><line x1="413" y1="20" x2="407" y2="20" stroke="rgb(255,0,255)" stroke-width="2"></line><line x1="396.5" y1="48.578838324886476" x2="393.5" y2="43.382685902179844" stroke="rgb(255,0,179)" stroke-width="2"></line><line x1="363.5" y1="48.578838324886476" x2="366.5" y2="43.382685902179844" stroke="rgb(255,0,179)" stroke-width="2"></line><line x1="473" y1="20" x2="467" y2="20" stroke="rgb(255,0,179)" stroke-width="2"></line><line x1="456.5" y1="48.578838324886476" x2="453.5" y2="43.382685902179844" stroke="rgb(63,0,21)" stroke-width="2"></line><line x1="423.5" y1="48.578838324886476" x2="426.5" y2="43.382685902179844" stroke="rgb(255,0,125)" stroke-width="2"></line><line x1="83" y1="71.96152422706632" x2="77" y2="71.96152422706632" stroke="rgb(255,0,125)" stroke-width="2"></line><line x1="66.5" y1="100.5403625519528" x2="63.5" y2="95.34421012924616" stroke="rgb(184,0,61)" stroke-width="2"></line><line x1="33.5" y1="100.5403625519528" x2="36.5" y2="95.34421012924616" stroke="rgb(63,0,21)" stroke-width="2"></line><line x1="143" y1="71.96152422706632" x2="137" y2="71.96152422706632" stroke="rgb(255,0,179)" stroke-width="2"></line><line x1="126.5" y1="100.5403625519528" x2="123.5" y2="95.34421012924616" stroke="rgb(129,0,43)" stroke-width="2"></line><line x1="93.5" y1="100.5403625519528" x2="96.5" y2="95.34421012924616" stroke="rgb(63,0,21)" stroke-width="2"></line><line x1="203" y1="71.96152422706632" x2="197" y2="71.96152422706632" stroke="rgb(255,0,125)" stroke-width="2"></line><line x1="186.5" y1="100.5403625519528" x2="183.5" y2="95.34421012924616" stroke="rgb(255,0,87)" stroke-width="2"></line><line x1="153.5" y1="100.5403625519528" x2="156.5" y2="95.34421012924616" stroke="rgb(255,0,87)" stroke-width="2"></line><line x1="263" y1="71.96152422706632" x2="257" y2="71.96152422706632" stroke="rgb(255,0,87)" stroke-width="2"></line><line x1="246.5" y1="100.5403625519528" x2="243.5" y2="95.34421012924616" stroke="rgb(255,0,125)" stroke-width="2"></line><line x1="213.5" y1="100.5403625519528" x2="216.5" y2="95.34421012924616" stroke="rgb(255,0,125)" stroke-width="2"></line><line x1="323" y1="71.96152422706632" x2="317" y2="71.96152422706632" stroke="rgb(255,0,125)" stroke-width="2"></line><line x1="306.5" y1="100.5403625519528" x2="303.5" y2="95.34421012924616" stroke="rgb(255,0,125)" stroke-width="2"></line><line x1="273.5" y1="100.5403625519528" x2="276.5" y2="95.34421012924616" stroke="rgb(184,0,61)" stroke-width="2"></line><line x1="383" y1="71.96152422706632" x2="377" y2="71.96152422706632" stroke="rgb(255,0,179)" stroke-width="2"></line><line x1="366.5" y1="100.5403625519528" x2="363.5" y2="95.34421012924616" stroke="rgb(255,0,125)" stroke-width="2"></line><line x1="333.5" y1="100.5403625519528" x2="336.5" y2="95.34421012924616" stroke="rgb(255,0,87)" stroke-width="2"></line><line x1="443" y1="71.96152422706632" x2="437" y2="71.96152422706632" stroke="rgb(255,0,255)" stroke-width="2"></line><line x1="426.5" y1="100.5403625519528" x2="423.5" y2="95.34421012924616" stroke="rgb(255,0,125)" stroke-width="2"></line><line x1="393.5" y1="100.5403625519528" x2="396.5" y2="95.34421012924616" stroke="rgb(255,0,255)" stroke-width="2"></line><line x1="503" y1="71.96152422706632" x2="497" y2="71.96152422706632" stroke="rgb(255,0,179)" stroke-width="2"></line><line x1="486.5" y1="100.5403625519528" x2="483.5" y2="95.34421012924616" stroke="#040" stroke-width="5" stroke-opacity="0.0"></line><line x1="453.5" y1="100.5403625519528" x2="456.5" y2="95.34421012924616" stroke="rgb(90,0,30)" stroke-width="2"></line><line x1="53" y1="123.92304845413264" x2="47" y2="123.92304845413264" stroke="rgb(90,0,30)" stroke-width="2"></line><line x1="36.5" y1="152.50188677901912" x2="33.5" y2="147.30573435631248" stroke="rgb(90,0,30)" stroke-width="2"></line><line x1="3.5" y1="152.50188677901912" x2="6.5" y2="147.30573435631248" stroke="rgb(63,0,21)" stroke-width="2"></line><line x1="113" y1="123.92304845413264" x2="107" y2="123.92304845413264" stroke="rgb(184,0,61)" stroke-width="2"></line><line x1="96.5" y1="152.50188677901912" x2="93.5" y2="147.30573435631248" stroke="rgb(129,0,43)" stroke-width="2"></line><line x1="63.5" y1="152.50188677901912" x2="66.5" y2="147.30573435631248" stroke="rgb(44,0,14)" stroke-width="2"></line><line x1="173" y1="123.92304845413264" x2="167" y2="123.92304845413264" stroke="rgb(255,0,87)" stroke-width="2"></line><line x1="156.5" y1="152.50188677901912" x2="153.5" y2="147.30573435631248" stroke="rgb(184,0,61)" stroke-width="2"></line><line x1="123.5" y1="152.50188677901912" x2="126.5" y2="147.30573435631248" stroke="rgb(129,0,43)" stroke-width="2"></line><line x1="233" y1="123.92304845413264" x2="227" y2="123.92304845413264" stroke="rgb(255,0,87)" stroke-width="2"></line><line x1="216.5" y1="152.50188677901912" x2="213.5" y2="147.30573435631248" stroke="rgb(255,0,87)" stroke-width="2"></line><line x1="183.5" y1="152.50188677901912" x2="186.5" y2="147.30573435631248" stroke="rgb(255,0,87)" stroke-width="2"></line><line x1="293" y1="123.92304845413264" x2="287" y2="123.92304845413264" stroke="rgb(255,0,125)" stroke-width="2"></line><line x1="276.5" y1="152.50188677901912" x2="273.5" y2="147.30573435631248" stroke="rgb(255,0,87)" stroke-width="2"></line><line x1="243.5" y1="152.50188677901912" x2="246.5" y2="147.30573435631248" stroke="rgb(129,0,43)" stroke-width="2"></line><line x1="353" y1="123.92304845413264" x2="347" y2="123.92304845413264" stroke="rgb(255,0,179)" stroke-width="2"></line><line x1="336.5" y1="152.50188677901912" x2="333.5" y2="147.30573435631248" stroke="rgb(255,0,87)" stroke-width="2"></line><line x1="303.5" y1="152.50188677901912" x2="306.5" y2="147.30573435631248" stroke="rgb(255,0,125)" stroke-width="2"></line><line x1="413" y1="123.92304845413264" x2="407" y2="123.92304845413264" stroke="rgb(255,0,125)" stroke-width="2"></line><line x1="396.5" y1="152.50188677901912" x2="393.5" y2="147.30573435631248" stroke="rgb(255,0,179)" stroke-width="2"></line><line x1="363.5" y1="152.50188677901912" x2="366.5" y2="147.30573435631248" stroke="rgb(255,0,179)" stroke-width="2"></line><line x1="473" y1="123.92304845413264" x2="467" y2="123.92304845413264" stroke="rgb(255,0,87)" stroke-width="2"></line><line x1="456.5" y1="152.50188677901912" x2="453.5" y2="147.30573435631248" stroke="rgb(129,0,43)" stroke-width="2"></line><line x1="423.5" y1="152.50188677901912" x2="426.5" y2="147.30573435631248" stroke="rgb(255,0,87)" stroke-width="2"></line><line x1="83" y1="175.88457268119896" x2="77" y2="175.88457268119896" stroke="rgb(129,0,43)" stroke-width="2"></line><line x1="66.5" y1="204.46341100608544" x2="63.5" y2="199.2672585833788" stroke="rgb(255,0,179)" stroke-width="2"></line><line x1="33.5" y1="204.46341100608544" x2="36.5" y2="199.2672585833788" stroke="rgb(63,0,21)" stroke-width="2"></line><line x1="143" y1="175.88457268119896" x2="137" y2="175.88457268119896" stroke="rgb(184,0,61)" stroke-width="2"></line><line x1="126.5" y1="204.46341100608544" x2="123.5" y2="199.2672585833788" stroke="rgb(184,0,61)" stroke-width="2"></line><line x1="93.5" y1="204.46341100608544" x2="96.5" y2="199.2672585833788" stroke="rgb(255,0,87)" stroke-width="2"></line><line x1="203" y1="175.88457268119896" x2="197" y2="175.88457268119896" stroke="rgb(184,0,61)" stroke-width="2"></line><line x1="186.5" y1="204.46341100608544" x2="183.5" y2="199.2672585833788" stroke="rgb(255,0,87)" stroke-width="2"></line><line x1="153.5" y1="204.46341100608544" x2="156.5" y2="199.2672585833788" stroke="rgb(184,0,61)" stroke-width="2"></line><line x1="263" y1="175.88457268119896" x2="257" y2="175.88457268119896" stroke="rgb(255,0,87)" stroke-width="2"></line><line x1="246.5" y1="204.46341100608544" x2="243.5" y2="199.2672585833788" stroke="rgb(255,0,125)" stroke-width="2"></line><line x1="213.5" y1="204.46341100608544" x2="216.5" y2="199.2672585833788" stroke="rgb(184,0,61)" stroke-width="2"></line><line x1="323" y1="175.88457268119896" x2="317" y2="175.88457268119896" stroke="rgb(184,0,61)" stroke-width="2"></line><line x1="306.5" y1="204.46341100608544" x2="303.5" y2="199.2672585833788" stroke="rgb(255,0,179)" stroke-width="2"></line><line x1="273.5" y1="204.46341100608544" x2="276.5" y2="199.2672585833788" stroke="rgb(184,0,61)" stroke-width="2"></line><line x1="383" y1="175.88457268119896" x2="377" y2="175.88457268119896" stroke="rgb(255,0,87)" stroke-width="2"></line><line x1="366.5" y1="204.46341100608544" x2="363.5" y2="199.2672585833788" stroke="rgb(255,0,125)" stroke-width="2"></line><line x1="333.5" y1="204.46341100608544" x2="336.5" y2="199.2672585833788" stroke="rgb(255,0,125)" stroke-width="2"></line><line x1="443" y1="175.88457268119896" x2="437" y2="175.88457268119896" stroke="rgb(255,0,125)" stroke-width="2"></line><line x1="426.5" y1="204.46341100608544" x2="423.5" y2="199.2672585833788" stroke="rgb(255,0,125)" stroke-width="2"></line><line x1="393.5" y1="204.46341100608544" x2="396.5" y2="199.2672585833788" stroke="rgb(255,0,125)" stroke-width="2"></line><line x1="503" y1="175.88457268119896" x2="497" y2="175.88457268119896" stroke="rgb(129,0,43)" stroke-width="2"></line><line x1="486.5" y1="204.46341100608544" x2="483.5" y2="199.2672585833788" stroke="rgb(255,0,87)" stroke-width="2"></line><line x1="453.5" y1="204.46341100608544" x2="456.5" y2="199.2672585833788" stroke="rgb(184,0,61)" stroke-width="2"></line><line x1="53" y1="227.84609690826528" x2="47" y2="227.84609690826528" stroke="rgb(255,0,125)" stroke-width="2"></line><line x1="36.5" y1="256.42493523315176" x2="33.5" y2="251.22878281044513" stroke="rgb(90,0,30)" stroke-width="2"></line><line x1="3.5" y1="256.42493523315176" x2="6.5" y2="251.22878281044513" stroke="rgb(255,0,87)" stroke-width="2"></line><line x1="113" y1="227.84609690826528" x2="107" y2="227.84609690826528" stroke="rgb(255,0,179)" stroke-width="2"></line><line x1="96.5" y1="256.42493523315176" x2="93.5" y2="251.22878281044513" stroke="rgb(255,0,125)" stroke-width="2"></line><line x1="63.5" y1="256.42493523315176" x2="66.5" y2="251.22878281044513" stroke="rgb(255,0,255)" stroke-width="2"></line><line x1="173" y1="227.84609690826528" x2="167" y2="227.84609690826528" stroke="rgb(255,0,87)" stroke-width="2"></line><line x1="156.5" y1="256.42493523315176" x2="153.5" y2="251.22878281044513" stroke="rgb(255,0,87)" stroke-width="2"></line><line x1="123.5" y1="256.42493523315176" x2="126.5" y2="251.22878281044513" stroke="rgb(184,0,61)" stroke-width="2"></line><line x1="233" y1="227.84609690826528" x2="227" y2="227.84609690826528" stroke="rgb(255,0,125)" stroke-width="2"></line><line x1="216.5" y1="256.42493523315176" x2="213.5" y2="251.22878281044513" stroke="rgb(255,0,125)" stroke-width="2"></line><line x1="183.5" y1="256.42493523315176" x2="186.5" y2="251.22878281044513" stroke="rgb(255,0,87)" stroke-width="2"></line><line x1="293" y1="227.84609690826528" x2="287" y2="227.84609690826528" stroke="rgb(255,0,179)" stroke-width="2"></line><line x1="276.5" y1="256.42493523315176" x2="273.5" y2="251.22878281044513" stroke="rgb(255,0,87)" stroke-width="2"></line><line x1="243.5" y1="256.42493523315176" x2="246.5" y2="251.22878281044513" stroke="rgb(255,0,87)" stroke-width="2"></line><line x1="353" y1="227.84609690826528" x2="347" y2="227.84609690826528" stroke="rgb(255,0,255)" stroke-width="2"></line><line x1="336.5" y1="256.42493523315176" x2="333.5" y2="251.22878281044513" stroke="rgb(255,0,125)" stroke-width="2"></line><line x1="303.5" y1="256.42493523315176" x2="306.5" y2="251.22878281044513" stroke="rgb(255,0,179)" stroke-width="2"></line><line x1="413" y1="227.84609690826528" x2="407" y2="227.84609690826528" stroke="rgb(255,0,87)" stroke-width="2"></line><line x1="396.5" y1="256.42493523315176" x2="393.5" y2="251.22878281044513" stroke="rgb(255,0,179)" stroke-width="2"></line><line x1="363.5" y1="256.42493523315176" x2="366.5" y2="251.22878281044513" stroke="rgb(255,0,125)" stroke-width="2"></line><line x1="473" y1="227.84609690826528" x2="467" y2="227.84609690826528" stroke="rgb(255,0,87)" stroke-width="2"></line><line x1="456.5" y1="256.42493523315176" x2="453.5" y2="251.22878281044513" stroke="rgb(255,0,87)" stroke-width="2"></line><line x1="423.5" y1="256.42493523315176" x2="426.5" y2="251.22878281044513" stroke="rgb(255,0,125)" stroke-width="2"></line><line x1="83" y1="279.8076211353316" x2="77" y2="279.8076211353316" stroke="rgb(129,0,43)" stroke-width="2"></line><line x1="66.5" y1="308.3864594602181" x2="63.5" y2="303.19030703751145" stroke="rgb(129,0,43)" stroke-width="2"></line><line x1="33.5" y1="308.3864594602181" x2="36.5" y2="303.19030703751145" stroke="rgb(90,0,30)" stroke-width="2"></line><line x1="143" y1="279.8076211353316" x2="137" y2="279.8076211353316" stroke="rgb(255,0,87)" stroke-width="2"></line><line x1="126.5" y1="308.3864594602181" x2="123.5" y2="303.19030703751145" stroke="rgb(255,0,87)" stroke-width="2"></line><line x1="93.5" y1="308.3864594602181" x2="96.5" y2="303.19030703751145" stroke="rgb(255,0,87)" stroke-width="2"></line><line x1="203" y1="279.8076211353316" x2="197" y2="279.8076211353316" stroke="rgb(255,0,125)" stroke-width="2"></line><line x1="186.5" y1="308.3864594602181" x2="183.5" y2="303.19030703751145" stroke="rgb(255,0,125)" stroke-width="2"></line><line x1="153.5" y1="308.3864594602181" x2="156.5" y2="303.19030703751145" stroke="rgb(255,0,87)" stroke-width="2"></line><line x1="263" y1="279.8076211353316" x2="257" y2="279.8076211353316" stroke="rgb(255,0,125)" stroke-width="2"></line><line x1="246.5" y1="308.3864594602181" x2="243.5" y2="303.19030703751145" stroke="rgb(255,0,179)" stroke-width="2"></line><line x1="213.5" y1="308.3864594602181" x2="216.5" y2="303.19030703751145" stroke="rgb(255,0,87)" stroke-width="2"></line><line x1="323" y1="279.8076211353316" x2="317" y2="279.8076211353316" stroke="rgb(255,0,125)" stroke-width="2"></line><line x1="306.5" y1="308.3864594602181" x2="303.5" y2="303.19030703751145" stroke="rgb(255,0,125)" stroke-width="2"></line><line x1="273.5" y1="308.3864594602181" x2="276.5" y2="303.19030703751145" stroke="rgb(255,0,125)" stroke-width="2"></line><line x1="383" y1="279.8076211353316" x2="377" y2="279.8076211353316" stroke="rgb(255,0,87)" stroke-width="2"></line><line x1="366.5" y1="308.3864594602181" x2="363.5" y2="303.19030703751145" stroke="rgb(255,0,179)" stroke-width="2"></line><line x1="333.5" y1="308.3864594602181" x2="336.5" y2="303.19030703751145" stroke="rgb(255,0,179)" stroke-width="2"></line><line x1="443" y1="279.8076211353316" x2="437" y2="279.8076211353316" stroke="rgb(255,0,125)" stroke-width="2"></line><line x1="426.5" y1="308.3864594602181" x2="423.5" y2="303.19030703751145" stroke="rgb(255,0,87)" stroke-width="2"></line><line x1="393.5" y1="308.3864594602181" x2="396.5" y2="303.19030703751145" stroke="rgb(255,0,179)" stroke-width="2"></line><line x1="503" y1="279.8076211353316" x2="497" y2="279.8076211353316" stroke="#040" stroke-width="5" stroke-opacity="0.0"></line><line x1="486.5" y1="308.3864594602181" x2="483.5" y2="303.19030703751145" stroke="rgb(184,0,61)" stroke-width="2"></line><line x1="453.5" y1="308.3864594602181" x2="456.5" y2="303.19030703751145" stroke="rgb(255,0,179)" stroke-width="2"></line><line x1="53" y1="331.7691453623979" x2="47" y2="331.7691453623979" stroke="rgb(184,0,61)" stroke-width="2"></line><line x1="36.5" y1="360.3479836872844" x2="33.5" y2="355.15183126457777" stroke="rgb(255,0,87)" stroke-width="2"></line><line x1="3.5" y1="360.3479836872844" x2="6.5" y2="355.15183126457777" stroke="rgb(129,0,43)" stroke-width="2"></line><line x1="113" y1="331.7691453623979" x2="107" y2="331.7691453623979" stroke="rgb(184,0,61)" stroke-width="2"></line><line x1="96.5" y1="360.3479836872844" x2="93.5" y2="355.15183126457777" stroke="rgb(184,0,61)" stroke-width="2"></line><line x1="63.5" y1="360.3479836872844" x2="66.5" y2="355.15183126457777" stroke="rgb(184,0,61)" stroke-width="2"></line><line x1="173" y1="331.7691453623979" x2="167" y2="331.7691453623979" stroke="rgb(184,0,61)" stroke-width="2"></line><line x1="156.5" y1="360.3479836872844" x2="153.5" y2="355.15183126457777" stroke="rgb(184,0,61)" stroke-width="2"></line><line x1="123.5" y1="360.3479836872844" x2="126.5" y2="355.15183126457777" stroke="rgb(255,0,125)" stroke-width="2"></line><line x1="233" y1="331.7691453623979" x2="227" y2="331.7691453623979" stroke="rgb(255,0,179)" stroke-width="2"></line><line x1="216.5" y1="360.3479836872844" x2="213.5" y2="355.15183126457777" stroke="rgb(255,0,87)" stroke-width="2"></line><line x1="183.5" y1="360.3479836872844" x2="186.5" y2="355.15183126457777" stroke="rgb(255,0,125)" stroke-width="2"></line><line x1="293" y1="331.7691453623979" x2="287" y2="331.7691453623979" stroke="rgb(255,0,255)" stroke-width="2"></line><line x1="276.5" y1="360.3479836872844" x2="273.5" y2="355.15183126457777" stroke="rgb(255,0,125)" stroke-width="2"></line><line x1="243.5" y1="360.3479836872844" x2="246.5" y2="355.15183126457777" stroke="rgb(255,0,179)" stroke-width="2"></line><line x1="353" y1="331.7691453623979" x2="347" y2="331.7691453623979" stroke="rgb(255,0,179)" stroke-width="2"></line><line x1="336.5" y1="360.3479836872844" x2="333.5" y2="355.15183126457777" stroke="rgb(255,0,125)" stroke-width="2"></line><line x1="303.5" y1="360.3479836872844" x2="306.5" y2="355.15183126457777" stroke="rgb(255,0,125)" stroke-width="2"></line><line x1="413" y1="331.7691453623979" x2="407" y2="331.7691453623979" stroke="rgb(255,0,255)" stroke-width="2"></line><line x1="396.5" y1="360.3479836872844" x2="393.5" y2="355.15183126457777" stroke="rgb(255,0,255)" stroke-width="2"></line><line x1="363.5" y1="360.3479836872844" x2="366.5" y2="355.15183126457777" stroke="rgb(255,0,179)" stroke-width="2"></line><line x1="473" y1="331.7691453623979" x2="467" y2="331.7691453623979" stroke="rgb(184,0,61)" stroke-width="2"></line><line x1="456.5" y1="360.3479836872844" x2="453.5" y2="355.15183126457777" stroke="rgb(255,0,179)" stroke-width="2"></line><line x1="423.5" y1="360.3479836872844" x2="426.5" y2="355.15183126457777" stroke="rgb(255,0,87)" stroke-width="2"></line><line x1="83" y1="383.73066958946424" x2="77" y2="383.73066958946424" stroke="rgb(255,0,125)" stroke-width="2"></line><line x1="66.5" y1="412.3095079143507" x2="63.5" y2="407.1133554916441" stroke="rgb(184,0,61)" stroke-width="2"></line><line x1="33.5" y1="412.3095079143507" x2="36.5" y2="407.1133554916441" stroke="rgb(184,0,61)" stroke-width="2"></line><line x1="143" y1="383.73066958946424" x2="137" y2="383.73066958946424" stroke="rgb(255,0,87)" stroke-width="2"></line><line x1="126.5" y1="412.3095079143507" x2="123.5" y2="407.1133554916441" stroke="rgb(255,0,179)" stroke-width="2"></line><line x1="93.5" y1="412.3095079143507" x2="96.5" y2="407.1133554916441" stroke="rgb(129,0,43)" stroke-width="2"></line><line x1="203" y1="383.73066958946424" x2="197" y2="383.73066958946424" stroke="rgb(184,0,61)" stroke-width="2"></line><line x1="186.5" y1="412.3095079143507" x2="183.5" y2="407.1133554916441" stroke="rgb(255,0,87)" stroke-width="2"></line><line x1="153.5" y1="412.3095079143507" x2="156.5" y2="407.1133554916441" stroke="rgb(129,0,43)" stroke-width="2"></line><line x1="263" y1="383.73066958946424" x2="257" y2="383.73066958946424" stroke="rgb(255,0,87)" stroke-width="2"></line><line x1="246.5" y1="412.3095079143507" x2="243.5" y2="407.1133554916441" stroke="rgb(255,0,125)" stroke-width="2"></line><line x1="213.5" y1="412.3095079143507" x2="216.5" y2="407.1133554916441" stroke="rgb(184,0,61)" stroke-width="2"></line><line x1="323" y1="383.73066958946424" x2="317" y2="383.73066958946424" stroke="rgb(255,0,125)" stroke-width="2"></line><line x1="306.5" y1="412.3095079143507" x2="303.5" y2="407.1133554916441" stroke="rgb(255,0,87)" stroke-width="2"></line><line x1="273.5" y1="412.3095079143507" x2="276.5" y2="407.1133554916441" stroke="rgb(184,0,61)" stroke-width="2"></line><line x1="383" y1="383.73066958946424" x2="377" y2="383.73066958946424" stroke="rgb(255,0,125)" stroke-width="2"></line><line x1="366.5" y1="412.3095079143507" x2="363.5" y2="407.1133554916441" stroke="rgb(255,0,87)" stroke-width="2"></line><line x1="333.5" y1="412.3095079143507" x2="336.5" y2="407.1133554916441" stroke="rgb(255,0,87)" stroke-width="2"></line><line x1="443" y1="383.73066958946424" x2="437" y2="383.73066958946424" stroke="rgb(255,0,179)" stroke-width="2"></line><line x1="426.5" y1="412.3095079143507" x2="423.5" y2="407.1133554916441" stroke="rgb(255,0,87)" stroke-width="2"></line><line x1="393.5" y1="412.3095079143507" x2="396.5" y2="407.1133554916441" stroke="rgb(255,0,125)" stroke-width="2"></line><line x1="503" y1="383.73066958946424" x2="497" y2="383.73066958946424" stroke="rgb(255,0,125)" stroke-width="2"></line><line x1="486.5" y1="412.3095079143507" x2="483.5" y2="407.1133554916441" stroke="rgb(255,0,125)" stroke-width="2"></line><line x1="453.5" y1="412.3095079143507" x2="456.5" y2="407.1133554916441" stroke="rgb(255,0,87)" stroke-width="2"></line><line x1="53" y1="435.69219381653056" x2="47" y2="435.69219381653056" stroke="rgb(90,0,30)" stroke-width="2"></line><line x1="36.5" y1="464.27103214141704" x2="33.5" y2="459.0748797187104" stroke="rgb(184,0,61)" stroke-width="2"></line><line x1="3.5" y1="464.27103214141704" x2="6.5" y2="459.0748797187104" stroke="rgb(129,0,43)" stroke-width="2"></line><line x1="113" y1="435.69219381653056" x2="107" y2="435.69219381653056" stroke="rgb(129,0,43)" stroke-width="2"></line><line x1="96.5" y1="464.27103214141704" x2="93.5" y2="459.0748797187104" stroke="rgb(184,0,61)" stroke-width="2"></line><line x1="63.5" y1="464.27103214141704" x2="66.5" y2="459.0748797187104" stroke="rgb(129,0,43)" stroke-width="2"></line><line x1="173" y1="435.69219381653056" x2="167" y2="435.69219381653056" stroke="rgb(129,0,43)" stroke-width="2"></line><line x1="156.5" y1="464.27103214141704" x2="153.5" y2="459.0748797187104" stroke="rgb(255,0,255)" stroke-width="2"></line><line x1="123.5" y1="464.27103214141704" x2="126.5" y2="459.0748797187104" stroke="rgb(255,0,125)" stroke-width="2"></line><line x1="233" y1="435.69219381653056" x2="227" y2="435.69219381653056" stroke="rgb(184,0,61)" stroke-width="2"></line><line x1="216.5" y1="464.27103214141704" x2="213.5" y2="459.0748797187104" stroke="rgb(129,0,43)" stroke-width="2"></line><line x1="183.5" y1="464.27103214141704" x2="186.5" y2="459.0748797187104" stroke="rgb(184,0,61)" stroke-width="2"></line><line x1="293" y1="435.69219381653056" x2="287" y2="435.69219381653056" stroke="rgb(255,0,87)" stroke-width="2"></line><line x1="276.5" y1="464.27103214141704" x2="273.5" y2="459.0748797187104" stroke="rgb(255,0,87)" stroke-width="2"></line><line x1="243.5" y1="464.27103214141704" x2="246.5" y2="459.0748797187104" stroke="rgb(63,0,21)" stroke-width="2"></line><line x1="353" y1="435.69219381653056" x2="347" y2="435.69219381653056" stroke="rgb(255,0,87)" stroke-width="2"></line><line x1="336.5" y1="464.27103214141704" x2="333.5" y2="459.0748797187104" stroke="rgb(184,0,61)" stroke-width="2"></line><line x1="303.5" y1="464.27103214141704" x2="306.5" y2="459.0748797187104" stroke="rgb(184,0,61)" stroke-width="2"></line><line x1="413" y1="435.69219381653056" x2="407" y2="435.69219381653056" stroke="rgb(184,0,61)" stroke-width="2"></line><line x1="396.5" y1="464.27103214141704" x2="393.5" y2="459.0748797187104" stroke="rgb(184,0,61)" stroke-width="2"></line><line x1="363.5" y1="464.27103214141704" x2="366.5" y2="459.0748797187104" stroke="rgb(255,0,87)" stroke-width="2"></line><line x1="473" y1="435.69219381653056" x2="467" y2="435.69219381653056" stroke="rgb(129,0,43)" stroke-width="2"></line><line x1="456.5" y1="464.27103214141704" x2="453.5" y2="459.0748797187104" stroke="rgb(184,0,61)" stroke-width="2"></line><line x1="423.5" y1="464.27103214141704" x2="426.5" y2="459.0748797187104" stroke="rgb(184,0,61)" stroke-width="2"></line><line x1="83" y1="487.6537180435969" x2="77" y2="487.6537180435969" stroke="rgb(255,0,87)" stroke-width="2"></line><line x1="66.5" y1="516.2325563684833" x2="63.5" y2="511.0364039457767" stroke="rgb(90,0,30)" stroke-width="2"></line><line x1="33.5" y1="516.2325563684833" x2="36.5" y2="511.0364039457767" stroke="rgb(184,0,61)" stroke-width="2"></line><line x1="143" y1="487.6537180435969" x2="137" y2="487.6537180435969" stroke="rgb(90,0,30)" stroke-width="2"></line><line x1="126.5" y1="516.2325563684833" x2="123.5" y2="511.0364039457767" stroke="rgb(255,0,87)" stroke-width="2"></line><line x1="93.5" y1="516.2325563684833" x2="96.5" y2="511.0364039457767" stroke="rgb(129,0,43)" stroke-width="2"></line><line x1="203" y1="487.6537180435969" x2="197" y2="487.6537180435969" stroke="rgb(63,0,21)" stroke-width="2"></line><line x1="186.5" y1="516.2325563684833" x2="183.5" y2="511.0364039457767" stroke="rgb(129,0,43)" stroke-width="2"></line><line x1="153.5" y1="516.2325563684833" x2="156.5" y2="511.0364039457767" stroke="rgb(255,0,179)" stroke-width="2"></line><line x1="263" y1="487.6537180435969" x2="257" y2="487.6537180435969" stroke="rgb(129,0,43)" stroke-width="2"></line><line x1="246.5" y1="516.2325563684833" x2="243.5" y2="511.0364039457767" stroke="rgb(90,0,30)" stroke-width="2"></line><line x1="213.5" y1="516.2325563684833" x2="216.5" y2="511.0364039457767" stroke="rgb(90,0,30)" stroke-width="2"></line><line x1="323" y1="487.6537180435969" x2="317" y2="487.6537180435969" stroke="rgb(0,0,0)" stroke-width="2"></line><line x1="306.5" y1="516.2325563684833" x2="303.5" y2="511.0364039457767" stroke="rgb(129,0,43)" stroke-width="2"></line><line x1="273.5" y1="516.2325563684833" x2="276.5" y2="511.0364039457767" stroke="rgb(0,0,0)" stroke-width="2"></line><line x1="383" y1="487.6537180435969" x2="377" y2="487.6537180435969" stroke="rgb(0,0,0)" stroke-width="2"></line><line x1="366.5" y1="516.2325563684833" x2="363.5" y2="511.0364039457767" stroke="rgb(129,0,43)" stroke-width="2"></line><line x1="333.5" y1="516.2325563684833" x2="336.5" y2="511.0364039457767" stroke="rgb(184,0,61)" stroke-width="2"></line><line x1="443" y1="487.6537180435969" x2="437" y2="487.6537180435969" stroke="rgb(129,0,43)" stroke-width="2"></line><line x1="426.5" y1="516.2325563684833" x2="423.5" y2="511.0364039457767" stroke="rgb(0,0,0)" stroke-width="2"></line><line x1="393.5" y1="516.2325563684833" x2="396.5" y2="511.0364039457767" stroke="rgb(129,0,43)" stroke-width="2"></line><line x1="503" y1="487.6537180435969" x2="497" y2="487.6537180435969" stroke="#040" stroke-width="5" stroke-opacity="0.0"></line><line x1="486.5" y1="516.2325563684833" x2="483.5" y2="511.0364039457767" stroke="rgb(129,0,43)" stroke-width="2"></line><line x1="453.5" y1="516.2325563684833" x2="456.5" y2="511.0364039457767" stroke="rgb(129,0,43)" stroke-width="2"></line></svg>
