<svg viewBox="-7 15 516 505.3665309646989" xmlns="http://www.w3.org/2000/svg" version="1.1"><path d="
M 64 20 C
42 20
31 39.052558883257646
42 58.1051177665153
" stroke="rgb(25,74,102)" stroke-width="5" fill-opacity="0.0"></path><path d="
M 64 20 C
25.8948822334847 20
17.05255888325765 25.1051177665153
-2 58.1051177665153
" stroke="rgb(25,61,102)" stroke-width="5" fill-opacity="0.0"></path><path d="
M 64 20 C
108 20
108 20
152 20
" stroke="rgb(25,61,102)" stroke-width="5" fill-opacity="0.0"></path><path d="
M 42 58.1051177665153 C
31 39.052558883257646
9 39.052558883257646
-2 58.1051177665153
" stroke="rgb(25,74,102)" stroke-width="5" fill-opacity="0.0"></path><path d="
M 42 58.1051177665153 C
53 77.15767664977295
75 77.15767664977295
86 58.1051177665153
" stroke="rgb(25,74,102)" stroke-width="5" fill-opacity="0.0"></path><path d="
M 42 58.1051177665153 C
64 96.21023553303061
64 96.2102355330306
86 134.3153532995459
" stroke="rgb(25,106,102)" stroke-width="5" fill-opacity="0.0"></path><path d="
M 42 58.1051177665153 C
61.05255888325765 91.10511776651529
61.05255888325765 101.3153532995459
42 134.3153532995459
" stroke="rgb(25,87,102)" stroke-width="5" fill-opacity="0.0"></path><path d="
M 152 20 C
113.89488223348471 20
105.05255888325765 25.1051177665153
86 58.1051177665153
" stroke="rgb(25,61,102)" stroke-width="5" fill-opacity="0.0"></path><path d="
M 152 20 C
196 20
196 20
240 20
" stroke="rgb(25,52,102)" stroke-width="5" fill-opacity="0.0"></path><path d="
M 152 20 C
190.1051177665153 20
198.94744111674234 25.1051177665153
218 58.1051177665153
" stroke="rgb(25,61,102)" stroke-width="5" fill-opacity="0.0"></path><path d="
M 152 20 C
174 20
185 39.052558883257646
174 58.1051177665153
" stroke="rgb(25,74,102)" stroke-width="5" fill-opacity="0.0"></path><path d="
M 130 58.1051177665153 C
149.05255888325766 91.10511776651529
157.8948822334847 96.2102355330306
196 96.2102355330306
" stroke="rgb(25,87,102)" stroke-width="5" fill-opacity="0.0"></path><path d="
M 130 58.1051177665153 C
152 96.21023553303061
152 96.2102355330306
174 134.3153532995459
" stroke="rgb(25,106,102)" stroke-width="5" fill-opacity="0.0"></path><path d="
M 86 58.1051177665153 C
64 96.21023553303061
64 96.2102355330306
42 134.3153532995459
" stroke="rgb(25,74,102)" stroke-width="5" fill-opacity="0.0"></path><path d="
M 240 20 C
284 20
284 20
328 20
" stroke="rgb(25,43,102)" stroke-width="5" fill-opacity="0.0"></path><path d="
M 218 58.1051177665153 C
207 39.052558883257646
185 39.052558883257646
174 58.1051177665153
" stroke="rgb(25,74,102)" stroke-width="5" fill-opacity="0.0"></path><path d="
M 218 58.1051177665153 C
229 77.15767664977295
218 96.2102355330306
196 96.2102355330306
" stroke="rgb(25,74,102)" stroke-width="5" fill-opacity="0.0"></path><path d="
M 218 58.1051177665153 C
240 96.21023553303061
240 96.2102355330306
262 134.3153532995459
" stroke="rgb(25,74,102)" stroke-width="5" fill-opacity="0.0"></path><path d="
M 174 58.1051177665153 C
154.94744111674234 91.10511776651529
146.1051177665153 96.2102355330306
108 96.2102355330306
" stroke="rgb(25,87,102)" stroke-width="5" fill-opacity="0.0"></path><path d="
M 174 58.1051177665153 C
163 77.15767664977295
174 96.2102355330306
196 96.2102355330306
" stroke="rgb(25,87,102)" stroke-width="5" fill-opacity="0.0"></path><path d="
M 174 58.1051177665153 C
154.94744111674234 91.10511776651529
154.94744111674234 101.3153532995459
174 134.3153532995459
" stroke="rgb(25,106,102)" stroke-width="5" fill-opacity="0.0"></path><path d="
M 174 58.1051177665153 C
152 96.21023553303061
152 96.2102355330306
130 134.3153532995459
" stroke="rgb(25,106,102)" stroke-width="5" fill-opacity="0.0"></path><path d="
M 328 20 C
372 20
372 20
416 20
" stroke="rgb(25,43,102)" stroke-width="5" fill-opacity="0.0"></path><path d="
M 328 20 C
350 20
361 39.052558883257646
350 58.1051177665153
" stroke="rgb(25,52,102)" stroke-width="5" fill-opacity="0.0"></path><path d="
M 306 58.1051177665153 C
317 77.15767664977295
339 77.15767664977295
350 58.1051177665153
" stroke="rgb(25,61,102)" stroke-width="5" fill-opacity="0.0"></path><path d="
M 306 58.1051177665153 C
325.05255888325763 91.10511776651529
333.8948822334847 96.2102355330306
372 96.2102355330306
" stroke="rgb(25,61,102)" stroke-width="5" fill-opacity="0.0"></path><path d="
M 306 58.1051177665153 C
328 96.21023553303061
328 96.2102355330306
350 134.3153532995459
" stroke="rgb(25,74,102)" stroke-width="5" fill-opacity="0.0"></path><path d="
M 306 58.1051177665153 C
325.05255888325763 91.10511776651529
325.05255888325763 101.3153532995459
306 134.3153532995459
" stroke="rgb(25,74,102)" stroke-width="5" fill-opacity="0.0"></path><path d="
M 262 58.1051177665153 C
251 77.15767664977295
262 96.2102355330306
284 96.2102355330306
" stroke="rgb(25,74,102)" stroke-width="5" fill-opacity="0.0"></path><path d="
M 262 58.1051177665153 C
242.94744111674234 91.10511776651529
242.94744111674234 101.3153532995459
262 134.3153532995459
" stroke="rgb(25,87,102)" stroke-width="5" fill-opacity="0.0"></path><path d="
M 262 58.1051177665153 C
240 96.21023553303061
240 96.2102355330306
218 134.3153532995459
" stroke="rgb(25,106,102)" stroke-width="5" fill-opacity="0.0"></path><path d="
M 416 20 C
394 20
383 39.052558883257646
394 58.1051177665153
" stroke="rgb(25,52,102)" stroke-width="5" fill-opacity="0.0"></path><path d="
M 416 20 C
460 20
460 20
504 20
" stroke="rgb(25,43,102)" stroke-width="5" fill-opacity="0.0"></path><path d="
M 416 20 C
438 20
449 39.052558883257646
438 58.1051177665153
" stroke="rgb(25,52,102)" stroke-width="5" fill-opacity="0.0"></path><path d="
M 394 58.1051177665153 C
383 39.052558883257646
361 39.052558883257646
350 58.1051177665153
" stroke="rgb(25,61,102)" stroke-width="5" fill-opacity="0.0"></path><path d="
M 394 58.1051177665153 C
405 77.15767664977295
427 77.15767664977295
438 58.1051177665153
" stroke="rgb(25,61,102)" stroke-width="5" fill-opacity="0.0"></path><path d="
M 394 58.1051177665153 C
413.05255888325763 91.10511776651529
421.8948822334847 96.2102355330306
460 96.2102355330306
" stroke="rgb(25,61,102)" stroke-width="5" fill-opacity="0.0"></path><path d="
M 394 58.1051177665153 C
416 96.21023553303061
416 96.2102355330306
438 134.3153532995459
" stroke="rgb(25,74,102)" stroke-width="5" fill-opacity="0.0"></path><path d="
M 350 58.1051177665153 C
330.94744111674237 91.10511776651529
322.1051177665153 96.2102355330306
284 96.2102355330306
" stroke="rgb(25,61,102)" stroke-width="5" fill-opacity="0.0"></path><path d="
M 350 58.1051177665153 C
339 77.15767664977295
350 96.2102355330306
372 96.2102355330306
" stroke="rgb(25,61,102)" stroke-width="5" fill-opacity="0.0"></path><path d="
M 350 58.1051177665153 C
328 96.21023553303061
328 96.2102355330306
306 134.3153532995459
" stroke="rgb(25,74,102)" stroke-width="5" fill-opacity="0.0"></path><path d="
M 504 20 C
465.8948822334847 20
457.05255888325763 25.1051177665153
438 58.1051177665153
" stroke="rgb(25,52,102)" stroke-width="5" fill-opacity="0.0"></path><path d="
M 482 58.1051177665153 C
493 77.15767664977295
482 96.2102355330306
460 96.2102355330306
" stroke="rgb(25,52,102)" stroke-width="5" fill-opacity="0.0"></path><path d="
M 438 58.1051177665153 C
427 77.15767664977295
438 96.2102355330306
460 96.2102355330306
" stroke="rgb(25,61,102)" stroke-width="5" fill-opacity="0.0"></path><path d="
M 438 58.1051177665153 C
416 96.21023553303061
416 96.2102355330306
394 134.3153532995459
" stroke="rgb(25,74,102)" stroke-width="5" fill-opacity="0.0"></path><path d="
M 108 96.2102355330306 C
152 96.2102355330306
152 96.2102355330306
196 96.2102355330306
" stroke="rgb(25,87,102)" stroke-width="5" fill-opacity="0.0"></path><path d="
M 108 96.2102355330306 C
146.1051177665153 96.2102355330306
154.94744111674234 101.3153532995459
174 134.3153532995459
" stroke="rgb(25,106,102)" stroke-width="5" fill-opacity="0.0"></path><path d="
M 86 134.3153532995459 C
97 153.36791218280354
86 172.4204710660612
64 172.4204710660612
" stroke="rgb(25,106,102)" stroke-width="5" fill-opacity="0.0"></path><path d="
M 86 134.3153532995459 C
105.05255888325765 167.3153532995459
113.89488223348471 172.4204710660612
152 172.4204710660612
" stroke="rgb(25,125,102)" stroke-width="5" fill-opacity="0.0"></path><path d="
M 86 134.3153532995459 C
108 172.4204710660612
108 172.4204710660612
130 210.5255888325765
" stroke="rgb(25,152,102)" stroke-width="5" fill-opacity="0.0"></path><path d="
M 86 134.3153532995459 C
105.05255888325765 167.3153532995459
105.05255888325765 177.5255888325765
86 210.5255888325765
" stroke="rgb(25,125,102)" stroke-width="5" fill-opacity="0.0"></path><path d="
M 42 134.3153532995459 C
31 153.36791218280354
42 172.4204710660612
64 172.4204710660612
" stroke="rgb(25,87,102)" stroke-width="5" fill-opacity="0.0"></path><path d="
M 42 134.3153532995459 C
22.947441116742354 167.3153532995459
22.947441116742354 177.5255888325765
42 210.5255888325765
" stroke="rgb(25,106,102)" stroke-width="5" fill-opacity="0.0"></path><path d="
M 42 134.3153532995459 C
20.000000000000004 172.4204710660612
19.999999999999996 172.4204710660612
-2 210.5255888325765
" stroke="rgb(25,74,102)" stroke-width="5" fill-opacity="0.0"></path><path d="
M 196 96.2102355330306 C
174 96.2102355330306
163 115.26279441628824
174 134.3153532995459
" stroke="rgb(25,106,102)" stroke-width="5" fill-opacity="0.0"></path><path d="
M 196 96.2102355330306 C
157.8948822334847 96.2102355330306
149.05255888325766 101.3153532995459
130 134.3153532995459
" stroke="rgb(25,106,102)" stroke-width="5" fill-opacity="0.0"></path><path d="
M 196 96.2102355330306 C
240 96.2102355330306
240 96.2102355330306
284 96.2102355330306
" stroke="rgb(25,74,102)" stroke-width="5" fill-opacity="0.0"></path><path d="
M 196 96.2102355330306 C
218 96.2102355330306
229 115.26279441628824
218 134.3153532995459
" stroke="rgb(25,106,102)" stroke-width="5" fill-opacity="0.0"></path><path d="
M 174 134.3153532995459 C
185 153.36791218280354
174 172.4204710660612
152 172.4204710660612
" stroke="rgb(25,125,102)" stroke-width="5" fill-opacity="0.0"></path><path d="
M 174 134.3153532995459 C
193.05255888325766 167.3153532995459
201.8948822334847 172.4204710660612
240 172.4204710660612
" stroke="rgb(25,106,102)" stroke-width="5" fill-opacity="0.0"></path><path d="
M 174 134.3153532995459 C
196 172.4204710660612
196 172.4204710660612
218 210.5255888325765
" stroke="rgb(25,125,102)" stroke-width="5" fill-opacity="0.0"></path><path d="
M 174 134.3153532995459 C
193.05255888325763 167.3153532995459
193.05255888325763 177.5255888325765
174 210.5255888325765
" stroke="rgb(25,152,102)" stroke-width="5" fill-opacity="0.0"></path><path d="
M 130 134.3153532995459 C
119 153.36791218280354
130 172.4204710660612
152 172.4204710660612
" stroke="rgb(25,125,102)" stroke-width="5" fill-opacity="0.0"></path><path d="
M 130 134.3153532995459 C
110.94744111674235 167.3153532995459
110.94744111674235 177.5255888325765
130 210.5255888325765
" stroke="rgb(25,152,102)" stroke-width="5" fill-opacity="0.0"></path><path d="
M 130 134.3153532995459 C
108 172.4204710660612
108 172.4204710660612
86 210.5255888325765
" stroke="rgb(25,125,102)" stroke-width="5" fill-opacity="0.0"></path><path d="
M 284 96.2102355330306 C
262 96.2102355330306
251 115.26279441628824
262 134.3153532995459
" stroke="rgb(25,74,102)" stroke-width="5" fill-opacity="0.0"></path><path d="
M 284 96.2102355330306 C
328 96.2102355330306
328 96.2102355330306
372 96.2102355330306
" stroke="rgb(25,61,102)" stroke-width="5" fill-opacity="0.0"></path><path d="
M 284 96.2102355330306 C
306 96.2102355330306
317 115.26279441628824
306 134.3153532995459
" stroke="rgb(25,74,102)" stroke-width="5" fill-opacity="0.0"></path><path d="
M 262 134.3153532995459 C
273 153.36791218280356
295 153.36791218280356
306 134.3153532995459
" stroke="rgb(25,87,102)" stroke-width="5" fill-opacity="0.0"></path><path d="
M 262 134.3153532995459 C
281.05255888325763 167.3153532995459
289.8948822334847 172.4204710660612
328 172.4204710660612
" stroke="rgb(25,87,102)" stroke-width="5" fill-opacity="0.0"></path><path d="
M 262 134.3153532995459 C
284 172.4204710660612
284 172.4204710660612
306 210.5255888325765
" stroke="rgb(25,106,102)" stroke-width="5" fill-opacity="0.0"></path><path d="
M 262 134.3153532995459 C
281.05255888325763 167.3153532995459
281.05255888325763 177.5255888325765
262 210.5255888325765
" stroke="rgb(25,87,102)" stroke-width="5" fill-opacity="0.0"></path><path d="
M 218 134.3153532995459 C
207 153.36791218280354
218 172.4204710660612
240 172.4204710660612
" stroke="rgb(25,106,102)" stroke-width="5" fill-opacity="0.0"></path><path d="
M 218 134.3153532995459 C
198.94744111674237 167.3153532995459
198.94744111674237 177.5255888325765
218 210.5255888325765
" stroke="rgb(25,125,102)" stroke-width="5" fill-opacity="0.0"></path><path d="
M 218 134.3153532995459 C
196 172.4204710660612
196 172.4204710660612
174 210.5255888325765
" stroke="rgb(25,152,102)" stroke-width="5" fill-opacity="0.0"></path><path d="
M 372 96.2102355330306 C
350 96.2102355330306
339 115.26279441628824
350 134.3153532995459
" stroke="rgb(25,74,102)" stroke-width="5" fill-opacity="0.0"></path><path d="
M 372 96.2102355330306 C
333.8948822334847 96.2102355330306
325.05255888325763 101.3153532995459
306 134.3153532995459
" stroke="rgb(25,74,102)" stroke-width="5" fill-opacity="0.0"></path><path d="
M 372 96.2102355330306 C
416 96.2102355330306
416 96.2102355330306
460 96.2102355330306
" stroke="rgb(25,61,102)" stroke-width="5" fill-opacity="0.0"></path><path d="
M 372 96.2102355330306 C
410.1051177665153 96.2102355330306
418.94744111674237 101.3153532995459
438 134.3153532995459
" stroke="rgb(25,74,102)" stroke-width="5" fill-opacity="0.0"></path><path d="
M 350 134.3153532995459 C
339 115.26279441628826
317 115.26279441628826
306 134.3153532995459
" stroke="rgb(25,87,102)" stroke-width="5" fill-opacity="0.0"></path><path d="
M 350 134.3153532995459 C
369.05255888325763 167.3153532995459
377.8948822334847 172.4204710660612
416 172.4204710660612
" stroke="rgb(25,106,102)" stroke-width="5" fill-opacity="0.0"></path><path d="
M 350 134.3153532995459 C
372 172.4204710660612
372 172.4204710660612
394 210.5255888325765
" stroke="rgb(25,106,102)" stroke-width="5" fill-opacity="0.0"></path><path d="
M 350 134.3153532995459 C
369.05255888325763 167.3153532995459
369.05255888325763 177.5255888325765
350 210.5255888325765
" stroke="rgb(25,87,102)" stroke-width="5" fill-opacity="0.0"></path><path d="
M 306 134.3153532995459 C
286.94744111674237 167.3153532995459
278.1051177665153 172.4204710660612
240 172.4204710660612
" stroke="rgb(25,87,102)" stroke-width="5" fill-opacity="0.0"></path><path d="
M 306 134.3153532995459 C
286.94744111674237 167.3153532995459
286.94744111674237 177.5255888325765
306 210.5255888325765
" stroke="rgb(25,106,102)" stroke-width="5" fill-opacity="0.0"></path><path d="
M 306 134.3153532995459 C
284 172.4204710660612
284 172.4204710660612
262 210.5255888325765
" stroke="rgb(25,87,102)" stroke-width="5" fill-opacity="0.0"></path><path d="
M 460 96.2102355330306 C
438 96.2102355330306
427 115.26279441628824
438 134.3153532995459
" stroke="rgb(25,74,102)" stroke-width="5" fill-opacity="0.0"></path><path d="
M 438 134.3153532995459 C
457.05255888325763 167.3153532995459
465.8948822334847 172.4204710660612
504 172.4204710660612
" stroke="rgb(25,87,102)" stroke-width="5" fill-opacity="0.0"></path><path d="
M 438 134.3153532995459 C
460 172.4204710660612
460 172.4204710660612
482 210.5255888325765
" stroke="rgb(25,106,102)" stroke-width="5" fill-opacity="0.0"></path><path d="
M 394 134.3153532995459 C
374.94744111674237 167.3153532995459
366.1051177665153 172.4204710660612
328 172.4204710660612
" stroke="rgb(25,87,102)" stroke-width="5" fill-opacity="0.0"></path><path d="
M 394 134.3153532995459 C
383 153.36791218280354
394 172.4204710660612
416 172.4204710660612
" stroke="rgb(25,106,102)" stroke-width="5" fill-opacity="0.0"></path><path d="
M 394 134.3153532995459 C
374.94744111674237 167.3153532995459
374.94744111674237 177.5255888325765
394 210.5255888325765
" stroke="rgb(25,106,102)" stroke-width="5" fill-opacity="0.0"></path><path d="
M 394 134.3153532995459 C
372 172.4204710660612
372 172.4204710660612
350 210.5255888325765
" stroke="rgb(25,87,102)" stroke-width="5" fill-opacity="0.0"></path><path d="
M 64 172.4204710660612 C
108 172.4204710660612
108 172.4204710660612
152 172.4204710660612
" stroke="rgb(25,106,102)" stroke-width="5" fill-opacity="0.0"></path><path d="
M 42 210.5255888325765 C
53 229.57814771583415
75 229.57814771583415
86 210.5255888325765
" stroke="rgb(25,125,102)" stroke-width="5" fill-opacity="0.0"></path><path d="
M 42 210.5255888325765 C
61.05255888325765 243.5255888325765
69.8948822334847 248.6307065990918
108 248.6307065990918
" stroke="rgb(25,152,102)" stroke-width="5" fill-opacity="0.0"></path><path d="
M 42 210.5255888325765 C
64.00000000000001 248.6307065990918
63.999999999999986 248.6307065990918
86 286.73582436560713
" stroke="rgb(25,125,102)" stroke-width="5" fill-opacity="0.0"></path><path d="
M 152 172.4204710660612 C
130 172.4204710660612
119 191.47302994931886
130 210.5255888325765
" stroke="rgb(25,152,102)" stroke-width="5" fill-opacity="0.0"></path><path d="
M 152 172.4204710660612 C
196 172.4204710660612
196 172.4204710660612
240 172.4204710660612
" stroke="rgb(25,106,102)" stroke-width="5" fill-opacity="0.0"></path><path d="
M 152 172.4204710660612 C
190.1051177665153 172.4204710660612
198.94744111674234 177.5255888325765
218 210.5255888325765
" stroke="rgb(25,125,102)" stroke-width="5" fill-opacity="0.0"></path><path d="
M 130 210.5255888325765 C
119 191.47302994931883
97 191.47302994931883
86 210.5255888325765
" stroke="rgb(25,152,102)" stroke-width="5" fill-opacity="0.0"></path><path d="
M 130 210.5255888325765 C
141 229.57814771583415
163 229.57814771583415
174 210.5255888325765
" stroke="rgb(25,179,102)" stroke-width="5" fill-opacity="0.0"></path><path d="
M 130 210.5255888325765 C
149.05255888325766 243.5255888325765
157.89488223348468 248.6307065990918
196 248.6307065990918
" stroke="rgb(25,152,102)" stroke-width="5" fill-opacity="0.0"></path><path d="
M 130 210.5255888325765 C
152 248.6307065990918
152 248.6307065990918
174 286.73582436560713
" stroke="rgb(25,217,102)" stroke-width="5" fill-opacity="0.0"></path><path d="
M 130 210.5255888325765 C
149.05255888325766 243.5255888325765
149.05255888325766 253.73582436560713
130 286.73582436560713
" stroke="rgb(25,179,102)" stroke-width="5" fill-opacity="0.0"></path><path d="
M 86 210.5255888325765 C
63.999999999999986 248.6307065990918
64.00000000000001 248.6307065990918
42 286.73582436560713
" stroke="rgb(25,125,102)" stroke-width="5" fill-opacity="0.0"></path><path d="
M 240 172.4204710660612 C
284 172.4204710660612
284 172.4204710660612
328 172.4204710660612
" stroke="rgb(25,87,102)" stroke-width="5" fill-opacity="0.0"></path><path d="
M 240 172.4204710660612 C
278.1051177665153 172.4204710660612
286.94744111674237 177.5255888325765
306 210.5255888325765
" stroke="rgb(25,106,102)" stroke-width="5" fill-opacity="0.0"></path><path d="
M 218 210.5255888325765 C
207 191.47302994931883
185 191.47302994931883
174 210.5255888325765
" stroke="rgb(25,152,102)" stroke-width="5" fill-opacity="0.0"></path><path d="
M 218 210.5255888325765 C
229 229.57814771583415
251 229.57814771583415
262 210.5255888325765
" stroke="rgb(25,106,102)" stroke-width="5" fill-opacity="0.0"></path><path d="
M 218 210.5255888325765 C
229 229.57814771583415
218 248.6307065990918
196 248.6307065990918
" stroke="rgb(25,125,102)" stroke-width="5" fill-opacity="0.0"></path><path d="
M 218 210.5255888325765 C
240 248.6307065990918
240 248.6307065990918
262 286.73582436560713
" stroke="rgb(25,106,102)" stroke-width="5" fill-opacity="0.0"></path><path d="
M 218 210.5255888325765 C
237.05255888325766 243.5255888325765
237.05255888325766 253.73582436560713
218 286.73582436560713
" stroke="rgb(25,125,102)" stroke-width="5" fill-opacity="0.0"></path><path d="
M 174 210.5255888325765 C
154.94744111674234 243.5255888325765
146.10511776651532 248.6307065990918
108 248.6307065990918
" stroke="rgb(25,179,102)" stroke-width="5" fill-opacity="0.0"></path><path d="
M 174 210.5255888325765 C
154.94744111674234 243.5255888325765
154.94744111674234 253.73582436560713
174 286.73582436560713
" stroke="rgb(25,217,102)" stroke-width="5" fill-opacity="0.0"></path><path d="
M 174 210.5255888325765 C
152 248.6307065990918
152 248.6307065990918
130 286.73582436560713
" stroke="rgb(25,179,102)" stroke-width="5" fill-opacity="0.0"></path><path d="
M 328 172.4204710660612 C
306 172.4204710660612
295 191.47302994931886
306 210.5255888325765
" stroke="rgb(25,106,102)" stroke-width="5" fill-opacity="0.0"></path><path d="
M 328 172.4204710660612 C
372 172.4204710660612
372 172.4204710660612
416 172.4204710660612
" stroke="rgb(25,106,102)" stroke-width="5" fill-opacity="0.0"></path><path d="
M 328 172.4204710660612 C
366.1051177665153 172.4204710660612
374.94744111674237 177.5255888325765
394 210.5255888325765
" stroke="rgb(25,106,102)" stroke-width="5" fill-opacity="0.0"></path><path d="
M 328 172.4204710660612 C
350 172.4204710660612
361 191.47302994931886
350 210.5255888325765
" stroke="rgb(25,87,102)" stroke-width="5" fill-opacity="0.0"></path><path d="
M 306 210.5255888325765 C
295 191.47302994931883
273 191.47302994931883
262 210.5255888325765
" stroke="rgb(25,106,102)" stroke-width="5" fill-opacity="0.0"></path><path d="
M 306 210.5255888325765 C
317 229.57814771583415
339 229.57814771583415
350 210.5255888325765
" stroke="rgb(25,106,102)" stroke-width="5" fill-opacity="0.0"></path><path d="
M 306 210.5255888325765 C
328 248.6307065990918
328 248.6307065990918
350 286.73582436560713
" stroke="rgb(25,152,102)" stroke-width="5" fill-opacity="0.0"></path><path d="
M 262 210.5255888325765 C
242.94744111674234 243.5255888325765
234.10511776651532 248.6307065990918
196 248.6307065990918
" stroke="rgb(25,106,102)" stroke-width="5" fill-opacity="0.0"></path><path d="
M 262 210.5255888325765 C
242.94744111674234 243.5255888325765
242.94744111674234 253.73582436560713
262 286.73582436560713
" stroke="rgb(25,87,102)" stroke-width="5" fill-opacity="0.0"></path><path d="
M 262 210.5255888325765 C
240 248.6307065990918
240 248.6307065990918
218 286.73582436560713
" stroke="rgb(25,106,102)" stroke-width="5" fill-opacity="0.0"></path><path d="
M 416 172.4204710660612 C
460 172.4204710660612
460 172.4204710660612
504 172.4204710660612
" stroke="rgb(25,106,102)" stroke-width="5" fill-opacity="0.0"></path><path d="
M 416 172.4204710660612 C
454.1051177665153 172.4204710660612
462.94744111674237 177.5255888325765
482 210.5255888325765
" stroke="rgb(25,125,102)" stroke-width="5" fill-opacity="0.0"></path><path d="
M 416 172.4204710660612 C
438 172.4204710660612
449 191.47302994931886
438 210.5255888325765
" stroke="rgb(25,152,102)" stroke-width="5" fill-opacity="0.0"></path><path d="
M 394 210.5255888325765 C
383 191.47302994931883
361 191.47302994931883
350 210.5255888325765
" stroke="rgb(25,106,102)" stroke-width="5" fill-opacity="0.0"></path><path d="
M 394 210.5255888325765 C
405 229.57814771583415
427 229.57814771583415
438 210.5255888325765
" stroke="rgb(25,152,102)" stroke-width="5" fill-opacity="0.0"></path><path d="
M 394 210.5255888325765 C
405 229.57814771583415
394 248.6307065990918
372 248.6307065990918
" stroke="rgb(25,125,102)" stroke-width="5" fill-opacity="0.0"></path><path d="
M 394 210.5255888325765 C
413.05255888325763 243.5255888325765
421.8948822334847 248.6307065990918
460 248.6307065990918
" stroke="rgb(25,125,102)" stroke-width="5" fill-opacity="0.0"></path><path d="
M 394 210.5255888325765 C
416 248.6307065990918
416 248.6307065990918
438 286.73582436560713
" stroke="rgb(25,152,102)" stroke-width="5" fill-opacity="0.0"></path><path d="
M 350 210.5255888325765 C
339 229.57814771583415
350 248.6307065990918
372 248.6307065990918
" stroke="rgb(25,106,102)" stroke-width="5" fill-opacity="0.0"></path><path d="
M 350 210.5255888325765 C
328 248.6307065990918
328 248.6307065990918
306 286.73582436560713
" stroke="rgb(25,87,102)" stroke-width="5" fill-opacity="0.0"></path><path d="
M 482 210.5255888325765 C
471 191.47302994931883
449 191.47302994931883
438 210.5255888325765
" stroke="rgb(25,152,102)" stroke-width="5" fill-opacity="0.0"></path><path d="
M 438 210.5255888325765 C
427 229.57814771583415
438 248.6307065990918
460 248.6307065990918
" stroke="rgb(25,152,102)" stroke-width="5" fill-opacity="0.0"></path><path d="
M 438 210.5255888325765 C
418.9474411167423 243.5255888325765
418.9474411167423 253.73582436560713
438 286.73582436560713
" stroke="rgb(25,179,102)" stroke-width="5" fill-opacity="0.0"></path><path d="
M 438 210.5255888325765 C
416 248.6307065990918
416 248.6307065990918
394 286.73582436560713
" stroke="rgb(25,217,102)" stroke-width="5" fill-opacity="0.0"></path><path d="
M 108 248.6307065990918 C
85.99999999999999 248.6307065990918
75 267.6832654823495
86 286.73582436560713
" stroke="rgb(25,152,102)" stroke-width="5" fill-opacity="0.0"></path><path d="
M 108 248.6307065990918 C
69.8948822334847 248.6307065990918
61.05255888325765 253.73582436560713
42 286.73582436560713
" stroke="rgb(25,152,102)" stroke-width="5" fill-opacity="0.0"></path><path d="
M 108 248.6307065990918 C
152 248.6307065990918
152 248.6307065990918
196 248.6307065990918
" stroke="rgb(25,152,102)" stroke-width="5" fill-opacity="0.0"></path><path d="
M 108 248.6307065990918 C
146.10511776651532 248.6307065990918
154.94744111674234 253.73582436560713
174 286.73582436560713
" stroke="rgb(25,217,102)" stroke-width="5" fill-opacity="0.0"></path><path d="
M 86 286.73582436560713 C
108 324.84094213212245
108 324.84094213212245
130 362.9460598986377
" stroke="rgb(25,125,102)" stroke-width="5" fill-opacity="0.0"></path><path d="
M 86 286.73582436560713 C
105.05255888325765 319.73582436560713
105.05255888325765 329.9460598986377
86 362.9460598986377
" stroke="rgb(25,125,102)" stroke-width="5" fill-opacity="0.0"></path><path d="
M 42 286.73582436560713 C
20.000000000000004 324.84094213212245
19.999999999999996 324.84094213212245
-2 362.9460598986377
" stroke="rgb(25,106,102)" stroke-width="5" fill-opacity="0.0"></path><path d="
M 196 248.6307065990918 C
157.89488223348468 248.6307065990918
149.05255888325766 253.73582436560713
130 286.73582436560713
" stroke="rgb(25,152,102)" stroke-width="5" fill-opacity="0.0"></path><path d="
M 196 248.6307065990918 C
240 248.6307065990918
240 248.6307065990918
284 248.6307065990918
" stroke="rgb(25,106,102)" stroke-width="5" fill-opacity="0.0"></path><path d="
M 196 248.6307065990918 C
218 248.6307065990918
229 267.6832654823495
218 286.73582436560713
" stroke="rgb(25,125,102)" stroke-width="5" fill-opacity="0.0"></path><path d="
M 174 286.73582436560713 C
163 267.6832654823495
141 267.6832654823495
130 286.73582436560713
" stroke="rgb(25,217,102)" stroke-width="5" fill-opacity="0.0"></path><path d="
M 174 286.73582436560713 C
185 305.78838324886476
174 324.8409421321224
152 324.8409421321224
" stroke="rgb(25,217,102)" stroke-width="5" fill-opacity="0.0"></path><path d="
M 174 286.73582436560713 C
196 324.84094213212245
196 324.84094213212245
218 362.9460598986377
" stroke="rgb(25,217,102)" stroke-width="5" fill-opacity="0.0"></path><path d="
M 130 286.73582436560713 C
119 305.78838324886476
130 324.8409421321224
152 324.8409421321224
" stroke="rgb(25,179,102)" stroke-width="5" fill-opacity="0.0"></path><path d="
M 130 286.73582436560713 C
110.94744111674235 319.73582436560713
110.94744111674235 329.9460598986377
130 362.9460598986377
" stroke="rgb(25,152,102)" stroke-width="5" fill-opacity="0.0"></path><path d="
M 130 286.73582436560713 C
108 324.84094213212245
108 324.84094213212245
86 362.9460598986377
" stroke="rgb(25,152,102)" stroke-width="5" fill-opacity="0.0"></path><path d="
M 284 248.6307065990918 C
328 248.6307065990918
328 248.6307065990918
372 248.6307065990918
" stroke="rgb(25,106,102)" stroke-width="5" fill-opacity="0.0"></path><path d="
M 262 286.73582436560713 C
273 305.78838324886476
295 305.78838324886476
306 286.73582436560713
" stroke="rgb(25,87,102)" stroke-width="5" fill-opacity="0.0"></path><path d="
M 262 286.73582436560713 C
273 305.78838324886476
262 324.8409421321224
240 324.8409421321224
" stroke="rgb(25,106,102)" stroke-width="5" fill-opacity="0.0"></path><path d="
M 262 286.73582436560713 C
281.05255888325763 319.73582436560713
289.89488223348474 324.8409421321224
328 324.8409421321224
" stroke="rgb(25,106,102)" stroke-width="5" fill-opacity="0.0"></path><path d="
M 262 286.73582436560713 C
284 324.84094213212245
284 324.84094213212245
306 362.9460598986377
" stroke="rgb(25,106,102)" stroke-width="5" fill-opacity="0.0"></path><path d="
M 262 286.73582436560713 C
281.05255888325763 319.73582436560713
281.05255888325763 329.9460598986377
262 362.9460598986377
" stroke="rgb(25,106,102)" stroke-width="5" fill-opacity="0.0"></path><path d="
M 218 286.73582436560713 C
198.94744111674237 319.73582436560713
190.1051177665153 324.8409421321224
152 324.8409421321224
" stroke="rgb(25,152,102)" stroke-width="5" fill-opacity="0.0"></path><path d="
M 218 286.73582436560713 C
207 305.78838324886476
218 324.8409421321224
240 324.8409421321224
" stroke="rgb(25,125,102)" stroke-width="5" fill-opacity="0.0"></path><path d="
M 218 286.73582436560713 C
196 324.84094213212245
196 324.84094213212245
174 362.9460598986377
" stroke="rgb(25,152,102)" stroke-width="5" fill-opacity="0.0"></path><path d="
M 372 248.6307065990918 C
333.8948822334847 248.6307065990918
325.05255888325763 253.73582436560713
306 286.73582436560713
" stroke="rgb(25,106,102)" stroke-width="5" fill-opacity="0.0"></path><path d="
M 372 248.6307065990918 C
416 248.6307065990918
416 248.6307065990918
460 248.6307065990918
" stroke="rgb(25,125,102)" stroke-width="5" fill-opacity="0.0"></path><path d="
M 372 248.6307065990918 C
410.1051177665153 248.6307065990918
418.94744111674237 253.73582436560713
438 286.73582436560713
" stroke="rgb(25,152,102)" stroke-width="5" fill-opacity="0.0"></path><path d="
M 350 286.73582436560713 C
361 305.78838324886476
383 305.78838324886476
394 286.73582436560713
" stroke="rgb(25,217,102)" stroke-width="5" fill-opacity="0.0"></path><path d="
M 350 286.73582436560713 C
361 305.78838324886476
350 324.8409421321224
328 324.8409421321224
" stroke="rgb(25,152,102)" stroke-width="5" fill-opacity="0.0"></path><path d="
M 350 286.73582436560713 C
369.05255888325763 319.73582436560713
377.89488223348474 324.8409421321224
416 324.8409421321224
" stroke="rgb(25,152,102)" stroke-width="5" fill-opacity="0.0"></path><path d="
M 350 286.73582436560713 C
372 324.84094213212245
372 324.84094213212245
394 362.9460598986377
" stroke="rgb(25,152,102)" stroke-width="5" fill-opacity="0.0"></path><path d="
M 306 286.73582436560713 C
295 305.78838324886476
306 324.8409421321224
328 324.8409421321224
" stroke="rgb(25,106,102)" stroke-width="5" fill-opacity="0.0"></path><path d="
M 306 286.73582436560713 C
284 324.84094213212245
284 324.84094213212245
262 362.9460598986377
" stroke="rgb(25,106,102)" stroke-width="5" fill-opacity="0.0"></path><path d="
M 460 248.6307065990918 C
438 248.6307065990918
427 267.6832654823495
438 286.73582436560713
" stroke="rgb(25,152,102)" stroke-width="5" fill-opacity="0.0"></path><path d="
M 438 286.73582436560713 C
427 267.6832654823495
405 267.6832654823495
394 286.73582436560713
" stroke="rgb(25,217,102)" stroke-width="5" fill-opacity="0.0"></path><path d="
M 438 286.73582436560713 C
457.05255888325763 319.73582436560713
465.89488223348474 324.8409421321224
504 324.8409421321224
" stroke="rgb(25,152,102)" stroke-width="5" fill-opacity="0.0"></path><path d="
M 438 286.73582436560713 C
460 324.84094213212245
460 324.84094213212245
482 362.9460598986377
" stroke="rgb(25,152,102)" stroke-width="5" fill-opacity="0.0"></path><path d="
M 438 286.73582436560713 C
457.05255888325763 319.73582436560713
457.05255888325763 329.9460598986377
438 362.9460598986377
" stroke="rgb(25,152,102)" stroke-width="5" fill-opacity="0.0"></path><path d="
M 394 286.73582436560713 C
372 324.84094213212245
372 324.84094213212245
350 362.9460598986377
" stroke="rgb(25,217,102)" stroke-width="5" fill-opacity="0.0"></path><path d="
M 64 324.8409421321224 C
25.894882233484694 324.8409421321224
17.052558883257653 329.9460598986377
-2 362.9460598986377
" stroke="rgb(25,106,102)" stroke-width="5" fill-opacity="0.0"></path><path d="
M 64 324.8409421321224 C
108 324.8409421321224
108 324.8409421321224
152 324.8409421321224
" stroke="rgb(25,152,102)" stroke-width="5" fill-opacity="0.0"></path><path d="
M 42 362.9460598986377 C
53 381.99861878189535
75 381.99861878189535
86 362.9460598986377
" stroke="rgb(25,106,102)" stroke-width="5" fill-opacity="0.0"></path><path d="
M 42 362.9460598986377 C
64 401.051177665153
64 401.051177665153
86 439.1562954316683
" stroke="rgb(25,106,102)" stroke-width="5" fill-opacity="0.0"></path><path d="
M 42 362.9460598986377 C
61.052558883257646 395.9460598986377
61.052558883257646 406.1562954316683
42 439.1562954316683
" stroke="rgb(25,106,102)" stroke-width="5" fill-opacity="0.0"></path><path d="
M 152 324.8409421321224 C
196 324.8409421321224
196 324.8409421321224
240 324.8409421321224
" stroke="rgb(25,152,102)" stroke-width="5" fill-opacity="0.0"></path><path d="
M 152 324.8409421321224 C
174 324.8409421321224
185 343.8935010153801
174 362.9460598986377
" stroke="rgb(25,179,102)" stroke-width="5" fill-opacity="0.0"></path><path d="
M 130 362.9460598986377 C
141 381.99861878189535
163 381.99861878189535
174 362.9460598986377
" stroke="rgb(25,152,102)" stroke-width="5" fill-opacity="0.0"></path><path d="
M 130 362.9460598986377 C
152 401.051177665153
152 401.051177665153
174 439.1562954316683
" stroke="rgb(25,125,102)" stroke-width="5" fill-opacity="0.0"></path><path d="
M 130 362.9460598986377 C
149.05255888325763 395.9460598986377
149.05255888325763 406.1562954316683
130 439.1562954316683
" stroke="rgb(25,152,102)" stroke-width="5" fill-opacity="0.0"></path><path d="
M 86 362.9460598986377 C
64 401.051177665153
64 401.051177665153
42 439.1562954316683
" stroke="rgb(25,125,102)" stroke-width="5" fill-opacity="0.0"></path><path d="
M 240 324.8409421321224 C
284 324.8409421321224
284 324.8409421321224
328 324.8409421321224
" stroke="rgb(25,125,102)" stroke-width="5" fill-opacity="0.0"></path><path d="
M 218 362.9460598986377 C
229 381.99861878189535
251 381.99861878189535
262 362.9460598986377
" stroke="rgb(25,152,102)" stroke-width="5" fill-opacity="0.0"></path><path d="
M 218 362.9460598986377 C
240 401.051177665153
240 401.051177665153
262 439.1562954316683
" stroke="rgb(25,152,102)" stroke-width="5" fill-opacity="0.0"></path><path d="
M 218 362.9460598986377 C
237.05255888325763 395.9460598986377
237.05255888325763 406.1562954316683
218 439.1562954316683
" stroke="rgb(25,152,102)" stroke-width="5" fill-opacity="0.0"></path><path d="
M 174 362.9460598986377 C
154.94744111674237 395.9460598986377
146.1051177665153 401.051177665153
108 401.051177665153
" stroke="rgb(25,179,102)" stroke-width="5" fill-opacity="0.0"></path><path d="
M 174 362.9460598986377 C
163 381.99861878189535
174 401.051177665153
196 401.051177665153
" stroke="rgb(25,217,102)" stroke-width="5" fill-opacity="0.0"></path><path d="
M 174 362.9460598986377 C
152 401.051177665153
152 401.051177665153
130 439.1562954316683
" stroke="rgb(25,179,102)" stroke-width="5" fill-opacity="0.0"></path><path d="
M 328 324.8409421321224 C
289.8948822334847 324.8409421321224
281.05255888325763 329.9460598986377
262 362.9460598986377
" stroke="rgb(25,125,102)" stroke-width="5" fill-opacity="0.0"></path><path d="
M 328 324.8409421321224 C
372 324.8409421321224
372 324.8409421321224
416 324.8409421321224
" stroke="rgb(25,125,102)" stroke-width="5" fill-opacity="0.0"></path><path d="
M 328 324.8409421321224 C
350 324.8409421321224
361 343.8935010153801
350 362.9460598986377
" stroke="rgb(25,152,102)" stroke-width="5" fill-opacity="0.0"></path><path d="
M 306 362.9460598986377 C
317 381.99861878189535
339 381.99861878189535
350 362.9460598986377
" stroke="rgb(25,152,102)" stroke-width="5" fill-opacity="0.0"></path><path d="
M 306 362.9460598986377 C
328 401.051177665153
328 401.051177665153
350 439.1562954316683
" stroke="rgb(25,125,102)" stroke-width="5" fill-opacity="0.0"></path><path d="
M 306 362.9460598986377 C
325.05255888325763 395.9460598986377
325.05255888325763 406.1562954316683
306 439.1562954316683
" stroke="rgb(25,125,102)" stroke-width="5" fill-opacity="0.0"></path><path d="
M 262 362.9460598986377 C
240 401.051177665153
240 401.051177665153
218 439.1562954316683
" stroke="rgb(25,125,102)" stroke-width="5" fill-opacity="0.0"></path><path d="
M 416 324.8409421321224 C
377.8948822334847 324.8409421321224
369.05255888325763 329.9460598986377
350 362.9460598986377
" stroke="rgb(25,152,102)" stroke-width="5" fill-opacity="0.0"></path><path d="
M 416 324.8409421321224 C
460 324.8409421321224
460 324.8409421321224
504 324.8409421321224
" stroke="rgb(25,125,102)" stroke-width="5" fill-opacity="0.0"></path><path d="
M 416 324.8409421321224 C
454.1051177665153 324.8409421321224
462.94744111674237 329.9460598986377
482 362.9460598986377
" stroke="rgb(25,125,102)" stroke-width="5" fill-opacity="0.0"></path><path d="
M 416 324.8409421321224 C
438 324.8409421321224
449 343.8935010153801
438 362.9460598986377
" stroke="rgb(25,125,102)" stroke-width="5" fill-opacity="0.0"></path><path d="
M 394 362.9460598986377 C
413.05255888325763 395.9460598986377
421.89488223348474 401.051177665153
460 401.051177665153
" stroke="rgb(25,106,102)" stroke-width="5" fill-opacity="0.0"></path><path d="
M 394 362.9460598986377 C
416 401.051177665153
416 401.051177665153
438 439.1562954316683
" stroke="rgb(25,106,102)" stroke-width="5" fill-opacity="0.0"></path><path d="
M 394 362.9460598986377 C
413.05255888325763 395.9460598986377
413.05255888325763 406.1562954316683
394 439.1562954316683
" stroke="rgb(25,106,102)" stroke-width="5" fill-opacity="0.0"></path><path d="
M 350 362.9460598986377 C
339 381.99861878189535
350 401.051177665153
372 401.051177665153
" stroke="rgb(25,152,102)" stroke-width="5" fill-opacity="0.0"></path><path d="
M 350 362.9460598986377 C
328 401.051177665153
328 401.051177665153
306 439.1562954316683
" stroke="rgb(25,152,102)" stroke-width="5" fill-opacity="0.0"></path><path d="
M 482 362.9460598986377 C
493 381.99861878189535
482 401.051177665153
460 401.051177665153
" stroke="rgb(25,106,102)" stroke-width="5" fill-opacity="0.0"></path><path d="
M 438 362.9460598986377 C
418.94744111674237 395.9460598986377
410.10511776651526 401.051177665153
372 401.051177665153
" stroke="rgb(25,125,102)" stroke-width="5" fill-opacity="0.0"></path><path d="
M 438 362.9460598986377 C
427 381.99861878189535
438 401.051177665153
460 401.051177665153
" stroke="rgb(25,106,102)" stroke-width="5" fill-opacity="0.0"></path><path d="
M 438 362.9460598986377 C
418.94744111674237 395.9460598986377
418.94744111674237 406.1562954316683
438 439.1562954316683
" stroke="rgb(25,106,102)" stroke-width="5" fill-opacity="0.0"></path><path d="
M 438 362.9460598986377 C
416 401.051177665153
416 401.051177665153
394 439.1562954316683
" stroke="rgb(25,106,102)" stroke-width="5" fill-opacity="0.0"></path><path d="
M 108 401.051177665153 C
85.99999999999999 401.051177665153
75 420.10373654841067
86 439.1562954316683
" stroke="rgb(25,152,102)" stroke-width="5" fill-opacity="0.0"></path><path d="
M 108 401.051177665153 C
69.8948822334847 401.051177665153
61.05255888325765 406.1562954316683
42 439.1562954316683
" stroke="rgb(25,152,102)" stroke-width="5" fill-opacity="0.0"></path><path d="
M 108 401.051177665153 C
152 401.051177665153
152 401.051177665153
196 401.051177665153
" stroke="rgb(25,217,102)" stroke-width="5" fill-opacity="0.0"></path><path d="
M 108 401.051177665153 C
146.10511776651532 401.051177665153
154.94744111674234 406.1562954316683
174 439.1562954316683
" stroke="rgb(25,152,102)" stroke-width="5" fill-opacity="0.0"></path><path d="
M 86 439.1562954316683 C
75 420.10373654841067
53 420.10373654841067
42 439.1562954316683
" stroke="rgb(25,125,102)" stroke-width="5" fill-opacity="0.0"></path><path d="
M 86 439.1562954316683 C
97 458.20885431492593
119 458.20885431492593
130 439.1562954316683
" stroke="rgb(25,152,102)" stroke-width="5" fill-opacity="0.0"></path><path d="
M 86 439.1562954316683 C
108 477.2614131981836
108 477.2614131981836
130 515.3665309646989
" stroke="rgb(25,125,102)" stroke-width="5" fill-opacity="0.0"></path><path d="
M 42 439.1562954316683 C
20.000000000000004 477.2614131981836
19.999999999999996 477.2614131981836
-2 515.3665309646989
" stroke="rgb(25,106,102)" stroke-width="5" fill-opacity="0.0"></path><path d="
M 196 401.051177665153 C
157.89488223348468 401.051177665153
149.05255888325766 406.1562954316683
130 439.1562954316683
" stroke="rgb(25,217,102)" stroke-width="5" fill-opacity="0.0"></path><path d="
M 196 401.051177665153 C
240 401.051177665153
240 401.051177665153
284 401.051177665153
" stroke="rgb(25,217,102)" stroke-width="5" fill-opacity="0.0"></path><path d="
M 174 439.1562954316683 C
163 420.10373654841067
141 420.10373654841067
130 439.1562954316683
" stroke="rgb(25,152,102)" stroke-width="5" fill-opacity="0.0"></path><path d="
M 174 439.1562954316683 C
185 458.20885431492593
207 458.20885431492593
218 439.1562954316683
" stroke="rgb(25,125,102)" stroke-width="5" fill-opacity="0.0"></path><path d="
M 174 439.1562954316683 C
185 458.20885431492593
174 477.26141319818356
152 477.26141319818356
" stroke="rgb(25,106,102)" stroke-width="5" fill-opacity="0.0"></path><path d="
M 174 439.1562954316683 C
193.05255888325763 472.1562954316683
201.8948822334847 477.26141319818356
240 477.26141319818356
" stroke="rgb(25,106,102)" stroke-width="5" fill-opacity="0.0"></path><path d="
M 174 439.1562954316683 C
196 477.2614131981836
196 477.2614131981836
218 515.3665309646989
" stroke="rgb(25,106,102)" stroke-width="5" fill-opacity="0.0"></path><path d="
M 130 439.1562954316683 C
110.94744111674235 472.1562954316683
102.10511776651529 477.26141319818356
64 477.26141319818356
" stroke="rgb(25,152,102)" stroke-width="5" fill-opacity="0.0"></path><path d="
M 130 439.1562954316683 C
110.94744111674235 472.1562954316683
110.94744111674235 482.3665309646989
130 515.3665309646989
" stroke="rgb(25,152,102)" stroke-width="5" fill-opacity="0.0"></path><path d="
M 130 439.1562954316683 C
108 477.2614131981836
108 477.2614131981836
86 515.3665309646989
" stroke="rgb(25,152,102)" stroke-width="5" fill-opacity="0.0"></path><path d="
M 284 401.051177665153 C
328 401.051177665153
328 401.051177665153
372 401.051177665153
" stroke="rgb(25,152,102)" stroke-width="5" fill-opacity="0.0"></path><path d="
M 284 401.051177665153 C
322.1051177665153 401.051177665153
330.94744111674237 406.1562954316683
350 439.1562954316683
" stroke="rgb(25,152,102)" stroke-width="5" fill-opacity="0.0"></path><path d="
M 284 401.051177665153 C
306 401.051177665153
317 420.10373654841067
306 439.1562954316683
" stroke="rgb(25,152,102)" stroke-width="5" fill-opacity="0.0"></path><path d="
M 262 439.1562954316683 C
273 458.20885431492593
295 458.20885431492593
306 439.1562954316683
" stroke="rgb(25,125,102)" stroke-width="5" fill-opacity="0.0"></path><path d="
M 262 439.1562954316683 C
273 458.20885431492593
262 477.26141319818356
240 477.26141319818356
" stroke="rgb(25,106,102)" stroke-width="5" fill-opacity="0.0"></path><path d="
M 262 439.1562954316683 C
281.05255888325763 472.1562954316683
289.89488223348474 477.26141319818356
328 477.26141319818356
" stroke="rgb(25,106,102)" stroke-width="5" fill-opacity="0.0"></path><path d="
M 262 439.1562954316683 C
284 477.2614131981836
284 477.2614131981836
306 515.3665309646989
" stroke="rgb(25,106,102)" stroke-width="5" fill-opacity="0.0"></path><path d="
M 262 439.1562954316683 C
281.05255888325763 472.1562954316683
281.05255888325763 482.3665309646989
262 515.3665309646989
" stroke="rgb(25,106,102)" stroke-width="5" fill-opacity="0.0"></path><path d="
M 218 439.1562954316683 C
207 458.20885431492593
218 477.26141319818356
240 477.26141319818356
" stroke="rgb(25,106,102)" stroke-width="5" fill-opacity="0.0"></path><path d="
M 218 439.1562954316683 C
196 477.2614131981836
196 477.2614131981836
174 515.3665309646989
" stroke="rgb(25,106,102)" stroke-width="5" fill-opacity="0.0"></path><path d="
M 372 401.051177665153 C
333.8948822334847 401.051177665153
325.05255888325763 406.1562954316683
306 439.1562954316683
" stroke="rgb(25,125,102)" stroke-width="5" fill-opacity="0.0"></path><path d="
M 372 401.051177665153 C
416 401.051177665153
416 401.051177665153
460 401.051177665153
" stroke="rgb(25,106,102)" stroke-width="5" fill-opacity="0.0"></path><path d="
M 350 439.1562954316683 C
361 458.20885431492593
383 458.20885431492593
394 439.1562954316683
" stroke="rgb(25,106,102)" stroke-width="5" fill-opacity="0.0"></path><path d="
M 350 439.1562954316683 C
361 458.20885431492593
350 477.26141319818356
328 477.26141319818356
" stroke="rgb(25,106,102)" stroke-width="5" fill-opacity="0.0"></path><path d="
M 350 439.1562954316683 C
369.05255888325763 472.1562954316683
377.89488223348474 477.26141319818356
416 477.26141319818356
" stroke="rgb(25,106,102)" stroke-width="5" fill-opacity="0.0"></path><path d="
M 350 439.1562954316683 C
372 477.2614131981836
372 477.2614131981836
394 515.3665309646989
" stroke="rgb(25,106,102)" stroke-width="5" fill-opacity="0.0"></path><path d="
M 306 439.1562954316683 C
286.94744111674237 472.1562954316683
278.10511776651526 477.26141319818356
240 477.26141319818356
" stroke="rgb(25,106,102)" stroke-width="5" fill-opacity="0.0"></path><path d="
M 306 439.1562954316683 C
284 477.2614131981836
284 477.2614131981836
262 515.3665309646989
" stroke="rgb(25,106,102)" stroke-width="5" fill-opacity="0.0"></path><path d="
M 460 401.051177665153 C
421.8948822334847 401.051177665153
413.05255888325763 406.1562954316683
394 439.1562954316683
" stroke="rgb(25,87,102)" stroke-width="5" fill-opacity="0.0"></path><path d="
M 438 439.1562954316683 C
427 420.10373654841067
405 420.10373654841067
394 439.1562954316683
" stroke="rgb(25,87,102)" stroke-width="5" fill-opacity="0.0"></path><path d="
M 438 439.1562954316683 C
460 477.2614131981836
460 477.2614131981836
482 515.3665309646989
" stroke="rgb(25,74,102)" stroke-width="5" fill-opacity="0.0"></path><path d="
M 394 439.1562954316683 C
374.94744111674237 472.1562954316683
366.10511776651526 477.26141319818356
328 477.26141319818356
" stroke="rgb(25,87,102)" stroke-width="5" fill-opacity="0.0"></path><path d="
M 394 439.1562954316683 C
383 458.20885431492593
394 477.26141319818356
416 477.26141319818356
" stroke="rgb(25,87,102)" stroke-width="5" fill-opacity="0.0"></path><path d="
M 394 439.1562954316683 C
372 477.2614131981836
372 477.2614131981836
350 515.3665309646989
" stroke="rgb(25,74,102)" stroke-width="5" fill-opacity="0.0"></path><path d="
M 64 477.26141319818356 C
108 477.26141319818356
108 477.26141319818356
152 477.26141319818356
" stroke="rgb(25,106,102)" stroke-width="5" fill-opacity="0.0"></path><path d="
M 64 477.26141319818356 C
86.00000000000001 477.26141319818356
97 496.31397208144125
86 515.3665309646989
" stroke="rgb(25,125,102)" stroke-width="5" fill-opacity="0.0"></path><path d="
M 42 515.3665309646989 C
31 496.31397208144125
9 496.31397208144125
-2 515.3665309646989
" stroke="rgb(25,74,102)" stroke-width="5" fill-opacity="0.0"></path><path d="
M 152 477.26141319818356 C
130 477.26141319818356
119 496.31397208144125
130 515.3665309646989
" stroke="rgb(25,106,102)" stroke-width="5" fill-opacity="0.0"></path><path d="
M 152 477.26141319818356 C
196 477.26141319818356
196 477.26141319818356
240 477.26141319818356
" stroke="rgb(25,87,102)" stroke-width="5" fill-opacity="0.0"></path><path d="
M 152 477.26141319818356 C
190.10511776651532 477.26141319818356
198.94744111674234 482.3665309646989
218 515.3665309646989
" stroke="rgb(25,87,102)" stroke-width="5" fill-opacity="0.0"></path><path d="
M 152 477.26141319818356 C
174 477.26141319818356
185 496.31397208144125
174 515.3665309646989
" stroke="rgb(25,87,102)" stroke-width="5" fill-opacity="0.0"></path><path d="
M 130 515.3665309646989 C
141 534.4190898479566
163 534.4190898479566
174 515.3665309646989
" stroke="rgb(25,106,102)" stroke-width="5" fill-opacity="0.0"></path><path d="
M 240 477.26141319818356 C
284 477.26141319818356
284 477.26141319818356
328 477.26141319818356
" stroke="rgb(25,87,102)" stroke-width="5" fill-opacity="0.0"></path><path d="
M 240 477.26141319818356 C
278.1051177665153 477.26141319818356
286.94744111674237 482.3665309646989
306 515.3665309646989
" stroke="rgb(25,87,102)" stroke-width="5" fill-opacity="0.0"></path><path d="
M 240 477.26141319818356 C
262 477.26141319818356
273 496.31397208144125
262 515.3665309646989
" stroke="rgb(25,87,102)" stroke-width="5" fill-opacity="0.0"></path><path d="
M 218 515.3665309646989 C
207 496.31397208144125
185 496.31397208144125
174 515.3665309646989
" stroke="rgb(25,87,102)" stroke-width="5" fill-opacity="0.0"></path><path d="
M 328 477.26141319818356 C
306 477.26141319818356
295 496.31397208144125
306 515.3665309646989
" stroke="rgb(25,87,102)" stroke-width="5" fill-opacity="0.0"></path><path d="
M 328 477.26141319818356 C
289.8948822334847 477.26141319818356
281.05255888325763 482.3665309646989
262 515.3665309646989
" stroke="rgb(25,87,102)" stroke-width="5" fill-opacity="0.0"></path><path d="
M 328 477.26141319818356 C
372 477.26141319818356
372 477.26141319818356
416 477.26141319818356
" stroke="rgb(25,87,102)" stroke-width="5" fill-opacity="0.0"></path><path d="
M 328 477.26141319818356 C
366.1051177665153 477.26141319818356
374.94744111674237 482.3665309646989
394 515.3665309646989
" stroke="rgb(25,87,102)" stroke-width="5" fill-opacity="0.0"></path><path d="
M 328 477.26141319818356 C
350 477.26141319818356
361 496.31397208144125
350 515.3665309646989
" stroke="rgb(25,74,102)" stroke-width="5" fill-opacity="0.0"></path><path d="
M 416 477.26141319818356 C
394 477.26141319818356
383 496.31397208144125
394 515.3665309646989
" stroke="rgb(25,87,102)" stroke-width="5" fill-opacity="0.0"></path><path d="
M 416 477.26141319818356 C
460 477.26141319818356
460 477.26141319818356
504 477.26141319818356
" stroke="rgb(25,74,102)" stroke-width="5" fill-opacity="0.0"></path><path d="
M 504 477.26141319818356 C
482 477.26141319818356
471 496.31397208144125
482 515.3665309646989
" stroke="rgb(25,61,102)" stroke-width="5" fill-opacity="0.0"></path><path d="
M 504 477.26141319818356 C
465.8948822334847 477.26141319818356
457.05255888325763 482.3665309646989
438 515.3665309646989
" stroke="rgb(25,52,102)" stroke-width="5" fill-opacity="0.0"></path><path d="
M 482 515.3665309646989 C
471 496.31397208144125
449 496.31397208144125
438 515.3665309646989
" stroke="rgb(25,52,102)" stroke-width="5" fill-opacity="0.0"></path><line x1="67" y1="20" x2="61" y2="20" stroke="rgb(184,0,61)" stroke-width="2"></line><line x1="43.5" y1="60.703193977868615" x2="40.5" y2="55.50704155516198" stroke="rgb(255,0,87)" stroke-width="2"></line><line x1="-3.5" y1="60.703193977868615" x2="-0.5" y2="55.50704155516198" stroke="rgb(184,0,61)" stroke-width="2"></line><line x1="155" y1="20" x2="149" y2="20" stroke="rgb(184,0,61)" stroke-width="2"></line><line x1="131.5" y1="60.703193977868615" x2="128.5" y2="55.50704155516198" stroke="rgb(255,0,87)" stroke-width="2"></line><line x1="84.5" y1="60.703193977868615" x2="87.5" y2="55.50704155516198" stroke="rgb(184,0,61)" stroke-width="2"></line><line x1="243" y1="20" x2="237" y2="20" stroke="rgb(129,0,43)" stroke-width="2"></line><line x1="219.5" y1="60.703193977868615" x2="216.5" y2="55.50704155516198" stroke="rgb(184,0,61)" stroke-width="2"></line><line x1="172.5" y1="60.703193977868615" x2="175.5" y2="55.50704155516198" stroke="rgb(255,0,87)" stroke-width="2"></line><line x1="331" y1="20" x2="325" y2="20" stroke="rgb(129,0,43)" stroke-width="2"></line><line x1="307.5" y1="60.703193977868615" x2="304.5" y2="55.50704155516198" stroke="rgb(184,0,61)" stroke-width="2"></line><line x1="260.5" y1="60.703193977868615" x2="263.5" y2="55.50704155516198" stroke="rgb(255,0,87)" stroke-width="2"></line><line x1="419" y1="20" x2="413" y2="20" stroke="rgb(129,0,43)" stroke-width="2"></line><line x1="395.5" y1="60.703193977868615" x2="392.5" y2="55.50704155516198" stroke="rgb(184,0,61)" stroke-width="2"></line><line x1="348.5" y1="60.703193977868615" x2="351.5" y2="55.50704155516198" stroke="rgb(184,0,61)" stroke-width="2"></line><line x1="507" y1="20" x2="501" y2="20" stroke="rgb(129,0,43)" stroke-width="2"></line><line x1="483.5" y1="60.703193977868615" x2="480.5" y2="55.50704155516198" stroke="rgb(129,0,43)" stroke-width="2"></line><line x1="436.5" y1="60.703193977868615" x2="439.5" y2="55.50704155516198" stroke="rgb(184,0,61)" stroke-width="2"></line><line x1="111" y1="96.2102355330306" x2="105" y2="96.2102355330306" stroke="rgb(255,0,87)" stroke-width="2"></line><line x1="87.5" y1="136.91342951089922" x2="84.5" y2="131.7172770881926" stroke="rgb(255,0,125)" stroke-width="2"></line><line x1="40.5" y1="136.91342951089922" x2="43.5" y2="131.7172770881926" stroke="rgb(255,0,87)" stroke-width="2"></line><line x1="199" y1="96.2102355330306" x2="193" y2="96.2102355330306" stroke="rgb(255,0,87)" stroke-width="2"></line><line x1="175.5" y1="136.91342951089922" x2="172.5" y2="131.7172770881926" stroke="rgb(255,0,125)" stroke-width="2"></line><line x1="128.5" y1="136.91342951089922" x2="131.5" y2="131.7172770881926" stroke="rgb(255,0,125)" stroke-width="2"></line><line x1="287" y1="96.2102355330306" x2="281" y2="96.2102355330306" stroke="rgb(184,0,61)" stroke-width="2"></line><line x1="263.5" y1="136.91342951089922" x2="260.5" y2="131.7172770881926" stroke="rgb(255,0,87)" stroke-width="2"></line><line x1="216.5" y1="136.91342951089922" x2="219.5" y2="131.7172770881926" stroke="rgb(255,0,125)" stroke-width="2"></line><line x1="375" y1="96.2102355330306" x2="369" y2="96.2102355330306" stroke="rgb(184,0,61)" stroke-width="2"></line><line x1="351.5" y1="136.91342951089922" x2="348.5" y2="131.7172770881926" stroke="rgb(255,0,87)" stroke-width="2"></line><line x1="304.5" y1="136.91342951089922" x2="307.5" y2="131.7172770881926" stroke="rgb(255,0,87)" stroke-width="2"></line><line x1="463" y1="96.2102355330306" x2="457" y2="96.2102355330306" stroke="rgb(184,0,61)" stroke-width="2"></line><line x1="439.5" y1="136.91342951089922" x2="436.5" y2="131.7172770881926" stroke="rgb(255,0,87)" stroke-width="2"></line><line x1="392.5" y1="136.91342951089922" x2="395.5" y2="131.7172770881926" stroke="rgb(255,0,87)" stroke-width="2"></line><line x1="67" y1="172.4204710660612" x2="61" y2="172.4204710660612" stroke="rgb(255,0,87)" stroke-width="2"></line><line x1="43.5" y1="213.1236650439298" x2="40.5" y2="207.92751262122317" stroke="rgb(255,0,125)" stroke-width="2"></line><line x1="-3.5" y1="213.1236650439298" x2="-0.5" y2="207.92751262122317" stroke="rgb(184,0,61)" stroke-width="2"></line><line x1="155" y1="172.4204710660612" x2="149" y2="172.4204710660612" stroke="rgb(255,0,125)" stroke-width="2"></line><line x1="131.5" y1="213.1236650439298" x2="128.5" y2="207.92751262122317" stroke="rgb(255,0,179)" stroke-width="2"></line><line x1="84.5" y1="213.1236650439298" x2="87.5" y2="207.92751262122317" stroke="rgb(255,0,125)" stroke-width="2"></line><line x1="243" y1="172.4204710660612" x2="237" y2="172.4204710660612" stroke="rgb(255,0,87)" stroke-width="2"></line><line x1="219.5" y1="213.1236650439298" x2="216.5" y2="207.92751262122317" stroke="rgb(255,0,125)" stroke-width="2"></line><line x1="172.5" y1="213.1236650439298" x2="175.5" y2="207.92751262122317" stroke="rgb(255,0,179)" stroke-width="2"></line><line x1="331" y1="172.4204710660612" x2="325" y2="172.4204710660612" stroke="rgb(255,0,87)" stroke-width="2"></line><line x1="307.5" y1="213.1236650439298" x2="304.5" y2="207.92751262122317" stroke="rgb(255,0,125)" stroke-width="2"></line><line x1="260.5" y1="213.1236650439298" x2="263.5" y2="207.92751262122317" stroke="rgb(255,0,87)" stroke-width="2"></line><line x1="419" y1="172.4204710660612" x2="413" y2="172.4204710660612" stroke="rgb(255,0,125)" stroke-width="2"></line><line x1="395.5" y1="213.1236650439298" x2="392.5" y2="207.92751262122317" stroke="rgb(255,0,125)" stroke-width="2"></line><line x1="348.5" y1="213.1236650439298" x2="351.5" y2="207.92751262122317" stroke="rgb(255,0,87)" stroke-width="2"></line><line x1="507" y1="172.4204710660612" x2="501" y2="172.4204710660612" stroke="rgb(255,0,87)" stroke-width="2"></line><line x1="483.5" y1="213.1236650439298" x2="480.5" y2="207.92751262122317" stroke="rgb(255,0,125)" stroke-width="2"></line><line x1="436.5" y1="213.1236650439298" x2="439.5" y2="207.92751262122317" stroke="rgb(255,0,179)" stroke-width="2"></line><line x1="111" y1="248.6307065990918" x2="105" y2="248.6307065990918" stroke="rgb(255,0,179)" stroke-width="2"></line><line x1="87.5" y1="289.33390057696045" x2="84.5" y2="284.1377481542538" stroke="rgb(255,0,125)" stroke-width="2"></line><line x1="40.5" y1="289.33390057696045" x2="43.5" y2="284.1377481542538" stroke="rgb(255,0,125)" stroke-width="2"></line><line x1="199" y1="248.6307065990918" x2="193" y2="248.6307065990918" stroke="rgb(255,0,125)" stroke-width="2"></line><line x1="175.5" y1="289.33390057696045" x2="172.5" y2="284.1377481542538" stroke="rgb(255,0,255)" stroke-width="2"></line><line x1="128.5" y1="289.33390057696045" x2="131.5" y2="284.1377481542538" stroke="rgb(255,0,179)" stroke-width="2"></line><line x1="287" y1="248.6307065990918" x2="281" y2="248.6307065990918" stroke="rgb(255,0,87)" stroke-width="2"></line><line x1="263.5" y1="289.33390057696045" x2="260.5" y2="284.1377481542538" stroke="rgb(255,0,87)" stroke-width="2"></line><line x1="216.5" y1="289.33390057696045" x2="219.5" y2="284.1377481542538" stroke="rgb(255,0,125)" stroke-width="2"></line><line x1="375" y1="248.6307065990918" x2="369" y2="248.6307065990918" stroke="rgb(255,0,125)" stroke-width="2"></line><line x1="351.5" y1="289.33390057696045" x2="348.5" y2="284.1377481542538" stroke="rgb(255,0,179)" stroke-width="2"></line><line x1="304.5" y1="289.33390057696045" x2="307.5" y2="284.1377481542538" stroke="rgb(255,0,87)" stroke-width="2"></line><line x1="463" y1="248.6307065990918" x2="457" y2="248.6307065990918" stroke="rgb(255,0,125)" stroke-width="2"></line><line x1="439.5" y1="289.33390057696045" x2="436.5" y2="284.1377481542538" stroke="rgb(255,0,179)" stroke-width="2"></line><line x1="392.5" y1="289.33390057696045" x2="395.5" y2="284.1377481542538" stroke="rgb(255,0,255)" stroke-width="2"></line><line x1="67" y1="324.8409421321224" x2="61" y2="324.8409421321224" stroke="rgb(255,0,125)" stroke-width="2"></line><line x1="43.5" y1="365.54413610999103" x2="40.5" y2="360.3479836872844" stroke="rgb(255,0,87)" stroke-width="2"></line><line x1="-3.5" y1="365.54413610999103" x2="-0.5" y2="360.3479836872844" stroke="rgb(255,0,87)" stroke-width="2"></line><line x1="155" y1="324.8409421321224" x2="149" y2="324.8409421321224" stroke="rgb(255,0,179)" stroke-width="2"></line><line x1="131.5" y1="365.54413610999103" x2="128.5" y2="360.3479836872844" stroke="rgb(255,0,125)" stroke-width="2"></line><line x1="84.5" y1="365.54413610999103" x2="87.5" y2="360.3479836872844" stroke="rgb(255,0,125)" stroke-width="2"></line><line x1="243" y1="324.8409421321224" x2="237" y2="324.8409421321224" stroke="rgb(255,0,125)" stroke-width="2"></line><line x1="219.5" y1="365.54413610999103" x2="216.5" y2="360.3479836872844" stroke="rgb(255,0,179)" stroke-width="2"></line><line x1="172.5" y1="365.54413610999103" x2="175.5" y2="360.3479836872844" stroke="rgb(255,0,179)" stroke-width="2"></line><line x1="331" y1="324.8409421321224" x2="325" y2="324.8409421321224" stroke="rgb(255,0,125)" stroke-width="2"></line><line x1="307.5" y1="365.54413610999103" x2="304.5" y2="360.3479836872844" stroke="rgb(255,0,125)" stroke-width="2"></line><line x1="260.5" y1="365.54413610999103" x2="263.5" y2="360.3479836872844" stroke="rgb(255,0,125)" stroke-width="2"></line><line x1="419" y1="324.8409421321224" x2="413" y2="324.8409421321224" stroke="rgb(255,0,125)" stroke-width="2"></line><line x1="395.5" y1="365.54413610999103" x2="392.5" y2="360.3479836872844" stroke="rgb(255,0,125)" stroke-width="2"></line><line x1="348.5" y1="365.54413610999103" x2="351.5" y2="360.3479836872844" stroke="rgb(255,0,179)" stroke-width="2"></line><line x1="507" y1="324.8409421321224" x2="501" y2="324.8409421321224" stroke="rgb(255,0,125)" stroke-width="2"></line><line x1="483.5" y1="365.54413610999103" x2="480.5" y2="360.3479836872844" stroke="rgb(255,0,125)" stroke-width="2"></line><line x1="436.5" y1="365.54413610999103" x2="439.5" y2="360.3479836872844" stroke="rgb(255,0,125)" stroke-width="2"></line><line x1="111" y1="401.051177665153" x2="105" y2="401.051177665153" stroke="rgb(255,0,179)" stroke-width="2"></line><line x1="87.5" y1="441.7543716430216" x2="84.5" y2="436.558219220315" stroke="rgb(255,0,125)" stroke-width="2"></line><line x1="40.5" y1="441.7543716430216" x2="43.5" y2="436.558219220315" stroke="rgb(255,0,125)" stroke-width="2"></line><line x1="199" y1="401.051177665153" x2="193" y2="401.051177665153" stroke="rgb(255,0,255)" stroke-width="2"></line><line x1="175.5" y1="441.7543716430216" x2="172.5" y2="436.558219220315" stroke="rgb(255,0,125)" stroke-width="2"></line><line x1="128.5" y1="441.7543716430216" x2="131.5" y2="436.558219220315" stroke="rgb(255,0,179)" stroke-width="2"></line><line x1="287" y1="401.051177665153" x2="281" y2="401.051177665153" stroke="rgb(255,0,179)" stroke-width="2"></line><line x1="263.5" y1="441.7543716430216" x2="260.5" y2="436.558219220315" stroke="rgb(255,0,125)" stroke-width="2"></line><line x1="216.5" y1="441.7543716430216" x2="219.5" y2="436.558219220315" stroke="rgb(255,0,125)" stroke-width="2"></line><line x1="375" y1="401.051177665153" x2="369" y2="401.051177665153" stroke="rgb(255,0,125)" stroke-width="2"></line><line x1="351.5" y1="441.7543716430216" x2="348.5" y2="436.558219220315" stroke="rgb(255,0,125)" stroke-width="2"></line><line x1="304.5" y1="441.7543716430216" x2="307.5" y2="436.558219220315" stroke="rgb(255,0,125)" stroke-width="2"></line><line x1="463" y1="401.051177665153" x2="457" y2="401.051177665153" stroke="rgb(255,0,87)" stroke-width="2"></line><line x1="439.5" y1="441.7543716430216" x2="436.5" y2="436.558219220315" stroke="rgb(255,0,87)" stroke-width="2"></line><line x1="392.5" y1="441.7543716430216" x2="395.5" y2="436.558219220315" stroke="rgb(255,0,87)" stroke-width="2"></line><line x1="67" y1="477.26141319818356" x2="61" y2="477.26141319818356" stroke="rgb(255,0,125)" stroke-width="2"></line><line x1="43.5" y1="517.9646071760521" x2="40.5" y2="512.7684547533456" stroke="rgb(184,0,61)" stroke-width="2"></line><line x1="-3.5" y1="517.9646071760521" x2="-0.5" y2="512.7684547533456" stroke="rgb(255,0,87)" stroke-width="2"></line><line x1="155" y1="477.26141319818356" x2="149" y2="477.26141319818356" stroke="rgb(255,0,87)" stroke-width="2"></line><line x1="131.5" y1="517.9646071760521" x2="128.5" y2="512.7684547533456" stroke="rgb(255,0,125)" stroke-width="2"></line><line x1="84.5" y1="517.9646071760521" x2="87.5" y2="512.7684547533456" stroke="rgb(255,0,125)" stroke-width="2"></line><line x1="243" y1="477.26141319818356" x2="237" y2="477.26141319818356" stroke="rgb(255,0,87)" stroke-width="2"></line><line x1="219.5" y1="517.9646071760521" x2="216.5" y2="512.7684547533456" stroke="rgb(255,0,87)" stroke-width="2"></line><line x1="172.5" y1="517.9646071760521" x2="175.5" y2="512.7684547533456" stroke="rgb(255,0,87)" stroke-width="2"></line><line x1="331" y1="477.26141319818356" x2="325" y2="477.26141319818356" stroke="rgb(255,0,87)" stroke-width="2"></line><line x1="307.5" y1="517.9646071760521" x2="304.5" y2="512.7684547533456" stroke="rgb(255,0,87)" stroke-width="2"></line><line x1="260.5" y1="517.9646071760521" x2="263.5" y2="512.7684547533456" stroke="rgb(255,0,87)" stroke-width="2"></line><line x1="419" y1="477.26141319818356" x2="413" y2="477.26141319818356" stroke="rgb(255,0,87)" stroke-width="2"></line><line x1="395.5" y1="517.9646071760521" x2="392.5" y2="512.7684547533456" stroke="rgb(255,0,87)" stroke-width="2"></line><line x1="348.5" y1="517.9646071760521" x2="351.5" y2="512.7684547533456" stroke="rgb(184,0,61)" stroke-width="2"></line><line x1="507" y1="477.26141319818356" x2="501" y2="477.26141319818356" stroke="rgb(184,0,61)" stroke-width="2"></line><line x1="483.5" y1="517.9646071760521" x2="480.5" y2="512.7684547533456" stroke="rgb(184,0,61)" stroke-width="2"></line><line x1="436.5" y1="517.9646071760521" x2="439.5" y2="512.7684547533456" stroke="rgb(129,0,43)" stroke-width="2"></line></svg>
