<svg xmlns="http://www.w3.org/2000/svg" version="1.1"><path d="
M 86 20 C
119 20
69.5 105.73651497465943
53 77.15767664977295
" stroke="#000" stroke-width="5" fill-opacity="0.0"></path><path d="
M 86 20 C
119 20
36.5 48.578838324886476
53 77.15767664977295
" stroke="#000" stroke-width="5" fill-opacity="0.0"></path><path d="
M 86 20 C
53 20
69.5 105.73651497465943
53 77.15767664977295
" stroke="#000" stroke-width="5" fill-opacity="0.0"></path><path d="
M 86 20 C
53 20
36.5 48.578838324886476
53 77.15767664977295
" stroke="#000" stroke-width="5" fill-opacity="0.0"></path><path d="
M 86 20 C
28.842323350227048 20
15.578838324886476 27.657676649772952
-13 77.15767664977295
" stroke="#000" stroke-width="5" fill-opacity="0.0"></path><path d="
M 86 20 C
152 20
152 20
218 20
" stroke="#000" stroke-width="5" fill-opacity="0.0"></path><path d="
M 86 20 C
143.15767664977295 20
156.42116167511352 27.657676649772952
185 77.15767664977295
" stroke="#000" stroke-width="5" fill-opacity="0.0"></path><path d="
M 86 20 C
119 20
102.5 105.73651497465943
119 77.15767664977295
" stroke="#000" stroke-width="5" fill-opacity="0.0"></path><path d="
M 86 20 C
119 20
135.5 48.578838324886476
119 77.15767664977295
" stroke="#000" stroke-width="5" fill-opacity="0.0"></path><path d="
M 86 20 C
53 20
102.5 105.73651497465943
119 77.15767664977295
" stroke="#000" stroke-width="5" fill-opacity="0.0"></path><path d="
M 86 20 C
53 20
135.5 48.578838324886476
119 77.15767664977295
" stroke="#000" stroke-width="5" fill-opacity="0.0"></path><path d="
M 53 77.15767664977295 C
69.5 105.73651497465943
-29.5 105.73651497465943
-13 77.15767664977295
" stroke="#000" stroke-width="5" fill-opacity="0.0"></path><path d="
M 53 77.15767664977295 C
69.5 105.73651497465943
3.5 48.578838324886476
-13 77.15767664977295
" stroke="#000" stroke-width="5" fill-opacity="0.0"></path><path d="
M 53 77.15767664977295 C
36.5 48.578838324886476
-29.5 105.73651497465943
-13 77.15767664977295
" stroke="#000" stroke-width="5" fill-opacity="0.0"></path><path d="
M 53 77.15767664977295 C
36.5 48.578838324886476
3.5 48.578838324886476
-13 77.15767664977295
" stroke="#000" stroke-width="5" fill-opacity="0.0"></path><path d="
M 53 77.15767664977295 C
69.5 105.73651497465943
102.5 105.73651497465943
119 77.15767664977295
" stroke="#000" stroke-width="5" fill-opacity="0.0"></path><path d="
M 53 77.15767664977295 C
69.5 105.73651497465943
135.5 48.578838324886476
119 77.15767664977295
" stroke="#000" stroke-width="5" fill-opacity="0.0"></path><path d="
M 53 77.15767664977295 C
36.5 48.578838324886476
102.5 105.73651497465943
119 77.15767664977295
" stroke="#000" stroke-width="5" fill-opacity="0.0"></path><path d="
M 53 77.15767664977295 C
36.5 48.578838324886476
135.5 48.578838324886476
119 77.15767664977295
" stroke="#000" stroke-width="5" fill-opacity="0.0"></path><path d="
M 53 77.15767664977295 C
81.57883832488648 126.65767664977295
94.84232335022705 134.3153532995459
152 134.3153532995459
" stroke="#000" stroke-width="5" fill-opacity="0.0"></path><path d="
M 53 77.15767664977295 C
86 134.3153532995459
86 134.3153532995459
119 191.47302994931886
" stroke="#000" stroke-width="5" fill-opacity="0.0"></path><path d="
M 53 77.15767664977295 C
81.57883832488648 126.65767664977295
81.57883832488648 141.97302994931886
53 191.47302994931886
" stroke="#000" stroke-width="5" fill-opacity="0.0"></path><path d="
M 218 20 C
251 20
201.5 105.73651497465943
185 77.15767664977295
" stroke="#000" stroke-width="5" fill-opacity="0.0"></path><path d="
M 218 20 C
251 20
168.5 48.578838324886476
185 77.15767664977295
" stroke="#000" stroke-width="5" fill-opacity="0.0"></path><path d="
M 218 20 C
185 20
201.5 105.73651497465943
185 77.15767664977295
" stroke="#000" stroke-width="5" fill-opacity="0.0"></path><path d="
M 218 20 C
185 20
168.5 48.578838324886476
185 77.15767664977295
" stroke="#000" stroke-width="5" fill-opacity="0.0"></path><path d="
M 218 20 C
160.84232335022705 20
147.57883832488648 27.657676649772952
119 77.15767664977295
" stroke="#000" stroke-width="5" fill-opacity="0.0"></path><path d="
M 218 20 C
284 20
284 20
350 20
" stroke="#000" stroke-width="5" fill-opacity="0.0"></path><path d="
M 218 20 C
275.15767664977295 20
288.4211616751135 27.657676649772952
317 77.15767664977295
" stroke="#000" stroke-width="5" fill-opacity="0.0"></path><path d="
M 218 20 C
251 20
234.5 105.73651497465943
251 77.15767664977295
" stroke="#000" stroke-width="5" fill-opacity="0.0"></path><path d="
M 218 20 C
251 20
267.5 48.578838324886476
251 77.15767664977295
" stroke="#000" stroke-width="5" fill-opacity="0.0"></path><path d="
M 218 20 C
185 20
234.5 105.73651497465943
251 77.15767664977295
" stroke="#000" stroke-width="5" fill-opacity="0.0"></path><path d="
M 218 20 C
185 20
267.5 48.578838324886476
251 77.15767664977295
" stroke="#000" stroke-width="5" fill-opacity="0.0"></path><path d="
M 185 77.15767664977295 C
201.5 105.73651497465943
102.5 105.73651497465943
119 77.15767664977295
" stroke="#000" stroke-width="5" fill-opacity="0.0"></path><path d="
M 185 77.15767664977295 C
201.5 105.73651497465943
135.5 48.578838324886476
119 77.15767664977295
" stroke="#000" stroke-width="5" fill-opacity="0.0"></path><path d="
M 185 77.15767664977295 C
168.5 48.578838324886476
102.5 105.73651497465943
119 77.15767664977295
" stroke="#000" stroke-width="5" fill-opacity="0.0"></path><path d="
M 185 77.15767664977295 C
168.5 48.578838324886476
135.5 48.578838324886476
119 77.15767664977295
" stroke="#000" stroke-width="5" fill-opacity="0.0"></path><path d="
M 185 77.15767664977295 C
201.5 105.73651497465943
234.5 105.73651497465943
251 77.15767664977295
" stroke="#000" stroke-width="5" fill-opacity="0.0"></path><path d="
M 185 77.15767664977295 C
201.5 105.73651497465943
267.5 48.578838324886476
251 77.15767664977295
" stroke="#000" stroke-width="5" fill-opacity="0.0"></path><path d="
M 185 77.15767664977295 C
168.5 48.578838324886476
234.5 105.73651497465943
251 77.15767664977295
" stroke="#000" stroke-width="5" fill-opacity="0.0"></path><path d="
M 185 77.15767664977295 C
168.5 48.578838324886476
267.5 48.578838324886476
251 77.15767664977295
" stroke="#000" stroke-width="5" fill-opacity="0.0"></path><path d="
M 185 77.15767664977295 C
201.5 105.73651497465943
185 134.3153532995459
152 134.3153532995459
" stroke="#000" stroke-width="5" fill-opacity="0.0"></path><path d="
M 185 77.15767664977295 C
201.5 105.73651497465943
119 134.3153532995459
152 134.3153532995459
" stroke="#000" stroke-width="5" fill-opacity="0.0"></path><path d="
M 185 77.15767664977295 C
168.5 48.578838324886476
185 134.3153532995459
152 134.3153532995459
" stroke="#000" stroke-width="5" fill-opacity="0.0"></path><path d="
M 185 77.15767664977295 C
168.5 48.578838324886476
119 134.3153532995459
152 134.3153532995459
" stroke="#000" stroke-width="5" fill-opacity="0.0"></path><path d="
M 185 77.15767664977295 C
213.57883832488648 126.65767664977295
226.84232335022705 134.3153532995459
284 134.3153532995459
" stroke="#000" stroke-width="5" fill-opacity="0.0"></path><path d="
M 185 77.15767664977295 C
218 134.3153532995459
218 134.3153532995459
251 191.47302994931886
" stroke="#000" stroke-width="5" fill-opacity="0.0"></path><path d="
M 185 77.15767664977295 C
213.57883832488648 126.65767664977295
213.57883832488648 141.97302994931886
185 191.47302994931886
" stroke="#000" stroke-width="5" fill-opacity="0.0"></path><path d="
M 119 77.15767664977295 C
102.5 105.73651497465943
185 134.3153532995459
152 134.3153532995459
" stroke="#000" stroke-width="5" fill-opacity="0.0"></path><path d="
M 119 77.15767664977295 C
102.5 105.73651497465943
119 134.3153532995459
152 134.3153532995459
" stroke="#000" stroke-width="5" fill-opacity="0.0"></path><path d="
M 119 77.15767664977295 C
135.5 48.578838324886476
185 134.3153532995459
152 134.3153532995459
" stroke="#000" stroke-width="5" fill-opacity="0.0"></path><path d="
M 119 77.15767664977295 C
135.5 48.578838324886476
119 134.3153532995459
152 134.3153532995459
" stroke="#000" stroke-width="5" fill-opacity="0.0"></path><path d="
M 119 77.15767664977295 C
90.42116167511352 126.65767664977295
90.42116167511352 141.97302994931886
119 191.47302994931886
" stroke="#000" stroke-width="5" fill-opacity="0.0"></path><path d="
M 119 77.15767664977295 C
86 134.3153532995459
86 134.3153532995459
53 191.47302994931886
" stroke="#000" stroke-width="5" fill-opacity="0.0"></path><path d="
M 350 20 C
383 20
333.5 105.73651497465943
317 77.15767664977295
" stroke="#000" stroke-width="5" fill-opacity="0.0"></path><path d="
M 350 20 C
383 20
300.5 48.578838324886476
317 77.15767664977295
" stroke="#000" stroke-width="5" fill-opacity="0.0"></path><path d="
M 350 20 C
317 20
333.5 105.73651497465943
317 77.15767664977295
" stroke="#000" stroke-width="5" fill-opacity="0.0"></path><path d="
M 350 20 C
317 20
300.5 48.578838324886476
317 77.15767664977295
" stroke="#000" stroke-width="5" fill-opacity="0.0"></path><path d="
M 350 20 C
292.84232335022705 20
279.5788383248865 27.657676649772952
251 77.15767664977295
" stroke="#000" stroke-width="5" fill-opacity="0.0"></path><path d="
M 350 20 C
416 20
416 20
482 20
" stroke="#000" stroke-width="5" fill-opacity="0.0"></path><path d="
M 350 20 C
407.15767664977295 20
420.4211616751135 27.657676649772952
449 77.15767664977295
" stroke="#000" stroke-width="5" fill-opacity="0.0"></path><path d="
M 350 20 C
383 20
366.5 105.73651497465943
383 77.15767664977295
" stroke="#000" stroke-width="5" fill-opacity="0.0"></path><path d="
M 350 20 C
383 20
399.5 48.578838324886476
383 77.15767664977295
" stroke="#000" stroke-width="5" fill-opacity="0.0"></path><path d="
M 350 20 C
317 20
366.5 105.73651497465943
383 77.15767664977295
" stroke="#000" stroke-width="5" fill-opacity="0.0"></path><path d="
M 350 20 C
317 20
399.5 48.578838324886476
383 77.15767664977295
" stroke="#000" stroke-width="5" fill-opacity="0.0"></path><path d="
M 317 77.15767664977295 C
333.5 105.73651497465943
234.5 105.73651497465943
251 77.15767664977295
" stroke="#000" stroke-width="5" fill-opacity="0.0"></path><path d="
M 317 77.15767664977295 C
333.5 105.73651497465943
267.5 48.578838324886476
251 77.15767664977295
" stroke="#000" stroke-width="5" fill-opacity="0.0"></path><path d="
M 317 77.15767664977295 C
300.5 48.578838324886476
234.5 105.73651497465943
251 77.15767664977295
" stroke="#000" stroke-width="5" fill-opacity="0.0"></path><path d="
M 317 77.15767664977295 C
300.5 48.578838324886476
267.5 48.578838324886476
251 77.15767664977295
" stroke="#000" stroke-width="5" fill-opacity="0.0"></path><path d="
M 317 77.15767664977295 C
333.5 105.73651497465943
366.5 105.73651497465943
383 77.15767664977295
" stroke="#000" stroke-width="5" fill-opacity="0.0"></path><path d="
M 317 77.15767664977295 C
333.5 105.73651497465943
399.5 48.578838324886476
383 77.15767664977295
" stroke="#000" stroke-width="5" fill-opacity="0.0"></path><path d="
M 317 77.15767664977295 C
300.5 48.578838324886476
366.5 105.73651497465943
383 77.15767664977295
" stroke="#000" stroke-width="5" fill-opacity="0.0"></path><path d="
M 317 77.15767664977295 C
300.5 48.578838324886476
399.5 48.578838324886476
383 77.15767664977295
" stroke="#000" stroke-width="5" fill-opacity="0.0"></path><path d="
M 317 77.15767664977295 C
333.5 105.73651497465943
317 134.3153532995459
284 134.3153532995459
" stroke="#000" stroke-width="5" fill-opacity="0.0"></path><path d="
M 317 77.15767664977295 C
333.5 105.73651497465943
251 134.3153532995459
284 134.3153532995459
" stroke="#000" stroke-width="5" fill-opacity="0.0"></path><path d="
M 317 77.15767664977295 C
300.5 48.578838324886476
317 134.3153532995459
284 134.3153532995459
" stroke="#000" stroke-width="5" fill-opacity="0.0"></path><path d="
M 317 77.15767664977295 C
300.5 48.578838324886476
251 134.3153532995459
284 134.3153532995459
" stroke="#000" stroke-width="5" fill-opacity="0.0"></path><path d="
M 317 77.15767664977295 C
345.5788383248865 126.65767664977295
358.84232335022705 134.3153532995459
416 134.3153532995459
" stroke="#000" stroke-width="5" fill-opacity="0.0"></path><path d="
M 317 77.15767664977295 C
350 134.3153532995459
350 134.3153532995459
383 191.47302994931886
" stroke="#000" stroke-width="5" fill-opacity="0.0"></path><path d="
M 317 77.15767664977295 C
345.5788383248865 126.65767664977295
345.5788383248865 141.97302994931886
317 191.47302994931886
" stroke="#000" stroke-width="5" fill-opacity="0.0"></path><path d="
M 251 77.15767664977295 C
222.42116167511352 126.65767664977295
209.15767664977295 134.3153532995459
152 134.3153532995459
" stroke="#000" stroke-width="5" fill-opacity="0.0"></path><path d="
M 251 77.15767664977295 C
234.5 105.73651497465943
317 134.3153532995459
284 134.3153532995459
" stroke="#000" stroke-width="5" fill-opacity="0.0"></path><path d="
M 251 77.15767664977295 C
234.5 105.73651497465943
251 134.3153532995459
284 134.3153532995459
" stroke="#000" stroke-width="5" fill-opacity="0.0"></path><path d="
M 251 77.15767664977295 C
267.5 48.578838324886476
317 134.3153532995459
284 134.3153532995459
" stroke="#000" stroke-width="5" fill-opacity="0.0"></path><path d="
M 251 77.15767664977295 C
267.5 48.578838324886476
251 134.3153532995459
284 134.3153532995459
" stroke="#000" stroke-width="5" fill-opacity="0.0"></path><path d="
M 251 77.15767664977295 C
222.42116167511352 126.65767664977295
222.42116167511352 141.97302994931886
251 191.47302994931886
" stroke="#000" stroke-width="5" fill-opacity="0.0"></path><path d="
M 251 77.15767664977295 C
218 134.3153532995459
218 134.3153532995459
185 191.47302994931886
" stroke="#000" stroke-width="5" fill-opacity="0.0"></path><path d="
M 482 20 C
515 20
465.5 105.73651497465943
449 77.15767664977295
" stroke="#000" stroke-width="5" fill-opacity="0.0"></path><path d="
M 482 20 C
515 20
432.5 48.578838324886476
449 77.15767664977295
" stroke="#000" stroke-width="5" fill-opacity="0.0"></path><path d="
M 482 20 C
449 20
465.5 105.73651497465943
449 77.15767664977295
" stroke="#000" stroke-width="5" fill-opacity="0.0"></path><path d="
M 482 20 C
449 20
432.5 48.578838324886476
449 77.15767664977295
" stroke="#000" stroke-width="5" fill-opacity="0.0"></path><path d="
M 482 20 C
424.84232335022705 20
411.5788383248865 27.657676649772952
383 77.15767664977295
" stroke="#000" stroke-width="5" fill-opacity="0.0"></path><path d="
M 449 77.15767664977295 C
465.5 105.73651497465943
366.5 105.73651497465943
383 77.15767664977295
" stroke="#000" stroke-width="5" fill-opacity="0.0"></path><path d="
M 449 77.15767664977295 C
465.5 105.73651497465943
399.5 48.578838324886476
383 77.15767664977295
" stroke="#000" stroke-width="5" fill-opacity="0.0"></path><path d="
M 449 77.15767664977295 C
432.5 48.578838324886476
366.5 105.73651497465943
383 77.15767664977295
" stroke="#000" stroke-width="5" fill-opacity="0.0"></path><path d="
M 449 77.15767664977295 C
432.5 48.578838324886476
399.5 48.578838324886476
383 77.15767664977295
" stroke="#000" stroke-width="5" fill-opacity="0.0"></path><path d="
M 449 77.15767664977295 C
465.5 105.73651497465943
449 134.3153532995459
416 134.3153532995459
" stroke="#000" stroke-width="5" fill-opacity="0.0"></path><path d="
M 449 77.15767664977295 C
465.5 105.73651497465943
383 134.3153532995459
416 134.3153532995459
" stroke="#000" stroke-width="5" fill-opacity="0.0"></path><path d="
M 449 77.15767664977295 C
432.5 48.578838324886476
449 134.3153532995459
416 134.3153532995459
" stroke="#000" stroke-width="5" fill-opacity="0.0"></path><path d="
M 449 77.15767664977295 C
432.5 48.578838324886476
383 134.3153532995459
416 134.3153532995459
" stroke="#000" stroke-width="5" fill-opacity="0.0"></path><path d="
M 449 77.15767664977295 C
477.5788383248865 126.65767664977295
490.84232335022705 134.3153532995459
548 134.3153532995459
" stroke="#000" stroke-width="5" fill-opacity="0.0"></path><path d="
M 449 77.15767664977295 C
482 134.3153532995459
482 134.3153532995459
515 191.47302994931886
" stroke="#000" stroke-width="5" fill-opacity="0.0"></path><path d="
M 449 77.15767664977295 C
477.5788383248865 126.65767664977295
477.5788383248865 141.97302994931886
449 191.47302994931886
" stroke="#000" stroke-width="5" fill-opacity="0.0"></path><path d="
M 383 77.15767664977295 C
354.4211616751135 126.65767664977295
341.15767664977295 134.3153532995459
284 134.3153532995459
" stroke="#000" stroke-width="5" fill-opacity="0.0"></path><path d="
M 383 77.15767664977295 C
366.5 105.73651497465943
449 134.3153532995459
416 134.3153532995459
" stroke="#000" stroke-width="5" fill-opacity="0.0"></path><path d="
M 383 77.15767664977295 C
366.5 105.73651497465943
383 134.3153532995459
416 134.3153532995459
" stroke="#000" stroke-width="5" fill-opacity="0.0"></path><path d="
M 383 77.15767664977295 C
399.5 48.578838324886476
449 134.3153532995459
416 134.3153532995459
" stroke="#000" stroke-width="5" fill-opacity="0.0"></path><path d="
M 383 77.15767664977295 C
399.5 48.578838324886476
383 134.3153532995459
416 134.3153532995459
" stroke="#000" stroke-width="5" fill-opacity="0.0"></path><path d="
M 383 77.15767664977295 C
354.4211616751135 126.65767664977295
354.4211616751135 141.97302994931886
383 191.47302994931886
" stroke="#000" stroke-width="5" fill-opacity="0.0"></path><path d="
M 383 77.15767664977295 C
350 134.3153532995459
350 134.3153532995459
317 191.47302994931886
" stroke="#000" stroke-width="5" fill-opacity="0.0"></path><path d="
M 152 134.3153532995459 C
185 134.3153532995459
135.5 220.05186827420533
119 191.47302994931886
" stroke="#000" stroke-width="5" fill-opacity="0.0"></path><path d="
M 152 134.3153532995459 C
185 134.3153532995459
102.5 162.89419162443238
119 191.47302994931886
" stroke="#000" stroke-width="5" fill-opacity="0.0"></path><path d="
M 152 134.3153532995459 C
119 134.3153532995459
135.5 220.05186827420533
119 191.47302994931886
" stroke="#000" stroke-width="5" fill-opacity="0.0"></path><path d="
M 152 134.3153532995459 C
119 134.3153532995459
102.5 162.89419162443238
119 191.47302994931886
" stroke="#000" stroke-width="5" fill-opacity="0.0"></path><path d="
M 152 134.3153532995459 C
94.84232335022705 134.3153532995459
81.57883832488648 141.97302994931886
53 191.47302994931886
" stroke="#000" stroke-width="5" fill-opacity="0.0"></path><path d="
M 152 134.3153532995459 C
218 134.3153532995459
218 134.3153532995459
284 134.3153532995459
" stroke="#000" stroke-width="5" fill-opacity="0.0"></path><path d="
M 152 134.3153532995459 C
209.15767664977295 134.3153532995459
222.42116167511352 141.97302994931886
251 191.47302994931886
" stroke="#000" stroke-width="5" fill-opacity="0.0"></path><path d="
M 152 134.3153532995459 C
185 134.3153532995459
168.5 220.05186827420533
185 191.47302994931886
" stroke="#000" stroke-width="5" fill-opacity="0.0"></path><path d="
M 152 134.3153532995459 C
185 134.3153532995459
201.5 162.89419162443238
185 191.47302994931886
" stroke="#000" stroke-width="5" fill-opacity="0.0"></path><path d="
M 152 134.3153532995459 C
119 134.3153532995459
168.5 220.05186827420533
185 191.47302994931886
" stroke="#000" stroke-width="5" fill-opacity="0.0"></path><path d="
M 152 134.3153532995459 C
119 134.3153532995459
201.5 162.89419162443238
185 191.47302994931886
" stroke="#000" stroke-width="5" fill-opacity="0.0"></path><path d="
M 119 191.47302994931886 C
135.5 220.05186827420533
36.5 220.05186827420533
53 191.47302994931886
" stroke="#000" stroke-width="5" fill-opacity="0.0"></path><path d="
M 119 191.47302994931886 C
135.5 220.05186827420533
69.5 162.89419162443238
53 191.47302994931886
" stroke="#000" stroke-width="5" fill-opacity="0.0"></path><path d="
M 119 191.47302994931886 C
102.5 162.89419162443238
36.5 220.05186827420533
53 191.47302994931886
" stroke="#000" stroke-width="5" fill-opacity="0.0"></path><path d="
M 119 191.47302994931886 C
102.5 162.89419162443238
69.5 162.89419162443238
53 191.47302994931886
" stroke="#000" stroke-width="5" fill-opacity="0.0"></path><path d="
M 119 191.47302994931886 C
135.5 220.05186827420533
168.5 220.05186827420533
185 191.47302994931886
" stroke="#000" stroke-width="5" fill-opacity="0.0"></path><path d="
M 119 191.47302994931886 C
135.5 220.05186827420533
201.5 162.89419162443238
185 191.47302994931886
" stroke="#000" stroke-width="5" fill-opacity="0.0"></path><path d="
M 119 191.47302994931886 C
102.5 162.89419162443238
168.5 220.05186827420533
185 191.47302994931886
" stroke="#000" stroke-width="5" fill-opacity="0.0"></path><path d="
M 119 191.47302994931886 C
102.5 162.89419162443238
201.5 162.89419162443238
185 191.47302994931886
" stroke="#000" stroke-width="5" fill-opacity="0.0"></path><path d="
M 119 191.47302994931886 C
135.5 220.05186827420533
119 248.6307065990918
86 248.6307065990918
" stroke="#000" stroke-width="5" fill-opacity="0.0"></path><path d="
M 119 191.47302994931886 C
135.5 220.05186827420533
53 248.6307065990918
86 248.6307065990918
" stroke="#000" stroke-width="5" fill-opacity="0.0"></path><path d="
M 119 191.47302994931886 C
102.5 162.89419162443238
119 248.6307065990918
86 248.6307065990918
" stroke="#000" stroke-width="5" fill-opacity="0.0"></path><path d="
M 119 191.47302994931886 C
102.5 162.89419162443238
53 248.6307065990918
86 248.6307065990918
" stroke="#000" stroke-width="5" fill-opacity="0.0"></path><path d="
M 119 191.47302994931886 C
147.57883832488648 240.97302994931886
160.84232335022705 248.6307065990918
218 248.6307065990918
" stroke="#000" stroke-width="5" fill-opacity="0.0"></path><path d="
M 119 191.47302994931886 C
152 248.6307065990918
152 248.6307065990918
185 305.78838324886476
" stroke="#000" stroke-width="5" fill-opacity="0.0"></path><path d="
M 119 191.47302994931886 C
147.57883832488648 240.97302994931886
147.57883832488648 256.28838324886476
119 305.78838324886476
" stroke="#000" stroke-width="5" fill-opacity="0.0"></path><path d="
M 53 191.47302994931886 C
36.5 220.05186827420533
119 248.6307065990918
86 248.6307065990918
" stroke="#000" stroke-width="5" fill-opacity="0.0"></path><path d="
M 53 191.47302994931886 C
36.5 220.05186827420533
53 248.6307065990918
86 248.6307065990918
" stroke="#000" stroke-width="5" fill-opacity="0.0"></path><path d="
M 53 191.47302994931886 C
69.5 162.89419162443238
119 248.6307065990918
86 248.6307065990918
" stroke="#000" stroke-width="5" fill-opacity="0.0"></path><path d="
M 53 191.47302994931886 C
69.5 162.89419162443238
53 248.6307065990918
86 248.6307065990918
" stroke="#000" stroke-width="5" fill-opacity="0.0"></path><path d="
M 53 191.47302994931886 C
24.421161675113524 240.97302994931886
24.421161675113524 256.28838324886476
53 305.78838324886476
" stroke="#000" stroke-width="5" fill-opacity="0.0"></path><path d="
M 53 191.47302994931886 C
20 248.6307065990918
20 248.6307065990918
-13 305.78838324886476
" stroke="#000" stroke-width="5" fill-opacity="0.0"></path><path d="
M 284 134.3153532995459 C
317 134.3153532995459
267.5 220.05186827420533
251 191.47302994931886
" stroke="#000" stroke-width="5" fill-opacity="0.0"></path><path d="
M 284 134.3153532995459 C
317 134.3153532995459
234.5 162.89419162443238
251 191.47302994931886
" stroke="#000" stroke-width="5" fill-opacity="0.0"></path><path d="
M 284 134.3153532995459 C
251 134.3153532995459
267.5 220.05186827420533
251 191.47302994931886
" stroke="#000" stroke-width="5" fill-opacity="0.0"></path><path d="
M 284 134.3153532995459 C
251 134.3153532995459
234.5 162.89419162443238
251 191.47302994931886
" stroke="#000" stroke-width="5" fill-opacity="0.0"></path><path d="
M 284 134.3153532995459 C
226.84232335022705 134.3153532995459
213.57883832488648 141.97302994931886
185 191.47302994931886
" stroke="#000" stroke-width="5" fill-opacity="0.0"></path><path d="
M 284 134.3153532995459 C
350 134.3153532995459
350 134.3153532995459
416 134.3153532995459
" stroke="#000" stroke-width="5" fill-opacity="0.0"></path><path d="
M 284 134.3153532995459 C
341.15767664977295 134.3153532995459
354.4211616751135 141.97302994931886
383 191.47302994931886
" stroke="#000" stroke-width="5" fill-opacity="0.0"></path><path d="
M 284 134.3153532995459 C
317 134.3153532995459
300.5 220.05186827420533
317 191.47302994931886
" stroke="#000" stroke-width="5" fill-opacity="0.0"></path><path d="
M 284 134.3153532995459 C
317 134.3153532995459
333.5 162.89419162443238
317 191.47302994931886
" stroke="#000" stroke-width="5" fill-opacity="0.0"></path><path d="
M 284 134.3153532995459 C
251 134.3153532995459
300.5 220.05186827420533
317 191.47302994931886
" stroke="#000" stroke-width="5" fill-opacity="0.0"></path><path d="
M 284 134.3153532995459 C
251 134.3153532995459
333.5 162.89419162443238
317 191.47302994931886
" stroke="#000" stroke-width="5" fill-opacity="0.0"></path><path d="
M 251 191.47302994931886 C
267.5 220.05186827420533
168.5 220.05186827420533
185 191.47302994931886
" stroke="#000" stroke-width="5" fill-opacity="0.0"></path><path d="
M 251 191.47302994931886 C
267.5 220.05186827420533
201.5 162.89419162443238
185 191.47302994931886
" stroke="#000" stroke-width="5" fill-opacity="0.0"></path><path d="
M 251 191.47302994931886 C
234.5 162.89419162443238
168.5 220.05186827420533
185 191.47302994931886
" stroke="#000" stroke-width="5" fill-opacity="0.0"></path><path d="
M 251 191.47302994931886 C
234.5 162.89419162443238
201.5 162.89419162443238
185 191.47302994931886
" stroke="#000" stroke-width="5" fill-opacity="0.0"></path><path d="
M 251 191.47302994931886 C
267.5 220.05186827420533
300.5 220.05186827420533
317 191.47302994931886
" stroke="#000" stroke-width="5" fill-opacity="0.0"></path><path d="
M 251 191.47302994931886 C
267.5 220.05186827420533
333.5 162.89419162443238
317 191.47302994931886
" stroke="#000" stroke-width="5" fill-opacity="0.0"></path><path d="
M 251 191.47302994931886 C
234.5 162.89419162443238
300.5 220.05186827420533
317 191.47302994931886
" stroke="#000" stroke-width="5" fill-opacity="0.0"></path><path d="
M 251 191.47302994931886 C
234.5 162.89419162443238
333.5 162.89419162443238
317 191.47302994931886
" stroke="#000" stroke-width="5" fill-opacity="0.0"></path><path d="
M 251 191.47302994931886 C
267.5 220.05186827420533
251 248.6307065990918
218 248.6307065990918
" stroke="#000" stroke-width="5" fill-opacity="0.0"></path><path d="
M 251 191.47302994931886 C
267.5 220.05186827420533
185 248.6307065990918
218 248.6307065990918
" stroke="#000" stroke-width="5" fill-opacity="0.0"></path><path d="
M 251 191.47302994931886 C
234.5 162.89419162443238
251 248.6307065990918
218 248.6307065990918
" stroke="#000" stroke-width="5" fill-opacity="0.0"></path><path d="
M 251 191.47302994931886 C
234.5 162.89419162443238
185 248.6307065990918
218 248.6307065990918
" stroke="#000" stroke-width="5" fill-opacity="0.0"></path><path d="
M 251 191.47302994931886 C
279.5788383248865 240.97302994931886
292.84232335022705 248.6307065990918
350 248.6307065990918
" stroke="#000" stroke-width="5" fill-opacity="0.0"></path><path d="
M 251 191.47302994931886 C
284 248.6307065990918
284 248.6307065990918
317 305.78838324886476
" stroke="#000" stroke-width="5" fill-opacity="0.0"></path><path d="
M 251 191.47302994931886 C
279.5788383248865 240.97302994931886
279.5788383248865 256.28838324886476
251 305.78838324886476
" stroke="#000" stroke-width="5" fill-opacity="0.0"></path><path d="
M 185 191.47302994931886 C
156.42116167511352 240.97302994931886
143.15767664977295 248.6307065990918
86 248.6307065990918
" stroke="#000" stroke-width="5" fill-opacity="0.0"></path><path d="
M 185 191.47302994931886 C
168.5 220.05186827420533
251 248.6307065990918
218 248.6307065990918
" stroke="#000" stroke-width="5" fill-opacity="0.0"></path><path d="
M 185 191.47302994931886 C
168.5 220.05186827420533
185 248.6307065990918
218 248.6307065990918
" stroke="#000" stroke-width="5" fill-opacity="0.0"></path><path d="
M 185 191.47302994931886 C
201.5 162.89419162443238
251 248.6307065990918
218 248.6307065990918
" stroke="#000" stroke-width="5" fill-opacity="0.0"></path><path d="
M 185 191.47302994931886 C
201.5 162.89419162443238
185 248.6307065990918
218 248.6307065990918
" stroke="#000" stroke-width="5" fill-opacity="0.0"></path><path d="
M 185 191.47302994931886 C
156.42116167511352 240.97302994931886
156.42116167511352 256.28838324886476
185 305.78838324886476
" stroke="#000" stroke-width="5" fill-opacity="0.0"></path><path d="
M 185 191.47302994931886 C
152 248.6307065990918
152 248.6307065990918
119 305.78838324886476
" stroke="#000" stroke-width="5" fill-opacity="0.0"></path><path d="
M 416 134.3153532995459 C
449 134.3153532995459
399.5 220.05186827420533
383 191.47302994931886
" stroke="#000" stroke-width="5" fill-opacity="0.0"></path><path d="
M 416 134.3153532995459 C
449 134.3153532995459
366.5 162.89419162443238
383 191.47302994931886
" stroke="#000" stroke-width="5" fill-opacity="0.0"></path><path d="
M 416 134.3153532995459 C
383 134.3153532995459
399.5 220.05186827420533
383 191.47302994931886
" stroke="#000" stroke-width="5" fill-opacity="0.0"></path><path d="
M 416 134.3153532995459 C
383 134.3153532995459
366.5 162.89419162443238
383 191.47302994931886
" stroke="#000" stroke-width="5" fill-opacity="0.0"></path><path d="
M 416 134.3153532995459 C
358.84232335022705 134.3153532995459
345.5788383248865 141.97302994931886
317 191.47302994931886
" stroke="#000" stroke-width="5" fill-opacity="0.0"></path><path d="
M 416 134.3153532995459 C
482 134.3153532995459
482 134.3153532995459
548 134.3153532995459
" stroke="#000" stroke-width="5" fill-opacity="0.0"></path><path d="
M 416 134.3153532995459 C
473.15767664977295 134.3153532995459
486.4211616751135 141.97302994931886
515 191.47302994931886
" stroke="#000" stroke-width="5" fill-opacity="0.0"></path><path d="
M 416 134.3153532995459 C
449 134.3153532995459
432.5 220.05186827420533
449 191.47302994931886
" stroke="#000" stroke-width="5" fill-opacity="0.0"></path><path d="
M 416 134.3153532995459 C
449 134.3153532995459
465.5 162.89419162443238
449 191.47302994931886
" stroke="#000" stroke-width="5" fill-opacity="0.0"></path><path d="
M 416 134.3153532995459 C
383 134.3153532995459
432.5 220.05186827420533
449 191.47302994931886
" stroke="#000" stroke-width="5" fill-opacity="0.0"></path><path d="
M 416 134.3153532995459 C
383 134.3153532995459
465.5 162.89419162443238
449 191.47302994931886
" stroke="#000" stroke-width="5" fill-opacity="0.0"></path><path d="
M 383 191.47302994931886 C
399.5 220.05186827420533
300.5 220.05186827420533
317 191.47302994931886
" stroke="#000" stroke-width="5" fill-opacity="0.0"></path><path d="
M 383 191.47302994931886 C
399.5 220.05186827420533
333.5 162.89419162443238
317 191.47302994931886
" stroke="#000" stroke-width="5" fill-opacity="0.0"></path><path d="
M 383 191.47302994931886 C
366.5 162.89419162443238
300.5 220.05186827420533
317 191.47302994931886
" stroke="#000" stroke-width="5" fill-opacity="0.0"></path><path d="
M 383 191.47302994931886 C
366.5 162.89419162443238
333.5 162.89419162443238
317 191.47302994931886
" stroke="#000" stroke-width="5" fill-opacity="0.0"></path><path d="
M 383 191.47302994931886 C
399.5 220.05186827420533
432.5 220.05186827420533
449 191.47302994931886
" stroke="#000" stroke-width="5" fill-opacity="0.0"></path><path d="
M 383 191.47302994931886 C
399.5 220.05186827420533
465.5 162.89419162443238
449 191.47302994931886
" stroke="#000" stroke-width="5" fill-opacity="0.0"></path><path d="
M 383 191.47302994931886 C
366.5 162.89419162443238
432.5 220.05186827420533
449 191.47302994931886
" stroke="#000" stroke-width="5" fill-opacity="0.0"></path><path d="
M 383 191.47302994931886 C
366.5 162.89419162443238
465.5 162.89419162443238
449 191.47302994931886
" stroke="#000" stroke-width="5" fill-opacity="0.0"></path><path d="
M 383 191.47302994931886 C
399.5 220.05186827420533
383 248.6307065990918
350 248.6307065990918
" stroke="#000" stroke-width="5" fill-opacity="0.0"></path><path d="
M 383 191.47302994931886 C
399.5 220.05186827420533
317 248.6307065990918
350 248.6307065990918
" stroke="#000" stroke-width="5" fill-opacity="0.0"></path><path d="
M 383 191.47302994931886 C
366.5 162.89419162443238
383 248.6307065990918
350 248.6307065990918
" stroke="#000" stroke-width="5" fill-opacity="0.0"></path><path d="
M 383 191.47302994931886 C
366.5 162.89419162443238
317 248.6307065990918
350 248.6307065990918
" stroke="#000" stroke-width="5" fill-opacity="0.0"></path><path d="
M 383 191.47302994931886 C
411.5788383248865 240.97302994931886
424.84232335022705 248.6307065990918
482 248.6307065990918
" stroke="#000" stroke-width="5" fill-opacity="0.0"></path><path d="
M 383 191.47302994931886 C
416 248.6307065990918
416 248.6307065990918
449 305.78838324886476
" stroke="#000" stroke-width="5" fill-opacity="0.0"></path><path d="
M 383 191.47302994931886 C
411.5788383248865 240.97302994931886
411.5788383248865 256.28838324886476
383 305.78838324886476
" stroke="#000" stroke-width="5" fill-opacity="0.0"></path><path d="
M 317 191.47302994931886 C
288.4211616751135 240.97302994931886
275.15767664977295 248.6307065990918
218 248.6307065990918
" stroke="#000" stroke-width="5" fill-opacity="0.0"></path><path d="
M 317 191.47302994931886 C
300.5 220.05186827420533
383 248.6307065990918
350 248.6307065990918
" stroke="#000" stroke-width="5" fill-opacity="0.0"></path><path d="
M 317 191.47302994931886 C
300.5 220.05186827420533
317 248.6307065990918
350 248.6307065990918
" stroke="#000" stroke-width="5" fill-opacity="0.0"></path><path d="
M 317 191.47302994931886 C
333.5 162.89419162443238
383 248.6307065990918
350 248.6307065990918
" stroke="#000" stroke-width="5" fill-opacity="0.0"></path><path d="
M 317 191.47302994931886 C
333.5 162.89419162443238
317 248.6307065990918
350 248.6307065990918
" stroke="#000" stroke-width="5" fill-opacity="0.0"></path><path d="
M 317 191.47302994931886 C
288.4211616751135 240.97302994931886
288.4211616751135 256.28838324886476
317 305.78838324886476
" stroke="#000" stroke-width="5" fill-opacity="0.0"></path><path d="
M 317 191.47302994931886 C
284 248.6307065990918
284 248.6307065990918
251 305.78838324886476
" stroke="#000" stroke-width="5" fill-opacity="0.0"></path><path d="
M 548 134.3153532995459 C
581 134.3153532995459
531.5 220.05186827420533
515 191.47302994931886
" stroke="#000" stroke-width="5" fill-opacity="0.0"></path><path d="
M 548 134.3153532995459 C
581 134.3153532995459
498.5 162.89419162443238
515 191.47302994931886
" stroke="#000" stroke-width="5" fill-opacity="0.0"></path><path d="
M 548 134.3153532995459 C
515 134.3153532995459
531.5 220.05186827420533
515 191.47302994931886
" stroke="#000" stroke-width="5" fill-opacity="0.0"></path><path d="
M 548 134.3153532995459 C
515 134.3153532995459
498.5 162.89419162443238
515 191.47302994931886
" stroke="#000" stroke-width="5" fill-opacity="0.0"></path><path d="
M 548 134.3153532995459 C
490.84232335022705 134.3153532995459
477.5788383248865 141.97302994931886
449 191.47302994931886
" stroke="#000" stroke-width="5" fill-opacity="0.0"></path><path d="
M 515 191.47302994931886 C
531.5 220.05186827420533
432.5 220.05186827420533
449 191.47302994931886
" stroke="#000" stroke-width="5" fill-opacity="0.0"></path><path d="
M 515 191.47302994931886 C
531.5 220.05186827420533
465.5 162.89419162443238
449 191.47302994931886
" stroke="#000" stroke-width="5" fill-opacity="0.0"></path><path d="
M 515 191.47302994931886 C
498.5 162.89419162443238
432.5 220.05186827420533
449 191.47302994931886
" stroke="#000" stroke-width="5" fill-opacity="0.0"></path><path d="
M 515 191.47302994931886 C
498.5 162.89419162443238
465.5 162.89419162443238
449 191.47302994931886
" stroke="#000" stroke-width="5" fill-opacity="0.0"></path><path d="
M 515 191.47302994931886 C
531.5 220.05186827420533
515 248.6307065990918
482 248.6307065990918
" stroke="#000" stroke-width="5" fill-opacity="0.0"></path><path d="
M 515 191.47302994931886 C
531.5 220.05186827420533
449 248.6307065990918
482 248.6307065990918
" stroke="#000" stroke-width="5" fill-opacity="0.0"></path><path d="
M 515 191.47302994931886 C
498.5 162.89419162443238
515 248.6307065990918
482 248.6307065990918
" stroke="#000" stroke-width="5" fill-opacity="0.0"></path><path d="
M 515 191.47302994931886 C
498.5 162.89419162443238
449 248.6307065990918
482 248.6307065990918
" stroke="#000" stroke-width="5" fill-opacity="0.0"></path><path d="
M 449 191.47302994931886 C
420.4211616751135 240.97302994931886
407.15767664977295 248.6307065990918
350 248.6307065990918
" stroke="#000" stroke-width="5" fill-opacity="0.0"></path><path d="
M 449 191.47302994931886 C
432.5 220.05186827420533
515 248.6307065990918
482 248.6307065990918
" stroke="#000" stroke-width="5" fill-opacity="0.0"></path><path d="
M 449 191.47302994931886 C
432.5 220.05186827420533
449 248.6307065990918
482 248.6307065990918
" stroke="#000" stroke-width="5" fill-opacity="0.0"></path><path d="
M 449 191.47302994931886 C
465.5 162.89419162443238
515 248.6307065990918
482 248.6307065990918
" stroke="#000" stroke-width="5" fill-opacity="0.0"></path><path d="
M 449 191.47302994931886 C
465.5 162.89419162443238
449 248.6307065990918
482 248.6307065990918
" stroke="#000" stroke-width="5" fill-opacity="0.0"></path><path d="
M 449 191.47302994931886 C
420.4211616751135 240.97302994931886
420.4211616751135 256.28838324886476
449 305.78838324886476
" stroke="#000" stroke-width="5" fill-opacity="0.0"></path><path d="
M 449 191.47302994931886 C
416 248.6307065990918
416 248.6307065990918
383 305.78838324886476
" stroke="#000" stroke-width="5" fill-opacity="0.0"></path><path d="
M 86 248.6307065990918 C
119 248.6307065990918
69.5 334.36722157375124
53 305.78838324886476
" stroke="#000" stroke-width="5" fill-opacity="0.0"></path><path d="
M 86 248.6307065990918 C
119 248.6307065990918
36.5 277.2095449239783
53 305.78838324886476
" stroke="#000" stroke-width="5" fill-opacity="0.0"></path><path d="
M 86 248.6307065990918 C
53 248.6307065990918
69.5 334.36722157375124
53 305.78838324886476
" stroke="#000" stroke-width="5" fill-opacity="0.0"></path><path d="
M 86 248.6307065990918 C
53 248.6307065990918
36.5 277.2095449239783
53 305.78838324886476
" stroke="#000" stroke-width="5" fill-opacity="0.0"></path><path d="
M 86 248.6307065990918 C
28.842323350227048 248.6307065990918
15.578838324886476 256.28838324886476
-13 305.78838324886476
" stroke="#000" stroke-width="5" fill-opacity="0.0"></path><path d="
M 86 248.6307065990918 C
152 248.6307065990918
152 248.6307065990918
218 248.6307065990918
" stroke="#000" stroke-width="5" fill-opacity="0.0"></path><path d="
M 86 248.6307065990918 C
143.15767664977295 248.6307065990918
156.42116167511352 256.28838324886476
185 305.78838324886476
" stroke="#000" stroke-width="5" fill-opacity="0.0"></path><path d="
M 86 248.6307065990918 C
119 248.6307065990918
102.5 334.36722157375124
119 305.78838324886476
" stroke="#000" stroke-width="5" fill-opacity="0.0"></path><path d="
M 86 248.6307065990918 C
119 248.6307065990918
135.5 277.2095449239783
119 305.78838324886476
" stroke="#000" stroke-width="5" fill-opacity="0.0"></path><path d="
M 86 248.6307065990918 C
53 248.6307065990918
102.5 334.36722157375124
119 305.78838324886476
" stroke="#000" stroke-width="5" fill-opacity="0.0"></path><path d="
M 86 248.6307065990918 C
53 248.6307065990918
135.5 277.2095449239783
119 305.78838324886476
" stroke="#000" stroke-width="5" fill-opacity="0.0"></path><path d="
M 53 305.78838324886476 C
69.5 334.36722157375124
-29.5 334.36722157375124
-13 305.78838324886476
" stroke="#000" stroke-width="5" fill-opacity="0.0"></path><path d="
M 53 305.78838324886476 C
69.5 334.36722157375124
3.5 277.2095449239783
-13 305.78838324886476
" stroke="#000" stroke-width="5" fill-opacity="0.0"></path><path d="
M 53 305.78838324886476 C
36.5 277.2095449239783
-29.5 334.36722157375124
-13 305.78838324886476
" stroke="#000" stroke-width="5" fill-opacity="0.0"></path><path d="
M 53 305.78838324886476 C
36.5 277.2095449239783
3.5 277.2095449239783
-13 305.78838324886476
" stroke="#000" stroke-width="5" fill-opacity="0.0"></path><path d="
M 53 305.78838324886476 C
69.5 334.36722157375124
102.5 334.36722157375124
119 305.78838324886476
" stroke="#000" stroke-width="5" fill-opacity="0.0"></path><path d="
M 53 305.78838324886476 C
69.5 334.36722157375124
135.5 277.2095449239783
119 305.78838324886476
" stroke="#000" stroke-width="5" fill-opacity="0.0"></path><path d="
M 53 305.78838324886476 C
36.5 277.2095449239783
102.5 334.36722157375124
119 305.78838324886476
" stroke="#000" stroke-width="5" fill-opacity="0.0"></path><path d="
M 53 305.78838324886476 C
36.5 277.2095449239783
135.5 277.2095449239783
119 305.78838324886476
" stroke="#000" stroke-width="5" fill-opacity="0.0"></path><path d="
M 53 305.78838324886476 C
81.57883832488648 355.28838324886476
94.84232335022705 362.9460598986377
152 362.9460598986377
" stroke="#000" stroke-width="5" fill-opacity="0.0"></path><path d="
M 53 305.78838324886476 C
86 362.9460598986377
86 362.9460598986377
119 420.10373654841067
" stroke="#000" stroke-width="5" fill-opacity="0.0"></path><path d="
M 53 305.78838324886476 C
81.57883832488648 355.28838324886476
81.57883832488648 370.60373654841067
53 420.10373654841067
" stroke="#000" stroke-width="5" fill-opacity="0.0"></path><path d="
M 218 248.6307065990918 C
251 248.6307065990918
201.5 334.36722157375124
185 305.78838324886476
" stroke="#000" stroke-width="5" fill-opacity="0.0"></path><path d="
M 218 248.6307065990918 C
251 248.6307065990918
168.5 277.2095449239783
185 305.78838324886476
" stroke="#000" stroke-width="5" fill-opacity="0.0"></path><path d="
M 218 248.6307065990918 C
185 248.6307065990918
201.5 334.36722157375124
185 305.78838324886476
" stroke="#000" stroke-width="5" fill-opacity="0.0"></path><path d="
M 218 248.6307065990918 C
185 248.6307065990918
168.5 277.2095449239783
185 305.78838324886476
" stroke="#000" stroke-width="5" fill-opacity="0.0"></path><path d="
M 218 248.6307065990918 C
160.84232335022705 248.6307065990918
147.57883832488648 256.28838324886476
119 305.78838324886476
" stroke="#000" stroke-width="5" fill-opacity="0.0"></path><path d="
M 218 248.6307065990918 C
284 248.6307065990918
284 248.6307065990918
350 248.6307065990918
" stroke="#000" stroke-width="5" fill-opacity="0.0"></path><path d="
M 218 248.6307065990918 C
275.15767664977295 248.6307065990918
288.4211616751135 256.28838324886476
317 305.78838324886476
" stroke="#000" stroke-width="5" fill-opacity="0.0"></path><path d="
M 218 248.6307065990918 C
251 248.6307065990918
234.5 334.36722157375124
251 305.78838324886476
" stroke="#000" stroke-width="5" fill-opacity="0.0"></path><path d="
M 218 248.6307065990918 C
251 248.6307065990918
267.5 277.2095449239783
251 305.78838324886476
" stroke="#000" stroke-width="5" fill-opacity="0.0"></path><path d="
M 218 248.6307065990918 C
185 248.6307065990918
234.5 334.36722157375124
251 305.78838324886476
" stroke="#000" stroke-width="5" fill-opacity="0.0"></path><path d="
M 218 248.6307065990918 C
185 248.6307065990918
267.5 277.2095449239783
251 305.78838324886476
" stroke="#000" stroke-width="5" fill-opacity="0.0"></path><path d="
M 185 305.78838324886476 C
201.5 334.36722157375124
102.5 334.36722157375124
119 305.78838324886476
" stroke="#000" stroke-width="5" fill-opacity="0.0"></path><path d="
M 185 305.78838324886476 C
201.5 334.36722157375124
135.5 277.2095449239783
119 305.78838324886476
" stroke="#000" stroke-width="5" fill-opacity="0.0"></path><path d="
M 185 305.78838324886476 C
168.5 277.2095449239783
102.5 334.36722157375124
119 305.78838324886476
" stroke="#000" stroke-width="5" fill-opacity="0.0"></path><path d="
M 185 305.78838324886476 C
168.5 277.2095449239783
135.5 277.2095449239783
119 305.78838324886476
" stroke="#000" stroke-width="5" fill-opacity="0.0"></path><path d="
M 185 305.78838324886476 C
201.5 334.36722157375124
234.5 334.36722157375124
251 305.78838324886476
" stroke="#000" stroke-width="5" fill-opacity="0.0"></path><path d="
M 185 305.78838324886476 C
201.5 334.36722157375124
267.5 277.2095449239783
251 305.78838324886476
" stroke="#000" stroke-width="5" fill-opacity="0.0"></path><path d="
M 185 305.78838324886476 C
168.5 277.2095449239783
234.5 334.36722157375124
251 305.78838324886476
" stroke="#000" stroke-width="5" fill-opacity="0.0"></path><path d="
M 185 305.78838324886476 C
168.5 277.2095449239783
267.5 277.2095449239783
251 305.78838324886476
" stroke="#000" stroke-width="5" fill-opacity="0.0"></path><path d="
M 185 305.78838324886476 C
201.5 334.36722157375124
185 362.9460598986377
152 362.9460598986377
" stroke="#000" stroke-width="5" fill-opacity="0.0"></path><path d="
M 185 305.78838324886476 C
201.5 334.36722157375124
119 362.9460598986377
152 362.9460598986377
" stroke="#000" stroke-width="5" fill-opacity="0.0"></path><path d="
M 185 305.78838324886476 C
168.5 277.2095449239783
185 362.9460598986377
152 362.9460598986377
" stroke="#000" stroke-width="5" fill-opacity="0.0"></path><path d="
M 185 305.78838324886476 C
168.5 277.2095449239783
119 362.9460598986377
152 362.9460598986377
" stroke="#000" stroke-width="5" fill-opacity="0.0"></path><path d="
M 185 305.78838324886476 C
213.57883832488648 355.28838324886476
226.84232335022705 362.9460598986377
284 362.9460598986377
" stroke="#000" stroke-width="5" fill-opacity="0.0"></path><path d="
M 185 305.78838324886476 C
218 362.9460598986377
218 362.9460598986377
251 420.10373654841067
" stroke="#000" stroke-width="5" fill-opacity="0.0"></path><path d="
M 185 305.78838324886476 C
213.57883832488648 355.28838324886476
213.57883832488648 370.60373654841067
185 420.10373654841067
" stroke="#000" stroke-width="5" fill-opacity="0.0"></path><path d="
M 119 305.78838324886476 C
102.5 334.36722157375124
185 362.9460598986377
152 362.9460598986377
" stroke="#000" stroke-width="5" fill-opacity="0.0"></path><path d="
M 119 305.78838324886476 C
102.5 334.36722157375124
119 362.9460598986377
152 362.9460598986377
" stroke="#000" stroke-width="5" fill-opacity="0.0"></path><path d="
M 119 305.78838324886476 C
135.5 277.2095449239783
185 362.9460598986377
152 362.9460598986377
" stroke="#000" stroke-width="5" fill-opacity="0.0"></path><path d="
M 119 305.78838324886476 C
135.5 277.2095449239783
119 362.9460598986377
152 362.9460598986377
" stroke="#000" stroke-width="5" fill-opacity="0.0"></path><path d="
M 119 305.78838324886476 C
90.42116167511352 355.28838324886476
90.42116167511352 370.60373654841067
119 420.10373654841067
" stroke="#000" stroke-width="5" fill-opacity="0.0"></path><path d="
M 119 305.78838324886476 C
86 362.9460598986377
86 362.9460598986377
53 420.10373654841067
" stroke="#000" stroke-width="5" fill-opacity="0.0"></path><path d="
M 350 248.6307065990918 C
383 248.6307065990918
333.5 334.36722157375124
317 305.78838324886476
" stroke="#000" stroke-width="5" fill-opacity="0.0"></path><path d="
M 350 248.6307065990918 C
383 248.6307065990918
300.5 277.2095449239783
317 305.78838324886476
" stroke="#000" stroke-width="5" fill-opacity="0.0"></path><path d="
M 350 248.6307065990918 C
317 248.6307065990918
333.5 334.36722157375124
317 305.78838324886476
" stroke="#000" stroke-width="5" fill-opacity="0.0"></path><path d="
M 350 248.6307065990918 C
317 248.6307065990918
300.5 277.2095449239783
317 305.78838324886476
" stroke="#000" stroke-width="5" fill-opacity="0.0"></path><path d="
M 350 248.6307065990918 C
292.84232335022705 248.6307065990918
279.5788383248865 256.28838324886476
251 305.78838324886476
" stroke="#000" stroke-width="5" fill-opacity="0.0"></path><path d="
M 350 248.6307065990918 C
416 248.6307065990918
416 248.6307065990918
482 248.6307065990918
" stroke="#000" stroke-width="5" fill-opacity="0.0"></path><path d="
M 350 248.6307065990918 C
407.15767664977295 248.6307065990918
420.4211616751135 256.28838324886476
449 305.78838324886476
" stroke="#000" stroke-width="5" fill-opacity="0.0"></path><path d="
M 350 248.6307065990918 C
383 248.6307065990918
366.5 334.36722157375124
383 305.78838324886476
" stroke="#000" stroke-width="5" fill-opacity="0.0"></path><path d="
M 350 248.6307065990918 C
383 248.6307065990918
399.5 277.2095449239783
383 305.78838324886476
" stroke="#000" stroke-width="5" fill-opacity="0.0"></path><path d="
M 350 248.6307065990918 C
317 248.6307065990918
366.5 334.36722157375124
383 305.78838324886476
" stroke="#000" stroke-width="5" fill-opacity="0.0"></path><path d="
M 350 248.6307065990918 C
317 248.6307065990918
399.5 277.2095449239783
383 305.78838324886476
" stroke="#000" stroke-width="5" fill-opacity="0.0"></path><path d="
M 317 305.78838324886476 C
333.5 334.36722157375124
234.5 334.36722157375124
251 305.78838324886476
" stroke="#000" stroke-width="5" fill-opacity="0.0"></path><path d="
M 317 305.78838324886476 C
333.5 334.36722157375124
267.5 277.2095449239783
251 305.78838324886476
" stroke="#000" stroke-width="5" fill-opacity="0.0"></path><path d="
M 317 305.78838324886476 C
300.5 277.2095449239783
234.5 334.36722157375124
251 305.78838324886476
" stroke="#000" stroke-width="5" fill-opacity="0.0"></path><path d="
M 317 305.78838324886476 C
300.5 277.2095449239783
267.5 277.2095449239783
251 305.78838324886476
" stroke="#000" stroke-width="5" fill-opacity="0.0"></path><path d="
M 317 305.78838324886476 C
333.5 334.36722157375124
366.5 334.36722157375124
383 305.78838324886476
" stroke="#000" stroke-width="5" fill-opacity="0.0"></path><path d="
M 317 305.78838324886476 C
333.5 334.36722157375124
399.5 277.2095449239783
383 305.78838324886476
" stroke="#000" stroke-width="5" fill-opacity="0.0"></path><path d="
M 317 305.78838324886476 C
300.5 277.2095449239783
366.5 334.36722157375124
383 305.78838324886476
" stroke="#000" stroke-width="5" fill-opacity="0.0"></path><path d="
M 317 305.78838324886476 C
300.5 277.2095449239783
399.5 277.2095449239783
383 305.78838324886476
" stroke="#000" stroke-width="5" fill-opacity="0.0"></path><path d="
M 317 305.78838324886476 C
333.5 334.36722157375124
317 362.9460598986377
284 362.9460598986377
" stroke="#000" stroke-width="5" fill-opacity="0.0"></path><path d="
M 317 305.78838324886476 C
333.5 334.36722157375124
251 362.9460598986377
284 362.9460598986377
" stroke="#000" stroke-width="5" fill-opacity="0.0"></path><path d="
M 317 305.78838324886476 C
300.5 277.2095449239783
317 362.9460598986377
284 362.9460598986377
" stroke="#000" stroke-width="5" fill-opacity="0.0"></path><path d="
M 317 305.78838324886476 C
300.5 277.2095449239783
251 362.9460598986377
284 362.9460598986377
" stroke="#000" stroke-width="5" fill-opacity="0.0"></path><path d="
M 317 305.78838324886476 C
345.5788383248865 355.28838324886476
358.84232335022705 362.9460598986377
416 362.9460598986377
" stroke="#000" stroke-width="5" fill-opacity="0.0"></path><path d="
M 317 305.78838324886476 C
350 362.9460598986377
350 362.9460598986377
383 420.10373654841067
" stroke="#000" stroke-width="5" fill-opacity="0.0"></path><path d="
M 317 305.78838324886476 C
345.5788383248865 355.28838324886476
345.5788383248865 370.60373654841067
317 420.10373654841067
" stroke="#000" stroke-width="5" fill-opacity="0.0"></path><path d="
M 251 305.78838324886476 C
222.42116167511352 355.28838324886476
209.15767664977295 362.9460598986377
152 362.9460598986377
" stroke="#000" stroke-width="5" fill-opacity="0.0"></path><path d="
M 251 305.78838324886476 C
234.5 334.36722157375124
317 362.9460598986377
284 362.9460598986377
" stroke="#000" stroke-width="5" fill-opacity="0.0"></path><path d="
M 251 305.78838324886476 C
234.5 334.36722157375124
251 362.9460598986377
284 362.9460598986377
" stroke="#000" stroke-width="5" fill-opacity="0.0"></path><path d="
M 251 305.78838324886476 C
267.5 277.2095449239783
317 362.9460598986377
284 362.9460598986377
" stroke="#000" stroke-width="5" fill-opacity="0.0"></path><path d="
M 251 305.78838324886476 C
267.5 277.2095449239783
251 362.9460598986377
284 362.9460598986377
" stroke="#000" stroke-width="5" fill-opacity="0.0"></path><path d="
M 251 305.78838324886476 C
222.42116167511352 355.28838324886476
222.42116167511352 370.60373654841067
251 420.10373654841067
" stroke="#000" stroke-width="5" fill-opacity="0.0"></path><path d="
M 251 305.78838324886476 C
218 362.9460598986377
218 362.9460598986377
185 420.10373654841067
" stroke="#000" stroke-width="5" fill-opacity="0.0"></path><path d="
M 482 248.6307065990918 C
515 248.6307065990918
465.5 334.36722157375124
449 305.78838324886476
" stroke="#000" stroke-width="5" fill-opacity="0.0"></path><path d="
M 482 248.6307065990918 C
515 248.6307065990918
432.5 277.2095449239783
449 305.78838324886476
" stroke="#000" stroke-width="5" fill-opacity="0.0"></path><path d="
M 482 248.6307065990918 C
449 248.6307065990918
465.5 334.36722157375124
449 305.78838324886476
" stroke="#000" stroke-width="5" fill-opacity="0.0"></path><path d="
M 482 248.6307065990918 C
449 248.6307065990918
432.5 277.2095449239783
449 305.78838324886476
" stroke="#000" stroke-width="5" fill-opacity="0.0"></path><path d="
M 482 248.6307065990918 C
424.84232335022705 248.6307065990918
411.5788383248865 256.28838324886476
383 305.78838324886476
" stroke="#000" stroke-width="5" fill-opacity="0.0"></path><path d="
M 449 305.78838324886476 C
465.5 334.36722157375124
366.5 334.36722157375124
383 305.78838324886476
" stroke="#000" stroke-width="5" fill-opacity="0.0"></path><path d="
M 449 305.78838324886476 C
465.5 334.36722157375124
399.5 277.2095449239783
383 305.78838324886476
" stroke="#000" stroke-width="5" fill-opacity="0.0"></path><path d="
M 449 305.78838324886476 C
432.5 277.2095449239783
366.5 334.36722157375124
383 305.78838324886476
" stroke="#000" stroke-width="5" fill-opacity="0.0"></path><path d="
M 449 305.78838324886476 C
432.5 277.2095449239783
399.5 277.2095449239783
383 305.78838324886476
" stroke="#000" stroke-width="5" fill-opacity="0.0"></path><path d="
M 449 305.78838324886476 C
465.5 334.36722157375124
449 362.9460598986377
416 362.9460598986377
" stroke="#000" stroke-width="5" fill-opacity="0.0"></path><path d="
M 449 305.78838324886476 C
465.5 334.36722157375124
383 362.9460598986377
416 362.9460598986377
" stroke="#000" stroke-width="5" fill-opacity="0.0"></path><path d="
M 449 305.78838324886476 C
432.5 277.2095449239783
449 362.9460598986377
416 362.9460598986377
" stroke="#000" stroke-width="5" fill-opacity="0.0"></path><path d="
M 449 305.78838324886476 C
432.5 277.2095449239783
383 362.9460598986377
416 362.9460598986377
" stroke="#000" stroke-width="5" fill-opacity="0.0"></path><path d="
M 449 305.78838324886476 C
477.5788383248865 355.28838324886476
490.84232335022705 362.9460598986377
548 362.9460598986377
" stroke="#000" stroke-width="5" fill-opacity="0.0"></path><path d="
M 449 305.78838324886476 C
482 362.9460598986377
482 362.9460598986377
515 420.10373654841067
" stroke="#000" stroke-width="5" fill-opacity="0.0"></path><path d="
M 449 305.78838324886476 C
477.5788383248865 355.28838324886476
477.5788383248865 370.60373654841067
449 420.10373654841067
" stroke="#000" stroke-width="5" fill-opacity="0.0"></path><path d="
M 383 305.78838324886476 C
354.4211616751135 355.28838324886476
341.15767664977295 362.9460598986377
284 362.9460598986377
" stroke="#000" stroke-width="5" fill-opacity="0.0"></path><path d="
M 383 305.78838324886476 C
366.5 334.36722157375124
449 362.9460598986377
416 362.9460598986377
" stroke="#000" stroke-width="5" fill-opacity="0.0"></path><path d="
M 383 305.78838324886476 C
366.5 334.36722157375124
383 362.9460598986377
416 362.9460598986377
" stroke="#000" stroke-width="5" fill-opacity="0.0"></path><path d="
M 383 305.78838324886476 C
399.5 277.2095449239783
449 362.9460598986377
416 362.9460598986377
" stroke="#000" stroke-width="5" fill-opacity="0.0"></path><path d="
M 383 305.78838324886476 C
399.5 277.2095449239783
383 362.9460598986377
416 362.9460598986377
" stroke="#000" stroke-width="5" fill-opacity="0.0"></path><path d="
M 383 305.78838324886476 C
354.4211616751135 355.28838324886476
354.4211616751135 370.60373654841067
383 420.10373654841067
" stroke="#000" stroke-width="5" fill-opacity="0.0"></path><path d="
M 383 305.78838324886476 C
350 362.9460598986377
350 362.9460598986377
317 420.10373654841067
" stroke="#000" stroke-width="5" fill-opacity="0.0"></path><path d="
M 152 362.9460598986377 C
185 362.9460598986377
135.5 448.68257487329714
119 420.10373654841067
" stroke="#000" stroke-width="5" fill-opacity="0.0"></path><path d="
M 152 362.9460598986377 C
185 362.9460598986377
102.5 391.5248982235242
119 420.10373654841067
" stroke="#000" stroke-width="5" fill-opacity="0.0"></path><path d="
M 152 362.9460598986377 C
119 362.9460598986377
135.5 448.68257487329714
119 420.10373654841067
" stroke="#000" stroke-width="5" fill-opacity="0.0"></path><path d="
M 152 362.9460598986377 C
119 362.9460598986377
102.5 391.5248982235242
119 420.10373654841067
" stroke="#000" stroke-width="5" fill-opacity="0.0"></path><path d="
M 152 362.9460598986377 C
94.84232335022705 362.9460598986377
81.57883832488648 370.60373654841067
53 420.10373654841067
" stroke="#000" stroke-width="5" fill-opacity="0.0"></path><path d="
M 152 362.9460598986377 C
218 362.9460598986377
218 362.9460598986377
284 362.9460598986377
" stroke="#000" stroke-width="5" fill-opacity="0.0"></path><path d="
M 152 362.9460598986377 C
209.15767664977295 362.9460598986377
222.42116167511352 370.60373654841067
251 420.10373654841067
" stroke="#000" stroke-width="5" fill-opacity="0.0"></path><path d="
M 152 362.9460598986377 C
185 362.9460598986377
168.5 448.68257487329714
185 420.10373654841067
" stroke="#000" stroke-width="5" fill-opacity="0.0"></path><path d="
M 152 362.9460598986377 C
185 362.9460598986377
201.5 391.5248982235242
185 420.10373654841067
" stroke="#000" stroke-width="5" fill-opacity="0.0"></path><path d="
M 152 362.9460598986377 C
119 362.9460598986377
168.5 448.68257487329714
185 420.10373654841067
" stroke="#000" stroke-width="5" fill-opacity="0.0"></path><path d="
M 152 362.9460598986377 C
119 362.9460598986377
201.5 391.5248982235242
185 420.10373654841067
" stroke="#000" stroke-width="5" fill-opacity="0.0"></path><path d="
M 119 420.10373654841067 C
135.5 448.68257487329714
36.5 448.68257487329714
53 420.10373654841067
" stroke="#000" stroke-width="5" fill-opacity="0.0"></path><path d="
M 119 420.10373654841067 C
135.5 448.68257487329714
69.5 391.5248982235242
53 420.10373654841067
" stroke="#000" stroke-width="5" fill-opacity="0.0"></path><path d="
M 119 420.10373654841067 C
102.5 391.5248982235242
36.5 448.68257487329714
53 420.10373654841067
" stroke="#000" stroke-width="5" fill-opacity="0.0"></path><path d="
M 119 420.10373654841067 C
102.5 391.5248982235242
69.5 391.5248982235242
53 420.10373654841067
" stroke="#000" stroke-width="5" fill-opacity="0.0"></path><path d="
M 119 420.10373654841067 C
135.5 448.68257487329714
168.5 448.68257487329714
185 420.10373654841067
" stroke="#000" stroke-width="5" fill-opacity="0.0"></path><path d="
M 119 420.10373654841067 C
135.5 448.68257487329714
201.5 391.5248982235242
185 420.10373654841067
" stroke="#000" stroke-width="5" fill-opacity="0.0"></path><path d="
M 119 420.10373654841067 C
102.5 391.5248982235242
168.5 448.68257487329714
185 420.10373654841067
" stroke="#000" stroke-width="5" fill-opacity="0.0"></path><path d="
M 119 420.10373654841067 C
102.5 391.5248982235242
201.5 391.5248982235242
185 420.10373654841067
" stroke="#000" stroke-width="5" fill-opacity="0.0"></path><path d="
M 119 420.10373654841067 C
135.5 448.68257487329714
119 477.2614131981836
86 477.2614131981836
" stroke="#000" stroke-width="5" fill-opacity="0.0"></path><path d="
M 119 420.10373654841067 C
135.5 448.68257487329714
53 477.2614131981836
86 477.2614131981836
" stroke="#000" stroke-width="5" fill-opacity="0.0"></path><path d="
M 119 420.10373654841067 C
102.5 391.5248982235242
119 477.2614131981836
86 477.2614131981836
" stroke="#000" stroke-width="5" fill-opacity="0.0"></path><path d="
M 119 420.10373654841067 C
102.5 391.5248982235242
53 477.2614131981836
86 477.2614131981836
" stroke="#000" stroke-width="5" fill-opacity="0.0"></path><path d="
M 119 420.10373654841067 C
147.57883832488648 469.60373654841067
160.84232335022705 477.2614131981836
218 477.2614131981836
" stroke="#000" stroke-width="5" fill-opacity="0.0"></path><path d="
M 119 420.10373654841067 C
152 477.2614131981836
152 477.2614131981836
185 534.4190898479566
" stroke="#000" stroke-width="5" fill-opacity="0.0"></path><path d="
M 119 420.10373654841067 C
147.57883832488648 469.60373654841067
147.57883832488648 484.91908984795657
119 534.4190898479566
" stroke="#000" stroke-width="5" fill-opacity="0.0"></path><path d="
M 53 420.10373654841067 C
36.5 448.68257487329714
119 477.2614131981836
86 477.2614131981836
" stroke="#000" stroke-width="5" fill-opacity="0.0"></path><path d="
M 53 420.10373654841067 C
36.5 448.68257487329714
53 477.2614131981836
86 477.2614131981836
" stroke="#000" stroke-width="5" fill-opacity="0.0"></path><path d="
M 53 420.10373654841067 C
69.5 391.5248982235242
119 477.2614131981836
86 477.2614131981836
" stroke="#000" stroke-width="5" fill-opacity="0.0"></path><path d="
M 53 420.10373654841067 C
69.5 391.5248982235242
53 477.2614131981836
86 477.2614131981836
" stroke="#000" stroke-width="5" fill-opacity="0.0"></path><path d="
M 53 420.10373654841067 C
24.421161675113524 469.60373654841067
24.421161675113524 484.91908984795657
53 534.4190898479566
" stroke="#000" stroke-width="5" fill-opacity="0.0"></path><path d="
M 53 420.10373654841067 C
20 477.2614131981836
20 477.2614131981836
-13 534.4190898479566
" stroke="#000" stroke-width="5" fill-opacity="0.0"></path><path d="
M 284 362.9460598986377 C
317 362.9460598986377
267.5 448.68257487329714
251 420.10373654841067
" stroke="#000" stroke-width="5" fill-opacity="0.0"></path><path d="
M 284 362.9460598986377 C
317 362.9460598986377
234.5 391.5248982235242
251 420.10373654841067
" stroke="#000" stroke-width="5" fill-opacity="0.0"></path><path d="
M 284 362.9460598986377 C
251 362.9460598986377
267.5 448.68257487329714
251 420.10373654841067
" stroke="#000" stroke-width="5" fill-opacity="0.0"></path><path d="
M 284 362.9460598986377 C
251 362.9460598986377
234.5 391.5248982235242
251 420.10373654841067
" stroke="#000" stroke-width="5" fill-opacity="0.0"></path><path d="
M 284 362.9460598986377 C
226.84232335022705 362.9460598986377
213.57883832488648 370.60373654841067
185 420.10373654841067
" stroke="#000" stroke-width="5" fill-opacity="0.0"></path><path d="
M 284 362.9460598986377 C
350 362.9460598986377
350 362.9460598986377
416 362.9460598986377
" stroke="#000" stroke-width="5" fill-opacity="0.0"></path><path d="
M 284 362.9460598986377 C
341.15767664977295 362.9460598986377
354.4211616751135 370.60373654841067
383 420.10373654841067
" stroke="#000" stroke-width="5" fill-opacity="0.0"></path><path d="
M 284 362.9460598986377 C
317 362.9460598986377
300.5 448.68257487329714
317 420.10373654841067
" stroke="#000" stroke-width="5" fill-opacity="0.0"></path><path d="
M 284 362.9460598986377 C
317 362.9460598986377
333.5 391.5248982235242
317 420.10373654841067
" stroke="#000" stroke-width="5" fill-opacity="0.0"></path><path d="
M 284 362.9460598986377 C
251 362.9460598986377
300.5 448.68257487329714
317 420.10373654841067
" stroke="#000" stroke-width="5" fill-opacity="0.0"></path><path d="
M 284 362.9460598986377 C
251 362.9460598986377
333.5 391.5248982235242
317 420.10373654841067
" stroke="#000" stroke-width="5" fill-opacity="0.0"></path><path d="
M 251 420.10373654841067 C
267.5 448.68257487329714
168.5 448.68257487329714
185 420.10373654841067
" stroke="#000" stroke-width="5" fill-opacity="0.0"></path><path d="
M 251 420.10373654841067 C
267.5 448.68257487329714
201.5 391.5248982235242
185 420.10373654841067
" stroke="#000" stroke-width="5" fill-opacity="0.0"></path><path d="
M 251 420.10373654841067 C
234.5 391.5248982235242
168.5 448.68257487329714
185 420.10373654841067
" stroke="#000" stroke-width="5" fill-opacity="0.0"></path><path d="
M 251 420.10373654841067 C
234.5 391.5248982235242
201.5 391.5248982235242
185 420.10373654841067
" stroke="#000" stroke-width="5" fill-opacity="0.0"></path><path d="
M 251 420.10373654841067 C
267.5 448.68257487329714
300.5 448.68257487329714
317 420.10373654841067
" stroke="#000" stroke-width="5" fill-opacity="0.0"></path><path d="
M 251 420.10373654841067 C
267.5 448.68257487329714
333.5 391.5248982235242
317 420.10373654841067
" stroke="#000" stroke-width="5" fill-opacity="0.0"></path><path d="
M 251 420.10373654841067 C
234.5 391.5248982235242
300.5 448.68257487329714
317 420.10373654841067
" stroke="#000" stroke-width="5" fill-opacity="0.0"></path><path d="
M 251 420.10373654841067 C
234.5 391.5248982235242
333.5 391.5248982235242
317 420.10373654841067
" stroke="#000" stroke-width="5" fill-opacity="0.0"></path><path d="
M 251 420.10373654841067 C
267.5 448.68257487329714
251 477.2614131981836
218 477.2614131981836
" stroke="#000" stroke-width="5" fill-opacity="0.0"></path><path d="
M 251 420.10373654841067 C
267.5 448.68257487329714
185 477.2614131981836
218 477.2614131981836
" stroke="#000" stroke-width="5" fill-opacity="0.0"></path><path d="
M 251 420.10373654841067 C
234.5 391.5248982235242
251 477.2614131981836
218 477.2614131981836
" stroke="#000" stroke-width="5" fill-opacity="0.0"></path><path d="
M 251 420.10373654841067 C
234.5 391.5248982235242
185 477.2614131981836
218 477.2614131981836
" stroke="#000" stroke-width="5" fill-opacity="0.0"></path><path d="
M 251 420.10373654841067 C
279.5788383248865 469.60373654841067
292.84232335022705 477.2614131981836
350 477.2614131981836
" stroke="#000" stroke-width="5" fill-opacity="0.0"></path><path d="
M 251 420.10373654841067 C
284 477.2614131981836
284 477.2614131981836
317 534.4190898479566
" stroke="#000" stroke-width="5" fill-opacity="0.0"></path><path d="
M 251 420.10373654841067 C
279.5788383248865 469.60373654841067
279.5788383248865 484.91908984795657
251 534.4190898479566
" stroke="#000" stroke-width="5" fill-opacity="0.0"></path><path d="
M 185 420.10373654841067 C
156.42116167511352 469.60373654841067
143.15767664977295 477.2614131981836
86 477.2614131981836
" stroke="#000" stroke-width="5" fill-opacity="0.0"></path><path d="
M 185 420.10373654841067 C
168.5 448.68257487329714
251 477.2614131981836
218 477.2614131981836
" stroke="#000" stroke-width="5" fill-opacity="0.0"></path><path d="
M 185 420.10373654841067 C
168.5 448.68257487329714
185 477.2614131981836
218 477.2614131981836
" stroke="#000" stroke-width="5" fill-opacity="0.0"></path><path d="
M 185 420.10373654841067 C
201.5 391.5248982235242
251 477.2614131981836
218 477.2614131981836
" stroke="#000" stroke-width="5" fill-opacity="0.0"></path><path d="
M 185 420.10373654841067 C
201.5 391.5248982235242
185 477.2614131981836
218 477.2614131981836
" stroke="#000" stroke-width="5" fill-opacity="0.0"></path><path d="
M 185 420.10373654841067 C
156.42116167511352 469.60373654841067
156.42116167511352 484.91908984795657
185 534.4190898479566
" stroke="#000" stroke-width="5" fill-opacity="0.0"></path><path d="
M 185 420.10373654841067 C
152 477.2614131981836
152 477.2614131981836
119 534.4190898479566
" stroke="#000" stroke-width="5" fill-opacity="0.0"></path><path d="
M 416 362.9460598986377 C
449 362.9460598986377
399.5 448.68257487329714
383 420.10373654841067
" stroke="#000" stroke-width="5" fill-opacity="0.0"></path><path d="
M 416 362.9460598986377 C
449 362.9460598986377
366.5 391.5248982235242
383 420.10373654841067
" stroke="#000" stroke-width="5" fill-opacity="0.0"></path><path d="
M 416 362.9460598986377 C
383 362.9460598986377
399.5 448.68257487329714
383 420.10373654841067
" stroke="#000" stroke-width="5" fill-opacity="0.0"></path><path d="
M 416 362.9460598986377 C
383 362.9460598986377
366.5 391.5248982235242
383 420.10373654841067
" stroke="#000" stroke-width="5" fill-opacity="0.0"></path><path d="
M 416 362.9460598986377 C
358.84232335022705 362.9460598986377
345.5788383248865 370.60373654841067
317 420.10373654841067
" stroke="#000" stroke-width="5" fill-opacity="0.0"></path><path d="
M 416 362.9460598986377 C
482 362.9460598986377
482 362.9460598986377
548 362.9460598986377
" stroke="#000" stroke-width="5" fill-opacity="0.0"></path><path d="
M 416 362.9460598986377 C
473.15767664977295 362.9460598986377
486.4211616751135 370.60373654841067
515 420.10373654841067
" stroke="#000" stroke-width="5" fill-opacity="0.0"></path><path d="
M 416 362.9460598986377 C
449 362.9460598986377
432.5 448.68257487329714
449 420.10373654841067
" stroke="#000" stroke-width="5" fill-opacity="0.0"></path><path d="
M 416 362.9460598986377 C
449 362.9460598986377
465.5 391.5248982235242
449 420.10373654841067
" stroke="#000" stroke-width="5" fill-opacity="0.0"></path><path d="
M 416 362.9460598986377 C
383 362.9460598986377
432.5 448.68257487329714
449 420.10373654841067
" stroke="#000" stroke-width="5" fill-opacity="0.0"></path><path d="
M 416 362.9460598986377 C
383 362.9460598986377
465.5 391.5248982235242
449 420.10373654841067
" stroke="#000" stroke-width="5" fill-opacity="0.0"></path><path d="
M 383 420.10373654841067 C
399.5 448.68257487329714
300.5 448.68257487329714
317 420.10373654841067
" stroke="#000" stroke-width="5" fill-opacity="0.0"></path><path d="
M 383 420.10373654841067 C
399.5 448.68257487329714
333.5 391.5248982235242
317 420.10373654841067
" stroke="#000" stroke-width="5" fill-opacity="0.0"></path><path d="
M 383 420.10373654841067 C
366.5 391.5248982235242
300.5 448.68257487329714
317 420.10373654841067
" stroke="#000" stroke-width="5" fill-opacity="0.0"></path><path d="
M 383 420.10373654841067 C
366.5 391.5248982235242
333.5 391.5248982235242
317 420.10373654841067
" stroke="#000" stroke-width="5" fill-opacity="0.0"></path><path d="
M 383 420.10373654841067 C
399.5 448.68257487329714
432.5 448.68257487329714
449 420.10373654841067
" stroke="#000" stroke-width="5" fill-opacity="0.0"></path><path d="
M 383 420.10373654841067 C
399.5 448.68257487329714
465.5 391.5248982235242
449 420.10373654841067
" stroke="#000" stroke-width="5" fill-opacity="0.0"></path><path d="
M 383 420.10373654841067 C
366.5 391.5248982235242
432.5 448.68257487329714
449 420.10373654841067
" stroke="#000" stroke-width="5" fill-opacity="0.0"></path><path d="
M 383 420.10373654841067 C
366.5 391.5248982235242
465.5 391.5248982235242
449 420.10373654841067
" stroke="#000" stroke-width="5" fill-opacity="0.0"></path><path d="
M 383 420.10373654841067 C
399.5 448.68257487329714
383 477.2614131981836
350 477.2614131981836
" stroke="#000" stroke-width="5" fill-opacity="0.0"></path><path d="
M 383 420.10373654841067 C
399.5 448.68257487329714
317 477.2614131981836
350 477.2614131981836
" stroke="#000" stroke-width="5" fill-opacity="0.0"></path><path d="
M 383 420.10373654841067 C
366.5 391.5248982235242
383 477.2614131981836
350 477.2614131981836
" stroke="#000" stroke-width="5" fill-opacity="0.0"></path><path d="
M 383 420.10373654841067 C
366.5 391.5248982235242
317 477.2614131981836
350 477.2614131981836
" stroke="#000" stroke-width="5" fill-opacity="0.0"></path><path d="
M 383 420.10373654841067 C
411.5788383248865 469.60373654841067
424.84232335022705 477.2614131981836
482 477.2614131981836
" stroke="#000" stroke-width="5" fill-opacity="0.0"></path><path d="
M 383 420.10373654841067 C
416 477.2614131981836
416 477.2614131981836
449 534.4190898479566
" stroke="#000" stroke-width="5" fill-opacity="0.0"></path><path d="
M 383 420.10373654841067 C
411.5788383248865 469.60373654841067
411.5788383248865 484.91908984795657
383 534.4190898479566
" stroke="#000" stroke-width="5" fill-opacity="0.0"></path><path d="
M 317 420.10373654841067 C
288.4211616751135 469.60373654841067
275.15767664977295 477.2614131981836
218 477.2614131981836
" stroke="#000" stroke-width="5" fill-opacity="0.0"></path><path d="
M 317 420.10373654841067 C
300.5 448.68257487329714
383 477.2614131981836
350 477.2614131981836
" stroke="#000" stroke-width="5" fill-opacity="0.0"></path><path d="
M 317 420.10373654841067 C
300.5 448.68257487329714
317 477.2614131981836
350 477.2614131981836
" stroke="#000" stroke-width="5" fill-opacity="0.0"></path><path d="
M 317 420.10373654841067 C
333.5 391.5248982235242
383 477.2614131981836
350 477.2614131981836
" stroke="#000" stroke-width="5" fill-opacity="0.0"></path><path d="
M 317 420.10373654841067 C
333.5 391.5248982235242
317 477.2614131981836
350 477.2614131981836
" stroke="#000" stroke-width="5" fill-opacity="0.0"></path><path d="
M 317 420.10373654841067 C
288.4211616751135 469.60373654841067
288.4211616751135 484.91908984795657
317 534.4190898479566
" stroke="#000" stroke-width="5" fill-opacity="0.0"></path><path d="
M 317 420.10373654841067 C
284 477.2614131981836
284 477.2614131981836
251 534.4190898479566
" stroke="#000" stroke-width="5" fill-opacity="0.0"></path><path d="
M 548 362.9460598986377 C
581 362.9460598986377
531.5 448.68257487329714
515 420.10373654841067
" stroke="#000" stroke-width="5" fill-opacity="0.0"></path><path d="
M 548 362.9460598986377 C
581 362.9460598986377
498.5 391.5248982235242
515 420.10373654841067
" stroke="#000" stroke-width="5" fill-opacity="0.0"></path><path d="
M 548 362.9460598986377 C
515 362.9460598986377
531.5 448.68257487329714
515 420.10373654841067
" stroke="#000" stroke-width="5" fill-opacity="0.0"></path><path d="
M 548 362.9460598986377 C
515 362.9460598986377
498.5 391.5248982235242
515 420.10373654841067
" stroke="#000" stroke-width="5" fill-opacity="0.0"></path><path d="
M 548 362.9460598986377 C
490.84232335022705 362.9460598986377
477.5788383248865 370.60373654841067
449 420.10373654841067
" stroke="#000" stroke-width="5" fill-opacity="0.0"></path><path d="
M 515 420.10373654841067 C
531.5 448.68257487329714
432.5 448.68257487329714
449 420.10373654841067
" stroke="#000" stroke-width="5" fill-opacity="0.0"></path><path d="
M 515 420.10373654841067 C
531.5 448.68257487329714
465.5 391.5248982235242
449 420.10373654841067
" stroke="#000" stroke-width="5" fill-opacity="0.0"></path><path d="
M 515 420.10373654841067 C
498.5 391.5248982235242
432.5 448.68257487329714
449 420.10373654841067
" stroke="#000" stroke-width="5" fill-opacity="0.0"></path><path d="
M 515 420.10373654841067 C
498.5 391.5248982235242
465.5 391.5248982235242
449 420.10373654841067
" stroke="#000" stroke-width="5" fill-opacity="0.0"></path><path d="
M 515 420.10373654841067 C
531.5 448.68257487329714
515 477.2614131981836
482 477.2614131981836
" stroke="#000" stroke-width="5" fill-opacity="0.0"></path><path d="
M 515 420.10373654841067 C
531.5 448.68257487329714
449 477.2614131981836
482 477.2614131981836
" stroke="#000" stroke-width="5" fill-opacity="0.0"></path><path d="
M 515 420.10373654841067 C
498.5 391.5248982235242
515 477.2614131981836
482 477.2614131981836
" stroke="#000" stroke-width="5" fill-opacity="0.0"></path><path d="
M 515 420.10373654841067 C
498.5 391.5248982235242
449 477.2614131981836
482 477.2614131981836
" stroke="#000" stroke-width="5" fill-opacity="0.0"></path><path d="
M 449 420.10373654841067 C
420.4211616751135 469.60373654841067
407.15767664977295 477.2614131981836
350 477.2614131981836
" stroke="#000" stroke-width="5" fill-opacity="0.0"></path><path d="
M 449 420.10373654841067 C
432.5 448.68257487329714
515 477.2614131981836
482 477.2614131981836
" stroke="#000" stroke-width="5" fill-opacity="0.0"></path><path d="
M 449 420.10373654841067 C
432.5 448.68257487329714
449 477.2614131981836
482 477.2614131981836
" stroke="#000" stroke-width="5" fill-opacity="0.0"></path><path d="
M 449 420.10373654841067 C
465.5 391.5248982235242
515 477.2614131981836
482 477.2614131981836
" stroke="#000" stroke-width="5" fill-opacity="0.0"></path><path d="
M 449 420.10373654841067 C
465.5 391.5248982235242
449 477.2614131981836
482 477.2614131981836
" stroke="#000" stroke-width="5" fill-opacity="0.0"></path><path d="
M 449 420.10373654841067 C
420.4211616751135 469.60373654841067
420.4211616751135 484.91908984795657
449 534.4190898479566
" stroke="#000" stroke-width="5" fill-opacity="0.0"></path><path d="
M 449 420.10373654841067 C
416 477.2614131981836
416 477.2614131981836
383 534.4190898479566
" stroke="#000" stroke-width="5" fill-opacity="0.0"></path><path d="
M 86 477.2614131981836 C
119 477.2614131981836
69.5 562.997928172843
53 534.4190898479566
" stroke="#000" stroke-width="5" fill-opacity="0.0"></path><path d="
M 86 477.2614131981836 C
119 477.2614131981836
36.5 505.8402515230701
53 534.4190898479566
" stroke="#000" stroke-width="5" fill-opacity="0.0"></path><path d="
M 86 477.2614131981836 C
53 477.2614131981836
69.5 562.997928172843
53 534.4190898479566
" stroke="#000" stroke-width="5" fill-opacity="0.0"></path><path d="
M 86 477.2614131981836 C
53 477.2614131981836
36.5 505.8402515230701
53 534.4190898479566
" stroke="#000" stroke-width="5" fill-opacity="0.0"></path><path d="
M 86 477.2614131981836 C
28.842323350227048 477.2614131981836
15.578838324886476 484.91908984795657
-13 534.4190898479566
" stroke="#000" stroke-width="5" fill-opacity="0.0"></path><path d="
M 86 477.2614131981836 C
152 477.2614131981836
152 477.2614131981836
218 477.2614131981836
" stroke="#000" stroke-width="5" fill-opacity="0.0"></path><path d="
M 86 477.2614131981836 C
143.15767664977295 477.2614131981836
156.42116167511352 484.91908984795657
185 534.4190898479566
" stroke="#000" stroke-width="5" fill-opacity="0.0"></path><path d="
M 86 477.2614131981836 C
119 477.2614131981836
102.5 562.997928172843
119 534.4190898479566
" stroke="#000" stroke-width="5" fill-opacity="0.0"></path><path d="
M 86 477.2614131981836 C
119 477.2614131981836
135.5 505.8402515230701
119 534.4190898479566
" stroke="#000" stroke-width="5" fill-opacity="0.0"></path><path d="
M 86 477.2614131981836 C
53 477.2614131981836
102.5 562.997928172843
119 534.4190898479566
" stroke="#000" stroke-width="5" fill-opacity="0.0"></path><path d="
M 86 477.2614131981836 C
53 477.2614131981836
135.5 505.8402515230701
119 534.4190898479566
" stroke="#000" stroke-width="5" fill-opacity="0.0"></path><path d="
M 53 534.4190898479566 C
69.5 562.997928172843
-29.5 562.997928172843
-13 534.4190898479566
" stroke="#000" stroke-width="5" fill-opacity="0.0"></path><path d="
M 53 534.4190898479566 C
69.5 562.997928172843
3.5 505.8402515230701
-13 534.4190898479566
" stroke="#000" stroke-width="5" fill-opacity="0.0"></path><path d="
M 53 534.4190898479566 C
36.5 505.8402515230701
-29.5 562.997928172843
-13 534.4190898479566
" stroke="#000" stroke-width="5" fill-opacity="0.0"></path><path d="
M 53 534.4190898479566 C
36.5 505.8402515230701
3.5 505.8402515230701
-13 534.4190898479566
" stroke="#000" stroke-width="5" fill-opacity="0.0"></path><path d="
M 53 534.4190898479566 C
69.5 562.997928172843
102.5 562.997928172843
119 534.4190898479566
" stroke="#000" stroke-width="5" fill-opacity="0.0"></path><path d="
M 53 534.4190898479566 C
69.5 562.997928172843
135.5 505.8402515230701
119 534.4190898479566
" stroke="#000" stroke-width="5" fill-opacity="0.0"></path><path d="
M 53 534.4190898479566 C
36.5 505.8402515230701
102.5 562.997928172843
119 534.4190898479566
" stroke="#000" stroke-width="5" fill-opacity="0.0"></path><path d="
M 53 534.4190898479566 C
36.5 505.8402515230701
135.5 505.8402515230701
119 534.4190898479566
" stroke="#000" stroke-width="5" fill-opacity="0.0"></path><path d="
M 218 477.2614131981836 C
251 477.2614131981836
201.5 562.997928172843
185 534.4190898479566
" stroke="#000" stroke-width="5" fill-opacity="0.0"></path><path d="
M 218 477.2614131981836 C
251 477.2614131981836
168.5 505.8402515230701
185 534.4190898479566
" stroke="#000" stroke-width="5" fill-opacity="0.0"></path><path d="
M 218 477.2614131981836 C
185 477.2614131981836
201.5 562.997928172843
185 534.4190898479566
" stroke="#000" stroke-width="5" fill-opacity="0.0"></path><path d="
M 218 477.2614131981836 C
185 477.2614131981836
168.5 505.8402515230701
185 534.4190898479566
" stroke="#000" stroke-width="5" fill-opacity="0.0"></path><path d="
M 218 477.2614131981836 C
160.84232335022705 477.2614131981836
147.57883832488648 484.91908984795657
119 534.4190898479566
" stroke="#000" stroke-width="5" fill-opacity="0.0"></path><path d="
M 218 477.2614131981836 C
284 477.2614131981836
284 477.2614131981836
350 477.2614131981836
" stroke="#000" stroke-width="5" fill-opacity="0.0"></path><path d="
M 218 477.2614131981836 C
275.15767664977295 477.2614131981836
288.4211616751135 484.91908984795657
317 534.4190898479566
" stroke="#000" stroke-width="5" fill-opacity="0.0"></path><path d="
M 218 477.2614131981836 C
251 477.2614131981836
234.5 562.997928172843
251 534.4190898479566
" stroke="#000" stroke-width="5" fill-opacity="0.0"></path><path d="
M 218 477.2614131981836 C
251 477.2614131981836
267.5 505.8402515230701
251 534.4190898479566
" stroke="#000" stroke-width="5" fill-opacity="0.0"></path><path d="
M 218 477.2614131981836 C
185 477.2614131981836
234.5 562.997928172843
251 534.4190898479566
" stroke="#000" stroke-width="5" fill-opacity="0.0"></path><path d="
M 218 477.2614131981836 C
185 477.2614131981836
267.5 505.8402515230701
251 534.4190898479566
" stroke="#000" stroke-width="5" fill-opacity="0.0"></path><path d="
M 185 534.4190898479566 C
201.5 562.997928172843
102.5 562.997928172843
119 534.4190898479566
" stroke="#000" stroke-width="5" fill-opacity="0.0"></path><path d="
M 185 534.4190898479566 C
201.5 562.997928172843
135.5 505.8402515230701
119 534.4190898479566
" stroke="#000" stroke-width="5" fill-opacity="0.0"></path><path d="
M 185 534.4190898479566 C
168.5 505.8402515230701
102.5 562.997928172843
119 534.4190898479566
" stroke="#000" stroke-width="5" fill-opacity="0.0"></path><path d="
M 185 534.4190898479566 C
168.5 505.8402515230701
135.5 505.8402515230701
119 534.4190898479566
" stroke="#000" stroke-width="5" fill-opacity="0.0"></path><path d="
M 185 534.4190898479566 C
201.5 562.997928172843
234.5 562.997928172843
251 534.4190898479566
" stroke="#000" stroke-width="5" fill-opacity="0.0"></path><path d="
M 185 534.4190898479566 C
201.5 562.997928172843
267.5 505.8402515230701
251 534.4190898479566
" stroke="#000" stroke-width="5" fill-opacity="0.0"></path><path d="
M 185 534.4190898479566 C
168.5 505.8402515230701
234.5 562.997928172843
251 534.4190898479566
" stroke="#000" stroke-width="5" fill-opacity="0.0"></path><path d="
M 185 534.4190898479566 C
168.5 505.8402515230701
267.5 505.8402515230701
251 534.4190898479566
" stroke="#000" stroke-width="5" fill-opacity="0.0"></path><path d="
M 350 477.2614131981836 C
383 477.2614131981836
333.5 562.997928172843
317 534.4190898479566
" stroke="#000" stroke-width="5" fill-opacity="0.0"></path><path d="
M 350 477.2614131981836 C
383 477.2614131981836
300.5 505.8402515230701
317 534.4190898479566
" stroke="#000" stroke-width="5" fill-opacity="0.0"></path><path d="
M 350 477.2614131981836 C
317 477.2614131981836
333.5 562.997928172843
317 534.4190898479566
" stroke="#000" stroke-width="5" fill-opacity="0.0"></path><path d="
M 350 477.2614131981836 C
317 477.2614131981836
300.5 505.8402515230701
317 534.4190898479566
" stroke="#000" stroke-width="5" fill-opacity="0.0"></path><path d="
M 350 477.2614131981836 C
292.84232335022705 477.2614131981836
279.5788383248865 484.91908984795657
251 534.4190898479566
" stroke="#000" stroke-width="5" fill-opacity="0.0"></path><path d="
M 350 477.2614131981836 C
416 477.2614131981836
416 477.2614131981836
482 477.2614131981836
" stroke="#000" stroke-width="5" fill-opacity="0.0"></path><path d="
M 350 477.2614131981836 C
407.15767664977295 477.2614131981836
420.4211616751135 484.91908984795657
449 534.4190898479566
" stroke="#000" stroke-width="5" fill-opacity="0.0"></path><path d="
M 350 477.2614131981836 C
383 477.2614131981836
366.5 562.997928172843
383 534.4190898479566
" stroke="#000" stroke-width="5" fill-opacity="0.0"></path><path d="
M 350 477.2614131981836 C
383 477.2614131981836
399.5 505.8402515230701
383 534.4190898479566
" stroke="#000" stroke-width="5" fill-opacity="0.0"></path><path d="
M 350 477.2614131981836 C
317 477.2614131981836
366.5 562.997928172843
383 534.4190898479566
" stroke="#000" stroke-width="5" fill-opacity="0.0"></path><path d="
M 350 477.2614131981836 C
317 477.2614131981836
399.5 505.8402515230701
383 534.4190898479566
" stroke="#000" stroke-width="5" fill-opacity="0.0"></path><path d="
M 317 534.4190898479566 C
333.5 562.997928172843
234.5 562.997928172843
251 534.4190898479566
" stroke="#000" stroke-width="5" fill-opacity="0.0"></path><path d="
M 317 534.4190898479566 C
333.5 562.997928172843
267.5 505.8402515230701
251 534.4190898479566
" stroke="#000" stroke-width="5" fill-opacity="0.0"></path><path d="
M 317 534.4190898479566 C
300.5 505.8402515230701
234.5 562.997928172843
251 534.4190898479566
" stroke="#000" stroke-width="5" fill-opacity="0.0"></path><path d="
M 317 534.4190898479566 C
300.5 505.8402515230701
267.5 505.8402515230701
251 534.4190898479566
" stroke="#000" stroke-width="5" fill-opacity="0.0"></path><path d="
M 317 534.4190898479566 C
333.5 562.997928172843
366.5 562.997928172843
383 534.4190898479566
" stroke="#000" stroke-width="5" fill-opacity="0.0"></path><path d="
M 317 534.4190898479566 C
333.5 562.997928172843
399.5 505.8402515230701
383 534.4190898479566
" stroke="#000" stroke-width="5" fill-opacity="0.0"></path><path d="
M 317 534.4190898479566 C
300.5 505.8402515230701
366.5 562.997928172843
383 534.4190898479566
" stroke="#000" stroke-width="5" fill-opacity="0.0"></path><path d="
M 317 534.4190898479566 C
300.5 505.8402515230701
399.5 505.8402515230701
383 534.4190898479566
" stroke="#000" stroke-width="5" fill-opacity="0.0"></path><path d="
M 482 477.2614131981836 C
515 477.2614131981836
465.5 562.997928172843
449 534.4190898479566
" stroke="#000" stroke-width="5" fill-opacity="0.0"></path><path d="
M 482 477.2614131981836 C
515 477.2614131981836
432.5 505.8402515230701
449 534.4190898479566
" stroke="#000" stroke-width="5" fill-opacity="0.0"></path><path d="
M 482 477.2614131981836 C
449 477.2614131981836
465.5 562.997928172843
449 534.4190898479566
" stroke="#000" stroke-width="5" fill-opacity="0.0"></path><path d="
M 482 477.2614131981836 C
449 477.2614131981836
432.5 505.8402515230701
449 534.4190898479566
" stroke="#000" stroke-width="5" fill-opacity="0.0"></path><path d="
M 482 477.2614131981836 C
424.84232335022705 477.2614131981836
411.5788383248865 484.91908984795657
383 534.4190898479566
" stroke="#000" stroke-width="5" fill-opacity="0.0"></path><path d="
M 449 534.4190898479566 C
465.5 562.997928172843
366.5 562.997928172843
383 534.4190898479566
" stroke="#000" stroke-width="5" fill-opacity="0.0"></path><path d="
M 449 534.4190898479566 C
465.5 562.997928172843
399.5 505.8402515230701
383 534.4190898479566
" stroke="#000" stroke-width="5" fill-opacity="0.0"></path><path d="
M 449 534.4190898479566 C
432.5 505.8402515230701
366.5 562.997928172843
383 534.4190898479566
" stroke="#000" stroke-width="5" fill-opacity="0.0"></path><path d="
M 449 534.4190898479566 C
432.5 505.8402515230701
399.5 505.8402515230701
383 534.4190898479566
" stroke="#000" stroke-width="5" fill-opacity="0.0"></path><line x1="89" y1="20" x2="83" y2="20" stroke="#808" stroke-width="2"></line><line x1="54.5" y1="79.75575286112627" x2="51.5" y2="74.55960043841964" stroke="#808" stroke-width="2"></line><line x1="-14.5" y1="79.75575286112627" x2="-11.5" y2="74.55960043841964" stroke="#808" stroke-width="2"></line><line x1="221" y1="20" x2="215" y2="20" stroke="#808" stroke-width="2"></line><line x1="186.5" y1="79.75575286112627" x2="183.5" y2="74.55960043841964" stroke="#808" stroke-width="2"></line><line x1="117.5" y1="79.75575286112627" x2="120.5" y2="74.55960043841964" stroke="#808" stroke-width="2"></line><line x1="353" y1="20" x2="347" y2="20" stroke="#808" stroke-width="2"></line><line x1="318.5" y1="79.75575286112627" x2="315.5" y2="74.55960043841964" stroke="#808" stroke-width="2"></line><line x1="249.5" y1="79.75575286112627" x2="252.5" y2="74.55960043841964" stroke="#808" stroke-width="2"></line><line x1="485" y1="20" x2="479" y2="20" stroke="#808" stroke-width="2"></line><line x1="450.5" y1="79.75575286112627" x2="447.5" y2="74.55960043841964" stroke="#808" stroke-width="2"></line><line x1="381.5" y1="79.75575286112627" x2="384.5" y2="74.55960043841964" stroke="#808" stroke-width="2"></line><line x1="155" y1="134.3153532995459" x2="149" y2="134.3153532995459" stroke="#808" stroke-width="2"></line><line x1="120.5" y1="194.07110616067217" x2="117.5" y2="188.87495373796554" stroke="#808" stroke-width="2"></line><line x1="51.5" y1="194.07110616067217" x2="54.5" y2="188.87495373796554" stroke="#808" stroke-width="2"></line><line x1="287" y1="134.3153532995459" x2="281" y2="134.3153532995459" stroke="#808" stroke-width="2"></line><line x1="252.5" y1="194.07110616067217" x2="249.5" y2="188.87495373796554" stroke="#808" stroke-width="2"></line><line x1="183.5" y1="194.07110616067217" x2="186.5" y2="188.87495373796554" stroke="#808" stroke-width="2"></line><line x1="419" y1="134.3153532995459" x2="413" y2="134.3153532995459" stroke="#808" stroke-width="2"></line><line x1="384.5" y1="194.07110616067217" x2="381.5" y2="188.87495373796554" stroke="#808" stroke-width="2"></line><line x1="315.5" y1="194.07110616067217" x2="318.5" y2="188.87495373796554" stroke="#808" stroke-width="2"></line><line x1="551" y1="134.3153532995459" x2="545" y2="134.3153532995459" stroke="#808" stroke-width="2"></line><line x1="516.5" y1="194.07110616067217" x2="513.5" y2="188.87495373796554" stroke="#808" stroke-width="2"></line><line x1="447.5" y1="194.07110616067217" x2="450.5" y2="188.87495373796554" stroke="#808" stroke-width="2"></line><line x1="89" y1="248.6307065990918" x2="83" y2="248.6307065990918" stroke="#808" stroke-width="2"></line><line x1="54.5" y1="308.3864594602181" x2="51.5" y2="303.19030703751145" stroke="#808" stroke-width="2"></line><line x1="-14.5" y1="308.3864594602181" x2="-11.5" y2="303.19030703751145" stroke="#808" stroke-width="2"></line><line x1="221" y1="248.6307065990918" x2="215" y2="248.6307065990918" stroke="#808" stroke-width="2"></line><line x1="186.5" y1="308.3864594602181" x2="183.5" y2="303.19030703751145" stroke="#808" stroke-width="2"></line><line x1="117.5" y1="308.3864594602181" x2="120.5" y2="303.19030703751145" stroke="#808" stroke-width="2"></line><line x1="353" y1="248.6307065990918" x2="347" y2="248.6307065990918" stroke="#808" stroke-width="2"></line><line x1="318.5" y1="308.3864594602181" x2="315.5" y2="303.19030703751145" stroke="#808" stroke-width="2"></line><line x1="249.5" y1="308.3864594602181" x2="252.5" y2="303.19030703751145" stroke="#808" stroke-width="2"></line><line x1="485" y1="248.6307065990918" x2="479" y2="248.6307065990918" stroke="#808" stroke-width="2"></line><line x1="450.5" y1="308.3864594602181" x2="447.5" y2="303.19030703751145" stroke="#808" stroke-width="2"></line><line x1="381.5" y1="308.3864594602181" x2="384.5" y2="303.19030703751145" stroke="#808" stroke-width="2"></line><line x1="155" y1="362.9460598986377" x2="149" y2="362.9460598986377" stroke="#808" stroke-width="2"></line><line x1="120.5" y1="422.701812759764" x2="117.5" y2="417.50566033705735" stroke="#808" stroke-width="2"></line><line x1="51.5" y1="422.701812759764" x2="54.5" y2="417.50566033705735" stroke="#808" stroke-width="2"></line><line x1="287" y1="362.9460598986377" x2="281" y2="362.9460598986377" stroke="#808" stroke-width="2"></line><line x1="252.5" y1="422.701812759764" x2="249.5" y2="417.50566033705735" stroke="#808" stroke-width="2"></line><line x1="183.5" y1="422.701812759764" x2="186.5" y2="417.50566033705735" stroke="#808" stroke-width="2"></line><line x1="419" y1="362.9460598986377" x2="413" y2="362.9460598986377" stroke="#808" stroke-width="2"></line><line x1="384.5" y1="422.701812759764" x2="381.5" y2="417.50566033705735" stroke="#808" stroke-width="2"></line><line x1="315.5" y1="422.701812759764" x2="318.5" y2="417.50566033705735" stroke="#808" stroke-width="2"></line><line x1="551" y1="362.9460598986377" x2="545" y2="362.9460598986377" stroke="#808" stroke-width="2"></line><line x1="516.5" y1="422.701812759764" x2="513.5" y2="417.50566033705735" stroke="#808" stroke-width="2"></line><line x1="447.5" y1="422.701812759764" x2="450.5" y2="417.50566033705735" stroke="#808" stroke-width="2"></line><line x1="89" y1="477.2614131981836" x2="83" y2="477.2614131981836" stroke="#808" stroke-width="2"></line><line x1="54.5" y1="537.0171660593098" x2="51.5" y2="531.8210136366033" stroke="#808" stroke-width="2"></line><line x1="-14.5" y1="537.0171660593098" x2="-11.5" y2="531.8210136366033" stroke="#808" stroke-width="2"></line><line x1="221" y1="477.2614131981836" x2="215" y2="477.2614131981836" stroke="#808" stroke-width="2"></line><line x1="186.5" y1="537.0171660593098" x2="183.5" y2="531.8210136366033" stroke="#808" stroke-width="2"></line><line x1="117.5" y1="537.0171660593098" x2="120.5" y2="531.8210136366033" stroke="#808" stroke-width="2"></line><line x1="353" y1="477.2614131981836" x2="347" y2="477.2614131981836" stroke="#808" stroke-width="2"></line><line x1="318.5" y1="537.0171660593098" x2="315.5" y2="531.8210136366033" stroke="#808" stroke-width="2"></line><line x1="249.5" y1="537.0171660593098" x2="252.5" y2="531.8210136366033" stroke="#808" stroke-width="2"></line><line x1="485" y1="477.2614131981836" x2="479" y2="477.2614131981836" stroke="#808" stroke-width="2"></line><line x1="450.5" y1="537.0171660593098" x2="447.5" y2="531.8210136366033" stroke="#808" stroke-width="2"></line><line x1="381.5" y1="537.0171660593098" x2="384.5" y2="531.8210136366033" stroke="#808" stroke-width="2"></line></svg>
