<svg viewBox="-2.5 15 517.5 464.66333698683025" xmlns="http://www.w3.org/2000/svg" version="1.1"><path d="
M 55 20 C
90 20
90 20
125 20
" stroke="rgb(25,25,102)" stroke-width="5" fill-opacity="0.0"></path><path d="
M 37.5 50.31088913245535 C
55 80.6217782649107
55 80.62177826491072
72.5 110.93266739736606
" stroke="rgb(25,61,102)" stroke-width="5" fill-opacity="0.0"></path><path d="
M 37.5 50.31088913245535 C
52.65544456622768 76.56088913245534
52.65544456622768 84.68266739736606
37.5 110.93266739736606
" stroke="rgb(25,74,102)" stroke-width="5" fill-opacity="0.0"></path><path d="
M 125 20 C
160 20
160 20
195 20
" stroke="rgb(25,36,102)" stroke-width="5" fill-opacity="0.0"></path><path d="
M 107.5 50.31088913245535 C
125 80.6217782649107
125 80.62177826491072
142.5 110.93266739736606
" stroke="rgb(25,152,102)" stroke-width="5" fill-opacity="0.0"></path><path d="
M 107.5 50.31088913245535 C
122.65544456622767 76.56088913245534
122.65544456622767 84.68266739736606
107.5 110.93266739736606
" stroke="rgb(25,125,102)" stroke-width="5" fill-opacity="0.0"></path><path d="
M 72.5 50.31088913245535 C
57.34455543377232 76.56088913245534
57.34455543377232 84.68266739736606
72.5 110.93266739736606
" stroke="rgb(25,61,102)" stroke-width="5" fill-opacity="0.0"></path><path d="
M 72.5 50.31088913245535 C
55 80.6217782649107
55 80.62177826491072
37.5 110.93266739736606
" stroke="rgb(25,74,102)" stroke-width="5" fill-opacity="0.0"></path><path d="
M 195 20 C
230 20
230 20
265 20
" stroke="rgb(25,36,102)" stroke-width="5" fill-opacity="0.0"></path><path d="
M 195 20 C
225.31088913245534 20
232.3445554337723 24.060889132455355
247.5 50.31088913245535
" stroke="rgb(25,52,102)" stroke-width="5" fill-opacity="0.0"></path><path d="
M 177.5 50.31088913245535 C
195 80.6217782649107
195 80.62177826491072
212.5 110.93266739736606
" stroke="rgb(25,74,102)" stroke-width="5" fill-opacity="0.0"></path><path d="
M 142.5 50.31088913245535 C
125 80.6217782649107
125 80.62177826491072
107.5 110.93266739736606
" stroke="rgb(25,106,102)" stroke-width="5" fill-opacity="0.0"></path><path d="
M 265 20 C
300 20
300 20
335 20
" stroke="rgb(25,36,102)" stroke-width="5" fill-opacity="0.0"></path><path d="
M 247.5 50.31088913245535 C
265 80.6217782649107
265 80.62177826491072
282.5 110.93266739736606
" stroke="rgb(25,74,102)" stroke-width="5" fill-opacity="0.0"></path><path d="
M 212.5 50.31088913245535 C
195 80.6217782649107
195 80.62177826491072
177.5 110.93266739736606
" stroke="rgb(25,74,102)" stroke-width="5" fill-opacity="0.0"></path><path d="
M 335 20 C
370 20
370 20
405 20
" stroke="rgb(25,52,102)" stroke-width="5" fill-opacity="0.0"></path><path d="
M 317.5 50.31088913245535 C
335 80.6217782649107
335 80.62177826491072
352.5 110.93266739736606
" stroke="rgb(25,52,102)" stroke-width="5" fill-opacity="0.0"></path><path d="
M 282.5 50.31088913245535 C
267.3445554337723 76.56088913245534
267.3445554337723 84.68266739736606
282.5 110.93266739736606
" stroke="rgb(25,74,102)" stroke-width="5" fill-opacity="0.0"></path><path d="
M 282.5 50.31088913245535 C
265 80.6217782649107
265 80.62177826491072
247.5 110.93266739736606
" stroke="rgb(25,74,102)" stroke-width="5" fill-opacity="0.0"></path><path d="
M 405 20 C
374.6891108675446 20
367.6554445662277 24.060889132455355
352.5 50.31088913245535
" stroke="rgb(25,61,102)" stroke-width="5" fill-opacity="0.0"></path><path d="
M 405 20 C
440 20
440 20
475 20
" stroke="rgb(25,74,102)" stroke-width="5" fill-opacity="0.0"></path><path d="
M 405 20 C
435.3108891324554 20
442.3445554337723 24.060889132455355
457.5 50.31088913245535
" stroke="rgb(25,52,102)" stroke-width="5" fill-opacity="0.0"></path><path d="
M 387.5 50.31088913245535 C
405 80.6217782649107
405 80.62177826491072
422.5 110.93266739736606
" stroke="rgb(25,152,102)" stroke-width="5" fill-opacity="0.0"></path><path d="
M 387.5 50.31088913245535 C
402.6554445662277 76.56088913245534
402.6554445662277 84.68266739736606
387.5 110.93266739736606
" stroke="rgb(25,106,102)" stroke-width="5" fill-opacity="0.0"></path><path d="
M 352.5 50.31088913245535 C
335 80.6217782649107
335 80.62177826491072
317.5 110.93266739736606
" stroke="rgb(25,74,102)" stroke-width="5" fill-opacity="0.0"></path><path d="
M 475 20 C
444.6891108675446 20
437.6554445662277 24.060889132455355
422.5 50.31088913245535
" stroke="rgb(25,106,102)" stroke-width="5" fill-opacity="0.0"></path><path d="
M 457.5 50.31088913245535 C
475 80.6217782649107
475 80.62177826491072
492.5 110.93266739736606
" stroke="rgb(25,52,102)" stroke-width="5" fill-opacity="0.0"></path><path d="
M 422.5 50.31088913245535 C
407.3445554337723 76.56088913245534
407.3445554337723 84.68266739736606
422.5 110.93266739736606
" stroke="rgb(25,152,102)" stroke-width="5" fill-opacity="0.0"></path><path d="
M 422.5 50.31088913245535 C
405 80.6217782649107
405 80.62177826491072
387.5 110.93266739736606
" stroke="rgb(25,106,102)" stroke-width="5" fill-opacity="0.0"></path><path d="
M 90 80.6217782649107 C
125 80.6217782649107
125 80.6217782649107
160 80.6217782649107
" stroke="rgb(25,217,102)" stroke-width="5" fill-opacity="0.0"></path><path d="
M 90 80.6217782649107 C
120.31088913245536 80.6217782649107
127.34455543377233 84.68266739736606
142.5 110.93266739736606
" stroke="rgb(25,217,102)" stroke-width="5" fill-opacity="0.0"></path><path d="
M 72.5 110.93266739736606 C
87.65544456622767 137.18266739736606
94.68911086754466 141.2435565298214
125 141.2435565298214
" stroke="rgb(25,61,102)" stroke-width="5" fill-opacity="0.0"></path><path d="
M 72.5 110.93266739736606 C
90 141.2435565298214
90 141.2435565298214
107.5 171.55444566227675
" stroke="rgb(25,74,102)" stroke-width="5" fill-opacity="0.0"></path><path d="
M 72.5 110.93266739736606 C
87.65544456622767 137.18266739736606
87.65544456622767 145.30444566227675
72.5 171.55444566227675
" stroke="rgb(25,74,102)" stroke-width="5" fill-opacity="0.0"></path><path d="
M 37.5 110.93266739736606 C
22.344555433772328 137.18266739736606
22.344555433772328 145.30444566227675
37.5 171.55444566227675
" stroke="rgb(25,106,102)" stroke-width="5" fill-opacity="0.0"></path><path d="
M 37.5 110.93266739736606 C
20.000000000000004 141.2435565298214
19.999999999999996 141.2435565298214
2.5 171.55444566227675
" stroke="rgb(25,74,102)" stroke-width="5" fill-opacity="0.0"></path><path d="
M 160 80.6217782649107 C
129.68911086754466 80.6217782649107
122.65544456622767 84.68266739736606
107.5 110.93266739736606
" stroke="rgb(25,152,102)" stroke-width="5" fill-opacity="0.0"></path><path d="
M 160 80.6217782649107 C
195 80.6217782649107
195 80.6217782649107
230 80.6217782649107
" stroke="rgb(25,152,102)" stroke-width="5" fill-opacity="0.0"></path><path d="
M 142.5 110.93266739736606 C
160 141.2435565298214
160 141.2435565298214
177.5 171.55444566227675
" stroke="rgb(25,152,102)" stroke-width="5" fill-opacity="0.0"></path><path d="
M 142.5 110.93266739736606 C
157.6554445662277 137.18266739736606
157.6554445662277 145.30444566227675
142.5 171.55444566227675
" stroke="rgb(25,152,102)" stroke-width="5" fill-opacity="0.0"></path><path d="
M 107.5 110.93266739736606 C
92.34455543377233 137.18266739736606
85.31088913245534 141.2435565298214
55 141.2435565298214
" stroke="rgb(25,106,102)" stroke-width="5" fill-opacity="0.0"></path><path d="
M 107.5 110.93266739736606 C
92.34455543377233 137.18266739736606
92.34455543377233 145.30444566227675
107.5 171.55444566227675
" stroke="rgb(25,106,102)" stroke-width="5" fill-opacity="0.0"></path><path d="
M 107.5 110.93266739736606 C
90 141.2435565298214
90 141.2435565298214
72.5 171.55444566227675
" stroke="rgb(25,106,102)" stroke-width="5" fill-opacity="0.0"></path><path d="
M 230 80.6217782649107 C
199.68911086754466 80.6217782649107
192.6554445662277 84.68266739736606
177.5 110.93266739736606
" stroke="rgb(25,106,102)" stroke-width="5" fill-opacity="0.0"></path><path d="
M 230 80.6217782649107 C
265 80.6217782649107
265 80.6217782649107
300 80.6217782649107
" stroke="rgb(25,106,102)" stroke-width="5" fill-opacity="0.0"></path><path d="
M 230 80.6217782649107 C
260.3108891324554 80.6217782649107
267.3445554337723 84.68266739736606
282.5 110.93266739736606
" stroke="rgb(25,106,102)" stroke-width="5" fill-opacity="0.0"></path><path d="
M 212.5 110.93266739736606 C
230 141.2435565298214
230 141.2435565298214
247.5 171.55444566227675
" stroke="rgb(25,87,102)" stroke-width="5" fill-opacity="0.0"></path><path d="
M 212.5 110.93266739736606 C
227.6554445662277 137.18266739736606
227.6554445662277 145.30444566227675
212.5 171.55444566227675
" stroke="rgb(25,106,102)" stroke-width="5" fill-opacity="0.0"></path><path d="
M 177.5 110.93266739736606 C
162.3445554337723 137.18266739736606
155.31088913245534 141.2435565298214
125 141.2435565298214
" stroke="rgb(25,74,102)" stroke-width="5" fill-opacity="0.0"></path><path d="
M 177.5 110.93266739736606 C
160 141.2435565298214
160 141.2435565298214
142.5 171.55444566227675
" stroke="rgb(25,106,102)" stroke-width="5" fill-opacity="0.0"></path><path d="
M 300 80.6217782649107 C
269.6891108675446 80.6217782649107
262.6554445662277 84.68266739736606
247.5 110.93266739736606
" stroke="rgb(25,87,102)" stroke-width="5" fill-opacity="0.0"></path><path d="
M 300 80.6217782649107 C
335 80.6217782649107
335 80.6217782649107
370 80.6217782649107
" stroke="rgb(25,106,102)" stroke-width="5" fill-opacity="0.0"></path><path d="
M 300 80.6217782649107 C
330.3108891324554 80.6217782649107
337.3445554337723 84.68266739736606
352.5 110.93266739736606
" stroke="rgb(25,74,102)" stroke-width="5" fill-opacity="0.0"></path><path d="
M 282.5 110.93266739736606 C
300 141.2435565298214
300 141.2435565298214
317.5 171.55444566227675
" stroke="rgb(25,106,102)" stroke-width="5" fill-opacity="0.0"></path><path d="
M 247.5 110.93266739736606 C
230 141.2435565298214
230 141.2435565298214
212.5 171.55444566227675
" stroke="rgb(25,106,102)" stroke-width="5" fill-opacity="0.0"></path><path d="
M 370 80.6217782649107 C
405 80.6217782649107
405 80.6217782649107
440 80.6217782649107
" stroke="rgb(25,106,102)" stroke-width="5" fill-opacity="0.0"></path><path d="
M 370 80.6217782649107 C
400.3108891324554 80.6217782649107
407.3445554337723 84.68266739736606
422.5 110.93266739736606
" stroke="rgb(25,152,102)" stroke-width="5" fill-opacity="0.0"></path><path d="
M 352.5 110.93266739736606 C
370 141.2435565298214
370 141.2435565298214
387.5 171.55444566227675
" stroke="rgb(25,74,102)" stroke-width="5" fill-opacity="0.0"></path><path d="
M 352.5 110.93266739736606 C
367.6554445662277 137.18266739736606
367.6554445662277 145.30444566227675
352.5 171.55444566227675
" stroke="rgb(25,61,102)" stroke-width="5" fill-opacity="0.0"></path><path d="
M 317.5 110.93266739736606 C
302.3445554337723 137.18266739736606
295.3108891324554 141.2435565298214
265 141.2435565298214
" stroke="rgb(25,87,102)" stroke-width="5" fill-opacity="0.0"></path><path d="
M 317.5 110.93266739736606 C
302.3445554337723 137.18266739736606
302.3445554337723 145.30444566227675
317.5 171.55444566227675
" stroke="rgb(25,106,102)" stroke-width="5" fill-opacity="0.0"></path><path d="
M 317.5 110.93266739736606 C
300 141.2435565298214
300 141.2435565298214
282.5 171.55444566227675
" stroke="rgb(25,87,102)" stroke-width="5" fill-opacity="0.0"></path><path d="
M 440 80.6217782649107 C
475 80.6217782649107
475 80.6217782649107
510 80.6217782649107
" stroke="rgb(25,106,102)" stroke-width="5" fill-opacity="0.0"></path><path d="
M 440 80.6217782649107 C
470.3108891324554 80.6217782649107
477.3445554337723 84.68266739736606
492.5 110.93266739736606
" stroke="rgb(25,74,102)" stroke-width="5" fill-opacity="0.0"></path><path d="
M 422.5 110.93266739736606 C
440 141.2435565298214
440 141.2435565298214
457.5 171.55444566227675
" stroke="rgb(25,217,102)" stroke-width="5" fill-opacity="0.0"></path><path d="
M 422.5 110.93266739736606 C
437.6554445662277 137.18266739736606
437.6554445662277 145.30444566227675
422.5 171.55444566227675
" stroke="rgb(25,152,102)" stroke-width="5" fill-opacity="0.0"></path><path d="
M 387.5 110.93266739736606 C
372.3445554337723 137.18266739736606
365.3108891324554 141.2435565298214
335 141.2435565298214
" stroke="rgb(25,74,102)" stroke-width="5" fill-opacity="0.0"></path><path d="
M 387.5 110.93266739736606 C
372.3445554337723 137.18266739736606
372.3445554337723 145.30444566227675
387.5 171.55444566227675
" stroke="rgb(25,87,102)" stroke-width="5" fill-opacity="0.0"></path><path d="
M 387.5 110.93266739736606 C
370 141.2435565298214
370 141.2435565298214
352.5 171.55444566227675
" stroke="rgb(25,74,102)" stroke-width="5" fill-opacity="0.0"></path><path d="
M 510 80.6217782649107 C
479.6891108675446 80.6217782649107
472.6554445662277 84.68266739736606
457.5 110.93266739736606
" stroke="rgb(25,152,102)" stroke-width="5" fill-opacity="0.0"></path><path d="
M 457.5 110.93266739736606 C
442.3445554337723 137.18266739736606
442.3445554337723 145.30444566227675
457.5 171.55444566227675
" stroke="rgb(25,217,102)" stroke-width="5" fill-opacity="0.0"></path><path d="
M 457.5 110.93266739736606 C
440 141.2435565298214
440 141.2435565298214
422.5 171.55444566227675
" stroke="rgb(25,152,102)" stroke-width="5" fill-opacity="0.0"></path><path d="
M 55 141.2435565298214 C
90 141.2435565298214
90 141.2435565298214
125 141.2435565298214
" stroke="rgb(25,74,102)" stroke-width="5" fill-opacity="0.0"></path><path d="
M 37.5 171.55444566227675 C
55 201.86533479473212
55 201.86533479473212
72.5 232.17622392718746
" stroke="rgb(25,152,102)" stroke-width="5" fill-opacity="0.0"></path><path d="
M 37.5 171.55444566227675 C
52.65544456622768 197.80444566227675
52.65544456622768 205.92622392718746
37.5 232.17622392718746
" stroke="rgb(25,106,102)" stroke-width="5" fill-opacity="0.0"></path><path d="
M 125 141.2435565298214 C
160 141.2435565298214
160 141.2435565298214
195 141.2435565298214
" stroke="rgb(25,61,102)" stroke-width="5" fill-opacity="0.0"></path><path d="
M 107.5 171.55444566227675 C
125 201.86533479473212
125 201.86533479473212
142.5 232.17622392718746
" stroke="rgb(25,106,102)" stroke-width="5" fill-opacity="0.0"></path><path d="
M 107.5 171.55444566227675 C
122.65544456622769 197.80444566227675
122.65544456622769 205.92622392718746
107.5 232.17622392718746
" stroke="rgb(25,106,102)" stroke-width="5" fill-opacity="0.0"></path><path d="
M 72.5 171.55444566227675 C
55 201.86533479473212
55 201.86533479473212
37.5 232.17622392718746
" stroke="rgb(25,87,102)" stroke-width="5" fill-opacity="0.0"></path><path d="
M 195 141.2435565298214 C
230 141.2435565298214
230 141.2435565298214
265 141.2435565298214
" stroke="rgb(25,74,102)" stroke-width="5" fill-opacity="0.0"></path><path d="
M 195 141.2435565298214 C
225.31088913245534 141.2435565298214
232.3445554337723 145.30444566227675
247.5 171.55444566227675
" stroke="rgb(25,74,102)" stroke-width="5" fill-opacity="0.0"></path><path d="
M 177.5 171.55444566227675 C
195 201.86533479473212
195 201.86533479473212
212.5 232.17622392718746
" stroke="rgb(25,106,102)" stroke-width="5" fill-opacity="0.0"></path><path d="
M 177.5 171.55444566227675 C
192.6554445662277 197.80444566227675
192.6554445662277 205.92622392718746
177.5 232.17622392718746
" stroke="rgb(25,152,102)" stroke-width="5" fill-opacity="0.0"></path><path d="
M 142.5 171.55444566227675 C
127.34455543377231 197.80444566227675
120.31088913245536 201.86533479473212
90 201.86533479473212
" stroke="rgb(25,106,102)" stroke-width="5" fill-opacity="0.0"></path><path d="
M 142.5 171.55444566227675 C
125 201.86533479473212
125 201.86533479473212
107.5 232.17622392718746
" stroke="rgb(25,125,102)" stroke-width="5" fill-opacity="0.0"></path><path d="
M 265 141.2435565298214 C
300 141.2435565298214
300 141.2435565298214
335 141.2435565298214
" stroke="rgb(25,74,102)" stroke-width="5" fill-opacity="0.0"></path><path d="
M 265 141.2435565298214 C
295.3108891324554 141.2435565298214
302.3445554337723 145.30444566227675
317.5 171.55444566227675
" stroke="rgb(25,106,102)" stroke-width="5" fill-opacity="0.0"></path><path d="
M 247.5 171.55444566227675 C
265 201.86533479473212
265 201.86533479473212
282.5 232.17622392718746
" stroke="rgb(25,87,102)" stroke-width="5" fill-opacity="0.0"></path><path d="
M 247.5 171.55444566227675 C
262.6554445662277 197.80444566227675
262.6554445662277 205.92622392718746
247.5 232.17622392718746
" stroke="rgb(25,106,102)" stroke-width="5" fill-opacity="0.0"></path><path d="
M 212.5 171.55444566227675 C
197.3445554337723 197.80444566227675
190.31088913245537 201.86533479473212
160 201.86533479473212
" stroke="rgb(25,106,102)" stroke-width="5" fill-opacity="0.0"></path><path d="
M 212.5 171.55444566227675 C
195 201.86533479473212
195 201.86533479473212
177.5 232.17622392718746
" stroke="rgb(25,152,102)" stroke-width="5" fill-opacity="0.0"></path><path d="
M 335 141.2435565298214 C
304.6891108675446 141.2435565298214
297.6554445662277 145.30444566227675
282.5 171.55444566227675
" stroke="rgb(25,74,102)" stroke-width="5" fill-opacity="0.0"></path><path d="
M 335 141.2435565298214 C
370 141.2435565298214
370 141.2435565298214
405 141.2435565298214
" stroke="rgb(25,61,102)" stroke-width="5" fill-opacity="0.0"></path><path d="
M 317.5 171.55444566227675 C
335 201.86533479473212
335 201.86533479473212
352.5 232.17622392718746
" stroke="rgb(25,152,102)" stroke-width="5" fill-opacity="0.0"></path><path d="
M 317.5 171.55444566227675 C
332.6554445662277 197.80444566227675
332.6554445662277 205.92622392718746
317.5 232.17622392718746
" stroke="rgb(25,106,102)" stroke-width="5" fill-opacity="0.0"></path><path d="
M 282.5 171.55444566227675 C
267.3445554337723 197.80444566227675
267.3445554337723 205.92622392718746
282.5 232.17622392718746
" stroke="rgb(25,87,102)" stroke-width="5" fill-opacity="0.0"></path><path d="
M 282.5 171.55444566227675 C
265 201.86533479473212
265 201.86533479473212
247.5 232.17622392718746
" stroke="rgb(25,106,102)" stroke-width="5" fill-opacity="0.0"></path><path d="
M 405 141.2435565298214 C
440 141.2435565298214
440 141.2435565298214
475 141.2435565298214
" stroke="rgb(25,74,102)" stroke-width="5" fill-opacity="0.0"></path><path d="
M 387.5 171.55444566227675 C
402.6554445662277 197.80444566227675
409.6891108675446 201.86533479473212
440 201.86533479473212
" stroke="rgb(25,106,102)" stroke-width="5" fill-opacity="0.0"></path><path d="
M 387.5 171.55444566227675 C
405 201.86533479473212
405 201.86533479473212
422.5 232.17622392718746
" stroke="rgb(25,87,102)" stroke-width="5" fill-opacity="0.0"></path><path d="
M 387.5 171.55444566227675 C
402.6554445662277 197.80444566227675
402.6554445662277 205.92622392718746
387.5 232.17622392718746
" stroke="rgb(25,106,102)" stroke-width="5" fill-opacity="0.0"></path><path d="
M 352.5 171.55444566227675 C
337.3445554337723 197.80444566227675
330.3108891324554 201.86533479473212
300 201.86533479473212
" stroke="rgb(25,74,102)" stroke-width="5" fill-opacity="0.0"></path><path d="
M 352.5 171.55444566227675 C
335 201.86533479473212
335 201.86533479473212
317.5 232.17622392718746
" stroke="rgb(25,74,102)" stroke-width="5" fill-opacity="0.0"></path><path d="
M 475 141.2435565298214 C
444.6891108675446 141.2435565298214
437.6554445662277 145.30444566227675
422.5 171.55444566227675
" stroke="rgb(25,106,102)" stroke-width="5" fill-opacity="0.0"></path><path d="
M 457.5 171.55444566227675 C
472.6554445662277 197.80444566227675
479.6891108675446 201.86533479473212
510 201.86533479473212
" stroke="rgb(25,217,102)" stroke-width="5" fill-opacity="0.0"></path><path d="
M 457.5 171.55444566227675 C
475 201.86533479473212
475 201.86533479473212
492.5 232.17622392718746
" stroke="rgb(25,217,102)" stroke-width="5" fill-opacity="0.0"></path><path d="
M 422.5 171.55444566227675 C
407.3445554337723 197.80444566227675
400.3108891324554 201.86533479473212
370 201.86533479473212
" stroke="rgb(25,106,102)" stroke-width="5" fill-opacity="0.0"></path><path d="
M 422.5 171.55444566227675 C
405 201.86533479473212
405 201.86533479473212
387.5 232.17622392718746
" stroke="rgb(25,125,102)" stroke-width="5" fill-opacity="0.0"></path><path d="
M 90 201.86533479473212 C
125 201.86533479473212
125 201.86533479473212
160 201.86533479473212
" stroke="rgb(25,87,102)" stroke-width="5" fill-opacity="0.0"></path><path d="
M 90 201.86533479473212 C
120.31088913245534 201.86533479473212
127.34455543377233 205.92622392718746
142.5 232.17622392718746
" stroke="rgb(25,106,102)" stroke-width="5" fill-opacity="0.0"></path><path d="
M 72.5 232.17622392718746 C
87.65544456622767 258.42622392718744
94.68911086754466 262.4871130596428
125 262.4871130596428
" stroke="rgb(25,217,102)" stroke-width="5" fill-opacity="0.0"></path><path d="
M 72.5 232.17622392718746 C
90 262.4871130596428
90 262.4871130596428
107.5 292.7980021920982
" stroke="rgb(25,152,102)" stroke-width="5" fill-opacity="0.0"></path><path d="
M 72.5 232.17622392718746 C
87.65544456622769 258.4262239271875
87.65544456622769 266.5480021920982
72.5 292.7980021920982
" stroke="rgb(25,152,102)" stroke-width="5" fill-opacity="0.0"></path><path d="
M 37.5 232.17622392718746 C
19.999999999999996 262.4871130596428
20.000000000000004 262.4871130596428
2.5 292.7980021920982
" stroke="rgb(25,106,102)" stroke-width="5" fill-opacity="0.0"></path><path d="
M 160 201.86533479473212 C
129.68911086754466 201.86533479473212
122.65544456622767 205.92622392718746
107.5 232.17622392718746
" stroke="rgb(25,106,102)" stroke-width="5" fill-opacity="0.0"></path><path d="
M 160 201.86533479473212 C
195 201.86533479473212
195 201.86533479473212
230 201.86533479473212
" stroke="rgb(25,106,102)" stroke-width="5" fill-opacity="0.0"></path><path d="
M 142.5 232.17622392718746 C
157.6554445662277 258.42622392718744
164.68911086754466 262.4871130596428
195 262.4871130596428
" stroke="rgb(25,152,102)" stroke-width="5" fill-opacity="0.0"></path><path d="
M 142.5 232.17622392718746 C
160 262.4871130596428
160 262.4871130596428
177.5 292.7980021920982
" stroke="rgb(25,152,102)" stroke-width="5" fill-opacity="0.0"></path><path d="
M 107.5 232.17622392718746 C
92.34455543377233 258.42622392718744
85.31088913245534 262.4871130596428
55 262.4871130596428
" stroke="rgb(25,152,102)" stroke-width="5" fill-opacity="0.0"></path><path d="
M 107.5 232.17622392718746 C
92.34455543377231 258.4262239271875
92.34455543377231 266.5480021920982
107.5 292.7980021920982
" stroke="rgb(25,125,102)" stroke-width="5" fill-opacity="0.0"></path><path d="
M 107.5 232.17622392718746 C
90 262.4871130596428
90 262.4871130596428
72.5 292.7980021920982
" stroke="rgb(25,125,102)" stroke-width="5" fill-opacity="0.0"></path><path d="
M 230 201.86533479473212 C
199.68911086754466 201.86533479473212
192.6554445662277 205.92622392718746
177.5 232.17622392718746
" stroke="rgb(25,152,102)" stroke-width="5" fill-opacity="0.0"></path><path d="
M 230 201.86533479473212 C
265 201.86533479473212
265 201.86533479473212
300 201.86533479473212
" stroke="rgb(25,106,102)" stroke-width="5" fill-opacity="0.0"></path><path d="
M 230 201.86533479473212 C
260.3108891324554 201.86533479473212
267.3445554337723 205.92622392718746
282.5 232.17622392718746
" stroke="rgb(25,106,102)" stroke-width="5" fill-opacity="0.0"></path><path d="
M 212.5 232.17622392718746 C
227.6554445662277 258.42622392718744
234.68911086754466 262.4871130596428
265 262.4871130596428
" stroke="rgb(25,106,102)" stroke-width="5" fill-opacity="0.0"></path><path d="
M 212.5 232.17622392718746 C
230 262.4871130596428
230 262.4871130596428
247.5 292.7980021920982
" stroke="rgb(25,74,102)" stroke-width="5" fill-opacity="0.0"></path><path d="
M 177.5 232.17622392718746 C
162.3445554337723 258.42622392718744
155.31088913245534 262.4871130596428
125 262.4871130596428
" stroke="rgb(25,217,102)" stroke-width="5" fill-opacity="0.0"></path><path d="
M 177.5 232.17622392718746 C
162.3445554337723 258.4262239271875
162.3445554337723 266.5480021920982
177.5 292.7980021920982
" stroke="rgb(25,179,102)" stroke-width="5" fill-opacity="0.0"></path><path d="
M 177.5 232.17622392718746 C
160 262.4871130596428
160 262.4871130596428
142.5 292.7980021920982
" stroke="rgb(25,152,102)" stroke-width="5" fill-opacity="0.0"></path><path d="
M 300 201.86533479473212 C
335 201.86533479473212
335 201.86533479473212
370 201.86533479473212
" stroke="rgb(25,87,102)" stroke-width="5" fill-opacity="0.0"></path><path d="
M 282.5 232.17622392718746 C
300 262.4871130596428
300 262.4871130596428
317.5 292.7980021920982
" stroke="rgb(25,87,102)" stroke-width="5" fill-opacity="0.0"></path><path d="
M 282.5 232.17622392718746 C
297.6554445662277 258.4262239271875
297.6554445662277 266.5480021920982
282.5 292.7980021920982
" stroke="rgb(25,106,102)" stroke-width="5" fill-opacity="0.0"></path><path d="
M 247.5 232.17622392718746 C
232.3445554337723 258.42622392718744
225.31088913245534 262.4871130596428
195 262.4871130596428
" stroke="rgb(25,152,102)" stroke-width="5" fill-opacity="0.0"></path><path d="
M 247.5 232.17622392718746 C
230 262.4871130596428
230 262.4871130596428
212.5 292.7980021920982
" stroke="rgb(25,106,102)" stroke-width="5" fill-opacity="0.0"></path><path d="
M 370 201.86533479473212 C
405 201.86533479473212
405 201.86533479473212
440 201.86533479473212
" stroke="rgb(25,106,102)" stroke-width="5" fill-opacity="0.0"></path><path d="
M 370 201.86533479473212 C
400.3108891324554 201.86533479473212
407.3445554337723 205.92622392718746
422.5 232.17622392718746
" stroke="rgb(25,87,102)" stroke-width="5" fill-opacity="0.0"></path><path d="
M 352.5 232.17622392718746 C
367.6554445662277 258.42622392718744
374.6891108675446 262.4871130596428
405 262.4871130596428
" stroke="rgb(25,217,102)" stroke-width="5" fill-opacity="0.0"></path><path d="
M 352.5 232.17622392718746 C
370 262.4871130596428
370 262.4871130596428
387.5 292.7980021920982
" stroke="rgb(25,152,102)" stroke-width="5" fill-opacity="0.0"></path><path d="
M 352.5 232.17622392718746 C
367.6554445662277 258.4262239271875
367.6554445662277 266.5480021920982
352.5 292.7980021920982
" stroke="rgb(25,179,102)" stroke-width="5" fill-opacity="0.0"></path><path d="
M 317.5 232.17622392718746 C
302.3445554337723 258.4262239271875
302.3445554337723 266.5480021920982
317.5 292.7980021920982
" stroke="rgb(25,87,102)" stroke-width="5" fill-opacity="0.0"></path><path d="
M 317.5 232.17622392718746 C
300 262.4871130596428
300 262.4871130596428
282.5 292.7980021920982
" stroke="rgb(25,106,102)" stroke-width="5" fill-opacity="0.0"></path><path d="
M 440 201.86533479473212 C
409.6891108675446 201.86533479473212
402.6554445662277 205.92622392718746
387.5 232.17622392718746
" stroke="rgb(25,125,102)" stroke-width="5" fill-opacity="0.0"></path><path d="
M 440 201.86533479473212 C
475 201.86533479473212
475 201.86533479473212
510 201.86533479473212
" stroke="rgb(25,152,102)" stroke-width="5" fill-opacity="0.0"></path><path d="
M 422.5 232.17622392718746 C
440 262.4871130596428
440 262.4871130596428
457.5 292.7980021920982
" stroke="rgb(25,87,102)" stroke-width="5" fill-opacity="0.0"></path><path d="
M 422.5 232.17622392718746 C
437.6554445662277 258.4262239271875
437.6554445662277 266.5480021920982
422.5 292.7980021920982
" stroke="rgb(25,106,102)" stroke-width="5" fill-opacity="0.0"></path><path d="
M 387.5 232.17622392718746 C
370 262.4871130596428
370 262.4871130596428
352.5 292.7980021920982
" stroke="rgb(25,152,102)" stroke-width="5" fill-opacity="0.0"></path><path d="
M 510 201.86533479473212 C
479.6891108675446 201.86533479473212
472.6554445662277 205.92622392718746
457.5 232.17622392718746
" stroke="rgb(25,179,102)" stroke-width="5" fill-opacity="0.0"></path><path d="
M 457.5 232.17622392718746 C
442.3445554337723 258.42622392718744
435.3108891324554 262.4871130596428
405 262.4871130596428
" stroke="rgb(25,217,102)" stroke-width="5" fill-opacity="0.0"></path><path d="
M 457.5 232.17622392718746 C
440 262.4871130596428
440 262.4871130596428
422.5 292.7980021920982
" stroke="rgb(25,152,102)" stroke-width="5" fill-opacity="0.0"></path><path d="
M 55 262.4871130596428 C
24.689110867544642 262.4871130596428
17.65544456622768 266.5480021920982
2.5 292.7980021920982
" stroke="rgb(25,152,102)" stroke-width="5" fill-opacity="0.0"></path><path d="
M 55 262.4871130596428 C
90 262.4871130596428
90 262.4871130596428
125 262.4871130596428
" stroke="rgb(25,217,102)" stroke-width="5" fill-opacity="0.0"></path><path d="
M 37.5 292.7980021920982 C
52.65544456622767 319.0480021920982
59.689110867544656 323.1088913245535
90 323.1088913245535
" stroke="rgb(25,74,102)" stroke-width="5" fill-opacity="0.0"></path><path d="
M 37.5 292.7980021920982 C
55 323.1088913245535
55 323.1088913245535
72.5 353.41978045700887
" stroke="rgb(25,74,102)" stroke-width="5" fill-opacity="0.0"></path><path d="
M 125 262.4871130596428 C
160 262.4871130596428
160 262.4871130596428
195 262.4871130596428
" stroke="rgb(25,217,102)" stroke-width="5" fill-opacity="0.0"></path><path d="
M 125 262.4871130596428 C
155.31088913245537 262.4871130596428
162.3445554337723 266.5480021920982
177.5 292.7980021920982
" stroke="rgb(25,217,102)" stroke-width="5" fill-opacity="0.0"></path><path d="
M 107.5 292.7980021920982 C
125 323.1088913245535
125 323.1088913245535
142.5 353.41978045700887
" stroke="rgb(25,106,102)" stroke-width="5" fill-opacity="0.0"></path><path d="
M 72.5 292.7980021920982 C
55 323.1088913245535
55 323.1088913245535
37.5 353.41978045700887
" stroke="rgb(25,106,102)" stroke-width="5" fill-opacity="0.0"></path><path d="
M 195 262.4871130596428 C
164.68911086754463 262.4871130596428
157.6554445662277 266.5480021920982
142.5 292.7980021920982
" stroke="rgb(25,152,102)" stroke-width="5" fill-opacity="0.0"></path><path d="
M 195 262.4871130596428 C
230 262.4871130596428
230 262.4871130596428
265 262.4871130596428
" stroke="rgb(25,152,102)" stroke-width="5" fill-opacity="0.0"></path><path d="
M 177.5 292.7980021920982 C
192.6554445662277 319.0480021920982
199.68911086754466 323.1088913245535
230 323.1088913245535
" stroke="rgb(25,152,102)" stroke-width="5" fill-opacity="0.0"></path><path d="
M 177.5 292.7980021920982 C
195 323.1088913245535
195 323.1088913245535
212.5 353.41978045700887
" stroke="rgb(25,152,102)" stroke-width="5" fill-opacity="0.0"></path><path d="
M 177.5 292.7980021920982 C
192.6554445662277 319.0480021920982
192.6554445662277 327.16978045700887
177.5 353.41978045700887
" stroke="rgb(25,152,102)" stroke-width="5" fill-opacity="0.0"></path><path d="
M 142.5 292.7980021920982 C
127.34455543377233 319.0480021920982
120.31088913245534 323.1088913245535
90 323.1088913245535
" stroke="rgb(25,106,102)" stroke-width="5" fill-opacity="0.0"></path><path d="
M 142.5 292.7980021920982 C
127.34455543377233 319.0480021920982
127.34455543377233 327.16978045700887
142.5 353.41978045700887
" stroke="rgb(25,106,102)" stroke-width="5" fill-opacity="0.0"></path><path d="
M 142.5 292.7980021920982 C
125 323.1088913245535
125 323.1088913245535
107.5 353.41978045700887
" stroke="rgb(25,106,102)" stroke-width="5" fill-opacity="0.0"></path><path d="
M 265 262.4871130596428 C
234.68911086754463 262.4871130596428
227.6554445662277 266.5480021920982
212.5 292.7980021920982
" stroke="rgb(25,106,102)" stroke-width="5" fill-opacity="0.0"></path><path d="
M 265 262.4871130596428 C
300 262.4871130596428
300 262.4871130596428
335 262.4871130596428
" stroke="rgb(25,152,102)" stroke-width="5" fill-opacity="0.0"></path><path d="
M 265 262.4871130596428 C
295.3108891324554 262.4871130596428
302.3445554337723 266.5480021920982
317.5 292.7980021920982
" stroke="rgb(25,106,102)" stroke-width="5" fill-opacity="0.0"></path><path d="
M 247.5 292.7980021920982 C
262.6554445662277 319.0480021920982
269.6891108675446 323.1088913245535
300 323.1088913245535
" stroke="rgb(25,74,102)" stroke-width="5" fill-opacity="0.0"></path><path d="
M 247.5 292.7980021920982 C
265 323.1088913245535
265 323.1088913245535
282.5 353.41978045700887
" stroke="rgb(25,74,102)" stroke-width="5" fill-opacity="0.0"></path><path d="
M 247.5 292.7980021920982 C
262.6554445662277 319.0480021920982
262.6554445662277 327.16978045700887
247.5 353.41978045700887
" stroke="rgb(25,74,102)" stroke-width="5" fill-opacity="0.0"></path><path d="
M 212.5 292.7980021920982 C
195 323.1088913245535
195 323.1088913245535
177.5 353.41978045700887
" stroke="rgb(25,106,102)" stroke-width="5" fill-opacity="0.0"></path><path d="
M 335 262.4871130596428 C
304.6891108675446 262.4871130596428
297.6554445662277 266.5480021920982
282.5 292.7980021920982
" stroke="rgb(25,152,102)" stroke-width="5" fill-opacity="0.0"></path><path d="
M 335 262.4871130596428 C
370 262.4871130596428
370 262.4871130596428
405 262.4871130596428
" stroke="rgb(25,217,102)" stroke-width="5" fill-opacity="0.0"></path><path d="
M 335 262.4871130596428 C
365.3108891324554 262.4871130596428
372.3445554337723 266.5480021920982
387.5 292.7980021920982
" stroke="rgb(25,152,102)" stroke-width="5" fill-opacity="0.0"></path><path d="
M 317.5 292.7980021920982 C
332.6554445662277 319.0480021920982
339.6891108675446 323.1088913245535
370 323.1088913245535
" stroke="rgb(25,87,102)" stroke-width="5" fill-opacity="0.0"></path><path d="
M 317.5 292.7980021920982 C
335 323.1088913245535
335 323.1088913245535
352.5 353.41978045700887
" stroke="rgb(25,106,102)" stroke-width="5" fill-opacity="0.0"></path><path d="
M 282.5 292.7980021920982 C
267.3445554337723 319.0480021920982
267.3445554337723 327.16978045700887
282.5 353.41978045700887
" stroke="rgb(25,106,102)" stroke-width="5" fill-opacity="0.0"></path><path d="
M 282.5 292.7980021920982 C
265 323.1088913245535
265 323.1088913245535
247.5 353.41978045700887
" stroke="rgb(25,106,102)" stroke-width="5" fill-opacity="0.0"></path><path d="
M 405 262.4871130596428 C
374.6891108675446 262.4871130596428
367.6554445662277 266.5480021920982
352.5 292.7980021920982
" stroke="rgb(25,217,102)" stroke-width="5" fill-opacity="0.0"></path><path d="
M 405 262.4871130596428 C
440 262.4871130596428
440 262.4871130596428
475 262.4871130596428
" stroke="rgb(25,217,102)" stroke-width="5" fill-opacity="0.0"></path><path d="
M 387.5 292.7980021920982 C
405 323.1088913245535
405 323.1088913245535
422.5 353.41978045700887
" stroke="rgb(25,106,102)" stroke-width="5" fill-opacity="0.0"></path><path d="
M 352.5 292.7980021920982 C
337.3445554337723 319.0480021920982
337.3445554337723 327.16978045700887
352.5 353.41978045700887
" stroke="rgb(25,152,102)" stroke-width="5" fill-opacity="0.0"></path><path d="
M 352.5 292.7980021920982 C
335 323.1088913245535
335 323.1088913245535
317.5 353.41978045700887
" stroke="rgb(25,152,102)" stroke-width="5" fill-opacity="0.0"></path><path d="
M 475 262.4871130596428 C
444.6891108675446 262.4871130596428
437.6554445662277 266.5480021920982
422.5 292.7980021920982
" stroke="rgb(25,152,102)" stroke-width="5" fill-opacity="0.0"></path><path d="
M 457.5 292.7980021920982 C
475 323.1088913245535
475 323.1088913245535
492.5 353.41978045700887
" stroke="rgb(25,74,102)" stroke-width="5" fill-opacity="0.0"></path><path d="
M 457.5 292.7980021920982 C
472.6554445662277 319.0480021920982
472.6554445662277 327.16978045700887
457.5 353.41978045700887
" stroke="rgb(25,106,102)" stroke-width="5" fill-opacity="0.0"></path><path d="
M 422.5 292.7980021920982 C
407.3445554337723 319.0480021920982
400.3108891324554 323.1088913245535
370 323.1088913245535
" stroke="rgb(25,106,102)" stroke-width="5" fill-opacity="0.0"></path><path d="
M 422.5 292.7980021920982 C
405 323.1088913245535
405 323.1088913245535
387.5 353.41978045700887
" stroke="rgb(25,106,102)" stroke-width="5" fill-opacity="0.0"></path><path d="
M 90 323.1088913245535 C
59.68911086754464 323.1088913245535
52.65544456622768 327.16978045700887
37.5 353.41978045700887
" stroke="rgb(25,87,102)" stroke-width="5" fill-opacity="0.0"></path><path d="
M 90 323.1088913245535 C
125 323.1088913245535
125 323.1088913245535
160 323.1088913245535
" stroke="rgb(25,87,102)" stroke-width="5" fill-opacity="0.0"></path><path d="
M 72.5 353.41978045700887 C
90 383.73066958946424
90 383.73066958946424
107.5 414.04155872191956
" stroke="rgb(25,106,102)" stroke-width="5" fill-opacity="0.0"></path><path d="
M 72.5 353.41978045700887 C
87.65544456622767 379.66978045700887
87.65544456622767 387.79155872191956
72.5 414.04155872191956
" stroke="rgb(25,87,102)" stroke-width="5" fill-opacity="0.0"></path><path d="
M 37.5 353.41978045700887 C
20.000000000000004 383.73066958946424
19.999999999999996 383.73066958946424
2.5 414.04155872191956
" stroke="rgb(25,74,102)" stroke-width="5" fill-opacity="0.0"></path><path d="
M 160 323.1088913245535 C
195 323.1088913245535
195 323.1088913245535
230 323.1088913245535
" stroke="rgb(25,106,102)" stroke-width="5" fill-opacity="0.0"></path><path d="
M 142.5 353.41978045700887 C
160 383.73066958946424
160 383.73066958946424
177.5 414.04155872191956
" stroke="rgb(25,106,102)" stroke-width="5" fill-opacity="0.0"></path><path d="
M 107.5 353.41978045700887 C
90 383.73066958946424
90 383.73066958946424
72.5 414.04155872191956
" stroke="rgb(25,87,102)" stroke-width="5" fill-opacity="0.0"></path><path d="
M 230 323.1088913245535 C
265 323.1088913245535
265 323.1088913245535
300 323.1088913245535
" stroke="rgb(25,106,102)" stroke-width="5" fill-opacity="0.0"></path><path d="
M 230 323.1088913245535 C
260.3108891324554 323.1088913245535
267.3445554337723 327.16978045700887
282.5 353.41978045700887
" stroke="rgb(25,106,102)" stroke-width="5" fill-opacity="0.0"></path><path d="
M 212.5 353.41978045700887 C
227.6554445662277 379.66978045700887
234.68911086754466 383.7306695894642
265 383.7306695894642
" stroke="rgb(25,106,102)" stroke-width="5" fill-opacity="0.0"></path><path d="
M 212.5 353.41978045700887 C
230 383.73066958946424
230 383.73066958946424
247.5 414.04155872191956
" stroke="rgb(25,106,102)" stroke-width="5" fill-opacity="0.0"></path><path d="
M 212.5 353.41978045700887 C
227.6554445662277 379.66978045700887
227.6554445662277 387.79155872191956
212.5 414.04155872191956
" stroke="rgb(25,106,102)" stroke-width="5" fill-opacity="0.0"></path><path d="
M 177.5 353.41978045700887 C
160 383.73066958946424
160 383.73066958946424
142.5 414.04155872191956
" stroke="rgb(25,125,102)" stroke-width="5" fill-opacity="0.0"></path><path d="
M 300 323.1088913245535 C
269.6891108675446 323.1088913245535
262.6554445662277 327.16978045700887
247.5 353.41978045700887
" stroke="rgb(25,87,102)" stroke-width="5" fill-opacity="0.0"></path><path d="
M 300 323.1088913245535 C
335 323.1088913245535
335 323.1088913245535
370 323.1088913245535
" stroke="rgb(25,87,102)" stroke-width="5" fill-opacity="0.0"></path><path d="
M 300 323.1088913245535 C
330.3108891324554 323.1088913245535
337.3445554337723 327.16978045700887
352.5 353.41978045700887
" stroke="rgb(25,106,102)" stroke-width="5" fill-opacity="0.0"></path><path d="
M 282.5 353.41978045700887 C
300 383.73066958946424
300 383.73066958946424
317.5 414.04155872191956
" stroke="rgb(25,74,102)" stroke-width="5" fill-opacity="0.0"></path><path d="
M 247.5 353.41978045700887 C
232.3445554337723 379.66978045700887
225.31088913245534 383.7306695894642
195 383.7306695894642
" stroke="rgb(25,87,102)" stroke-width="5" fill-opacity="0.0"></path><path d="
M 247.5 353.41978045700887 C
232.3445554337723 379.66978045700887
232.3445554337723 387.79155872191956
247.5 414.04155872191956
" stroke="rgb(25,87,102)" stroke-width="5" fill-opacity="0.0"></path><path d="
M 247.5 353.41978045700887 C
230 383.73066958946424
230 383.73066958946424
212.5 414.04155872191956
" stroke="rgb(25,87,102)" stroke-width="5" fill-opacity="0.0"></path><path d="
M 370 323.1088913245535 C
339.6891108675446 323.1088913245535
332.6554445662277 327.16978045700887
317.5 353.41978045700887
" stroke="rgb(25,106,102)" stroke-width="5" fill-opacity="0.0"></path><path d="
M 370 323.1088913245535 C
405 323.1088913245535
405 323.1088913245535
440 323.1088913245535
" stroke="rgb(25,74,102)" stroke-width="5" fill-opacity="0.0"></path><path d="
M 352.5 353.41978045700887 C
367.6554445662277 379.66978045700887
374.6891108675446 383.7306695894642
405 383.7306695894642
" stroke="rgb(25,106,102)" stroke-width="5" fill-opacity="0.0"></path><path d="
M 352.5 353.41978045700887 C
370 383.73066958946424
370 383.73066958946424
387.5 414.04155872191956
" stroke="rgb(25,152,102)" stroke-width="5" fill-opacity="0.0"></path><path d="
M 352.5 353.41978045700887 C
367.6554445662277 379.66978045700887
367.6554445662277 387.79155872191956
352.5 414.04155872191956
" stroke="rgb(25,106,102)" stroke-width="5" fill-opacity="0.0"></path><path d="
M 317.5 353.41978045700887 C
302.3445554337723 379.66978045700887
295.3108891324554 383.7306695894642
265 383.7306695894642
" stroke="rgb(25,106,102)" stroke-width="5" fill-opacity="0.0"></path><path d="
M 317.5 353.41978045700887 C
300 383.73066958946424
300 383.73066958946424
282.5 414.04155872191956
" stroke="rgb(25,106,102)" stroke-width="5" fill-opacity="0.0"></path><path d="
M 440 323.1088913245535 C
475 323.1088913245535
475 323.1088913245535
510 323.1088913245535
" stroke="rgb(25,74,102)" stroke-width="5" fill-opacity="0.0"></path><path d="
M 422.5 353.41978045700887 C
437.6554445662277 379.66978045700887
444.6891108675446 383.7306695894642
475 383.7306695894642
" stroke="rgb(25,74,102)" stroke-width="5" fill-opacity="0.0"></path><path d="
M 422.5 353.41978045700887 C
440 383.73066958946424
440 383.73066958946424
457.5 414.04155872191956
" stroke="rgb(25,87,102)" stroke-width="5" fill-opacity="0.0"></path><path d="
M 387.5 353.41978045700887 C
372.3445554337723 379.66978045700887
365.3108891324554 383.7306695894642
335 383.7306695894642
" stroke="rgb(25,106,102)" stroke-width="5" fill-opacity="0.0"></path><path d="
M 387.5 353.41978045700887 C
370 383.73066958946424
370 383.73066958946424
352.5 414.04155872191956
" stroke="rgb(25,87,102)" stroke-width="5" fill-opacity="0.0"></path><path d="
M 510 323.1088913245535 C
479.6891108675446 323.1088913245535
472.6554445662277 327.16978045700887
457.5 353.41978045700887
" stroke="rgb(25,106,102)" stroke-width="5" fill-opacity="0.0"></path><path d="
M 457.5 353.41978045700887 C
442.3445554337723 379.66978045700887
442.3445554337723 387.79155872191956
457.5 414.04155872191956
" stroke="rgb(25,106,102)" stroke-width="5" fill-opacity="0.0"></path><path d="
M 457.5 353.41978045700887 C
440 383.73066958946424
440 383.73066958946424
422.5 414.04155872191956
" stroke="rgb(25,152,102)" stroke-width="5" fill-opacity="0.0"></path><path d="
M 55 383.7306695894642 C
90 383.7306695894642
90 383.7306695894642
125 383.7306695894642
" stroke="rgb(25,87,102)" stroke-width="5" fill-opacity="0.0"></path><path d="
M 55 383.7306695894642 C
85.31088913245536 383.7306695894642
92.34455543377231 387.79155872191956
107.5 414.04155872191956
" stroke="rgb(25,106,102)" stroke-width="5" fill-opacity="0.0"></path><path d="
M 37.5 414.04155872191956 C
52.65544456622767 440.29155872191956
59.689110867544656 444.3524478543749
90 444.3524478543749
" stroke="rgb(25,152,102)" stroke-width="5" fill-opacity="0.0"></path><path d="
M 37.5 414.04155872191956 C
55 444.3524478543749
55 444.3524478543749
72.5 474.66333698683025
" stroke="rgb(25,106,102)" stroke-width="5" fill-opacity="0.0"></path><path d="
M 125 383.7306695894642 C
94.68911086754464 383.7306695894642
87.65544456622769 387.79155872191956
72.5 414.04155872191956
" stroke="rgb(25,87,102)" stroke-width="5" fill-opacity="0.0"></path><path d="
M 125 383.7306695894642 C
160 383.7306695894642
160 383.7306695894642
195 383.7306695894642
" stroke="rgb(25,87,102)" stroke-width="5" fill-opacity="0.0"></path><path d="
M 125 383.7306695894642 C
155.31088913245537 383.7306695894642
162.3445554337723 387.79155872191956
177.5 414.04155872191956
" stroke="rgb(25,106,102)" stroke-width="5" fill-opacity="0.0"></path><path d="
M 107.5 414.04155872191956 C
125 444.3524478543749
125 444.3524478543749
142.5 474.66333698683025
" stroke="rgb(25,125,102)" stroke-width="5" fill-opacity="0.0"></path><path d="
M 107.5 414.04155872191956 C
122.65544456622767 440.29155872191956
122.65544456622767 448.41333698683025
107.5 474.66333698683025
" stroke="rgb(25,152,102)" stroke-width="5" fill-opacity="0.0"></path><path d="
M 72.5 414.04155872191956 C
55 444.3524478543749
55 444.3524478543749
37.5 474.66333698683025
" stroke="rgb(25,106,102)" stroke-width="5" fill-opacity="0.0"></path><path d="
M 195 383.7306695894642 C
164.68911086754463 383.7306695894642
157.6554445662277 387.79155872191956
142.5 414.04155872191956
" stroke="rgb(25,106,102)" stroke-width="5" fill-opacity="0.0"></path><path d="
M 195 383.7306695894642 C
230 383.7306695894642
230 383.7306695894642
265 383.7306695894642
" stroke="rgb(25,87,102)" stroke-width="5" fill-opacity="0.0"></path><path d="
M 195 383.7306695894642 C
225.31088913245537 383.7306695894642
232.3445554337723 387.79155872191956
247.5 414.04155872191956
" stroke="rgb(25,87,102)" stroke-width="5" fill-opacity="0.0"></path><path d="
M 177.5 414.04155872191956 C
192.6554445662277 440.29155872191956
199.68911086754466 444.3524478543749
230 444.3524478543749
" stroke="rgb(25,152,102)" stroke-width="5" fill-opacity="0.0"></path><path d="
M 177.5 414.04155872191956 C
195 444.3524478543749
195 444.3524478543749
212.5 474.66333698683025
" stroke="rgb(25,106,102)" stroke-width="5" fill-opacity="0.0"></path><path d="
M 142.5 414.04155872191956 C
127.34455543377233 440.29155872191956
120.31088913245534 444.3524478543749
90 444.3524478543749
" stroke="rgb(25,152,102)" stroke-width="5" fill-opacity="0.0"></path><path d="
M 142.5 414.04155872191956 C
125 444.3524478543749
125 444.3524478543749
107.5 474.66333698683025
" stroke="rgb(25,152,102)" stroke-width="5" fill-opacity="0.0"></path><path d="
M 265 383.7306695894642 C
234.68911086754463 383.7306695894642
227.6554445662277 387.79155872191956
212.5 414.04155872191956
" stroke="rgb(25,87,102)" stroke-width="5" fill-opacity="0.0"></path><path d="
M 265 383.7306695894642 C
300 383.7306695894642
300 383.7306695894642
335 383.7306695894642
" stroke="rgb(25,106,102)" stroke-width="5" fill-opacity="0.0"></path><path d="
M 247.5 414.04155872191956 C
262.6554445662277 440.29155872191956
269.6891108675446 444.3524478543749
300 444.3524478543749
" stroke="rgb(25,106,102)" stroke-width="5" fill-opacity="0.0"></path><path d="
M 247.5 414.04155872191956 C
265 444.3524478543749
265 444.3524478543749
282.5 474.66333698683025
" stroke="rgb(25,74,102)" stroke-width="5" fill-opacity="0.0"></path><path d="
M 247.5 414.04155872191956 C
262.6554445662277 440.29155872191956
262.6554445662277 448.41333698683025
247.5 474.66333698683025
" stroke="rgb(25,74,102)" stroke-width="5" fill-opacity="0.0"></path><path d="
M 212.5 414.04155872191956 C
195 444.3524478543749
195 444.3524478543749
177.5 474.66333698683025
" stroke="rgb(25,74,102)" stroke-width="5" fill-opacity="0.0"></path><path d="
M 335 383.7306695894642 C
304.6891108675446 383.7306695894642
297.6554445662277 387.79155872191956
282.5 414.04155872191956
" stroke="rgb(25,106,102)" stroke-width="5" fill-opacity="0.0"></path><path d="
M 335 383.7306695894642 C
370 383.7306695894642
370 383.7306695894642
405 383.7306695894642
" stroke="rgb(25,106,102)" stroke-width="5" fill-opacity="0.0"></path><path d="
M 335 383.7306695894642 C
365.3108891324554 383.7306695894642
372.3445554337723 387.79155872191956
387.5 414.04155872191956
" stroke="rgb(25,152,102)" stroke-width="5" fill-opacity="0.0"></path><path d="
M 317.5 414.04155872191956 C
332.6554445662277 440.29155872191956
339.6891108675446 444.3524478543749
370 444.3524478543749
" stroke="rgb(25,74,102)" stroke-width="5" fill-opacity="0.0"></path><path d="
M 317.5 414.04155872191956 C
335 444.3524478543749
335 444.3524478543749
352.5 474.66333698683025
" stroke="rgb(25,52,102)" stroke-width="5" fill-opacity="0.0"></path><path d="
M 282.5 414.04155872191956 C
267.3445554337723 440.29155872191956
267.3445554337723 448.41333698683025
282.5 474.66333698683025
" stroke="rgb(25,74,102)" stroke-width="5" fill-opacity="0.0"></path><path d="
M 282.5 414.04155872191956 C
265 444.3524478543749
265 444.3524478543749
247.5 474.66333698683025
" stroke="rgb(25,74,102)" stroke-width="5" fill-opacity="0.0"></path><path d="
M 405 383.7306695894642 C
440 383.7306695894642
440 383.7306695894642
475 383.7306695894642
" stroke="rgb(25,74,102)" stroke-width="5" fill-opacity="0.0"></path><path d="
M 405 383.7306695894642 C
435.3108891324554 383.7306695894642
442.3445554337723 387.79155872191956
457.5 414.04155872191956
" stroke="rgb(25,87,102)" stroke-width="5" fill-opacity="0.0"></path><path d="
M 387.5 414.04155872191956 C
405 444.3524478543749
405 444.3524478543749
422.5 474.66333698683025
" stroke="rgb(25,217,102)" stroke-width="5" fill-opacity="0.0"></path><path d="
M 387.5 414.04155872191956 C
402.6554445662277 440.29155872191956
402.6554445662277 448.41333698683025
387.5 474.66333698683025
" stroke="rgb(25,152,102)" stroke-width="5" fill-opacity="0.0"></path><path d="
M 352.5 414.04155872191956 C
335 444.3524478543749
335 444.3524478543749
317.5 474.66333698683025
" stroke="rgb(25,74,102)" stroke-width="5" fill-opacity="0.0"></path><path d="
M 457.5 414.04155872191956 C
475 444.3524478543749
475 444.3524478543749
492.5 474.66333698683025
" stroke="rgb(25,74,102)" stroke-width="5" fill-opacity="0.0"></path><path d="
M 457.5 414.04155872191956 C
472.6554445662277 440.29155872191956
472.6554445662277 448.41333698683025
457.5 474.66333698683025
" stroke="rgb(25,74,102)" stroke-width="5" fill-opacity="0.0"></path><path d="
M 422.5 414.04155872191956 C
407.3445554337723 440.29155872191956
407.3445554337723 448.41333698683025
422.5 474.66333698683025
" stroke="rgb(25,217,102)" stroke-width="5" fill-opacity="0.0"></path><path d="
M 422.5 414.04155872191956 C
405 444.3524478543749
405 444.3524478543749
387.5 474.66333698683025
" stroke="rgb(25,152,102)" stroke-width="5" fill-opacity="0.0"></path><path d="
M 90 444.3524478543749 C
59.68911086754464 444.3524478543749
52.65544456622768 448.41333698683025
37.5 474.66333698683025
" stroke="rgb(25,152,102)" stroke-width="5" fill-opacity="0.0"></path><path d="
M 90 444.3524478543749 C
125 444.3524478543749
125 444.3524478543749
160 444.3524478543749
" stroke="rgb(25,217,102)" stroke-width="5" fill-opacity="0.0"></path><path d="
M 90 444.3524478543749 C
120.31088913245536 444.3524478543749
127.34455543377231 448.41333698683025
142.5 474.66333698683025
" stroke="rgb(25,152,102)" stroke-width="5" fill-opacity="0.0"></path><path d="
M 160 444.3524478543749 C
129.68911086754463 444.3524478543749
122.65544456622769 448.41333698683025
107.5 474.66333698683025
" stroke="rgb(25,217,102)" stroke-width="5" fill-opacity="0.0"></path><path d="
M 160 444.3524478543749 C
195 444.3524478543749
195 444.3524478543749
230 444.3524478543749
" stroke="rgb(25,217,102)" stroke-width="5" fill-opacity="0.0"></path><path d="
M 230 444.3524478543749 C
265 444.3524478543749
265 444.3524478543749
300 444.3524478543749
" stroke="rgb(25,152,102)" stroke-width="5" fill-opacity="0.0"></path><path d="
M 300 444.3524478543749 C
335 444.3524478543749
335 444.3524478543749
370 444.3524478543749
" stroke="rgb(25,106,102)" stroke-width="5" fill-opacity="0.0"></path><path d="
M 370 444.3524478543749 C
339.6891108675446 444.3524478543749
332.6554445662277 448.41333698683025
317.5 474.66333698683025
" stroke="rgb(25,74,102)" stroke-width="5" fill-opacity="0.0"></path><path d="
M 370 444.3524478543749 C
405 444.3524478543749
405 444.3524478543749
440 444.3524478543749
" stroke="rgb(25,74,102)" stroke-width="5" fill-opacity="0.0"></path><path d="
M 440 444.3524478543749 C
475 444.3524478543749
475 444.3524478543749
510 444.3524478543749
" stroke="rgb(25,52,102)" stroke-width="5" fill-opacity="0.0"></path><path d="
M 510 444.3524478543749 C
479.6891108675446 444.3524478543749
472.6554445662277 448.41333698683025
457.5 474.66333698683025
" stroke="rgb(25,52,102)" stroke-width="5" fill-opacity="0.0"></path><line x1="58" y1="20" x2="52" y2="20" stroke="rgb(63,0,21)" stroke-width="2"></line><line x1="39" y1="52.90896534380867" x2="36" y2="47.712812921102035" stroke="rgb(184,0,61)" stroke-width="2"></line><line x1="1" y1="52.90896534380867" x2="4" y2="47.712812921102035" stroke="#040" stroke-width="5" stroke-opacity="0.0"></line><line x1="128" y1="20" x2="122" y2="20" stroke="rgb(90,0,30)" stroke-width="2"></line><line x1="109" y1="52.90896534380867" x2="106" y2="47.712812921102035" stroke="rgb(255,0,125)" stroke-width="2"></line><line x1="71" y1="52.90896534380867" x2="74" y2="47.712812921102035" stroke="rgb(184,0,61)" stroke-width="2"></line><line x1="198" y1="20" x2="192" y2="20" stroke="rgb(129,0,43)" stroke-width="2"></line><line x1="179" y1="52.90896534380867" x2="176" y2="47.712812921102035" stroke="rgb(184,0,61)" stroke-width="2"></line><line x1="141" y1="52.90896534380867" x2="144" y2="47.712812921102035" stroke="rgb(255,0,87)" stroke-width="2"></line><line x1="268" y1="20" x2="262" y2="20" stroke="rgb(90,0,30)" stroke-width="2"></line><line x1="249" y1="52.90896534380867" x2="246" y2="47.712812921102035" stroke="rgb(184,0,61)" stroke-width="2"></line><line x1="211" y1="52.90896534380867" x2="214" y2="47.712812921102035" stroke="rgb(184,0,61)" stroke-width="2"></line><line x1="338" y1="20" x2="332" y2="20" stroke="rgb(129,0,43)" stroke-width="2"></line><line x1="319" y1="52.90896534380867" x2="316" y2="47.712812921102035" stroke="rgb(129,0,43)" stroke-width="2"></line><line x1="281" y1="52.90896534380867" x2="284" y2="47.712812921102035" stroke="rgb(184,0,61)" stroke-width="2"></line><line x1="408" y1="20" x2="402" y2="20" stroke="rgb(184,0,61)" stroke-width="2"></line><line x1="389" y1="52.90896534380867" x2="386" y2="47.712812921102035" stroke="rgb(255,0,125)" stroke-width="2"></line><line x1="351" y1="52.90896534380867" x2="354" y2="47.712812921102035" stroke="rgb(184,0,61)" stroke-width="2"></line><line x1="478" y1="20" x2="472" y2="20" stroke="rgb(255,0,87)" stroke-width="2"></line><line x1="459" y1="52.90896534380867" x2="456" y2="47.712812921102035" stroke="rgb(129,0,43)" stroke-width="2"></line><line x1="421" y1="52.90896534380867" x2="424" y2="47.712812921102035" stroke="rgb(255,0,125)" stroke-width="2"></line><line x1="93" y1="80.6217782649107" x2="87" y2="80.6217782649107" stroke="rgb(255,0,255)" stroke-width="2"></line><line x1="74" y1="113.53074360871938" x2="71" y2="108.33459118601274" stroke="rgb(184,0,61)" stroke-width="2"></line><line x1="36" y1="113.53074360871938" x2="39" y2="108.33459118601274" stroke="rgb(255,0,87)" stroke-width="2"></line><line x1="163" y1="80.6217782649107" x2="157" y2="80.6217782649107" stroke="rgb(255,0,179)" stroke-width="2"></line><line x1="144" y1="113.53074360871938" x2="141" y2="108.33459118601274" stroke="rgb(255,0,179)" stroke-width="2"></line><line x1="106" y1="113.53074360871938" x2="109" y2="108.33459118601274" stroke="rgb(255,0,125)" stroke-width="2"></line><line x1="233" y1="80.6217782649107" x2="227" y2="80.6217782649107" stroke="rgb(255,0,125)" stroke-width="2"></line><line x1="214" y1="113.53074360871938" x2="211" y2="108.33459118601274" stroke="rgb(255,0,87)" stroke-width="2"></line><line x1="176" y1="113.53074360871938" x2="179" y2="108.33459118601274" stroke="rgb(255,0,87)" stroke-width="2"></line><line x1="303" y1="80.6217782649107" x2="297" y2="80.6217782649107" stroke="rgb(255,0,87)" stroke-width="2"></line><line x1="284" y1="113.53074360871938" x2="281" y2="108.33459118601274" stroke="rgb(255,0,87)" stroke-width="2"></line><line x1="246" y1="113.53074360871938" x2="249" y2="108.33459118601274" stroke="rgb(255,0,87)" stroke-width="2"></line><line x1="373" y1="80.6217782649107" x2="367" y2="80.6217782649107" stroke="rgb(255,0,125)" stroke-width="2"></line><line x1="354" y1="113.53074360871938" x2="351" y2="108.33459118601274" stroke="rgb(184,0,61)" stroke-width="2"></line><line x1="316" y1="113.53074360871938" x2="319" y2="108.33459118601274" stroke="rgb(255,0,87)" stroke-width="2"></line><line x1="443" y1="80.6217782649107" x2="437" y2="80.6217782649107" stroke="rgb(255,0,87)" stroke-width="2"></line><line x1="424" y1="113.53074360871938" x2="421" y2="108.33459118601274" stroke="rgb(255,0,179)" stroke-width="2"></line><line x1="386" y1="113.53074360871938" x2="389" y2="108.33459118601274" stroke="rgb(255,0,87)" stroke-width="2"></line><line x1="513" y1="80.6217782649107" x2="507" y2="80.6217782649107" stroke="rgb(255,0,125)" stroke-width="2"></line><line x1="494" y1="113.53074360871938" x2="491" y2="108.33459118601274" stroke="rgb(184,0,61)" stroke-width="2"></line><line x1="456" y1="113.53074360871938" x2="459" y2="108.33459118601274" stroke="rgb(255,0,179)" stroke-width="2"></line><line x1="58" y1="141.2435565298214" x2="52" y2="141.2435565298214" stroke="rgb(255,0,87)" stroke-width="2"></line><line x1="39" y1="174.15252187363006" x2="36" y2="168.95636945092343" stroke="rgb(255,0,125)" stroke-width="2"></line><line x1="1" y1="174.15252187363006" x2="4" y2="168.95636945092343" stroke="rgb(184,0,61)" stroke-width="2"></line><line x1="128" y1="141.2435565298214" x2="122" y2="141.2435565298214" stroke="rgb(184,0,61)" stroke-width="2"></line><line x1="109" y1="174.15252187363006" x2="106" y2="168.95636945092343" stroke="rgb(255,0,87)" stroke-width="2"></line><line x1="71" y1="174.15252187363006" x2="74" y2="168.95636945092343" stroke="rgb(255,0,87)" stroke-width="2"></line><line x1="198" y1="141.2435565298214" x2="192" y2="141.2435565298214" stroke="rgb(184,0,61)" stroke-width="2"></line><line x1="179" y1="174.15252187363006" x2="176" y2="168.95636945092343" stroke="rgb(255,0,125)" stroke-width="2"></line><line x1="141" y1="174.15252187363006" x2="144" y2="168.95636945092343" stroke="rgb(255,0,125)" stroke-width="2"></line><line x1="268" y1="141.2435565298214" x2="262" y2="141.2435565298214" stroke="rgb(255,0,87)" stroke-width="2"></line><line x1="249" y1="174.15252187363006" x2="246" y2="168.95636945092343" stroke="rgb(255,0,87)" stroke-width="2"></line><line x1="211" y1="174.15252187363006" x2="214" y2="168.95636945092343" stroke="rgb(255,0,125)" stroke-width="2"></line><line x1="338" y1="141.2435565298214" x2="332" y2="141.2435565298214" stroke="rgb(184,0,61)" stroke-width="2"></line><line x1="319" y1="174.15252187363006" x2="316" y2="168.95636945092343" stroke="rgb(255,0,125)" stroke-width="2"></line><line x1="281" y1="174.15252187363006" x2="284" y2="168.95636945092343" stroke="rgb(255,0,87)" stroke-width="2"></line><line x1="408" y1="141.2435565298214" x2="402" y2="141.2435565298214" stroke="rgb(184,0,61)" stroke-width="2"></line><line x1="389" y1="174.15252187363006" x2="386" y2="168.95636945092343" stroke="rgb(255,0,87)" stroke-width="2"></line><line x1="351" y1="174.15252187363006" x2="354" y2="168.95636945092343" stroke="rgb(184,0,61)" stroke-width="2"></line><line x1="478" y1="141.2435565298214" x2="472" y2="141.2435565298214" stroke="rgb(255,0,87)" stroke-width="2"></line><line x1="459" y1="174.15252187363006" x2="456" y2="168.95636945092343" stroke="rgb(255,0,255)" stroke-width="2"></line><line x1="421" y1="174.15252187363006" x2="424" y2="168.95636945092343" stroke="rgb(255,0,125)" stroke-width="2"></line><line x1="93" y1="201.86533479473212" x2="87" y2="201.86533479473212" stroke="rgb(255,0,87)" stroke-width="2"></line><line x1="74" y1="234.77430013854078" x2="71" y2="229.57814771583415" stroke="rgb(255,0,179)" stroke-width="2"></line><line x1="36" y1="234.77430013854078" x2="39" y2="229.57814771583415" stroke="rgb(255,0,87)" stroke-width="2"></line><line x1="163" y1="201.86533479473212" x2="157" y2="201.86533479473212" stroke="rgb(255,0,87)" stroke-width="2"></line><line x1="144" y1="234.77430013854078" x2="141" y2="229.57814771583415" stroke="rgb(255,0,125)" stroke-width="2"></line><line x1="106" y1="234.77430013854078" x2="109" y2="229.57814771583415" stroke="rgb(255,0,125)" stroke-width="2"></line><line x1="233" y1="201.86533479473212" x2="227" y2="201.86533479473212" stroke="rgb(255,0,125)" stroke-width="2"></line><line x1="214" y1="234.77430013854078" x2="211" y2="229.57814771583415" stroke="rgb(255,0,87)" stroke-width="2"></line><line x1="176" y1="234.77430013854078" x2="179" y2="229.57814771583415" stroke="rgb(255,0,179)" stroke-width="2"></line><line x1="303" y1="201.86533479473212" x2="297" y2="201.86533479473212" stroke="rgb(255,0,87)" stroke-width="2"></line><line x1="284" y1="234.77430013854078" x2="281" y2="229.57814771583415" stroke="rgb(255,0,87)" stroke-width="2"></line><line x1="246" y1="234.77430013854078" x2="249" y2="229.57814771583415" stroke="rgb(255,0,125)" stroke-width="2"></line><line x1="373" y1="201.86533479473212" x2="367" y2="201.86533479473212" stroke="rgb(255,0,87)" stroke-width="2"></line><line x1="354" y1="234.77430013854078" x2="351" y2="229.57814771583415" stroke="rgb(255,0,179)" stroke-width="2"></line><line x1="316" y1="234.77430013854078" x2="319" y2="229.57814771583415" stroke="rgb(255,0,87)" stroke-width="2"></line><line x1="443" y1="201.86533479473212" x2="437" y2="201.86533479473212" stroke="rgb(255,0,125)" stroke-width="2"></line><line x1="424" y1="234.77430013854078" x2="421" y2="229.57814771583415" stroke="rgb(255,0,87)" stroke-width="2"></line><line x1="386" y1="234.77430013854078" x2="389" y2="229.57814771583415" stroke="rgb(255,0,125)" stroke-width="2"></line><line x1="513" y1="201.86533479473212" x2="507" y2="201.86533479473212" stroke="rgb(255,0,179)" stroke-width="2"></line><line x1="494" y1="234.77430013854078" x2="491" y2="229.57814771583415" stroke="rgb(255,0,179)" stroke-width="2"></line><line x1="456" y1="234.77430013854078" x2="459" y2="229.57814771583415" stroke="rgb(255,0,179)" stroke-width="2"></line><line x1="58" y1="262.4871130596428" x2="52" y2="262.4871130596428" stroke="rgb(255,0,179)" stroke-width="2"></line><line x1="39" y1="295.3960784034515" x2="36" y2="290.19992598074487" stroke="rgb(184,0,61)" stroke-width="2"></line><line x1="1" y1="295.3960784034515" x2="4" y2="290.19992598074487" stroke="rgb(255,0,125)" stroke-width="2"></line><line x1="128" y1="262.4871130596428" x2="122" y2="262.4871130596428" stroke="rgb(255,0,255)" stroke-width="2"></line><line x1="109" y1="295.3960784034515" x2="106" y2="290.19992598074487" stroke="rgb(255,0,125)" stroke-width="2"></line><line x1="71" y1="295.3960784034515" x2="74" y2="290.19992598074487" stroke="rgb(255,0,125)" stroke-width="2"></line><line x1="198" y1="262.4871130596428" x2="192" y2="262.4871130596428" stroke="rgb(255,0,179)" stroke-width="2"></line><line x1="179" y1="295.3960784034515" x2="176" y2="290.19992598074487" stroke="rgb(255,0,179)" stroke-width="2"></line><line x1="141" y1="295.3960784034515" x2="144" y2="290.19992598074487" stroke="rgb(255,0,125)" stroke-width="2"></line><line x1="268" y1="262.4871130596428" x2="262" y2="262.4871130596428" stroke="rgb(255,0,125)" stroke-width="2"></line><line x1="249" y1="295.3960784034515" x2="246" y2="290.19992598074487" stroke="rgb(184,0,61)" stroke-width="2"></line><line x1="211" y1="295.3960784034515" x2="214" y2="290.19992598074487" stroke="rgb(255,0,87)" stroke-width="2"></line><line x1="338" y1="262.4871130596428" x2="332" y2="262.4871130596428" stroke="rgb(255,0,179)" stroke-width="2"></line><line x1="319" y1="295.3960784034515" x2="316" y2="290.19992598074487" stroke="rgb(255,0,87)" stroke-width="2"></line><line x1="281" y1="295.3960784034515" x2="284" y2="290.19992598074487" stroke="rgb(255,0,125)" stroke-width="2"></line><line x1="408" y1="262.4871130596428" x2="402" y2="262.4871130596428" stroke="rgb(255,0,255)" stroke-width="2"></line><line x1="389" y1="295.3960784034515" x2="386" y2="290.19992598074487" stroke="rgb(255,0,125)" stroke-width="2"></line><line x1="351" y1="295.3960784034515" x2="354" y2="290.19992598074487" stroke="rgb(255,0,179)" stroke-width="2"></line><line x1="478" y1="262.4871130596428" x2="472" y2="262.4871130596428" stroke="rgb(255,0,179)" stroke-width="2"></line><line x1="459" y1="295.3960784034515" x2="456" y2="290.19992598074487" stroke="rgb(255,0,87)" stroke-width="2"></line><line x1="421" y1="295.3960784034515" x2="424" y2="290.19992598074487" stroke="rgb(255,0,125)" stroke-width="2"></line><line x1="93" y1="323.1088913245535" x2="87" y2="323.1088913245535" stroke="rgb(255,0,87)" stroke-width="2"></line><line x1="74" y1="356.0178566683622" x2="71" y2="350.82170424565555" stroke="rgb(255,0,87)" stroke-width="2"></line><line x1="36" y1="356.0178566683622" x2="39" y2="350.82170424565555" stroke="rgb(255,0,87)" stroke-width="2"></line><line x1="163" y1="323.1088913245535" x2="157" y2="323.1088913245535" stroke="rgb(255,0,87)" stroke-width="2"></line><line x1="144" y1="356.0178566683622" x2="141" y2="350.82170424565555" stroke="rgb(255,0,87)" stroke-width="2"></line><line x1="106" y1="356.0178566683622" x2="109" y2="350.82170424565555" stroke="rgb(255,0,87)" stroke-width="2"></line><line x1="233" y1="323.1088913245535" x2="227" y2="323.1088913245535" stroke="rgb(255,0,125)" stroke-width="2"></line><line x1="214" y1="356.0178566683622" x2="211" y2="350.82170424565555" stroke="rgb(255,0,125)" stroke-width="2"></line><line x1="176" y1="356.0178566683622" x2="179" y2="350.82170424565555" stroke="rgb(255,0,125)" stroke-width="2"></line><line x1="303" y1="323.1088913245535" x2="297" y2="323.1088913245535" stroke="rgb(255,0,87)" stroke-width="2"></line><line x1="284" y1="356.0178566683622" x2="281" y2="350.82170424565555" stroke="rgb(255,0,87)" stroke-width="2"></line><line x1="246" y1="356.0178566683622" x2="249" y2="350.82170424565555" stroke="rgb(255,0,87)" stroke-width="2"></line><line x1="373" y1="323.1088913245535" x2="367" y2="323.1088913245535" stroke="rgb(255,0,87)" stroke-width="2"></line><line x1="354" y1="356.0178566683622" x2="351" y2="350.82170424565555" stroke="rgb(255,0,125)" stroke-width="2"></line><line x1="316" y1="356.0178566683622" x2="319" y2="350.82170424565555" stroke="rgb(255,0,125)" stroke-width="2"></line><line x1="443" y1="323.1088913245535" x2="437" y2="323.1088913245535" stroke="rgb(184,0,61)" stroke-width="2"></line><line x1="424" y1="356.0178566683622" x2="421" y2="350.82170424565555" stroke="rgb(255,0,87)" stroke-width="2"></line><line x1="386" y1="356.0178566683622" x2="389" y2="350.82170424565555" stroke="rgb(255,0,87)" stroke-width="2"></line><line x1="513" y1="323.1088913245535" x2="507" y2="323.1088913245535" stroke="rgb(255,0,87)" stroke-width="2"></line><line x1="494" y1="356.0178566683622" x2="491" y2="350.82170424565555" stroke="rgb(184,0,61)" stroke-width="2"></line><line x1="456" y1="356.0178566683622" x2="459" y2="350.82170424565555" stroke="rgb(255,0,125)" stroke-width="2"></line><line x1="58" y1="383.7306695894642" x2="52" y2="383.7306695894642" stroke="rgb(255,0,87)" stroke-width="2"></line><line x1="39" y1="416.6396349332729" x2="36" y2="411.44348251056624" stroke="rgb(255,0,125)" stroke-width="2"></line><line x1="1" y1="416.6396349332729" x2="4" y2="411.44348251056624" stroke="rgb(184,0,61)" stroke-width="2"></line><line x1="128" y1="383.7306695894642" x2="122" y2="383.7306695894642" stroke="rgb(255,0,87)" stroke-width="2"></line><line x1="109" y1="416.6396349332729" x2="106" y2="411.44348251056624" stroke="rgb(255,0,125)" stroke-width="2"></line><line x1="71" y1="416.6396349332729" x2="74" y2="411.44348251056624" stroke="rgb(255,0,87)" stroke-width="2"></line><line x1="198" y1="383.7306695894642" x2="192" y2="383.7306695894642" stroke="rgb(255,0,87)" stroke-width="2"></line><line x1="179" y1="416.6396349332729" x2="176" y2="411.44348251056624" stroke="rgb(255,0,125)" stroke-width="2"></line><line x1="141" y1="416.6396349332729" x2="144" y2="411.44348251056624" stroke="rgb(255,0,125)" stroke-width="2"></line><line x1="268" y1="383.7306695894642" x2="262" y2="383.7306695894642" stroke="rgb(255,0,87)" stroke-width="2"></line><line x1="249" y1="416.6396349332729" x2="246" y2="411.44348251056624" stroke="rgb(255,0,87)" stroke-width="2"></line><line x1="211" y1="416.6396349332729" x2="214" y2="411.44348251056624" stroke="rgb(255,0,87)" stroke-width="2"></line><line x1="338" y1="383.7306695894642" x2="332" y2="383.7306695894642" stroke="rgb(255,0,125)" stroke-width="2"></line><line x1="319" y1="416.6396349332729" x2="316" y2="411.44348251056624" stroke="rgb(184,0,61)" stroke-width="2"></line><line x1="281" y1="416.6396349332729" x2="284" y2="411.44348251056624" stroke="rgb(255,0,87)" stroke-width="2"></line><line x1="408" y1="383.7306695894642" x2="402" y2="383.7306695894642" stroke="rgb(255,0,87)" stroke-width="2"></line><line x1="389" y1="416.6396349332729" x2="386" y2="411.44348251056624" stroke="rgb(255,0,179)" stroke-width="2"></line><line x1="351" y1="416.6396349332729" x2="354" y2="411.44348251056624" stroke="rgb(255,0,87)" stroke-width="2"></line><line x1="478" y1="383.7306695894642" x2="472" y2="383.7306695894642" stroke="rgb(184,0,61)" stroke-width="2"></line><line x1="459" y1="416.6396349332729" x2="456" y2="411.44348251056624" stroke="rgb(255,0,87)" stroke-width="2"></line><line x1="421" y1="416.6396349332729" x2="424" y2="411.44348251056624" stroke="rgb(255,0,179)" stroke-width="2"></line><line x1="93" y1="444.3524478543749" x2="87" y2="444.3524478543749" stroke="rgb(255,0,179)" stroke-width="2"></line><line x1="74" y1="477.26141319818356" x2="71" y2="472.06526077547693" stroke="rgb(255,0,87)" stroke-width="2"></line><line x1="36" y1="477.26141319818356" x2="39" y2="472.06526077547693" stroke="rgb(255,0,125)" stroke-width="2"></line><line x1="163" y1="444.3524478543749" x2="157" y2="444.3524478543749" stroke="rgb(255,0,255)" stroke-width="2"></line><line x1="144" y1="477.26141319818356" x2="141" y2="472.06526077547693" stroke="rgb(255,0,125)" stroke-width="2"></line><line x1="106" y1="477.26141319818356" x2="109" y2="472.06526077547693" stroke="rgb(255,0,179)" stroke-width="2"></line><line x1="233" y1="444.3524478543749" x2="227" y2="444.3524478543749" stroke="rgb(255,0,179)" stroke-width="2"></line><line x1="214" y1="477.26141319818356" x2="211" y2="472.06526077547693" stroke="rgb(255,0,87)" stroke-width="2"></line><line x1="176" y1="477.26141319818356" x2="179" y2="472.06526077547693" stroke="rgb(184,0,61)" stroke-width="2"></line><line x1="303" y1="444.3524478543749" x2="297" y2="444.3524478543749" stroke="rgb(255,0,125)" stroke-width="2"></line><line x1="284" y1="477.26141319818356" x2="281" y2="472.06526077547693" stroke="rgb(184,0,61)" stroke-width="2"></line><line x1="246" y1="477.26141319818356" x2="249" y2="472.06526077547693" stroke="rgb(184,0,61)" stroke-width="2"></line><line x1="373" y1="444.3524478543749" x2="367" y2="444.3524478543749" stroke="rgb(255,0,87)" stroke-width="2"></line><line x1="354" y1="477.26141319818356" x2="351" y2="472.06526077547693" stroke="rgb(129,0,43)" stroke-width="2"></line><line x1="316" y1="477.26141319818356" x2="319" y2="472.06526077547693" stroke="rgb(184,0,61)" stroke-width="2"></line><line x1="443" y1="444.3524478543749" x2="437" y2="444.3524478543749" stroke="rgb(184,0,61)" stroke-width="2"></line><line x1="424" y1="477.26141319818356" x2="421" y2="472.06526077547693" stroke="rgb(255,0,255)" stroke-width="2"></line><line x1="386" y1="477.26141319818356" x2="389" y2="472.06526077547693" stroke="rgb(255,0,125)" stroke-width="2"></line><line x1="513" y1="444.3524478543749" x2="507" y2="444.3524478543749" stroke="rgb(129,0,43)" stroke-width="2"></line><line x1="494" y1="477.26141319818356" x2="491" y2="472.06526077547693" stroke="rgb(184,0,61)" stroke-width="2"></line><line x1="456" y1="477.26141319818356" x2="459" y2="472.06526077547693" stroke="rgb(184,0,61)" stroke-width="2"></line></svg>
