<svg viewBox="-4.5 15 536.5 516.6248612138966" xmlns="http://www.w3.org/2000/svg" version="1.1"><path d="
M 59 20 C
92.77499074759311 20
100.61250462620345 24.524990747593108
117.5 53.77499074759311
" stroke="rgb(25,74,102)" stroke-width="5" fill-opacity="0.0"></path><path d="
M 39.5 53.77499074759311 C
59 87.54998149518622
59 87.54998149518622
78.5 121.32497224277932
" stroke="rgb(25,106,102)" stroke-width="5" fill-opacity="0.0"></path><path d="
M 117.5 53.77499074759311 C
134.38749537379655 83.02499074759311
142.2250092524069 87.54998149518622
176 87.54998149518622
" stroke="rgb(25,106,102)" stroke-width="5" fill-opacity="0.0"></path><path d="
M 117.5 53.77499074759311 C
134.38749537379655 83.02499074759311
134.38749537379655 92.07497224277932
117.5 121.32497224277932
" stroke="rgb(25,87,102)" stroke-width="5" fill-opacity="0.0"></path><path d="
M 78.5 53.77499074759311 C
61.612504626203446 83.02499074759311
61.612504626203446 92.07497224277932
78.5 121.32497224277932
" stroke="rgb(25,152,102)" stroke-width="5" fill-opacity="0.0"></path><path d="
M 78.5 53.77499074759311 C
59 87.54998149518622
59 87.54998149518622
39.5 121.32497224277932
" stroke="rgb(25,217,102)" stroke-width="5" fill-opacity="0.0"></path><path d="
M 215 20 C
181.2250092524069 20
173.38749537379655 24.524990747593108
156.5 53.77499074759311
" stroke="rgb(25,106,102)" stroke-width="5" fill-opacity="0.0"></path><path d="
M 215 20 C
254 20
254 20
293 20
" stroke="rgb(25,74,102)" stroke-width="5" fill-opacity="0.0"></path><path d="
M 195.5 53.77499074759311 C
212.38749537379655 83.02499074759311
212.38749537379655 92.07497224277932
195.5 121.32497224277932
" stroke="rgb(25,52,102)" stroke-width="5" fill-opacity="0.0"></path><path d="
M 156.5 53.77499074759311 C
139.61250462620345 83.02499074759311
131.7749907475931 87.54998149518622
98 87.54998149518622
" stroke="rgb(25,152,102)" stroke-width="5" fill-opacity="0.0"></path><path d="
M 156.5 53.77499074759311 C
137 87.54998149518622
137 87.54998149518622
117.5 121.32497224277932
" stroke="rgb(25,106,102)" stroke-width="5" fill-opacity="0.0"></path><path d="
M 293 20 C
259.2250092524069 20
251.38749537379655 24.524990747593108
234.5 53.77499074759311
" stroke="rgb(25,74,102)" stroke-width="5" fill-opacity="0.0"></path><path d="
M 293 20 C
332 20
332 20
371 20
" stroke="rgb(25,52,102)" stroke-width="5" fill-opacity="0.0"></path><path d="
M 293 20 C
326.7749907475931 20
334.6125046262034 24.524990747593108
351.5 53.77499074759311
" stroke="rgb(25,52,102)" stroke-width="5" fill-opacity="0.0"></path><path d="
M 273.5 53.77499074759311 C
290.3874953737966 83.02499074759311
298.2250092524069 87.54998149518622
332 87.54998149518622
" stroke="rgb(25,52,102)" stroke-width="5" fill-opacity="0.0"></path><path d="
M 273.5 53.77499074759311 C
293 87.54998149518622
293 87.54998149518622
312.5 121.32497224277932
" stroke="rgb(25,52,102)" stroke-width="5" fill-opacity="0.0"></path><path d="
M 273.5 53.77499074759311 C
290.3874953737966 83.02499074759311
290.3874953737966 92.07497224277932
273.5 121.32497224277932
" stroke="rgb(25,43,102)" stroke-width="5" fill-opacity="0.0"></path><path d="
M 234.5 53.77499074759311 C
217.61250462620345 83.02499074759311
209.7749907475931 87.54998149518622
176 87.54998149518622
" stroke="rgb(25,106,102)" stroke-width="5" fill-opacity="0.0"></path><path d="
M 234.5 53.77499074759311 C
215 87.54998149518622
215 87.54998149518622
195.5 121.32497224277932
" stroke="rgb(25,74,102)" stroke-width="5" fill-opacity="0.0"></path><path d="
M 351.5 53.77499074759311 C
368.3874953737966 83.02499074759311
376.2250092524069 87.54998149518622
410 87.54998149518622
" stroke="rgb(25,43,102)" stroke-width="5" fill-opacity="0.0"></path><path d="
M 351.5 53.77499074759311 C
368.3874953737966 83.02499074759311
368.3874953737966 92.07497224277932
351.5 121.32497224277932
" stroke="rgb(25,43,102)" stroke-width="5" fill-opacity="0.0"></path><path d="
M 312.5 53.77499074759311 C
295.6125046262034 83.02499074759311
287.7749907475931 87.54998149518622
254 87.54998149518622
" stroke="rgb(25,36,102)" stroke-width="5" fill-opacity="0.0"></path><path d="
M 312.5 53.77499074759311 C
293 87.54998149518622
293 87.54998149518622
273.5 121.32497224277932
" stroke="rgb(25,36,102)" stroke-width="5" fill-opacity="0.0"></path><path d="
M 449 20 C
488 20
488 20
527 20
" stroke="rgb(25,25,102)" stroke-width="5" fill-opacity="0.0"></path><path d="
M 429.5 53.77499074759311 C
449 87.54998149518622
449 87.54998149518622
468.5 121.32497224277932
" stroke="rgb(25,52,102)" stroke-width="5" fill-opacity="0.0"></path><path d="
M 429.5 53.77499074759311 C
446.3874953737966 83.02499074759311
446.3874953737966 92.07497224277932
429.5 121.32497224277932
" stroke="rgb(25,36,102)" stroke-width="5" fill-opacity="0.0"></path><path d="
M 390.5 53.77499074759311 C
373.6125046262034 83.02499074759311
365.7749907475931 87.54998149518622
332 87.54998149518622
" stroke="rgb(25,52,102)" stroke-width="5" fill-opacity="0.0"></path><path d="
M 390.5 53.77499074759311 C
371 87.54998149518622
371 87.54998149518622
351.5 121.32497224277932
" stroke="rgb(25,43,102)" stroke-width="5" fill-opacity="0.0"></path><path d="
M 527 20 C
493.2250092524069 20
485.3874953737966 24.524990747593108
468.5 53.77499074759311
" stroke="rgb(25,36,102)" stroke-width="5" fill-opacity="0.0"></path><path d="
M 468.5 53.77499074759311 C
451.6125046262034 83.02499074759311
443.7749907475931 87.54998149518622
410 87.54998149518622
" stroke="rgb(25,43,102)" stroke-width="5" fill-opacity="0.0"></path><path d="
M 468.5 53.77499074759311 C
451.6125046262034 83.02499074759311
451.6125046262034 92.07497224277932
468.5 121.32497224277932
" stroke="rgb(25,52,102)" stroke-width="5" fill-opacity="0.0"></path><path d="
M 468.5 53.77499074759311 C
449 87.54998149518622
449 87.54998149518622
429.5 121.32497224277932
" stroke="rgb(25,36,102)" stroke-width="5" fill-opacity="0.0"></path><path d="
M 98 87.54998149518622 C
64.22500925240689 87.54998149518622
56.387495373796554 92.07497224277932
39.5 121.32497224277932
" stroke="rgb(25,217,102)" stroke-width="5" fill-opacity="0.0"></path><path d="
M 98 87.54998149518622 C
137 87.54998149518622
137 87.54998149518622
176 87.54998149518622
" stroke="rgb(25,152,102)" stroke-width="5" fill-opacity="0.0"></path><path d="
M 98 87.54998149518622 C
131.7749907475931 87.54998149518622
139.61250462620345 92.07497224277932
156.5 121.32497224277932
" stroke="rgb(25,152,102)" stroke-width="5" fill-opacity="0.0"></path><path d="
M 78.5 121.32497224277932 C
98 155.09996299037243
98 155.09996299037243
117.5 188.87495373796554
" stroke="rgb(25,106,102)" stroke-width="5" fill-opacity="0.0"></path><path d="
M 78.5 121.32497224277932 C
95.38749537379655 150.57497224277932
95.38749537379655 159.62495373796554
78.5 188.87495373796554
" stroke="rgb(25,106,102)" stroke-width="5" fill-opacity="0.0"></path><path d="
M 39.5 121.32497224277932 C
22.612504626203446 150.57497224277932
22.612504626203446 159.62495373796554
39.5 188.87495373796554
" stroke="rgb(25,217,102)" stroke-width="5" fill-opacity="0.0"></path><path d="
M 176 87.54998149518622 C
142.2250092524069 87.54998149518622
134.38749537379655 92.07497224277932
117.5 121.32497224277932
" stroke="rgb(25,106,102)" stroke-width="5" fill-opacity="0.0"></path><path d="
M 176 87.54998149518622 C
209.7749907475931 87.54998149518622
217.61250462620345 92.07497224277932
234.5 121.32497224277932
" stroke="rgb(25,106,102)" stroke-width="5" fill-opacity="0.0"></path><path d="
M 156.5 121.32497224277932 C
176 155.09996299037243
176 155.09996299037243
195.5 188.87495373796554
" stroke="rgb(25,106,102)" stroke-width="5" fill-opacity="0.0"></path><path d="
M 156.5 121.32497224277932 C
173.38749537379655 150.57497224277932
173.38749537379655 159.62495373796554
156.5 188.87495373796554
" stroke="rgb(25,106,102)" stroke-width="5" fill-opacity="0.0"></path><path d="
M 117.5 121.32497224277932 C
98 155.09996299037243
98 155.09996299037243
78.5 188.87495373796554
" stroke="rgb(25,87,102)" stroke-width="5" fill-opacity="0.0"></path><path d="
M 254 87.54998149518622 C
220.2250092524069 87.54998149518622
212.38749537379655 92.07497224277932
195.5 121.32497224277932
" stroke="rgb(25,52,102)" stroke-width="5" fill-opacity="0.0"></path><path d="
M 254 87.54998149518622 C
287.7749907475931 87.54998149518622
295.6125046262034 92.07497224277932
312.5 121.32497224277932
" stroke="rgb(25,52,102)" stroke-width="5" fill-opacity="0.0"></path><path d="
M 195.5 121.32497224277932 C
178.61250462620345 150.57497224277932
170.7749907475931 155.09996299037243
137 155.09996299037243
" stroke="rgb(25,52,102)" stroke-width="5" fill-opacity="0.0"></path><path d="
M 195.5 121.32497224277932 C
178.61250462620345 150.57497224277932
178.61250462620345 159.62495373796554
195.5 188.87495373796554
" stroke="rgb(25,74,102)" stroke-width="5" fill-opacity="0.0"></path><path d="
M 332 87.54998149518622 C
365.7749907475931 87.54998149518622
373.6125046262034 92.07497224277932
390.5 121.32497224277932
" stroke="rgb(25,74,102)" stroke-width="5" fill-opacity="0.0"></path><path d="
M 312.5 121.32497224277932 C
329.3874953737966 150.57497224277932
337.2250092524069 155.09996299037243
371 155.09996299037243
" stroke="rgb(25,74,102)" stroke-width="5" fill-opacity="0.0"></path><path d="
M 312.5 121.32497224277932 C
332 155.09996299037243
332 155.09996299037243
351.5 188.87495373796554
" stroke="rgb(25,61,102)" stroke-width="5" fill-opacity="0.0"></path><path d="
M 312.5 121.32497224277932 C
329.3874953737966 150.57497224277932
329.3874953737966 159.62495373796554
312.5 188.87495373796554
" stroke="rgb(25,61,102)" stroke-width="5" fill-opacity="0.0"></path><path d="
M 273.5 121.32497224277932 C
256.6125046262034 150.57497224277932
248.7749907475931 155.09996299037243
215 155.09996299037243
" stroke="rgb(25,52,102)" stroke-width="5" fill-opacity="0.0"></path><path d="
M 273.5 121.32497224277932 C
254 155.09996299037243
254 155.09996299037243
234.5 188.87495373796554
" stroke="rgb(25,52,102)" stroke-width="5" fill-opacity="0.0"></path><path d="
M 410 87.54998149518622 C
449 87.54998149518622
449 87.54998149518622
488 87.54998149518622
" stroke="rgb(25,36,102)" stroke-width="5" fill-opacity="0.0"></path><path d="
M 410 87.54998149518622 C
443.7749907475931 87.54998149518622
451.6125046262034 92.07497224277932
468.5 121.32497224277932
" stroke="rgb(25,52,102)" stroke-width="5" fill-opacity="0.0"></path><path d="
M 390.5 121.32497224277932 C
410 155.09996299037243
410 155.09996299037243
429.5 188.87495373796554
" stroke="rgb(25,106,102)" stroke-width="5" fill-opacity="0.0"></path><path d="
M 390.5 121.32497224277932 C
407.3874953737966 150.57497224277932
407.3874953737966 159.62495373796554
390.5 188.87495373796554
" stroke="rgb(25,74,102)" stroke-width="5" fill-opacity="0.0"></path><path d="
M 351.5 121.32497224277932 C
334.6125046262034 150.57497224277932
326.7749907475931 155.09996299037243
293 155.09996299037243
" stroke="rgb(25,43,102)" stroke-width="5" fill-opacity="0.0"></path><path d="
M 351.5 121.32497224277932 C
334.6125046262034 150.57497224277932
334.6125046262034 159.62495373796554
351.5 188.87495373796554
" stroke="rgb(25,52,102)" stroke-width="5" fill-opacity="0.0"></path><path d="
M 488 87.54998149518622 C
454.2250092524069 87.54998149518622
446.3874953737966 92.07497224277932
429.5 121.32497224277932
" stroke="rgb(25,30,102)" stroke-width="5" fill-opacity="0.0"></path><path d="
M 468.5 121.32497224277932 C
485.3874953737966 150.57497224277932
493.2250092524069 155.09996299037243
527 155.09996299037243
" stroke="rgb(25,74,102)" stroke-width="5" fill-opacity="0.0"></path><path d="
M 468.5 121.32497224277932 C
488 155.09996299037243
488 155.09996299037243
507.5 188.87495373796554
" stroke="rgb(25,52,102)" stroke-width="5" fill-opacity="0.0"></path><path d="
M 59 155.09996299037243 C
98 155.09996299037243
98 155.09996299037243
137 155.09996299037243
" stroke="rgb(25,36,102)" stroke-width="5" fill-opacity="0.0"></path><path d="
M 39.5 188.87495373796554 C
56.387495373796554 218.12495373796554
64.22500925240689 222.64994448555865
98 222.64994448555865
" stroke="rgb(25,152,102)" stroke-width="5" fill-opacity="0.0"></path><path d="
M 39.5 188.87495373796554 C
56.387495373796554 218.12495373796554
56.387495373796554 227.17493523315176
39.5 256.42493523315176
" stroke="rgb(25,152,102)" stroke-width="5" fill-opacity="0.0"></path><path d="
M 137 155.09996299037243 C
176 155.09996299037243
176 155.09996299037243
215 155.09996299037243
" stroke="rgb(25,52,102)" stroke-width="5" fill-opacity="0.0"></path><path d="
M 117.5 188.87495373796554 C
134.38749537379655 218.12495373796554
142.2250092524069 222.64994448555865
176 222.64994448555865
" stroke="rgb(25,87,102)" stroke-width="5" fill-opacity="0.0"></path><path d="
M 117.5 188.87495373796554 C
137 222.64994448555865
137 222.64994448555865
156.5 256.42493523315176
" stroke="rgb(25,87,102)" stroke-width="5" fill-opacity="0.0"></path><path d="
M 78.5 188.87495373796554 C
59 222.64994448555865
59 222.64994448555865
39.5 256.42493523315176
" stroke="rgb(25,106,102)" stroke-width="5" fill-opacity="0.0"></path><path d="
M 215 155.09996299037243 C
181.2250092524069 155.09996299037243
173.38749537379655 159.62495373796554
156.5 188.87495373796554
" stroke="rgb(25,74,102)" stroke-width="5" fill-opacity="0.0"></path><path d="
M 195.5 188.87495373796554 C
215 222.64994448555865
215 222.64994448555865
234.5 256.42493523315176
" stroke="rgb(25,74,102)" stroke-width="5" fill-opacity="0.0"></path><path d="
M 195.5 188.87495373796554 C
212.38749537379655 218.12495373796554
212.38749537379655 227.17493523315176
195.5 256.42493523315176
" stroke="rgb(25,74,102)" stroke-width="5" fill-opacity="0.0"></path><path d="
M 156.5 188.87495373796554 C
139.61250462620345 218.12495373796554
131.7749907475931 222.64994448555865
98 222.64994448555865
" stroke="rgb(25,106,102)" stroke-width="5" fill-opacity="0.0"></path><path d="
M 156.5 188.87495373796554 C
139.61250462620345 218.12495373796554
139.61250462620345 227.17493523315176
156.5 256.42493523315176
" stroke="rgb(25,87,102)" stroke-width="5" fill-opacity="0.0"></path><path d="
M 156.5 188.87495373796554 C
137 222.64994448555865
137 222.64994448555865
117.5 256.42493523315176
" stroke="rgb(25,87,102)" stroke-width="5" fill-opacity="0.0"></path><path d="
M 293 155.09996299037243 C
259.2250092524069 155.09996299037243
251.38749537379655 159.62495373796554
234.5 188.87495373796554
" stroke="rgb(25,52,102)" stroke-width="5" fill-opacity="0.0"></path><path d="
M 273.5 188.87495373796554 C
290.3874953737966 218.12495373796554
290.3874953737966 227.17493523315176
273.5 256.42493523315176
" stroke="rgb(25,0,102)" stroke-width="5" fill-opacity="0.0"></path><path d="
M 234.5 188.87495373796554 C
217.61250462620345 218.12495373796554
209.7749907475931 222.64994448555865
176 222.64994448555865
" stroke="rgb(25,74,102)" stroke-width="5" fill-opacity="0.0"></path><path d="
M 234.5 188.87495373796554 C
215 222.64994448555865
215 222.64994448555865
195.5 256.42493523315176
" stroke="rgb(25,61,102)" stroke-width="5" fill-opacity="0.0"></path><path d="
M 371 155.09996299037243 C
337.2250092524069 155.09996299037243
329.3874953737966 159.62495373796554
312.5 188.87495373796554
" stroke="rgb(25,74,102)" stroke-width="5" fill-opacity="0.0"></path><path d="
M 371 155.09996299037243 C
404.7749907475931 155.09996299037243
412.6125046262034 159.62495373796554
429.5 188.87495373796554
" stroke="rgb(25,106,102)" stroke-width="5" fill-opacity="0.0"></path><path d="
M 351.5 188.87495373796554 C
368.3874953737966 218.12495373796554
376.2250092524069 222.64994448555865
410 222.64994448555865
" stroke="rgb(25,61,102)" stroke-width="5" fill-opacity="0.0"></path><path d="
M 351.5 188.87495373796554 C
368.3874953737966 218.12495373796554
368.3874953737966 227.17493523315176
351.5 256.42493523315176
" stroke="rgb(25,74,102)" stroke-width="5" fill-opacity="0.0"></path><path d="
M 312.5 188.87495373796554 C
295.6125046262034 218.12495373796554
287.7749907475931 222.64994448555865
254 222.64994448555865
" stroke="rgb(25,61,102)" stroke-width="5" fill-opacity="0.0"></path><path d="
M 429.5 188.87495373796554 C
449 222.64994448555865
449 222.64994448555865
468.5 256.42493523315176
" stroke="rgb(25,106,102)" stroke-width="5" fill-opacity="0.0"></path><path d="
M 429.5 188.87495373796554 C
446.3874953737966 218.12495373796554
446.3874953737966 227.17493523315176
429.5 256.42493523315176
" stroke="rgb(25,152,102)" stroke-width="5" fill-opacity="0.0"></path><path d="
M 390.5 188.87495373796554 C
373.6125046262034 218.12495373796554
365.7749907475931 222.64994448555865
332 222.64994448555865
" stroke="rgb(25,52,102)" stroke-width="5" fill-opacity="0.0"></path><path d="
M 390.5 188.87495373796554 C
373.6125046262034 218.12495373796554
373.6125046262034 227.17493523315176
390.5 256.42493523315176
" stroke="rgb(25,52,102)" stroke-width="5" fill-opacity="0.0"></path><path d="
M 390.5 188.87495373796554 C
371 222.64994448555865
371 222.64994448555865
351.5 256.42493523315176
" stroke="rgb(25,74,102)" stroke-width="5" fill-opacity="0.0"></path><path d="
M 527 155.09996299037243 C
493.2250092524069 155.09996299037243
485.3874953737966 159.62495373796554
468.5 188.87495373796554
" stroke="rgb(25,106,102)" stroke-width="5" fill-opacity="0.0"></path><path d="
M 468.5 188.87495373796554 C
449 222.64994448555865
449 222.64994448555865
429.5 256.42493523315176
" stroke="rgb(25,152,102)" stroke-width="5" fill-opacity="0.0"></path><path d="
M 98 222.64994448555865 C
137 222.64994448555865
137 222.64994448555865
176 222.64994448555865
" stroke="rgb(25,106,102)" stroke-width="5" fill-opacity="0.0"></path><path d="
M 98 222.64994448555865 C
131.7749907475931 222.64994448555865
139.61250462620345 227.17493523315176
156.5 256.42493523315176
" stroke="rgb(25,106,102)" stroke-width="5" fill-opacity="0.0"></path><path d="
M 78.5 256.42493523315176 C
98 290.19992598074487
98 290.19992598074487
117.5 323.974916728338
" stroke="rgb(25,106,102)" stroke-width="5" fill-opacity="0.0"></path><path d="
M 78.5 256.42493523315176 C
95.38749537379655 285.67493523315176
95.38749537379655 294.724916728338
78.5 323.974916728338
" stroke="rgb(25,106,102)" stroke-width="5" fill-opacity="0.0"></path><path d="
M 39.5 256.42493523315176 C
20 290.19992598074487
20 290.19992598074487
0.5 323.974916728338
" stroke="rgb(25,106,102)" stroke-width="5" fill-opacity="0.0"></path><path d="
M 176 222.64994448555865 C
142.2250092524069 222.64994448555865
134.38749537379655 227.17493523315176
117.5 256.42493523315176
" stroke="rgb(25,87,102)" stroke-width="5" fill-opacity="0.0"></path><path d="
M 176 222.64994448555865 C
215 222.64994448555865
215 222.64994448555865
254 222.64994448555865
" stroke="rgb(25,74,102)" stroke-width="5" fill-opacity="0.0"></path><path d="
M 176 222.64994448555865 C
209.7749907475931 222.64994448555865
217.61250462620345 227.17493523315176
234.5 256.42493523315176
" stroke="rgb(25,74,102)" stroke-width="5" fill-opacity="0.0"></path><path d="
M 117.5 256.42493523315176 C
100.61250462620345 285.67493523315176
92.77499074759311 290.19992598074487
59 290.19992598074487
" stroke="rgb(25,87,102)" stroke-width="5" fill-opacity="0.0"></path><path d="
M 117.5 256.42493523315176 C
100.61250462620345 285.67493523315176
100.61250462620345 294.724916728338
117.5 323.974916728338
" stroke="rgb(25,106,102)" stroke-width="5" fill-opacity="0.0"></path><path d="
M 117.5 256.42493523315176 C
98 290.19992598074487
98 290.19992598074487
78.5 323.974916728338
" stroke="rgb(25,106,102)" stroke-width="5" fill-opacity="0.0"></path><path d="
M 254 222.64994448555865 C
220.2250092524069 222.64994448555865
212.38749537379655 227.17493523315176
195.5 256.42493523315176
" stroke="rgb(25,61,102)" stroke-width="5" fill-opacity="0.0"></path><path d="
M 254 222.64994448555865 C
293 222.64994448555865
293 222.64994448555865
332 222.64994448555865
" stroke="rgb(25,52,102)" stroke-width="5" fill-opacity="0.0"></path><path d="
M 332 222.64994448555865 C
371 222.64994448555865
371 222.64994448555865
410 222.64994448555865
" stroke="rgb(25,52,102)" stroke-width="5" fill-opacity="0.0"></path><path d="
M 312.5 256.42493523315176 C
332 290.19992598074487
332 290.19992598074487
351.5 323.974916728338
" stroke="rgb(25,74,102)" stroke-width="5" fill-opacity="0.0"></path><path d="
M 410 222.64994448555865 C
376.2250092524069 222.64994448555865
368.3874953737966 227.17493523315176
351.5 256.42493523315176
" stroke="rgb(25,74,102)" stroke-width="5" fill-opacity="0.0"></path><path d="
M 410 222.64994448555865 C
443.7749907475931 222.64994448555865
451.6125046262034 227.17493523315176
468.5 256.42493523315176
" stroke="rgb(25,74,102)" stroke-width="5" fill-opacity="0.0"></path><path d="
M 351.5 256.42493523315176 C
334.6125046262034 285.67493523315176
326.7749907475931 290.19992598074487
293 290.19992598074487
" stroke="rgb(25,106,102)" stroke-width="5" fill-opacity="0.0"></path><path d="
M 488 222.64994448555865 C
454.2250092524069 222.64994448555865
446.3874953737966 227.17493523315176
429.5 256.42493523315176
" stroke="rgb(25,152,102)" stroke-width="5" fill-opacity="0.0"></path><path d="
M 468.5 256.42493523315176 C
485.3874953737966 285.67493523315176
493.2250092524069 290.19992598074487
527 290.19992598074487
" stroke="rgb(25,74,102)" stroke-width="5" fill-opacity="0.0"></path><path d="
M 468.5 256.42493523315176 C
485.3874953737966 285.67493523315176
485.3874953737966 294.724916728338
468.5 323.974916728338
" stroke="rgb(25,74,102)" stroke-width="5" fill-opacity="0.0"></path><path d="
M 429.5 256.42493523315176 C
412.6125046262034 285.67493523315176
412.6125046262034 294.724916728338
429.5 323.974916728338
" stroke="rgb(25,217,102)" stroke-width="5" fill-opacity="0.0"></path><path d="
M 59 290.19992598074487 C
25.225009252406892 290.19992598074487
17.387495373796554 294.724916728338
0.5 323.974916728338
" stroke="rgb(25,87,102)" stroke-width="5" fill-opacity="0.0"></path><path d="
M 59 290.19992598074487 C
98 290.19992598074487
98 290.19992598074487
137 290.19992598074487
" stroke="rgb(25,87,102)" stroke-width="5" fill-opacity="0.0"></path><path d="
M 59 290.19992598074487 C
92.77499074759311 290.19992598074487
100.61250462620345 294.724916728338
117.5 323.974916728338
" stroke="rgb(25,106,102)" stroke-width="5" fill-opacity="0.0"></path><path d="
M 39.5 323.974916728338 C
56.387495373796554 353.224916728338
56.387495373796554 362.2748982235242
39.5 391.5248982235242
" stroke="rgb(25,152,102)" stroke-width="5" fill-opacity="0.0"></path><path d="
M 137 290.19992598074487 C
103.22500925240689 290.19992598074487
95.38749537379655 294.724916728338
78.5 323.974916728338
" stroke="rgb(25,106,102)" stroke-width="5" fill-opacity="0.0"></path><path d="
M 117.5 323.974916728338 C
134.38749537379655 353.224916728338
142.2250092524069 357.7499074759311
176 357.7499074759311
" stroke="rgb(25,125,102)" stroke-width="5" fill-opacity="0.0"></path><path d="
M 117.5 323.974916728338 C
137 357.7499074759311
137 357.7499074759311
156.5 391.5248982235242
" stroke="rgb(25,152,102)" stroke-width="5" fill-opacity="0.0"></path><path d="
M 117.5 323.974916728338 C
134.38749537379655 353.224916728338
134.38749537379655 362.2748982235242
117.5 391.5248982235242
" stroke="rgb(25,152,102)" stroke-width="5" fill-opacity="0.0"></path><path d="
M 78.5 323.974916728338 C
59 357.7499074759311
59 357.7499074759311
39.5 391.5248982235242
" stroke="rgb(25,152,102)" stroke-width="5" fill-opacity="0.0"></path><path d="
M 215 290.19992598074487 C
181.2250092524069 290.19992598074487
173.38749537379655 294.724916728338
156.5 323.974916728338
" stroke="rgb(25,36,102)" stroke-width="5" fill-opacity="0.0"></path><path d="
M 215 290.19992598074487 C
248.7749907475931 290.19992598074487
256.6125046262034 294.724916728338
273.5 323.974916728338
" stroke="rgb(25,52,102)" stroke-width="5" fill-opacity="0.0"></path><path d="
M 195.5 323.974916728338 C
215 357.7499074759311
215 357.7499074759311
234.5 391.5248982235242
" stroke="rgb(25,74,102)" stroke-width="5" fill-opacity="0.0"></path><path d="
M 293 290.19992598074487 C
332 290.19992598074487
332 290.19992598074487
371 290.19992598074487
" stroke="rgb(25,152,102)" stroke-width="5" fill-opacity="0.0"></path><path d="
M 293 290.19992598074487 C
326.7749907475931 290.19992598074487
334.6125046262034 294.724916728338
351.5 323.974916728338
" stroke="rgb(25,106,102)" stroke-width="5" fill-opacity="0.0"></path><path d="
M 273.5 323.974916728338 C
290.3874953737966 353.224916728338
298.2250092524069 357.7499074759311
332 357.7499074759311
" stroke="rgb(25,74,102)" stroke-width="5" fill-opacity="0.0"></path><path d="
M 273.5 323.974916728338 C
293 357.7499074759311
293 357.7499074759311
312.5 391.5248982235242
" stroke="rgb(25,61,102)" stroke-width="5" fill-opacity="0.0"></path><path d="
M 234.5 323.974916728338 C
217.61250462620345 353.224916728338
209.7749907475931 357.7499074759311
176 357.7499074759311
" stroke="rgb(25,106,102)" stroke-width="5" fill-opacity="0.0"></path><path d="
M 234.5 323.974916728338 C
217.61250462620345 353.224916728338
217.61250462620345 362.2748982235242
234.5 391.5248982235242
" stroke="rgb(25,87,102)" stroke-width="5" fill-opacity="0.0"></path><path d="
M 371 290.19992598074487 C
410 290.19992598074487
410 290.19992598074487
449 290.19992598074487
" stroke="rgb(25,152,102)" stroke-width="5" fill-opacity="0.0"></path><path d="
M 371 290.19992598074487 C
404.7749907475931 290.19992598074487
412.6125046262034 294.724916728338
429.5 323.974916728338
" stroke="rgb(25,217,102)" stroke-width="5" fill-opacity="0.0"></path><path d="
M 351.5 323.974916728338 C
371 357.7499074759311
371 357.7499074759311
390.5 391.5248982235242
" stroke="rgb(25,106,102)" stroke-width="5" fill-opacity="0.0"></path><path d="
M 312.5 323.974916728338 C
295.6125046262034 353.224916728338
287.7749907475931 357.7499074759311
254 357.7499074759311
" stroke="rgb(25,87,102)" stroke-width="5" fill-opacity="0.0"></path><path d="
M 312.5 323.974916728338 C
295.6125046262034 353.224916728338
295.6125046262034 362.2748982235242
312.5 391.5248982235242
" stroke="rgb(25,74,102)" stroke-width="5" fill-opacity="0.0"></path><path d="
M 312.5 323.974916728338 C
293 357.7499074759311
293 357.7499074759311
273.5 391.5248982235242
" stroke="rgb(25,106,102)" stroke-width="5" fill-opacity="0.0"></path><path d="
M 449 290.19992598074487 C
415.2250092524069 290.19992598074487
407.3874953737966 294.724916728338
390.5 323.974916728338
" stroke="rgb(25,106,102)" stroke-width="5" fill-opacity="0.0"></path><path d="
M 449 290.19992598074487 C
482.7749907475931 290.19992598074487
490.6125046262034 294.724916728338
507.5 323.974916728338
" stroke="rgb(25,106,102)" stroke-width="5" fill-opacity="0.0"></path><path d="
M 429.5 323.974916728338 C
449 357.7499074759311
449 357.7499074759311
468.5 391.5248982235242
" stroke="rgb(25,217,102)" stroke-width="5" fill-opacity="0.0"></path><path d="
M 527 290.19992598074487 C
493.2250092524069 290.19992598074487
485.3874953737966 294.724916728338
468.5 323.974916728338
" stroke="rgb(25,61,102)" stroke-width="5" fill-opacity="0.0"></path><path d="
M 98 357.7499074759311 C
64.22500925240689 357.7499074759311
56.387495373796554 362.2748982235242
39.5 391.5248982235242
" stroke="rgb(25,217,102)" stroke-width="5" fill-opacity="0.0"></path><path d="
M 98 357.7499074759311 C
131.7749907475931 357.7499074759311
139.61250462620345 362.2748982235242
156.5 391.5248982235242
" stroke="rgb(25,217,102)" stroke-width="5" fill-opacity="0.0"></path><path d="
M 78.5 391.5248982235242 C
95.38749537379655 420.7748982235242
95.38749537379655 429.8248797187104
78.5 459.0748797187104
" stroke="rgb(25,152,102)" stroke-width="5" fill-opacity="0.0"></path><path d="
M 39.5 391.5248982235242 C
20 425.2998889711173
20 425.2998889711173
0.5 459.0748797187104
" stroke="rgb(25,152,102)" stroke-width="5" fill-opacity="0.0"></path><path d="
M 176 357.7499074759311 C
142.2250092524069 357.7499074759311
134.38749537379655 362.2748982235242
117.5 391.5248982235242
" stroke="rgb(25,152,102)" stroke-width="5" fill-opacity="0.0"></path><path d="
M 176 357.7499074759311 C
215 357.7499074759311
215 357.7499074759311
254 357.7499074759311
" stroke="rgb(25,106,102)" stroke-width="5" fill-opacity="0.0"></path><path d="
M 176 357.7499074759311 C
209.7749907475931 357.7499074759311
217.61250462620345 362.2748982235242
234.5 391.5248982235242
" stroke="rgb(25,106,102)" stroke-width="5" fill-opacity="0.0"></path><path d="
M 117.5 391.5248982235242 C
100.61250462620345 420.7748982235242
92.77499074759311 425.2998889711173
59 425.2998889711173
" stroke="rgb(25,179,102)" stroke-width="5" fill-opacity="0.0"></path><path d="
M 117.5 391.5248982235242 C
100.61250462620345 420.7748982235242
100.61250462620345 429.8248797187104
117.5 459.0748797187104
" stroke="rgb(25,217,102)" stroke-width="5" fill-opacity="0.0"></path><path d="
M 117.5 391.5248982235242 C
98 425.2998889711173
98 425.2998889711173
78.5 459.0748797187104
" stroke="rgb(25,179,102)" stroke-width="5" fill-opacity="0.0"></path><path d="
M 234.5 391.5248982235242 C
251.38749537379655 420.7748982235242
259.2250092524069 425.2998889711173
293 425.2998889711173
" stroke="rgb(25,106,102)" stroke-width="5" fill-opacity="0.0"></path><path d="
M 234.5 391.5248982235242 C
254 425.2998889711173
254 425.2998889711173
273.5 459.0748797187104
" stroke="rgb(25,87,102)" stroke-width="5" fill-opacity="0.0"></path><path d="
M 195.5 391.5248982235242 C
178.61250462620345 420.7748982235242
170.7749907475931 425.2998889711173
137 425.2998889711173
" stroke="rgb(25,217,102)" stroke-width="5" fill-opacity="0.0"></path><path d="
M 195.5 391.5248982235242 C
178.61250462620345 420.7748982235242
178.61250462620345 429.8248797187104
195.5 459.0748797187104
" stroke="rgb(25,179,102)" stroke-width="5" fill-opacity="0.0"></path><path d="
M 332 357.7499074759311 C
365.7749907475931 357.7499074759311
373.6125046262034 362.2748982235242
390.5 391.5248982235242
" stroke="rgb(25,106,102)" stroke-width="5" fill-opacity="0.0"></path><path d="
M 312.5 391.5248982235242 C
329.3874953737966 420.7748982235242
329.3874953737966 429.8248797187104
312.5 459.0748797187104
" stroke="rgb(25,74,102)" stroke-width="5" fill-opacity="0.0"></path><path d="
M 273.5 391.5248982235242 C
256.6125046262034 420.7748982235242
248.7749907475931 425.2998889711173
215 425.2998889711173
" stroke="rgb(25,152,102)" stroke-width="5" fill-opacity="0.0"></path><path d="
M 273.5 391.5248982235242 C
256.6125046262034 420.7748982235242
256.6125046262034 429.8248797187104
273.5 459.0748797187104
" stroke="rgb(25,106,102)" stroke-width="5" fill-opacity="0.0"></path><path d="
M 410 357.7499074759311 C
376.2250092524069 357.7499074759311
368.3874953737966 362.2748982235242
351.5 391.5248982235242
" stroke="rgb(25,106,102)" stroke-width="5" fill-opacity="0.0"></path><path d="
M 410 357.7499074759311 C
449 357.7499074759311
449 357.7499074759311
488 357.7499074759311
" stroke="rgb(25,106,102)" stroke-width="5" fill-opacity="0.0"></path><path d="
M 410 357.7499074759311 C
443.7749907475931 357.7499074759311
451.6125046262034 362.2748982235242
468.5 391.5248982235242
" stroke="rgb(25,152,102)" stroke-width="5" fill-opacity="0.0"></path><path d="
M 390.5 391.5248982235242 C
410 425.2998889711173
410 425.2998889711173
429.5 459.0748797187104
" stroke="rgb(25,152,102)" stroke-width="5" fill-opacity="0.0"></path><path d="
M 351.5 391.5248982235242 C
334.6125046262034 420.7748982235242
334.6125046262034 429.8248797187104
351.5 459.0748797187104
" stroke="rgb(25,87,102)" stroke-width="5" fill-opacity="0.0"></path><path d="
M 351.5 391.5248982235242 C
332 425.2998889711173
332 425.2998889711173
312.5 459.0748797187104
" stroke="rgb(25,87,102)" stroke-width="5" fill-opacity="0.0"></path><path d="
M 468.5 391.5248982235242 C
485.3874953737966 420.7748982235242
485.3874953737966 429.8248797187104
468.5 459.0748797187104
" stroke="rgb(25,179,102)" stroke-width="5" fill-opacity="0.0"></path><path d="
M 429.5 391.5248982235242 C
412.6125046262034 420.7748982235242
412.6125046262034 429.8248797187104
429.5 459.0748797187104
" stroke="rgb(25,152,102)" stroke-width="5" fill-opacity="0.0"></path><path d="
M 429.5 391.5248982235242 C
410 425.2998889711173
410 425.2998889711173
390.5 459.0748797187104
" stroke="rgb(25,106,102)" stroke-width="5" fill-opacity="0.0"></path><path d="
M 59 425.2998889711173 C
25.225009252406892 425.2998889711173
17.387495373796554 429.8248797187104
0.5 459.0748797187104
" stroke="rgb(25,152,102)" stroke-width="5" fill-opacity="0.0"></path><path d="
M 59 425.2998889711173 C
98 425.2998889711173
98 425.2998889711173
137 425.2998889711173
" stroke="rgb(25,217,102)" stroke-width="5" fill-opacity="0.0"></path><path d="
M 59 425.2998889711173 C
92.77499074759311 425.2998889711173
100.61250462620345 429.8248797187104
117.5 459.0748797187104
" stroke="rgb(25,217,102)" stroke-width="5" fill-opacity="0.0"></path><path d="
M 39.5 459.0748797187104 C
58.999999999999986 492.8498704663035
59.000000000000014 492.84987046630346
78.5 526.6248612138966
" stroke="rgb(25,52,102)" stroke-width="5" fill-opacity="0.0"></path><path d="
M 39.5 459.0748797187104 C
56.38749537379654 488.3248797187104
56.38749537379654 497.37486121389657
39.5 526.6248612138966
" stroke="rgb(25,74,102)" stroke-width="5" fill-opacity="0.0"></path><path d="
M 137 425.2998889711173 C
103.22500925240689 425.2998889711173
95.38749537379655 429.8248797187104
78.5 459.0748797187104
" stroke="rgb(25,217,102)" stroke-width="5" fill-opacity="0.0"></path><path d="
M 137 425.2998889711173 C
176 425.2998889711173
176 425.2998889711173
215 425.2998889711173
" stroke="rgb(25,217,102)" stroke-width="5" fill-opacity="0.0"></path><path d="
M 137 425.2998889711173 C
170.7749907475931 425.2998889711173
178.61250462620345 429.8248797187104
195.5 459.0748797187104
" stroke="rgb(25,217,102)" stroke-width="5" fill-opacity="0.0"></path><path d="
M 117.5 459.0748797187104 C
134.38749537379655 488.3248797187104
142.2250092524069 492.8498704663035
176 492.8498704663035
" stroke="rgb(25,217,102)" stroke-width="5" fill-opacity="0.0"></path><path d="
M 117.5 459.0748797187104 C
137 492.8498704663035
137 492.84987046630346
156.5 526.6248612138966
" stroke="rgb(25,217,102)" stroke-width="5" fill-opacity="0.0"></path><path d="
M 117.5 459.0748797187104 C
134.38749537379653 488.3248797187104
134.38749537379653 497.37486121389657
117.5 526.6248612138966
" stroke="rgb(25,255,102)" stroke-width="5" fill-opacity="0.0"></path><path d="
M 215 425.2998889711173 C
181.2250092524069 425.2998889711173
173.38749537379655 429.8248797187104
156.5 459.0748797187104
" stroke="rgb(25,179,102)" stroke-width="5" fill-opacity="0.0"></path><path d="
M 215 425.2998889711173 C
254 425.2998889711173
254 425.2998889711173
293 425.2998889711173
" stroke="rgb(25,152,102)" stroke-width="5" fill-opacity="0.0"></path><path d="
M 156.5 459.0748797187104 C
139.61250462620345 488.3248797187104
131.7749907475931 492.8498704663035
98 492.8498704663035
" stroke="rgb(25,152,102)" stroke-width="5" fill-opacity="0.0"></path><path d="
M 156.5 459.0748797187104 C
139.61250462620347 488.3248797187104
139.61250462620347 497.37486121389657
156.5 526.6248612138966
" stroke="rgb(25,179,102)" stroke-width="5" fill-opacity="0.0"></path><path d="
M 156.5 459.0748797187104 C
137 492.8498704663035
137 492.84987046630346
117.5 526.6248612138966
" stroke="rgb(25,217,102)" stroke-width="5" fill-opacity="0.0"></path><path d="
M 293 425.2998889711173 C
326.7749907475931 425.2998889711173
334.6125046262034 429.8248797187104
351.5 459.0748797187104
" stroke="rgb(25,106,102)" stroke-width="5" fill-opacity="0.0"></path><path d="
M 273.5 459.0748797187104 C
293 492.8498704663035
293 492.84987046630346
312.5 526.6248612138966
" stroke="rgb(25,87,102)" stroke-width="5" fill-opacity="0.0"></path><path d="
M 234.5 459.0748797187104 C
217.61250462620345 488.3248797187104
209.7749907475931 492.8498704663035
176 492.8498704663035
" stroke="rgb(25,152,102)" stroke-width="5" fill-opacity="0.0"></path><path d="
M 234.5 459.0748797187104 C
217.61250462620347 488.3248797187104
217.61250462620347 497.37486121389657
234.5 526.6248612138966
" stroke="rgb(25,106,102)" stroke-width="5" fill-opacity="0.0"></path><path d="
M 371 425.2998889711173 C
337.2250092524069 425.2998889711173
329.3874953737966 429.8248797187104
312.5 459.0748797187104
" stroke="rgb(25,74,102)" stroke-width="5" fill-opacity="0.0"></path><path d="
M 371 425.2998889711173 C
410 425.2998889711173
410 425.2998889711173
449 425.2998889711173
" stroke="rgb(25,61,102)" stroke-width="5" fill-opacity="0.0"></path><path d="
M 351.5 459.0748797187104 C
368.3874953737966 488.3248797187104
376.2250092524069 492.8498704663035
410 492.8498704663035
" stroke="rgb(25,87,102)" stroke-width="5" fill-opacity="0.0"></path><path d="
M 351.5 459.0748797187104 C
371 492.8498704663035
371 492.84987046630346
390.5 526.6248612138966
" stroke="rgb(25,74,102)" stroke-width="5" fill-opacity="0.0"></path><path d="
M 312.5 459.0748797187104 C
295.6125046262034 488.3248797187104
287.7749907475931 492.8498704663035
254 492.8498704663035
" stroke="rgb(25,106,102)" stroke-width="5" fill-opacity="0.0"></path><path d="
M 449 425.2998889711173 C
415.2250092524069 425.2998889711173
407.3874953737966 429.8248797187104
390.5 459.0748797187104
" stroke="rgb(25,74,102)" stroke-width="5" fill-opacity="0.0"></path><path d="
M 429.5 459.0748797187104 C
446.3874953737966 488.3248797187104
454.2250092524069 492.8498704663035
488 492.8498704663035
" stroke="rgb(25,217,102)" stroke-width="5" fill-opacity="0.0"></path><path d="
M 429.5 459.0748797187104 C
449 492.8498704663035
449 492.84987046630346
468.5 526.6248612138966
" stroke="rgb(25,152,102)" stroke-width="5" fill-opacity="0.0"></path><path d="
M 390.5 459.0748797187104 C
373.6125046262035 488.3248797187104
373.6125046262035 497.37486121389657
390.5 526.6248612138966
" stroke="rgb(25,74,102)" stroke-width="5" fill-opacity="0.0"></path><path d="
M 390.5 459.0748797187104 C
371 492.8498704663035
371 492.84987046630346
351.5 526.6248612138966
" stroke="rgb(25,74,102)" stroke-width="5" fill-opacity="0.0"></path><path d="
M 468.5 459.0748797187104 C
449 492.8498704663035
449 492.84987046630346
429.5 526.6248612138966
" stroke="rgb(25,217,102)" stroke-width="5" fill-opacity="0.0"></path><path d="
M 98 492.8498704663035 C
64.2250092524069 492.8498704663035
56.38749537379655 497.37486121389657
39.5 526.6248612138966
" stroke="rgb(25,106,102)" stroke-width="5" fill-opacity="0.0"></path><path d="
M 98 492.8498704663035 C
137 492.8498704663035
137 492.8498704663035
176 492.8498704663035
" stroke="rgb(25,152,102)" stroke-width="5" fill-opacity="0.0"></path><path d="
M 176 492.8498704663035 C
215 492.8498704663035
215 492.8498704663035
254 492.8498704663035
" stroke="rgb(25,152,102)" stroke-width="5" fill-opacity="0.0"></path><path d="
M 254 492.8498704663035 C
287.7749907475931 492.8498704663035
295.6125046262035 497.37486121389657
312.5 526.6248612138966
" stroke="rgb(25,106,102)" stroke-width="5" fill-opacity="0.0"></path><path d="
M 410 492.8498704663035 C
376.2250092524069 492.8498704663035
368.3874953737965 497.37486121389657
351.5 526.6248612138966
" stroke="rgb(25,74,102)" stroke-width="5" fill-opacity="0.0"></path><path d="
M 410 492.8498704663035 C
443.7749907475931 492.8498704663035
451.6125046262035 497.37486121389657
468.5 526.6248612138966
" stroke="rgb(25,106,102)" stroke-width="5" fill-opacity="0.0"></path><line x1="62" y1="20" x2="56" y2="20" stroke="rgb(184,0,61)" stroke-width="2"></line><line x1="41" y1="56.373066958946424" x2="38" y2="51.17691453623979" stroke="rgb(255,0,87)" stroke-width="2"></line><line x1="-1" y1="56.373066958946424" x2="2" y2="51.17691453623979" stroke="#040" stroke-width="5" stroke-opacity="0.0"></line><line x1="140" y1="20" x2="134" y2="20" stroke="#040" stroke-width="5" stroke-opacity="0.0"></line><line x1="119" y1="56.373066958946424" x2="116" y2="51.17691453623979" stroke="rgb(255,0,87)" stroke-width="2"></line><line x1="77" y1="56.373066958946424" x2="80" y2="51.17691453623979" stroke="rgb(255,0,179)" stroke-width="2"></line><line x1="218" y1="20" x2="212" y2="20" stroke="rgb(255,0,87)" stroke-width="2"></line><line x1="197" y1="56.373066958946424" x2="194" y2="51.17691453623979" stroke="rgb(129,0,43)" stroke-width="2"></line><line x1="155" y1="56.373066958946424" x2="158" y2="51.17691453623979" stroke="rgb(255,0,125)" stroke-width="2"></line><line x1="296" y1="20" x2="290" y2="20" stroke="rgb(184,0,61)" stroke-width="2"></line><line x1="275" y1="56.373066958946424" x2="272" y2="51.17691453623979" stroke="rgb(129,0,43)" stroke-width="2"></line><line x1="233" y1="56.373066958946424" x2="236" y2="51.17691453623979" stroke="rgb(255,0,87)" stroke-width="2"></line><line x1="374" y1="20" x2="368" y2="20" stroke="rgb(129,0,43)" stroke-width="2"></line><line x1="353" y1="56.373066958946424" x2="350" y2="51.17691453623979" stroke="rgb(129,0,43)" stroke-width="2"></line><line x1="311" y1="56.373066958946424" x2="314" y2="51.17691453623979" stroke="rgb(90,0,30)" stroke-width="2"></line><line x1="452" y1="20" x2="446" y2="20" stroke="rgb(63,0,21)" stroke-width="2"></line><line x1="431" y1="56.373066958946424" x2="428" y2="51.17691453623979" stroke="rgb(129,0,43)" stroke-width="2"></line><line x1="389" y1="56.373066958946424" x2="392" y2="51.17691453623979" stroke="rgb(129,0,43)" stroke-width="2"></line><line x1="530" y1="20" x2="524" y2="20" stroke="rgb(90,0,30)" stroke-width="2"></line><line x1="509" y1="56.373066958946424" x2="506" y2="51.17691453623979" stroke="#040" stroke-width="5" stroke-opacity="0.0"></line><line x1="467" y1="56.373066958946424" x2="470" y2="51.17691453623979" stroke="rgb(129,0,43)" stroke-width="2"></line><line x1="101" y1="87.54998149518622" x2="95" y2="87.54998149518622" stroke="rgb(255,0,179)" stroke-width="2"></line><line x1="80" y1="123.92304845413264" x2="77" y2="118.72689603142601" stroke="rgb(255,0,125)" stroke-width="2"></line><line x1="38" y1="123.92304845413264" x2="41" y2="118.72689603142601" stroke="rgb(255,0,255)" stroke-width="2"></line><line x1="179" y1="87.54998149518622" x2="173" y2="87.54998149518622" stroke="rgb(255,0,125)" stroke-width="2"></line><line x1="158" y1="123.92304845413264" x2="155" y2="118.72689603142601" stroke="rgb(255,0,125)" stroke-width="2"></line><line x1="116" y1="123.92304845413264" x2="119" y2="118.72689603142601" stroke="rgb(255,0,87)" stroke-width="2"></line><line x1="257" y1="87.54998149518622" x2="251" y2="87.54998149518622" stroke="rgb(129,0,43)" stroke-width="2"></line><line x1="236" y1="123.92304845413264" x2="233" y2="118.72689603142601" stroke="rgb(255,0,87)" stroke-width="2"></line><line x1="194" y1="123.92304845413264" x2="197" y2="118.72689603142601" stroke="rgb(184,0,61)" stroke-width="2"></line><line x1="335" y1="87.54998149518622" x2="329" y2="87.54998149518622" stroke="rgb(184,0,61)" stroke-width="2"></line><line x1="314" y1="123.92304845413264" x2="311" y2="118.72689603142601" stroke="rgb(184,0,61)" stroke-width="2"></line><line x1="272" y1="123.92304845413264" x2="275" y2="118.72689603142601" stroke="rgb(129,0,43)" stroke-width="2"></line><line x1="413" y1="87.54998149518622" x2="407" y2="87.54998149518622" stroke="rgb(129,0,43)" stroke-width="2"></line><line x1="392" y1="123.92304845413264" x2="389" y2="118.72689603142601" stroke="rgb(255,0,87)" stroke-width="2"></line><line x1="350" y1="123.92304845413264" x2="353" y2="118.72689603142601" stroke="rgb(129,0,43)" stroke-width="2"></line><line x1="491" y1="87.54998149518622" x2="485" y2="87.54998149518622" stroke="rgb(90,0,30)" stroke-width="2"></line><line x1="470" y1="123.92304845413264" x2="467" y2="118.72689603142601" stroke="rgb(184,0,61)" stroke-width="2"></line><line x1="428" y1="123.92304845413264" x2="431" y2="118.72689603142601" stroke="rgb(90,0,30)" stroke-width="2"></line><line x1="62" y1="155.09996299037243" x2="56" y2="155.09996299037243" stroke="rgb(90,0,30)" stroke-width="2"></line><line x1="41" y1="191.47302994931886" x2="38" y2="186.27687752661222" stroke="rgb(255,0,179)" stroke-width="2"></line><line x1="-1" y1="191.47302994931886" x2="2" y2="186.27687752661222" stroke="#040" stroke-width="5" stroke-opacity="0.0"></line><line x1="140" y1="155.09996299037243" x2="134" y2="155.09996299037243" stroke="rgb(129,0,43)" stroke-width="2"></line><line x1="119" y1="191.47302994931886" x2="116" y2="186.27687752661222" stroke="rgb(255,0,87)" stroke-width="2"></line><line x1="77" y1="191.47302994931886" x2="80" y2="186.27687752661222" stroke="rgb(255,0,87)" stroke-width="2"></line><line x1="218" y1="155.09996299037243" x2="212" y2="155.09996299037243" stroke="rgb(184,0,61)" stroke-width="2"></line><line x1="197" y1="191.47302994931886" x2="194" y2="186.27687752661222" stroke="rgb(255,0,87)" stroke-width="2"></line><line x1="155" y1="191.47302994931886" x2="158" y2="186.27687752661222" stroke="rgb(255,0,87)" stroke-width="2"></line><line x1="296" y1="155.09996299037243" x2="290" y2="155.09996299037243" stroke="rgb(129,0,43)" stroke-width="2"></line><line x1="275" y1="191.47302994931886" x2="272" y2="186.27687752661222" stroke="rgb(0,0,0)" stroke-width="2"></line><line x1="233" y1="191.47302994931886" x2="236" y2="186.27687752661222" stroke="rgb(184,0,61)" stroke-width="2"></line><line x1="374" y1="155.09996299037243" x2="368" y2="155.09996299037243" stroke="rgb(255,0,87)" stroke-width="2"></line><line x1="353" y1="191.47302994931886" x2="350" y2="186.27687752661222" stroke="rgb(184,0,61)" stroke-width="2"></line><line x1="311" y1="191.47302994931886" x2="314" y2="186.27687752661222" stroke="rgb(184,0,61)" stroke-width="2"></line><line x1="452" y1="155.09996299037243" x2="446" y2="155.09996299037243" stroke="#040" stroke-width="5" stroke-opacity="0.0"></line><line x1="431" y1="191.47302994931886" x2="428" y2="186.27687752661222" stroke="rgb(255,0,125)" stroke-width="2"></line><line x1="389" y1="191.47302994931886" x2="392" y2="186.27687752661222" stroke="rgb(184,0,61)" stroke-width="2"></line><line x1="530" y1="155.09996299037243" x2="524" y2="155.09996299037243" stroke="rgb(255,0,87)" stroke-width="2"></line><line x1="509" y1="191.47302994931886" x2="506" y2="186.27687752661222" stroke="rgb(129,0,43)" stroke-width="2"></line><line x1="467" y1="191.47302994931886" x2="470" y2="186.27687752661222" stroke="rgb(255,0,125)" stroke-width="2"></line><line x1="101" y1="222.64994448555865" x2="95" y2="222.64994448555865" stroke="rgb(255,0,125)" stroke-width="2"></line><line x1="80" y1="259.0230114445051" x2="77" y2="253.82685902179844" stroke="rgb(255,0,87)" stroke-width="2"></line><line x1="38" y1="259.0230114445051" x2="41" y2="253.82685902179844" stroke="rgb(255,0,125)" stroke-width="2"></line><line x1="179" y1="222.64994448555865" x2="173" y2="222.64994448555865" stroke="rgb(255,0,87)" stroke-width="2"></line><line x1="158" y1="259.0230114445051" x2="155" y2="253.82685902179844" stroke="rgb(255,0,87)" stroke-width="2"></line><line x1="116" y1="259.0230114445051" x2="119" y2="253.82685902179844" stroke="rgb(255,0,87)" stroke-width="2"></line><line x1="257" y1="222.64994448555865" x2="251" y2="222.64994448555865" stroke="rgb(184,0,61)" stroke-width="2"></line><line x1="236" y1="259.0230114445051" x2="233" y2="253.82685902179844" stroke="rgb(184,0,61)" stroke-width="2"></line><line x1="194" y1="259.0230114445051" x2="197" y2="253.82685902179844" stroke="rgb(184,0,61)" stroke-width="2"></line><line x1="335" y1="222.64994448555865" x2="329" y2="222.64994448555865" stroke="rgb(129,0,43)" stroke-width="2"></line><line x1="314" y1="259.0230114445051" x2="311" y2="253.82685902179844" stroke="rgb(184,0,61)" stroke-width="2"></line><line x1="272" y1="259.0230114445051" x2="275" y2="253.82685902179844" stroke="rgb(0,0,0)" stroke-width="2"></line><line x1="413" y1="222.64994448555865" x2="407" y2="222.64994448555865" stroke="rgb(184,0,61)" stroke-width="2"></line><line x1="392" y1="259.0230114445051" x2="389" y2="253.82685902179844" stroke="rgb(129,0,43)" stroke-width="2"></line><line x1="350" y1="259.0230114445051" x2="353" y2="253.82685902179844" stroke="rgb(255,0,87)" stroke-width="2"></line><line x1="491" y1="222.64994448555865" x2="485" y2="222.64994448555865" stroke="rgb(255,0,125)" stroke-width="2"></line><line x1="470" y1="259.0230114445051" x2="467" y2="253.82685902179844" stroke="rgb(255,0,87)" stroke-width="2"></line><line x1="428" y1="259.0230114445051" x2="431" y2="253.82685902179844" stroke="rgb(255,0,179)" stroke-width="2"></line><line x1="62" y1="290.19992598074487" x2="56" y2="290.19992598074487" stroke="rgb(255,0,87)" stroke-width="2"></line><line x1="41" y1="326.5729929396913" x2="38" y2="321.37684051698466" stroke="rgb(255,0,125)" stroke-width="2"></line><line x1="-1" y1="326.5729929396913" x2="2" y2="321.37684051698466" stroke="rgb(255,0,87)" stroke-width="2"></line><line x1="140" y1="290.19992598074487" x2="134" y2="290.19992598074487" stroke="rgb(255,0,87)" stroke-width="2"></line><line x1="119" y1="326.5729929396913" x2="116" y2="321.37684051698466" stroke="rgb(255,0,125)" stroke-width="2"></line><line x1="77" y1="326.5729929396913" x2="80" y2="321.37684051698466" stroke="rgb(255,0,125)" stroke-width="2"></line><line x1="218" y1="290.19992598074487" x2="212" y2="290.19992598074487" stroke="rgb(129,0,43)" stroke-width="2"></line><line x1="197" y1="326.5729929396913" x2="194" y2="321.37684051698466" stroke="rgb(184,0,61)" stroke-width="2"></line><line x1="155" y1="326.5729929396913" x2="158" y2="321.37684051698466" stroke="rgb(90,0,30)" stroke-width="2"></line><line x1="296" y1="290.19992598074487" x2="290" y2="290.19992598074487" stroke="rgb(255,0,125)" stroke-width="2"></line><line x1="275" y1="326.5729929396913" x2="272" y2="321.37684051698466" stroke="rgb(184,0,61)" stroke-width="2"></line><line x1="233" y1="326.5729929396913" x2="236" y2="321.37684051698466" stroke="rgb(255,0,87)" stroke-width="2"></line><line x1="374" y1="290.19992598074487" x2="368" y2="290.19992598074487" stroke="rgb(255,0,179)" stroke-width="2"></line><line x1="353" y1="326.5729929396913" x2="350" y2="321.37684051698466" stroke="rgb(255,0,87)" stroke-width="2"></line><line x1="311" y1="326.5729929396913" x2="314" y2="321.37684051698466" stroke="rgb(255,0,87)" stroke-width="2"></line><line x1="452" y1="290.19992598074487" x2="446" y2="290.19992598074487" stroke="rgb(255,0,125)" stroke-width="2"></line><line x1="431" y1="326.5729929396913" x2="428" y2="321.37684051698466" stroke="rgb(255,0,255)" stroke-width="2"></line><line x1="389" y1="326.5729929396913" x2="392" y2="321.37684051698466" stroke="rgb(255,0,87)" stroke-width="2"></line><line x1="530" y1="290.19992598074487" x2="524" y2="290.19992598074487" stroke="rgb(184,0,61)" stroke-width="2"></line><line x1="509" y1="326.5729929396913" x2="506" y2="321.37684051698466" stroke="rgb(255,0,87)" stroke-width="2"></line><line x1="467" y1="326.5729929396913" x2="470" y2="321.37684051698466" stroke="rgb(184,0,61)" stroke-width="2"></line><line x1="101" y1="357.7499074759311" x2="95" y2="357.7499074759311" stroke="rgb(255,0,255)" stroke-width="2"></line><line x1="80" y1="394.1229744348775" x2="77" y2="388.9268220121709" stroke="rgb(255,0,125)" stroke-width="2"></line><line x1="38" y1="394.1229744348775" x2="41" y2="388.9268220121709" stroke="rgb(255,0,179)" stroke-width="2"></line><line x1="179" y1="357.7499074759311" x2="173" y2="357.7499074759311" stroke="rgb(255,0,125)" stroke-width="2"></line><line x1="158" y1="394.1229744348775" x2="155" y2="388.9268220121709" stroke="rgb(255,0,179)" stroke-width="2"></line><line x1="116" y1="394.1229744348775" x2="119" y2="388.9268220121709" stroke="rgb(255,0,179)" stroke-width="2"></line><line x1="257" y1="357.7499074759311" x2="251" y2="357.7499074759311" stroke="rgb(255,0,87)" stroke-width="2"></line><line x1="236" y1="394.1229744348775" x2="233" y2="388.9268220121709" stroke="rgb(255,0,87)" stroke-width="2"></line><line x1="194" y1="394.1229744348775" x2="197" y2="388.9268220121709" stroke="rgb(255,0,179)" stroke-width="2"></line><line x1="335" y1="357.7499074759311" x2="329" y2="357.7499074759311" stroke="rgb(255,0,87)" stroke-width="2"></line><line x1="314" y1="394.1229744348775" x2="311" y2="388.9268220121709" stroke="rgb(184,0,61)" stroke-width="2"></line><line x1="272" y1="394.1229744348775" x2="275" y2="388.9268220121709" stroke="rgb(255,0,125)" stroke-width="2"></line><line x1="413" y1="357.7499074759311" x2="407" y2="357.7499074759311" stroke="rgb(255,0,125)" stroke-width="2"></line><line x1="392" y1="394.1229744348775" x2="389" y2="388.9268220121709" stroke="rgb(255,0,125)" stroke-width="2"></line><line x1="350" y1="394.1229744348775" x2="353" y2="388.9268220121709" stroke="rgb(255,0,87)" stroke-width="2"></line><line x1="491" y1="357.7499074759311" x2="485" y2="357.7499074759311" stroke="rgb(255,0,87)" stroke-width="2"></line><line x1="470" y1="394.1229744348775" x2="467" y2="388.9268220121709" stroke="rgb(255,0,179)" stroke-width="2"></line><line x1="428" y1="394.1229744348775" x2="431" y2="388.9268220121709" stroke="rgb(255,0,125)" stroke-width="2"></line><line x1="62" y1="425.2998889711173" x2="56" y2="425.2998889711173" stroke="rgb(255,0,179)" stroke-width="2"></line><line x1="41" y1="461.6729559300637" x2="38" y2="456.4768035073571" stroke="rgb(184,0,61)" stroke-width="2"></line><line x1="-1" y1="461.6729559300637" x2="2" y2="456.4768035073571" stroke="rgb(255,0,125)" stroke-width="2"></line><line x1="140" y1="425.2998889711173" x2="134" y2="425.2998889711173" stroke="rgb(255,0,255)" stroke-width="2"></line><line x1="119" y1="461.6729559300637" x2="116" y2="456.4768035073571" stroke="rgb(255,0,255)" stroke-width="2"></line><line x1="77" y1="461.6729559300637" x2="80" y2="456.4768035073571" stroke="rgb(255,0,179)" stroke-width="2"></line><line x1="218" y1="425.2998889711173" x2="212" y2="425.2998889711173" stroke="rgb(255,0,179)" stroke-width="2"></line><line x1="197" y1="461.6729559300637" x2="194" y2="456.4768035073571" stroke="rgb(255,0,179)" stroke-width="2"></line><line x1="155" y1="461.6729559300637" x2="158" y2="456.4768035073571" stroke="rgb(255,0,179)" stroke-width="2"></line><line x1="296" y1="425.2998889711173" x2="290" y2="425.2998889711173" stroke="rgb(255,0,125)" stroke-width="2"></line><line x1="275" y1="461.6729559300637" x2="272" y2="456.4768035073571" stroke="rgb(255,0,87)" stroke-width="2"></line><line x1="233" y1="461.6729559300637" x2="236" y2="456.4768035073571" stroke="rgb(255,0,125)" stroke-width="2"></line><line x1="374" y1="425.2998889711173" x2="368" y2="425.2998889711173" stroke="rgb(184,0,61)" stroke-width="2"></line><line x1="353" y1="461.6729559300637" x2="350" y2="456.4768035073571" stroke="rgb(255,0,87)" stroke-width="2"></line><line x1="311" y1="461.6729559300637" x2="314" y2="456.4768035073571" stroke="rgb(255,0,87)" stroke-width="2"></line><line x1="452" y1="425.2998889711173" x2="446" y2="425.2998889711173" stroke="rgb(184,0,61)" stroke-width="2"></line><line x1="431" y1="461.6729559300637" x2="428" y2="456.4768035073571" stroke="rgb(255,0,179)" stroke-width="2"></line><line x1="389" y1="461.6729559300637" x2="392" y2="456.4768035073571" stroke="rgb(255,0,87)" stroke-width="2"></line><line x1="530" y1="425.2998889711173" x2="524" y2="425.2998889711173" stroke="#040" stroke-width="5" stroke-opacity="0.0"></line><line x1="509" y1="461.6729559300637" x2="506" y2="456.4768035073571" stroke="#040" stroke-width="5" stroke-opacity="0.0"></line><line x1="467" y1="461.6729559300637" x2="470" y2="456.4768035073571" stroke="rgb(255,0,179)" stroke-width="2"></line><line x1="101" y1="492.8498704663035" x2="95" y2="492.8498704663035" stroke="rgb(255,0,125)" stroke-width="2"></line><line x1="80" y1="529.2229374252499" x2="77" y2="524.0267850025432" stroke="rgb(129,0,43)" stroke-width="2"></line><line x1="38" y1="529.2229374252499" x2="41" y2="524.0267850025432" stroke="rgb(255,0,87)" stroke-width="2"></line><line x1="179" y1="492.8498704663035" x2="173" y2="492.8498704663035" stroke="rgb(255,0,179)" stroke-width="2"></line><line x1="158" y1="529.2229374252499" x2="155" y2="524.0267850025432" stroke="rgb(255,0,179)" stroke-width="2"></line><line x1="116" y1="529.2229374252499" x2="119" y2="524.0267850025432" stroke="rgb(255,0,255)" stroke-width="2"></line><line x1="257" y1="492.8498704663035" x2="251" y2="492.8498704663035" stroke="rgb(255,0,125)" stroke-width="2"></line><line x1="236" y1="529.2229374252499" x2="233" y2="524.0267850025432" stroke="rgb(255,0,87)" stroke-width="2"></line><line x1="194" y1="529.2229374252499" x2="197" y2="524.0267850025432" stroke="#040" stroke-width="5" stroke-opacity="0.0"></line><line x1="335" y1="492.8498704663035" x2="329" y2="492.8498704663035" stroke="#040" stroke-width="5" stroke-opacity="0.0"></line><line x1="314" y1="529.2229374252499" x2="311" y2="524.0267850025432" stroke="rgb(255,0,87)" stroke-width="2"></line><line x1="272" y1="529.2229374252499" x2="275" y2="524.0267850025432" stroke="#040" stroke-width="5" stroke-opacity="0.0"></line><line x1="413" y1="492.8498704663035" x2="407" y2="492.8498704663035" stroke="rgb(255,0,87)" stroke-width="2"></line><line x1="392" y1="529.2229374252499" x2="389" y2="524.0267850025432" stroke="rgb(184,0,61)" stroke-width="2"></line><line x1="350" y1="529.2229374252499" x2="353" y2="524.0267850025432" stroke="rgb(184,0,61)" stroke-width="2"></line><line x1="491" y1="492.8498704663035" x2="485" y2="492.8498704663035" stroke="rgb(255,0,255)" stroke-width="2"></line><line x1="470" y1="529.2229374252499" x2="467" y2="524.0267850025432" stroke="rgb(255,0,125)" stroke-width="2"></line><line x1="428" y1="529.2229374252499" x2="431" y2="524.0267850025432" stroke="rgb(255,0,255)" stroke-width="2"></line></svg>
