<svg viewBox="-22.5 15 572.5 464.6633369868303" xmlns="http://www.w3.org/2000/svg" version="1.1"><path d="
M 95 20 C
57.5 20
38.75 52.47595264191645
57.5 84.9519052838329
" stroke="rgb(25,179,102)" stroke-width="5" fill-opacity="0.0"></path><path d="
M 95 20 C
30.0480947161671 20
14.97595264191645 28.7019052838329
-17.5 84.9519052838329
" stroke="rgb(25,217,102)" stroke-width="5" fill-opacity="0.0"></path><path d="
M 95 20 C
170 20
170 20
245 20
" stroke="rgb(25,152,102)" stroke-width="5" fill-opacity="0.0"></path><path d="
M 95 20 C
159.9519052838329 20
175.02404735808355 28.7019052838329
207.5 84.9519052838329
" stroke="rgb(25,152,102)" stroke-width="5" fill-opacity="0.0"></path><path d="
M 95 20 C
132.5 20
151.25 52.47595264191645
132.5 84.9519052838329
" stroke="rgb(25,152,102)" stroke-width="5" fill-opacity="0.0"></path><path d="
M 57.5 84.9519052838329 C
38.75 52.47595264191645
1.25 52.47595264191645
-17.5 84.9519052838329
" stroke="rgb(25,217,102)" stroke-width="5" fill-opacity="0.0"></path><path d="
M 57.5 84.9519052838329 C
76.25 117.42785792574935
113.75 117.42785792574935
132.5 84.9519052838329
" stroke="rgb(25,152,102)" stroke-width="5" fill-opacity="0.0"></path><path d="
M 57.5 84.9519052838329 C
89.97595264191645 141.2019052838329
105.0480947161671 149.9038105676658
170 149.9038105676658
" stroke="rgb(25,152,102)" stroke-width="5" fill-opacity="0.0"></path><path d="
M 57.5 84.9519052838329 C
95 149.9038105676658
95 149.9038105676658
132.5 214.8557158514987
" stroke="rgb(25,152,102)" stroke-width="5" fill-opacity="0.0"></path><path d="
M 57.5 84.9519052838329 C
89.97595264191645 141.2019052838329
89.97595264191645 158.6057158514987
57.5 214.8557158514987
" stroke="rgb(25,152,102)" stroke-width="5" fill-opacity="0.0"></path><path d="
M 245 20 C
207.5 20
188.75 52.47595264191645
207.5 84.9519052838329
" stroke="rgb(25,125,102)" stroke-width="5" fill-opacity="0.0"></path><path d="
M 245 20 C
180.0480947161671 20
164.97595264191645 28.7019052838329
132.5 84.9519052838329
" stroke="rgb(25,125,102)" stroke-width="5" fill-opacity="0.0"></path><path d="
M 245 20 C
320 20
320 20
395 20
" stroke="rgb(25,106,102)" stroke-width="5" fill-opacity="0.0"></path><path d="
M 245 20 C
309.9519052838329 20
325.0240473580835 28.7019052838329
357.5 84.9519052838329
" stroke="rgb(25,106,102)" stroke-width="5" fill-opacity="0.0"></path><path d="
M 207.5 84.9519052838329 C
188.75 52.47595264191645
151.25 52.47595264191645
132.5 84.9519052838329
" stroke="rgb(25,125,102)" stroke-width="5" fill-opacity="0.0"></path><path d="
M 207.5 84.9519052838329 C
226.25 117.42785792574935
207.5 149.9038105676658
170 149.9038105676658
" stroke="rgb(25,125,102)" stroke-width="5" fill-opacity="0.0"></path><path d="
M 207.5 84.9519052838329 C
239.97595264191645 141.2019052838329
255.0480947161671 149.9038105676658
320 149.9038105676658
" stroke="rgb(25,106,102)" stroke-width="5" fill-opacity="0.0"></path><path d="
M 207.5 84.9519052838329 C
245 149.9038105676658
245 149.9038105676658
282.5 214.8557158514987
" stroke="rgb(25,125,102)" stroke-width="5" fill-opacity="0.0"></path><path d="
M 207.5 84.9519052838329 C
239.97595264191645 141.2019052838329
239.97595264191645 158.6057158514987
207.5 214.8557158514987
" stroke="rgb(25,125,102)" stroke-width="5" fill-opacity="0.0"></path><path d="
M 132.5 84.9519052838329 C
100.02404735808355 141.2019052838329
100.02404735808355 158.6057158514987
132.5 214.8557158514987
" stroke="rgb(25,125,102)" stroke-width="5" fill-opacity="0.0"></path><path d="
M 132.5 84.9519052838329 C
95 149.9038105676658
95 149.9038105676658
57.5 214.8557158514987
" stroke="rgb(25,125,102)" stroke-width="5" fill-opacity="0.0"></path><path d="
M 395 20 C
357.5 20
338.75 52.47595264191645
357.5 84.9519052838329
" stroke="rgb(25,87,102)" stroke-width="5" fill-opacity="0.0"></path><path d="
M 395 20 C
330.0480947161671 20
314.9759526419165 28.7019052838329
282.5 84.9519052838329
" stroke="rgb(25,87,102)" stroke-width="5" fill-opacity="0.0"></path><path d="
M 395 20 C
470 20
470 20
545 20
" stroke="rgb(25,74,102)" stroke-width="5" fill-opacity="0.0"></path><path d="
M 395 20 C
459.9519052838329 20
475.0240473580835 28.7019052838329
507.5 84.9519052838329
" stroke="rgb(25,74,102)" stroke-width="5" fill-opacity="0.0"></path><path d="
M 357.5 84.9519052838329 C
338.75 52.47595264191645
301.25 52.47595264191645
282.5 84.9519052838329
" stroke="rgb(25,87,102)" stroke-width="5" fill-opacity="0.0"></path><path d="
M 357.5 84.9519052838329 C
376.25 117.42785792574935
413.75 117.42785792574935
432.5 84.9519052838329
" stroke="rgb(25,87,102)" stroke-width="5" fill-opacity="0.0"></path><path d="
M 357.5 84.9519052838329 C
376.25 117.42785792574935
357.5 149.9038105676658
320 149.9038105676658
" stroke="rgb(25,87,102)" stroke-width="5" fill-opacity="0.0"></path><path d="
M 357.5 84.9519052838329 C
389.9759526419165 141.2019052838329
405.0480947161671 149.9038105676658
470 149.9038105676658
" stroke="rgb(25,87,102)" stroke-width="5" fill-opacity="0.0"></path><path d="
M 357.5 84.9519052838329 C
395 149.9038105676658
395 149.9038105676658
432.5 214.8557158514987
" stroke="rgb(25,87,102)" stroke-width="5" fill-opacity="0.0"></path><path d="
M 357.5 84.9519052838329 C
389.9759526419165 141.2019052838329
389.9759526419165 158.6057158514987
357.5 214.8557158514987
" stroke="rgb(25,106,102)" stroke-width="5" fill-opacity="0.0"></path><path d="
M 282.5 84.9519052838329 C
250.02404735808355 141.2019052838329
234.9519052838329 149.9038105676658
170 149.9038105676658
" stroke="rgb(25,106,102)" stroke-width="5" fill-opacity="0.0"></path><path d="
M 282.5 84.9519052838329 C
263.75 117.42785792574935
282.5 149.9038105676658
320 149.9038105676658
" stroke="rgb(25,87,102)" stroke-width="5" fill-opacity="0.0"></path><path d="
M 282.5 84.9519052838329 C
250.02404735808355 141.2019052838329
250.02404735808355 158.6057158514987
282.5 214.8557158514987
" stroke="rgb(25,106,102)" stroke-width="5" fill-opacity="0.0"></path><path d="
M 282.5 84.9519052838329 C
245 149.9038105676658
245 149.9038105676658
207.5 214.8557158514987
" stroke="rgb(25,106,102)" stroke-width="5" fill-opacity="0.0"></path><path d="
M 545 20 C
480.0480947161671 20
464.9759526419165 28.7019052838329
432.5 84.9519052838329
" stroke="rgb(25,74,102)" stroke-width="5" fill-opacity="0.0"></path><path d="
M 507.5 84.9519052838329 C
526.25 117.42785792574935
507.5 149.9038105676658
470 149.9038105676658
" stroke="rgb(25,74,102)" stroke-width="5" fill-opacity="0.0"></path><path d="
M 432.5 84.9519052838329 C
400.0240473580835 141.2019052838329
384.9519052838329 149.9038105676658
320 149.9038105676658
" stroke="rgb(25,87,102)" stroke-width="5" fill-opacity="0.0"></path><path d="
M 432.5 84.9519052838329 C
400.0240473580835 141.2019052838329
400.0240473580835 158.6057158514987
432.5 214.8557158514987
" stroke="rgb(25,87,102)" stroke-width="5" fill-opacity="0.0"></path><path d="
M 432.5 84.9519052838329 C
395 149.9038105676658
395 149.9038105676658
357.5 214.8557158514987
" stroke="rgb(25,106,102)" stroke-width="5" fill-opacity="0.0"></path><path d="
M 170 149.9038105676658 C
105.0480947161671 149.9038105676658
89.97595264191645 158.6057158514987
57.5 214.8557158514987
" stroke="rgb(25,125,102)" stroke-width="5" fill-opacity="0.0"></path><path d="
M 170 149.9038105676658 C
245 149.9038105676658
245 149.9038105676658
320 149.9038105676658
" stroke="rgb(25,106,102)" stroke-width="5" fill-opacity="0.0"></path><path d="
M 170 149.9038105676658 C
234.9519052838329 149.9038105676658
250.02404735808355 158.6057158514987
282.5 214.8557158514987
" stroke="rgb(25,125,102)" stroke-width="5" fill-opacity="0.0"></path><path d="
M 170 149.9038105676658 C
207.5 149.9038105676658
226.25 182.37976320958225
207.5 214.8557158514987
" stroke="rgb(25,125,102)" stroke-width="5" fill-opacity="0.0"></path><path d="
M 132.5 214.8557158514987 C
113.75 182.37976320958225
76.25 182.37976320958225
57.5 214.8557158514987
" stroke="rgb(25,125,102)" stroke-width="5" fill-opacity="0.0"></path><path d="
M 132.5 214.8557158514987 C
151.25 247.33166849341515
132.5 279.8076211353316
95 279.8076211353316
" stroke="rgb(25,125,102)" stroke-width="5" fill-opacity="0.0"></path><path d="
M 132.5 214.8557158514987 C
164.97595264191645 271.1057158514987
180.0480947161671 279.8076211353316
245 279.8076211353316
" stroke="rgb(25,125,102)" stroke-width="5" fill-opacity="0.0"></path><path d="
M 132.5 214.8557158514987 C
170 279.8076211353316
170 279.8076211353316
207.5 344.7595264191645
" stroke="rgb(25,125,102)" stroke-width="5" fill-opacity="0.0"></path><path d="
M 132.5 214.8557158514987 C
164.97595264191645 271.1057158514987
164.97595264191645 288.5095264191645
132.5 344.7595264191645
" stroke="rgb(25,152,102)" stroke-width="5" fill-opacity="0.0"></path><path d="
M 57.5 214.8557158514987 C
25.02404735808355 271.1057158514987
25.02404735808355 288.5095264191645
57.5 344.7595264191645
" stroke="rgb(25,152,102)" stroke-width="5" fill-opacity="0.0"></path><path d="
M 57.5 214.8557158514987 C
20 279.8076211353316
20 279.8076211353316
-17.5 344.7595264191645
" stroke="rgb(25,106,102)" stroke-width="5" fill-opacity="0.0"></path><path d="
M 320 149.9038105676658 C
282.5 149.9038105676658
263.75 182.37976320958225
282.5 214.8557158514987
" stroke="rgb(25,106,102)" stroke-width="5" fill-opacity="0.0"></path><path d="
M 320 149.9038105676658 C
255.0480947161671 149.9038105676658
239.97595264191645 158.6057158514987
207.5 214.8557158514987
" stroke="rgb(25,106,102)" stroke-width="5" fill-opacity="0.0"></path><path d="
M 320 149.9038105676658 C
395 149.9038105676658
395 149.9038105676658
470 149.9038105676658
" stroke="rgb(25,87,102)" stroke-width="5" fill-opacity="0.0"></path><path d="
M 320 149.9038105676658 C
384.9519052838329 149.9038105676658
400.0240473580835 158.6057158514987
432.5 214.8557158514987
" stroke="rgb(25,87,102)" stroke-width="5" fill-opacity="0.0"></path><path d="
M 282.5 214.8557158514987 C
301.25 247.33166849341515
338.75 247.33166849341515
357.5 214.8557158514987
" stroke="rgb(25,125,102)" stroke-width="5" fill-opacity="0.0"></path><path d="
M 282.5 214.8557158514987 C
301.25 247.33166849341515
282.5 279.8076211353316
245 279.8076211353316
" stroke="rgb(25,125,102)" stroke-width="5" fill-opacity="0.0"></path><path d="
M 282.5 214.8557158514987 C
314.9759526419165 271.1057158514987
330.0480947161671 279.8076211353316
395 279.8076211353316
" stroke="rgb(25,125,102)" stroke-width="5" fill-opacity="0.0"></path><path d="
M 282.5 214.8557158514987 C
320 279.8076211353316
320 279.8076211353316
357.5 344.7595264191645
" stroke="rgb(25,106,102)" stroke-width="5" fill-opacity="0.0"></path><path d="
M 282.5 214.8557158514987 C
314.9759526419165 271.1057158514987
314.9759526419165 288.5095264191645
282.5 344.7595264191645
" stroke="rgb(25,152,102)" stroke-width="5" fill-opacity="0.0"></path><path d="
M 207.5 214.8557158514987 C
175.02404735808355 271.1057158514987
159.9519052838329 279.8076211353316
95 279.8076211353316
" stroke="rgb(25,125,102)" stroke-width="5" fill-opacity="0.0"></path><path d="
M 207.5 214.8557158514987 C
175.02404735808355 271.1057158514987
175.02404735808355 288.5095264191645
207.5 344.7595264191645
" stroke="rgb(25,125,102)" stroke-width="5" fill-opacity="0.0"></path><path d="
M 207.5 214.8557158514987 C
170 279.8076211353316
170 279.8076211353316
132.5 344.7595264191645
" stroke="rgb(25,152,102)" stroke-width="5" fill-opacity="0.0"></path><path d="
M 470 149.9038105676658 C
405.0480947161671 149.9038105676658
389.9759526419165 158.6057158514987
357.5 214.8557158514987
" stroke="rgb(25,106,102)" stroke-width="5" fill-opacity="0.0"></path><path d="
M 432.5 214.8557158514987 C
413.75 182.37976320958225
376.25 182.37976320958225
357.5 214.8557158514987
" stroke="rgb(25,106,102)" stroke-width="5" fill-opacity="0.0"></path><path d="
M 432.5 214.8557158514987 C
451.25 247.33166849341515
432.5 279.8076211353316
395 279.8076211353316
" stroke="rgb(25,106,102)" stroke-width="5" fill-opacity="0.0"></path><path d="
M 432.5 214.8557158514987 C
464.9759526419165 271.1057158514987
480.0480947161671 279.8076211353316
545 279.8076211353316
" stroke="rgb(25,87,102)" stroke-width="5" fill-opacity="0.0"></path><path d="
M 432.5 214.8557158514987 C
470 279.8076211353316
470 279.8076211353316
507.5 344.7595264191645
" stroke="rgb(25,87,102)" stroke-width="5" fill-opacity="0.0"></path><path d="
M 432.5 214.8557158514987 C
464.9759526419165 271.1057158514987
464.9759526419165 288.5095264191645
432.5 344.7595264191645
" stroke="rgb(25,106,102)" stroke-width="5" fill-opacity="0.0"></path><path d="
M 357.5 214.8557158514987 C
325.0240473580835 271.1057158514987
309.9519052838329 279.8076211353316
245 279.8076211353316
" stroke="rgb(25,125,102)" stroke-width="5" fill-opacity="0.0"></path><path d="
M 357.5 214.8557158514987 C
338.75 247.33166849341515
357.5 279.8076211353316
395 279.8076211353316
" stroke="rgb(25,125,102)" stroke-width="5" fill-opacity="0.0"></path><path d="
M 357.5 214.8557158514987 C
325.0240473580835 271.1057158514987
325.0240473580835 288.5095264191645
357.5 344.7595264191645
" stroke="rgb(25,106,102)" stroke-width="5" fill-opacity="0.0"></path><path d="
M 357.5 214.8557158514987 C
320 279.8076211353316
320 279.8076211353316
282.5 344.7595264191645
" stroke="rgb(25,152,102)" stroke-width="5" fill-opacity="0.0"></path><path d="
M 95 279.8076211353316 C
57.5 279.8076211353316
38.75 312.2835737772481
57.5 344.7595264191645
" stroke="rgb(25,152,102)" stroke-width="5" fill-opacity="0.0"></path><path d="
M 95 279.8076211353316 C
30.0480947161671 279.8076211353316
14.97595264191645 288.5095264191645
-17.5 344.7595264191645
" stroke="rgb(25,106,102)" stroke-width="5" fill-opacity="0.0"></path><path d="
M 95 279.8076211353316 C
170 279.8076211353316
170 279.8076211353316
245 279.8076211353316
" stroke="rgb(25,125,102)" stroke-width="5" fill-opacity="0.0"></path><path d="
M 95 279.8076211353316 C
159.9519052838329 279.8076211353316
175.02404735808355 288.5095264191645
207.5 344.7595264191645
" stroke="rgb(25,125,102)" stroke-width="5" fill-opacity="0.0"></path><path d="
M 57.5 344.7595264191645 C
89.97595264191645 401.0095264191645
105.0480947161671 409.7114317029974
170 409.7114317029974
" stroke="rgb(25,217,102)" stroke-width="5" fill-opacity="0.0"></path><path d="
M 57.5 344.7595264191645 C
95 409.7114317029974
95 409.7114317029974
132.5 474.6633369868303
" stroke="rgb(25,152,102)" stroke-width="5" fill-opacity="0.0"></path><path d="
M 57.5 344.7595264191645 C
89.97595264191645 401.0095264191645
89.97595264191645 418.4133369868303
57.5 474.6633369868303
" stroke="rgb(25,179,102)" stroke-width="5" fill-opacity="0.0"></path><path d="
M 245 279.8076211353316 C
207.5 279.8076211353316
188.75 312.2835737772481
207.5 344.7595264191645
" stroke="rgb(25,125,102)" stroke-width="5" fill-opacity="0.0"></path><path d="
M 245 279.8076211353316 C
180.0480947161671 279.8076211353316
164.97595264191645 288.5095264191645
132.5 344.7595264191645
" stroke="rgb(25,152,102)" stroke-width="5" fill-opacity="0.0"></path><path d="
M 245 279.8076211353316 C
320 279.8076211353316
320 279.8076211353316
395 279.8076211353316
" stroke="rgb(25,125,102)" stroke-width="5" fill-opacity="0.0"></path><path d="
M 245 279.8076211353316 C
309.9519052838329 279.8076211353316
325.0240473580835 288.5095264191645
357.5 344.7595264191645
" stroke="rgb(25,106,102)" stroke-width="5" fill-opacity="0.0"></path><path d="
M 207.5 344.7595264191645 C
188.75 312.2835737772481
151.25 312.2835737772481
132.5 344.7595264191645
" stroke="rgb(25,152,102)" stroke-width="5" fill-opacity="0.0"></path><path d="
M 207.5 344.7595264191645 C
226.25 377.2354790610809
263.75 377.2354790610809
282.5 344.7595264191645
" stroke="rgb(25,152,102)" stroke-width="5" fill-opacity="0.0"></path><path d="
M 207.5 344.7595264191645 C
239.97595264191645 401.0095264191645
255.0480947161671 409.7114317029974
320 409.7114317029974
" stroke="rgb(25,152,102)" stroke-width="5" fill-opacity="0.0"></path><path d="
M 207.5 344.7595264191645 C
245 409.7114317029974
245 409.7114317029974
282.5 474.6633369868303
" stroke="rgb(25,152,102)" stroke-width="5" fill-opacity="0.0"></path><path d="
M 207.5 344.7595264191645 C
239.97595264191645 401.0095264191645
239.97595264191645 418.4133369868303
207.5 474.6633369868303
" stroke="rgb(25,125,102)" stroke-width="5" fill-opacity="0.0"></path><path d="
M 132.5 344.7595264191645 C
113.75 377.2354790610809
132.5 409.7114317029974
170 409.7114317029974
" stroke="rgb(25,217,102)" stroke-width="5" fill-opacity="0.0"></path><path d="
M 132.5 344.7595264191645 C
100.02404735808355 401.0095264191645
100.02404735808355 418.4133369868303
132.5 474.6633369868303
" stroke="rgb(25,152,102)" stroke-width="5" fill-opacity="0.0"></path><path d="
M 132.5 344.7595264191645 C
95 409.7114317029974
95 409.7114317029974
57.5 474.6633369868303
" stroke="rgb(25,179,102)" stroke-width="5" fill-opacity="0.0"></path><path d="
M 395 279.8076211353316 C
357.5 279.8076211353316
338.75 312.2835737772481
357.5 344.7595264191645
" stroke="rgb(25,106,102)" stroke-width="5" fill-opacity="0.0"></path><path d="
M 395 279.8076211353316 C
330.0480947161671 279.8076211353316
314.9759526419165 288.5095264191645
282.5 344.7595264191645
" stroke="rgb(25,152,102)" stroke-width="5" fill-opacity="0.0"></path><path d="
M 395 279.8076211353316 C
470 279.8076211353316
470 279.8076211353316
545 279.8076211353316
" stroke="rgb(25,106,102)" stroke-width="5" fill-opacity="0.0"></path><path d="
M 395 279.8076211353316 C
459.9519052838329 279.8076211353316
475.0240473580835 288.5095264191645
507.5 344.7595264191645
" stroke="rgb(25,106,102)" stroke-width="5" fill-opacity="0.0"></path><path d="
M 357.5 344.7595264191645 C
389.9759526419165 401.0095264191645
405.0480947161671 409.7114317029974
470 409.7114317029974
" stroke="rgb(25,106,102)" stroke-width="5" fill-opacity="0.0"></path><path d="
M 357.5 344.7595264191645 C
395 409.7114317029974
395 409.7114317029974
432.5 474.6633369868303
" stroke="rgb(25,106,102)" stroke-width="5" fill-opacity="0.0"></path><path d="
M 357.5 344.7595264191645 C
389.9759526419165 401.0095264191645
389.9759526419165 418.4133369868303
357.5 474.6633369868303
" stroke="rgb(25,106,102)" stroke-width="5" fill-opacity="0.0"></path><path d="
M 282.5 344.7595264191645 C
250.02404735808355 401.0095264191645
234.9519052838329 409.7114317029974
170 409.7114317029974
" stroke="rgb(25,217,102)" stroke-width="5" fill-opacity="0.0"></path><path d="
M 282.5 344.7595264191645 C
250.02404735808355 401.0095264191645
250.02404735808355 418.4133369868303
282.5 474.6633369868303
" stroke="rgb(25,179,102)" stroke-width="5" fill-opacity="0.0"></path><path d="
M 282.5 344.7595264191645 C
245 409.7114317029974
245 409.7114317029974
207.5 474.6633369868303
" stroke="rgb(25,152,102)" stroke-width="5" fill-opacity="0.0"></path><path d="
M 545 279.8076211353316 C
507.5 279.8076211353316
488.75 312.2835737772481
507.5 344.7595264191645
" stroke="rgb(25,87,102)" stroke-width="5" fill-opacity="0.0"></path><path d="
M 545 279.8076211353316 C
480.0480947161671 279.8076211353316
464.9759526419165 288.5095264191645
432.5 344.7595264191645
" stroke="rgb(25,106,102)" stroke-width="5" fill-opacity="0.0"></path><path d="
M 507.5 344.7595264191645 C
526.25 377.2354790610809
507.5 409.7114317029974
470 409.7114317029974
" stroke="rgb(25,106,102)" stroke-width="5" fill-opacity="0.0"></path><path d="
M 432.5 344.7595264191645 C
400.0240473580835 401.0095264191645
384.9519052838329 409.7114317029974
320 409.7114317029974
" stroke="rgb(25,152,102)" stroke-width="5" fill-opacity="0.0"></path><path d="
M 432.5 344.7595264191645 C
400.0240473580835 401.0095264191645
400.0240473580835 418.4133369868303
432.5 474.6633369868303
" stroke="rgb(25,125,102)" stroke-width="5" fill-opacity="0.0"></path><path d="
M 432.5 344.7595264191645 C
395 409.7114317029974
395 409.7114317029974
357.5 474.6633369868303
" stroke="rgb(25,125,102)" stroke-width="5" fill-opacity="0.0"></path><path d="
M 170 409.7114317029974 C
105.0480947161671 409.7114317029974
89.97595264191645 418.4133369868303
57.5 474.6633369868303
" stroke="rgb(25,217,102)" stroke-width="5" fill-opacity="0.0"></path><path d="
M 170 409.7114317029974 C
245 409.7114317029974
245 409.7114317029974
320 409.7114317029974
" stroke="rgb(25,217,102)" stroke-width="5" fill-opacity="0.0"></path><path d="
M 170 409.7114317029974 C
234.9519052838329 409.7114317029974
250.02404735808355 418.4133369868303
282.5 474.6633369868303
" stroke="rgb(25,217,102)" stroke-width="5" fill-opacity="0.0"></path><path d="
M 132.5 474.6633369868303 C
113.75 442.1873843449139
76.25 442.1873843449139
57.5 474.6633369868303
" stroke="rgb(25,152,102)" stroke-width="5" fill-opacity="0.0"></path><path d="
M 320 409.7114317029974 C
255.0480947161671 409.7114317029974
239.97595264191645 418.4133369868303
207.5 474.6633369868303
" stroke="rgb(25,152,102)" stroke-width="5" fill-opacity="0.0"></path><path d="
M 320 409.7114317029974 C
395 409.7114317029974
395 409.7114317029974
470 409.7114317029974
" stroke="rgb(25,152,102)" stroke-width="5" fill-opacity="0.0"></path><path d="
M 320 409.7114317029974 C
384.9519052838329 409.7114317029974
400.0240473580835 418.4133369868303
432.5 474.6633369868303
" stroke="rgb(25,152,102)" stroke-width="5" fill-opacity="0.0"></path><path d="
M 282.5 474.6633369868303 C
301.25 507.1392896287467
338.75 507.1392896287467
357.5 474.6633369868303
" stroke="rgb(25,152,102)" stroke-width="5" fill-opacity="0.0"></path><path d="
M 470 409.7114317029974 C
405.0480947161671 409.7114317029974
389.9759526419165 418.4133369868303
357.5 474.6633369868303
" stroke="rgb(25,125,102)" stroke-width="5" fill-opacity="0.0"></path><path d="
M 432.5 474.6633369868303 C
413.75 442.1873843449139
376.25 442.1873843449139
357.5 474.6633369868303
" stroke="rgb(25,125,102)" stroke-width="5" fill-opacity="0.0"></path><line x1="98" y1="20" x2="92" y2="20" stroke="rgb(255,0,179)" stroke-width="2"></line><line x1="59" y1="87.54998149518622" x2="56" y2="82.35382907247958" stroke="rgb(255,0,179)" stroke-width="2"></line><line x1="-19" y1="87.54998149518622" x2="-16" y2="82.35382907247958" stroke="rgb(255,0,255)" stroke-width="2"></line><line x1="248" y1="20" x2="242" y2="20" stroke="rgb(255,0,125)" stroke-width="2"></line><line x1="209" y1="87.54998149518622" x2="206" y2="82.35382907247958" stroke="rgb(255,0,125)" stroke-width="2"></line><line x1="131" y1="87.54998149518622" x2="134" y2="82.35382907247958" stroke="rgb(255,0,125)" stroke-width="2"></line><line x1="398" y1="20" x2="392" y2="20" stroke="rgb(255,0,87)" stroke-width="2"></line><line x1="359" y1="87.54998149518622" x2="356" y2="82.35382907247958" stroke="rgb(255,0,87)" stroke-width="2"></line><line x1="281" y1="87.54998149518622" x2="284" y2="82.35382907247958" stroke="rgb(255,0,87)" stroke-width="2"></line><line x1="548" y1="20" x2="542" y2="20" stroke="rgb(184,0,61)" stroke-width="2"></line><line x1="509" y1="87.54998149518622" x2="506" y2="82.35382907247958" stroke="rgb(184,0,61)" stroke-width="2"></line><line x1="431" y1="87.54998149518622" x2="434" y2="82.35382907247958" stroke="rgb(255,0,87)" stroke-width="2"></line><line x1="173" y1="149.9038105676658" x2="167" y2="149.9038105676658" stroke="rgb(255,0,125)" stroke-width="2"></line><line x1="134" y1="217.45379206285202" x2="131" y2="212.25763964014538" stroke="rgb(255,0,125)" stroke-width="2"></line><line x1="56" y1="217.45379206285202" x2="59" y2="212.25763964014538" stroke="rgb(255,0,125)" stroke-width="2"></line><line x1="323" y1="149.9038105676658" x2="317" y2="149.9038105676658" stroke="rgb(255,0,87)" stroke-width="2"></line><line x1="284" y1="217.45379206285202" x2="281" y2="212.25763964014538" stroke="rgb(255,0,125)" stroke-width="2"></line><line x1="206" y1="217.45379206285202" x2="209" y2="212.25763964014538" stroke="rgb(255,0,125)" stroke-width="2"></line><line x1="473" y1="149.9038105676658" x2="467" y2="149.9038105676658" stroke="rgb(255,0,87)" stroke-width="2"></line><line x1="434" y1="217.45379206285202" x2="431" y2="212.25763964014538" stroke="rgb(255,0,87)" stroke-width="2"></line><line x1="356" y1="217.45379206285202" x2="359" y2="212.25763964014538" stroke="rgb(255,0,125)" stroke-width="2"></line><line x1="98" y1="279.8076211353316" x2="92" y2="279.8076211353316" stroke="rgb(255,0,125)" stroke-width="2"></line><line x1="59" y1="347.3576026305178" x2="56" y2="342.1614502078112" stroke="rgb(255,0,179)" stroke-width="2"></line><line x1="-19" y1="347.3576026305178" x2="-16" y2="342.1614502078112" stroke="rgb(255,0,87)" stroke-width="2"></line><line x1="248" y1="279.8076211353316" x2="242" y2="279.8076211353316" stroke="rgb(255,0,125)" stroke-width="2"></line><line x1="209" y1="347.3576026305178" x2="206" y2="342.1614502078112" stroke="rgb(255,0,125)" stroke-width="2"></line><line x1="131" y1="347.3576026305178" x2="134" y2="342.1614502078112" stroke="rgb(255,0,179)" stroke-width="2"></line><line x1="398" y1="279.8076211353316" x2="392" y2="279.8076211353316" stroke="rgb(255,0,125)" stroke-width="2"></line><line x1="359" y1="347.3576026305178" x2="356" y2="342.1614502078112" stroke="rgb(255,0,87)" stroke-width="2"></line><line x1="281" y1="347.3576026305178" x2="284" y2="342.1614502078112" stroke="rgb(255,0,179)" stroke-width="2"></line><line x1="548" y1="279.8076211353316" x2="542" y2="279.8076211353316" stroke="rgb(255,0,87)" stroke-width="2"></line><line x1="509" y1="347.3576026305178" x2="506" y2="342.1614502078112" stroke="rgb(255,0,87)" stroke-width="2"></line><line x1="431" y1="347.3576026305178" x2="434" y2="342.1614502078112" stroke="rgb(255,0,125)" stroke-width="2"></line><line x1="173" y1="409.7114317029974" x2="167" y2="409.7114317029974" stroke="rgb(255,0,255)" stroke-width="2"></line><line x1="134" y1="477.2614131981836" x2="131" y2="472.065260775477" stroke="rgb(255,0,125)" stroke-width="2"></line><line x1="56" y1="477.2614131981836" x2="59" y2="472.065260775477" stroke="rgb(255,0,179)" stroke-width="2"></line><line x1="323" y1="409.7114317029974" x2="317" y2="409.7114317029974" stroke="rgb(255,0,179)" stroke-width="2"></line><line x1="284" y1="477.2614131981836" x2="281" y2="472.065260775477" stroke="rgb(255,0,179)" stroke-width="2"></line><line x1="206" y1="477.2614131981836" x2="209" y2="472.065260775477" stroke="rgb(255,0,125)" stroke-width="2"></line><line x1="473" y1="409.7114317029974" x2="467" y2="409.7114317029974" stroke="rgb(255,0,125)" stroke-width="2"></line><line x1="434" y1="477.2614131981836" x2="431" y2="472.065260775477" stroke="rgb(255,0,125)" stroke-width="2"></line><line x1="356" y1="477.2614131981836" x2="359" y2="472.065260775477" stroke="rgb(255,0,125)" stroke-width="2"></line></svg>
