<svg viewBox="-1.5 15 521.5 495.8402515230701" xmlns="http://www.w3.org/2000/svg" version="1.1"><path d="
M 53 20 C
24.421161675113524 20
17.789419162443238 23.828838324886476
3.5 48.578838324886476
" stroke="rgb(25,17,102)" stroke-width="5" fill-opacity="0.0"></path><path d="
M 53 20 C
86 20
86 20
119 20
" stroke="rgb(25,25,102)" stroke-width="5" fill-opacity="0.0"></path><path d="
M 36.5 48.578838324886476 C
50.78941916244324 73.32883832488648
57.421161675113524 77.15767664977295
86 77.15767664977295
" stroke="rgb(25,30,102)" stroke-width="5" fill-opacity="0.0"></path><path d="
M 36.5 48.578838324886476 C
53 77.15767664977295
53 77.15767664977295
69.5 105.73651497465943
" stroke="rgb(25,36,102)" stroke-width="5" fill-opacity="0.0"></path><path d="
M 36.5 48.578838324886476 C
50.78941916244324 73.32883832488648
50.78941916244324 80.98651497465943
36.5 105.73651497465943
" stroke="rgb(25,36,102)" stroke-width="5" fill-opacity="0.0"></path><path d="
M 119 20 C
152 20
152 20
185 20
" stroke="rgb(25,36,102)" stroke-width="5" fill-opacity="0.0"></path><path d="
M 102.5 48.578838324886476 C
119 77.15767664977295
119 77.15767664977295
135.5 105.73651497465943
" stroke="rgb(25,36,102)" stroke-width="5" fill-opacity="0.0"></path><path d="
M 69.5 48.578838324886476 C
55.21058083755676 73.32883832488648
55.21058083755676 80.98651497465943
69.5 105.73651497465943
" stroke="rgb(25,36,102)" stroke-width="5" fill-opacity="0.0"></path><path d="
M 69.5 48.578838324886476 C
53 77.15767664977295
53 77.15767664977295
36.5 105.73651497465943
" stroke="rgb(25,36,102)" stroke-width="5" fill-opacity="0.0"></path><path d="
M 185 20 C
218 20
218 20
251 20
" stroke="rgb(25,52,102)" stroke-width="5" fill-opacity="0.0"></path><path d="
M 185 20 C
213.57883832488648 20
220.21058083755676 23.828838324886476
234.5 48.578838324886476
" stroke="rgb(25,43,102)" stroke-width="5" fill-opacity="0.0"></path><path d="
M 168.5 48.578838324886476 C
182.78941916244324 73.32883832488648
189.42116167511352 77.15767664977295
218 77.15767664977295
" stroke="rgb(25,43,102)" stroke-width="5" fill-opacity="0.0"></path><path d="
M 168.5 48.578838324886476 C
185 77.15767664977295
185 77.15767664977295
201.5 105.73651497465943
" stroke="rgb(25,52,102)" stroke-width="5" fill-opacity="0.0"></path><path d="
M 168.5 48.578838324886476 C
182.78941916244324 73.32883832488648
182.78941916244324 80.98651497465943
168.5 105.73651497465943
" stroke="rgb(25,43,102)" stroke-width="5" fill-opacity="0.0"></path><path d="
M 135.5 48.578838324886476 C
121.21058083755676 73.32883832488648
114.57883832488648 77.15767664977295
86 77.15767664977295
" stroke="rgb(25,30,102)" stroke-width="5" fill-opacity="0.0"></path><path d="
M 135.5 48.578838324886476 C
119 77.15767664977295
119 77.15767664977295
102.5 105.73651497465943
" stroke="rgb(25,36,102)" stroke-width="5" fill-opacity="0.0"></path><path d="
M 251 20 C
222.42116167511352 20
215.78941916244324 23.828838324886476
201.5 48.578838324886476
" stroke="rgb(25,52,102)" stroke-width="5" fill-opacity="0.0"></path><path d="
M 251 20 C
284 20
284 20
317 20
" stroke="rgb(25,74,102)" stroke-width="5" fill-opacity="0.0"></path><path d="
M 234.5 48.578838324886476 C
248.78941916244324 73.32883832488648
255.42116167511352 77.15767664977295
284 77.15767664977295
" stroke="rgb(25,43,102)" stroke-width="5" fill-opacity="0.0"></path><path d="
M 234.5 48.578838324886476 C
251 77.15767664977295
251 77.15767664977295
267.5 105.73651497465943
" stroke="rgb(25,52,102)" stroke-width="5" fill-opacity="0.0"></path><path d="
M 234.5 48.578838324886476 C
248.78941916244324 73.32883832488648
248.78941916244324 80.98651497465943
234.5 105.73651497465943
" stroke="rgb(25,52,102)" stroke-width="5" fill-opacity="0.0"></path><path d="
M 201.5 48.578838324886476 C
185 77.15767664977295
185 77.15767664977295
168.5 105.73651497465943
" stroke="rgb(25,43,102)" stroke-width="5" fill-opacity="0.0"></path><path d="
M 317 20 C
288.4211616751135 20
281.7894191624432 23.828838324886476
267.5 48.578838324886476
" stroke="rgb(25,74,102)" stroke-width="5" fill-opacity="0.0"></path><path d="
M 317 20 C
350 20
350 20
383 20
" stroke="rgb(25,106,102)" stroke-width="5" fill-opacity="0.0"></path><path d="
M 300.5 48.578838324886476 C
317 77.15767664977295
317 77.15767664977295
333.5 105.73651497465943
" stroke="rgb(25,52,102)" stroke-width="5" fill-opacity="0.0"></path><path d="
M 300.5 48.578838324886476 C
314.7894191624432 73.32883832488648
314.7894191624432 80.98651497465943
300.5 105.73651497465943
" stroke="rgb(25,52,102)" stroke-width="5" fill-opacity="0.0"></path><path d="
M 267.5 48.578838324886476 C
253.21058083755676 73.32883832488648
246.57883832488648 77.15767664977295
218 77.15767664977295
" stroke="rgb(25,52,102)" stroke-width="5" fill-opacity="0.0"></path><path d="
M 267.5 48.578838324886476 C
251 77.15767664977295
251 77.15767664977295
234.5 105.73651497465943
" stroke="rgb(25,61,102)" stroke-width="5" fill-opacity="0.0"></path><path d="
M 383 20 C
416 20
416 20
449 20
" stroke="rgb(25,152,102)" stroke-width="5" fill-opacity="0.0"></path><path d="
M 383 20 C
411.5788383248865 20
418.2105808375568 23.828838324886476
432.5 48.578838324886476
" stroke="rgb(25,106,102)" stroke-width="5" fill-opacity="0.0"></path><path d="
M 366.5 48.578838324886476 C
380.7894191624432 73.32883832488648
387.4211616751135 77.15767664977295
416 77.15767664977295
" stroke="rgb(25,43,102)" stroke-width="5" fill-opacity="0.0"></path><path d="
M 366.5 48.578838324886476 C
383 77.15767664977295
383 77.15767664977295
399.5 105.73651497465943
" stroke="rgb(25,43,102)" stroke-width="5" fill-opacity="0.0"></path><path d="
M 366.5 48.578838324886476 C
380.7894191624432 73.32883832488648
380.7894191624432 80.98651497465943
366.5 105.73651497465943
" stroke="rgb(25,52,102)" stroke-width="5" fill-opacity="0.0"></path><path d="
M 333.5 48.578838324886476 C
317 77.15767664977295
317 77.15767664977295
300.5 105.73651497465943
" stroke="rgb(25,52,102)" stroke-width="5" fill-opacity="0.0"></path><path d="
M 449 20 C
482 20
482 20
515 20
" stroke="rgb(25,217,102)" stroke-width="5" fill-opacity="0.0"></path><path d="
M 432.5 48.578838324886476 C
446.7894191624432 73.32883832488648
453.4211616751135 77.15767664977295
482 77.15767664977295
" stroke="rgb(25,74,102)" stroke-width="5" fill-opacity="0.0"></path><path d="
M 432.5 48.578838324886476 C
449 77.15767664977295
449 77.15767664977295
465.5 105.73651497465943
" stroke="rgb(25,74,102)" stroke-width="5" fill-opacity="0.0"></path><path d="
M 399.5 48.578838324886476 C
385.2105808375568 73.32883832488648
378.5788383248865 77.15767664977295
350 77.15767664977295
" stroke="rgb(25,36,102)" stroke-width="5" fill-opacity="0.0"></path><path d="
M 399.5 48.578838324886476 C
385.2105808375568 73.32883832488648
385.2105808375568 80.98651497465943
399.5 105.73651497465943
" stroke="rgb(25,43,102)" stroke-width="5" fill-opacity="0.0"></path><path d="
M 399.5 48.578838324886476 C
383 77.15767664977295
383 77.15767664977295
366.5 105.73651497465943
" stroke="rgb(25,52,102)" stroke-width="5" fill-opacity="0.0"></path><path d="
M 465.5 48.578838324886476 C
451.2105808375568 73.32883832488648
451.2105808375568 80.98651497465943
465.5 105.73651497465943
" stroke="rgb(25,52,102)" stroke-width="5" fill-opacity="0.0"></path><path d="
M 465.5 48.578838324886476 C
449 77.15767664977295
449 77.15767664977295
432.5 105.73651497465943
" stroke="rgb(25,43,102)" stroke-width="5" fill-opacity="0.0"></path><path d="
M 86 77.15767664977295 C
119 77.15767664977295
119 77.15767664977295
152 77.15767664977295
" stroke="rgb(25,36,102)" stroke-width="5" fill-opacity="0.0"></path><path d="
M 86 77.15767664977295 C
114.57883832488648 77.15767664977295
121.21058083755676 80.98651497465943
135.5 105.73651497465943
" stroke="rgb(25,36,102)" stroke-width="5" fill-opacity="0.0"></path><path d="
M 69.5 105.73651497465943 C
86 134.3153532995459
86 134.3153532995459
102.5 162.89419162443238
" stroke="rgb(25,52,102)" stroke-width="5" fill-opacity="0.0"></path><path d="
M 36.5 105.73651497465943 C
22.210580837556762 130.48651497465943
22.210580837556762 138.14419162443238
36.5 162.89419162443238
" stroke="rgb(25,52,102)" stroke-width="5" fill-opacity="0.0"></path><path d="
M 36.5 105.73651497465943 C
20 134.3153532995459
20 134.3153532995459
3.5 162.89419162443238
" stroke="rgb(25,36,102)" stroke-width="5" fill-opacity="0.0"></path><path d="
M 152 77.15767664977295 C
185 77.15767664977295
185 77.15767664977295
218 77.15767664977295
" stroke="rgb(25,43,102)" stroke-width="5" fill-opacity="0.0"></path><path d="
M 152 77.15767664977295 C
180.57883832488648 77.15767664977295
187.21058083755676 80.98651497465943
201.5 105.73651497465943
" stroke="rgb(25,52,102)" stroke-width="5" fill-opacity="0.0"></path><path d="
M 135.5 105.73651497465943 C
149.78941916244324 130.48651497465943
156.42116167511352 134.3153532995459
185 134.3153532995459
" stroke="rgb(25,52,102)" stroke-width="5" fill-opacity="0.0"></path><path d="
M 135.5 105.73651497465943 C
152 134.3153532995459
152 134.3153532995459
168.5 162.89419162443238
" stroke="rgb(25,36,102)" stroke-width="5" fill-opacity="0.0"></path><path d="
M 135.5 105.73651497465943 C
149.78941916244324 130.48651497465943
149.78941916244324 138.14419162443238
135.5 162.89419162443238
" stroke="rgb(25,52,102)" stroke-width="5" fill-opacity="0.0"></path><path d="
M 102.5 105.73651497465943 C
86 134.3153532995459
86 134.3153532995459
69.5 162.89419162443238
" stroke="rgb(25,52,102)" stroke-width="5" fill-opacity="0.0"></path><path d="
M 218 77.15767664977295 C
189.42116167511352 77.15767664977295
182.78941916244324 80.98651497465943
168.5 105.73651497465943
" stroke="rgb(25,43,102)" stroke-width="5" fill-opacity="0.0"></path><path d="
M 218 77.15767664977295 C
251 77.15767664977295
251 77.15767664977295
284 77.15767664977295
" stroke="rgb(25,43,102)" stroke-width="5" fill-opacity="0.0"></path><path d="
M 201.5 105.73651497465943 C
218 134.3153532995459
218 134.3153532995459
234.5 162.89419162443238
" stroke="rgb(25,74,102)" stroke-width="5" fill-opacity="0.0"></path><path d="
M 168.5 105.73651497465943 C
154.21058083755676 130.48651497465943
147.57883832488648 134.3153532995459
119 134.3153532995459
" stroke="rgb(25,43,102)" stroke-width="5" fill-opacity="0.0"></path><path d="
M 168.5 105.73651497465943 C
152 134.3153532995459
152 134.3153532995459
135.5 162.89419162443238
" stroke="rgb(25,52,102)" stroke-width="5" fill-opacity="0.0"></path><path d="
M 284 77.15767664977295 C
317 77.15767664977295
317 77.15767664977295
350 77.15767664977295
" stroke="rgb(25,36,102)" stroke-width="5" fill-opacity="0.0"></path><path d="
M 284 77.15767664977295 C
312.5788383248865 77.15767664977295
319.2105808375568 80.98651497465943
333.5 105.73651497465943
" stroke="rgb(25,52,102)" stroke-width="5" fill-opacity="0.0"></path><path d="
M 267.5 105.73651497465943 C
281.7894191624432 130.48651497465943
288.4211616751135 134.3153532995459
317 134.3153532995459
" stroke="rgb(25,61,102)" stroke-width="5" fill-opacity="0.0"></path><path d="
M 267.5 105.73651497465943 C
284 134.3153532995459
284 134.3153532995459
300.5 162.89419162443238
" stroke="rgb(25,74,102)" stroke-width="5" fill-opacity="0.0"></path><path d="
M 234.5 105.73651497465943 C
220.21058083755676 130.48651497465943
213.57883832488648 134.3153532995459
185 134.3153532995459
" stroke="rgb(25,61,102)" stroke-width="5" fill-opacity="0.0"></path><path d="
M 234.5 105.73651497465943 C
220.21058083755676 130.48651497465943
220.21058083755676 138.14419162443238
234.5 162.89419162443238
" stroke="rgb(25,74,102)" stroke-width="5" fill-opacity="0.0"></path><path d="
M 234.5 105.73651497465943 C
218 134.3153532995459
218 134.3153532995459
201.5 162.89419162443238
" stroke="rgb(25,52,102)" stroke-width="5" fill-opacity="0.0"></path><path d="
M 350 77.15767664977295 C
383 77.15767664977295
383 77.15767664977295
416 77.15767664977295
" stroke="rgb(25,36,102)" stroke-width="5" fill-opacity="0.0"></path><path d="
M 333.5 105.73651497465943 C
347.7894191624432 130.48651497465943
354.4211616751135 134.3153532995459
383 134.3153532995459
" stroke="rgb(25,52,102)" stroke-width="5" fill-opacity="0.0"></path><path d="
M 333.5 105.73651497465943 C
350 134.3153532995459
350 134.3153532995459
366.5 162.89419162443238
" stroke="rgb(25,61,102)" stroke-width="5" fill-opacity="0.0"></path><path d="
M 333.5 105.73651497465943 C
347.7894191624432 130.48651497465943
347.7894191624432 138.14419162443238
333.5 162.89419162443238
" stroke="rgb(25,74,102)" stroke-width="5" fill-opacity="0.0"></path><path d="
M 300.5 105.73651497465943 C
286.2105808375568 130.48651497465943
279.5788383248865 134.3153532995459
251 134.3153532995459
" stroke="rgb(25,61,102)" stroke-width="5" fill-opacity="0.0"></path><path d="
M 300.5 105.73651497465943 C
284 134.3153532995459
284 134.3153532995459
267.5 162.89419162443238
" stroke="rgb(25,74,102)" stroke-width="5" fill-opacity="0.0"></path><path d="
M 416 77.15767664977295 C
449 77.15767664977295
449 77.15767664977295
482 77.15767664977295
" stroke="rgb(25,52,102)" stroke-width="5" fill-opacity="0.0"></path><path d="
M 416 77.15767664977295 C
444.5788383248865 77.15767664977295
451.2105808375568 80.98651497465943
465.5 105.73651497465943
" stroke="rgb(25,52,102)" stroke-width="5" fill-opacity="0.0"></path><path d="
M 399.5 105.73651497465943 C
413.7894191624432 130.48651497465943
420.4211616751135 134.3153532995459
449 134.3153532995459
" stroke="rgb(25,36,102)" stroke-width="5" fill-opacity="0.0"></path><path d="
M 399.5 105.73651497465943 C
416 134.3153532995459
416 134.3153532995459
432.5 162.89419162443238
" stroke="rgb(25,52,102)" stroke-width="5" fill-opacity="0.0"></path><path d="
M 399.5 105.73651497465943 C
413.7894191624432 130.48651497465943
413.7894191624432 138.14419162443238
399.5 162.89419162443238
" stroke="rgb(25,52,102)" stroke-width="5" fill-opacity="0.0"></path><path d="
M 366.5 105.73651497465943 C
352.2105808375568 130.48651497465943
352.2105808375568 138.14419162443238
366.5 162.89419162443238
" stroke="rgb(25,61,102)" stroke-width="5" fill-opacity="0.0"></path><path d="
M 366.5 105.73651497465943 C
350 134.3153532995459
350 134.3153532995459
333.5 162.89419162443238
" stroke="rgb(25,74,102)" stroke-width="5" fill-opacity="0.0"></path><path d="
M 482 77.15767664977295 C
453.4211616751135 77.15767664977295
446.7894191624432 80.98651497465943
432.5 105.73651497465943
" stroke="rgb(25,52,102)" stroke-width="5" fill-opacity="0.0"></path><path d="
M 465.5 105.73651497465943 C
482 134.3153532995459
482 134.3153532995459
498.5 162.89419162443238
" stroke="rgb(25,52,102)" stroke-width="5" fill-opacity="0.0"></path><path d="
M 465.5 105.73651497465943 C
479.7894191624432 130.48651497465943
479.7894191624432 138.14419162443238
465.5 162.89419162443238
" stroke="rgb(25,61,102)" stroke-width="5" fill-opacity="0.0"></path><path d="
M 432.5 105.73651497465943 C
416 134.3153532995459
416 134.3153532995459
399.5 162.89419162443238
" stroke="rgb(25,52,102)" stroke-width="5" fill-opacity="0.0"></path><path d="
M 53 134.3153532995459 C
86 134.3153532995459
86 134.3153532995459
119 134.3153532995459
" stroke="rgb(25,43,102)" stroke-width="5" fill-opacity="0.0"></path><path d="
M 53 134.3153532995459 C
81.57883832488648 134.3153532995459
88.21058083755676 138.14419162443238
102.5 162.89419162443238
" stroke="rgb(25,52,102)" stroke-width="5" fill-opacity="0.0"></path><path d="
M 36.5 162.89419162443238 C
50.78941916244324 187.64419162443238
57.421161675113524 191.47302994931886
86 191.47302994931886
" stroke="rgb(25,52,102)" stroke-width="5" fill-opacity="0.0"></path><path d="
M 36.5 162.89419162443238 C
53 191.47302994931886
53 191.47302994931886
69.5 220.05186827420533
" stroke="rgb(25,74,102)" stroke-width="5" fill-opacity="0.0"></path><path d="
M 36.5 162.89419162443238 C
50.78941916244324 187.64419162443238
50.78941916244324 195.30186827420533
36.5 220.05186827420533
" stroke="rgb(25,52,102)" stroke-width="5" fill-opacity="0.0"></path><path d="
M 119 134.3153532995459 C
152 134.3153532995459
152 134.3153532995459
185 134.3153532995459
" stroke="rgb(25,52,102)" stroke-width="5" fill-opacity="0.0"></path><path d="
M 119 134.3153532995459 C
147.57883832488648 134.3153532995459
154.21058083755676 138.14419162443238
168.5 162.89419162443238
" stroke="rgb(25,36,102)" stroke-width="5" fill-opacity="0.0"></path><path d="
M 102.5 162.89419162443238 C
116.78941916244324 187.64419162443238
123.42116167511352 191.47302994931886
152 191.47302994931886
" stroke="rgb(25,52,102)" stroke-width="5" fill-opacity="0.0"></path><path d="
M 102.5 162.89419162443238 C
119 191.47302994931886
119 191.47302994931886
135.5 220.05186827420533
" stroke="rgb(25,52,102)" stroke-width="5" fill-opacity="0.0"></path><path d="
M 102.5 162.89419162443238 C
116.78941916244324 187.64419162443238
116.78941916244324 195.30186827420533
102.5 220.05186827420533
" stroke="rgb(25,74,102)" stroke-width="5" fill-opacity="0.0"></path><path d="
M 69.5 162.89419162443238 C
55.21058083755676 187.64419162443238
55.21058083755676 195.30186827420533
69.5 220.05186827420533
" stroke="rgb(25,74,102)" stroke-width="5" fill-opacity="0.0"></path><path d="
M 69.5 162.89419162443238 C
53 191.47302994931886
53 191.47302994931886
36.5 220.05186827420533
" stroke="rgb(25,52,102)" stroke-width="5" fill-opacity="0.0"></path><path d="
M 185 134.3153532995459 C
156.42116167511352 134.3153532995459
149.78941916244324 138.14419162443238
135.5 162.89419162443238
" stroke="rgb(25,61,102)" stroke-width="5" fill-opacity="0.0"></path><path d="
M 185 134.3153532995459 C
218 134.3153532995459
218 134.3153532995459
251 134.3153532995459
" stroke="rgb(25,61,102)" stroke-width="5" fill-opacity="0.0"></path><path d="
M 185 134.3153532995459 C
213.57883832488648 134.3153532995459
220.21058083755676 138.14419162443238
234.5 162.89419162443238
" stroke="rgb(25,74,102)" stroke-width="5" fill-opacity="0.0"></path><path d="
M 168.5 162.89419162443238 C
185 191.47302994931886
185 191.47302994931886
201.5 220.05186827420533
" stroke="rgb(25,36,102)" stroke-width="5" fill-opacity="0.0"></path><path d="
M 135.5 162.89419162443238 C
119 191.47302994931886
119 191.47302994931886
102.5 220.05186827420533
" stroke="rgb(25,74,102)" stroke-width="5" fill-opacity="0.0"></path><path d="
M 251 134.3153532995459 C
222.42116167511352 134.3153532995459
215.78941916244324 138.14419162443238
201.5 162.89419162443238
" stroke="rgb(25,52,102)" stroke-width="5" fill-opacity="0.0"></path><path d="
M 251 134.3153532995459 C
284 134.3153532995459
284 134.3153532995459
317 134.3153532995459
" stroke="rgb(25,61,102)" stroke-width="5" fill-opacity="0.0"></path><path d="
M 251 134.3153532995459 C
279.5788383248865 134.3153532995459
286.2105808375568 138.14419162443238
300.5 162.89419162443238
" stroke="rgb(25,74,102)" stroke-width="5" fill-opacity="0.0"></path><path d="
M 234.5 162.89419162443238 C
248.78941916244324 187.64419162443238
255.42116167511352 191.47302994931886
284 191.47302994931886
" stroke="rgb(25,74,102)" stroke-width="5" fill-opacity="0.0"></path><path d="
M 234.5 162.89419162443238 C
251 191.47302994931886
251 191.47302994931886
267.5 220.05186827420533
" stroke="rgb(25,106,102)" stroke-width="5" fill-opacity="0.0"></path><path d="
M 234.5 162.89419162443238 C
248.78941916244324 187.64419162443238
248.78941916244324 195.30186827420533
234.5 220.05186827420533
" stroke="rgb(25,87,102)" stroke-width="5" fill-opacity="0.0"></path><path d="
M 201.5 162.89419162443238 C
187.21058083755676 187.64419162443238
187.21058083755676 195.30186827420533
201.5 220.05186827420533
" stroke="rgb(25,43,102)" stroke-width="5" fill-opacity="0.0"></path><path d="
M 201.5 162.89419162443238 C
185 191.47302994931886
185 191.47302994931886
168.5 220.05186827420533
" stroke="rgb(25,52,102)" stroke-width="5" fill-opacity="0.0"></path><path d="
M 317 134.3153532995459 C
288.4211616751135 134.3153532995459
281.7894191624432 138.14419162443238
267.5 162.89419162443238
" stroke="rgb(25,74,102)" stroke-width="5" fill-opacity="0.0"></path><path d="
M 317 134.3153532995459 C
350 134.3153532995459
350 134.3153532995459
383 134.3153532995459
" stroke="rgb(25,52,102)" stroke-width="5" fill-opacity="0.0"></path><path d="
M 300.5 162.89419162443238 C
317 191.47302994931886
317 191.47302994931886
333.5 220.05186827420533
" stroke="rgb(25,87,102)" stroke-width="5" fill-opacity="0.0"></path><path d="
M 300.5 162.89419162443238 C
314.7894191624432 187.64419162443238
314.7894191624432 195.30186827420533
300.5 220.05186827420533
" stroke="rgb(25,106,102)" stroke-width="5" fill-opacity="0.0"></path><path d="
M 267.5 162.89419162443238 C
253.21058083755676 187.64419162443238
253.21058083755676 195.30186827420533
267.5 220.05186827420533
" stroke="rgb(25,106,102)" stroke-width="5" fill-opacity="0.0"></path><path d="
M 267.5 162.89419162443238 C
251 191.47302994931886
251 191.47302994931886
234.5 220.05186827420533
" stroke="rgb(25,87,102)" stroke-width="5" fill-opacity="0.0"></path><path d="
M 383 134.3153532995459 C
416 134.3153532995459
416 134.3153532995459
449 134.3153532995459
" stroke="rgb(25,36,102)" stroke-width="5" fill-opacity="0.0"></path><path d="
M 383 134.3153532995459 C
411.5788383248865 134.3153532995459
418.2105808375568 138.14419162443238
432.5 162.89419162443238
" stroke="rgb(25,52,102)" stroke-width="5" fill-opacity="0.0"></path><path d="
M 366.5 162.89419162443238 C
383 191.47302994931886
383 191.47302994931886
399.5 220.05186827420533
" stroke="rgb(25,61,102)" stroke-width="5" fill-opacity="0.0"></path><path d="
M 366.5 162.89419162443238 C
380.7894191624432 187.64419162443238
380.7894191624432 195.30186827420533
366.5 220.05186827420533
" stroke="rgb(25,74,102)" stroke-width="5" fill-opacity="0.0"></path><path d="
M 333.5 162.89419162443238 C
319.2105808375568 187.64419162443238
312.5788383248865 191.47302994931886
284 191.47302994931886
" stroke="rgb(25,74,102)" stroke-width="5" fill-opacity="0.0"></path><path d="
M 333.5 162.89419162443238 C
317 191.47302994931886
317 191.47302994931886
300.5 220.05186827420533
" stroke="rgb(25,106,102)" stroke-width="5" fill-opacity="0.0"></path><path d="
M 449 134.3153532995459 C
482 134.3153532995459
482 134.3153532995459
515 134.3153532995459
" stroke="rgb(25,25,102)" stroke-width="5" fill-opacity="0.0"></path><path d="
M 449 134.3153532995459 C
477.5788383248865 134.3153532995459
484.2105808375568 138.14419162443238
498.5 162.89419162443238
" stroke="rgb(25,36,102)" stroke-width="5" fill-opacity="0.0"></path><path d="
M 432.5 162.89419162443238 C
446.7894191624432 187.64419162443238
453.4211616751135 191.47302994931886
482 191.47302994931886
" stroke="rgb(25,61,102)" stroke-width="5" fill-opacity="0.0"></path><path d="
M 432.5 162.89419162443238 C
449 191.47302994931886
449 191.47302994931886
465.5 220.05186827420533
" stroke="rgb(25,52,102)" stroke-width="5" fill-opacity="0.0"></path><path d="
M 432.5 162.89419162443238 C
446.7894191624432 187.64419162443238
446.7894191624432 195.30186827420533
432.5 220.05186827420533
" stroke="rgb(25,74,102)" stroke-width="5" fill-opacity="0.0"></path><path d="
M 399.5 162.89419162443238 C
385.2105808375568 187.64419162443238
378.5788383248865 191.47302994931886
350 191.47302994931886
" stroke="rgb(25,74,102)" stroke-width="5" fill-opacity="0.0"></path><path d="
M 399.5 162.89419162443238 C
383 191.47302994931886
383 191.47302994931886
366.5 220.05186827420533
" stroke="rgb(25,74,102)" stroke-width="5" fill-opacity="0.0"></path><path d="
M 465.5 162.89419162443238 C
449 191.47302994931886
449 191.47302994931886
432.5 220.05186827420533
" stroke="rgb(25,74,102)" stroke-width="5" fill-opacity="0.0"></path><path d="
M 86 191.47302994931886 C
57.421161675113524 191.47302994931886
50.78941916244324 195.30186827420533
36.5 220.05186827420533
" stroke="rgb(25,43,102)" stroke-width="5" fill-opacity="0.0"></path><path d="
M 86 191.47302994931886 C
119 191.47302994931886
119 191.47302994931886
152 191.47302994931886
" stroke="rgb(25,43,102)" stroke-width="5" fill-opacity="0.0"></path><path d="
M 69.5 220.05186827420533 C
86 248.6307065990918
86 248.6307065990918
102.5 277.2095449239783
" stroke="rgb(25,87,102)" stroke-width="5" fill-opacity="0.0"></path><path d="
M 69.5 220.05186827420533 C
83.78941916244324 244.80186827420533
83.78941916244324 252.45954492397829
69.5 277.2095449239783
" stroke="rgb(25,106,102)" stroke-width="5" fill-opacity="0.0"></path><path d="
M 36.5 220.05186827420533 C
20 248.6307065990918
20 248.6307065990918
3.5 277.2095449239783
" stroke="rgb(25,43,102)" stroke-width="5" fill-opacity="0.0"></path><path d="
M 152 191.47302994931886 C
185 191.47302994931886
185 191.47302994931886
218 191.47302994931886
" stroke="rgb(25,43,102)" stroke-width="5" fill-opacity="0.0"></path><path d="
M 135.5 220.05186827420533 C
149.78941916244324 244.80186827420533
156.42116167511352 248.6307065990918
185 248.6307065990918
" stroke="rgb(25,43,102)" stroke-width="5" fill-opacity="0.0"></path><path d="
M 135.5 220.05186827420533 C
152 248.6307065990918
152 248.6307065990918
168.5 277.2095449239783
" stroke="rgb(25,43,102)" stroke-width="5" fill-opacity="0.0"></path><path d="
M 102.5 220.05186827420533 C
88.21058083755676 244.80186827420533
81.57883832488648 248.6307065990918
53 248.6307065990918
" stroke="rgb(25,74,102)" stroke-width="5" fill-opacity="0.0"></path><path d="
M 102.5 220.05186827420533 C
86 248.6307065990918
86 248.6307065990918
69.5 277.2095449239783
" stroke="rgb(25,106,102)" stroke-width="5" fill-opacity="0.0"></path><path d="
M 218 191.47302994931886 C
189.42116167511352 191.47302994931886
182.78941916244324 195.30186827420533
168.5 220.05186827420533
" stroke="rgb(25,52,102)" stroke-width="5" fill-opacity="0.0"></path><path d="
M 218 191.47302994931886 C
251 191.47302994931886
251 191.47302994931886
284 191.47302994931886
" stroke="rgb(25,52,102)" stroke-width="5" fill-opacity="0.0"></path><path d="
M 201.5 220.05186827420533 C
215.78941916244324 244.80186827420533
222.42116167511352 248.6307065990918
251 248.6307065990918
" stroke="rgb(25,52,102)" stroke-width="5" fill-opacity="0.0"></path><path d="
M 201.5 220.05186827420533 C
218 248.6307065990918
218 248.6307065990918
234.5 277.2095449239783
" stroke="rgb(25,52,102)" stroke-width="5" fill-opacity="0.0"></path><path d="
M 168.5 220.05186827420533 C
152 248.6307065990918
152 248.6307065990918
135.5 277.2095449239783
" stroke="rgb(25,74,102)" stroke-width="5" fill-opacity="0.0"></path><path d="
M 284 191.47302994931886 C
255.42116167511352 191.47302994931886
248.78941916244324 195.30186827420533
234.5 220.05186827420533
" stroke="rgb(25,74,102)" stroke-width="5" fill-opacity="0.0"></path><path d="
M 284 191.47302994931886 C
317 191.47302994931886
317 191.47302994931886
350 191.47302994931886
" stroke="rgb(25,74,102)" stroke-width="5" fill-opacity="0.0"></path><path d="
M 284 191.47302994931886 C
312.5788383248865 191.47302994931886
319.2105808375568 195.30186827420533
333.5 220.05186827420533
" stroke="rgb(25,74,102)" stroke-width="5" fill-opacity="0.0"></path><path d="
M 267.5 220.05186827420533 C
281.7894191624432 244.80186827420533
288.4211616751135 248.6307065990918
317 248.6307065990918
" stroke="rgb(25,106,102)" stroke-width="5" fill-opacity="0.0"></path><path d="
M 267.5 220.05186827420533 C
284 248.6307065990918
284 248.6307065990918
300.5 277.2095449239783
" stroke="rgb(25,152,102)" stroke-width="5" fill-opacity="0.0"></path><path d="
M 267.5 220.05186827420533 C
281.7894191624432 244.80186827420533
281.7894191624432 252.45954492397829
267.5 277.2095449239783
" stroke="rgb(25,106,102)" stroke-width="5" fill-opacity="0.0"></path><path d="
M 234.5 220.05186827420533 C
218 248.6307065990918
218 248.6307065990918
201.5 277.2095449239783
" stroke="rgb(25,106,102)" stroke-width="5" fill-opacity="0.0"></path><path d="
M 350 191.47302994931886 C
321.4211616751135 191.47302994931886
314.7894191624432 195.30186827420533
300.5 220.05186827420533
" stroke="rgb(25,106,102)" stroke-width="5" fill-opacity="0.0"></path><path d="
M 350 191.47302994931886 C
383 191.47302994931886
383 191.47302994931886
416 191.47302994931886
" stroke="rgb(25,74,102)" stroke-width="5" fill-opacity="0.0"></path><path d="
M 350 191.47302994931886 C
378.5788383248865 191.47302994931886
385.2105808375568 195.30186827420533
399.5 220.05186827420533
" stroke="rgb(25,74,102)" stroke-width="5" fill-opacity="0.0"></path><path d="
M 333.5 220.05186827420533 C
347.7894191624432 244.80186827420533
354.4211616751135 248.6307065990918
383 248.6307065990918
" stroke="rgb(25,87,102)" stroke-width="5" fill-opacity="0.0"></path><path d="
M 333.5 220.05186827420533 C
350 248.6307065990918
350 248.6307065990918
366.5 277.2095449239783
" stroke="rgb(25,106,102)" stroke-width="5" fill-opacity="0.0"></path><path d="
M 300.5 220.05186827420533 C
286.2105808375568 244.80186827420533
286.2105808375568 252.45954492397829
300.5 277.2095449239783
" stroke="rgb(25,152,102)" stroke-width="5" fill-opacity="0.0"></path><path d="
M 300.5 220.05186827420533 C
284 248.6307065990918
284 248.6307065990918
267.5 277.2095449239783
" stroke="rgb(25,106,102)" stroke-width="5" fill-opacity="0.0"></path><path d="
M 416 191.47302994931886 C
449 191.47302994931886
449 191.47302994931886
482 191.47302994931886
" stroke="rgb(25,61,102)" stroke-width="5" fill-opacity="0.0"></path><path d="
M 399.5 220.05186827420533 C
416 248.6307065990918
416 248.6307065990918
432.5 277.2095449239783
" stroke="rgb(25,74,102)" stroke-width="5" fill-opacity="0.0"></path><path d="
M 366.5 220.05186827420533 C
350 248.6307065990918
350 248.6307065990918
333.5 277.2095449239783
" stroke="rgb(25,106,102)" stroke-width="5" fill-opacity="0.0"></path><path d="
M 482 191.47302994931886 C
453.4211616751135 191.47302994931886
446.7894191624432 195.30186827420533
432.5 220.05186827420533
" stroke="rgb(25,74,102)" stroke-width="5" fill-opacity="0.0"></path><path d="
M 465.5 220.05186827420533 C
479.7894191624432 244.80186827420533
486.4211616751135 248.6307065990918
515 248.6307065990918
" stroke="rgb(25,43,102)" stroke-width="5" fill-opacity="0.0"></path><path d="
M 465.5 220.05186827420533 C
482 248.6307065990918
482 248.6307065990918
498.5 277.2095449239783
" stroke="rgb(25,36,102)" stroke-width="5" fill-opacity="0.0"></path><path d="
M 432.5 220.05186827420533 C
418.2105808375568 244.80186827420533
418.2105808375568 252.45954492397829
432.5 277.2095449239783
" stroke="rgb(25,87,102)" stroke-width="5" fill-opacity="0.0"></path><path d="
M 432.5 220.05186827420533 C
416 248.6307065990918
416 248.6307065990918
399.5 277.2095449239783
" stroke="rgb(25,106,102)" stroke-width="5" fill-opacity="0.0"></path><path d="
M 53 248.6307065990918 C
24.421161675113524 248.6307065990918
17.789419162443238 252.45954492397829
3.5 277.2095449239783
" stroke="rgb(25,52,102)" stroke-width="5" fill-opacity="0.0"></path><path d="
M 53 248.6307065990918 C
86 248.6307065990918
86 248.6307065990918
119 248.6307065990918
" stroke="rgb(25,52,102)" stroke-width="5" fill-opacity="0.0"></path><path d="
M 53 248.6307065990918 C
81.57883832488648 248.6307065990918
88.21058083755676 252.45954492397829
102.5 277.2095449239783
" stroke="rgb(25,74,102)" stroke-width="5" fill-opacity="0.0"></path><path d="
M 36.5 277.2095449239783 C
53 305.78838324886476
53 305.78838324886476
69.5 334.36722157375124
" stroke="rgb(25,152,102)" stroke-width="5" fill-opacity="0.0"></path><path d="
M 119 248.6307065990918 C
152 248.6307065990918
152 248.6307065990918
185 248.6307065990918
" stroke="rgb(25,43,102)" stroke-width="5" fill-opacity="0.0"></path><path d="
M 119 248.6307065990918 C
147.57883832488648 248.6307065990918
154.21058083755676 252.45954492397829
168.5 277.2095449239783
" stroke="rgb(25,43,102)" stroke-width="5" fill-opacity="0.0"></path><path d="
M 102.5 277.2095449239783 C
116.78941916244324 301.9595449239783
123.42116167511352 305.78838324886476
152 305.78838324886476
" stroke="rgb(25,87,102)" stroke-width="5" fill-opacity="0.0"></path><path d="
M 102.5 277.2095449239783 C
119 305.78838324886476
119 305.78838324886476
135.5 334.36722157375124
" stroke="rgb(25,106,102)" stroke-width="5" fill-opacity="0.0"></path><path d="
M 69.5 277.2095449239783 C
55.21058083755676 301.9595449239783
55.21058083755676 309.61722157375124
69.5 334.36722157375124
" stroke="rgb(25,152,102)" stroke-width="5" fill-opacity="0.0"></path><path d="
M 69.5 277.2095449239783 C
53 305.78838324886476
53 305.78838324886476
36.5 334.36722157375124
" stroke="rgb(25,106,102)" stroke-width="5" fill-opacity="0.0"></path><path d="
M 185 248.6307065990918 C
218 248.6307065990918
218 248.6307065990918
251 248.6307065990918
" stroke="rgb(25,52,102)" stroke-width="5" fill-opacity="0.0"></path><path d="
M 185 248.6307065990918 C
213.57883832488648 248.6307065990918
220.21058083755676 252.45954492397829
234.5 277.2095449239783
" stroke="rgb(25,52,102)" stroke-width="5" fill-opacity="0.0"></path><path d="
M 168.5 277.2095449239783 C
185 305.78838324886476
185 305.78838324886476
201.5 334.36722157375124
" stroke="rgb(25,52,102)" stroke-width="5" fill-opacity="0.0"></path><path d="
M 135.5 277.2095449239783 C
119 305.78838324886476
119 305.78838324886476
102.5 334.36722157375124
" stroke="rgb(25,106,102)" stroke-width="5" fill-opacity="0.0"></path><path d="
M 251 248.6307065990918 C
284 248.6307065990918
284 248.6307065990918
317 248.6307065990918
" stroke="rgb(25,74,102)" stroke-width="5" fill-opacity="0.0"></path><path d="
M 234.5 277.2095449239783 C
251 305.78838324886476
251 305.78838324886476
267.5 334.36722157375124
" stroke="rgb(25,74,102)" stroke-width="5" fill-opacity="0.0"></path><path d="
M 201.5 277.2095449239783 C
187.21058083755676 301.9595449239783
180.57883832488648 305.78838324886476
152 305.78838324886476
" stroke="rgb(25,106,102)" stroke-width="5" fill-opacity="0.0"></path><path d="
M 201.5 277.2095449239783 C
185 305.78838324886476
185 305.78838324886476
168.5 334.36722157375124
" stroke="rgb(25,152,102)" stroke-width="5" fill-opacity="0.0"></path><path d="
M 317 248.6307065990918 C
288.4211616751135 248.6307065990918
281.7894191624432 252.45954492397829
267.5 277.2095449239783
" stroke="rgb(25,87,102)" stroke-width="5" fill-opacity="0.0"></path><path d="
M 317 248.6307065990918 C
350 248.6307065990918
350 248.6307065990918
383 248.6307065990918
" stroke="rgb(25,87,102)" stroke-width="5" fill-opacity="0.0"></path><path d="
M 317 248.6307065990918 C
345.5788383248865 248.6307065990918
352.2105808375568 252.45954492397829
366.5 277.2095449239783
" stroke="rgb(25,106,102)" stroke-width="5" fill-opacity="0.0"></path><path d="
M 300.5 277.2095449239783 C
314.7894191624432 301.9595449239783
321.4211616751135 305.78838324886476
350 305.78838324886476
" stroke="rgb(25,217,102)" stroke-width="5" fill-opacity="0.0"></path><path d="
M 300.5 277.2095449239783 C
317 305.78838324886476
317 305.78838324886476
333.5 334.36722157375124
" stroke="rgb(25,152,102)" stroke-width="5" fill-opacity="0.0"></path><path d="
M 267.5 277.2095449239783 C
253.21058083755676 301.9595449239783
246.57883832488648 305.78838324886476
218 305.78838324886476
" stroke="rgb(25,106,102)" stroke-width="5" fill-opacity="0.0"></path><path d="
M 267.5 277.2095449239783 C
253.21058083755676 301.9595449239783
253.21058083755676 309.61722157375124
267.5 334.36722157375124
" stroke="rgb(25,87,102)" stroke-width="5" fill-opacity="0.0"></path><path d="
M 267.5 277.2095449239783 C
251 305.78838324886476
251 305.78838324886476
234.5 334.36722157375124
" stroke="rgb(25,74,102)" stroke-width="5" fill-opacity="0.0"></path><path d="
M 383 248.6307065990918 C
354.4211616751135 248.6307065990918
347.7894191624432 252.45954492397829
333.5 277.2095449239783
" stroke="rgb(25,106,102)" stroke-width="5" fill-opacity="0.0"></path><path d="
M 383 248.6307065990918 C
416 248.6307065990918
416 248.6307065990918
449 248.6307065990918
" stroke="rgb(25,74,102)" stroke-width="5" fill-opacity="0.0"></path><path d="
M 366.5 277.2095449239783 C
380.7894191624432 301.9595449239783
387.4211616751135 305.78838324886476
416 305.78838324886476
" stroke="rgb(25,152,102)" stroke-width="5" fill-opacity="0.0"></path><path d="
M 366.5 277.2095449239783 C
383 305.78838324886476
383 305.78838324886476
399.5 334.36722157375124
" stroke="rgb(25,152,102)" stroke-width="5" fill-opacity="0.0"></path><path d="
M 366.5 277.2095449239783 C
380.7894191624432 301.9595449239783
380.7894191624432 309.61722157375124
366.5 334.36722157375124
" stroke="rgb(25,125,102)" stroke-width="5" fill-opacity="0.0"></path><path d="
M 333.5 277.2095449239783 C
319.2105808375568 301.9595449239783
312.5788383248865 305.78838324886476
284 305.78838324886476
" stroke="rgb(25,152,102)" stroke-width="5" fill-opacity="0.0"></path><path d="
M 333.5 277.2095449239783 C
319.2105808375568 301.9595449239783
319.2105808375568 309.61722157375124
333.5 334.36722157375124
" stroke="rgb(25,125,102)" stroke-width="5" fill-opacity="0.0"></path><path d="
M 333.5 277.2095449239783 C
317 305.78838324886476
317 305.78838324886476
300.5 334.36722157375124
" stroke="rgb(25,106,102)" stroke-width="5" fill-opacity="0.0"></path><path d="
M 449 248.6307065990918 C
482 248.6307065990918
482 248.6307065990918
515 248.6307065990918
" stroke="rgb(25,52,102)" stroke-width="5" fill-opacity="0.0"></path><path d="
M 432.5 277.2095449239783 C
449 305.78838324886476
449 305.78838324886476
465.5 334.36722157375124
" stroke="rgb(25,74,102)" stroke-width="5" fill-opacity="0.0"></path><path d="
M 432.5 277.2095449239783 C
446.7894191624432 301.9595449239783
446.7894191624432 309.61722157375124
432.5 334.36722157375124
" stroke="rgb(25,106,102)" stroke-width="5" fill-opacity="0.0"></path><path d="
M 399.5 277.2095449239783 C
385.2105808375568 301.9595449239783
385.2105808375568 309.61722157375124
399.5 334.36722157375124
" stroke="rgb(25,152,102)" stroke-width="5" fill-opacity="0.0"></path><path d="
M 399.5 277.2095449239783 C
383 305.78838324886476
383 305.78838324886476
366.5 334.36722157375124
" stroke="rgb(25,125,102)" stroke-width="5" fill-opacity="0.0"></path><path d="
M 465.5 277.2095449239783 C
449 305.78838324886476
449 305.78838324886476
432.5 334.36722157375124
" stroke="rgb(25,106,102)" stroke-width="5" fill-opacity="0.0"></path><path d="
M 86 305.78838324886476 C
119 305.78838324886476
119 305.78838324886476
152 305.78838324886476
" stroke="rgb(25,74,102)" stroke-width="5" fill-opacity="0.0"></path><path d="
M 69.5 334.36722157375124 C
83.78941916244324 359.11722157375124
90.42116167511352 362.9460598986377
119 362.9460598986377
" stroke="rgb(25,217,102)" stroke-width="5" fill-opacity="0.0"></path><path d="
M 69.5 334.36722157375124 C
86 362.9460598986377
86 362.9460598986377
102.5 391.5248982235242
" stroke="rgb(25,152,102)" stroke-width="5" fill-opacity="0.0"></path><path d="
M 36.5 334.36722157375124 C
20 362.9460598986377
20 362.9460598986377
3.5 391.5248982235242
" stroke="rgb(25,106,102)" stroke-width="5" fill-opacity="0.0"></path><path d="
M 152 305.78838324886476 C
123.42116167511352 305.78838324886476
116.78941916244324 309.61722157375124
102.5 334.36722157375124
" stroke="rgb(25,106,102)" stroke-width="5" fill-opacity="0.0"></path><path d="
M 152 305.78838324886476 C
185 305.78838324886476
185 305.78838324886476
218 305.78838324886476
" stroke="rgb(25,106,102)" stroke-width="5" fill-opacity="0.0"></path><path d="
M 152 305.78838324886476 C
180.57883832488648 305.78838324886476
187.21058083755676 309.61722157375124
201.5 334.36722157375124
" stroke="rgb(25,74,102)" stroke-width="5" fill-opacity="0.0"></path><path d="
M 135.5 334.36722157375124 C
149.78941916244324 359.11722157375124
156.42116167511352 362.9460598986377
185 362.9460598986377
" stroke="rgb(25,152,102)" stroke-width="5" fill-opacity="0.0"></path><path d="
M 135.5 334.36722157375124 C
152 362.9460598986377
152 362.9460598986377
168.5 391.5248982235242
" stroke="rgb(25,152,102)" stroke-width="5" fill-opacity="0.0"></path><path d="
M 135.5 334.36722157375124 C
149.78941916244324 359.11722157375124
149.78941916244324 366.7748982235242
135.5 391.5248982235242
" stroke="rgb(25,125,102)" stroke-width="5" fill-opacity="0.0"></path><path d="
M 102.5 334.36722157375124 C
88.21058083755676 359.11722157375124
81.57883832488648 362.9460598986377
53 362.9460598986377
" stroke="rgb(25,152,102)" stroke-width="5" fill-opacity="0.0"></path><path d="
M 102.5 334.36722157375124 C
86 362.9460598986377
86 362.9460598986377
69.5 391.5248982235242
" stroke="rgb(25,152,102)" stroke-width="5" fill-opacity="0.0"></path><path d="
M 218 305.78838324886476 C
251 305.78838324886476
251 305.78838324886476
284 305.78838324886476
" stroke="rgb(25,152,102)" stroke-width="5" fill-opacity="0.0"></path><path d="
M 218 305.78838324886476 C
246.57883832488648 305.78838324886476
253.21058083755676 309.61722157375124
267.5 334.36722157375124
" stroke="rgb(25,106,102)" stroke-width="5" fill-opacity="0.0"></path><path d="
M 201.5 334.36722157375124 C
218 362.9460598986377
218 362.9460598986377
234.5 391.5248982235242
" stroke="rgb(25,74,102)" stroke-width="5" fill-opacity="0.0"></path><path d="
M 201.5 334.36722157375124 C
215.78941916244324 359.11722157375124
215.78941916244324 366.7748982235242
201.5 391.5248982235242
" stroke="rgb(25,74,102)" stroke-width="5" fill-opacity="0.0"></path><path d="
M 168.5 334.36722157375124 C
154.21058083755676 359.11722157375124
147.57883832488648 362.9460598986377
119 362.9460598986377
" stroke="rgb(25,217,102)" stroke-width="5" fill-opacity="0.0"></path><path d="
M 168.5 334.36722157375124 C
154.21058083755676 359.11722157375124
154.21058083755676 366.7748982235242
168.5 391.5248982235242
" stroke="rgb(25,179,102)" stroke-width="5" fill-opacity="0.0"></path><path d="
M 168.5 334.36722157375124 C
152 362.9460598986377
152 362.9460598986377
135.5 391.5248982235242
" stroke="rgb(25,152,102)" stroke-width="5" fill-opacity="0.0"></path><path d="
M 284 305.78838324886476 C
317 305.78838324886476
317 305.78838324886476
350 305.78838324886476
" stroke="rgb(25,217,102)" stroke-width="5" fill-opacity="0.0"></path><path d="
M 267.5 334.36722157375124 C
284 362.9460598986377
284 362.9460598986377
300.5 391.5248982235242
" stroke="rgb(25,87,102)" stroke-width="5" fill-opacity="0.0"></path><path d="
M 267.5 334.36722157375124 C
281.7894191624432 359.11722157375124
281.7894191624432 366.7748982235242
267.5 391.5248982235242
" stroke="rgb(25,87,102)" stroke-width="5" fill-opacity="0.0"></path><path d="
M 234.5 334.36722157375124 C
220.21058083755676 359.11722157375124
220.21058083755676 366.7748982235242
234.5 391.5248982235242
" stroke="rgb(25,74,102)" stroke-width="5" fill-opacity="0.0"></path><path d="
M 234.5 334.36722157375124 C
218 362.9460598986377
218 362.9460598986377
201.5 391.5248982235242
" stroke="rgb(25,74,102)" stroke-width="5" fill-opacity="0.0"></path><path d="
M 350 305.78838324886476 C
383 305.78838324886476
383 305.78838324886476
416 305.78838324886476
" stroke="rgb(25,217,102)" stroke-width="5" fill-opacity="0.0"></path><path d="
M 350 305.78838324886476 C
378.5788383248865 305.78838324886476
385.2105808375568 309.61722157375124
399.5 334.36722157375124
" stroke="rgb(25,217,102)" stroke-width="5" fill-opacity="0.0"></path><path d="
M 333.5 334.36722157375124 C
350 362.9460598986377
350 362.9460598986377
366.5 391.5248982235242
" stroke="rgb(25,106,102)" stroke-width="5" fill-opacity="0.0"></path><path d="
M 300.5 334.36722157375124 C
286.2105808375568 359.11722157375124
279.5788383248865 362.9460598986377
251 362.9460598986377
" stroke="rgb(25,106,102)" stroke-width="5" fill-opacity="0.0"></path><path d="
M 300.5 334.36722157375124 C
286.2105808375568 359.11722157375124
286.2105808375568 366.7748982235242
300.5 391.5248982235242
" stroke="rgb(25,87,102)" stroke-width="5" fill-opacity="0.0"></path><path d="
M 300.5 334.36722157375124 C
284 362.9460598986377
284 362.9460598986377
267.5 391.5248982235242
" stroke="rgb(25,87,102)" stroke-width="5" fill-opacity="0.0"></path><path d="
M 416 305.78838324886476 C
449 305.78838324886476
449 305.78838324886476
482 305.78838324886476
" stroke="rgb(25,152,102)" stroke-width="5" fill-opacity="0.0"></path><path d="
M 399.5 334.36722157375124 C
416 362.9460598986377
416 362.9460598986377
432.5 391.5248982235242
" stroke="rgb(25,217,102)" stroke-width="5" fill-opacity="0.0"></path><path d="
M 366.5 334.36722157375124 C
352.2105808375568 359.11722157375124
345.5788383248865 362.9460598986377
317 362.9460598986377
" stroke="rgb(25,125,102)" stroke-width="5" fill-opacity="0.0"></path><path d="
M 366.5 334.36722157375124 C
350 362.9460598986377
350 362.9460598986377
333.5 391.5248982235242
" stroke="rgb(25,152,102)" stroke-width="5" fill-opacity="0.0"></path><path d="
M 482 305.78838324886476 C
453.4211616751135 305.78838324886476
446.7894191624432 309.61722157375124
432.5 334.36722157375124
" stroke="rgb(25,125,102)" stroke-width="5" fill-opacity="0.0"></path><path d="
M 465.5 334.36722157375124 C
482 362.9460598986377
482 362.9460598986377
498.5 391.5248982235242
" stroke="rgb(25,52,102)" stroke-width="5" fill-opacity="0.0"></path><path d="
M 432.5 334.36722157375124 C
418.2105808375568 359.11722157375124
411.5788383248865 362.9460598986377
383 362.9460598986377
" stroke="rgb(25,152,102)" stroke-width="5" fill-opacity="0.0"></path><path d="
M 432.5 334.36722157375124 C
416 362.9460598986377
416 362.9460598986377
399.5 391.5248982235242
" stroke="rgb(25,106,102)" stroke-width="5" fill-opacity="0.0"></path><path d="
M 53 362.9460598986377 C
24.421161675113524 362.9460598986377
17.789419162443238 366.7748982235242
3.5 391.5248982235242
" stroke="rgb(25,152,102)" stroke-width="5" fill-opacity="0.0"></path><path d="
M 53 362.9460598986377 C
86 362.9460598986377
86 362.9460598986377
119 362.9460598986377
" stroke="rgb(25,217,102)" stroke-width="5" fill-opacity="0.0"></path><path d="
M 53 362.9460598986377 C
81.57883832488648 362.9460598986377
88.21058083755676 366.7748982235242
102.5 391.5248982235242
" stroke="rgb(25,152,102)" stroke-width="5" fill-opacity="0.0"></path><path d="
M 36.5 391.5248982235242 C
53 420.10373654841067
53 420.10373654841067
69.5 448.68257487329714
" stroke="rgb(25,152,102)" stroke-width="5" fill-opacity="0.0"></path><path d="
M 119 362.9460598986377 C
90.42116167511352 362.9460598986377
83.78941916244324 366.7748982235242
69.5 391.5248982235242
" stroke="rgb(25,217,102)" stroke-width="5" fill-opacity="0.0"></path><path d="
M 119 362.9460598986377 C
152 362.9460598986377
152 362.9460598986377
185 362.9460598986377
" stroke="rgb(25,217,102)" stroke-width="5" fill-opacity="0.0"></path><path d="
M 119 362.9460598986377 C
147.57883832488648 362.9460598986377
154.21058083755676 366.7748982235242
168.5 391.5248982235242
" stroke="rgb(25,217,102)" stroke-width="5" fill-opacity="0.0"></path><path d="
M 102.5 391.5248982235242 C
119 420.10373654841067
119 420.10373654841067
135.5 448.68257487329714
" stroke="rgb(25,106,102)" stroke-width="5" fill-opacity="0.0"></path><path d="
M 102.5 391.5248982235242 C
116.78941916244324 416.2748982235242
116.78941916244324 423.93257487329714
102.5 448.68257487329714
" stroke="rgb(25,152,102)" stroke-width="5" fill-opacity="0.0"></path><path d="
M 69.5 391.5248982235242 C
55.21058083755676 416.2748982235242
55.21058083755676 423.93257487329714
69.5 448.68257487329714
" stroke="rgb(25,179,102)" stroke-width="5" fill-opacity="0.0"></path><path d="
M 69.5 391.5248982235242 C
53 420.10373654841067
53 420.10373654841067
36.5 448.68257487329714
" stroke="rgb(25,152,102)" stroke-width="5" fill-opacity="0.0"></path><path d="
M 185 362.9460598986377 C
218 362.9460598986377
218 362.9460598986377
251 362.9460598986377
" stroke="rgb(25,152,102)" stroke-width="5" fill-opacity="0.0"></path><path d="
M 168.5 391.5248982235242 C
182.78941916244324 416.2748982235242
189.42116167511352 420.10373654841067
218 420.10373654841067
" stroke="rgb(25,179,102)" stroke-width="5" fill-opacity="0.0"></path><path d="
M 168.5 391.5248982235242 C
185 420.10373654841067
185 420.10373654841067
201.5 448.68257487329714
" stroke="rgb(25,152,102)" stroke-width="5" fill-opacity="0.0"></path><path d="
M 168.5 391.5248982235242 C
182.78941916244324 416.2748982235242
182.78941916244324 423.93257487329714
168.5 448.68257487329714
" stroke="rgb(25,152,102)" stroke-width="5" fill-opacity="0.0"></path><path d="
M 135.5 391.5248982235242 C
121.21058083755676 416.2748982235242
121.21058083755676 423.93257487329714
135.5 448.68257487329714
" stroke="rgb(25,106,102)" stroke-width="5" fill-opacity="0.0"></path><path d="
M 135.5 391.5248982235242 C
119 420.10373654841067
119 420.10373654841067
102.5 448.68257487329714
" stroke="rgb(25,152,102)" stroke-width="5" fill-opacity="0.0"></path><path d="
M 251 362.9460598986377 C
284 362.9460598986377
284 362.9460598986377
317 362.9460598986377
" stroke="rgb(25,125,102)" stroke-width="5" fill-opacity="0.0"></path><path d="
M 251 362.9460598986377 C
279.5788383248865 362.9460598986377
286.2105808375568 366.7748982235242
300.5 391.5248982235242
" stroke="rgb(25,106,102)" stroke-width="5" fill-opacity="0.0"></path><path d="
M 234.5 391.5248982235242 C
251 420.10373654841067
251 420.10373654841067
267.5 448.68257487329714
" stroke="rgb(25,106,102)" stroke-width="5" fill-opacity="0.0"></path><path d="
M 201.5 391.5248982235242 C
187.21058083755676 416.2748982235242
180.57883832488648 420.10373654841067
152 420.10373654841067
" stroke="rgb(25,106,102)" stroke-width="5" fill-opacity="0.0"></path><path d="
M 201.5 391.5248982235242 C
187.21058083755676 416.2748982235242
187.21058083755676 423.93257487329714
201.5 448.68257487329714
" stroke="rgb(25,106,102)" stroke-width="5" fill-opacity="0.0"></path><path d="
M 201.5 391.5248982235242 C
185 420.10373654841067
185 420.10373654841067
168.5 448.68257487329714
" stroke="rgb(25,106,102)" stroke-width="5" fill-opacity="0.0"></path><path d="
M 317 362.9460598986377 C
288.4211616751135 362.9460598986377
281.7894191624432 366.7748982235242
267.5 391.5248982235242
" stroke="rgb(25,106,102)" stroke-width="5" fill-opacity="0.0"></path><path d="
M 317 362.9460598986377 C
350 362.9460598986377
350 362.9460598986377
383 362.9460598986377
" stroke="rgb(25,152,102)" stroke-width="5" fill-opacity="0.0"></path><path d="
M 317 362.9460598986377 C
345.5788383248865 362.9460598986377
352.2105808375568 366.7748982235242
366.5 391.5248982235242
" stroke="rgb(25,106,102)" stroke-width="5" fill-opacity="0.0"></path><path d="
M 300.5 391.5248982235242 C
317 420.10373654841067
317 420.10373654841067
333.5 448.68257487329714
" stroke="rgb(25,106,102)" stroke-width="5" fill-opacity="0.0"></path><path d="
M 267.5 391.5248982235242 C
251 420.10373654841067
251 420.10373654841067
234.5 448.68257487329714
" stroke="rgb(25,74,102)" stroke-width="5" fill-opacity="0.0"></path><path d="
M 383 362.9460598986377 C
416 362.9460598986377
416 362.9460598986377
449 362.9460598986377
" stroke="rgb(25,152,102)" stroke-width="5" fill-opacity="0.0"></path><path d="
M 383 362.9460598986377 C
411.5788383248865 362.9460598986377
418.2105808375568 366.7748982235242
432.5 391.5248982235242
" stroke="rgb(25,217,102)" stroke-width="5" fill-opacity="0.0"></path><path d="
M 366.5 391.5248982235242 C
380.7894191624432 416.2748982235242
387.4211616751135 420.10373654841067
416 420.10373654841067
" stroke="rgb(25,106,102)" stroke-width="5" fill-opacity="0.0"></path><path d="
M 366.5 391.5248982235242 C
383 420.10373654841067
383 420.10373654841067
399.5 448.68257487329714
" stroke="rgb(25,74,102)" stroke-width="5" fill-opacity="0.0"></path><path d="
M 366.5 391.5248982235242 C
380.7894191624432 416.2748982235242
380.7894191624432 423.93257487329714
366.5 448.68257487329714
" stroke="rgb(25,87,102)" stroke-width="5" fill-opacity="0.0"></path><path d="
M 333.5 391.5248982235242 C
319.2105808375568 416.2748982235242
312.5788383248865 420.10373654841067
284 420.10373654841067
" stroke="rgb(25,217,102)" stroke-width="5" fill-opacity="0.0"></path><path d="
M 333.5 391.5248982235242 C
319.2105808375568 416.2748982235242
319.2105808375568 423.93257487329714
333.5 448.68257487329714
" stroke="rgb(25,152,102)" stroke-width="5" fill-opacity="0.0"></path><path d="
M 333.5 391.5248982235242 C
317 420.10373654841067
317 420.10373654841067
300.5 448.68257487329714
" stroke="rgb(25,152,102)" stroke-width="5" fill-opacity="0.0"></path><path d="
M 449 362.9460598986377 C
482 362.9460598986377
482 362.9460598986377
515 362.9460598986377
" stroke="rgb(25,106,102)" stroke-width="5" fill-opacity="0.0"></path><path d="
M 432.5 391.5248982235242 C
446.7894191624432 416.2748982235242
453.4211616751135 420.10373654841067
482 420.10373654841067
" stroke="rgb(25,217,102)" stroke-width="5" fill-opacity="0.0"></path><path d="
M 432.5 391.5248982235242 C
449 420.10373654841067
449 420.10373654841067
465.5 448.68257487329714
" stroke="rgb(25,217,102)" stroke-width="5" fill-opacity="0.0"></path><path d="
M 399.5 391.5248982235242 C
383 420.10373654841067
383 420.10373654841067
366.5 448.68257487329714
" stroke="rgb(25,87,102)" stroke-width="5" fill-opacity="0.0"></path><path d="
M 515 362.9460598986377 C
486.4211616751135 362.9460598986377
479.7894191624432 366.7748982235242
465.5 391.5248982235242
" stroke="rgb(25,74,102)" stroke-width="5" fill-opacity="0.0"></path><path d="
M 465.5 391.5248982235242 C
449 420.10373654841067
449 420.10373654841067
432.5 448.68257487329714
" stroke="rgb(25,52,102)" stroke-width="5" fill-opacity="0.0"></path><path d="
M 86 420.10373654841067 C
119 420.10373654841067
119 420.10373654841067
152 420.10373654841067
" stroke="rgb(25,106,102)" stroke-width="5" fill-opacity="0.0"></path><path d="
M 69.5 448.68257487329714 C
86 477.2614131981836
86 477.2614131981836
102.5 505.8402515230701
" stroke="rgb(25,217,102)" stroke-width="5" fill-opacity="0.0"></path><path d="
M 69.5 448.68257487329714 C
83.78941916244324 473.43257487329714
83.78941916244324 481.0902515230701
69.5 505.8402515230701
" stroke="rgb(25,152,102)" stroke-width="5" fill-opacity="0.0"></path><path d="
M 36.5 448.68257487329714 C
20 477.2614131981836
20 477.2614131981836
3.5 505.8402515230701
" stroke="rgb(25,106,102)" stroke-width="5" fill-opacity="0.0"></path><path d="
M 152 420.10373654841067 C
185 420.10373654841067
185 420.10373654841067
218 420.10373654841067
" stroke="rgb(25,152,102)" stroke-width="5" fill-opacity="0.0"></path><path d="
M 152 420.10373654841067 C
180.57883832488648 420.10373654841067
187.21058083755676 423.93257487329714
201.5 448.68257487329714
" stroke="rgb(25,125,102)" stroke-width="5" fill-opacity="0.0"></path><path d="
M 135.5 448.68257487329714 C
149.78941916244324 473.43257487329714
156.42116167511352 477.2614131981836
185 477.2614131981836
" stroke="rgb(25,74,102)" stroke-width="5" fill-opacity="0.0"></path><path d="
M 135.5 448.68257487329714 C
152 477.2614131981836
152 477.2614131981836
168.5 505.8402515230701
" stroke="rgb(25,74,102)" stroke-width="5" fill-opacity="0.0"></path><path d="
M 102.5 448.68257487329714 C
88.21058083755676 473.43257487329714
81.57883832488648 477.2614131981836
53 477.2614131981836
" stroke="rgb(25,152,102)" stroke-width="5" fill-opacity="0.0"></path><path d="
M 102.5 448.68257487329714 C
88.21058083755676 473.43257487329714
88.21058083755676 481.0902515230701
102.5 505.8402515230701
" stroke="rgb(25,217,102)" stroke-width="5" fill-opacity="0.0"></path><path d="
M 102.5 448.68257487329714 C
86 477.2614131981836
86 477.2614131981836
69.5 505.8402515230701
" stroke="rgb(25,152,102)" stroke-width="5" fill-opacity="0.0"></path><path d="
M 218 420.10373654841067 C
189.42116167511352 420.10373654841067
182.78941916244324 423.93257487329714
168.5 448.68257487329714
" stroke="rgb(25,152,102)" stroke-width="5" fill-opacity="0.0"></path><path d="
M 218 420.10373654841067 C
251 420.10373654841067
251 420.10373654841067
284 420.10373654841067
" stroke="rgb(25,217,102)" stroke-width="5" fill-opacity="0.0"></path><path d="
M 218 420.10373654841067 C
246.57883832488648 420.10373654841067
253.21058083755676 423.93257487329714
267.5 448.68257487329714
" stroke="rgb(25,152,102)" stroke-width="5" fill-opacity="0.0"></path><path d="
M 201.5 448.68257487329714 C
215.78941916244324 473.43257487329714
222.42116167511352 477.2614131981836
251 477.2614131981836
" stroke="rgb(25,106,102)" stroke-width="5" fill-opacity="0.0"></path><path d="
M 201.5 448.68257487329714 C
218 477.2614131981836
218 477.2614131981836
234.5 505.8402515230701
" stroke="rgb(25,106,102)" stroke-width="5" fill-opacity="0.0"></path><path d="
M 168.5 448.68257487329714 C
152 477.2614131981836
152 477.2614131981836
135.5 505.8402515230701
" stroke="rgb(25,106,102)" stroke-width="5" fill-opacity="0.0"></path><path d="
M 284 420.10373654841067 C
317 420.10373654841067
317 420.10373654841067
350 420.10373654841067
" stroke="rgb(25,217,102)" stroke-width="5" fill-opacity="0.0"></path><path d="
M 267.5 448.68257487329714 C
281.7894191624432 473.43257487329714
288.4211616751135 477.2614131981836
317 477.2614131981836
" stroke="rgb(25,106,102)" stroke-width="5" fill-opacity="0.0"></path><path d="
M 267.5 448.68257487329714 C
284 477.2614131981836
284 477.2614131981836
300.5 505.8402515230701
" stroke="rgb(25,106,102)" stroke-width="5" fill-opacity="0.0"></path><path d="
M 234.5 448.68257487329714 C
220.21058083755676 473.43257487329714
220.21058083755676 481.0902515230701
234.5 505.8402515230701
" stroke="rgb(25,74,102)" stroke-width="5" fill-opacity="0.0"></path><path d="
M 234.5 448.68257487329714 C
218 477.2614131981836
218 477.2614131981836
201.5 505.8402515230701
" stroke="rgb(25,61,102)" stroke-width="5" fill-opacity="0.0"></path><path d="
M 350 420.10373654841067 C
383 420.10373654841067
383 420.10373654841067
416 420.10373654841067
" stroke="rgb(25,152,102)" stroke-width="5" fill-opacity="0.0"></path><path d="
M 333.5 448.68257487329714 C
350 477.2614131981836
350 477.2614131981836
366.5 505.8402515230701
" stroke="rgb(25,106,102)" stroke-width="5" fill-opacity="0.0"></path><path d="
M 333.5 448.68257487329714 C
347.7894191624432 473.43257487329714
347.7894191624432 481.0902515230701
333.5 505.8402515230701
" stroke="rgb(25,106,102)" stroke-width="5" fill-opacity="0.0"></path><path d="
M 300.5 448.68257487329714 C
286.2105808375568 473.43257487329714
279.5788383248865 477.2614131981836
251 477.2614131981836
" stroke="rgb(25,106,102)" stroke-width="5" fill-opacity="0.0"></path><path d="
M 300.5 448.68257487329714 C
286.2105808375568 473.43257487329714
286.2105808375568 481.0902515230701
300.5 505.8402515230701
" stroke="rgb(25,106,102)" stroke-width="5" fill-opacity="0.0"></path><path d="
M 300.5 448.68257487329714 C
284 477.2614131981836
284 477.2614131981836
267.5 505.8402515230701
" stroke="rgb(25,106,102)" stroke-width="5" fill-opacity="0.0"></path><path d="
M 416 420.10373654841067 C
387.4211616751135 420.10373654841067
380.7894191624432 423.93257487329714
366.5 448.68257487329714
" stroke="rgb(25,106,102)" stroke-width="5" fill-opacity="0.0"></path><path d="
M 416 420.10373654841067 C
449 420.10373654841067
449 420.10373654841067
482 420.10373654841067
" stroke="rgb(25,152,102)" stroke-width="5" fill-opacity="0.0"></path><path d="
M 416 420.10373654841067 C
444.5788383248865 420.10373654841067
451.2105808375568 423.93257487329714
465.5 448.68257487329714
" stroke="rgb(25,152,102)" stroke-width="5" fill-opacity="0.0"></path><path d="
M 399.5 448.68257487329714 C
416 477.2614131981836
416 477.2614131981836
432.5 505.8402515230701
" stroke="rgb(25,52,102)" stroke-width="5" fill-opacity="0.0"></path><path d="
M 366.5 448.68257487329714 C
352.2105808375568 473.43257487329714
352.2105808375568 481.0902515230701
366.5 505.8402515230701
" stroke="rgb(25,87,102)" stroke-width="5" fill-opacity="0.0"></path><path d="
M 366.5 448.68257487329714 C
350 477.2614131981836
350 477.2614131981836
333.5 505.8402515230701
" stroke="rgb(25,87,102)" stroke-width="5" fill-opacity="0.0"></path><path d="
M 465.5 448.68257487329714 C
482 477.2614131981836
482 477.2614131981836
498.5 505.8402515230701
" stroke="rgb(25,152,102)" stroke-width="5" fill-opacity="0.0"></path><path d="
M 432.5 448.68257487329714 C
418.2105808375568 473.43257487329714
411.5788383248865 477.2614131981836
383 477.2614131981836
" stroke="rgb(25,52,102)" stroke-width="5" fill-opacity="0.0"></path><path d="
M 432.5 448.68257487329714 C
416 477.2614131981836
416 477.2614131981836
399.5 505.8402515230701
" stroke="rgb(25,36,102)" stroke-width="5" fill-opacity="0.0"></path><path d="
M 53 477.2614131981836 C
24.421161675113524 477.2614131981836
17.789419162443238 481.0902515230701
3.5 505.8402515230701
" stroke="rgb(25,106,102)" stroke-width="5" fill-opacity="0.0"></path><path d="
M 53 477.2614131981836 C
86 477.2614131981836
86 477.2614131981836
119 477.2614131981836
" stroke="rgb(25,106,102)" stroke-width="5" fill-opacity="0.0"></path><path d="
M 119 477.2614131981836 C
152 477.2614131981836
152 477.2614131981836
185 477.2614131981836
" stroke="rgb(25,74,102)" stroke-width="5" fill-opacity="0.0"></path><path d="
M 119 477.2614131981836 C
147.57883832488648 477.2614131981836
154.21058083755676 481.0902515230701
168.5 505.8402515230701
" stroke="rgb(25,74,102)" stroke-width="5" fill-opacity="0.0"></path><path d="
M 185 477.2614131981836 C
156.42116167511352 477.2614131981836
149.78941916244324 481.0902515230701
135.5 505.8402515230701
" stroke="rgb(25,74,102)" stroke-width="5" fill-opacity="0.0"></path><path d="
M 185 477.2614131981836 C
218 477.2614131981836
218 477.2614131981836
251 477.2614131981836
" stroke="rgb(25,74,102)" stroke-width="5" fill-opacity="0.0"></path><path d="
M 185 477.2614131981836 C
213.57883832488648 477.2614131981836
220.21058083755676 481.0902515230701
234.5 505.8402515230701
" stroke="rgb(25,74,102)" stroke-width="5" fill-opacity="0.0"></path><path d="
M 251 477.2614131981836 C
222.42116167511352 477.2614131981836
215.78941916244324 481.0902515230701
201.5 505.8402515230701
" stroke="rgb(25,74,102)" stroke-width="5" fill-opacity="0.0"></path><path d="
M 251 477.2614131981836 C
284 477.2614131981836
284 477.2614131981836
317 477.2614131981836
" stroke="rgb(25,87,102)" stroke-width="5" fill-opacity="0.0"></path><path d="
M 317 477.2614131981836 C
350 477.2614131981836
350 477.2614131981836
383 477.2614131981836
" stroke="rgb(25,74,102)" stroke-width="5" fill-opacity="0.0"></path><path d="
M 317 477.2614131981836 C
345.5788383248865 477.2614131981836
352.2105808375568 481.0902515230701
366.5 505.8402515230701
" stroke="rgb(25,87,102)" stroke-width="5" fill-opacity="0.0"></path><path d="
M 383 477.2614131981836 C
416 477.2614131981836
416 477.2614131981836
449 477.2614131981836
" stroke="rgb(25,52,102)" stroke-width="5" fill-opacity="0.0"></path><path d="
M 383 477.2614131981836 C
411.5788383248865 477.2614131981836
418.2105808375568 481.0902515230701
432.5 505.8402515230701
" stroke="rgb(25,52,102)" stroke-width="5" fill-opacity="0.0"></path><path d="
M 449 477.2614131981836 C
482 477.2614131981836
482 477.2614131981836
515 477.2614131981836
" stroke="rgb(25,36,102)" stroke-width="5" fill-opacity="0.0"></path><line x1="56" y1="20" x2="50" y2="20" stroke="rgb(63,0,21)" stroke-width="2"></line><line x1="38" y1="51.17691453623979" x2="35" y2="45.98076211353316" stroke="rgb(90,0,30)" stroke-width="2"></line><line x1="2" y1="51.17691453623979" x2="5" y2="45.98076211353316" stroke="rgb(44,0,14)" stroke-width="2"></line><line x1="122" y1="20" x2="116" y2="20" stroke="rgb(90,0,30)" stroke-width="2"></line><line x1="104" y1="51.17691453623979" x2="101" y2="45.98076211353316" stroke="rgb(90,0,30)" stroke-width="2"></line><line x1="68" y1="51.17691453623979" x2="71" y2="45.98076211353316" stroke="rgb(90,0,30)" stroke-width="2"></line><line x1="188" y1="20" x2="182" y2="20" stroke="rgb(129,0,43)" stroke-width="2"></line><line x1="170" y1="51.17691453623979" x2="167" y2="45.98076211353316" stroke="rgb(129,0,43)" stroke-width="2"></line><line x1="134" y1="51.17691453623979" x2="137" y2="45.98076211353316" stroke="rgb(90,0,30)" stroke-width="2"></line><line x1="254" y1="20" x2="248" y2="20" stroke="rgb(184,0,61)" stroke-width="2"></line><line x1="236" y1="51.17691453623979" x2="233" y2="45.98076211353316" stroke="rgb(129,0,43)" stroke-width="2"></line><line x1="200" y1="51.17691453623979" x2="203" y2="45.98076211353316" stroke="rgb(129,0,43)" stroke-width="2"></line><line x1="320" y1="20" x2="314" y2="20" stroke="rgb(255,0,87)" stroke-width="2"></line><line x1="302" y1="51.17691453623979" x2="299" y2="45.98076211353316" stroke="rgb(129,0,43)" stroke-width="2"></line><line x1="266" y1="51.17691453623979" x2="269" y2="45.98076211353316" stroke="rgb(184,0,61)" stroke-width="2"></line><line x1="386" y1="20" x2="380" y2="20" stroke="rgb(255,0,125)" stroke-width="2"></line><line x1="368" y1="51.17691453623979" x2="365" y2="45.98076211353316" stroke="rgb(129,0,43)" stroke-width="2"></line><line x1="332" y1="51.17691453623979" x2="335" y2="45.98076211353316" stroke="rgb(129,0,43)" stroke-width="2"></line><line x1="452" y1="20" x2="446" y2="20" stroke="rgb(255,0,179)" stroke-width="2"></line><line x1="434" y1="51.17691453623979" x2="431" y2="45.98076211353316" stroke="rgb(255,0,87)" stroke-width="2"></line><line x1="398" y1="51.17691453623979" x2="401" y2="45.98076211353316" stroke="rgb(129,0,43)" stroke-width="2"></line><line x1="518" y1="20" x2="512" y2="20" stroke="rgb(255,0,255)" stroke-width="2"></line><line x1="500" y1="51.17691453623979" x2="497" y2="45.98076211353316" stroke="#040" stroke-width="5" stroke-opacity="0.0"></line><line x1="464" y1="51.17691453623979" x2="467" y2="45.98076211353316" stroke="rgb(129,0,43)" stroke-width="2"></line><line x1="89" y1="77.15767664977295" x2="83" y2="77.15767664977295" stroke="rgb(90,0,30)" stroke-width="2"></line><line x1="71" y1="108.33459118601274" x2="68" y2="103.13843876330611" stroke="rgb(129,0,43)" stroke-width="2"></line><line x1="35" y1="108.33459118601274" x2="38" y2="103.13843876330611" stroke="rgb(129,0,43)" stroke-width="2"></line><line x1="155" y1="77.15767664977295" x2="149" y2="77.15767664977295" stroke="rgb(129,0,43)" stroke-width="2"></line><line x1="137" y1="108.33459118601274" x2="134" y2="103.13843876330611" stroke="rgb(129,0,43)" stroke-width="2"></line><line x1="101" y1="108.33459118601274" x2="104" y2="103.13843876330611" stroke="rgb(129,0,43)" stroke-width="2"></line><line x1="221" y1="77.15767664977295" x2="215" y2="77.15767664977295" stroke="rgb(129,0,43)" stroke-width="2"></line><line x1="203" y1="108.33459118601274" x2="200" y2="103.13843876330611" stroke="rgb(184,0,61)" stroke-width="2"></line><line x1="167" y1="108.33459118601274" x2="170" y2="103.13843876330611" stroke="rgb(129,0,43)" stroke-width="2"></line><line x1="287" y1="77.15767664977295" x2="281" y2="77.15767664977295" stroke="rgb(129,0,43)" stroke-width="2"></line><line x1="269" y1="108.33459118601274" x2="266" y2="103.13843876330611" stroke="rgb(184,0,61)" stroke-width="2"></line><line x1="233" y1="108.33459118601274" x2="236" y2="103.13843876330611" stroke="rgb(184,0,61)" stroke-width="2"></line><line x1="353" y1="77.15767664977295" x2="347" y2="77.15767664977295" stroke="rgb(90,0,30)" stroke-width="2"></line><line x1="335" y1="108.33459118601274" x2="332" y2="103.13843876330611" stroke="rgb(184,0,61)" stroke-width="2"></line><line x1="299" y1="108.33459118601274" x2="302" y2="103.13843876330611" stroke="rgb(184,0,61)" stroke-width="2"></line><line x1="419" y1="77.15767664977295" x2="413" y2="77.15767664977295" stroke="rgb(129,0,43)" stroke-width="2"></line><line x1="401" y1="108.33459118601274" x2="398" y2="103.13843876330611" stroke="rgb(129,0,43)" stroke-width="2"></line><line x1="365" y1="108.33459118601274" x2="368" y2="103.13843876330611" stroke="rgb(184,0,61)" stroke-width="2"></line><line x1="485" y1="77.15767664977295" x2="479" y2="77.15767664977295" stroke="rgb(184,0,61)" stroke-width="2"></line><line x1="467" y1="108.33459118601274" x2="464" y2="103.13843876330611" stroke="rgb(184,0,61)" stroke-width="2"></line><line x1="431" y1="108.33459118601274" x2="434" y2="103.13843876330611" stroke="rgb(129,0,43)" stroke-width="2"></line><line x1="56" y1="134.3153532995459" x2="50" y2="134.3153532995459" stroke="rgb(129,0,43)" stroke-width="2"></line><line x1="38" y1="165.4922678357857" x2="35" y2="160.29611541307906" stroke="rgb(184,0,61)" stroke-width="2"></line><line x1="2" y1="165.4922678357857" x2="5" y2="160.29611541307906" stroke="rgb(90,0,30)" stroke-width="2"></line><line x1="122" y1="134.3153532995459" x2="116" y2="134.3153532995459" stroke="rgb(129,0,43)" stroke-width="2"></line><line x1="104" y1="165.4922678357857" x2="101" y2="160.29611541307906" stroke="rgb(184,0,61)" stroke-width="2"></line><line x1="68" y1="165.4922678357857" x2="71" y2="160.29611541307906" stroke="rgb(184,0,61)" stroke-width="2"></line><line x1="188" y1="134.3153532995459" x2="182" y2="134.3153532995459" stroke="rgb(184,0,61)" stroke-width="2"></line><line x1="170" y1="165.4922678357857" x2="167" y2="160.29611541307906" stroke="rgb(90,0,30)" stroke-width="2"></line><line x1="134" y1="165.4922678357857" x2="137" y2="160.29611541307906" stroke="rgb(184,0,61)" stroke-width="2"></line><line x1="254" y1="134.3153532995459" x2="248" y2="134.3153532995459" stroke="rgb(184,0,61)" stroke-width="2"></line><line x1="236" y1="165.4922678357857" x2="233" y2="160.29611541307906" stroke="rgb(255,0,87)" stroke-width="2"></line><line x1="200" y1="165.4922678357857" x2="203" y2="160.29611541307906" stroke="rgb(129,0,43)" stroke-width="2"></line><line x1="320" y1="134.3153532995459" x2="314" y2="134.3153532995459" stroke="rgb(184,0,61)" stroke-width="2"></line><line x1="302" y1="165.4922678357857" x2="299" y2="160.29611541307906" stroke="rgb(255,0,87)" stroke-width="2"></line><line x1="266" y1="165.4922678357857" x2="269" y2="160.29611541307906" stroke="rgb(255,0,87)" stroke-width="2"></line><line x1="386" y1="134.3153532995459" x2="380" y2="134.3153532995459" stroke="rgb(129,0,43)" stroke-width="2"></line><line x1="368" y1="165.4922678357857" x2="365" y2="160.29611541307906" stroke="rgb(184,0,61)" stroke-width="2"></line><line x1="332" y1="165.4922678357857" x2="335" y2="160.29611541307906" stroke="rgb(255,0,87)" stroke-width="2"></line><line x1="452" y1="134.3153532995459" x2="446" y2="134.3153532995459" stroke="rgb(90,0,30)" stroke-width="2"></line><line x1="434" y1="165.4922678357857" x2="431" y2="160.29611541307906" stroke="rgb(184,0,61)" stroke-width="2"></line><line x1="398" y1="165.4922678357857" x2="401" y2="160.29611541307906" stroke="rgb(184,0,61)" stroke-width="2"></line><line x1="518" y1="134.3153532995459" x2="512" y2="134.3153532995459" stroke="rgb(63,0,21)" stroke-width="2"></line><line x1="500" y1="165.4922678357857" x2="497" y2="160.29611541307906" stroke="rgb(129,0,43)" stroke-width="2"></line><line x1="464" y1="165.4922678357857" x2="467" y2="160.29611541307906" stroke="rgb(184,0,61)" stroke-width="2"></line><line x1="89" y1="191.47302994931886" x2="83" y2="191.47302994931886" stroke="rgb(129,0,43)" stroke-width="2"></line><line x1="71" y1="222.64994448555865" x2="68" y2="217.45379206285202" stroke="rgb(255,0,87)" stroke-width="2"></line><line x1="35" y1="222.64994448555865" x2="38" y2="217.45379206285202" stroke="rgb(129,0,43)" stroke-width="2"></line><line x1="155" y1="191.47302994931886" x2="149" y2="191.47302994931886" stroke="rgb(129,0,43)" stroke-width="2"></line><line x1="137" y1="222.64994448555865" x2="134" y2="217.45379206285202" stroke="rgb(129,0,43)" stroke-width="2"></line><line x1="101" y1="222.64994448555865" x2="104" y2="217.45379206285202" stroke="rgb(255,0,87)" stroke-width="2"></line><line x1="221" y1="191.47302994931886" x2="215" y2="191.47302994931886" stroke="rgb(129,0,43)" stroke-width="2"></line><line x1="203" y1="222.64994448555865" x2="200" y2="217.45379206285202" stroke="rgb(129,0,43)" stroke-width="2"></line><line x1="167" y1="222.64994448555865" x2="170" y2="217.45379206285202" stroke="rgb(184,0,61)" stroke-width="2"></line><line x1="287" y1="191.47302994931886" x2="281" y2="191.47302994931886" stroke="rgb(184,0,61)" stroke-width="2"></line><line x1="269" y1="222.64994448555865" x2="266" y2="217.45379206285202" stroke="rgb(255,0,125)" stroke-width="2"></line><line x1="233" y1="222.64994448555865" x2="236" y2="217.45379206285202" stroke="rgb(255,0,87)" stroke-width="2"></line><line x1="353" y1="191.47302994931886" x2="347" y2="191.47302994931886" stroke="rgb(255,0,87)" stroke-width="2"></line><line x1="335" y1="222.64994448555865" x2="332" y2="217.45379206285202" stroke="rgb(255,0,87)" stroke-width="2"></line><line x1="299" y1="222.64994448555865" x2="302" y2="217.45379206285202" stroke="rgb(255,0,125)" stroke-width="2"></line><line x1="419" y1="191.47302994931886" x2="413" y2="191.47302994931886" stroke="rgb(184,0,61)" stroke-width="2"></line><line x1="401" y1="222.64994448555865" x2="398" y2="217.45379206285202" stroke="rgb(184,0,61)" stroke-width="2"></line><line x1="365" y1="222.64994448555865" x2="368" y2="217.45379206285202" stroke="rgb(255,0,87)" stroke-width="2"></line><line x1="485" y1="191.47302994931886" x2="479" y2="191.47302994931886" stroke="rgb(184,0,61)" stroke-width="2"></line><line x1="467" y1="222.64994448555865" x2="464" y2="217.45379206285202" stroke="rgb(129,0,43)" stroke-width="2"></line><line x1="431" y1="222.64994448555865" x2="434" y2="217.45379206285202" stroke="rgb(255,0,87)" stroke-width="2"></line><line x1="56" y1="248.6307065990918" x2="50" y2="248.6307065990918" stroke="rgb(184,0,61)" stroke-width="2"></line><line x1="38" y1="279.8076211353316" x2="35" y2="274.61146871262497" stroke="rgb(255,0,125)" stroke-width="2"></line><line x1="2" y1="279.8076211353316" x2="5" y2="274.61146871262497" stroke="rgb(129,0,43)" stroke-width="2"></line><line x1="122" y1="248.6307065990918" x2="116" y2="248.6307065990918" stroke="rgb(129,0,43)" stroke-width="2"></line><line x1="104" y1="279.8076211353316" x2="101" y2="274.61146871262497" stroke="rgb(255,0,87)" stroke-width="2"></line><line x1="68" y1="279.8076211353316" x2="71" y2="274.61146871262497" stroke="rgb(255,0,125)" stroke-width="2"></line><line x1="188" y1="248.6307065990918" x2="182" y2="248.6307065990918" stroke="rgb(129,0,43)" stroke-width="2"></line><line x1="170" y1="279.8076211353316" x2="167" y2="274.61146871262497" stroke="rgb(129,0,43)" stroke-width="2"></line><line x1="134" y1="279.8076211353316" x2="137" y2="274.61146871262497" stroke="rgb(255,0,87)" stroke-width="2"></line><line x1="254" y1="248.6307065990918" x2="248" y2="248.6307065990918" stroke="rgb(184,0,61)" stroke-width="2"></line><line x1="236" y1="279.8076211353316" x2="233" y2="274.61146871262497" stroke="rgb(184,0,61)" stroke-width="2"></line><line x1="200" y1="279.8076211353316" x2="203" y2="274.61146871262497" stroke="rgb(255,0,125)" stroke-width="2"></line><line x1="320" y1="248.6307065990918" x2="314" y2="248.6307065990918" stroke="rgb(255,0,87)" stroke-width="2"></line><line x1="302" y1="279.8076211353316" x2="299" y2="274.61146871262497" stroke="rgb(255,0,179)" stroke-width="2"></line><line x1="266" y1="279.8076211353316" x2="269" y2="274.61146871262497" stroke="rgb(255,0,87)" stroke-width="2"></line><line x1="386" y1="248.6307065990918" x2="380" y2="248.6307065990918" stroke="rgb(255,0,87)" stroke-width="2"></line><line x1="368" y1="279.8076211353316" x2="365" y2="274.61146871262497" stroke="rgb(255,0,125)" stroke-width="2"></line><line x1="332" y1="279.8076211353316" x2="335" y2="274.61146871262497" stroke="rgb(255,0,125)" stroke-width="2"></line><line x1="452" y1="248.6307065990918" x2="446" y2="248.6307065990918" stroke="rgb(184,0,61)" stroke-width="2"></line><line x1="434" y1="279.8076211353316" x2="431" y2="274.61146871262497" stroke="rgb(255,0,87)" stroke-width="2"></line><line x1="398" y1="279.8076211353316" x2="401" y2="274.61146871262497" stroke="rgb(255,0,125)" stroke-width="2"></line><line x1="518" y1="248.6307065990918" x2="512" y2="248.6307065990918" stroke="rgb(129,0,43)" stroke-width="2"></line><line x1="500" y1="279.8076211353316" x2="497" y2="274.61146871262497" stroke="rgb(90,0,30)" stroke-width="2"></line><line x1="464" y1="279.8076211353316" x2="467" y2="274.61146871262497" stroke="rgb(255,0,87)" stroke-width="2"></line><line x1="89" y1="305.78838324886476" x2="83" y2="305.78838324886476" stroke="rgb(184,0,61)" stroke-width="2"></line><line x1="71" y1="336.96529778510455" x2="68" y2="331.7691453623979" stroke="rgb(255,0,179)" stroke-width="2"></line><line x1="35" y1="336.96529778510455" x2="38" y2="331.7691453623979" stroke="rgb(255,0,87)" stroke-width="2"></line><line x1="155" y1="305.78838324886476" x2="149" y2="305.78838324886476" stroke="rgb(255,0,87)" stroke-width="2"></line><line x1="137" y1="336.96529778510455" x2="134" y2="331.7691453623979" stroke="rgb(255,0,125)" stroke-width="2"></line><line x1="101" y1="336.96529778510455" x2="104" y2="331.7691453623979" stroke="rgb(255,0,125)" stroke-width="2"></line><line x1="221" y1="305.78838324886476" x2="215" y2="305.78838324886476" stroke="rgb(255,0,125)" stroke-width="2"></line><line x1="203" y1="336.96529778510455" x2="200" y2="331.7691453623979" stroke="rgb(184,0,61)" stroke-width="2"></line><line x1="167" y1="336.96529778510455" x2="170" y2="331.7691453623979" stroke="rgb(255,0,179)" stroke-width="2"></line><line x1="287" y1="305.78838324886476" x2="281" y2="305.78838324886476" stroke="rgb(255,0,179)" stroke-width="2"></line><line x1="269" y1="336.96529778510455" x2="266" y2="331.7691453623979" stroke="rgb(255,0,87)" stroke-width="2"></line><line x1="233" y1="336.96529778510455" x2="236" y2="331.7691453623979" stroke="rgb(184,0,61)" stroke-width="2"></line><line x1="353" y1="305.78838324886476" x2="347" y2="305.78838324886476" stroke="rgb(255,0,255)" stroke-width="2"></line><line x1="335" y1="336.96529778510455" x2="332" y2="331.7691453623979" stroke="rgb(255,0,125)" stroke-width="2"></line><line x1="299" y1="336.96529778510455" x2="302" y2="331.7691453623979" stroke="rgb(255,0,87)" stroke-width="2"></line><line x1="419" y1="305.78838324886476" x2="413" y2="305.78838324886476" stroke="rgb(255,0,179)" stroke-width="2"></line><line x1="401" y1="336.96529778510455" x2="398" y2="331.7691453623979" stroke="rgb(255,0,179)" stroke-width="2"></line><line x1="365" y1="336.96529778510455" x2="368" y2="331.7691453623979" stroke="rgb(255,0,125)" stroke-width="2"></line><line x1="485" y1="305.78838324886476" x2="479" y2="305.78838324886476" stroke="rgb(255,0,125)" stroke-width="2"></line><line x1="467" y1="336.96529778510455" x2="464" y2="331.7691453623979" stroke="rgb(184,0,61)" stroke-width="2"></line><line x1="431" y1="336.96529778510455" x2="434" y2="331.7691453623979" stroke="rgb(255,0,125)" stroke-width="2"></line><line x1="56" y1="362.9460598986377" x2="50" y2="362.9460598986377" stroke="rgb(255,0,179)" stroke-width="2"></line><line x1="38" y1="394.1229744348775" x2="35" y2="388.9268220121709" stroke="rgb(255,0,125)" stroke-width="2"></line><line x1="2" y1="394.1229744348775" x2="5" y2="388.9268220121709" stroke="rgb(255,0,125)" stroke-width="2"></line><line x1="122" y1="362.9460598986377" x2="116" y2="362.9460598986377" stroke="rgb(255,0,255)" stroke-width="2"></line><line x1="104" y1="394.1229744348775" x2="101" y2="388.9268220121709" stroke="rgb(255,0,125)" stroke-width="2"></line><line x1="68" y1="394.1229744348775" x2="71" y2="388.9268220121709" stroke="rgb(255,0,179)" stroke-width="2"></line><line x1="188" y1="362.9460598986377" x2="182" y2="362.9460598986377" stroke="rgb(255,0,179)" stroke-width="2"></line><line x1="170" y1="394.1229744348775" x2="167" y2="388.9268220121709" stroke="rgb(255,0,179)" stroke-width="2"></line><line x1="134" y1="394.1229744348775" x2="137" y2="388.9268220121709" stroke="rgb(255,0,125)" stroke-width="2"></line><line x1="254" y1="362.9460598986377" x2="248" y2="362.9460598986377" stroke="rgb(255,0,125)" stroke-width="2"></line><line x1="236" y1="394.1229744348775" x2="233" y2="388.9268220121709" stroke="rgb(255,0,87)" stroke-width="2"></line><line x1="200" y1="394.1229744348775" x2="203" y2="388.9268220121709" stroke="rgb(255,0,87)" stroke-width="2"></line><line x1="320" y1="362.9460598986377" x2="314" y2="362.9460598986377" stroke="rgb(255,0,125)" stroke-width="2"></line><line x1="302" y1="394.1229744348775" x2="299" y2="388.9268220121709" stroke="rgb(255,0,87)" stroke-width="2"></line><line x1="266" y1="394.1229744348775" x2="269" y2="388.9268220121709" stroke="rgb(255,0,87)" stroke-width="2"></line><line x1="386" y1="362.9460598986377" x2="380" y2="362.9460598986377" stroke="rgb(255,0,179)" stroke-width="2"></line><line x1="368" y1="394.1229744348775" x2="365" y2="388.9268220121709" stroke="rgb(255,0,87)" stroke-width="2"></line><line x1="332" y1="394.1229744348775" x2="335" y2="388.9268220121709" stroke="rgb(255,0,179)" stroke-width="2"></line><line x1="452" y1="362.9460598986377" x2="446" y2="362.9460598986377" stroke="rgb(255,0,125)" stroke-width="2"></line><line x1="434" y1="394.1229744348775" x2="431" y2="388.9268220121709" stroke="rgb(255,0,255)" stroke-width="2"></line><line x1="398" y1="394.1229744348775" x2="401" y2="388.9268220121709" stroke="rgb(255,0,87)" stroke-width="2"></line><line x1="518" y1="362.9460598986377" x2="512" y2="362.9460598986377" stroke="rgb(255,0,87)" stroke-width="2"></line><line x1="500" y1="394.1229744348775" x2="497" y2="388.9268220121709" stroke="rgb(129,0,43)" stroke-width="2"></line><line x1="464" y1="394.1229744348775" x2="467" y2="388.9268220121709" stroke="rgb(184,0,61)" stroke-width="2"></line><line x1="89" y1="420.10373654841067" x2="83" y2="420.10373654841067" stroke="rgb(255,0,87)" stroke-width="2"></line><line x1="71" y1="451.28065108465046" x2="68" y2="446.0844986619438" stroke="rgb(255,0,179)" stroke-width="2"></line><line x1="35" y1="451.28065108465046" x2="38" y2="446.0844986619438" stroke="rgb(255,0,125)" stroke-width="2"></line><line x1="155" y1="420.10373654841067" x2="149" y2="420.10373654841067" stroke="rgb(255,0,125)" stroke-width="2"></line><line x1="137" y1="451.28065108465046" x2="134" y2="446.0844986619438" stroke="rgb(255,0,87)" stroke-width="2"></line><line x1="101" y1="451.28065108465046" x2="104" y2="446.0844986619438" stroke="rgb(255,0,179)" stroke-width="2"></line><line x1="221" y1="420.10373654841067" x2="215" y2="420.10373654841067" stroke="rgb(255,0,179)" stroke-width="2"></line><line x1="203" y1="451.28065108465046" x2="200" y2="446.0844986619438" stroke="rgb(255,0,125)" stroke-width="2"></line><line x1="167" y1="451.28065108465046" x2="170" y2="446.0844986619438" stroke="rgb(255,0,125)" stroke-width="2"></line><line x1="287" y1="420.10373654841067" x2="281" y2="420.10373654841067" stroke="rgb(255,0,255)" stroke-width="2"></line><line x1="269" y1="451.28065108465046" x2="266" y2="446.0844986619438" stroke="rgb(255,0,125)" stroke-width="2"></line><line x1="233" y1="451.28065108465046" x2="236" y2="446.0844986619438" stroke="rgb(184,0,61)" stroke-width="2"></line><line x1="353" y1="420.10373654841067" x2="347" y2="420.10373654841067" stroke="rgb(255,0,179)" stroke-width="2"></line><line x1="335" y1="451.28065108465046" x2="332" y2="446.0844986619438" stroke="rgb(255,0,125)" stroke-width="2"></line><line x1="299" y1="451.28065108465046" x2="302" y2="446.0844986619438" stroke="rgb(255,0,125)" stroke-width="2"></line><line x1="419" y1="420.10373654841067" x2="413" y2="420.10373654841067" stroke="rgb(255,0,125)" stroke-width="2"></line><line x1="401" y1="451.28065108465046" x2="398" y2="446.0844986619438" stroke="rgb(184,0,61)" stroke-width="2"></line><line x1="365" y1="451.28065108465046" x2="368" y2="446.0844986619438" stroke="rgb(255,0,87)" stroke-width="2"></line><line x1="485" y1="420.10373654841067" x2="479" y2="420.10373654841067" stroke="rgb(255,0,179)" stroke-width="2"></line><line x1="467" y1="451.28065108465046" x2="464" y2="446.0844986619438" stroke="rgb(255,0,179)" stroke-width="2"></line><line x1="431" y1="451.28065108465046" x2="434" y2="446.0844986619438" stroke="rgb(129,0,43)" stroke-width="2"></line><line x1="56" y1="477.2614131981836" x2="50" y2="477.2614131981836" stroke="rgb(255,0,125)" stroke-width="2"></line><line x1="38" y1="508.4383277344234" x2="35" y2="503.2421753117168" stroke="#040" stroke-width="5" stroke-opacity="0.0"></line><line x1="2" y1="508.4383277344234" x2="5" y2="503.2421753117168" stroke="rgb(255,0,87)" stroke-width="2"></line><line x1="122" y1="477.2614131981836" x2="116" y2="477.2614131981836" stroke="rgb(255,0,87)" stroke-width="2"></line><line x1="104" y1="508.4383277344234" x2="101" y2="503.2421753117168" stroke="rgb(255,0,255)" stroke-width="2"></line><line x1="68" y1="508.4383277344234" x2="71" y2="503.2421753117168" stroke="rgb(255,0,125)" stroke-width="2"></line><line x1="188" y1="477.2614131981836" x2="182" y2="477.2614131981836" stroke="rgb(184,0,61)" stroke-width="2"></line><line x1="170" y1="508.4383277344234" x2="167" y2="503.2421753117168" stroke="rgb(184,0,61)" stroke-width="2"></line><line x1="134" y1="508.4383277344234" x2="137" y2="503.2421753117168" stroke="rgb(255,0,87)" stroke-width="2"></line><line x1="254" y1="477.2614131981836" x2="248" y2="477.2614131981836" stroke="rgb(255,0,87)" stroke-width="2"></line><line x1="236" y1="508.4383277344234" x2="233" y2="503.2421753117168" stroke="rgb(255,0,87)" stroke-width="2"></line><line x1="200" y1="508.4383277344234" x2="203" y2="503.2421753117168" stroke="rgb(184,0,61)" stroke-width="2"></line><line x1="320" y1="477.2614131981836" x2="314" y2="477.2614131981836" stroke="rgb(255,0,87)" stroke-width="2"></line><line x1="302" y1="508.4383277344234" x2="299" y2="503.2421753117168" stroke="rgb(255,0,87)" stroke-width="2"></line><line x1="266" y1="508.4383277344234" x2="269" y2="503.2421753117168" stroke="rgb(255,0,87)" stroke-width="2"></line><line x1="386" y1="477.2614131981836" x2="380" y2="477.2614131981836" stroke="rgb(184,0,61)" stroke-width="2"></line><line x1="368" y1="508.4383277344234" x2="365" y2="503.2421753117168" stroke="rgb(255,0,87)" stroke-width="2"></line><line x1="332" y1="508.4383277344234" x2="335" y2="503.2421753117168" stroke="rgb(255,0,87)" stroke-width="2"></line><line x1="452" y1="477.2614131981836" x2="446" y2="477.2614131981836" stroke="rgb(129,0,43)" stroke-width="2"></line><line x1="434" y1="508.4383277344234" x2="431" y2="503.2421753117168" stroke="rgb(129,0,43)" stroke-width="2"></line><line x1="398" y1="508.4383277344234" x2="401" y2="503.2421753117168" stroke="rgb(90,0,30)" stroke-width="2"></line><line x1="518" y1="477.2614131981836" x2="512" y2="477.2614131981836" stroke="rgb(90,0,30)" stroke-width="2"></line><line x1="500" y1="508.4383277344234" x2="497" y2="503.2421753117168" stroke="rgb(255,0,125)" stroke-width="2"></line><line x1="464" y1="508.4383277344234" x2="467" y2="503.2421753117168" stroke="#040" stroke-width="5" stroke-opacity="0.0"></line></svg>
