<svg viewBox="-4 15 523 503.63448015712993" xmlns="http://www.w3.org/2000/svg" version="1.1"><path d="
M 39 52.90896534380867 C
55.45448267190433 81.40896534380866
63.09103465619133 85.81793068761733
96 85.81793068761733
" stroke="rgb(25,152,102)" stroke-width="5" fill-opacity="0.0"></path><path d="
M 39 52.90896534380867 C
58 85.81793068761735
58 85.81793068761733
77 118.72689603142601
" stroke="rgb(25,106,102)" stroke-width="5" fill-opacity="0.0"></path><path d="
M 115 52.90896534380867 C
131.45448267190434 81.40896534380866
139.09103465619134 85.81793068761733
172 85.81793068761733
" stroke="rgb(25,74,102)" stroke-width="5" fill-opacity="0.0"></path><path d="
M 77 52.90896534380867 C
58 85.81793068761735
58 85.81793068761733
39 118.72689603142601
" stroke="rgb(25,36,102)" stroke-width="5" fill-opacity="0.0"></path><path d="
M 210 20 C
248 20
248 20
286 20
" stroke="rgb(25,52,102)" stroke-width="5" fill-opacity="0.0"></path><path d="
M 210 20 C
242.90896534380866 20
250.54551732809566 24.40896534380867
267 52.90896534380867
" stroke="rgb(25,74,102)" stroke-width="5" fill-opacity="0.0"></path><path d="
M 191 52.90896534380867 C
207.45448267190434 81.40896534380866
215.09103465619134 85.81793068761733
248 85.81793068761733
" stroke="rgb(25,74,102)" stroke-width="5" fill-opacity="0.0"></path><path d="
M 191 52.90896534380867 C
207.45448267190434 81.40896534380867
207.45448267190434 90.22689603142601
191 118.72689603142601
" stroke="rgb(25,106,102)" stroke-width="5" fill-opacity="0.0"></path><path d="
M 153 52.90896534380867 C
136.54551732809566 81.40896534380867
136.54551732809566 90.22689603142601
153 118.72689603142601
" stroke="rgb(25,217,102)" stroke-width="5" fill-opacity="0.0"></path><path d="
M 153 52.90896534380867 C
134 85.81793068761735
134 85.81793068761733
115 118.72689603142601
" stroke="rgb(25,152,102)" stroke-width="5" fill-opacity="0.0"></path><path d="
M 286 20 C
324 20
324 20
362 20
" stroke="rgb(25,52,102)" stroke-width="5" fill-opacity="0.0"></path><path d="
M 286 20 C
318.9089653438087 20
326.5455173280957 24.40896534380867
343 52.90896534380867
" stroke="rgb(25,36,102)" stroke-width="5" fill-opacity="0.0"></path><path d="
M 267 52.90896534380867 C
283.4544826719043 81.40896534380866
291.0910346561913 85.81793068761733
324 85.81793068761733
" stroke="rgb(25,74,102)" stroke-width="5" fill-opacity="0.0"></path><path d="
M 267 52.90896534380867 C
286 85.81793068761735
286 85.81793068761733
305 118.72689603142601
" stroke="rgb(25,74,102)" stroke-width="5" fill-opacity="0.0"></path><path d="
M 267 52.90896534380867 C
283.4544826719043 81.40896534380867
283.4544826719043 90.22689603142601
267 118.72689603142601
" stroke="rgb(25,106,102)" stroke-width="5" fill-opacity="0.0"></path><path d="
M 229 52.90896534380867 C
212.54551732809566 81.40896534380866
204.90896534380866 85.81793068761733
172 85.81793068761733
" stroke="rgb(25,87,102)" stroke-width="5" fill-opacity="0.0"></path><path d="
M 229 52.90896534380867 C
212.54551732809566 81.40896534380867
212.54551732809566 90.22689603142601
229 118.72689603142601
" stroke="rgb(25,87,102)" stroke-width="5" fill-opacity="0.0"></path><path d="
M 229 52.90896534380867 C
210 85.81793068761735
210 85.81793068761733
191 118.72689603142601
" stroke="rgb(25,106,102)" stroke-width="5" fill-opacity="0.0"></path><path d="
M 362 20 C
329.0910346561913 20
321.4544826719043 24.40896534380867
305 52.90896534380867
" stroke="rgb(25,74,102)" stroke-width="5" fill-opacity="0.0"></path><path d="
M 362 20 C
394.9089653438087 20
402.5455173280957 24.40896534380867
419 52.90896534380867
" stroke="rgb(25,74,102)" stroke-width="5" fill-opacity="0.0"></path><path d="
M 343 52.90896534380867 C
359.4544826719043 81.40896534380866
367.0910346561913 85.81793068761733
400 85.81793068761733
" stroke="rgb(25,36,102)" stroke-width="5" fill-opacity="0.0"></path><path d="
M 343 52.90896534380867 C
362 85.81793068761735
362 85.81793068761733
381 118.72689603142601
" stroke="rgb(25,36,102)" stroke-width="5" fill-opacity="0.0"></path><path d="
M 343 52.90896534380867 C
359.4544826719043 81.40896534380867
359.4544826719043 90.22689603142601
343 118.72689603142601
" stroke="rgb(25,25,102)" stroke-width="5" fill-opacity="0.0"></path><path d="
M 305 52.90896534380867 C
288.5455173280957 81.40896534380866
280.9089653438087 85.81793068761733
248 85.81793068761733
" stroke="rgb(25,74,102)" stroke-width="5" fill-opacity="0.0"></path><path d="
M 305 52.90896534380867 C
286 85.81793068761735
286 85.81793068761733
267 118.72689603142601
" stroke="rgb(25,106,102)" stroke-width="5" fill-opacity="0.0"></path><path d="
M 438 20 C
476 20
476 20
514 20
" stroke="rgb(25,0,102)" stroke-width="5" fill-opacity="0.0"></path><path d="
M 438 20 C
470.9089653438087 20
478.5455173280957 24.40896534380867
495 52.90896534380867
" stroke="rgb(25,0,102)" stroke-width="5" fill-opacity="0.0"></path><path d="
M 419 52.90896534380867 C
435.4544826719043 81.40896534380866
443.0910346561913 85.81793068761733
476 85.81793068761733
" stroke="rgb(25,74,102)" stroke-width="5" fill-opacity="0.0"></path><path d="
M 419 52.90896534380867 C
438 85.81793068761735
438 85.81793068761733
457 118.72689603142601
" stroke="rgb(25,106,102)" stroke-width="5" fill-opacity="0.0"></path><path d="
M 381 52.90896534380867 C
364.5455173280957 81.40896534380866
356.9089653438087 85.81793068761733
324 85.81793068761733
" stroke="rgb(25,52,102)" stroke-width="5" fill-opacity="0.0"></path><path d="
M 381 52.90896534380867 C
364.5455173280957 81.40896534380867
364.5455173280957 90.22689603142601
381 118.72689603142601
" stroke="rgb(25,43,102)" stroke-width="5" fill-opacity="0.0"></path><path d="
M 457 52.90896534380867 C
438 85.81793068761735
438 85.81793068761733
419 118.72689603142601
" stroke="rgb(25,36,102)" stroke-width="5" fill-opacity="0.0"></path><path d="
M 96 85.81793068761733 C
128.90896534380866 85.81793068761733
136.54551732809566 90.22689603142601
153 118.72689603142601
" stroke="rgb(25,217,102)" stroke-width="5" fill-opacity="0.0"></path><path d="
M 77 118.72689603142601 C
93.45448267190433 147.226896031426
101.09103465619134 151.63586137523467
134 151.63586137523467
" stroke="rgb(25,106,102)" stroke-width="5" fill-opacity="0.0"></path><path d="
M 77 118.72689603142601 C
93.45448267190433 147.226896031426
93.45448267190433 156.04482671904333
77 184.54482671904333
" stroke="rgb(25,87,102)" stroke-width="5" fill-opacity="0.0"></path><path d="
M 39 118.72689603142601 C
20.000000000000004 151.63586137523467
19.999999999999996 151.63586137523467
1 184.54482671904333
" stroke="rgb(25,52,102)" stroke-width="5" fill-opacity="0.0"></path><path d="
M 172 85.81793068761733 C
139.09103465619134 85.81793068761733
131.45448267190434 90.22689603142601
115 118.72689603142601
" stroke="rgb(25,106,102)" stroke-width="5" fill-opacity="0.0"></path><path d="
M 172 85.81793068761733 C
204.90896534380866 85.81793068761733
212.54551732809566 90.22689603142601
229 118.72689603142601
" stroke="rgb(25,87,102)" stroke-width="5" fill-opacity="0.0"></path><path d="
M 153 118.72689603142601 C
169.45448267190434 147.226896031426
177.09103465619134 151.63586137523467
210 151.63586137523467
" stroke="rgb(25,217,102)" stroke-width="5" fill-opacity="0.0"></path><path d="
M 153 118.72689603142601 C
172 151.63586137523467
172 151.63586137523467
191 184.54482671904333
" stroke="rgb(25,217,102)" stroke-width="5" fill-opacity="0.0"></path><path d="
M 153 118.72689603142601 C
169.45448267190432 147.226896031426
169.45448267190432 156.04482671904333
153 184.54482671904333
" stroke="rgb(25,217,102)" stroke-width="5" fill-opacity="0.0"></path><path d="
M 115 118.72689603142601 C
96 151.63586137523467
96 151.63586137523467
77 184.54482671904333
" stroke="rgb(25,106,102)" stroke-width="5" fill-opacity="0.0"></path><path d="
M 229 118.72689603142601 C
245.45448267190434 147.226896031426
253.09103465619134 151.63586137523467
286 151.63586137523467
" stroke="rgb(25,74,102)" stroke-width="5" fill-opacity="0.0"></path><path d="
M 229 118.72689603142601 C
245.45448267190432 147.226896031426
245.45448267190432 156.04482671904333
229 184.54482671904333
" stroke="rgb(25,106,102)" stroke-width="5" fill-opacity="0.0"></path><path d="
M 191 118.72689603142601 C
174.54551732809568 147.226896031426
174.54551732809568 156.04482671904333
191 184.54482671904333
" stroke="rgb(25,152,102)" stroke-width="5" fill-opacity="0.0"></path><path d="
M 191 118.72689603142601 C
172 151.63586137523467
172 151.63586137523467
153 184.54482671904333
" stroke="rgb(25,152,102)" stroke-width="5" fill-opacity="0.0"></path><path d="
M 324 85.81793068761733 C
362 85.81793068761733
362 85.81793068761733
400 85.81793068761733
" stroke="rgb(25,52,102)" stroke-width="5" fill-opacity="0.0"></path><path d="
M 324 85.81793068761733 C
356.9089653438087 85.81793068761733
364.5455173280957 90.22689603142601
381 118.72689603142601
" stroke="rgb(25,52,102)" stroke-width="5" fill-opacity="0.0"></path><path d="
M 305 118.72689603142601 C
321.4544826719043 147.226896031426
329.0910346561913 151.63586137523467
362 151.63586137523467
" stroke="rgb(25,61,102)" stroke-width="5" fill-opacity="0.0"></path><path d="
M 267 118.72689603142601 C
250.54551732809566 147.226896031426
242.90896534380866 151.63586137523467
210 151.63586137523467
" stroke="rgb(25,152,102)" stroke-width="5" fill-opacity="0.0"></path><path d="
M 400 85.81793068761733 C
438 85.81793068761733
438 85.81793068761733
476 85.81793068761733
" stroke="rgb(25,52,102)" stroke-width="5" fill-opacity="0.0"></path><path d="
M 476 85.81793068761733 C
443.0910346561913 85.81793068761733
435.4544826719043 90.22689603142601
419 118.72689603142601
" stroke="rgb(25,52,102)" stroke-width="5" fill-opacity="0.0"></path><path d="
M 457 118.72689603142601 C
473.4544826719043 147.226896031426
481.0910346561913 151.63586137523467
514 151.63586137523467
" stroke="rgb(25,125,102)" stroke-width="5" fill-opacity="0.0"></path><path d="
M 457 118.72689603142601 C
473.4544826719043 147.226896031426
473.4544826719043 156.04482671904333
457 184.54482671904333
" stroke="rgb(25,152,102)" stroke-width="5" fill-opacity="0.0"></path><path d="
M 419 118.72689603142601 C
402.5455173280957 147.226896031426
394.9089653438087 151.63586137523467
362 151.63586137523467
" stroke="rgb(25,52,102)" stroke-width="5" fill-opacity="0.0"></path><path d="
M 419 118.72689603142601 C
402.5455173280957 147.226896031426
402.5455173280957 156.04482671904333
419 184.54482671904333
" stroke="rgb(25,36,102)" stroke-width="5" fill-opacity="0.0"></path><path d="
M 58 151.63586137523467 C
25.091034656191333 151.63586137523467
17.454482671904334 156.04482671904333
1 184.54482671904333
" stroke="rgb(25,74,102)" stroke-width="5" fill-opacity="0.0"></path><path d="
M 58 151.63586137523467 C
96 151.63586137523467
96 151.63586137523467
134 151.63586137523467
" stroke="rgb(25,106,102)" stroke-width="5" fill-opacity="0.0"></path><path d="
M 39 184.54482671904333 C
58 217.45379206285202
58 217.45379206285202
77 250.36275740666068
" stroke="rgb(25,52,102)" stroke-width="5" fill-opacity="0.0"></path><path d="
M 134 151.63586137523467 C
101.09103465619134 151.63586137523467
93.45448267190433 156.04482671904333
77 184.54482671904333
" stroke="rgb(25,106,102)" stroke-width="5" fill-opacity="0.0"></path><path d="
M 134 151.63586137523467 C
172 151.63586137523467
172 151.63586137523467
210 151.63586137523467
" stroke="rgb(25,152,102)" stroke-width="5" fill-opacity="0.0"></path><path d="
M 115 184.54482671904333 C
134 217.45379206285202
134 217.45379206285202
153 250.36275740666068
" stroke="rgb(25,152,102)" stroke-width="5" fill-opacity="0.0"></path><path d="
M 77 184.54482671904333 C
60.54551732809566 213.04482671904333
60.54551732809566 221.86275740666068
77 250.36275740666068
" stroke="rgb(25,74,102)" stroke-width="5" fill-opacity="0.0"></path><path d="
M 191 184.54482671904333 C
210 217.45379206285202
210 217.45379206285202
229 250.36275740666068
" stroke="rgb(25,152,102)" stroke-width="5" fill-opacity="0.0"></path><path d="
M 191 184.54482671904333 C
207.45448267190434 213.04482671904333
207.45448267190434 221.86275740666068
191 250.36275740666068
" stroke="rgb(25,179,102)" stroke-width="5" fill-opacity="0.0"></path><path d="
M 153 184.54482671904333 C
136.54551732809566 213.04482671904333
128.9089653438087 217.45379206285202
96 217.45379206285202
" stroke="rgb(25,152,102)" stroke-width="5" fill-opacity="0.0"></path><path d="
M 153 184.54482671904333 C
136.54551732809566 213.04482671904333
136.54551732809566 221.86275740666068
153 250.36275740666068
" stroke="rgb(25,179,102)" stroke-width="5" fill-opacity="0.0"></path><path d="
M 153 184.54482671904333 C
134 217.45379206285202
134 217.45379206285202
115 250.36275740666068
" stroke="rgb(25,152,102)" stroke-width="5" fill-opacity="0.0"></path><path d="
M 286 151.63586137523467 C
324 151.63586137523467
324 151.63586137523467
362 151.63586137523467
" stroke="rgb(25,61,102)" stroke-width="5" fill-opacity="0.0"></path><path d="
M 267 184.54482671904333 C
283.4544826719043 213.04482671904333
291.0910346561913 217.45379206285202
324 217.45379206285202
" stroke="rgb(25,152,102)" stroke-width="5" fill-opacity="0.0"></path><path d="
M 267 184.54482671904333 C
286 217.45379206285202
286 217.45379206285202
305 250.36275740666068
" stroke="rgb(25,106,102)" stroke-width="5" fill-opacity="0.0"></path><path d="
M 267 184.54482671904333 C
283.4544826719043 213.04482671904333
283.4544826719043 221.86275740666068
267 250.36275740666068
" stroke="rgb(25,125,102)" stroke-width="5" fill-opacity="0.0"></path><path d="
M 229 184.54482671904333 C
210 217.45379206285202
210 217.45379206285202
191 250.36275740666068
" stroke="rgb(25,152,102)" stroke-width="5" fill-opacity="0.0"></path><path d="
M 362 151.63586137523467 C
400 151.63586137523467
400 151.63586137523467
438 151.63586137523467
" stroke="rgb(25,74,102)" stroke-width="5" fill-opacity="0.0"></path><path d="
M 343 184.54482671904333 C
359.4544826719043 213.04482671904333
367.0910346561913 217.45379206285202
400 217.45379206285202
" stroke="rgb(25,217,102)" stroke-width="5" fill-opacity="0.0"></path><path d="
M 343 184.54482671904333 C
359.4544826719043 213.04482671904333
359.4544826719043 221.86275740666068
343 250.36275740666068
" stroke="rgb(25,179,102)" stroke-width="5" fill-opacity="0.0"></path><path d="
M 305 184.54482671904333 C
288.5455173280957 213.04482671904333
280.9089653438087 217.45379206285202
248 217.45379206285202
" stroke="rgb(25,106,102)" stroke-width="5" fill-opacity="0.0"></path><path d="
M 305 184.54482671904333 C
288.5455173280957 213.04482671904333
288.5455173280957 221.86275740666068
305 250.36275740666068
" stroke="rgb(25,87,102)" stroke-width="5" fill-opacity="0.0"></path><path d="
M 305 184.54482671904333 C
286 217.45379206285202
286 217.45379206285202
267 250.36275740666068
" stroke="rgb(25,106,102)" stroke-width="5" fill-opacity="0.0"></path><path d="
M 438 151.63586137523467 C
476 151.63586137523467
476 151.63586137523467
514 151.63586137523467
" stroke="rgb(25,106,102)" stroke-width="5" fill-opacity="0.0"></path><path d="
M 438 151.63586137523467 C
470.9089653438087 151.63586137523467
478.5455173280957 156.04482671904333
495 184.54482671904333
" stroke="rgb(25,74,102)" stroke-width="5" fill-opacity="0.0"></path><path d="
M 381 184.54482671904333 C
364.5455173280957 213.04482671904333
356.9089653438087 217.45379206285202
324 217.45379206285202
" stroke="rgb(25,152,102)" stroke-width="5" fill-opacity="0.0"></path><path d="
M 381 184.54482671904333 C
364.5455173280957 213.04482671904333
364.5455173280957 221.86275740666068
381 250.36275740666068
" stroke="rgb(25,106,102)" stroke-width="5" fill-opacity="0.0"></path><path d="
M 381 184.54482671904333 C
362 217.45379206285202
362 217.45379206285202
343 250.36275740666068
" stroke="rgb(25,152,102)" stroke-width="5" fill-opacity="0.0"></path><path d="
M 514 151.63586137523467 C
481.0910346561913 151.63586137523467
473.4544826719043 156.04482671904333
457 184.54482671904333
" stroke="rgb(25,152,102)" stroke-width="5" fill-opacity="0.0"></path><path d="
M 457 184.54482671904333 C
438 217.45379206285202
438 217.45379206285202
419 250.36275740666068
" stroke="rgb(25,217,102)" stroke-width="5" fill-opacity="0.0"></path><path d="
M 96 217.45379206285202 C
63.09103465619133 217.45379206285202
55.45448267190433 221.86275740666068
39 250.36275740666068
" stroke="rgb(25,106,102)" stroke-width="5" fill-opacity="0.0"></path><path d="
M 172 217.45379206285202 C
210 217.45379206285202
210 217.45379206285202
248 217.45379206285202
" stroke="rgb(25,106,102)" stroke-width="5" fill-opacity="0.0"></path><path d="
M 153 250.36275740666068 C
172 283.27172275046934
172 283.27172275046934
191 316.180688094278
" stroke="rgb(25,152,102)" stroke-width="5" fill-opacity="0.0"></path><path d="
M 153 250.36275740666068 C
169.45448267190434 278.8627574066607
169.45448267190434 287.680688094278
153 316.180688094278
" stroke="rgb(25,217,102)" stroke-width="5" fill-opacity="0.0"></path><path d="
M 115 250.36275740666068 C
98.54551732809566 278.8627574066607
98.54551732809566 287.680688094278
115 316.180688094278
" stroke="rgb(25,125,102)" stroke-width="5" fill-opacity="0.0"></path><path d="
M 115 250.36275740666068 C
96 283.27172275046934
96 283.27172275046934
77 316.180688094278
" stroke="rgb(25,152,102)" stroke-width="5" fill-opacity="0.0"></path><path d="
M 248 217.45379206285202 C
215.09103465619134 217.45379206285202
207.45448267190434 221.86275740666068
191 250.36275740666068
" stroke="rgb(25,152,102)" stroke-width="5" fill-opacity="0.0"></path><path d="
M 248 217.45379206285202 C
280.9089653438087 217.45379206285202
288.5455173280957 221.86275740666068
305 250.36275740666068
" stroke="rgb(25,106,102)" stroke-width="5" fill-opacity="0.0"></path><path d="
M 229 250.36275740666068 C
245.45448267190434 278.86275740666065
253.09103465619134 283.27172275046934
286 283.27172275046934
" stroke="rgb(25,106,102)" stroke-width="5" fill-opacity="0.0"></path><path d="
M 229 250.36275740666068 C
245.45448267190434 278.8627574066607
245.45448267190434 287.680688094278
229 316.180688094278
" stroke="rgb(25,106,102)" stroke-width="5" fill-opacity="0.0"></path><path d="
M 191 250.36275740666068 C
174.54551732809566 278.86275740666065
166.90896534380866 283.27172275046934
134 283.27172275046934
" stroke="rgb(25,152,102)" stroke-width="5" fill-opacity="0.0"></path><path d="
M 191 250.36275740666068 C
172 283.27172275046934
172 283.27172275046934
153 316.180688094278
" stroke="rgb(25,217,102)" stroke-width="5" fill-opacity="0.0"></path><path d="
M 324 217.45379206285202 C
291.0910346561913 217.45379206285202
283.4544826719043 221.86275740666068
267 250.36275740666068
" stroke="rgb(25,152,102)" stroke-width="5" fill-opacity="0.0"></path><path d="
M 324 217.45379206285202 C
362 217.45379206285202
362 217.45379206285202
400 217.45379206285202
" stroke="rgb(25,217,102)" stroke-width="5" fill-opacity="0.0"></path><path d="
M 267 250.36275740666068 C
250.54551732809566 278.86275740666065
242.90896534380866 283.27172275046934
210 283.27172275046934
" stroke="rgb(25,106,102)" stroke-width="5" fill-opacity="0.0"></path><path d="
M 400 217.45379206285202 C
367.0910346561913 217.45379206285202
359.4544826719043 221.86275740666068
343 250.36275740666068
" stroke="rgb(25,217,102)" stroke-width="5" fill-opacity="0.0"></path><path d="
M 381 250.36275740666068 C
397.4544826719043 278.86275740666065
405.0910346561913 283.27172275046934
438 283.27172275046934
" stroke="rgb(25,74,102)" stroke-width="5" fill-opacity="0.0"></path><path d="
M 381 250.36275740666068 C
400 283.27172275046934
400 283.27172275046934
419 316.180688094278
" stroke="rgb(25,106,102)" stroke-width="5" fill-opacity="0.0"></path><path d="
M 381 250.36275740666068 C
397.4544826719043 278.8627574066607
397.4544826719043 287.680688094278
381 316.180688094278
" stroke="rgb(25,74,102)" stroke-width="5" fill-opacity="0.0"></path><path d="
M 343 250.36275740666068 C
326.5455173280957 278.8627574066607
326.5455173280957 287.680688094278
343 316.180688094278
" stroke="rgb(25,152,102)" stroke-width="5" fill-opacity="0.0"></path><path d="
M 343 250.36275740666068 C
324 283.27172275046934
324 283.27172275046934
305 316.180688094278
" stroke="rgb(25,152,102)" stroke-width="5" fill-opacity="0.0"></path><path d="
M 476 217.45379206285202 C
443.0910346561913 217.45379206285202
435.4544826719043 221.86275740666068
419 250.36275740666068
" stroke="rgb(25,217,102)" stroke-width="5" fill-opacity="0.0"></path><path d="
M 457 250.36275740666068 C
473.4544826719043 278.8627574066607
473.4544826719043 287.680688094278
457 316.180688094278
" stroke="rgb(25,0,102)" stroke-width="5" fill-opacity="0.0"></path><path d="
M 419 250.36275740666068 C
402.5455173280957 278.86275740666065
394.9089653438087 283.27172275046934
362 283.27172275046934
" stroke="rgb(25,217,102)" stroke-width="5" fill-opacity="0.0"></path><path d="
M 58 283.27172275046934 C
25.091034656191326 283.27172275046934
17.454482671904337 287.680688094278
1 316.180688094278
" stroke="rgb(25,0,102)" stroke-width="5" fill-opacity="0.0"></path><path d="
M 39 316.180688094278 C
58 349.08965343808666
58 349.08965343808666
77 381.99861878189535
" stroke="rgb(25,179,102)" stroke-width="5" fill-opacity="0.0"></path><path d="
M 39 316.180688094278 C
55.45448267190433 344.680688094278
55.45448267190433 353.49861878189535
39 381.99861878189535
" stroke="rgb(25,217,102)" stroke-width="5" fill-opacity="0.0"></path><path d="
M 134 283.27172275046934 C
101.09103465619133 283.27172275046934
93.45448267190434 287.680688094278
77 316.180688094278
" stroke="rgb(25,152,102)" stroke-width="5" fill-opacity="0.0"></path><path d="
M 134 283.27172275046934 C
172 283.27172275046934
172 283.27172275046934
210 283.27172275046934
" stroke="rgb(25,106,102)" stroke-width="5" fill-opacity="0.0"></path><path d="
M 134 283.27172275046934 C
166.9089653438087 283.27172275046934
174.54551732809566 287.680688094278
191 316.180688094278
" stroke="rgb(25,125,102)" stroke-width="5" fill-opacity="0.0"></path><path d="
M 115 316.180688094278 C
131.45448267190432 344.680688094278
139.09103465619134 349.08965343808666
172 349.08965343808666
" stroke="rgb(25,125,102)" stroke-width="5" fill-opacity="0.0"></path><path d="
M 115 316.180688094278 C
134 349.08965343808666
134 349.08965343808666
153 381.99861878189535
" stroke="rgb(25,106,102)" stroke-width="5" fill-opacity="0.0"></path><path d="
M 115 316.180688094278 C
131.45448267190432 344.680688094278
131.45448267190432 353.49861878189535
115 381.99861878189535
" stroke="rgb(25,152,102)" stroke-width="5" fill-opacity="0.0"></path><path d="
M 77 316.180688094278 C
60.54551732809567 344.680688094278
60.54551732809567 353.49861878189535
77 381.99861878189535
" stroke="rgb(25,179,102)" stroke-width="5" fill-opacity="0.0"></path><path d="
M 77 316.180688094278 C
58 349.08965343808666
58 349.08965343808666
39 381.99861878189535
" stroke="rgb(25,217,102)" stroke-width="5" fill-opacity="0.0"></path><path d="
M 210 283.27172275046934 C
242.9089653438087 283.27172275046934
250.54551732809566 287.680688094278
267 316.180688094278
" stroke="rgb(25,74,102)" stroke-width="5" fill-opacity="0.0"></path><path d="
M 191 316.180688094278 C
210 349.08965343808666
210 349.08965343808666
229 381.99861878189535
" stroke="rgb(25,106,102)" stroke-width="5" fill-opacity="0.0"></path><path d="
M 286 283.27172275046934 C
318.9089653438087 283.27172275046934
326.5455173280957 287.680688094278
343 316.180688094278
" stroke="rgb(25,106,102)" stroke-width="5" fill-opacity="0.0"></path><path d="
M 267 316.180688094278 C
283.4544826719043 344.680688094278
283.4544826719043 353.49861878189535
267 381.99861878189535
" stroke="rgb(25,74,102)" stroke-width="5" fill-opacity="0.0"></path><path d="
M 362 283.27172275046934 C
394.9089653438087 283.27172275046934
402.5455173280957 287.680688094278
419 316.180688094278
" stroke="rgb(25,152,102)" stroke-width="5" fill-opacity="0.0"></path><path d="
M 343 316.180688094278 C
359.4544826719043 344.680688094278
359.4544826719043 353.49861878189535
343 381.99861878189535
" stroke="rgb(25,106,102)" stroke-width="5" fill-opacity="0.0"></path><path d="
M 305 316.180688094278 C
288.5455173280957 344.680688094278
280.90896534380863 349.08965343808666
248 349.08965343808666
" stroke="rgb(25,106,102)" stroke-width="5" fill-opacity="0.0"></path><path d="
M 305 316.180688094278 C
288.5455173280957 344.680688094278
288.5455173280957 353.49861878189535
305 381.99861878189535
" stroke="rgb(25,106,102)" stroke-width="5" fill-opacity="0.0"></path><path d="
M 305 316.180688094278 C
286 349.08965343808666
286 349.08965343808666
267 381.99861878189535
" stroke="rgb(25,106,102)" stroke-width="5" fill-opacity="0.0"></path><path d="
M 438 283.27172275046934 C
476 283.27172275046934
476 283.27172275046934
514 283.27172275046934
" stroke="rgb(25,52,102)" stroke-width="5" fill-opacity="0.0"></path><path d="
M 438 283.27172275046934 C
470.9089653438087 283.27172275046934
478.5455173280957 287.680688094278
495 316.180688094278
" stroke="rgb(25,52,102)" stroke-width="5" fill-opacity="0.0"></path><path d="
M 419 316.180688094278 C
438 349.08965343808666
438 349.08965343808666
457 381.99861878189535
" stroke="rgb(25,106,102)" stroke-width="5" fill-opacity="0.0"></path><path d="
M 419 316.180688094278 C
435.4544826719043 344.680688094278
435.4544826719043 353.49861878189535
419 381.99861878189535
" stroke="rgb(25,106,102)" stroke-width="5" fill-opacity="0.0"></path><path d="
M 381 316.180688094278 C
364.5455173280957 344.680688094278
356.90896534380863 349.08965343808666
324 349.08965343808666
" stroke="rgb(25,52,102)" stroke-width="5" fill-opacity="0.0"></path><path d="
M 381 316.180688094278 C
362 349.08965343808666
362 349.08965343808666
343 381.99861878189535
" stroke="rgb(25,74,102)" stroke-width="5" fill-opacity="0.0"></path><path d="
M 96 349.08965343808666 C
63.091034656191326 349.08965343808666
55.45448267190434 353.49861878189535
39 381.99861878189535
" stroke="rgb(25,217,102)" stroke-width="5" fill-opacity="0.0"></path><path d="
M 96 349.08965343808666 C
134 349.08965343808666
134 349.08965343808666
172 349.08965343808666
" stroke="rgb(25,152,102)" stroke-width="5" fill-opacity="0.0"></path><path d="
M 77 381.99861878189535 C
96 414.90758412570403
96 414.90758412570403
115 447.81654946951267
" stroke="rgb(25,217,102)" stroke-width="5" fill-opacity="0.0"></path><path d="
M 39 381.99861878189535 C
20.000000000000004 414.90758412570403
19.999999999999996 414.90758412570403
1 447.81654946951267
" stroke="rgb(25,217,102)" stroke-width="5" fill-opacity="0.0"></path><path d="
M 172 349.08965343808666 C
139.0910346561913 349.08965343808666
131.45448267190434 353.49861878189535
115 381.99861878189535
" stroke="rgb(25,152,102)" stroke-width="5" fill-opacity="0.0"></path><path d="
M 172 349.08965343808666 C
204.9089653438087 349.08965343808666
212.54551732809566 353.49861878189535
229 381.99861878189535
" stroke="rgb(25,106,102)" stroke-width="5" fill-opacity="0.0"></path><path d="
M 153 381.99861878189535 C
169.45448267190432 410.49861878189535
169.45448267190432 419.31654946951267
153 447.81654946951267
" stroke="rgb(25,87,102)" stroke-width="5" fill-opacity="0.0"></path><path d="
M 115 381.99861878189535 C
98.54551732809567 410.49861878189535
98.54551732809567 419.31654946951267
115 447.81654946951267
" stroke="rgb(25,217,102)" stroke-width="5" fill-opacity="0.0"></path><path d="
M 229 381.99861878189535 C
245.45448267190432 410.49861878189535
253.09103465619134 414.907584125704
286 414.907584125704
" stroke="rgb(25,74,102)" stroke-width="5" fill-opacity="0.0"></path><path d="
M 229 381.99861878189535 C
248 414.90758412570403
248 414.90758412570403
267 447.81654946951267
" stroke="rgb(25,74,102)" stroke-width="5" fill-opacity="0.0"></path><path d="
M 191 381.99861878189535 C
174.54551732809568 410.49861878189535
166.90896534380866 414.907584125704
134 414.907584125704
" stroke="rgb(25,106,102)" stroke-width="5" fill-opacity="0.0"></path><path d="
M 191 381.99861878189535 C
172 414.90758412570403
172 414.90758412570403
153 447.81654946951267
" stroke="rgb(25,87,102)" stroke-width="5" fill-opacity="0.0"></path><path d="
M 324 349.08965343808666 C
362 349.08965343808666
362 349.08965343808666
400 349.08965343808666
" stroke="rgb(25,52,102)" stroke-width="5" fill-opacity="0.0"></path><path d="
M 305 381.99861878189535 C
321.4544826719043 410.49861878189535
329.09103465619137 414.907584125704
362 414.907584125704
" stroke="rgb(25,74,102)" stroke-width="5" fill-opacity="0.0"></path><path d="
M 305 381.99861878189535 C
324 414.90758412570403
324 414.90758412570403
343 447.81654946951267
" stroke="rgb(25,74,102)" stroke-width="5" fill-opacity="0.0"></path><path d="
M 267 381.99861878189535 C
250.54551732809568 410.49861878189535
242.90896534380866 414.907584125704
210 414.907584125704
" stroke="rgb(25,74,102)" stroke-width="5" fill-opacity="0.0"></path><path d="
M 267 381.99861878189535 C
250.54551732809568 410.49861878189535
250.54551732809568 419.31654946951267
267 447.81654946951267
" stroke="rgb(25,74,102)" stroke-width="5" fill-opacity="0.0"></path><path d="
M 267 381.99861878189535 C
248 414.90758412570403
248 414.90758412570403
229 447.81654946951267
" stroke="rgb(25,106,102)" stroke-width="5" fill-opacity="0.0"></path><path d="
M 400 349.08965343808666 C
432.9089653438087 349.08965343808666
440.5455173280957 353.49861878189535
457 381.99861878189535
" stroke="rgb(25,74,102)" stroke-width="5" fill-opacity="0.0"></path><path d="
M 381 381.99861878189535 C
397.4544826719043 410.49861878189535
405.09103465619137 414.907584125704
438 414.907584125704
" stroke="rgb(25,36,102)" stroke-width="5" fill-opacity="0.0"></path><path d="
M 343 381.99861878189535 C
326.5455173280957 410.49861878189535
326.5455173280957 419.31654946951267
343 447.81654946951267
" stroke="rgb(25,74,102)" stroke-width="5" fill-opacity="0.0"></path><path d="
M 343 381.99861878189535 C
324 414.90758412570403
324 414.90758412570403
305 447.81654946951267
" stroke="rgb(25,74,102)" stroke-width="5" fill-opacity="0.0"></path><path d="
M 457 381.99861878189535 C
473.4544826719043 410.49861878189535
473.4544826719043 419.31654946951267
457 447.81654946951267
" stroke="rgb(25,74,102)" stroke-width="5" fill-opacity="0.0"></path><path d="
M 419 381.99861878189535 C
402.5455173280957 410.49861878189535
394.90896534380863 414.907584125704
362 414.907584125704
" stroke="rgb(25,74,102)" stroke-width="5" fill-opacity="0.0"></path><path d="
M 419 381.99861878189535 C
402.5455173280957 410.49861878189535
402.5455173280957 419.31654946951267
419 447.81654946951267
" stroke="rgb(25,74,102)" stroke-width="5" fill-opacity="0.0"></path><path d="
M 58 414.907584125704 C
96 414.907584125704
96 414.907584125704
134 414.907584125704
" stroke="rgb(25,152,102)" stroke-width="5" fill-opacity="0.0"></path><path d="
M 58 414.907584125704 C
90.90896534380867 414.907584125704
98.54551732809566 419.31654946951267
115 447.81654946951267
" stroke="rgb(25,217,102)" stroke-width="5" fill-opacity="0.0"></path><path d="
M 39 447.81654946951267 C
55.45448267190433 476.31654946951267
63.09103465619134 480.7255148133213
96 480.7255148133213
" stroke="rgb(25,106,102)" stroke-width="5" fill-opacity="0.0"></path><path d="
M 39 447.81654946951267 C
57.999999999999986 480.7255148133213
58.000000000000014 480.7255148133213
77 513.6344801571299
" stroke="rgb(25,74,102)" stroke-width="5" fill-opacity="0.0"></path><path d="
M 39 447.81654946951267 C
55.454482671904316 476.3165494695126
55.454482671904316 485.13448015713
39 513.6344801571299
" stroke="rgb(25,74,102)" stroke-width="5" fill-opacity="0.0"></path><path d="
M 134 414.907584125704 C
101.09103465619133 414.907584125704
93.45448267190434 419.31654946951267
77 447.81654946951267
" stroke="rgb(25,106,102)" stroke-width="5" fill-opacity="0.0"></path><path d="
M 134 414.907584125704 C
166.9089653438087 414.907584125704
174.54551732809566 419.31654946951267
191 447.81654946951267
" stroke="rgb(25,106,102)" stroke-width="5" fill-opacity="0.0"></path><path d="
M 115 447.81654946951267 C
131.45448267190432 476.31654946951267
139.09103465619134 480.7255148133213
172 480.7255148133213
" stroke="rgb(25,217,102)" stroke-width="5" fill-opacity="0.0"></path><path d="
M 77 447.81654946951267 C
58.000000000000014 480.7255148133213
57.999999999999986 480.7255148133213
39 513.6344801571299
" stroke="rgb(25,74,102)" stroke-width="5" fill-opacity="0.0"></path><path d="
M 210 414.907584125704 C
177.0910346561913 414.907584125704
169.45448267190434 419.31654946951267
153 447.81654946951267
" stroke="rgb(25,74,102)" stroke-width="5" fill-opacity="0.0"></path><path d="
M 191 447.81654946951267 C
207.45448267190432 476.3165494695126
207.45448267190432 485.13448015713
191 513.6344801571299
" stroke="rgb(25,87,102)" stroke-width="5" fill-opacity="0.0"></path><path d="
M 153 447.81654946951267 C
136.54551732809568 476.31654946951267
128.90896534380866 480.7255148133213
96 480.7255148133213
" stroke="rgb(25,106,102)" stroke-width="5" fill-opacity="0.0"></path><path d="
M 153 447.81654946951267 C
136.54551732809568 476.3165494695126
136.54551732809568 485.13448015713
153 513.6344801571299
" stroke="rgb(25,87,102)" stroke-width="5" fill-opacity="0.0"></path><path d="
M 267 447.81654946951267 C
283.4544826719043 476.31654946951267
291.09103465619137 480.7255148133213
324 480.7255148133213
" stroke="rgb(25,52,102)" stroke-width="5" fill-opacity="0.0"></path><path d="
M 229 447.81654946951267 C
212.54551732809568 476.31654946951267
204.90896534380866 480.7255148133213
172 480.7255148133213
" stroke="rgb(25,152,102)" stroke-width="5" fill-opacity="0.0"></path><path d="
M 229 447.81654946951267 C
212.54551732809568 476.3165494695126
212.54551732809568 485.13448015713
229 513.6344801571299
" stroke="rgb(25,125,102)" stroke-width="5" fill-opacity="0.0"></path><path d="
M 229 447.81654946951267 C
210.00000000000003 480.7255148133213
209.99999999999997 480.7255148133213
191 513.6344801571299
" stroke="rgb(25,106,102)" stroke-width="5" fill-opacity="0.0"></path><path d="
M 362 414.907584125704 C
400 414.907584125704
400 414.907584125704
438 414.907584125704
" stroke="rgb(25,52,102)" stroke-width="5" fill-opacity="0.0"></path><path d="
M 362 414.907584125704 C
394.9089653438087 414.907584125704
402.5455173280957 419.31654946951267
419 447.81654946951267
" stroke="rgb(25,61,102)" stroke-width="5" fill-opacity="0.0"></path><path d="
M 438 414.907584125704 C
476 414.907584125704
476 414.907584125704
514 414.907584125704
" stroke="rgb(25,36,102)" stroke-width="5" fill-opacity="0.0"></path><path d="
M 419 447.81654946951267 C
435.4544826719043 476.31654946951267
443.09103465619137 480.7255148133213
476 480.7255148133213
" stroke="rgb(25,52,102)" stroke-width="5" fill-opacity="0.0"></path><path d="
M 419 447.81654946951267 C
435.4544826719043 476.3165494695126
435.4544826719043 485.13448015713
419 513.6344801571299
" stroke="rgb(25,52,102)" stroke-width="5" fill-opacity="0.0"></path><path d="
M 381 447.81654946951267 C
364.5455173280957 476.31654946951267
356.90896534380863 480.7255148133213
324 480.7255148133213
" stroke="rgb(25,36,102)" stroke-width="5" fill-opacity="0.0"></path><path d="
M 381 447.81654946951267 C
364.5455173280957 476.3165494695126
364.5455173280957 485.13448015713
381 513.6344801571299
" stroke="rgb(25,25,102)" stroke-width="5" fill-opacity="0.0"></path><path d="
M 457 447.81654946951267 C
440.5455173280957 476.3165494695126
440.5455173280957 485.13448015713
457 513.6344801571299
" stroke="rgb(25,52,102)" stroke-width="5" fill-opacity="0.0"></path><path d="
M 457 447.81654946951267 C
438 480.7255148133213
438 480.7255148133213
419 513.6344801571299
" stroke="rgb(25,52,102)" stroke-width="5" fill-opacity="0.0"></path><path d="
M 96 480.7255148133213 C
134 480.7255148133213
134 480.7255148133213
172 480.7255148133213
" stroke="rgb(25,152,102)" stroke-width="5" fill-opacity="0.0"></path><path d="
M 96 480.7255148133213 C
128.90896534380866 480.7255148133213
136.54551732809568 485.13448015712993
153 513.6344801571299
" stroke="rgb(25,106,102)" stroke-width="5" fill-opacity="0.0"></path><path d="
M 172 480.7255148133213 C
139.09103465619134 480.7255148133213
131.45448267190432 485.13448015712993
115 513.6344801571299
" stroke="rgb(25,152,102)" stroke-width="5" fill-opacity="0.0"></path><path d="
M 172 480.7255148133213 C
210 480.7255148133213
210 480.7255148133213
248 480.7255148133213
" stroke="rgb(25,152,102)" stroke-width="5" fill-opacity="0.0"></path><path d="
M 172 480.7255148133213 C
204.90896534380866 480.7255148133213
212.54551732809568 485.13448015712993
229 513.6344801571299
" stroke="rgb(25,152,102)" stroke-width="5" fill-opacity="0.0"></path><path d="
M 248 480.7255148133213 C
215.09103465619134 480.7255148133213
207.45448267190432 485.13448015712993
191 513.6344801571299
" stroke="rgb(25,106,102)" stroke-width="5" fill-opacity="0.0"></path><path d="
M 400 480.7255148133213 C
432.90896534380863 480.7255148133213
440.5455173280957 485.13448015712993
457 513.6344801571299
" stroke="rgb(25,36,102)" stroke-width="5" fill-opacity="0.0"></path><line x1="61" y1="20" x2="55" y2="20" stroke="#040" stroke-width="5" stroke-opacity="0.0"></line><line x1="40.5" y1="55.50704155516198" x2="37.5" y2="50.31088913245535" stroke="rgb(255,0,125)" stroke-width="2"></line><line x1="-0.5" y1="55.50704155516198" x2="2.5" y2="50.31088913245535" stroke="#040" stroke-width="5" stroke-opacity="0.0"></line><line x1="137" y1="20" x2="131" y2="20" stroke="#040" stroke-width="5" stroke-opacity="0.0"></line><line x1="116.5" y1="55.50704155516198" x2="113.5" y2="50.31088913245535" stroke="rgb(184,0,61)" stroke-width="2"></line><line x1="75.5" y1="55.50704155516198" x2="78.5" y2="50.31088913245535" stroke="rgb(90,0,30)" stroke-width="2"></line><line x1="213" y1="20" x2="207" y2="20" stroke="rgb(184,0,61)" stroke-width="2"></line><line x1="192.5" y1="55.50704155516198" x2="189.5" y2="50.31088913245535" stroke="rgb(255,0,87)" stroke-width="2"></line><line x1="151.5" y1="55.50704155516198" x2="154.5" y2="50.31088913245535" stroke="rgb(255,0,179)" stroke-width="2"></line><line x1="289" y1="20" x2="283" y2="20" stroke="rgb(129,0,43)" stroke-width="2"></line><line x1="268.5" y1="55.50704155516198" x2="265.5" y2="50.31088913245535" stroke="rgb(255,0,87)" stroke-width="2"></line><line x1="227.5" y1="55.50704155516198" x2="230.5" y2="50.31088913245535" stroke="rgb(255,0,87)" stroke-width="2"></line><line x1="365" y1="20" x2="359" y2="20" stroke="rgb(184,0,61)" stroke-width="2"></line><line x1="344.5" y1="55.50704155516198" x2="341.5" y2="50.31088913245535" stroke="rgb(90,0,30)" stroke-width="2"></line><line x1="303.5" y1="55.50704155516198" x2="306.5" y2="50.31088913245535" stroke="rgb(255,0,87)" stroke-width="2"></line><line x1="441" y1="20" x2="435" y2="20" stroke="rgb(0,0,0)" stroke-width="2"></line><line x1="420.5" y1="55.50704155516198" x2="417.5" y2="50.31088913245535" stroke="rgb(255,0,87)" stroke-width="2"></line><line x1="379.5" y1="55.50704155516198" x2="382.5" y2="50.31088913245535" stroke="rgb(129,0,43)" stroke-width="2"></line><line x1="517" y1="20" x2="511" y2="20" stroke="rgb(0,0,0)" stroke-width="2"></line><line x1="496.5" y1="55.50704155516198" x2="493.5" y2="50.31088913245535" stroke="rgb(0,0,0)" stroke-width="2"></line><line x1="455.5" y1="55.50704155516198" x2="458.5" y2="50.31088913245535" stroke="rgb(90,0,30)" stroke-width="2"></line><line x1="99" y1="85.81793068761733" x2="93" y2="85.81793068761733" stroke="rgb(255,0,179)" stroke-width="2"></line><line x1="78.5" y1="121.32497224277932" x2="75.5" y2="116.12881982007269" stroke="rgb(255,0,87)" stroke-width="2"></line><line x1="37.5" y1="121.32497224277932" x2="40.5" y2="116.12881982007269" stroke="rgb(129,0,43)" stroke-width="2"></line><line x1="175" y1="85.81793068761733" x2="169" y2="85.81793068761733" stroke="rgb(255,0,87)" stroke-width="2"></line><line x1="154.5" y1="121.32497224277932" x2="151.5" y2="116.12881982007269" stroke="rgb(255,0,255)" stroke-width="2"></line><line x1="113.5" y1="121.32497224277932" x2="116.5" y2="116.12881982007269" stroke="rgb(255,0,125)" stroke-width="2"></line><line x1="251" y1="85.81793068761733" x2="245" y2="85.81793068761733" stroke="rgb(184,0,61)" stroke-width="2"></line><line x1="230.5" y1="121.32497224277932" x2="227.5" y2="116.12881982007269" stroke="rgb(255,0,87)" stroke-width="2"></line><line x1="189.5" y1="121.32497224277932" x2="192.5" y2="116.12881982007269" stroke="rgb(255,0,125)" stroke-width="2"></line><line x1="327" y1="85.81793068761733" x2="321" y2="85.81793068761733" stroke="rgb(184,0,61)" stroke-width="2"></line><line x1="306.5" y1="121.32497224277932" x2="303.5" y2="116.12881982007269" stroke="rgb(184,0,61)" stroke-width="2"></line><line x1="265.5" y1="121.32497224277932" x2="268.5" y2="116.12881982007269" stroke="rgb(255,0,125)" stroke-width="2"></line><line x1="403" y1="85.81793068761733" x2="397" y2="85.81793068761733" stroke="rgb(129,0,43)" stroke-width="2"></line><line x1="382.5" y1="121.32497224277932" x2="379.5" y2="116.12881982007269" stroke="rgb(129,0,43)" stroke-width="2"></line><line x1="341.5" y1="121.32497224277932" x2="344.5" y2="116.12881982007269" stroke="rgb(63,0,21)" stroke-width="2"></line><line x1="479" y1="85.81793068761733" x2="473" y2="85.81793068761733" stroke="rgb(184,0,61)" stroke-width="2"></line><line x1="458.5" y1="121.32497224277932" x2="455.5" y2="116.12881982007269" stroke="rgb(255,0,125)" stroke-width="2"></line><line x1="417.5" y1="121.32497224277932" x2="420.5" y2="116.12881982007269" stroke="rgb(129,0,43)" stroke-width="2"></line><line x1="61" y1="151.63586137523467" x2="55" y2="151.63586137523467" stroke="rgb(255,0,87)" stroke-width="2"></line><line x1="40.5" y1="187.14290293039664" x2="37.5" y2="181.94675050769" stroke="rgb(129,0,43)" stroke-width="2"></line><line x1="-0.5" y1="187.14290293039664" x2="2.5" y2="181.94675050769" stroke="rgb(184,0,61)" stroke-width="2"></line><line x1="137" y1="151.63586137523467" x2="131" y2="151.63586137523467" stroke="rgb(255,0,125)" stroke-width="2"></line><line x1="116.5" y1="187.14290293039664" x2="113.5" y2="181.94675050769" stroke="rgb(255,0,125)" stroke-width="2"></line><line x1="75.5" y1="187.14290293039664" x2="78.5" y2="181.94675050769" stroke="rgb(255,0,87)" stroke-width="2"></line><line x1="213" y1="151.63586137523467" x2="207" y2="151.63586137523467" stroke="rgb(255,0,179)" stroke-width="2"></line><line x1="192.5" y1="187.14290293039664" x2="189.5" y2="181.94675050769" stroke="rgb(255,0,179)" stroke-width="2"></line><line x1="151.5" y1="187.14290293039664" x2="154.5" y2="181.94675050769" stroke="rgb(255,0,179)" stroke-width="2"></line><line x1="289" y1="151.63586137523467" x2="283" y2="151.63586137523467" stroke="rgb(184,0,61)" stroke-width="2"></line><line x1="268.5" y1="187.14290293039664" x2="265.5" y2="181.94675050769" stroke="rgb(255,0,125)" stroke-width="2"></line><line x1="227.5" y1="187.14290293039664" x2="230.5" y2="181.94675050769" stroke="rgb(255,0,125)" stroke-width="2"></line><line x1="365" y1="151.63586137523467" x2="359" y2="151.63586137523467" stroke="rgb(184,0,61)" stroke-width="2"></line><line x1="344.5" y1="187.14290293039664" x2="341.5" y2="181.94675050769" stroke="rgb(255,0,179)" stroke-width="2"></line><line x1="303.5" y1="187.14290293039664" x2="306.5" y2="181.94675050769" stroke="rgb(255,0,87)" stroke-width="2"></line><line x1="441" y1="151.63586137523467" x2="435" y2="151.63586137523467" stroke="rgb(255,0,87)" stroke-width="2"></line><line x1="420.5" y1="187.14290293039664" x2="417.5" y2="181.94675050769" stroke="rgb(90,0,30)" stroke-width="2"></line><line x1="379.5" y1="187.14290293039664" x2="382.5" y2="181.94675050769" stroke="rgb(255,0,125)" stroke-width="2"></line><line x1="517" y1="151.63586137523467" x2="511" y2="151.63586137523467" stroke="rgb(255,0,125)" stroke-width="2"></line><line x1="496.5" y1="187.14290293039664" x2="493.5" y2="181.94675050769" stroke="rgb(184,0,61)" stroke-width="2"></line><line x1="455.5" y1="187.14290293039664" x2="458.5" y2="181.94675050769" stroke="rgb(255,0,179)" stroke-width="2"></line><line x1="99" y1="217.45379206285202" x2="93" y2="217.45379206285202" stroke="rgb(255,0,125)" stroke-width="2"></line><line x1="78.5" y1="252.960833618014" x2="75.5" y2="247.76468119530736" stroke="rgb(184,0,61)" stroke-width="2"></line><line x1="37.5" y1="252.960833618014" x2="40.5" y2="247.76468119530736" stroke="rgb(255,0,87)" stroke-width="2"></line><line x1="175" y1="217.45379206285202" x2="169" y2="217.45379206285202" stroke="rgb(255,0,87)" stroke-width="2"></line><line x1="154.5" y1="252.960833618014" x2="151.5" y2="247.76468119530736" stroke="rgb(255,0,179)" stroke-width="2"></line><line x1="113.5" y1="252.960833618014" x2="116.5" y2="247.76468119530736" stroke="rgb(255,0,125)" stroke-width="2"></line><line x1="251" y1="217.45379206285202" x2="245" y2="217.45379206285202" stroke="rgb(255,0,125)" stroke-width="2"></line><line x1="230.5" y1="252.960833618014" x2="227.5" y2="247.76468119530736" stroke="rgb(255,0,125)" stroke-width="2"></line><line x1="189.5" y1="252.960833618014" x2="192.5" y2="247.76468119530736" stroke="rgb(255,0,179)" stroke-width="2"></line><line x1="327" y1="217.45379206285202" x2="321" y2="217.45379206285202" stroke="rgb(255,0,179)" stroke-width="2"></line><line x1="306.5" y1="252.960833618014" x2="303.5" y2="247.76468119530736" stroke="rgb(255,0,87)" stroke-width="2"></line><line x1="265.5" y1="252.960833618014" x2="268.5" y2="247.76468119530736" stroke="rgb(255,0,125)" stroke-width="2"></line><line x1="403" y1="217.45379206285202" x2="397" y2="217.45379206285202" stroke="rgb(255,0,255)" stroke-width="2"></line><line x1="382.5" y1="252.960833618014" x2="379.5" y2="247.76468119530736" stroke="rgb(255,0,87)" stroke-width="2"></line><line x1="341.5" y1="252.960833618014" x2="344.5" y2="247.76468119530736" stroke="rgb(255,0,179)" stroke-width="2"></line><line x1="479" y1="217.45379206285202" x2="473" y2="217.45379206285202" stroke="rgb(255,0,179)" stroke-width="2"></line><line x1="458.5" y1="252.960833618014" x2="455.5" y2="247.76468119530736" stroke="rgb(0,0,0)" stroke-width="2"></line><line x1="417.5" y1="252.960833618014" x2="420.5" y2="247.76468119530736" stroke="rgb(255,0,255)" stroke-width="2"></line><line x1="61" y1="283.27172275046934" x2="55" y2="283.27172275046934" stroke="rgb(0,0,0)" stroke-width="2"></line><line x1="40.5" y1="318.77876430563134" x2="37.5" y2="313.5826118829247" stroke="rgb(255,0,179)" stroke-width="2"></line><line x1="-0.5" y1="318.77876430563134" x2="2.5" y2="313.5826118829247" stroke="rgb(0,0,0)" stroke-width="2"></line><line x1="137" y1="283.27172275046934" x2="131" y2="283.27172275046934" stroke="rgb(255,0,125)" stroke-width="2"></line><line x1="116.5" y1="318.77876430563134" x2="113.5" y2="313.5826118829247" stroke="rgb(255,0,125)" stroke-width="2"></line><line x1="75.5" y1="318.77876430563134" x2="78.5" y2="313.5826118829247" stroke="rgb(255,0,179)" stroke-width="2"></line><line x1="213" y1="283.27172275046934" x2="207" y2="283.27172275046934" stroke="rgb(255,0,87)" stroke-width="2"></line><line x1="192.5" y1="318.77876430563134" x2="189.5" y2="313.5826118829247" stroke="rgb(255,0,125)" stroke-width="2"></line><line x1="151.5" y1="318.77876430563134" x2="154.5" y2="313.5826118829247" stroke="rgb(255,0,255)" stroke-width="2"></line><line x1="289" y1="283.27172275046934" x2="283" y2="283.27172275046934" stroke="rgb(255,0,87)" stroke-width="2"></line><line x1="268.5" y1="318.77876430563134" x2="265.5" y2="313.5826118829247" stroke="rgb(184,0,61)" stroke-width="2"></line><line x1="227.5" y1="318.77876430563134" x2="230.5" y2="313.5826118829247" stroke="rgb(255,0,87)" stroke-width="2"></line><line x1="365" y1="283.27172275046934" x2="359" y2="283.27172275046934" stroke="rgb(255,0,179)" stroke-width="2"></line><line x1="344.5" y1="318.77876430563134" x2="341.5" y2="313.5826118829247" stroke="rgb(255,0,125)" stroke-width="2"></line><line x1="303.5" y1="318.77876430563134" x2="306.5" y2="313.5826118829247" stroke="rgb(255,0,125)" stroke-width="2"></line><line x1="441" y1="283.27172275046934" x2="435" y2="283.27172275046934" stroke="rgb(184,0,61)" stroke-width="2"></line><line x1="420.5" y1="318.77876430563134" x2="417.5" y2="313.5826118829247" stroke="rgb(255,0,125)" stroke-width="2"></line><line x1="379.5" y1="318.77876430563134" x2="382.5" y2="313.5826118829247" stroke="rgb(184,0,61)" stroke-width="2"></line><line x1="517" y1="283.27172275046934" x2="511" y2="283.27172275046934" stroke="rgb(129,0,43)" stroke-width="2"></line><line x1="496.5" y1="318.77876430563134" x2="493.5" y2="313.5826118829247" stroke="rgb(129,0,43)" stroke-width="2"></line><line x1="455.5" y1="318.77876430563134" x2="458.5" y2="313.5826118829247" stroke="rgb(0,0,0)" stroke-width="2"></line><line x1="99" y1="349.08965343808666" x2="93" y2="349.08965343808666" stroke="rgb(255,0,179)" stroke-width="2"></line><line x1="78.5" y1="384.59669499324866" x2="75.5" y2="379.40054257054203" stroke="rgb(255,0,179)" stroke-width="2"></line><line x1="37.5" y1="384.59669499324866" x2="40.5" y2="379.40054257054203" stroke="rgb(255,0,255)" stroke-width="2"></line><line x1="175" y1="349.08965343808666" x2="169" y2="349.08965343808666" stroke="rgb(255,0,125)" stroke-width="2"></line><line x1="154.5" y1="384.59669499324866" x2="151.5" y2="379.40054257054203" stroke="rgb(255,0,87)" stroke-width="2"></line><line x1="113.5" y1="384.59669499324866" x2="116.5" y2="379.40054257054203" stroke="rgb(255,0,179)" stroke-width="2"></line><line x1="251" y1="349.08965343808666" x2="245" y2="349.08965343808666" stroke="rgb(255,0,87)" stroke-width="2"></line><line x1="230.5" y1="384.59669499324866" x2="227.5" y2="379.40054257054203" stroke="rgb(255,0,87)" stroke-width="2"></line><line x1="189.5" y1="384.59669499324866" x2="192.5" y2="379.40054257054203" stroke="rgb(255,0,87)" stroke-width="2"></line><line x1="327" y1="349.08965343808666" x2="321" y2="349.08965343808666" stroke="rgb(129,0,43)" stroke-width="2"></line><line x1="306.5" y1="384.59669499324866" x2="303.5" y2="379.40054257054203" stroke="rgb(255,0,87)" stroke-width="2"></line><line x1="265.5" y1="384.59669499324866" x2="268.5" y2="379.40054257054203" stroke="rgb(255,0,87)" stroke-width="2"></line><line x1="403" y1="349.08965343808666" x2="397" y2="349.08965343808666" stroke="rgb(184,0,61)" stroke-width="2"></line><line x1="382.5" y1="384.59669499324866" x2="379.5" y2="379.40054257054203" stroke="rgb(90,0,30)" stroke-width="2"></line><line x1="341.5" y1="384.59669499324866" x2="344.5" y2="379.40054257054203" stroke="rgb(255,0,87)" stroke-width="2"></line><line x1="479" y1="349.08965343808666" x2="473" y2="349.08965343808666" stroke="#040" stroke-width="5" stroke-opacity="0.0"></line><line x1="458.5" y1="384.59669499324866" x2="455.5" y2="379.40054257054203" stroke="rgb(255,0,87)" stroke-width="2"></line><line x1="417.5" y1="384.59669499324866" x2="420.5" y2="379.40054257054203" stroke="rgb(255,0,87)" stroke-width="2"></line><line x1="61" y1="414.907584125704" x2="55" y2="414.907584125704" stroke="rgb(255,0,179)" stroke-width="2"></line><line x1="40.5" y1="450.414625680866" x2="37.5" y2="445.21847325815935" stroke="rgb(255,0,87)" stroke-width="2"></line><line x1="-0.5" y1="450.414625680866" x2="2.5" y2="445.21847325815935" stroke="rgb(255,0,179)" stroke-width="2"></line><line x1="137" y1="414.907584125704" x2="131" y2="414.907584125704" stroke="rgb(255,0,125)" stroke-width="2"></line><line x1="116.5" y1="450.414625680866" x2="113.5" y2="445.21847325815935" stroke="rgb(255,0,255)" stroke-width="2"></line><line x1="75.5" y1="450.414625680866" x2="78.5" y2="445.21847325815935" stroke="rgb(255,0,87)" stroke-width="2"></line><line x1="213" y1="414.907584125704" x2="207" y2="414.907584125704" stroke="rgb(184,0,61)" stroke-width="2"></line><line x1="192.5" y1="450.414625680866" x2="189.5" y2="445.21847325815935" stroke="rgb(255,0,87)" stroke-width="2"></line><line x1="151.5" y1="450.414625680866" x2="154.5" y2="445.21847325815935" stroke="rgb(255,0,87)" stroke-width="2"></line><line x1="289" y1="414.907584125704" x2="283" y2="414.907584125704" stroke="rgb(184,0,61)" stroke-width="2"></line><line x1="268.5" y1="450.414625680866" x2="265.5" y2="445.21847325815935" stroke="rgb(184,0,61)" stroke-width="2"></line><line x1="227.5" y1="450.414625680866" x2="230.5" y2="445.21847325815935" stroke="rgb(255,0,125)" stroke-width="2"></line><line x1="365" y1="414.907584125704" x2="359" y2="414.907584125704" stroke="rgb(184,0,61)" stroke-width="2"></line><line x1="344.5" y1="450.414625680866" x2="341.5" y2="445.21847325815935" stroke="rgb(184,0,61)" stroke-width="2"></line><line x1="303.5" y1="450.414625680866" x2="306.5" y2="445.21847325815935" stroke="rgb(184,0,61)" stroke-width="2"></line><line x1="441" y1="414.907584125704" x2="435" y2="414.907584125704" stroke="rgb(129,0,43)" stroke-width="2"></line><line x1="420.5" y1="450.414625680866" x2="417.5" y2="445.21847325815935" stroke="rgb(184,0,61)" stroke-width="2"></line><line x1="379.5" y1="450.414625680866" x2="382.5" y2="445.21847325815935" stroke="rgb(90,0,30)" stroke-width="2"></line><line x1="517" y1="414.907584125704" x2="511" y2="414.907584125704" stroke="rgb(90,0,30)" stroke-width="2"></line><line x1="496.5" y1="450.414625680866" x2="493.5" y2="445.21847325815935" stroke="#040" stroke-width="5" stroke-opacity="0.0"></line><line x1="455.5" y1="450.414625680866" x2="458.5" y2="445.21847325815935" stroke="rgb(184,0,61)" stroke-width="2"></line><line x1="99" y1="480.7255148133213" x2="93" y2="480.7255148133213" stroke="rgb(255,0,125)" stroke-width="2"></line><line x1="78.5" y1="516.2325563684833" x2="75.5" y2="511.0364039457766" stroke="rgb(184,0,61)" stroke-width="2"></line><line x1="37.5" y1="516.2325563684833" x2="40.5" y2="511.0364039457766" stroke="rgb(184,0,61)" stroke-width="2"></line><line x1="175" y1="480.7255148133213" x2="169" y2="480.7255148133213" stroke="rgb(255,0,179)" stroke-width="2"></line><line x1="154.5" y1="516.2325563684833" x2="151.5" y2="511.0364039457766" stroke="rgb(255,0,87)" stroke-width="2"></line><line x1="113.5" y1="516.2325563684833" x2="116.5" y2="511.0364039457766" stroke="rgb(255,0,125)" stroke-width="2"></line><line x1="251" y1="480.7255148133213" x2="245" y2="480.7255148133213" stroke="rgb(255,0,125)" stroke-width="2"></line><line x1="230.5" y1="516.2325563684833" x2="227.5" y2="511.0364039457766" stroke="rgb(255,0,125)" stroke-width="2"></line><line x1="189.5" y1="516.2325563684833" x2="192.5" y2="511.0364039457766" stroke="rgb(255,0,87)" stroke-width="2"></line><line x1="327" y1="480.7255148133213" x2="321" y2="480.7255148133213" stroke="rgb(129,0,43)" stroke-width="2"></line><line x1="306.5" y1="516.2325563684833" x2="303.5" y2="511.0364039457766" stroke="#040" stroke-width="5" stroke-opacity="0.0"></line><line x1="265.5" y1="516.2325563684833" x2="268.5" y2="511.0364039457766" stroke="#040" stroke-width="5" stroke-opacity="0.0"></line><line x1="403" y1="480.7255148133213" x2="397" y2="480.7255148133213" stroke="rgb(90,0,30)" stroke-width="2"></line><line x1="382.5" y1="516.2325563684833" x2="379.5" y2="511.0364039457766" stroke="rgb(63,0,21)" stroke-width="2"></line><line x1="341.5" y1="516.2325563684833" x2="344.5" y2="511.0364039457766" stroke="#040" stroke-width="5" stroke-opacity="0.0"></line><line x1="479" y1="480.7255148133213" x2="473" y2="480.7255148133213" stroke="rgb(129,0,43)" stroke-width="2"></line><line x1="458.5" y1="516.2325563684833" x2="455.5" y2="511.0364039457766" stroke="rgb(129,0,43)" stroke-width="2"></line><line x1="417.5" y1="516.2325563684833" x2="420.5" y2="511.0364039457766" stroke="rgb(129,0,43)" stroke-width="2"></line></svg>
