<svg xmlns="http://www.w3.org/2000/svg" version="1.1"><path d="
M 220 292 C
263.8261885930094 334.49429601028794
225.72059331238225 364.9716767456994
275 401
" stroke="#000" stroke-width="5" fill-opacity="0.0"></path><path d="
M 220 292 C
196.03785256972242 268.76607027363553
194.27016537599388 255.43760015187073
210 226
" stroke="#000" stroke-width="5" fill-opacity="0.0"></path><path d="
M 308 369 C
286.34138570945504 405.50896365296336
249.97354487956989 382.03240137226175
226 347
" stroke="#000" stroke-width="5" fill-opacity="0.0"></path><path d="
M 308 369 C
288.6976127767108 401.53717639074114
287.89085593452586 401.1481317236538
271 435
" stroke="#000" stroke-width="5" fill-opacity="0.0"></path><path d="
M 308 369 C
322.54112922178325 344.48866464356945
328.0851733712589 332.2196886881691
308 312
" stroke="#000" stroke-width="5" fill-opacity="0.0"></path><path d="
M 308 369 C
284.6803249798359 408.3089399113476
254.6315326145118 357.66630617146745
218 385
" stroke="#000" stroke-width="5" fill-opacity="0.0"></path><path d="
M 475 265 C
482.2373733599306 241.3331365227885
470.8226152719622 238.08089832052644
482 216
" stroke="#000" stroke-width="5" fill-opacity="0.0"></path><path d="
M 475 265 C
461.3070276249792 309.77725435460417
442.7663023935247 340.0181371579068
486 358
" stroke="#000" stroke-width="5" fill-opacity="0.0"></path><path d="
M 65 34 C
80.29364643935172 73.5866692030045
94.81925050652585 65.65341804207917
113 104
" stroke="#000" stroke-width="5" fill-opacity="0.0"></path><path d="
M 65 34 C
85.30927575330156 86.56931917360504
120.35582450554935 51.60672166802513
165 86
" stroke="#000" stroke-width="5" fill-opacity="0.0"></path><path d="
M 211 128 C
185.97121777481811 85.59056637581187
163.01784720129538 95.07817093371953
115 106
" stroke="#000" stroke-width="5" fill-opacity="0.0"></path><path d="
M 211 128 C
182.65353213980933 79.96899168400503
155.2033536664662 124.9429052603599
100 117
" stroke="#000" stroke-width="5" fill-opacity="0.0"></path><path d="
M 211 128 C
185.35942610872448 84.55393032130479
134.61219213338777 149.58413266904978
113 104
" stroke="#000" stroke-width="5" fill-opacity="0.0"></path><path d="
M 211 128 C
189.376642155787 91.3608079300169
204.11016224477152 61.74824107477757
245 50
" stroke="#000" stroke-width="5" fill-opacity="0.0"></path><path d="
M 383 343 C
344.7460872790885 329.4671451075212
336.5964150848321 340.7879322685043
308 312
" stroke="#000" stroke-width="5" fill-opacity="0.0"></path><path d="
M 383 343 C
355.1729998291142 333.1558107754106
354.10129780211565 349.06396249684235
325 354
" stroke="#000" stroke-width="5" fill-opacity="0.0"></path><path d="
M 383 343 C
432.06360045950055 360.35693261928776
437.94738800906094 338.01384276935005
486 358
" stroke="#000" stroke-width="5" fill-opacity="0.0"></path><path d="
M 383 343 C
427.00213785135134 358.5663696638192
424.9836275522632 316.60476079657485
448 276
" stroke="#000" stroke-width="5" fill-opacity="0.0"></path><path d="
M 383 343 C
328.27804386182413 323.64134518073223
305.2698243007708 356.56436471767324
272 309
" stroke="#000" stroke-width="5" fill-opacity="0.0"></path><path d="
M 375 220 C
354.3463287585226 257.2347400185495
386.6424724926494 261.48597803015946
389 304
" stroke="#000" stroke-width="5" fill-opacity="0.0"></path><path d="
M 391 280 C
443.6449780707923 262.034580886442
456.8773844167593 265.6296704226082
482 216
" stroke="#000" stroke-width="5" fill-opacity="0.0"></path><path d="
M 391 280 C
436.781200628349 264.37688670504946
393.2833561635145 211.81102388613505
439 196
" stroke="#000" stroke-width="5" fill-opacity="0.0"></path><path d="
M 391 280 C
335.5057514281061 298.9377500099895
316.7098836152159 279.33467852896655
284 328
" stroke="#000" stroke-width="5" fill-opacity="0.0"></path><path d="
M 391 280 C
344.07868353172273 296.0121847629788
373.8800792030711 345.70917030077834
325 354
" stroke="#000" stroke-width="5" fill-opacity="0.0"></path><path d="
M 115 477 C
140.2452863444216 458.5697119559091
167.8414827655201 455.1148605145344
177 485
" stroke="#000" stroke-width="5" fill-opacity="0.0"></path><path d="
M 115 477 C
134.42605888381297 462.81803129877125
131.07914113825802 458.8492794415769
150 444
" stroke="#000" stroke-width="5" fill-opacity="0.0"></path><path d="
M 275 401 C
245.56810387230485 379.48225173656493
246.5900877497416 377.0881751932207
226 347
" stroke="#000" stroke-width="5" fill-opacity="0.0"></path><path d="
M 275 401 C
234.14740046154805 371.1325409358132
232.89557928412793 372.5399026641458
195 339
" stroke="#000" stroke-width="5" fill-opacity="0.0"></path><path d="
M 275 401 C
239.28603583923652 374.8894128000977
222.92886922227225 412.0226677018934
202 451
" stroke="#000" stroke-width="5" fill-opacity="0.0"></path><path d="
M 275 401 C
322.59770625438944 435.7988269819667
325.7053366492037 437.15510176331446
384 446
" stroke="#000" stroke-width="5" fill-opacity="0.0"></path><path d="
M 292 90 C
259.27025660714173 104.000496328261
259.23074902040145 116.471507788706
257 152
" stroke="#000" stroke-width="5" fill-opacity="0.0"></path><path d="
M 292 90 C
244.88504167516163 110.15392522683217
222.37353145258558 77.32749464925763
194 120
" stroke="#000" stroke-width="5" fill-opacity="0.0"></path><path d="
M 292 90 C
262.4604485625116 102.63585774183842
261.46393418599183 100.18881027056655
232 113
" stroke="#000" stroke-width="5" fill-opacity="0.0"></path><path d="
M 292 90 C
329.054238126006 74.14965499109736
317.5730437539077 53.1498573514633
356 41
" stroke="#000" stroke-width="5" fill-opacity="0.0"></path><path d="
M 442 456 C
428.5936955611372 487.2493360136264
412.0036296235416 479.0563242843102
378 479
" stroke="#000" stroke-width="5" fill-opacity="0.0"></path><path d="
M 442 456 C
456.33775136474696 422.5795139801544
445.5969733693216 411.80122996126596
419 387
" stroke="#000" stroke-width="5" fill-opacity="0.0"></path><path d="
M 333 176 C
357.63523657805274 178.367513198141
367.2071489689113 186.26396581417097
368 211
" stroke="#000" stroke-width="5" fill-opacity="0.0"></path><path d="
M 333 176 C
294.15015556201325 172.26642434866645
285.8747363793438 149.12531354119966
255 173
" stroke="#000" stroke-width="5" fill-opacity="0.0"></path><path d="
M 468 484 C
431.56330238936835 455.7623112271668
429.57609890805105 452.9151434058555
384 446
" stroke="#000" stroke-width="5" fill-opacity="0.0"></path><path d="
M 468 484 C
425.0508577966954 450.7153010528814
458.74013437116236 424.05700635725935
419 387
" stroke="#000" stroke-width="5" fill-opacity="0.0"></path><path d="
M 482 216 C
504.6595002800913 171.2362083034006
451.8728947106008 175.06862333325552
432 129
" stroke="#000" stroke-width="5" fill-opacity="0.0"></path><path d="
M 55 271 C
46.5246183227177 208.95027876432977
36.8745473575796 210.89651102156924
13 153
" stroke="#000" stroke-width="5" fill-opacity="0.0"></path><path d="
M 55 271 C
62.28793464567373 324.35621808749556
-0.3372819562427338 319.3786111946345
15 371
" stroke="#000" stroke-width="5" fill-opacity="0.0"></path><path d="
M 42 142 C
55.791158855758624 172.6439869699625
54.4338475026461 189.39893581503347
88 191
" stroke="#000" stroke-width="5" fill-opacity="0.0"></path><path d="
M 42 142 C
22.527685544959883 98.73247210939783
84.91845317915516 84.82575402305702
55 48
" stroke="#000" stroke-width="5" fill-opacity="0.0"></path><path d="
M 42 142 C
26.01947222384171 106.49123021005327
32.46661888856087 94.49964362575653
59 66
" stroke="#000" stroke-width="5" fill-opacity="0.0"></path><path d="
M 42 142 C
23.90054431832598 101.78296748854886
-0.48296364517629087 78.77888947601859
36 54
" stroke="#000" stroke-width="5" fill-opacity="0.0"></path><path d="
M 439 196 C
390.69934747732697 212.704698916293
368.01970619186125 192.1905551030772
351 144
" stroke="#000" stroke-width="5" fill-opacity="0.0"></path><path d="
M 178 186 C
155.38954685554202 140.38183028000498
164.64611345266567 94.70781601969541
115 106
" stroke="#000" stroke-width="5" fill-opacity="0.0"></path><path d="
M 178 186 C
162.9205508066008 155.5761571785599
175.1990114257443 148.2758347114759
194 120
" stroke="#000" stroke-width="5" fill-opacity="0.0"></path><path d="
M 178 186 C
157.83788168003048 145.32151693030394
190.3645153534103 131.10349187984443
232 113
" stroke="#000" stroke-width="5" fill-opacity="0.0"></path><path d="
M 178 186 C
154.87639153244157 139.34650354540338
151.5388996396332 124.41564723647357
100 117
" stroke="#000" stroke-width="5" fill-opacity="0.0"></path><path d="
M 178 186 C
159.79096320928082 149.26199543858928
135.34646402044865 182.97852874198188
99 164
" stroke="#000" stroke-width="5" fill-opacity="0.0"></path><path d="
M 178 186 C
154.76578215869017 139.12334140211613
135.41362794911691 151.27450985635457
113 104
" stroke="#000" stroke-width="5" fill-opacity="0.0"></path><path d="
M 22 423 C
25.19811622362341 396.9611434079721
22.47175310418005 396.14801991311
15 371
" stroke="#000" stroke-width="5" fill-opacity="0.0"></path><path d="
M 22 423 C
17.75515334369954 457.56126844987745
11.347530563400795 456.19439789778784
3 490
" stroke="#000" stroke-width="5" fill-opacity="0.0"></path><path d="
M 115 106 C
172.14504436090712 93.00215767944707
178.2559920993632 136.36838922083177
232 113
" stroke="#000" stroke-width="5" fill-opacity="0.0"></path><path d="
M 115 106 C
74.31388714650619 115.2542001746648
81.31035202486729 80.3846472317912
55 48
" stroke="#000" stroke-width="5" fill-opacity="0.0"></path><path d="
M 106 486 C
118.64393039030104 429.4811445242809
157.00517787907572 458.36233781905383
210 435
" stroke="#000" stroke-width="5" fill-opacity="0.0"></path><path d="
M 79 12 C
56.79172942733362 32.249511553892866
60.86189870739297 37.114029709154046
36 54
" stroke="#000" stroke-width="5" fill-opacity="0.0"></path><path d="
M 156 102 C
179.27255414072755 77.0472802330707
179.09120972642597 72.014517332055
212 63
" stroke="#000" stroke-width="5" fill-opacity="0.0"></path><path d="
M 156 102 C
117.80326310767599 142.95435618806104
143.93863322817882 193.6682039958162
88 191
" stroke="#000" stroke-width="5" fill-opacity="0.0"></path><path d="
M 156 102 C
191.15243385396133 64.3097307764607
195.46518177750534 64.23206884695306
245 50
" stroke="#000" stroke-width="5" fill-opacity="0.0"></path><path d="
M 257 152 C
259.50833016584454 112.0505534484004
248.27418827451856 111.6164748568615
254 72
" stroke="#000" stroke-width="5" fill-opacity="0.0"></path><path d="
M 257 152 C
254.2098589482389 196.43776674081718
302.1121648868991 186.0966641857621
344 171
" stroke="#000" stroke-width="5" fill-opacity="0.0"></path><path d="
M 257 152 C
254.2532982687213 195.7459212910117
230.65729737552257 187.3408993231965
210 226
" stroke="#000" stroke-width="5" fill-opacity="0.0"></path><path d="
M 257 152 C
260.3455000304568 98.71719198891435
288.79536185491145 106.93659911315548
333 77
" stroke="#000" stroke-width="5" fill-opacity="0.0"></path><path d="
M 254 72 C
259.05537227855746 37.02224691142679
255.12316090944242 24.743621322908485
224 8
" stroke="#000" stroke-width="5" fill-opacity="0.0"></path><path d="
M 254 72 C
261.624768244679 19.244783109014378
305.17653478605826 57.06939275913229
356 41
" stroke="#000" stroke-width="5" fill-opacity="0.0"></path><path d="
M 254 72 C
246.77588605585572 121.98311892751413
294.95124599983535 142.1066683075354
255 173
" stroke="#000" stroke-width="5" fill-opacity="0.0"></path><path d="
M 194 120 C
167.963359009671 159.157928008779
146.5445978741543 123.69704477611356
100 117
" stroke="#000" stroke-width="5" fill-opacity="0.0"></path><path d="
M 194 120 C
213.88854286631846 90.08853292373286
231.05722107012875 116.42890362249936
263 100
" stroke="#000" stroke-width="5" fill-opacity="0.0"></path><path d="
M 194 120 C
165.01581286387977 163.59090382245319
145.40247135173243 188.22933454413578
99 164
" stroke="#000" stroke-width="5" fill-opacity="0.0"></path><path d="
M 138 415 C
182.35567967758413 398.0051866635862
230.56946807902665 370.48115214815215
195 339
" stroke="#000" stroke-width="5" fill-opacity="0.0"></path><path d="
M 138 415 C
185.69717619936756 396.7248971929982
187.74154239294242 400.49880252569295
232 375
" stroke="#000" stroke-width="5" fill-opacity="0.0"></path><path d="
M 138 415 C
177.89211508330354 399.71539486344295
183.76129707942448 410.54821368151937
218 385
" stroke="#000" stroke-width="5" fill-opacity="0.0"></path><path d="
M 138 415 C
106.69319238370159 426.99515722598414
84.14620383807885 426.95394416462784
74 395
" stroke="#000" stroke-width="5" fill-opacity="0.0"></path><path d="
M 55 19 C
78.93917733625197 28.349641087415073
88.44168317527345 34.41605614312785
86 60
" stroke="#000" stroke-width="5" fill-opacity="0.0"></path><path d="
M 55 19 C
102.9259013443357 37.71785191556451
90.95792859568031 57.50917199912576
113 104
" stroke="#000" stroke-width="5" fill-opacity="0.0"></path><path d="
M 143 439 C
154.27545785339402 466.9126145353017
187.7587987689152 477.52240915708353
202 451
" stroke="#000" stroke-width="5" fill-opacity="0.0"></path><path d="
M 143 439 C
127.67429964847065 401.06093163063787
86.3831342493476 433.9988203175767
74 395
" stroke="#000" stroke-width="5" fill-opacity="0.0"></path><path d="
M 226 347 C
254.02482972533397 387.9525202993178
276.0751974903813 362.298415474945
325 354
" stroke="#000" stroke-width="5" fill-opacity="0.0"></path><path d="
M 232 113 C
198.8777117986248 127.40187572176076
193.6118936098962 108.0422218493504
165 86
" stroke="#000" stroke-width="5" fill-opacity="0.0"></path><path d="
M 420 332 C
371.7815107971204 313.56152666320276
375.8847570175787 358.8130895188865
332 386
" stroke="#000" stroke-width="5" fill-opacity="0.0"></path><path d="
M 420 332 C
376.45935530079873 315.3503075350349
380.23560803225905 301.93873302037593
334 296
" stroke="#000" stroke-width="5" fill-opacity="0.0"></path><path d="
M 420 332 C
374.45901495011344 314.5853888735347
373.07047236027097 345.84649234620906
325 354
" stroke="#000" stroke-width="5" fill-opacity="0.0"></path><path d="
M 86 60 C
81.0212200190183 112.16763124678918
52.54675543564821 139.74415391200463
99 164
" stroke="#000" stroke-width="5" fill-opacity="0.0"></path><path d="
M 224 8 C
267.9993760481806 31.67076059975245
307.43035680086757 77.14844874964503
263 100
" stroke="#000" stroke-width="5" fill-opacity="0.0"></path><path d="
M 150 444 C
185.4107951072454 416.20925352077273
181.92283661045138 411.9200349510139
218 385
" stroke="#000" stroke-width="5" fill-opacity="0.0"></path><path d="
M 332 386 C
289.23910287264016 412.4906715064633
275.585391571838 349.88897370616735
232 375
" stroke="#000" stroke-width="5" fill-opacity="0.0"></path><path d="
M 332 386 C
283.54298527314927 416.0194557539236
263.68540014914913 350.91049702309925
218 385
" stroke="#000" stroke-width="5" fill-opacity="0.0"></path><path d="
M 195 339 C
237.0163543404182 376.1870403224083
228.5434408021684 401.5662488740559
202 451
" stroke="#000" stroke-width="5" fill-opacity="0.0"></path><path d="
M 195 339 C
231.38000581432698 371.19852755871824
254.45439741415296 415.4026391944081
210 435
" stroke="#000" stroke-width="5" fill-opacity="0.0"></path><path d="
M 481 456 C
443.8151027429309 418.5596018186076
430.76828934231867 479.08740643761814
378 479
" stroke="#000" stroke-width="5" fill-opacity="0.0"></path><path d="
M 315 111 C
326.7862948954627 72.1884907194117
317.3254296296399 53.22814812913494
356 41
" stroke="#000" stroke-width="5" fill-opacity="0.0"></path><path d="
M 271 435 C
295.06188231278384 386.77629400838487
253.9360553323765 372.7287293696353
284 328
" stroke="#000" stroke-width="5" fill-opacity="0.0"></path><path d="
M 362 485 C
362.45168303098325 445.0494557929492
378.53673087137093 434.2370176912841
418 428
" stroke="#000" stroke-width="5" fill-opacity="0.0"></path><path d="
M 477 16 C
482.72657888481274 64.59481756603287
474.9507075159201 66.09876347297677
458 112
" stroke="#000" stroke-width="5" fill-opacity="0.0"></path><path d="
M 383 352 C
372.8775950542214 392.5929417277644
376.6769234952759 434.530953083947
418 428
" stroke="#000" stroke-width="5" fill-opacity="0.0"></path><path d="
M 383 352 C
392.0020398298185 315.89995458586844
370.90234597467554 300.7399221054093
334 296
" stroke="#000" stroke-width="5" fill-opacity="0.0"></path><path d="
M 383 352 C
395.0983287652599 303.483194240679
423.3424562441276 319.50006363130103
448 276
" stroke="#000" stroke-width="5" fill-opacity="0.0"></path><path d="
M 344 171 C
383.949310471719 156.60199344234755
397.138874549817 122.8078952895226
427 153
" stroke="#000" stroke-width="5" fill-opacity="0.0"></path><path d="
M 493 425 C
456.24777549933367 417.39907938124463
455.06986716473114 422.1412502708183
418 428
" stroke="#000" stroke-width="5" fill-opacity="0.0"></path><path d="
M 493 425 C
452.2687013894048 416.57614616137477
449.419875316408 415.3660216761919
419 387
" stroke="#000" stroke-width="5" fill-opacity="0.0"></path><path d="
M 202 451 C
184.9663047146238 482.7230708621494
166.43629320476458 461.2634467096595
137 482
" stroke="#000" stroke-width="5" fill-opacity="0.0"></path><path d="
M 284 328 C
316.46638233620297 279.6969564313025
313.68347031900765 276.97412815630196
354 235
" stroke="#000" stroke-width="5" fill-opacity="0.0"></path><path d="
M 284 328 C
259.6762860973069 364.18849184450676
252.94664456482286 358.92353487031005
218 385
" stroke="#000" stroke-width="5" fill-opacity="0.0"></path><path d="
M 55 48 C
80.41873631647161 79.28718338351483
95.73042661901852 67.57525792488167
113 104
" stroke="#000" stroke-width="5" fill-opacity="0.0"></path><path d="
M 55 48 C
91.69194638078159 93.16304983933047
118.90349097834542 50.48786325752112
165 86
" stroke="#000" stroke-width="5" fill-opacity="0.0"></path><path d="
M 263 100 C
306.74651334933174 77.50016511667826
334.6177648550622 97.61441633809093
351 144
" stroke="#000" stroke-width="5" fill-opacity="0.0"></path><path d="
M 263 100 C
218.98316576709334 122.63886711195632
204.21097144144767 116.20761027651768
165 86
" stroke="#000" stroke-width="5" fill-opacity="0.0"></path><path d="
M 258 273 C
243.7409023816026 323.662393696992
277.6035991701561 348.7262156755495
232 375
" stroke="#000" stroke-width="5" fill-opacity="0.0"></path><path d="
M 351 144 C
366.160472674425 186.92621656153744
385.53601302027687 202.16739604014134
354 235
" stroke="#000" stroke-width="5" fill-opacity="0.0"></path><path d="
M 59 66 C
22.93684300394314 104.73562581755657
52.085988228509514 139.50356149346496
99 164
" stroke="#000" stroke-width="5" fill-opacity="0.0"></path><path d="
M 15 371 C
32.03190939268838 428.32507359296847
17.336101911495113 431.9420446279476
3 490
" stroke="#000" stroke-width="5" fill-opacity="0.0"></path><path d="
M 389 304 C
391.2483721362713 344.545589436298
365.03605613369393 347.2092556181439
325 354
" stroke="#000" stroke-width="5" fill-opacity="0.0"></path><path d="
M 389 304 C
392.07341590904633 359.4238587131032
434.7473827432771 336.68288893081734
486 358
" stroke="#000" stroke-width="5" fill-opacity="0.0"></path><path d="
M 325 354 C
278.0005357277522 361.97184784862986
273.3058136337524 351.20231607795176
232 375
" stroke="#000" stroke-width="5" fill-opacity="0.0"></path><path d="
M 325 354 C
270.084257903575 363.3145729906925
262.641806886167 351.6892047837615
218 385
" stroke="#000" stroke-width="5" fill-opacity="0.0"></path><path d="
M 232 375 C
265.43540469370623 355.7367263174691
294.11725563941593 340.62004116032625
272 309
" stroke="#000" stroke-width="5" fill-opacity="0.0"></path><path d="
M 232 375 C
224.5462453180604 379.2943615522523
224.8944833832932 379.8554787513809
218 385
" stroke="#000" stroke-width="5" fill-opacity="0.0"></path><path d="
M 255 173 C
303.925287282314 135.16725935987392
281.79149672933494 111.67980958393929
333 77
" stroke="#000" stroke-width="5" fill-opacity="0.0"></path><line x1="217.84620484737863" y1="289.91165940504317" x2="222.15379515262137" y2="294.08834059495683" stroke="#808" stroke-width="2"></line><line x1="309.53064518124035" y1="366.4198594361652" x2="306.46935481875965" y2="371.5801405638348" stroke="#808" stroke-width="2"></line><line x1="474.122697866151" y1="267.86885708356897" x2="475.877302133849" y2="262.13114291643103" stroke="#808" stroke-width="2"></line><line x1="63.918876159845865" y1="31.20157700798282" x2="66.08112384015413" y2="36.79842299201718" stroke="#808" stroke-width="2"></line><line x1="212.52477268301817" y1="130.5836153477485" x2="209.47522731698183" y2="125.41638465225151" stroke="#808" stroke-width="2"></line><line x1="184.17346122223995" y1="460.99467490938565" x2="189.82653877776005" y2="463.00532509061435" stroke="#808" stroke-width="2"></line><line x1="385.8282399323913" y1="344.0005293023331" x2="380.1717600676087" y2="341.9994706976669" stroke="#808" stroke-width="2"></line><line x1="376.4551897012443" y1="217.37656276358808" x2="373.5448102987557" y2="222.62343723641192" stroke="#808" stroke-width="2"></line><line x1="388.1607704654437" y1="280.9689043554982" x2="393.8392295345563" y2="279.0310956445018" stroke="#808" stroke-width="2"></line><line x1="117.42300479676473" y1="475.2310885395659" x2="112.57699520323527" y2="478.7689114604341" stroke="#808" stroke-width="2"></line><line x1="272.578211780324" y1="399.22942330890794" x2="277.421788219676" y2="402.77057669109206" stroke="#808" stroke-width="2"></line><line x1="294.7582441461599" y1="88.82013168947773" x2="289.2417558538401" y2="91.17986831052227" stroke="#808" stroke-width="2"></line><line x1="440.81721867379684" y1="458.7569962521529" x2="443.18278132620316" y2="453.2430037478471" stroke="#808" stroke-width="2"></line><line x1="330.01375837020413" y1="175.71301406223643" x2="335.98624162979587" y2="176.28698593776357" stroke="#808" stroke-width="2"></line><line x1="470.37126884822226" y1="485.8376844259694" x2="465.62873115177774" y2="482.1623155740306" stroke="#808" stroke-width="2"></line><line x1="483.35490363493597" y1="213.3233909250626" x2="480.64509636506403" y2="218.6766090749374" stroke="#808" stroke-width="2"></line><line x1="55.40600064659219" y1="273.9724002884818" x2="54.59399935340781" y2="268.0275997115182" stroke="#808" stroke-width="2"></line><line x1="40.76880465136238" y1="139.26428107922376" x2="43.23119534863762" y2="144.73571892077624" stroke="#808" stroke-width="2"></line><line x1="18.42123585743354" y1="354.5509809450771" x2="21.57876414256646" y2="349.4490190549229" stroke="#808" stroke-width="2"></line><line x1="430.8117188399009" y1="126.24536973723268" x2="433.1882811600991" y2="131.7546302627673" stroke="#808" stroke-width="2"></line><line x1="436.1647741077161" y1="196.9805580756502" x2="441.8352258922839" y2="195.0194419243498" stroke="#808" stroke-width="2"></line><line x1="177.8790207759042" y1="487.86833095641504" x2="176.1209792240958" y2="482.13166904358496" stroke="#808" stroke-width="2"></line><line x1="179.33226948112113" y1="188.68794680558847" x2="176.66773051887887" y2="183.31205319441153" stroke="#808" stroke-width="2"></line><line x1="22.365714674676656" y1="420.0223746413079" x2="21.634285325323344" y2="425.9776253586921" stroke="#808" stroke-width="2"></line><line x1="112.07471577917156" y1="106.66536623552156" x2="117.92528422082844" y2="105.33463376447844" stroke="#808" stroke-width="2"></line><line x1="106.65494621509109" y1="483.0723652114142" x2="105.34505378490891" y2="488.9276347885858" stroke="#808" stroke-width="2"></line><line x1="76.78317194199488" y1="14.02130486598169" x2="81.21682805800512" y2="9.97869513401831" stroke="#808" stroke-width="2"></line><line x1="153.9538277960835" y1="104.1938959209405" x2="158.0461722039165" y2="99.8061040790595" stroke="#808" stroke-width="2"></line><line x1="83.22276055443102" y1="309.26050066133837" x2="80.77723944556898" y2="314.73949933866163" stroke="#808" stroke-width="2"></line><line x1="66.71963828950805" y1="205.26632048638632" x2="61.280361710491945" y2="202.73367951361368" stroke="#808" stroke-width="2"></line><line x1="256.8120073734395" y1="154.99410400159363" x2="257.1879926265605" y2="149.00589599840637" stroke="#808" stroke-width="2"></line><line x1="254.4291342503955" y1="69.03085133495517" x2="253.5708657496045" y2="74.96914866504483" stroke="#808" stroke-width="2"></line><line x1="195.6610675211766" y1="117.50182973156507" x2="192.3389324788234" y2="122.49817026843493" stroke="#808" stroke-width="2"></line><line x1="135.19858865194206" y1="416.0733566317735" x2="140.80141134805794" y2="413.9266433682265" stroke="#808" stroke-width="2"></line><line x1="52.20556465578405" y1="17.908610469632084" x2="57.79443534421595" y2="20.091389530367916" stroke="#808" stroke-width="2"></line><line x1="141.87634903039313" y1="436.2183802383321" x2="144.12365096960687" y2="441.7816197616679" stroke="#808" stroke-width="2"></line><line x1="453.9750376254466" y1="10.613799110336112" x2="448.0249623745534" y2="11.386200889663888" stroke="#808" stroke-width="2"></line><line x1="209.10658952536437" y1="63.79257543821952" x2="214.89341047463563" y2="62.20742456178048" stroke="#808" stroke-width="2"></line><line x1="367.9038919416194" y1="208.0015398550065" x2="368.0961080583806" y2="213.9984601449935" stroke="#808" stroke-width="2"></line><line x1="227.69424462963826" y1="349.4757898002338" x2="224.30575537036174" y2="344.5242101997662" stroke="#808" stroke-width="2"></line><line x1="229.2488165853387" y1="114.19623986678783" x2="234.7511834146613" y2="111.80376013321217" stroke="#808" stroke-width="2"></line><line x1="417.19788311667855" y1="330.92848659728173" x2="422.80211688332145" y2="333.07151340271827" stroke="#808" stroke-width="2"></line><line x1="51.29893113460814" y1="281.9274116421588" x2="46.70106886539186" y2="278.0725883578412" stroke="#808" stroke-width="2"></line><line x1="86.28501922470113" y1="57.01357001730314" x2="85.71498077529887" y2="62.98642998269686" stroke="#808" stroke-width="2"></line><line x1="226.6419447650694" y1="9.421312020044276" x2="221.3580552349306" y2="6.578687979955724" stroke="#808" stroke-width="2"></line><line x1="152.35999139378242" y1="442.14785512951255" x2="147.64000860621758" y2="445.85214487048745" stroke="#808" stroke-width="2"></line><line x1="334.55027108049813" y1="384.42008942785526" x2="329.44972891950187" y2="387.57991057214474" stroke="#808" stroke-width="2"></line><line x1="192.75350727921938" y1="337.0117167064325" x2="197.24649272078062" y2="340.9882832935675" stroke="#808" stroke-width="2"></line><line x1="483.114045009306" y1="458.1285708112789" x2="478.885954990694" y2="453.8714291887211" stroke="#808" stroke-width="2"></line><line x1="315.8717312360933" y1="108.12944523619227" x2="314.1282687639067" y2="113.87055476380773" stroke="#808" stroke-width="2"></line><line x1="269.66058498650295" y1="437.6843933060598" x2="272.33941501349705" y2="432.3156066939402" stroke="#808" stroke-width="2"></line><line x1="361.9660840040529" y1="487.99980827807696" x2="362.0339159959471" y2="482.00019172192304" stroke="#808" stroke-width="2"></line><line x1="476.64889925235525" y1="13.020616126612198" x2="477.35110074764475" y2="18.979383873387803" stroke="#808" stroke-width="2"></line><line x1="382.27413656634883" y1="354.91086280605737" x2="383.72586343365117" y2="349.08913719394263" stroke="#808" stroke-width="2"></line><line x1="346.822296076707" y1="169.98282506155317" x2="341.177703923293" y2="172.01717493844683" stroke="#808" stroke-width="2"></line><line x1="97.03058010272139" y1="116.57274659317231" x2="102.96941989727861" y2="117.42725340682769" stroke="#808" stroke-width="2"></line><line x1="490.06217136350205" y1="424.3924122264457" x2="495.93782863649795" y2="425.6075877735543" stroke="#808" stroke-width="2"></line><line x1="203.41920086791492" y1="448.3569205656073" x2="200.58079913208508" y2="453.6430794343927" stroke="#808" stroke-width="2"></line><line x1="282.32647760764064" y1="330.48984393130814" x2="285.67352239235936" y2="325.51015606869186" stroke="#808" stroke-width="2"></line><line x1="345.7647514927116" y1="95.00091581798561" x2="350.2352485072884" y2="90.99908418201439" stroke="#808" stroke-width="2"></line><line x1="386.96605320051356" y1="446.4500315674742" x2="381.03394679948644" y2="445.5499684325258" stroke="#808" stroke-width="2"></line><line x1="85.00340694653467" y1="190.85706619740822" x2="90.99659305346533" y2="191.14293380259178" stroke="#808" stroke-width="2"></line><line x1="420.9632197448551" y1="427.53167453229526" x2="415.0367802551449" y2="428.46832546770474" stroke="#808" stroke-width="2"></line><line x1="207.25490752510393" y1="436.21015176910544" x2="212.74509247489607" y2="433.78984823089456" stroke="#808" stroke-width="2"></line><line x1="353.13957343394577" y1="41.904411333526554" x2="358.86042656605423" y2="40.095588666473446" stroke="#808" stroke-width="2"></line><line x1="14.143674943897201" y1="155.77344688478107" x2="11.856325056102799" y2="150.22655311521893" stroke="#808" stroke-width="2"></line><line x1="53.10831627243602" y1="45.67158150778911" x2="56.89168372756398" y2="50.32841849221089" stroke="#808" stroke-width="2"></line><line x1="265.6678230262102" y1="98.62787744686467" x2="260.3321769737898" y2="101.37212255313533" stroke="#808" stroke-width="2"></line><line x1="424.89040320824137" y1="150.867020540136" x2="429.10959679175863" y2="155.132979459864" stroke="#808" stroke-width="2"></line><line x1="257.18721924394856" y1="275.8877997580498" x2="258.81278075605144" y2="270.1122002419502" stroke="#808" stroke-width="2"></line><line x1="375.0000041155812" y1="478.9950307475115" x2="380.9999958844188" y2="479.0049692524885" stroke="#808" stroke-width="2"></line><line x1="472.9715829067303" y1="80.58805943580614" x2="467.0284170932697" y2="81.41194056419386" stroke="#808" stroke-width="2"></line><line x1="351.9990488565673" y1="146.82876322483725" x2="350.0009511434327" y2="141.17123677516275" stroke="#808" stroke-width="2"></line><line x1="61.04422381198016" y1="63.804288496515696" x2="56.95577618801984" y2="68.1957115034843" stroke="#808" stroke-width="2"></line><line x1="336.9755548814876" y1="296.38219516906327" x2="331.0244451185124" y2="295.61780483093673" stroke="#808" stroke-width="2"></line><line x1="310.114228775922" y1="314.12838828296515" x2="305.885771224078" y2="309.87161171703485" stroke="#808" stroke-width="2"></line><line x1="135.28939912889234" y1="489.71444839949913" x2="140.71060087110766" y2="492.28555160050087" stroke="#808" stroke-width="2"></line><line x1="15.854418527874387" y1="373.8757553754144" x2="14.145581472125613" y2="368.1242446245856" stroke="#808" stroke-width="2"></line><line x1="389.1661036291798" y1="306.9953980677655" x2="388.8338963708202" y2="301.0046019322345" stroke="#808" stroke-width="2"></line><line x1="322.04224486926665" y1="354.5016817583096" x2="327.95775513073335" y2="353.4983182416904" stroke="#808" stroke-width="2"></line><line x1="459.03926029862794" y1="109.18576155386653" x2="456.96073970137206" y2="114.81423844613347" stroke="#808" stroke-width="2"></line><line x1="234.59944414465352" y1="373.5023718289153" x2="229.40055585534648" y2="376.4976281710847" stroke="#808" stroke-width="2"></line><line x1="139.4525513791635" y1="480.27228713827697" x2="134.5474486208365" y2="483.72771286172303" stroke="#808" stroke-width="2"></line><line x1="488.7699621474103" y1="359.1520892768853" x2="483.2300378525897" y2="356.8479107231147" stroke="#808" stroke-width="2"></line><line x1="96.34070037214755" y1="162.6114304161102" x2="101.65929962785245" y2="165.3885695838898" stroke="#808" stroke-width="2"></line><line x1="446.52062134173144" y1="278.60987332747385" x2="449.47937865826856" y2="273.39012667252615" stroke="#808" stroke-width="2"></line><line x1="111.71478382953266" y1="101.28924007053939" x2="114.28521617046734" y2="106.71075992946061" stroke="#808" stroke-width="2"></line><line x1="33.51828696208051" y1="55.68555640588514" x2="38.48171303791949" y2="52.31444359411486" stroke="#808" stroke-width="2"></line><line x1="356.0781685654002" y1="232.8363883403479" x2="351.9218314345998" y2="237.1636116596521" stroke="#808" stroke-width="2"></line><line x1="162.62345624544346" y1="84.16914233686005" x2="167.37654375455654" y2="87.83085766313995" stroke="#808" stroke-width="2"></line><line x1="242.11665005632307" y1="50.82842809120541" x2="247.88334994367693" y2="49.17157190879459" stroke="#808" stroke-width="2"></line><line x1="481.35360709875454" y1="366.9295351537777" x2="482.64639290124546" y2="361.0704648462223" stroke="#808" stroke-width="2"></line><line x1="416.80590396398526" y1="384.95404237953363" x2="421.19409603601474" y2="389.04595762046637" stroke="#808" stroke-width="2"></line><line x1="270.28048826702235" y1="306.5416917605491" x2="273.71951173297765" y2="311.4583082394509" stroke="#808" stroke-width="2"></line><line x1="3.719181320676543" y1="487.0874790596478" x2="2.280818679323457" y2="492.9125209403522" stroke="#808" stroke-width="2"></line><line x1="215.595597759001" y1="386.79411534285816" x2="220.404402240999" y2="383.20588465714184" stroke="#808" stroke-width="2"></line><line x1="252.62677497378036" y1="174.83515747959808" x2="257.37322502621964" y2="171.16484252040192" stroke="#808" stroke-width="2"></line><line x1="74.90790766404767" y1="397.8593187429112" x2="73.09209233595233" y2="392.1406812570888" stroke="#808" stroke-width="2"></line><line x1="211.4138483065133" y1="223.35405348387965" x2="208.5861516934867" y2="228.64594651612035" stroke="#808" stroke-width="2"></line><line x1="330.5160227304148" y1="78.68221785871634" x2="335.4839772695852" y2="75.31778214128366" stroke="#808" stroke-width="2"></line></svg>
