<svg viewBox="-28.5 15 575.5 537.4094709047231" xmlns="http://www.w3.org/2000/svg" version="1.1"><path d="
M 107 20 C
31.655789870753836 20
14.172105064623082 30.094210129246164
-23.5 95.34421012924616
" stroke="rgb(25,0,102)" stroke-width="5" fill-opacity="0.0"></path><path d="
M 63.5 95.34421012924616 C
85.25 133.01631519386925
128.75 133.01631519386925
150.5 95.34421012924616
" stroke="rgb(25,217,102)" stroke-width="5" fill-opacity="0.0"></path><path d="
M 63.5 95.34421012924616 C
101.17210506462308 160.59421012924616
118.65578987075384 170.68842025849233
194 170.68842025849233
" stroke="rgb(25,255,102)" stroke-width="5" fill-opacity="0.0"></path><path d="
M 63.5 95.34421012924616 C
107 170.68842025849233
107 170.68842025849233
150.5 246.0326303877385
" stroke="rgb(25,217,102)" stroke-width="5" fill-opacity="0.0"></path><path d="
M 63.5 95.34421012924616 C
101.17210506462308 160.59421012924616
101.17210506462308 180.7826303877385
63.5 246.0326303877385
" stroke="rgb(25,217,102)" stroke-width="5" fill-opacity="0.0"></path><path d="
M 281 20 C
205.65578987075384 20
188.17210506462308 30.094210129246164
150.5 95.34421012924616
" stroke="rgb(25,152,102)" stroke-width="5" fill-opacity="0.0"></path><path d="
M 281 20 C
368 20
368 20
455 20
" stroke="rgb(25,106,102)" stroke-width="5" fill-opacity="0.0"></path><path d="
M 237.5 95.34421012924616 C
259.25 133.01631519386925
302.75 133.01631519386925
324.5 95.34421012924616
" stroke="rgb(25,152,102)" stroke-width="5" fill-opacity="0.0"></path><path d="
M 237.5 95.34421012924616 C
275.1721050646231 160.59421012924616
275.1721050646231 180.7826303877385
237.5 246.0326303877385
" stroke="rgb(25,125,102)" stroke-width="5" fill-opacity="0.0"></path><path d="
M 150.5 95.34421012924616 C
128.75 133.01631519386925
150.5 170.68842025849233
194 170.68842025849233
" stroke="rgb(25,217,102)" stroke-width="5" fill-opacity="0.0"></path><path d="
M 150.5 95.34421012924616 C
112.82789493537692 160.59421012924616
112.82789493537692 180.7826303877385
150.5 246.0326303877385
" stroke="rgb(25,179,102)" stroke-width="5" fill-opacity="0.0"></path><path d="
M 455 20 C
411.5 20
389.75 57.67210506462308
411.5 95.34421012924616
" stroke="rgb(25,106,102)" stroke-width="5" fill-opacity="0.0"></path><path d="
M 411.5 95.34421012924616 C
389.75 57.67210506462308
346.25 57.67210506462308
324.5 95.34421012924616
" stroke="rgb(25,152,102)" stroke-width="5" fill-opacity="0.0"></path><path d="
M 411.5 95.34421012924616 C
455 170.68842025849233
455 170.68842025849233
498.5 246.0326303877385
" stroke="rgb(25,106,102)" stroke-width="5" fill-opacity="0.0"></path><path d="
M 411.5 95.34421012924616 C
449.1721050646231 160.59421012924616
449.1721050646231 180.7826303877385
411.5 246.0326303877385
" stroke="rgb(25,125,102)" stroke-width="5" fill-opacity="0.0"></path><path d="
M 324.5 95.34421012924616 C
286.8278949353769 160.59421012924616
269.34421012924616 170.68842025849233
194 170.68842025849233
" stroke="rgb(25,217,102)" stroke-width="5" fill-opacity="0.0"></path><path d="
M 324.5 95.34421012924616 C
302.75 133.01631519386925
324.5 170.68842025849233
368 170.68842025849233
" stroke="rgb(25,179,102)" stroke-width="5" fill-opacity="0.0"></path><path d="
M 324.5 95.34421012924616 C
286.8278949353769 160.59421012924616
286.8278949353769 180.7826303877385
324.5 246.0326303877385
" stroke="rgb(25,152,102)" stroke-width="5" fill-opacity="0.0"></path><path d="
M 324.5 95.34421012924616 C
281 170.68842025849233
281 170.68842025849233
237.5 246.0326303877385
" stroke="rgb(25,152,102)" stroke-width="5" fill-opacity="0.0"></path><path d="
M 194 170.68842025849233 C
118.65578987075384 170.68842025849233
101.17210506462308 180.7826303877385
63.5 246.0326303877385
" stroke="rgb(25,217,102)" stroke-width="5" fill-opacity="0.0"></path><path d="
M 194 170.68842025849233 C
281 170.68842025849233
281 170.68842025849233
368 170.68842025849233
" stroke="rgb(25,217,102)" stroke-width="5" fill-opacity="0.0"></path><path d="
M 150.5 246.0326303877385 C
172.25 283.70473545236155
150.5 321.37684051698466
107 321.37684051698466
" stroke="rgb(25,152,102)" stroke-width="5" fill-opacity="0.0"></path><path d="
M 150.5 246.0326303877385 C
188.17210506462308 311.2826303877385
205.65578987075384 321.37684051698466
281 321.37684051698466
" stroke="rgb(25,152,102)" stroke-width="5" fill-opacity="0.0"></path><path d="
M 150.5 246.0326303877385 C
194 321.37684051698466
194 321.37684051698466
237.5 396.7210506462308
" stroke="rgb(25,152,102)" stroke-width="5" fill-opacity="0.0"></path><path d="
M 63.5 246.0326303877385 C
41.75 283.70473545236155
63.5 321.37684051698466
107 321.37684051698466
" stroke="rgb(25,152,102)" stroke-width="5" fill-opacity="0.0"></path><path d="
M 63.5 246.0326303877385 C
25.827894935376918 311.2826303877385
25.827894935376918 331.4710506462308
63.5 396.7210506462308
" stroke="rgb(25,152,102)" stroke-width="5" fill-opacity="0.0"></path><path d="
M 368 170.68842025849233 C
292.65578987075384 170.68842025849233
275.1721050646231 180.7826303877385
237.5 246.0326303877385
" stroke="rgb(25,152,102)" stroke-width="5" fill-opacity="0.0"></path><path d="
M 368 170.68842025849233 C
411.5 170.68842025849233
433.25 208.3605253231154
411.5 246.0326303877385
" stroke="rgb(25,152,102)" stroke-width="5" fill-opacity="0.0"></path><path d="
M 324.5 246.0326303877385 C
302.75 208.3605253231154
259.25 208.3605253231154
237.5 246.0326303877385
" stroke="rgb(25,125,102)" stroke-width="5" fill-opacity="0.0"></path><path d="
M 324.5 246.0326303877385 C
346.25 283.70473545236155
324.5 321.37684051698466
281 321.37684051698466
" stroke="rgb(25,125,102)" stroke-width="5" fill-opacity="0.0"></path><path d="
M 324.5 246.0326303877385 C
362.1721050646231 311.2826303877385
362.1721050646231 331.4710506462308
324.5 396.7210506462308
" stroke="rgb(25,106,102)" stroke-width="5" fill-opacity="0.0"></path><path d="
M 237.5 246.0326303877385 C
215.75 283.70473545236155
237.5 321.37684051698466
281 321.37684051698466
" stroke="rgb(25,125,102)" stroke-width="5" fill-opacity="0.0"></path><path d="
M 237.5 246.0326303877385 C
194 321.37684051698466
194 321.37684051698466
150.5 396.7210506462308
" stroke="rgb(25,106,102)" stroke-width="5" fill-opacity="0.0"></path><path d="
M 542 170.68842025849233 C
466.65578987075384 170.68842025849233
449.1721050646231 180.7826303877385
411.5 246.0326303877385
" stroke="rgb(25,106,102)" stroke-width="5" fill-opacity="0.0"></path><path d="
M 498.5 246.0326303877385 C
520.25 283.70473545236155
498.5 321.37684051698466
455 321.37684051698466
" stroke="rgb(25,87,102)" stroke-width="5" fill-opacity="0.0"></path><path d="
M 411.5 246.0326303877385 C
373.8278949353769 311.2826303877385
356.34421012924616 321.37684051698466
281 321.37684051698466
" stroke="rgb(25,125,102)" stroke-width="5" fill-opacity="0.0"></path><path d="
M 411.5 246.0326303877385 C
389.75 283.70473545236155
411.5 321.37684051698466
455 321.37684051698466
" stroke="rgb(25,106,102)" stroke-width="5" fill-opacity="0.0"></path><path d="
M 107 321.37684051698466 C
63.5 321.37684051698466
41.75 359.04894558160777
63.5 396.7210506462308
" stroke="rgb(25,125,102)" stroke-width="5" fill-opacity="0.0"></path><path d="
M 107 321.37684051698466 C
31.655789870753836 321.37684051698466
14.172105064623082 331.4710506462308
-23.5 396.7210506462308
" stroke="rgb(25,106,102)" stroke-width="5" fill-opacity="0.0"></path><path d="
M 107 321.37684051698466 C
194 321.37684051698466
194 321.37684051698466
281 321.37684051698466
" stroke="rgb(25,125,102)" stroke-width="5" fill-opacity="0.0"></path><path d="
M 107 321.37684051698466 C
150.5 321.37684051698466
172.25 359.04894558160777
150.5 396.7210506462308
" stroke="rgb(25,106,102)" stroke-width="5" fill-opacity="0.0"></path><path d="
M 63.5 396.7210506462308 C
41.75 359.04894558160777
-1.75 359.04894558160777
-23.5 396.7210506462308
" stroke="rgb(25,106,102)" stroke-width="5" fill-opacity="0.0"></path><path d="
M 63.5 396.7210506462308 C
85.25 434.3931557108539
128.75 434.3931557108539
150.5 396.7210506462308
" stroke="rgb(25,106,102)" stroke-width="5" fill-opacity="0.0"></path><path d="
M 63.5 396.7210506462308 C
101.17210506462308 461.9710506462308
118.65578987075384 472.065260775477
194 472.065260775477
" stroke="rgb(25,106,102)" stroke-width="5" fill-opacity="0.0"></path><path d="
M 63.5 396.7210506462308 C
107 472.065260775477
107 472.06526077547693
150.5 547.4094709047231
" stroke="rgb(25,106,102)" stroke-width="5" fill-opacity="0.0"></path><path d="
M 63.5 396.7210506462308 C
101.17210506462307 461.97105064623076
101.17210506462307 482.1594709047231
63.5 547.4094709047231
" stroke="rgb(25,106,102)" stroke-width="5" fill-opacity="0.0"></path><path d="
M 281 321.37684051698466 C
368 321.37684051698466
368 321.37684051698466
455 321.37684051698466
" stroke="rgb(25,106,102)" stroke-width="5" fill-opacity="0.0"></path><path d="
M 281 321.37684051698466 C
356.34421012924616 321.37684051698466
373.8278949353769 331.4710506462308
411.5 396.7210506462308
" stroke="rgb(25,106,102)" stroke-width="5" fill-opacity="0.0"></path><path d="
M 237.5 396.7210506462308 C
275.1721050646231 461.9710506462308
292.65578987075384 472.065260775477
368 472.065260775477
" stroke="rgb(25,106,102)" stroke-width="5" fill-opacity="0.0"></path><path d="
M 150.5 396.7210506462308 C
112.82789493537693 461.97105064623076
112.82789493537693 482.1594709047231
150.5 547.4094709047231
" stroke="rgb(25,87,102)" stroke-width="5" fill-opacity="0.0"></path><path d="
M 150.5 396.7210506462308 C
107 472.065260775477
107 472.06526077547693
63.5 547.4094709047231
" stroke="rgb(25,87,102)" stroke-width="5" fill-opacity="0.0"></path><path d="
M 455 321.37684051698466 C
411.5 321.37684051698466
389.75 359.04894558160777
411.5 396.7210506462308
" stroke="rgb(25,87,102)" stroke-width="5" fill-opacity="0.0"></path><path d="
M 455 321.37684051698466 C
379.65578987075384 321.37684051698466
362.1721050646231 331.4710506462308
324.5 396.7210506462308
" stroke="rgb(25,87,102)" stroke-width="5" fill-opacity="0.0"></path><path d="
M 411.5 396.7210506462308 C
389.75 359.04894558160777
346.25 359.04894558160777
324.5 396.7210506462308
" stroke="rgb(25,87,102)" stroke-width="5" fill-opacity="0.0"></path><path d="
M 411.5 396.7210506462308 C
455 472.065260775477
455 472.06526077547693
498.5 547.4094709047231
" stroke="rgb(25,74,102)" stroke-width="5" fill-opacity="0.0"></path><path d="
M 194 472.065260775477 C
150.50000000000003 472.065260775477
128.75 509.73736584010004
150.5 547.4094709047231
" stroke="rgb(25,87,102)" stroke-width="5" fill-opacity="0.0"></path><path d="
M 194 472.065260775477 C
281 472.065260775477
281 472.065260775477
368 472.065260775477
" stroke="rgb(25,87,102)" stroke-width="5" fill-opacity="0.0"></path><path d="
M 150.5 547.4094709047231 C
128.75 509.7373658401
85.25 509.7373658401
63.5 547.4094709047231
" stroke="rgb(25,87,102)" stroke-width="5" fill-opacity="0.0"></path><path d="
M 368 472.065260775477 C
324.5 472.065260775477
302.75 509.73736584010004
324.5 547.4094709047231
" stroke="rgb(25,74,102)" stroke-width="5" fill-opacity="0.0"></path><path d="
M 368 472.065260775477 C
292.65578987075384 472.065260775477
275.17210506462305 482.1594709047231
237.5 547.4094709047231
" stroke="rgb(25,74,102)" stroke-width="5" fill-opacity="0.0"></path><path d="
M 368 472.065260775477 C
455 472.065260775477
455 472.065260775477
542 472.065260775477
" stroke="rgb(25,74,102)" stroke-width="5" fill-opacity="0.0"></path><path d="
M 324.5 547.4094709047231 C
346.25 585.0815759693462
389.75 585.0815759693462
411.5 547.4094709047231
" stroke="rgb(25,52,102)" stroke-width="5" fill-opacity="0.0"></path><path d="
M 542 472.065260775477 C
498.5 472.065260775477
476.75 509.73736584010004
498.5 547.4094709047231
" stroke="rgb(25,61,102)" stroke-width="5" fill-opacity="0.0"></path><line x1="110" y1="20" x2="104" y2="20" stroke="rgb(0,0,0)" stroke-width="2"></line><line x1="65" y1="97.94228634059948" x2="62" y2="92.74613391789285" stroke="rgb(255,0,255)" stroke-width="2"></line><line x1="-25" y1="97.94228634059948" x2="-22" y2="92.74613391789285" stroke="rgb(0,0,0)" stroke-width="2"></line><line x1="284" y1="20" x2="278" y2="20" stroke="rgb(255,0,125)" stroke-width="2"></line><line x1="239" y1="97.94228634059948" x2="236" y2="92.74613391789285" stroke="rgb(255,0,125)" stroke-width="2"></line><line x1="149" y1="97.94228634059948" x2="152" y2="92.74613391789285" stroke="rgb(255,0,179)" stroke-width="2"></line><line x1="458" y1="20" x2="452" y2="20" stroke="rgb(255,0,87)" stroke-width="2"></line><line x1="413" y1="97.94228634059948" x2="410" y2="92.74613391789285" stroke="rgb(255,0,125)" stroke-width="2"></line><line x1="323" y1="97.94228634059948" x2="326" y2="92.74613391789285" stroke="rgb(255,0,179)" stroke-width="2"></line><line x1="197" y1="170.68842025849233" x2="191" y2="170.68842025849233" stroke="rgb(255,0,255)" stroke-width="2"></line><line x1="152" y1="248.6307065990918" x2="149" y2="243.43455417638518" stroke="rgb(255,0,179)" stroke-width="2"></line><line x1="62" y1="248.6307065990918" x2="65" y2="243.43455417638518" stroke="rgb(255,0,179)" stroke-width="2"></line><line x1="371" y1="170.68842025849233" x2="365" y2="170.68842025849233" stroke="rgb(255,0,179)" stroke-width="2"></line><line x1="326" y1="248.6307065990918" x2="323" y2="243.43455417638518" stroke="rgb(255,0,125)" stroke-width="2"></line><line x1="236" y1="248.6307065990918" x2="239" y2="243.43455417638518" stroke="rgb(255,0,125)" stroke-width="2"></line><line x1="545" y1="170.68842025849233" x2="539" y2="170.68842025849233" stroke="rgb(255,0,87)" stroke-width="2"></line><line x1="500" y1="248.6307065990918" x2="497" y2="243.43455417638518" stroke="rgb(255,0,87)" stroke-width="2"></line><line x1="410" y1="248.6307065990918" x2="413" y2="243.43455417638518" stroke="rgb(255,0,125)" stroke-width="2"></line><line x1="110" y1="321.37684051698466" x2="104" y2="321.37684051698466" stroke="rgb(255,0,125)" stroke-width="2"></line><line x1="65" y1="399.31912685758414" x2="62" y2="394.1229744348775" stroke="rgb(255,0,125)" stroke-width="2"></line><line x1="-25" y1="399.31912685758414" x2="-22" y2="394.1229744348775" stroke="rgb(255,0,87)" stroke-width="2"></line><line x1="284" y1="321.37684051698466" x2="278" y2="321.37684051698466" stroke="rgb(255,0,125)" stroke-width="2"></line><line x1="239" y1="399.31912685758414" x2="236" y2="394.1229744348775" stroke="rgb(255,0,125)" stroke-width="2"></line><line x1="149" y1="399.31912685758414" x2="152" y2="394.1229744348775" stroke="rgb(255,0,87)" stroke-width="2"></line><line x1="458" y1="321.37684051698466" x2="452" y2="321.37684051698466" stroke="rgb(255,0,87)" stroke-width="2"></line><line x1="413" y1="399.31912685758414" x2="410" y2="394.1229744348775" stroke="rgb(255,0,87)" stroke-width="2"></line><line x1="323" y1="399.31912685758414" x2="326" y2="394.1229744348775" stroke="rgb(255,0,87)" stroke-width="2"></line><line x1="197" y1="472.065260775477" x2="191" y2="472.065260775477" stroke="rgb(255,0,87)" stroke-width="2"></line><line x1="152" y1="550.0075471160765" x2="149" y2="544.8113946933697" stroke="rgb(255,0,87)" stroke-width="2"></line><line x1="62" y1="550.0075471160765" x2="65" y2="544.8113946933697" stroke="rgb(255,0,87)" stroke-width="2"></line><line x1="371" y1="472.065260775477" x2="365" y2="472.065260775477" stroke="rgb(255,0,87)" stroke-width="2"></line><line x1="326" y1="550.0075471160765" x2="323" y2="544.8113946933697" stroke="rgb(184,0,61)" stroke-width="2"></line><line x1="236" y1="550.0075471160765" x2="239" y2="544.8113946933697" stroke="rgb(184,0,61)" stroke-width="2"></line><line x1="545" y1="472.065260775477" x2="539" y2="472.065260775477" stroke="rgb(184,0,61)" stroke-width="2"></line><line x1="500" y1="550.0075471160765" x2="497" y2="544.8113946933697" stroke="rgb(184,0,61)" stroke-width="2"></line><line x1="410" y1="550.0075471160765" x2="413" y2="544.8113946933697" stroke="rgb(129,0,43)" stroke-width="2"></line></svg>
