<svg xmlns="http://www.w3.org/2000/svg" version="1.1"><path d="
M 103 20 C
144.5 20
82.25 127.8201627711626
61.5 91.8801085141084
" stroke="#000" stroke-width="5" fill-opacity="0.0"></path><path d="
M 103 20 C
144.5 20
40.75 55.9400542570542
61.5 91.8801085141084
" stroke="#000" stroke-width="5" fill-opacity="0.0"></path><path d="
M 103 20 C
61.5 20
82.25 127.8201627711626
61.5 91.8801085141084
" stroke="#000" stroke-width="5" fill-opacity="0.0"></path><path d="
M 103 20 C
61.5 20
40.75 55.9400542570542
61.5 91.8801085141084
" stroke="#000" stroke-width="5" fill-opacity="0.0"></path><path d="
M 103 20 C
31.119891485891586 20
14.440054257054207 29.6301085141084
-21.5 91.8801085141084
" stroke="#000" stroke-width="5" fill-opacity="0.0"></path><path d="
M 103 20 C
186 20
186 20
269 20
" stroke="#000" stroke-width="5" fill-opacity="0.0"></path><path d="
M 103 20 C
174.88010851410843 20
191.55994574294579 29.6301085141084
227.5 91.8801085141084
" stroke="#000" stroke-width="5" fill-opacity="0.0"></path><path d="
M 103 20 C
144.5 20
123.75 127.8201627711626
144.5 91.8801085141084
" stroke="#000" stroke-width="5" fill-opacity="0.0"></path><path d="
M 103 20 C
144.5 20
165.25 55.9400542570542
144.5 91.8801085141084
" stroke="#000" stroke-width="5" fill-opacity="0.0"></path><path d="
M 103 20 C
61.5 20
123.75 127.8201627711626
144.5 91.8801085141084
" stroke="#000" stroke-width="5" fill-opacity="0.0"></path><path d="
M 103 20 C
61.5 20
165.25 55.9400542570542
144.5 91.8801085141084
" stroke="#000" stroke-width="5" fill-opacity="0.0"></path><path d="
M 61.5 91.8801085141084 C
82.25 127.8201627711626
-42.25 127.8201627711626
-21.5 91.8801085141084
" stroke="#000" stroke-width="5" fill-opacity="0.0"></path><path d="
M 61.5 91.8801085141084 C
82.25 127.8201627711626
-0.75 55.9400542570542
-21.5 91.8801085141084
" stroke="#000" stroke-width="5" fill-opacity="0.0"></path><path d="
M 61.5 91.8801085141084 C
40.75 55.9400542570542
-42.25 127.8201627711626
-21.5 91.8801085141084
" stroke="#000" stroke-width="5" fill-opacity="0.0"></path><path d="
M 61.5 91.8801085141084 C
40.75 55.9400542570542
-0.75 55.9400542570542
-21.5 91.8801085141084
" stroke="#000" stroke-width="5" fill-opacity="0.0"></path><path d="
M 61.5 91.8801085141084 C
82.25 127.8201627711626
123.75 127.8201627711626
144.5 91.8801085141084
" stroke="#000" stroke-width="5" fill-opacity="0.0"></path><path d="
M 61.5 91.8801085141084 C
82.25 127.8201627711626
165.25 55.9400542570542
144.5 91.8801085141084
" stroke="#000" stroke-width="5" fill-opacity="0.0"></path><path d="
M 61.5 91.8801085141084 C
40.75 55.9400542570542
123.75 127.8201627711626
144.5 91.8801085141084
" stroke="#000" stroke-width="5" fill-opacity="0.0"></path><path d="
M 61.5 91.8801085141084 C
40.75 55.9400542570542
165.25 55.9400542570542
144.5 91.8801085141084
" stroke="#000" stroke-width="5" fill-opacity="0.0"></path><path d="
M 61.5 91.8801085141084 C
97.44005425705421 154.1301085141084
114.11989148589159 163.7602170282168
186 163.7602170282168
" stroke="#000" stroke-width="5" fill-opacity="0.0"></path><path d="
M 61.5 91.8801085141084 C
103 163.7602170282168
103 163.7602170282168
144.5 235.6403255423252
" stroke="#000" stroke-width="5" fill-opacity="0.0"></path><path d="
M 61.5 91.8801085141084 C
97.4400542570542 154.1301085141084
97.4400542570542 173.3903255423252
61.5 235.6403255423252
" stroke="#000" stroke-width="5" fill-opacity="0.0"></path><path d="
M 269 20 C
310.5 20
248.25 127.8201627711626
227.5 91.8801085141084
" stroke="#000" stroke-width="5" fill-opacity="0.0"></path><path d="
M 269 20 C
310.5 20
206.75 55.9400542570542
227.5 91.8801085141084
" stroke="#000" stroke-width="5" fill-opacity="0.0"></path><path d="
M 269 20 C
227.5 20
248.25 127.8201627711626
227.5 91.8801085141084
" stroke="#000" stroke-width="5" fill-opacity="0.0"></path><path d="
M 269 20 C
227.5 20
206.75 55.9400542570542
227.5 91.8801085141084
" stroke="#000" stroke-width="5" fill-opacity="0.0"></path><path d="
M 269 20 C
197.11989148589157 20
180.44005425705421 29.6301085141084
144.5 91.8801085141084
" stroke="#000" stroke-width="5" fill-opacity="0.0"></path><path d="
M 269 20 C
352 20
352 20
435 20
" stroke="#000" stroke-width="5" fill-opacity="0.0"></path><path d="
M 269 20 C
340.88010851410843 20
357.5599457429458 29.6301085141084
393.5 91.8801085141084
" stroke="#000" stroke-width="5" fill-opacity="0.0"></path><path d="
M 269 20 C
310.5 20
289.75 127.8201627711626
310.5 91.8801085141084
" stroke="#000" stroke-width="5" fill-opacity="0.0"></path><path d="
M 269 20 C
310.5 20
331.25 55.9400542570542
310.5 91.8801085141084
" stroke="#000" stroke-width="5" fill-opacity="0.0"></path><path d="
M 269 20 C
227.5 20
289.75 127.8201627711626
310.5 91.8801085141084
" stroke="#000" stroke-width="5" fill-opacity="0.0"></path><path d="
M 269 20 C
227.5 20
331.25 55.9400542570542
310.5 91.8801085141084
" stroke="#000" stroke-width="5" fill-opacity="0.0"></path><path d="
M 227.5 91.8801085141084 C
248.25 127.8201627711626
123.75 127.8201627711626
144.5 91.8801085141084
" stroke="#000" stroke-width="5" fill-opacity="0.0"></path><path d="
M 227.5 91.8801085141084 C
248.25 127.8201627711626
165.25 55.9400542570542
144.5 91.8801085141084
" stroke="#000" stroke-width="5" fill-opacity="0.0"></path><path d="
M 227.5 91.8801085141084 C
206.75 55.9400542570542
123.75 127.8201627711626
144.5 91.8801085141084
" stroke="#000" stroke-width="5" fill-opacity="0.0"></path><path d="
M 227.5 91.8801085141084 C
206.75 55.9400542570542
165.25 55.9400542570542
144.5 91.8801085141084
" stroke="#000" stroke-width="5" fill-opacity="0.0"></path><path d="
M 227.5 91.8801085141084 C
248.25 127.8201627711626
289.75 127.8201627711626
310.5 91.8801085141084
" stroke="#000" stroke-width="5" fill-opacity="0.0"></path><path d="
M 227.5 91.8801085141084 C
248.25 127.8201627711626
331.25 55.9400542570542
310.5 91.8801085141084
" stroke="#000" stroke-width="5" fill-opacity="0.0"></path><path d="
M 227.5 91.8801085141084 C
206.75 55.9400542570542
289.75 127.8201627711626
310.5 91.8801085141084
" stroke="#000" stroke-width="5" fill-opacity="0.0"></path><path d="
M 227.5 91.8801085141084 C
206.75 55.9400542570542
331.25 55.9400542570542
310.5 91.8801085141084
" stroke="#000" stroke-width="5" fill-opacity="0.0"></path><path d="
M 227.5 91.8801085141084 C
248.25 127.8201627711626
227.5 163.7602170282168
186 163.7602170282168
" stroke="#000" stroke-width="5" fill-opacity="0.0"></path><path d="
M 227.5 91.8801085141084 C
248.25 127.8201627711626
144.5 163.7602170282168
186 163.7602170282168
" stroke="#000" stroke-width="5" fill-opacity="0.0"></path><path d="
M 227.5 91.8801085141084 C
206.75 55.9400542570542
227.5 163.7602170282168
186 163.7602170282168
" stroke="#000" stroke-width="5" fill-opacity="0.0"></path><path d="
M 227.5 91.8801085141084 C
206.75 55.9400542570542
144.5 163.7602170282168
186 163.7602170282168
" stroke="#000" stroke-width="5" fill-opacity="0.0"></path><path d="
M 227.5 91.8801085141084 C
263.4400542570542 154.1301085141084
280.11989148589157 163.7602170282168
352 163.7602170282168
" stroke="#000" stroke-width="5" fill-opacity="0.0"></path><path d="
M 227.5 91.8801085141084 C
269 163.7602170282168
269 163.7602170282168
310.5 235.6403255423252
" stroke="#000" stroke-width="5" fill-opacity="0.0"></path><path d="
M 227.5 91.8801085141084 C
263.4400542570542 154.1301085141084
263.4400542570542 173.3903255423252
227.5 235.6403255423252
" stroke="#000" stroke-width="5" fill-opacity="0.0"></path><path d="
M 144.5 91.8801085141084 C
123.75 127.8201627711626
227.5 163.7602170282168
186 163.7602170282168
" stroke="#000" stroke-width="5" fill-opacity="0.0"></path><path d="
M 144.5 91.8801085141084 C
123.75 127.8201627711626
144.5 163.7602170282168
186 163.7602170282168
" stroke="#000" stroke-width="5" fill-opacity="0.0"></path><path d="
M 144.5 91.8801085141084 C
165.25 55.9400542570542
227.5 163.7602170282168
186 163.7602170282168
" stroke="#000" stroke-width="5" fill-opacity="0.0"></path><path d="
M 144.5 91.8801085141084 C
165.25 55.9400542570542
144.5 163.7602170282168
186 163.7602170282168
" stroke="#000" stroke-width="5" fill-opacity="0.0"></path><path d="
M 144.5 91.8801085141084 C
108.5599457429458 154.1301085141084
108.5599457429458 173.3903255423252
144.5 235.6403255423252
" stroke="#000" stroke-width="5" fill-opacity="0.0"></path><path d="
M 144.5 91.8801085141084 C
103 163.7602170282168
103 163.7602170282168
61.5 235.6403255423252
" stroke="#000" stroke-width="5" fill-opacity="0.0"></path><path d="
M 435 20 C
476.5 20
414.25 127.8201627711626
393.5 91.8801085141084
" stroke="#000" stroke-width="5" fill-opacity="0.0"></path><path d="
M 435 20 C
476.5 20
372.75 55.9400542570542
393.5 91.8801085141084
" stroke="#000" stroke-width="5" fill-opacity="0.0"></path><path d="
M 435 20 C
393.5 20
414.25 127.8201627711626
393.5 91.8801085141084
" stroke="#000" stroke-width="5" fill-opacity="0.0"></path><path d="
M 435 20 C
393.5 20
372.75 55.9400542570542
393.5 91.8801085141084
" stroke="#000" stroke-width="5" fill-opacity="0.0"></path><path d="
M 435 20 C
363.11989148589157 20
346.4400542570542 29.6301085141084
310.5 91.8801085141084
" stroke="#000" stroke-width="5" fill-opacity="0.0"></path><path d="
M 393.5 91.8801085141084 C
414.25 127.8201627711626
289.75 127.8201627711626
310.5 91.8801085141084
" stroke="#000" stroke-width="5" fill-opacity="0.0"></path><path d="
M 393.5 91.8801085141084 C
414.25 127.8201627711626
331.25 55.9400542570542
310.5 91.8801085141084
" stroke="#000" stroke-width="5" fill-opacity="0.0"></path><path d="
M 393.5 91.8801085141084 C
372.75 55.9400542570542
289.75 127.8201627711626
310.5 91.8801085141084
" stroke="#000" stroke-width="5" fill-opacity="0.0"></path><path d="
M 393.5 91.8801085141084 C
372.75 55.9400542570542
331.25 55.9400542570542
310.5 91.8801085141084
" stroke="#000" stroke-width="5" fill-opacity="0.0"></path><path d="
M 393.5 91.8801085141084 C
414.25 127.8201627711626
393.5 163.7602170282168
352 163.7602170282168
" stroke="#000" stroke-width="5" fill-opacity="0.0"></path><path d="
M 393.5 91.8801085141084 C
414.25 127.8201627711626
310.5 163.7602170282168
352 163.7602170282168
" stroke="#000" stroke-width="5" fill-opacity="0.0"></path><path d="
M 393.5 91.8801085141084 C
372.75 55.9400542570542
393.5 163.7602170282168
352 163.7602170282168
" stroke="#000" stroke-width="5" fill-opacity="0.0"></path><path d="
M 393.5 91.8801085141084 C
372.75 55.9400542570542
310.5 163.7602170282168
352 163.7602170282168
" stroke="#000" stroke-width="5" fill-opacity="0.0"></path><path d="
M 393.5 91.8801085141084 C
429.4400542570542 154.1301085141084
446.11989148589157 163.7602170282168
518 163.7602170282168
" stroke="#000" stroke-width="5" fill-opacity="0.0"></path><path d="
M 393.5 91.8801085141084 C
435 163.7602170282168
435 163.7602170282168
476.5 235.6403255423252
" stroke="#000" stroke-width="5" fill-opacity="0.0"></path><path d="
M 393.5 91.8801085141084 C
429.4400542570542 154.1301085141084
429.4400542570542 173.3903255423252
393.5 235.6403255423252
" stroke="#000" stroke-width="5" fill-opacity="0.0"></path><path d="
M 310.5 91.8801085141084 C
274.5599457429458 154.1301085141084
257.88010851410843 163.7602170282168
186 163.7602170282168
" stroke="#000" stroke-width="5" fill-opacity="0.0"></path><path d="
M 310.5 91.8801085141084 C
289.75 127.8201627711626
393.5 163.7602170282168
352 163.7602170282168
" stroke="#000" stroke-width="5" fill-opacity="0.0"></path><path d="
M 310.5 91.8801085141084 C
289.75 127.8201627711626
310.5 163.7602170282168
352 163.7602170282168
" stroke="#000" stroke-width="5" fill-opacity="0.0"></path><path d="
M 310.5 91.8801085141084 C
331.25 55.9400542570542
393.5 163.7602170282168
352 163.7602170282168
" stroke="#000" stroke-width="5" fill-opacity="0.0"></path><path d="
M 310.5 91.8801085141084 C
331.25 55.9400542570542
310.5 163.7602170282168
352 163.7602170282168
" stroke="#000" stroke-width="5" fill-opacity="0.0"></path><path d="
M 310.5 91.8801085141084 C
274.5599457429458 154.1301085141084
274.5599457429458 173.3903255423252
310.5 235.6403255423252
" stroke="#000" stroke-width="5" fill-opacity="0.0"></path><path d="
M 310.5 91.8801085141084 C
269 163.7602170282168
269 163.7602170282168
227.5 235.6403255423252
" stroke="#000" stroke-width="5" fill-opacity="0.0"></path><path d="
M 186 163.7602170282168 C
227.5 163.7602170282168
165.25 271.5803797993794
144.5 235.6403255423252
" stroke="#000" stroke-width="5" fill-opacity="0.0"></path><path d="
M 186 163.7602170282168 C
227.5 163.7602170282168
123.75 199.70027128527101
144.5 235.6403255423252
" stroke="#000" stroke-width="5" fill-opacity="0.0"></path><path d="
M 186 163.7602170282168 C
144.5 163.7602170282168
165.25 271.5803797993794
144.5 235.6403255423252
" stroke="#000" stroke-width="5" fill-opacity="0.0"></path><path d="
M 186 163.7602170282168 C
144.5 163.7602170282168
123.75 199.70027128527101
144.5 235.6403255423252
" stroke="#000" stroke-width="5" fill-opacity="0.0"></path><path d="
M 186 163.7602170282168 C
114.11989148589159 163.7602170282168
97.44005425705421 173.3903255423252
61.5 235.6403255423252
" stroke="#000" stroke-width="5" fill-opacity="0.0"></path><path d="
M 186 163.7602170282168 C
269 163.7602170282168
269 163.7602170282168
352 163.7602170282168
" stroke="#000" stroke-width="5" fill-opacity="0.0"></path><path d="
M 186 163.7602170282168 C
257.88010851410843 163.7602170282168
274.5599457429458 173.3903255423252
310.5 235.6403255423252
" stroke="#000" stroke-width="5" fill-opacity="0.0"></path><path d="
M 186 163.7602170282168 C
227.5 163.7602170282168
206.75 271.5803797993794
227.5 235.6403255423252
" stroke="#000" stroke-width="5" fill-opacity="0.0"></path><path d="
M 186 163.7602170282168 C
227.5 163.7602170282168
248.25 199.70027128527101
227.5 235.6403255423252
" stroke="#000" stroke-width="5" fill-opacity="0.0"></path><path d="
M 186 163.7602170282168 C
144.5 163.7602170282168
206.75 271.5803797993794
227.5 235.6403255423252
" stroke="#000" stroke-width="5" fill-opacity="0.0"></path><path d="
M 186 163.7602170282168 C
144.5 163.7602170282168
248.25 199.70027128527101
227.5 235.6403255423252
" stroke="#000" stroke-width="5" fill-opacity="0.0"></path><path d="
M 144.5 235.6403255423252 C
165.25 271.5803797993794
40.75 271.5803797993794
61.5 235.6403255423252
" stroke="#000" stroke-width="5" fill-opacity="0.0"></path><path d="
M 144.5 235.6403255423252 C
165.25 271.5803797993794
82.25 199.70027128527101
61.5 235.6403255423252
" stroke="#000" stroke-width="5" fill-opacity="0.0"></path><path d="
M 144.5 235.6403255423252 C
123.75 199.70027128527101
40.75 271.5803797993794
61.5 235.6403255423252
" stroke="#000" stroke-width="5" fill-opacity="0.0"></path><path d="
M 144.5 235.6403255423252 C
123.75 199.70027128527101
82.25 199.70027128527101
61.5 235.6403255423252
" stroke="#000" stroke-width="5" fill-opacity="0.0"></path><path d="
M 144.5 235.6403255423252 C
165.25 271.5803797993794
206.75 271.5803797993794
227.5 235.6403255423252
" stroke="#000" stroke-width="5" fill-opacity="0.0"></path><path d="
M 144.5 235.6403255423252 C
165.25 271.5803797993794
248.25 199.70027128527101
227.5 235.6403255423252
" stroke="#000" stroke-width="5" fill-opacity="0.0"></path><path d="
M 144.5 235.6403255423252 C
123.75 199.70027128527101
206.75 271.5803797993794
227.5 235.6403255423252
" stroke="#000" stroke-width="5" fill-opacity="0.0"></path><path d="
M 144.5 235.6403255423252 C
123.75 199.70027128527101
248.25 199.70027128527101
227.5 235.6403255423252
" stroke="#000" stroke-width="5" fill-opacity="0.0"></path><path d="
M 144.5 235.6403255423252 C
165.25 271.5803797993794
144.5 307.5204340564336
103 307.5204340564336
" stroke="#000" stroke-width="5" fill-opacity="0.0"></path><path d="
M 144.5 235.6403255423252 C
165.25 271.5803797993794
61.5 307.5204340564336
103 307.5204340564336
" stroke="#000" stroke-width="5" fill-opacity="0.0"></path><path d="
M 144.5 235.6403255423252 C
123.75 199.70027128527101
144.5 307.5204340564336
103 307.5204340564336
" stroke="#000" stroke-width="5" fill-opacity="0.0"></path><path d="
M 144.5 235.6403255423252 C
123.75 199.70027128527101
61.5 307.5204340564336
103 307.5204340564336
" stroke="#000" stroke-width="5" fill-opacity="0.0"></path><path d="
M 144.5 235.6403255423252 C
180.44005425705421 297.8903255423252
197.11989148589157 307.5204340564336
269 307.5204340564336
" stroke="#000" stroke-width="5" fill-opacity="0.0"></path><path d="
M 144.5 235.6403255423252 C
186 307.5204340564336
186 307.5204340564336
227.5 379.40054257054203
" stroke="#000" stroke-width="5" fill-opacity="0.0"></path><path d="
M 144.5 235.6403255423252 C
180.44005425705421 297.8903255423252
180.44005425705421 317.15054257054203
144.5 379.40054257054203
" stroke="#000" stroke-width="5" fill-opacity="0.0"></path><path d="
M 61.5 235.6403255423252 C
40.75 271.5803797993794
144.5 307.5204340564336
103 307.5204340564336
" stroke="#000" stroke-width="5" fill-opacity="0.0"></path><path d="
M 61.5 235.6403255423252 C
40.75 271.5803797993794
61.5 307.5204340564336
103 307.5204340564336
" stroke="#000" stroke-width="5" fill-opacity="0.0"></path><path d="
M 61.5 235.6403255423252 C
82.25 199.70027128527101
144.5 307.5204340564336
103 307.5204340564336
" stroke="#000" stroke-width="5" fill-opacity="0.0"></path><path d="
M 61.5 235.6403255423252 C
82.25 199.70027128527101
61.5 307.5204340564336
103 307.5204340564336
" stroke="#000" stroke-width="5" fill-opacity="0.0"></path><path d="
M 61.5 235.6403255423252 C
25.559945742945793 297.8903255423252
25.559945742945793 317.15054257054203
61.5 379.40054257054203
" stroke="#000" stroke-width="5" fill-opacity="0.0"></path><path d="
M 61.5 235.6403255423252 C
20 307.5204340564336
20 307.5204340564336
-21.5 379.40054257054203
" stroke="#000" stroke-width="5" fill-opacity="0.0"></path><path d="
M 352 163.7602170282168 C
393.5 163.7602170282168
331.25 271.5803797993794
310.5 235.6403255423252
" stroke="#000" stroke-width="5" fill-opacity="0.0"></path><path d="
M 352 163.7602170282168 C
393.5 163.7602170282168
289.75 199.70027128527101
310.5 235.6403255423252
" stroke="#000" stroke-width="5" fill-opacity="0.0"></path><path d="
M 352 163.7602170282168 C
310.5 163.7602170282168
331.25 271.5803797993794
310.5 235.6403255423252
" stroke="#000" stroke-width="5" fill-opacity="0.0"></path><path d="
M 352 163.7602170282168 C
310.5 163.7602170282168
289.75 199.70027128527101
310.5 235.6403255423252
" stroke="#000" stroke-width="5" fill-opacity="0.0"></path><path d="
M 352 163.7602170282168 C
280.11989148589157 163.7602170282168
263.4400542570542 173.3903255423252
227.5 235.6403255423252
" stroke="#000" stroke-width="5" fill-opacity="0.0"></path><path d="
M 352 163.7602170282168 C
435 163.7602170282168
435 163.7602170282168
518 163.7602170282168
" stroke="#000" stroke-width="5" fill-opacity="0.0"></path><path d="
M 352 163.7602170282168 C
423.88010851410843 163.7602170282168
440.5599457429458 173.3903255423252
476.5 235.6403255423252
" stroke="#000" stroke-width="5" fill-opacity="0.0"></path><path d="
M 352 163.7602170282168 C
393.5 163.7602170282168
372.75 271.5803797993794
393.5 235.6403255423252
" stroke="#000" stroke-width="5" fill-opacity="0.0"></path><path d="
M 352 163.7602170282168 C
393.5 163.7602170282168
414.25 199.70027128527101
393.5 235.6403255423252
" stroke="#000" stroke-width="5" fill-opacity="0.0"></path><path d="
M 352 163.7602170282168 C
310.5 163.7602170282168
372.75 271.5803797993794
393.5 235.6403255423252
" stroke="#000" stroke-width="5" fill-opacity="0.0"></path><path d="
M 352 163.7602170282168 C
310.5 163.7602170282168
414.25 199.70027128527101
393.5 235.6403255423252
" stroke="#000" stroke-width="5" fill-opacity="0.0"></path><path d="
M 310.5 235.6403255423252 C
331.25 271.5803797993794
206.75 271.5803797993794
227.5 235.6403255423252
" stroke="#000" stroke-width="5" fill-opacity="0.0"></path><path d="
M 310.5 235.6403255423252 C
331.25 271.5803797993794
248.25 199.70027128527101
227.5 235.6403255423252
" stroke="#000" stroke-width="5" fill-opacity="0.0"></path><path d="
M 310.5 235.6403255423252 C
289.75 199.70027128527101
206.75 271.5803797993794
227.5 235.6403255423252
" stroke="#000" stroke-width="5" fill-opacity="0.0"></path><path d="
M 310.5 235.6403255423252 C
289.75 199.70027128527101
248.25 199.70027128527101
227.5 235.6403255423252
" stroke="#000" stroke-width="5" fill-opacity="0.0"></path><path d="
M 310.5 235.6403255423252 C
331.25 271.5803797993794
372.75 271.5803797993794
393.5 235.6403255423252
" stroke="#000" stroke-width="5" fill-opacity="0.0"></path><path d="
M 310.5 235.6403255423252 C
331.25 271.5803797993794
414.25 199.70027128527101
393.5 235.6403255423252
" stroke="#000" stroke-width="5" fill-opacity="0.0"></path><path d="
M 310.5 235.6403255423252 C
289.75 199.70027128527101
372.75 271.5803797993794
393.5 235.6403255423252
" stroke="#000" stroke-width="5" fill-opacity="0.0"></path><path d="
M 310.5 235.6403255423252 C
289.75 199.70027128527101
414.25 199.70027128527101
393.5 235.6403255423252
" stroke="#000" stroke-width="5" fill-opacity="0.0"></path><path d="
M 310.5 235.6403255423252 C
331.25 271.5803797993794
310.5 307.5204340564336
269 307.5204340564336
" stroke="#000" stroke-width="5" fill-opacity="0.0"></path><path d="
M 310.5 235.6403255423252 C
331.25 271.5803797993794
227.5 307.5204340564336
269 307.5204340564336
" stroke="#000" stroke-width="5" fill-opacity="0.0"></path><path d="
M 310.5 235.6403255423252 C
289.75 199.70027128527101
310.5 307.5204340564336
269 307.5204340564336
" stroke="#000" stroke-width="5" fill-opacity="0.0"></path><path d="
M 310.5 235.6403255423252 C
289.75 199.70027128527101
227.5 307.5204340564336
269 307.5204340564336
" stroke="#000" stroke-width="5" fill-opacity="0.0"></path><path d="
M 310.5 235.6403255423252 C
346.4400542570542 297.8903255423252
363.11989148589157 307.5204340564336
435 307.5204340564336
" stroke="#000" stroke-width="5" fill-opacity="0.0"></path><path d="
M 310.5 235.6403255423252 C
352 307.5204340564336
352 307.5204340564336
393.5 379.40054257054203
" stroke="#000" stroke-width="5" fill-opacity="0.0"></path><path d="
M 310.5 235.6403255423252 C
346.4400542570542 297.8903255423252
346.4400542570542 317.15054257054203
310.5 379.40054257054203
" stroke="#000" stroke-width="5" fill-opacity="0.0"></path><path d="
M 227.5 235.6403255423252 C
191.55994574294579 297.8903255423252
174.88010851410843 307.5204340564336
103 307.5204340564336
" stroke="#000" stroke-width="5" fill-opacity="0.0"></path><path d="
M 227.5 235.6403255423252 C
206.75 271.5803797993794
310.5 307.5204340564336
269 307.5204340564336
" stroke="#000" stroke-width="5" fill-opacity="0.0"></path><path d="
M 227.5 235.6403255423252 C
206.75 271.5803797993794
227.5 307.5204340564336
269 307.5204340564336
" stroke="#000" stroke-width="5" fill-opacity="0.0"></path><path d="
M 227.5 235.6403255423252 C
248.25 199.70027128527101
310.5 307.5204340564336
269 307.5204340564336
" stroke="#000" stroke-width="5" fill-opacity="0.0"></path><path d="
M 227.5 235.6403255423252 C
248.25 199.70027128527101
227.5 307.5204340564336
269 307.5204340564336
" stroke="#000" stroke-width="5" fill-opacity="0.0"></path><path d="
M 227.5 235.6403255423252 C
191.55994574294579 297.8903255423252
191.55994574294579 317.15054257054203
227.5 379.40054257054203
" stroke="#000" stroke-width="5" fill-opacity="0.0"></path><path d="
M 227.5 235.6403255423252 C
186 307.5204340564336
186 307.5204340564336
144.5 379.40054257054203
" stroke="#000" stroke-width="5" fill-opacity="0.0"></path><path d="
M 518 163.7602170282168 C
559.5 163.7602170282168
497.25 271.5803797993794
476.5 235.6403255423252
" stroke="#000" stroke-width="5" fill-opacity="0.0"></path><path d="
M 518 163.7602170282168 C
559.5 163.7602170282168
455.75 199.70027128527101
476.5 235.6403255423252
" stroke="#000" stroke-width="5" fill-opacity="0.0"></path><path d="
M 518 163.7602170282168 C
476.5 163.7602170282168
497.25 271.5803797993794
476.5 235.6403255423252
" stroke="#000" stroke-width="5" fill-opacity="0.0"></path><path d="
M 518 163.7602170282168 C
476.5 163.7602170282168
455.75 199.70027128527101
476.5 235.6403255423252
" stroke="#000" stroke-width="5" fill-opacity="0.0"></path><path d="
M 518 163.7602170282168 C
446.11989148589157 163.7602170282168
429.4400542570542 173.3903255423252
393.5 235.6403255423252
" stroke="#000" stroke-width="5" fill-opacity="0.0"></path><path d="
M 476.5 235.6403255423252 C
497.25 271.5803797993794
372.75 271.5803797993794
393.5 235.6403255423252
" stroke="#000" stroke-width="5" fill-opacity="0.0"></path><path d="
M 476.5 235.6403255423252 C
497.25 271.5803797993794
414.25 199.70027128527101
393.5 235.6403255423252
" stroke="#000" stroke-width="5" fill-opacity="0.0"></path><path d="
M 476.5 235.6403255423252 C
455.75 199.70027128527101
372.75 271.5803797993794
393.5 235.6403255423252
" stroke="#000" stroke-width="5" fill-opacity="0.0"></path><path d="
M 476.5 235.6403255423252 C
455.75 199.70027128527101
414.25 199.70027128527101
393.5 235.6403255423252
" stroke="#000" stroke-width="5" fill-opacity="0.0"></path><path d="
M 476.5 235.6403255423252 C
497.25 271.5803797993794
476.5 307.5204340564336
435 307.5204340564336
" stroke="#000" stroke-width="5" fill-opacity="0.0"></path><path d="
M 476.5 235.6403255423252 C
497.25 271.5803797993794
393.5 307.5204340564336
435 307.5204340564336
" stroke="#000" stroke-width="5" fill-opacity="0.0"></path><path d="
M 476.5 235.6403255423252 C
455.75 199.70027128527101
476.5 307.5204340564336
435 307.5204340564336
" stroke="#000" stroke-width="5" fill-opacity="0.0"></path><path d="
M 476.5 235.6403255423252 C
455.75 199.70027128527101
393.5 307.5204340564336
435 307.5204340564336
" stroke="#000" stroke-width="5" fill-opacity="0.0"></path><path d="
M 393.5 235.6403255423252 C
357.5599457429458 297.8903255423252
340.88010851410843 307.5204340564336
269 307.5204340564336
" stroke="#000" stroke-width="5" fill-opacity="0.0"></path><path d="
M 393.5 235.6403255423252 C
372.75 271.5803797993794
476.5 307.5204340564336
435 307.5204340564336
" stroke="#000" stroke-width="5" fill-opacity="0.0"></path><path d="
M 393.5 235.6403255423252 C
372.75 271.5803797993794
393.5 307.5204340564336
435 307.5204340564336
" stroke="#000" stroke-width="5" fill-opacity="0.0"></path><path d="
M 393.5 235.6403255423252 C
414.25 199.70027128527101
476.5 307.5204340564336
435 307.5204340564336
" stroke="#000" stroke-width="5" fill-opacity="0.0"></path><path d="
M 393.5 235.6403255423252 C
414.25 199.70027128527101
393.5 307.5204340564336
435 307.5204340564336
" stroke="#000" stroke-width="5" fill-opacity="0.0"></path><path d="
M 393.5 235.6403255423252 C
357.5599457429458 297.8903255423252
357.5599457429458 317.15054257054203
393.5 379.40054257054203
" stroke="#000" stroke-width="5" fill-opacity="0.0"></path><path d="
M 393.5 235.6403255423252 C
352 307.5204340564336
352 307.5204340564336
310.5 379.40054257054203
" stroke="#000" stroke-width="5" fill-opacity="0.0"></path><path d="
M 103 307.5204340564336 C
144.5 307.5204340564336
82.25 415.34059682759624
61.5 379.40054257054203
" stroke="#000" stroke-width="5" fill-opacity="0.0"></path><path d="
M 103 307.5204340564336 C
144.5 307.5204340564336
40.75 343.4604883134878
61.5 379.40054257054203
" stroke="#000" stroke-width="5" fill-opacity="0.0"></path><path d="
M 103 307.5204340564336 C
61.49999999999999 307.5204340564336
82.25 415.34059682759624
61.5 379.40054257054203
" stroke="#000" stroke-width="5" fill-opacity="0.0"></path><path d="
M 103 307.5204340564336 C
61.49999999999999 307.5204340564336
40.75 343.4604883134878
61.5 379.40054257054203
" stroke="#000" stroke-width="5" fill-opacity="0.0"></path><path d="
M 103 307.5204340564336 C
31.119891485891586 307.5204340564336
14.440054257054207 317.15054257054203
-21.5 379.40054257054203
" stroke="#000" stroke-width="5" fill-opacity="0.0"></path><path d="
M 103 307.5204340564336 C
186 307.5204340564336
186 307.5204340564336
269 307.5204340564336
" stroke="#000" stroke-width="5" fill-opacity="0.0"></path><path d="
M 103 307.5204340564336 C
174.88010851410843 307.5204340564336
191.55994574294579 317.15054257054203
227.5 379.40054257054203
" stroke="#000" stroke-width="5" fill-opacity="0.0"></path><path d="
M 103 307.5204340564336 C
144.5 307.5204340564336
123.75 415.34059682759624
144.5 379.40054257054203
" stroke="#000" stroke-width="5" fill-opacity="0.0"></path><path d="
M 103 307.5204340564336 C
144.5 307.5204340564336
165.25 343.4604883134878
144.5 379.40054257054203
" stroke="#000" stroke-width="5" fill-opacity="0.0"></path><path d="
M 103 307.5204340564336 C
61.49999999999999 307.5204340564336
123.75 415.34059682759624
144.5 379.40054257054203
" stroke="#000" stroke-width="5" fill-opacity="0.0"></path><path d="
M 103 307.5204340564336 C
61.49999999999999 307.5204340564336
165.25 343.4604883134878
144.5 379.40054257054203
" stroke="#000" stroke-width="5" fill-opacity="0.0"></path><path d="
M 61.5 379.40054257054203 C
82.25 415.34059682759624
-42.25 415.34059682759624
-21.5 379.40054257054203
" stroke="#000" stroke-width="5" fill-opacity="0.0"></path><path d="
M 61.5 379.40054257054203 C
82.25 415.34059682759624
-0.75 343.4604883134878
-21.5 379.40054257054203
" stroke="#000" stroke-width="5" fill-opacity="0.0"></path><path d="
M 61.5 379.40054257054203 C
40.75 343.4604883134878
-42.25 415.34059682759624
-21.5 379.40054257054203
" stroke="#000" stroke-width="5" fill-opacity="0.0"></path><path d="
M 61.5 379.40054257054203 C
40.75 343.4604883134878
-0.75 343.4604883134878
-21.5 379.40054257054203
" stroke="#000" stroke-width="5" fill-opacity="0.0"></path><path d="
M 61.5 379.40054257054203 C
82.25 415.34059682759624
123.75 415.34059682759624
144.5 379.40054257054203
" stroke="#000" stroke-width="5" fill-opacity="0.0"></path><path d="
M 61.5 379.40054257054203 C
82.25 415.34059682759624
165.25 343.4604883134878
144.5 379.40054257054203
" stroke="#000" stroke-width="5" fill-opacity="0.0"></path><path d="
M 61.5 379.40054257054203 C
40.75 343.4604883134878
123.75 415.34059682759624
144.5 379.40054257054203
" stroke="#000" stroke-width="5" fill-opacity="0.0"></path><path d="
M 61.5 379.40054257054203 C
40.75 343.4604883134878
165.25 343.4604883134878
144.5 379.40054257054203
" stroke="#000" stroke-width="5" fill-opacity="0.0"></path><path d="
M 61.5 379.40054257054203 C
97.4400542570542 441.65054257054203
114.1198914858916 451.2806510846504
186 451.2806510846504
" stroke="#000" stroke-width="5" fill-opacity="0.0"></path><path d="
M 61.5 379.40054257054203 C
102.99999999999999 451.2806510846504
103.00000000000001 451.2806510846504
144.5 523.1607595987588
" stroke="#000" stroke-width="5" fill-opacity="0.0"></path><path d="
M 61.5 379.40054257054203 C
97.44005425705419 441.650542570542
97.44005425705419 460.91075959875883
61.5 523.1607595987588
" stroke="#000" stroke-width="5" fill-opacity="0.0"></path><path d="
M 269 307.5204340564336 C
310.5 307.5204340564336
248.25 415.34059682759624
227.5 379.40054257054203
" stroke="#000" stroke-width="5" fill-opacity="0.0"></path><path d="
M 269 307.5204340564336 C
310.5 307.5204340564336
206.75 343.4604883134878
227.5 379.40054257054203
" stroke="#000" stroke-width="5" fill-opacity="0.0"></path><path d="
M 269 307.5204340564336 C
227.5 307.5204340564336
248.25 415.34059682759624
227.5 379.40054257054203
" stroke="#000" stroke-width="5" fill-opacity="0.0"></path><path d="
M 269 307.5204340564336 C
227.5 307.5204340564336
206.75 343.4604883134878
227.5 379.40054257054203
" stroke="#000" stroke-width="5" fill-opacity="0.0"></path><path d="
M 269 307.5204340564336 C
197.11989148589157 307.5204340564336
180.44005425705421 317.15054257054203
144.5 379.40054257054203
" stroke="#000" stroke-width="5" fill-opacity="0.0"></path><path d="
M 269 307.5204340564336 C
352 307.5204340564336
352 307.5204340564336
435 307.5204340564336
" stroke="#000" stroke-width="5" fill-opacity="0.0"></path><path d="
M 269 307.5204340564336 C
340.88010851410843 307.5204340564336
357.5599457429458 317.15054257054203
393.5 379.40054257054203
" stroke="#000" stroke-width="5" fill-opacity="0.0"></path><path d="
M 269 307.5204340564336 C
310.5 307.5204340564336
289.75 415.34059682759624
310.5 379.40054257054203
" stroke="#000" stroke-width="5" fill-opacity="0.0"></path><path d="
M 269 307.5204340564336 C
310.5 307.5204340564336
331.25 343.4604883134878
310.5 379.40054257054203
" stroke="#000" stroke-width="5" fill-opacity="0.0"></path><path d="
M 269 307.5204340564336 C
227.5 307.5204340564336
289.75 415.34059682759624
310.5 379.40054257054203
" stroke="#000" stroke-width="5" fill-opacity="0.0"></path><path d="
M 269 307.5204340564336 C
227.5 307.5204340564336
331.25 343.4604883134878
310.5 379.40054257054203
" stroke="#000" stroke-width="5" fill-opacity="0.0"></path><path d="
M 227.5 379.40054257054203 C
248.25 415.34059682759624
123.75 415.34059682759624
144.5 379.40054257054203
" stroke="#000" stroke-width="5" fill-opacity="0.0"></path><path d="
M 227.5 379.40054257054203 C
248.25 415.34059682759624
165.25 343.4604883134878
144.5 379.40054257054203
" stroke="#000" stroke-width="5" fill-opacity="0.0"></path><path d="
M 227.5 379.40054257054203 C
206.75 343.4604883134878
123.75 415.34059682759624
144.5 379.40054257054203
" stroke="#000" stroke-width="5" fill-opacity="0.0"></path><path d="
M 227.5 379.40054257054203 C
206.75 343.4604883134878
165.25 343.4604883134878
144.5 379.40054257054203
" stroke="#000" stroke-width="5" fill-opacity="0.0"></path><path d="
M 227.5 379.40054257054203 C
248.25 415.34059682759624
289.75 415.34059682759624
310.5 379.40054257054203
" stroke="#000" stroke-width="5" fill-opacity="0.0"></path><path d="
M 227.5 379.40054257054203 C
248.25 415.34059682759624
331.25 343.4604883134878
310.5 379.40054257054203
" stroke="#000" stroke-width="5" fill-opacity="0.0"></path><path d="
M 227.5 379.40054257054203 C
206.75 343.4604883134878
289.75 415.34059682759624
310.5 379.40054257054203
" stroke="#000" stroke-width="5" fill-opacity="0.0"></path><path d="
M 227.5 379.40054257054203 C
206.75 343.4604883134878
331.25 343.4604883134878
310.5 379.40054257054203
" stroke="#000" stroke-width="5" fill-opacity="0.0"></path><path d="
M 227.5 379.40054257054203 C
248.25 415.34059682759624
227.5 451.2806510846504
186 451.2806510846504
" stroke="#000" stroke-width="5" fill-opacity="0.0"></path><path d="
M 227.5 379.40054257054203 C
248.25 415.34059682759624
144.5 451.2806510846504
186 451.2806510846504
" stroke="#000" stroke-width="5" fill-opacity="0.0"></path><path d="
M 227.5 379.40054257054203 C
206.75 343.4604883134878
227.5 451.2806510846504
186 451.2806510846504
" stroke="#000" stroke-width="5" fill-opacity="0.0"></path><path d="
M 227.5 379.40054257054203 C
206.75 343.4604883134878
144.5 451.2806510846504
186 451.2806510846504
" stroke="#000" stroke-width="5" fill-opacity="0.0"></path><path d="
M 227.5 379.40054257054203 C
263.4400542570542 441.65054257054203
280.11989148589157 451.2806510846504
352 451.2806510846504
" stroke="#000" stroke-width="5" fill-opacity="0.0"></path><path d="
M 227.5 379.40054257054203 C
269 451.2806510846504
269 451.2806510846504
310.5 523.1607595987588
" stroke="#000" stroke-width="5" fill-opacity="0.0"></path><path d="
M 227.5 379.40054257054203 C
263.44005425705416 441.650542570542
263.44005425705416 460.91075959875883
227.5 523.1607595987588
" stroke="#000" stroke-width="5" fill-opacity="0.0"></path><path d="
M 144.5 379.40054257054203 C
123.75 415.34059682759624
227.5 451.2806510846504
186 451.2806510846504
" stroke="#000" stroke-width="5" fill-opacity="0.0"></path><path d="
M 144.5 379.40054257054203 C
123.75 415.34059682759624
144.5 451.2806510846504
186 451.2806510846504
" stroke="#000" stroke-width="5" fill-opacity="0.0"></path><path d="
M 144.5 379.40054257054203 C
165.25 343.4604883134878
227.5 451.2806510846504
186 451.2806510846504
" stroke="#000" stroke-width="5" fill-opacity="0.0"></path><path d="
M 144.5 379.40054257054203 C
165.25 343.4604883134878
144.5 451.2806510846504
186 451.2806510846504
" stroke="#000" stroke-width="5" fill-opacity="0.0"></path><path d="
M 144.5 379.40054257054203 C
108.55994574294581 441.650542570542
108.55994574294581 460.91075959875883
144.5 523.1607595987588
" stroke="#000" stroke-width="5" fill-opacity="0.0"></path><path d="
M 144.5 379.40054257054203 C
103.00000000000001 451.2806510846504
102.99999999999999 451.2806510846504
61.5 523.1607595987588
" stroke="#000" stroke-width="5" fill-opacity="0.0"></path><path d="
M 435 307.5204340564336 C
476.5 307.5204340564336
414.25 415.34059682759624
393.5 379.40054257054203
" stroke="#000" stroke-width="5" fill-opacity="0.0"></path><path d="
M 435 307.5204340564336 C
476.5 307.5204340564336
372.75 343.4604883134878
393.5 379.40054257054203
" stroke="#000" stroke-width="5" fill-opacity="0.0"></path><path d="
M 435 307.5204340564336 C
393.5 307.5204340564336
414.25 415.34059682759624
393.5 379.40054257054203
" stroke="#000" stroke-width="5" fill-opacity="0.0"></path><path d="
M 435 307.5204340564336 C
393.5 307.5204340564336
372.75 343.4604883134878
393.5 379.40054257054203
" stroke="#000" stroke-width="5" fill-opacity="0.0"></path><path d="
M 435 307.5204340564336 C
363.11989148589157 307.5204340564336
346.4400542570542 317.15054257054203
310.5 379.40054257054203
" stroke="#000" stroke-width="5" fill-opacity="0.0"></path><path d="
M 393.5 379.40054257054203 C
414.25 415.34059682759624
289.75 415.34059682759624
310.5 379.40054257054203
" stroke="#000" stroke-width="5" fill-opacity="0.0"></path><path d="
M 393.5 379.40054257054203 C
414.25 415.34059682759624
331.25 343.4604883134878
310.5 379.40054257054203
" stroke="#000" stroke-width="5" fill-opacity="0.0"></path><path d="
M 393.5 379.40054257054203 C
372.75 343.4604883134878
289.75 415.34059682759624
310.5 379.40054257054203
" stroke="#000" stroke-width="5" fill-opacity="0.0"></path><path d="
M 393.5 379.40054257054203 C
372.75 343.4604883134878
331.25 343.4604883134878
310.5 379.40054257054203
" stroke="#000" stroke-width="5" fill-opacity="0.0"></path><path d="
M 393.5 379.40054257054203 C
414.25 415.34059682759624
393.5 451.2806510846504
352 451.2806510846504
" stroke="#000" stroke-width="5" fill-opacity="0.0"></path><path d="
M 393.5 379.40054257054203 C
414.25 415.34059682759624
310.5 451.2806510846504
352 451.2806510846504
" stroke="#000" stroke-width="5" fill-opacity="0.0"></path><path d="
M 393.5 379.40054257054203 C
372.75 343.4604883134878
393.5 451.2806510846504
352 451.2806510846504
" stroke="#000" stroke-width="5" fill-opacity="0.0"></path><path d="
M 393.5 379.40054257054203 C
372.75 343.4604883134878
310.5 451.2806510846504
352 451.2806510846504
" stroke="#000" stroke-width="5" fill-opacity="0.0"></path><path d="
M 393.5 379.40054257054203 C
429.4400542570542 441.65054257054203
446.11989148589157 451.2806510846504
518 451.2806510846504
" stroke="#000" stroke-width="5" fill-opacity="0.0"></path><path d="
M 393.5 379.40054257054203 C
435 451.2806510846504
435 451.2806510846504
476.5 523.1607595987588
" stroke="#000" stroke-width="5" fill-opacity="0.0"></path><path d="
M 393.5 379.40054257054203 C
429.44005425705416 441.650542570542
429.44005425705416 460.91075959875883
393.5 523.1607595987588
" stroke="#000" stroke-width="5" fill-opacity="0.0"></path><path d="
M 310.5 379.40054257054203 C
274.5599457429458 441.65054257054203
257.88010851410843 451.2806510846504
186 451.2806510846504
" stroke="#000" stroke-width="5" fill-opacity="0.0"></path><path d="
M 310.5 379.40054257054203 C
289.75 415.34059682759624
393.5 451.2806510846504
352 451.2806510846504
" stroke="#000" stroke-width="5" fill-opacity="0.0"></path><path d="
M 310.5 379.40054257054203 C
289.75 415.34059682759624
310.5 451.2806510846504
352 451.2806510846504
" stroke="#000" stroke-width="5" fill-opacity="0.0"></path><path d="
M 310.5 379.40054257054203 C
331.25 343.4604883134878
393.5 451.2806510846504
352 451.2806510846504
" stroke="#000" stroke-width="5" fill-opacity="0.0"></path><path d="
M 310.5 379.40054257054203 C
331.25 343.4604883134878
310.5 451.2806510846504
352 451.2806510846504
" stroke="#000" stroke-width="5" fill-opacity="0.0"></path><path d="
M 310.5 379.40054257054203 C
274.55994574294584 441.650542570542
274.55994574294584 460.91075959875883
310.5 523.1607595987588
" stroke="#000" stroke-width="5" fill-opacity="0.0"></path><path d="
M 310.5 379.40054257054203 C
269 451.2806510846504
269 451.2806510846504
227.5 523.1607595987588
" stroke="#000" stroke-width="5" fill-opacity="0.0"></path><path d="
M 186 451.2806510846504 C
227.5 451.2806510846504
165.25 559.1008138558129
144.5 523.1607595987588
" stroke="#000" stroke-width="5" fill-opacity="0.0"></path><path d="
M 186 451.2806510846504 C
227.5 451.2806510846504
123.75 487.22070534170456
144.5 523.1607595987588
" stroke="#000" stroke-width="5" fill-opacity="0.0"></path><path d="
M 186 451.2806510846504 C
144.5 451.2806510846504
165.25 559.1008138558129
144.5 523.1607595987588
" stroke="#000" stroke-width="5" fill-opacity="0.0"></path><path d="
M 186 451.2806510846504 C
144.5 451.2806510846504
123.75 487.22070534170456
144.5 523.1607595987588
" stroke="#000" stroke-width="5" fill-opacity="0.0"></path><path d="
M 186 451.2806510846504 C
114.1198914858916 451.2806510846504
97.4400542570542 460.9107595987588
61.5 523.1607595987588
" stroke="#000" stroke-width="5" fill-opacity="0.0"></path><path d="
M 186 451.2806510846504 C
269 451.2806510846504
269 451.2806510846504
352 451.2806510846504
" stroke="#000" stroke-width="5" fill-opacity="0.0"></path><path d="
M 186 451.2806510846504 C
257.88010851410843 451.2806510846504
274.5599457429458 460.9107595987588
310.5 523.1607595987588
" stroke="#000" stroke-width="5" fill-opacity="0.0"></path><path d="
M 186 451.2806510846504 C
227.5 451.2806510846504
206.75 559.1008138558129
227.5 523.1607595987588
" stroke="#000" stroke-width="5" fill-opacity="0.0"></path><path d="
M 186 451.2806510846504 C
227.5 451.2806510846504
248.25 487.22070534170456
227.5 523.1607595987588
" stroke="#000" stroke-width="5" fill-opacity="0.0"></path><path d="
M 186 451.2806510846504 C
144.5 451.2806510846504
206.75 559.1008138558129
227.5 523.1607595987588
" stroke="#000" stroke-width="5" fill-opacity="0.0"></path><path d="
M 186 451.2806510846504 C
144.5 451.2806510846504
248.25 487.22070534170456
227.5 523.1607595987588
" stroke="#000" stroke-width="5" fill-opacity="0.0"></path><path d="
M 144.5 523.1607595987588 C
165.25 559.1008138558129
40.75 559.1008138558129
61.5 523.1607595987588
" stroke="#000" stroke-width="5" fill-opacity="0.0"></path><path d="
M 144.5 523.1607595987588 C
165.25 559.1008138558129
82.25 487.22070534170456
61.5 523.1607595987588
" stroke="#000" stroke-width="5" fill-opacity="0.0"></path><path d="
M 144.5 523.1607595987588 C
123.75 487.22070534170456
40.75 559.1008138558129
61.5 523.1607595987588
" stroke="#000" stroke-width="5" fill-opacity="0.0"></path><path d="
M 144.5 523.1607595987588 C
123.75 487.22070534170456
82.25 487.22070534170456
61.5 523.1607595987588
" stroke="#000" stroke-width="5" fill-opacity="0.0"></path><path d="
M 144.5 523.1607595987588 C
165.25 559.1008138558129
206.75 559.1008138558129
227.5 523.1607595987588
" stroke="#000" stroke-width="5" fill-opacity="0.0"></path><path d="
M 144.5 523.1607595987588 C
165.25 559.1008138558129
248.25 487.22070534170456
227.5 523.1607595987588
" stroke="#000" stroke-width="5" fill-opacity="0.0"></path><path d="
M 144.5 523.1607595987588 C
123.75 487.22070534170456
206.75 559.1008138558129
227.5 523.1607595987588
" stroke="#000" stroke-width="5" fill-opacity="0.0"></path><path d="
M 144.5 523.1607595987588 C
123.75 487.22070534170456
248.25 487.22070534170456
227.5 523.1607595987588
" stroke="#000" stroke-width="5" fill-opacity="0.0"></path><path d="
M 352 451.2806510846504 C
393.5 451.2806510846504
331.25 559.1008138558129
310.5 523.1607595987588
" stroke="#000" stroke-width="5" fill-opacity="0.0"></path><path d="
M 352 451.2806510846504 C
393.5 451.2806510846504
289.75 487.22070534170456
310.5 523.1607595987588
" stroke="#000" stroke-width="5" fill-opacity="0.0"></path><path d="
M 352 451.2806510846504 C
310.5 451.2806510846504
331.25 559.1008138558129
310.5 523.1607595987588
" stroke="#000" stroke-width="5" fill-opacity="0.0"></path><path d="
M 352 451.2806510846504 C
310.5 451.2806510846504
289.75 487.22070534170456
310.5 523.1607595987588
" stroke="#000" stroke-width="5" fill-opacity="0.0"></path><path d="
M 352 451.2806510846504 C
280.11989148589157 451.2806510846504
263.4400542570542 460.9107595987588
227.5 523.1607595987588
" stroke="#000" stroke-width="5" fill-opacity="0.0"></path><path d="
M 352 451.2806510846504 C
435 451.2806510846504
435 451.2806510846504
518 451.2806510846504
" stroke="#000" stroke-width="5" fill-opacity="0.0"></path><path d="
M 352 451.2806510846504 C
423.88010851410843 451.2806510846504
440.5599457429458 460.9107595987588
476.5 523.1607595987588
" stroke="#000" stroke-width="5" fill-opacity="0.0"></path><path d="
M 352 451.2806510846504 C
393.5 451.2806510846504
372.75 559.1008138558129
393.5 523.1607595987588
" stroke="#000" stroke-width="5" fill-opacity="0.0"></path><path d="
M 352 451.2806510846504 C
393.5 451.2806510846504
414.25 487.22070534170456
393.5 523.1607595987588
" stroke="#000" stroke-width="5" fill-opacity="0.0"></path><path d="
M 352 451.2806510846504 C
310.5 451.2806510846504
372.75 559.1008138558129
393.5 523.1607595987588
" stroke="#000" stroke-width="5" fill-opacity="0.0"></path><path d="
M 352 451.2806510846504 C
310.5 451.2806510846504
414.25 487.22070534170456
393.5 523.1607595987588
" stroke="#000" stroke-width="5" fill-opacity="0.0"></path><path d="
M 310.5 523.1607595987588 C
331.25 559.1008138558129
206.75 559.1008138558129
227.5 523.1607595987588
" stroke="#000" stroke-width="5" fill-opacity="0.0"></path><path d="
M 310.5 523.1607595987588 C
331.25 559.1008138558129
248.25 487.22070534170456
227.5 523.1607595987588
" stroke="#000" stroke-width="5" fill-opacity="0.0"></path><path d="
M 310.5 523.1607595987588 C
289.75 487.22070534170456
206.75 559.1008138558129
227.5 523.1607595987588
" stroke="#000" stroke-width="5" fill-opacity="0.0"></path><path d="
M 310.5 523.1607595987588 C
289.75 487.22070534170456
248.25 487.22070534170456
227.5 523.1607595987588
" stroke="#000" stroke-width="5" fill-opacity="0.0"></path><path d="
M 310.5 523.1607595987588 C
331.25 559.1008138558129
372.75 559.1008138558129
393.5 523.1607595987588
" stroke="#000" stroke-width="5" fill-opacity="0.0"></path><path d="
M 310.5 523.1607595987588 C
331.25 559.1008138558129
414.25 487.22070534170456
393.5 523.1607595987588
" stroke="#000" stroke-width="5" fill-opacity="0.0"></path><path d="
M 310.5 523.1607595987588 C
289.75 487.22070534170456
372.75 559.1008138558129
393.5 523.1607595987588
" stroke="#000" stroke-width="5" fill-opacity="0.0"></path><path d="
M 310.5 523.1607595987588 C
289.75 487.22070534170456
414.25 487.22070534170456
393.5 523.1607595987588
" stroke="#000" stroke-width="5" fill-opacity="0.0"></path><path d="
M 518 451.2806510846504 C
559.5 451.2806510846504
497.25 559.1008138558129
476.5 523.1607595987588
" stroke="#000" stroke-width="5" fill-opacity="0.0"></path><path d="
M 518 451.2806510846504 C
559.5 451.2806510846504
455.75 487.22070534170456
476.5 523.1607595987588
" stroke="#000" stroke-width="5" fill-opacity="0.0"></path><path d="
M 518 451.2806510846504 C
476.5 451.2806510846504
497.25 559.1008138558129
476.5 523.1607595987588
" stroke="#000" stroke-width="5" fill-opacity="0.0"></path><path d="
M 518 451.2806510846504 C
476.5 451.2806510846504
455.75 487.22070534170456
476.5 523.1607595987588
" stroke="#000" stroke-width="5" fill-opacity="0.0"></path><path d="
M 518 451.2806510846504 C
446.11989148589157 451.2806510846504
429.4400542570542 460.9107595987588
393.5 523.1607595987588
" stroke="#000" stroke-width="5" fill-opacity="0.0"></path><path d="
M 476.5 523.1607595987588 C
497.25 559.1008138558129
372.75 559.1008138558129
393.5 523.1607595987588
" stroke="#000" stroke-width="5" fill-opacity="0.0"></path><path d="
M 476.5 523.1607595987588 C
497.25 559.1008138558129
414.25 487.22070534170456
393.5 523.1607595987588
" stroke="#000" stroke-width="5" fill-opacity="0.0"></path><path d="
M 476.5 523.1607595987588 C
455.75 487.22070534170456
372.75 559.1008138558129
393.5 523.1607595987588
" stroke="#000" stroke-width="5" fill-opacity="0.0"></path><path d="
M 476.5 523.1607595987588 C
455.75 487.22070534170456
414.25 487.22070534170456
393.5 523.1607595987588
" stroke="#000" stroke-width="5" fill-opacity="0.0"></path><line x1="106" y1="20" x2="100" y2="20" stroke="#808" stroke-width="2"></line><line x1="63" y1="94.47818472546172" x2="60" y2="89.28203230275508" stroke="#808" stroke-width="2"></line><line x1="-23" y1="94.47818472546172" x2="-20" y2="89.28203230275508" stroke="#808" stroke-width="2"></line><line x1="272" y1="20" x2="266" y2="20" stroke="#808" stroke-width="2"></line><line x1="229" y1="94.47818472546172" x2="226" y2="89.28203230275508" stroke="#808" stroke-width="2"></line><line x1="143" y1="94.47818472546172" x2="146" y2="89.28203230275508" stroke="#808" stroke-width="2"></line><line x1="438" y1="20" x2="432" y2="20" stroke="#808" stroke-width="2"></line><line x1="395" y1="94.47818472546172" x2="392" y2="89.28203230275508" stroke="#808" stroke-width="2"></line><line x1="309" y1="94.47818472546172" x2="312" y2="89.28203230275508" stroke="#808" stroke-width="2"></line><line x1="189" y1="163.7602170282168" x2="183" y2="163.7602170282168" stroke="#808" stroke-width="2"></line><line x1="146" y1="238.23840175367852" x2="143" y2="233.04224933097188" stroke="#808" stroke-width="2"></line><line x1="60" y1="238.23840175367852" x2="63" y2="233.04224933097188" stroke="#808" stroke-width="2"></line><line x1="355" y1="163.7602170282168" x2="349" y2="163.7602170282168" stroke="#808" stroke-width="2"></line><line x1="312" y1="238.23840175367852" x2="309" y2="233.04224933097188" stroke="#808" stroke-width="2"></line><line x1="226" y1="238.23840175367852" x2="229" y2="233.04224933097188" stroke="#808" stroke-width="2"></line><line x1="521" y1="163.7602170282168" x2="515" y2="163.7602170282168" stroke="#808" stroke-width="2"></line><line x1="478" y1="238.23840175367852" x2="475" y2="233.04224933097188" stroke="#808" stroke-width="2"></line><line x1="392" y1="238.23840175367852" x2="395" y2="233.04224933097188" stroke="#808" stroke-width="2"></line><line x1="106" y1="307.5204340564336" x2="100" y2="307.5204340564336" stroke="#808" stroke-width="2"></line><line x1="63" y1="381.99861878189535" x2="60" y2="376.8024663591887" stroke="#808" stroke-width="2"></line><line x1="-23" y1="381.99861878189535" x2="-20" y2="376.8024663591887" stroke="#808" stroke-width="2"></line><line x1="272" y1="307.5204340564336" x2="266" y2="307.5204340564336" stroke="#808" stroke-width="2"></line><line x1="229" y1="381.99861878189535" x2="226" y2="376.8024663591887" stroke="#808" stroke-width="2"></line><line x1="143" y1="381.99861878189535" x2="146" y2="376.8024663591887" stroke="#808" stroke-width="2"></line><line x1="438" y1="307.5204340564336" x2="432" y2="307.5204340564336" stroke="#808" stroke-width="2"></line><line x1="395" y1="381.99861878189535" x2="392" y2="376.8024663591887" stroke="#808" stroke-width="2"></line><line x1="309" y1="381.99861878189535" x2="312" y2="376.8024663591887" stroke="#808" stroke-width="2"></line><line x1="189" y1="451.2806510846504" x2="183" y2="451.2806510846504" stroke="#808" stroke-width="2"></line><line x1="146" y1="525.758835810112" x2="143" y2="520.5626833874055" stroke="#808" stroke-width="2"></line><line x1="60" y1="525.758835810112" x2="63" y2="520.5626833874055" stroke="#808" stroke-width="2"></line><line x1="355" y1="451.2806510846504" x2="349" y2="451.2806510846504" stroke="#808" stroke-width="2"></line><line x1="312" y1="525.758835810112" x2="309" y2="520.5626833874055" stroke="#808" stroke-width="2"></line><line x1="226" y1="525.758835810112" x2="229" y2="520.5626833874055" stroke="#808" stroke-width="2"></line><line x1="521" y1="451.2806510846504" x2="515" y2="451.2806510846504" stroke="#808" stroke-width="2"></line><line x1="478" y1="525.758835810112" x2="475" y2="520.5626833874055" stroke="#808" stroke-width="2"></line><line x1="392" y1="525.758835810112" x2="395" y2="520.5626833874055" stroke="#808" stroke-width="2"></line></svg>
