<svg xmlns="http://www.w3.org/2000/svg" version="1.1"><path d="
M 85 20 C
52.5 20
36.25 48.14582562299425
52.5 76.2916512459885
" stroke="#000" stroke-width="5" fill-opacity="0.0"></path><path d="
M 85 20 C
28.70834875401149 20
15.645825622994256 27.541651245988504
-12.5 76.2916512459885
" stroke="#000" stroke-width="5" fill-opacity="0.0"></path><path d="
M 85 20 C
150 20
150 20
215 20
" stroke="#000" stroke-width="5" fill-opacity="0.0"></path><path d="
M 85 20 C
141.2916512459885 20
154.35417437700573 27.541651245988504
182.5 76.2916512459885
" stroke="#000" stroke-width="5" fill-opacity="0.0"></path><path d="
M 85 20 C
117.5 20
133.75 48.14582562299425
117.5 76.2916512459885
" stroke="#000" stroke-width="5" fill-opacity="0.0"></path><path d="
M 52.5 76.2916512459885 C
36.25 48.14582562299425
3.75 48.14582562299425
-12.5 76.2916512459885
" stroke="#000" stroke-width="5" fill-opacity="0.0"></path><path d="
M 52.5 76.2916512459885 C
68.75 104.43747686898276
101.25 104.43747686898276
117.5 76.2916512459885
" stroke="#000" stroke-width="5" fill-opacity="0.0"></path><path d="
M 52.5 76.2916512459885 C
80.64582562299425 125.0416512459885
93.7083487540115 132.583302491977
150 132.583302491977
" stroke="#000" stroke-width="5" fill-opacity="0.0"></path><path d="
M 52.5 76.2916512459885 C
85 132.583302491977
85 132.583302491977
117.5 188.8749537379655
" stroke="#000" stroke-width="5" fill-opacity="0.0"></path><path d="
M 52.5 76.2916512459885 C
80.64582562299425 125.0416512459885
80.64582562299425 140.1249537379655
52.5 188.8749537379655
" stroke="#000" stroke-width="5" fill-opacity="0.0"></path><path d="
M 215 20 C
182.5 20
166.25 48.14582562299425
182.5 76.2916512459885
" stroke="#000" stroke-width="5" fill-opacity="0.0"></path><path d="
M 215 20 C
158.7083487540115 20
145.64582562299427 27.541651245988504
117.5 76.2916512459885
" stroke="#000" stroke-width="5" fill-opacity="0.0"></path><path d="
M 215 20 C
280 20
280 20
345 20
" stroke="#000" stroke-width="5" fill-opacity="0.0"></path><path d="
M 215 20 C
271.29165124598853 20
284.35417437700573 27.541651245988504
312.5 76.2916512459885
" stroke="#000" stroke-width="5" fill-opacity="0.0"></path><path d="
M 215 20 C
247.5 20
263.75 48.14582562299425
247.5 76.2916512459885
" stroke="#000" stroke-width="5" fill-opacity="0.0"></path><path d="
M 182.5 76.2916512459885 C
166.25 48.14582562299425
133.75 48.14582562299425
117.5 76.2916512459885
" stroke="#000" stroke-width="5" fill-opacity="0.0"></path><path d="
M 182.5 76.2916512459885 C
198.75 104.43747686898276
231.25 104.43747686898276
247.5 76.2916512459885
" stroke="#000" stroke-width="5" fill-opacity="0.0"></path><path d="
M 182.5 76.2916512459885 C
198.75 104.43747686898276
182.5 132.583302491977
150 132.583302491977
" stroke="#000" stroke-width="5" fill-opacity="0.0"></path><path d="
M 182.5 76.2916512459885 C
210.64582562299427 125.0416512459885
223.7083487540115 132.583302491977
280 132.583302491977
" stroke="#000" stroke-width="5" fill-opacity="0.0"></path><path d="
M 182.5 76.2916512459885 C
215 132.583302491977
215 132.583302491977
247.5 188.8749537379655
" stroke="#000" stroke-width="5" fill-opacity="0.0"></path><path d="
M 182.5 76.2916512459885 C
210.64582562299427 125.0416512459885
210.64582562299427 140.1249537379655
182.5 188.8749537379655
" stroke="#000" stroke-width="5" fill-opacity="0.0"></path><path d="
M 117.5 76.2916512459885 C
101.25 104.43747686898276
117.5 132.583302491977
150 132.583302491977
" stroke="#000" stroke-width="5" fill-opacity="0.0"></path><path d="
M 117.5 76.2916512459885 C
89.35417437700575 125.0416512459885
89.35417437700575 140.1249537379655
117.5 188.8749537379655
" stroke="#000" stroke-width="5" fill-opacity="0.0"></path><path d="
M 117.5 76.2916512459885 C
85 132.583302491977
85 132.583302491977
52.5 188.8749537379655
" stroke="#000" stroke-width="5" fill-opacity="0.0"></path><path d="
M 345 20 C
312.5 20
296.25 48.14582562299425
312.5 76.2916512459885
" stroke="#000" stroke-width="5" fill-opacity="0.0"></path><path d="
M 345 20 C
288.70834875401147 20
275.64582562299427 27.541651245988504
247.5 76.2916512459885
" stroke="#000" stroke-width="5" fill-opacity="0.0"></path><path d="
M 345 20 C
410 20
410 20
475 20
" stroke="#000" stroke-width="5" fill-opacity="0.0"></path><path d="
M 345 20 C
401.29165124598853 20
414.35417437700573 27.541651245988504
442.5 76.2916512459885
" stroke="#000" stroke-width="5" fill-opacity="0.0"></path><path d="
M 345 20 C
377.5 20
393.75 48.14582562299425
377.5 76.2916512459885
" stroke="#000" stroke-width="5" fill-opacity="0.0"></path><path d="
M 312.5 76.2916512459885 C
296.25 48.14582562299425
263.75 48.14582562299425
247.5 76.2916512459885
" stroke="#000" stroke-width="5" fill-opacity="0.0"></path><path d="
M 312.5 76.2916512459885 C
328.75 104.43747686898276
361.25 104.43747686898276
377.5 76.2916512459885
" stroke="#000" stroke-width="5" fill-opacity="0.0"></path><path d="
M 312.5 76.2916512459885 C
328.75 104.43747686898276
312.5 132.583302491977
280 132.583302491977
" stroke="#000" stroke-width="5" fill-opacity="0.0"></path><path d="
M 312.5 76.2916512459885 C
340.64582562299427 125.0416512459885
353.70834875401147 132.583302491977
410 132.583302491977
" stroke="#000" stroke-width="5" fill-opacity="0.0"></path><path d="
M 312.5 76.2916512459885 C
345 132.583302491977
345 132.583302491977
377.5 188.8749537379655
" stroke="#000" stroke-width="5" fill-opacity="0.0"></path><path d="
M 312.5 76.2916512459885 C
340.64582562299427 125.0416512459885
340.64582562299427 140.1249537379655
312.5 188.8749537379655
" stroke="#000" stroke-width="5" fill-opacity="0.0"></path><path d="
M 247.5 76.2916512459885 C
219.35417437700573 125.0416512459885
206.2916512459885 132.583302491977
150 132.583302491977
" stroke="#000" stroke-width="5" fill-opacity="0.0"></path><path d="
M 247.5 76.2916512459885 C
231.25 104.43747686898276
247.5 132.583302491977
280 132.583302491977
" stroke="#000" stroke-width="5" fill-opacity="0.0"></path><path d="
M 247.5 76.2916512459885 C
219.35417437700573 125.0416512459885
219.35417437700573 140.1249537379655
247.5 188.8749537379655
" stroke="#000" stroke-width="5" fill-opacity="0.0"></path><path d="
M 247.5 76.2916512459885 C
215 132.583302491977
215 132.583302491977
182.5 188.8749537379655
" stroke="#000" stroke-width="5" fill-opacity="0.0"></path><path d="
M 475 20 C
442.5 20
426.25 48.14582562299425
442.5 76.2916512459885
" stroke="#000" stroke-width="5" fill-opacity="0.0"></path><path d="
M 475 20 C
418.70834875401147 20
405.64582562299427 27.541651245988504
377.5 76.2916512459885
" stroke="#000" stroke-width="5" fill-opacity="0.0"></path><path d="
M 442.5 76.2916512459885 C
426.25 48.14582562299425
393.75 48.14582562299425
377.5 76.2916512459885
" stroke="#000" stroke-width="5" fill-opacity="0.0"></path><path d="
M 442.5 76.2916512459885 C
458.75 104.43747686898276
442.5 132.583302491977
410 132.583302491977
" stroke="#000" stroke-width="5" fill-opacity="0.0"></path><path d="
M 442.5 76.2916512459885 C
470.64582562299427 125.0416512459885
483.70834875401147 132.583302491977
540 132.583302491977
" stroke="#000" stroke-width="5" fill-opacity="0.0"></path><path d="
M 442.5 76.2916512459885 C
475 132.583302491977
475 132.583302491977
507.5 188.8749537379655
" stroke="#000" stroke-width="5" fill-opacity="0.0"></path><path d="
M 442.5 76.2916512459885 C
470.64582562299427 125.0416512459885
470.64582562299427 140.1249537379655
442.5 188.8749537379655
" stroke="#000" stroke-width="5" fill-opacity="0.0"></path><path d="
M 377.5 76.2916512459885 C
349.35417437700573 125.0416512459885
336.29165124598853 132.583302491977
280 132.583302491977
" stroke="#000" stroke-width="5" fill-opacity="0.0"></path><path d="
M 377.5 76.2916512459885 C
361.25 104.43747686898276
377.5 132.583302491977
410 132.583302491977
" stroke="#000" stroke-width="5" fill-opacity="0.0"></path><path d="
M 377.5 76.2916512459885 C
349.35417437700573 125.0416512459885
349.35417437700573 140.1249537379655
377.5 188.8749537379655
" stroke="#000" stroke-width="5" fill-opacity="0.0"></path><path d="
M 377.5 76.2916512459885 C
345 132.583302491977
345 132.583302491977
312.5 188.8749537379655
" stroke="#000" stroke-width="5" fill-opacity="0.0"></path><path d="
M 150 132.583302491977 C
117.5 132.583302491977
101.25 160.72912811497125
117.5 188.8749537379655
" stroke="#000" stroke-width="5" fill-opacity="0.0"></path><path d="
M 150 132.583302491977 C
93.7083487540115 132.583302491977
80.64582562299425 140.1249537379655
52.5 188.8749537379655
" stroke="#000" stroke-width="5" fill-opacity="0.0"></path><path d="
M 150 132.583302491977 C
215 132.583302491977
215 132.583302491977
280 132.583302491977
" stroke="#000" stroke-width="5" fill-opacity="0.0"></path><path d="
M 150 132.583302491977 C
206.2916512459885 132.583302491977
219.35417437700573 140.1249537379655
247.5 188.8749537379655
" stroke="#000" stroke-width="5" fill-opacity="0.0"></path><path d="
M 150 132.583302491977 C
182.5 132.583302491977
198.75 160.72912811497125
182.5 188.8749537379655
" stroke="#000" stroke-width="5" fill-opacity="0.0"></path><path d="
M 117.5 188.8749537379655 C
101.25 160.72912811497125
68.75 160.72912811497125
52.5 188.8749537379655
" stroke="#000" stroke-width="5" fill-opacity="0.0"></path><path d="
M 117.5 188.8749537379655 C
133.75 217.02077936095978
166.25 217.02077936095978
182.5 188.8749537379655
" stroke="#000" stroke-width="5" fill-opacity="0.0"></path><path d="
M 117.5 188.8749537379655 C
133.75 217.02077936095978
117.5 245.16660498395402
85 245.16660498395402
" stroke="#000" stroke-width="5" fill-opacity="0.0"></path><path d="
M 117.5 188.8749537379655 C
145.64582562299427 237.6249537379655
158.7083487540115 245.16660498395402
215 245.16660498395402
" stroke="#000" stroke-width="5" fill-opacity="0.0"></path><path d="
M 117.5 188.8749537379655 C
150 245.16660498395402
150 245.16660498395404
182.5 301.45825622994255
" stroke="#000" stroke-width="5" fill-opacity="0.0"></path><path d="
M 117.5 188.8749537379655 C
145.64582562299427 237.6249537379655
145.64582562299427 252.70825622994255
117.5 301.45825622994255
" stroke="#000" stroke-width="5" fill-opacity="0.0"></path><path d="
M 52.5 188.8749537379655 C
36.25 217.02077936095978
52.5 245.16660498395402
85 245.16660498395402
" stroke="#000" stroke-width="5" fill-opacity="0.0"></path><path d="
M 52.5 188.8749537379655 C
24.35417437700574 237.6249537379655
24.35417437700574 252.70825622994255
52.5 301.45825622994255
" stroke="#000" stroke-width="5" fill-opacity="0.0"></path><path d="
M 52.5 188.8749537379655 C
20 245.16660498395402
20 245.16660498395404
-12.5 301.45825622994255
" stroke="#000" stroke-width="5" fill-opacity="0.0"></path><path d="
M 280 132.583302491977 C
247.5 132.583302491977
231.25 160.72912811497125
247.5 188.8749537379655
" stroke="#000" stroke-width="5" fill-opacity="0.0"></path><path d="
M 280 132.583302491977 C
223.7083487540115 132.583302491977
210.64582562299427 140.1249537379655
182.5 188.8749537379655
" stroke="#000" stroke-width="5" fill-opacity="0.0"></path><path d="
M 280 132.583302491977 C
345 132.583302491977
345 132.583302491977
410 132.583302491977
" stroke="#000" stroke-width="5" fill-opacity="0.0"></path><path d="
M 280 132.583302491977 C
336.29165124598853 132.583302491977
349.35417437700573 140.1249537379655
377.5 188.8749537379655
" stroke="#000" stroke-width="5" fill-opacity="0.0"></path><path d="
M 280 132.583302491977 C
312.5 132.583302491977
328.75 160.72912811497125
312.5 188.8749537379655
" stroke="#000" stroke-width="5" fill-opacity="0.0"></path><path d="
M 247.5 188.8749537379655 C
231.25 160.72912811497125
198.75 160.72912811497125
182.5 188.8749537379655
" stroke="#000" stroke-width="5" fill-opacity="0.0"></path><path d="
M 247.5 188.8749537379655 C
263.75 217.02077936095978
296.25 217.02077936095978
312.5 188.8749537379655
" stroke="#000" stroke-width="5" fill-opacity="0.0"></path><path d="
M 247.5 188.8749537379655 C
263.75 217.02077936095978
247.5 245.16660498395402
215 245.16660498395402
" stroke="#000" stroke-width="5" fill-opacity="0.0"></path><path d="
M 247.5 188.8749537379655 C
275.64582562299427 237.6249537379655
288.70834875401147 245.16660498395402
345 245.16660498395402
" stroke="#000" stroke-width="5" fill-opacity="0.0"></path><path d="
M 247.5 188.8749537379655 C
280 245.16660498395402
280 245.16660498395404
312.5 301.45825622994255
" stroke="#000" stroke-width="5" fill-opacity="0.0"></path><path d="
M 247.5 188.8749537379655 C
275.64582562299427 237.6249537379655
275.64582562299427 252.70825622994255
247.5 301.45825622994255
" stroke="#000" stroke-width="5" fill-opacity="0.0"></path><path d="
M 182.5 188.8749537379655 C
154.35417437700573 237.6249537379655
141.2916512459885 245.16660498395402
85 245.16660498395402
" stroke="#000" stroke-width="5" fill-opacity="0.0"></path><path d="
M 182.5 188.8749537379655 C
166.25 217.02077936095978
182.5 245.16660498395402
215 245.16660498395402
" stroke="#000" stroke-width="5" fill-opacity="0.0"></path><path d="
M 182.5 188.8749537379655 C
154.35417437700573 237.6249537379655
154.35417437700573 252.70825622994255
182.5 301.45825622994255
" stroke="#000" stroke-width="5" fill-opacity="0.0"></path><path d="
M 182.5 188.8749537379655 C
150 245.16660498395402
150 245.16660498395404
117.5 301.45825622994255
" stroke="#000" stroke-width="5" fill-opacity="0.0"></path><path d="
M 410 132.583302491977 C
377.5 132.583302491977
361.25 160.72912811497125
377.5 188.8749537379655
" stroke="#000" stroke-width="5" fill-opacity="0.0"></path><path d="
M 410 132.583302491977 C
353.70834875401147 132.583302491977
340.64582562299427 140.1249537379655
312.5 188.8749537379655
" stroke="#000" stroke-width="5" fill-opacity="0.0"></path><path d="
M 410 132.583302491977 C
475 132.583302491977
475 132.583302491977
540 132.583302491977
" stroke="#000" stroke-width="5" fill-opacity="0.0"></path><path d="
M 410 132.583302491977 C
466.29165124598853 132.583302491977
479.35417437700573 140.1249537379655
507.5 188.8749537379655
" stroke="#000" stroke-width="5" fill-opacity="0.0"></path><path d="
M 410 132.583302491977 C
442.5 132.583302491977
458.75 160.72912811497125
442.5 188.8749537379655
" stroke="#000" stroke-width="5" fill-opacity="0.0"></path><path d="
M 377.5 188.8749537379655 C
361.25 160.72912811497125
328.75 160.72912811497125
312.5 188.8749537379655
" stroke="#000" stroke-width="5" fill-opacity="0.0"></path><path d="
M 377.5 188.8749537379655 C
393.75 217.02077936095978
426.25 217.02077936095978
442.5 188.8749537379655
" stroke="#000" stroke-width="5" fill-opacity="0.0"></path><path d="
M 377.5 188.8749537379655 C
393.75 217.02077936095978
377.5 245.16660498395402
345 245.16660498395402
" stroke="#000" stroke-width="5" fill-opacity="0.0"></path><path d="
M 377.5 188.8749537379655 C
405.64582562299427 237.6249537379655
418.70834875401147 245.16660498395402
475 245.16660498395402
" stroke="#000" stroke-width="5" fill-opacity="0.0"></path><path d="
M 377.5 188.8749537379655 C
410 245.16660498395402
410 245.16660498395404
442.5 301.45825622994255
" stroke="#000" stroke-width="5" fill-opacity="0.0"></path><path d="
M 377.5 188.8749537379655 C
405.64582562299427 237.6249537379655
405.64582562299427 252.70825622994255
377.5 301.45825622994255
" stroke="#000" stroke-width="5" fill-opacity="0.0"></path><path d="
M 312.5 188.8749537379655 C
284.35417437700573 237.6249537379655
271.29165124598853 245.16660498395402
215 245.16660498395402
" stroke="#000" stroke-width="5" fill-opacity="0.0"></path><path d="
M 312.5 188.8749537379655 C
296.25 217.02077936095978
312.5 245.16660498395402
345 245.16660498395402
" stroke="#000" stroke-width="5" fill-opacity="0.0"></path><path d="
M 312.5 188.8749537379655 C
284.35417437700573 237.6249537379655
284.35417437700573 252.70825622994255
312.5 301.45825622994255
" stroke="#000" stroke-width="5" fill-opacity="0.0"></path><path d="
M 312.5 188.8749537379655 C
280 245.16660498395402
280 245.16660498395404
247.5 301.45825622994255
" stroke="#000" stroke-width="5" fill-opacity="0.0"></path><path d="
M 540 132.583302491977 C
507.5 132.583302491977
491.25 160.72912811497125
507.5 188.8749537379655
" stroke="#000" stroke-width="5" fill-opacity="0.0"></path><path d="
M 540 132.583302491977 C
483.70834875401147 132.583302491977
470.64582562299427 140.1249537379655
442.5 188.8749537379655
" stroke="#000" stroke-width="5" fill-opacity="0.0"></path><path d="
M 507.5 188.8749537379655 C
491.25 160.72912811497125
458.75 160.72912811497125
442.5 188.8749537379655
" stroke="#000" stroke-width="5" fill-opacity="0.0"></path><path d="
M 507.5 188.8749537379655 C
523.75 217.02077936095978
507.5 245.16660498395402
475 245.16660498395402
" stroke="#000" stroke-width="5" fill-opacity="0.0"></path><path d="
M 442.5 188.8749537379655 C
414.35417437700573 237.6249537379655
401.29165124598853 245.16660498395402
345 245.16660498395402
" stroke="#000" stroke-width="5" fill-opacity="0.0"></path><path d="
M 442.5 188.8749537379655 C
426.25 217.02077936095978
442.5 245.16660498395402
475 245.16660498395402
" stroke="#000" stroke-width="5" fill-opacity="0.0"></path><path d="
M 442.5 188.8749537379655 C
414.35417437700573 237.6249537379655
414.35417437700573 252.70825622994255
442.5 301.45825622994255
" stroke="#000" stroke-width="5" fill-opacity="0.0"></path><path d="
M 442.5 188.8749537379655 C
410 245.16660498395402
410 245.16660498395404
377.5 301.45825622994255
" stroke="#000" stroke-width="5" fill-opacity="0.0"></path><path d="
M 85 245.16660498395402 C
52.49999999999999 245.16660498395402
36.25 273.3124306069483
52.5 301.45825622994255
" stroke="#000" stroke-width="5" fill-opacity="0.0"></path><path d="
M 85 245.16660498395402 C
28.70834875401148 245.16660498395402
15.64582562299426 252.70825622994255
-12.5 301.45825622994255
" stroke="#000" stroke-width="5" fill-opacity="0.0"></path><path d="
M 85 245.16660498395402 C
150 245.16660498395402
150 245.16660498395402
215 245.16660498395402
" stroke="#000" stroke-width="5" fill-opacity="0.0"></path><path d="
M 85 245.16660498395402 C
141.29165124598853 245.16660498395402
154.35417437700573 252.70825622994255
182.5 301.45825622994255
" stroke="#000" stroke-width="5" fill-opacity="0.0"></path><path d="
M 85 245.16660498395402 C
117.5 245.16660498395402
133.75 273.3124306069483
117.5 301.45825622994255
" stroke="#000" stroke-width="5" fill-opacity="0.0"></path><path d="
M 52.5 301.45825622994255 C
36.25 273.3124306069483
3.75 273.3124306069483
-12.5 301.45825622994255
" stroke="#000" stroke-width="5" fill-opacity="0.0"></path><path d="
M 52.5 301.45825622994255 C
68.75 329.6040818529368
101.25 329.6040818529368
117.5 301.45825622994255
" stroke="#000" stroke-width="5" fill-opacity="0.0"></path><path d="
M 52.5 301.45825622994255 C
80.64582562299425 350.20825622994255
93.7083487540115 357.749907475931
150 357.749907475931
" stroke="#000" stroke-width="5" fill-opacity="0.0"></path><path d="
M 52.5 301.45825622994255 C
85 357.7499074759311
85 357.749907475931
117.5 414.04155872191956
" stroke="#000" stroke-width="5" fill-opacity="0.0"></path><path d="
M 52.5 301.45825622994255 C
80.64582562299425 350.20825622994255
80.64582562299425 365.29155872191956
52.5 414.04155872191956
" stroke="#000" stroke-width="5" fill-opacity="0.0"></path><path d="
M 215 245.16660498395402 C
182.5 245.16660498395402
166.25 273.3124306069483
182.5 301.45825622994255
" stroke="#000" stroke-width="5" fill-opacity="0.0"></path><path d="
M 215 245.16660498395402 C
158.70834875401147 245.16660498395402
145.64582562299427 252.70825622994255
117.5 301.45825622994255
" stroke="#000" stroke-width="5" fill-opacity="0.0"></path><path d="
M 215 245.16660498395402 C
280 245.16660498395402
280 245.16660498395402
345 245.16660498395402
" stroke="#000" stroke-width="5" fill-opacity="0.0"></path><path d="
M 215 245.16660498395402 C
271.29165124598853 245.16660498395402
284.35417437700573 252.70825622994255
312.5 301.45825622994255
" stroke="#000" stroke-width="5" fill-opacity="0.0"></path><path d="
M 215 245.16660498395402 C
247.5 245.16660498395402
263.75 273.3124306069483
247.5 301.45825622994255
" stroke="#000" stroke-width="5" fill-opacity="0.0"></path><path d="
M 182.5 301.45825622994255 C
166.25 273.3124306069483
133.75 273.3124306069483
117.5 301.45825622994255
" stroke="#000" stroke-width="5" fill-opacity="0.0"></path><path d="
M 182.5 301.45825622994255 C
198.75 329.6040818529368
231.25 329.6040818529368
247.5 301.45825622994255
" stroke="#000" stroke-width="5" fill-opacity="0.0"></path><path d="
M 182.5 301.45825622994255 C
198.75 329.6040818529368
182.5 357.749907475931
150 357.749907475931
" stroke="#000" stroke-width="5" fill-opacity="0.0"></path><path d="
M 182.5 301.45825622994255 C
210.64582562299427 350.20825622994255
223.7083487540115 357.749907475931
280 357.749907475931
" stroke="#000" stroke-width="5" fill-opacity="0.0"></path><path d="
M 182.5 301.45825622994255 C
215 357.7499074759311
215 357.749907475931
247.5 414.04155872191956
" stroke="#000" stroke-width="5" fill-opacity="0.0"></path><path d="
M 182.5 301.45825622994255 C
210.64582562299427 350.20825622994255
210.64582562299427 365.29155872191956
182.5 414.04155872191956
" stroke="#000" stroke-width="5" fill-opacity="0.0"></path><path d="
M 117.5 301.45825622994255 C
101.25 329.6040818529368
117.50000000000001 357.749907475931
150 357.749907475931
" stroke="#000" stroke-width="5" fill-opacity="0.0"></path><path d="
M 117.5 301.45825622994255 C
89.35417437700575 350.20825622994255
89.35417437700575 365.29155872191956
117.5 414.04155872191956
" stroke="#000" stroke-width="5" fill-opacity="0.0"></path><path d="
M 117.5 301.45825622994255 C
85 357.7499074759311
85 357.749907475931
52.5 414.04155872191956
" stroke="#000" stroke-width="5" fill-opacity="0.0"></path><path d="
M 345 245.16660498395402 C
312.5 245.16660498395402
296.25 273.3124306069483
312.5 301.45825622994255
" stroke="#000" stroke-width="5" fill-opacity="0.0"></path><path d="
M 345 245.16660498395402 C
288.70834875401147 245.16660498395402
275.64582562299427 252.70825622994255
247.5 301.45825622994255
" stroke="#000" stroke-width="5" fill-opacity="0.0"></path><path d="
M 345 245.16660498395402 C
410 245.16660498395402
410 245.16660498395402
475 245.16660498395402
" stroke="#000" stroke-width="5" fill-opacity="0.0"></path><path d="
M 345 245.16660498395402 C
401.29165124598853 245.16660498395402
414.35417437700573 252.70825622994255
442.5 301.45825622994255
" stroke="#000" stroke-width="5" fill-opacity="0.0"></path><path d="
M 345 245.16660498395402 C
377.5 245.16660498395402
393.75 273.3124306069483
377.5 301.45825622994255
" stroke="#000" stroke-width="5" fill-opacity="0.0"></path><path d="
M 312.5 301.45825622994255 C
296.25 273.3124306069483
263.75 273.3124306069483
247.5 301.45825622994255
" stroke="#000" stroke-width="5" fill-opacity="0.0"></path><path d="
M 312.5 301.45825622994255 C
328.75 329.6040818529368
361.25 329.6040818529368
377.5 301.45825622994255
" stroke="#000" stroke-width="5" fill-opacity="0.0"></path><path d="
M 312.5 301.45825622994255 C
328.75 329.6040818529368
312.5 357.749907475931
280 357.749907475931
" stroke="#000" stroke-width="5" fill-opacity="0.0"></path><path d="
M 312.5 301.45825622994255 C
340.64582562299427 350.20825622994255
353.70834875401147 357.749907475931
410 357.749907475931
" stroke="#000" stroke-width="5" fill-opacity="0.0"></path><path d="
M 312.5 301.45825622994255 C
345 357.7499074759311
345 357.749907475931
377.5 414.04155872191956
" stroke="#000" stroke-width="5" fill-opacity="0.0"></path><path d="
M 312.5 301.45825622994255 C
340.64582562299427 350.20825622994255
340.64582562299427 365.29155872191956
312.5 414.04155872191956
" stroke="#000" stroke-width="5" fill-opacity="0.0"></path><path d="
M 247.5 301.45825622994255 C
219.35417437700573 350.20825622994255
206.2916512459885 357.749907475931
150 357.749907475931
" stroke="#000" stroke-width="5" fill-opacity="0.0"></path><path d="
M 247.5 301.45825622994255 C
231.25 329.6040818529368
247.5 357.749907475931
280 357.749907475931
" stroke="#000" stroke-width="5" fill-opacity="0.0"></path><path d="
M 247.5 301.45825622994255 C
219.35417437700573 350.20825622994255
219.35417437700573 365.29155872191956
247.5 414.04155872191956
" stroke="#000" stroke-width="5" fill-opacity="0.0"></path><path d="
M 247.5 301.45825622994255 C
215 357.7499074759311
215 357.749907475931
182.5 414.04155872191956
" stroke="#000" stroke-width="5" fill-opacity="0.0"></path><path d="
M 475 245.16660498395402 C
442.5 245.16660498395402
426.25 273.3124306069483
442.5 301.45825622994255
" stroke="#000" stroke-width="5" fill-opacity="0.0"></path><path d="
M 475 245.16660498395402 C
418.70834875401147 245.16660498395402
405.64582562299427 252.70825622994255
377.5 301.45825622994255
" stroke="#000" stroke-width="5" fill-opacity="0.0"></path><path d="
M 442.5 301.45825622994255 C
426.25 273.3124306069483
393.75 273.3124306069483
377.5 301.45825622994255
" stroke="#000" stroke-width="5" fill-opacity="0.0"></path><path d="
M 442.5 301.45825622994255 C
458.75 329.6040818529368
442.5 357.749907475931
410 357.749907475931
" stroke="#000" stroke-width="5" fill-opacity="0.0"></path><path d="
M 442.5 301.45825622994255 C
470.64582562299427 350.20825622994255
483.70834875401147 357.749907475931
540 357.749907475931
" stroke="#000" stroke-width="5" fill-opacity="0.0"></path><path d="
M 442.5 301.45825622994255 C
475 357.7499074759311
475 357.749907475931
507.5 414.04155872191956
" stroke="#000" stroke-width="5" fill-opacity="0.0"></path><path d="
M 442.5 301.45825622994255 C
470.64582562299427 350.20825622994255
470.64582562299427 365.29155872191956
442.5 414.04155872191956
" stroke="#000" stroke-width="5" fill-opacity="0.0"></path><path d="
M 377.5 301.45825622994255 C
349.35417437700573 350.20825622994255
336.29165124598853 357.749907475931
280 357.749907475931
" stroke="#000" stroke-width="5" fill-opacity="0.0"></path><path d="
M 377.5 301.45825622994255 C
361.25 329.6040818529368
377.5 357.749907475931
410 357.749907475931
" stroke="#000" stroke-width="5" fill-opacity="0.0"></path><path d="
M 377.5 301.45825622994255 C
349.35417437700573 350.20825622994255
349.35417437700573 365.29155872191956
377.5 414.04155872191956
" stroke="#000" stroke-width="5" fill-opacity="0.0"></path><path d="
M 377.5 301.45825622994255 C
345 357.7499074759311
345 357.749907475931
312.5 414.04155872191956
" stroke="#000" stroke-width="5" fill-opacity="0.0"></path><path d="
M 150 357.749907475931 C
117.5 357.749907475931
101.25 385.8957330989253
117.5 414.04155872191956
" stroke="#000" stroke-width="5" fill-opacity="0.0"></path><path d="
M 150 357.749907475931 C
93.70834875401148 357.749907475931
80.64582562299427 365.29155872191956
52.5 414.04155872191956
" stroke="#000" stroke-width="5" fill-opacity="0.0"></path><path d="
M 150 357.749907475931 C
215 357.749907475931
215 357.749907475931
280 357.749907475931
" stroke="#000" stroke-width="5" fill-opacity="0.0"></path><path d="
M 150 357.749907475931 C
206.29165124598853 357.749907475931
219.35417437700573 365.29155872191956
247.5 414.04155872191956
" stroke="#000" stroke-width="5" fill-opacity="0.0"></path><path d="
M 150 357.749907475931 C
182.5 357.749907475931
198.75 385.8957330989253
182.5 414.04155872191956
" stroke="#000" stroke-width="5" fill-opacity="0.0"></path><path d="
M 117.5 414.04155872191956 C
101.25 385.8957330989253
68.75 385.8957330989253
52.5 414.04155872191956
" stroke="#000" stroke-width="5" fill-opacity="0.0"></path><path d="
M 117.5 414.04155872191956 C
133.75 442.1873843449138
166.25 442.1873843449138
182.5 414.04155872191956
" stroke="#000" stroke-width="5" fill-opacity="0.0"></path><path d="
M 117.5 414.04155872191956 C
133.75 442.1873843449138
117.49999999999999 470.33320996790803
85 470.33320996790803
" stroke="#000" stroke-width="5" fill-opacity="0.0"></path><path d="
M 117.5 414.04155872191956 C
145.64582562299427 462.79155872191956
158.7083487540115 470.33320996790803
215 470.33320996790803
" stroke="#000" stroke-width="5" fill-opacity="0.0"></path><path d="
M 117.5 414.04155872191956 C
150 470.3332099679081
150 470.33320996790803
182.5 526.6248612138966
" stroke="#000" stroke-width="5" fill-opacity="0.0"></path><path d="
M 117.5 414.04155872191956 C
145.64582562299427 462.79155872191956
145.64582562299427 477.87486121389657
117.5 526.6248612138966
" stroke="#000" stroke-width="5" fill-opacity="0.0"></path><path d="
M 52.5 414.04155872191956 C
36.25000000000001 442.1873843449138
52.500000000000014 470.33320996790803
85 470.33320996790803
" stroke="#000" stroke-width="5" fill-opacity="0.0"></path><path d="
M 52.5 414.04155872191956 C
24.354174377005748 462.79155872191956
24.354174377005748 477.87486121389657
52.5 526.6248612138966
" stroke="#000" stroke-width="5" fill-opacity="0.0"></path><path d="
M 52.5 414.04155872191956 C
20 470.3332099679081
20 470.33320996790803
-12.5 526.6248612138966
" stroke="#000" stroke-width="5" fill-opacity="0.0"></path><path d="
M 280 357.749907475931 C
247.5 357.749907475931
231.25 385.8957330989253
247.5 414.04155872191956
" stroke="#000" stroke-width="5" fill-opacity="0.0"></path><path d="
M 280 357.749907475931 C
223.70834875401147 357.749907475931
210.64582562299427 365.29155872191956
182.5 414.04155872191956
" stroke="#000" stroke-width="5" fill-opacity="0.0"></path><path d="
M 280 357.749907475931 C
345 357.749907475931
345 357.749907475931
410 357.749907475931
" stroke="#000" stroke-width="5" fill-opacity="0.0"></path><path d="
M 280 357.749907475931 C
336.29165124598853 357.749907475931
349.35417437700573 365.29155872191956
377.5 414.04155872191956
" stroke="#000" stroke-width="5" fill-opacity="0.0"></path><path d="
M 280 357.749907475931 C
312.5 357.749907475931
328.75 385.8957330989253
312.5 414.04155872191956
" stroke="#000" stroke-width="5" fill-opacity="0.0"></path><path d="
M 247.5 414.04155872191956 C
231.25 385.8957330989253
198.75 385.8957330989253
182.5 414.04155872191956
" stroke="#000" stroke-width="5" fill-opacity="0.0"></path><path d="
M 247.5 414.04155872191956 C
263.75 442.1873843449138
296.25 442.1873843449138
312.5 414.04155872191956
" stroke="#000" stroke-width="5" fill-opacity="0.0"></path><path d="
M 247.5 414.04155872191956 C
263.75 442.1873843449138
247.5 470.33320996790803
215 470.33320996790803
" stroke="#000" stroke-width="5" fill-opacity="0.0"></path><path d="
M 247.5 414.04155872191956 C
275.64582562299427 462.79155872191956
288.70834875401147 470.33320996790803
345 470.33320996790803
" stroke="#000" stroke-width="5" fill-opacity="0.0"></path><path d="
M 247.5 414.04155872191956 C
280 470.3332099679081
280 470.33320996790803
312.5 526.6248612138966
" stroke="#000" stroke-width="5" fill-opacity="0.0"></path><path d="
M 247.5 414.04155872191956 C
275.64582562299427 462.79155872191956
275.64582562299427 477.87486121389657
247.5 526.6248612138966
" stroke="#000" stroke-width="5" fill-opacity="0.0"></path><path d="
M 182.5 414.04155872191956 C
154.35417437700573 462.79155872191956
141.2916512459885 470.33320996790803
85 470.33320996790803
" stroke="#000" stroke-width="5" fill-opacity="0.0"></path><path d="
M 182.5 414.04155872191956 C
166.25 442.1873843449138
182.5 470.33320996790803
215 470.33320996790803
" stroke="#000" stroke-width="5" fill-opacity="0.0"></path><path d="
M 182.5 414.04155872191956 C
154.35417437700573 462.79155872191956
154.35417437700573 477.87486121389657
182.5 526.6248612138966
" stroke="#000" stroke-width="5" fill-opacity="0.0"></path><path d="
M 182.5 414.04155872191956 C
150 470.3332099679081
150 470.33320996790803
117.5 526.6248612138966
" stroke="#000" stroke-width="5" fill-opacity="0.0"></path><path d="
M 410 357.749907475931 C
377.5 357.749907475931
361.25 385.8957330989253
377.5 414.04155872191956
" stroke="#000" stroke-width="5" fill-opacity="0.0"></path><path d="
M 410 357.749907475931 C
353.70834875401147 357.749907475931
340.64582562299427 365.29155872191956
312.5 414.04155872191956
" stroke="#000" stroke-width="5" fill-opacity="0.0"></path><path d="
M 410 357.749907475931 C
475 357.749907475931
475 357.749907475931
540 357.749907475931
" stroke="#000" stroke-width="5" fill-opacity="0.0"></path><path d="
M 410 357.749907475931 C
466.29165124598853 357.749907475931
479.35417437700573 365.29155872191956
507.5 414.04155872191956
" stroke="#000" stroke-width="5" fill-opacity="0.0"></path><path d="
M 410 357.749907475931 C
442.5 357.749907475931
458.75 385.8957330989253
442.5 414.04155872191956
" stroke="#000" stroke-width="5" fill-opacity="0.0"></path><path d="
M 377.5 414.04155872191956 C
361.25 385.8957330989253
328.75 385.8957330989253
312.5 414.04155872191956
" stroke="#000" stroke-width="5" fill-opacity="0.0"></path><path d="
M 377.5 414.04155872191956 C
393.75 442.1873843449138
426.25 442.1873843449138
442.5 414.04155872191956
" stroke="#000" stroke-width="5" fill-opacity="0.0"></path><path d="
M 377.5 414.04155872191956 C
393.75 442.1873843449138
377.5 470.33320996790803
345 470.33320996790803
" stroke="#000" stroke-width="5" fill-opacity="0.0"></path><path d="
M 377.5 414.04155872191956 C
405.64582562299427 462.79155872191956
418.70834875401147 470.33320996790803
475 470.33320996790803
" stroke="#000" stroke-width="5" fill-opacity="0.0"></path><path d="
M 377.5 414.04155872191956 C
410 470.3332099679081
410 470.33320996790803
442.5 526.6248612138966
" stroke="#000" stroke-width="5" fill-opacity="0.0"></path><path d="
M 377.5 414.04155872191956 C
405.64582562299427 462.79155872191956
405.64582562299427 477.87486121389657
377.5 526.6248612138966
" stroke="#000" stroke-width="5" fill-opacity="0.0"></path><path d="
M 312.5 414.04155872191956 C
284.35417437700573 462.79155872191956
271.29165124598853 470.33320996790803
215 470.33320996790803
" stroke="#000" stroke-width="5" fill-opacity="0.0"></path><path d="
M 312.5 414.04155872191956 C
296.25 442.1873843449138
312.5 470.33320996790803
345 470.33320996790803
" stroke="#000" stroke-width="5" fill-opacity="0.0"></path><path d="
M 312.5 414.04155872191956 C
284.35417437700573 462.79155872191956
284.35417437700573 477.87486121389657
312.5 526.6248612138966
" stroke="#000" stroke-width="5" fill-opacity="0.0"></path><path d="
M 312.5 414.04155872191956 C
280 470.3332099679081
280 470.33320996790803
247.5 526.6248612138966
" stroke="#000" stroke-width="5" fill-opacity="0.0"></path><path d="
M 540 357.749907475931 C
507.5 357.749907475931
491.25 385.8957330989253
507.5 414.04155872191956
" stroke="#000" stroke-width="5" fill-opacity="0.0"></path><path d="
M 540 357.749907475931 C
483.70834875401147 357.749907475931
470.64582562299427 365.29155872191956
442.5 414.04155872191956
" stroke="#000" stroke-width="5" fill-opacity="0.0"></path><path d="
M 507.5 414.04155872191956 C
491.25 385.8957330989253
458.75 385.8957330989253
442.5 414.04155872191956
" stroke="#000" stroke-width="5" fill-opacity="0.0"></path><path d="
M 507.5 414.04155872191956 C
523.75 442.1873843449138
507.5 470.33320996790803
475 470.33320996790803
" stroke="#000" stroke-width="5" fill-opacity="0.0"></path><path d="
M 442.5 414.04155872191956 C
414.35417437700573 462.79155872191956
401.29165124598853 470.33320996790803
345 470.33320996790803
" stroke="#000" stroke-width="5" fill-opacity="0.0"></path><path d="
M 442.5 414.04155872191956 C
426.25 442.1873843449138
442.5 470.33320996790803
475 470.33320996790803
" stroke="#000" stroke-width="5" fill-opacity="0.0"></path><path d="
M 442.5 414.04155872191956 C
414.35417437700573 462.79155872191956
414.35417437700573 477.87486121389657
442.5 526.6248612138966
" stroke="#000" stroke-width="5" fill-opacity="0.0"></path><path d="
M 442.5 414.04155872191956 C
410 470.3332099679081
410 470.33320996790803
377.5 526.6248612138966
" stroke="#000" stroke-width="5" fill-opacity="0.0"></path><path d="
M 85 470.33320996790803 C
52.49999999999999 470.33320996790803
36.25 498.4790355909023
52.5 526.6248612138966
" stroke="#000" stroke-width="5" fill-opacity="0.0"></path><path d="
M 85 470.33320996790803 C
28.70834875401148 470.33320996790803
15.64582562299426 477.87486121389657
-12.5 526.6248612138966
" stroke="#000" stroke-width="5" fill-opacity="0.0"></path><path d="
M 85 470.33320996790803 C
150 470.33320996790803
150 470.33320996790803
215 470.33320996790803
" stroke="#000" stroke-width="5" fill-opacity="0.0"></path><path d="
M 85 470.33320996790803 C
141.29165124598853 470.33320996790803
154.35417437700573 477.87486121389657
182.5 526.6248612138966
" stroke="#000" stroke-width="5" fill-opacity="0.0"></path><path d="
M 85 470.33320996790803 C
117.5 470.33320996790803
133.75 498.4790355909023
117.5 526.6248612138966
" stroke="#000" stroke-width="5" fill-opacity="0.0"></path><path d="
M 52.5 526.6248612138966 C
36.25 498.4790355909023
3.75 498.4790355909023
-12.5 526.6248612138966
" stroke="#000" stroke-width="5" fill-opacity="0.0"></path><path d="
M 52.5 526.6248612138966 C
68.75 554.7706868368908
101.25 554.7706868368908
117.5 526.6248612138966
" stroke="#000" stroke-width="5" fill-opacity="0.0"></path><path d="
M 215 470.33320996790803 C
182.5 470.33320996790803
166.25 498.4790355909023
182.5 526.6248612138966
" stroke="#000" stroke-width="5" fill-opacity="0.0"></path><path d="
M 215 470.33320996790803 C
158.70834875401147 470.33320996790803
145.64582562299427 477.87486121389657
117.5 526.6248612138966
" stroke="#000" stroke-width="5" fill-opacity="0.0"></path><path d="
M 215 470.33320996790803 C
280 470.33320996790803
280 470.33320996790803
345 470.33320996790803
" stroke="#000" stroke-width="5" fill-opacity="0.0"></path><path d="
M 215 470.33320996790803 C
271.29165124598853 470.33320996790803
284.35417437700573 477.87486121389657
312.5 526.6248612138966
" stroke="#000" stroke-width="5" fill-opacity="0.0"></path><path d="
M 215 470.33320996790803 C
247.5 470.33320996790803
263.75 498.4790355909023
247.5 526.6248612138966
" stroke="#000" stroke-width="5" fill-opacity="0.0"></path><path d="
M 182.5 526.6248612138966 C
166.25 498.4790355909023
133.75 498.4790355909023
117.5 526.6248612138966
" stroke="#000" stroke-width="5" fill-opacity="0.0"></path><path d="
M 182.5 526.6248612138966 C
198.75 554.7706868368908
231.25 554.7706868368908
247.5 526.6248612138966
" stroke="#000" stroke-width="5" fill-opacity="0.0"></path><path d="
M 345 470.33320996790803 C
312.5 470.33320996790803
296.25 498.4790355909023
312.5 526.6248612138966
" stroke="#000" stroke-width="5" fill-opacity="0.0"></path><path d="
M 345 470.33320996790803 C
288.70834875401147 470.33320996790803
275.64582562299427 477.87486121389657
247.5 526.6248612138966
" stroke="#000" stroke-width="5" fill-opacity="0.0"></path><path d="
M 345 470.33320996790803 C
410 470.33320996790803
410 470.33320996790803
475 470.33320996790803
" stroke="#000" stroke-width="5" fill-opacity="0.0"></path><path d="
M 345 470.33320996790803 C
401.29165124598853 470.33320996790803
414.35417437700573 477.87486121389657
442.5 526.6248612138966
" stroke="#000" stroke-width="5" fill-opacity="0.0"></path><path d="
M 345 470.33320996790803 C
377.5 470.33320996790803
393.75 498.4790355909023
377.5 526.6248612138966
" stroke="#000" stroke-width="5" fill-opacity="0.0"></path><path d="
M 312.5 526.6248612138966 C
296.25 498.4790355909023
263.75 498.4790355909023
247.5 526.6248612138966
" stroke="#000" stroke-width="5" fill-opacity="0.0"></path><path d="
M 312.5 526.6248612138966 C
328.75 554.7706868368908
361.25 554.7706868368908
377.5 526.6248612138966
" stroke="#000" stroke-width="5" fill-opacity="0.0"></path><path d="
M 475 470.33320996790803 C
442.5 470.33320996790803
426.25 498.4790355909023
442.5 526.6248612138966
" stroke="#000" stroke-width="5" fill-opacity="0.0"></path><path d="
M 475 470.33320996790803 C
418.70834875401147 470.33320996790803
405.64582562299427 477.87486121389657
377.5 526.6248612138966
" stroke="#000" stroke-width="5" fill-opacity="0.0"></path><path d="
M 442.5 526.6248612138966 C
426.25 498.4790355909023
393.75 498.4790355909023
377.5 526.6248612138966
" stroke="#000" stroke-width="5" fill-opacity="0.0"></path><line x1="88" y1="20" x2="82" y2="20" stroke="#808" stroke-width="2"></line><line x1="54" y1="78.88972745734182" x2="51" y2="73.69357503463519" stroke="#808" stroke-width="2"></line><line x1="-14" y1="78.88972745734182" x2="-11" y2="73.69357503463519" stroke="#808" stroke-width="2"></line><line x1="218" y1="20" x2="212" y2="20" stroke="#808" stroke-width="2"></line><line x1="184" y1="78.88972745734182" x2="181" y2="73.69357503463519" stroke="#808" stroke-width="2"></line><line x1="116" y1="78.88972745734182" x2="119" y2="73.69357503463519" stroke="#808" stroke-width="2"></line><line x1="348" y1="20" x2="342" y2="20" stroke="#808" stroke-width="2"></line><line x1="314" y1="78.88972745734182" x2="311" y2="73.69357503463519" stroke="#808" stroke-width="2"></line><line x1="246" y1="78.88972745734182" x2="249" y2="73.69357503463519" stroke="#808" stroke-width="2"></line><line x1="478" y1="20" x2="472" y2="20" stroke="#808" stroke-width="2"></line><line x1="444" y1="78.88972745734182" x2="441" y2="73.69357503463519" stroke="#808" stroke-width="2"></line><line x1="376" y1="78.88972745734182" x2="379" y2="73.69357503463519" stroke="#808" stroke-width="2"></line><line x1="153" y1="132.583302491977" x2="147" y2="132.583302491977" stroke="#808" stroke-width="2"></line><line x1="119" y1="191.47302994931883" x2="116" y2="186.2768775266122" stroke="#808" stroke-width="2"></line><line x1="51" y1="191.47302994931883" x2="54" y2="186.2768775266122" stroke="#808" stroke-width="2"></line><line x1="283" y1="132.583302491977" x2="277" y2="132.583302491977" stroke="#808" stroke-width="2"></line><line x1="249" y1="191.47302994931883" x2="246" y2="186.2768775266122" stroke="#808" stroke-width="2"></line><line x1="181" y1="191.47302994931883" x2="184" y2="186.2768775266122" stroke="#808" stroke-width="2"></line><line x1="413" y1="132.583302491977" x2="407" y2="132.583302491977" stroke="#808" stroke-width="2"></line><line x1="379" y1="191.47302994931883" x2="376" y2="186.2768775266122" stroke="#808" stroke-width="2"></line><line x1="311" y1="191.47302994931883" x2="314" y2="186.2768775266122" stroke="#808" stroke-width="2"></line><line x1="543" y1="132.583302491977" x2="537" y2="132.583302491977" stroke="#808" stroke-width="2"></line><line x1="509" y1="191.47302994931883" x2="506" y2="186.2768775266122" stroke="#808" stroke-width="2"></line><line x1="441" y1="191.47302994931883" x2="444" y2="186.2768775266122" stroke="#808" stroke-width="2"></line><line x1="88" y1="245.16660498395402" x2="82" y2="245.16660498395402" stroke="#808" stroke-width="2"></line><line x1="54" y1="304.05633244129587" x2="51" y2="298.86018001858923" stroke="#808" stroke-width="2"></line><line x1="-14" y1="304.05633244129587" x2="-11" y2="298.86018001858923" stroke="#808" stroke-width="2"></line><line x1="218" y1="245.16660498395402" x2="212" y2="245.16660498395402" stroke="#808" stroke-width="2"></line><line x1="184" y1="304.05633244129587" x2="181" y2="298.86018001858923" stroke="#808" stroke-width="2"></line><line x1="116" y1="304.05633244129587" x2="119" y2="298.86018001858923" stroke="#808" stroke-width="2"></line><line x1="348" y1="245.16660498395402" x2="342" y2="245.16660498395402" stroke="#808" stroke-width="2"></line><line x1="314" y1="304.05633244129587" x2="311" y2="298.86018001858923" stroke="#808" stroke-width="2"></line><line x1="246" y1="304.05633244129587" x2="249" y2="298.86018001858923" stroke="#808" stroke-width="2"></line><line x1="478" y1="245.16660498395402" x2="472" y2="245.16660498395402" stroke="#808" stroke-width="2"></line><line x1="444" y1="304.05633244129587" x2="441" y2="298.86018001858923" stroke="#808" stroke-width="2"></line><line x1="376" y1="304.05633244129587" x2="379" y2="298.86018001858923" stroke="#808" stroke-width="2"></line><line x1="153" y1="357.749907475931" x2="147" y2="357.749907475931" stroke="#808" stroke-width="2"></line><line x1="119" y1="416.6396349332729" x2="116" y2="411.44348251056624" stroke="#808" stroke-width="2"></line><line x1="51" y1="416.6396349332729" x2="54" y2="411.44348251056624" stroke="#808" stroke-width="2"></line><line x1="283" y1="357.749907475931" x2="277" y2="357.749907475931" stroke="#808" stroke-width="2"></line><line x1="249" y1="416.6396349332729" x2="246" y2="411.44348251056624" stroke="#808" stroke-width="2"></line><line x1="181" y1="416.6396349332729" x2="184" y2="411.44348251056624" stroke="#808" stroke-width="2"></line><line x1="413" y1="357.749907475931" x2="407" y2="357.749907475931" stroke="#808" stroke-width="2"></line><line x1="379" y1="416.6396349332729" x2="376" y2="411.44348251056624" stroke="#808" stroke-width="2"></line><line x1="311" y1="416.6396349332729" x2="314" y2="411.44348251056624" stroke="#808" stroke-width="2"></line><line x1="543" y1="357.749907475931" x2="537" y2="357.749907475931" stroke="#808" stroke-width="2"></line><line x1="509" y1="416.6396349332729" x2="506" y2="411.44348251056624" stroke="#808" stroke-width="2"></line><line x1="441" y1="416.6396349332729" x2="444" y2="411.44348251056624" stroke="#808" stroke-width="2"></line><line x1="88" y1="470.33320996790803" x2="82" y2="470.33320996790803" stroke="#808" stroke-width="2"></line><line x1="54" y1="529.2229374252499" x2="51" y2="524.0267850025432" stroke="#808" stroke-width="2"></line><line x1="-14" y1="529.2229374252499" x2="-11" y2="524.0267850025432" stroke="#808" stroke-width="2"></line><line x1="218" y1="470.33320996790803" x2="212" y2="470.33320996790803" stroke="#808" stroke-width="2"></line><line x1="184" y1="529.2229374252499" x2="181" y2="524.0267850025432" stroke="#808" stroke-width="2"></line><line x1="116" y1="529.2229374252499" x2="119" y2="524.0267850025432" stroke="#808" stroke-width="2"></line><line x1="348" y1="470.33320996790803" x2="342" y2="470.33320996790803" stroke="#808" stroke-width="2"></line><line x1="314" y1="529.2229374252499" x2="311" y2="524.0267850025432" stroke="#808" stroke-width="2"></line><line x1="246" y1="529.2229374252499" x2="249" y2="524.0267850025432" stroke="#808" stroke-width="2"></line><line x1="478" y1="470.33320996790803" x2="472" y2="470.33320996790803" stroke="#808" stroke-width="2"></line><line x1="444" y1="529.2229374252499" x2="441" y2="524.0267850025432" stroke="#808" stroke-width="2"></line><line x1="376" y1="529.2229374252499" x2="379" y2="524.0267850025432" stroke="#808" stroke-width="2"></line></svg>
