<svg viewBox="-16.5 15 545.5 501.0364039457768" xmlns="http://www.w3.org/2000/svg" version="1.1"><path d="
M 83 20 C
51.5 20
35.75 47.27980021920982
51.5 74.55960043841964
" stroke="rgb(25,36,102)" stroke-width="5" fill-opacity="0.0"></path><path d="
M 83 20 C
114.5 20
130.25 47.27980021920982
114.5 74.55960043841964
" stroke="rgb(25,36,102)" stroke-width="5" fill-opacity="0.0"></path><path d="
M 51.5 74.55960043841964 C
78.77980021920982 121.80960043841964
78.77980021920982 136.4288013152589
51.5 183.6788013152589
" stroke="rgb(25,52,102)" stroke-width="5" fill-opacity="0.0"></path><path d="
M 209 20 C
272 20
272 20
335 20
" stroke="rgb(25,152,102)" stroke-width="5" fill-opacity="0.0"></path><path d="
M 209 20 C
240.5 20
256.25 47.27980021920982
240.5 74.55960043841964
" stroke="rgb(25,125,102)" stroke-width="5" fill-opacity="0.0"></path><path d="
M 177.5 74.55960043841964 C
193.25 101.83940065762945
224.75 101.83940065762945
240.5 74.55960043841964
" stroke="rgb(25,106,102)" stroke-width="5" fill-opacity="0.0"></path><path d="
M 177.5 74.55960043841964 C
209 129.11920087683927
209 129.11920087683927
240.5 183.6788013152589
" stroke="rgb(25,87,102)" stroke-width="5" fill-opacity="0.0"></path><path d="
M 114.5 74.55960043841964 C
83 129.11920087683927
83 129.11920087683927
51.5 183.6788013152589
" stroke="rgb(25,52,102)" stroke-width="5" fill-opacity="0.0"></path><path d="
M 335 20 C
303.5 20
287.75 47.27980021920982
303.5 74.55960043841964
" stroke="rgb(25,152,102)" stroke-width="5" fill-opacity="0.0"></path><path d="
M 335 20 C
280.44039956158036 20
267.77980021920985 27.309600438419636
240.5 74.55960043841964
" stroke="rgb(25,152,102)" stroke-width="5" fill-opacity="0.0"></path><path d="
M 335 20 C
398 20
398 20
461 20
" stroke="rgb(25,217,102)" stroke-width="5" fill-opacity="0.0"></path><path d="
M 335 20 C
389.55960043841964 20
402.22019978079015 27.309600438419636
429.5 74.55960043841964
" stroke="rgb(25,179,102)" stroke-width="5" fill-opacity="0.0"></path><path d="
M 303.5 74.55960043841964 C
287.75 47.27980021920982
256.25 47.27980021920982
240.5 74.55960043841964
" stroke="rgb(25,125,102)" stroke-width="5" fill-opacity="0.0"></path><path d="
M 303.5 74.55960043841964 C
319.25 101.83940065762945
303.5 129.11920087683927
272 129.11920087683927
" stroke="rgb(25,125,102)" stroke-width="5" fill-opacity="0.0"></path><path d="
M 303.5 74.55960043841964 C
330.77980021920985 121.80960043841964
343.44039956158036 129.11920087683927
398 129.11920087683927
" stroke="rgb(25,106,102)" stroke-width="5" fill-opacity="0.0"></path><path d="
M 303.5 74.55960043841964 C
335 129.11920087683927
335 129.11920087683927
366.5 183.6788013152589
" stroke="rgb(25,106,102)" stroke-width="5" fill-opacity="0.0"></path><path d="
M 303.5 74.55960043841964 C
330.77980021920985 121.80960043841964
330.77980021920985 136.4288013152589
303.5 183.6788013152589
" stroke="rgb(25,106,102)" stroke-width="5" fill-opacity="0.0"></path><path d="
M 240.5 74.55960043841964 C
224.75 101.83940065762945
240.5 129.11920087683927
272 129.11920087683927
" stroke="rgb(25,125,102)" stroke-width="5" fill-opacity="0.0"></path><path d="
M 240.5 74.55960043841964 C
213.22019978079018 121.80960043841964
213.22019978079018 136.4288013152589
240.5 183.6788013152589
" stroke="rgb(25,106,102)" stroke-width="5" fill-opacity="0.0"></path><path d="
M 240.5 74.55960043841964 C
209 129.11920087683927
209 129.11920087683927
177.5 183.6788013152589
" stroke="rgb(25,106,102)" stroke-width="5" fill-opacity="0.0"></path><path d="
M 461 20 C
429.5 20
413.75 47.27980021920982
429.5 74.55960043841964
" stroke="rgb(25,217,102)" stroke-width="5" fill-opacity="0.0"></path><path d="
M 461 20 C
406.44039956158036 20
393.77980021920985 27.309600438419636
366.5 74.55960043841964
" stroke="rgb(25,217,102)" stroke-width="5" fill-opacity="0.0"></path><path d="
M 429.5 74.55960043841964 C
413.75 47.27980021920982
382.25 47.27980021920982
366.5 74.55960043841964
" stroke="rgb(25,179,102)" stroke-width="5" fill-opacity="0.0"></path><path d="
M 429.5 74.55960043841964 C
456.77980021920985 121.80960043841964
469.44039956158036 129.11920087683927
524 129.11920087683927
" stroke="rgb(25,152,102)" stroke-width="5" fill-opacity="0.0"></path><path d="
M 429.5 74.55960043841964 C
461 129.11920087683927
461 129.11920087683927
492.5 183.6788013152589
" stroke="rgb(25,152,102)" stroke-width="5" fill-opacity="0.0"></path><path d="
M 366.5 74.55960043841964 C
339.22019978079015 121.80960043841964
326.55960043841964 129.11920087683927
272 129.11920087683927
" stroke="rgb(25,152,102)" stroke-width="5" fill-opacity="0.0"></path><path d="
M 146 129.11920087683927 C
114.5 129.11920087683927
98.75 156.3990010960491
114.5 183.6788013152589
" stroke="rgb(25,74,102)" stroke-width="5" fill-opacity="0.0"></path><path d="
M 146 129.11920087683927 C
91.44039956158036 129.11920087683927
78.77980021920982 136.4288013152589
51.5 183.6788013152589
" stroke="rgb(25,74,102)" stroke-width="5" fill-opacity="0.0"></path><path d="
M 146 129.11920087683927 C
209 129.11920087683927
209 129.11920087683927
272 129.11920087683927
" stroke="rgb(25,106,102)" stroke-width="5" fill-opacity="0.0"></path><path d="
M 146 129.11920087683927 C
177.5 129.11920087683927
193.25 156.3990010960491
177.5 183.6788013152589
" stroke="rgb(25,87,102)" stroke-width="5" fill-opacity="0.0"></path><path d="
M 114.5 183.6788013152589 C
130.25 210.95860153446873
114.5 238.23840175367854
83 238.23840175367854
" stroke="rgb(25,52,102)" stroke-width="5" fill-opacity="0.0"></path><path d="
M 51.5 183.6788013152589 C
35.75 210.95860153446873
51.5 238.23840175367854
83 238.23840175367854
" stroke="rgb(25,52,102)" stroke-width="5" fill-opacity="0.0"></path><path d="
M 51.5 183.6788013152589 C
24.220199780790182 230.9288013152589
24.220199780790182 245.54800219209818
51.5 292.7980021920982
" stroke="rgb(25,52,102)" stroke-width="5" fill-opacity="0.0"></path><path d="
M 51.5 183.6788013152589 C
20 238.23840175367854
20 238.23840175367854
-11.5 292.7980021920982
" stroke="rgb(25,52,102)" stroke-width="5" fill-opacity="0.0"></path><path d="
M 272 129.11920087683927 C
240.5 129.11920087683927
224.75 156.3990010960491
240.5 183.6788013152589
" stroke="rgb(25,106,102)" stroke-width="5" fill-opacity="0.0"></path><path d="
M 272 129.11920087683927 C
303.5 129.11920087683927
319.25 156.3990010960491
303.5 183.6788013152589
" stroke="rgb(25,106,102)" stroke-width="5" fill-opacity="0.0"></path><path d="
M 240.5 183.6788013152589 C
256.25 210.95860153446873
287.75 210.95860153446873
303.5 183.6788013152589
" stroke="rgb(25,87,102)" stroke-width="5" fill-opacity="0.0"></path><path d="
M 240.5 183.6788013152589 C
256.25 210.95860153446873
240.5 238.23840175367854
209 238.23840175367854
" stroke="rgb(25,74,102)" stroke-width="5" fill-opacity="0.0"></path><path d="
M 240.5 183.6788013152589 C
267.77980021920985 230.9288013152589
267.77980021920985 245.54800219209818
240.5 292.7980021920982
" stroke="rgb(25,74,102)" stroke-width="5" fill-opacity="0.0"></path><path d="
M 177.5 183.6788013152589 C
161.75 210.95860153446873
177.5 238.23840175367854
209 238.23840175367854
" stroke="rgb(25,74,102)" stroke-width="5" fill-opacity="0.0"></path><path d="
M 177.5 183.6788013152589 C
146 238.23840175367854
146 238.23840175367854
114.5 292.7980021920982
" stroke="rgb(25,74,102)" stroke-width="5" fill-opacity="0.0"></path><path d="
M 398 129.11920087683927 C
343.44039956158036 129.11920087683927
330.77980021920985 136.4288013152589
303.5 183.6788013152589
" stroke="rgb(25,87,102)" stroke-width="5" fill-opacity="0.0"></path><path d="
M 398 129.11920087683927 C
461 129.11920087683927
461 129.11920087683927
524 129.11920087683927
" stroke="rgb(25,106,102)" stroke-width="5" fill-opacity="0.0"></path><path d="
M 366.5 183.6788013152589 C
382.25 210.95860153446873
413.75 210.95860153446873
429.5 183.6788013152589
" stroke="rgb(25,87,102)" stroke-width="5" fill-opacity="0.0"></path><path d="
M 366.5 183.6788013152589 C
382.25 210.95860153446873
366.5 238.23840175367854
335 238.23840175367854
" stroke="rgb(25,74,102)" stroke-width="5" fill-opacity="0.0"></path><path d="
M 366.5 183.6788013152589 C
398 238.23840175367854
398 238.23840175367854
429.5 292.7980021920982
" stroke="rgb(25,74,102)" stroke-width="5" fill-opacity="0.0"></path><path d="
M 366.5 183.6788013152589 C
393.77980021920985 230.9288013152589
393.77980021920985 245.54800219209818
366.5 292.7980021920982
" stroke="rgb(25,74,102)" stroke-width="5" fill-opacity="0.0"></path><path d="
M 303.5 183.6788013152589 C
272 238.23840175367854
272 238.23840175367854
240.5 292.7980021920982
" stroke="rgb(25,74,102)" stroke-width="5" fill-opacity="0.0"></path><path d="
M 524 129.11920087683927 C
469.44039956158036 129.11920087683927
456.77980021920985 136.4288013152589
429.5 183.6788013152589
" stroke="rgb(25,106,102)" stroke-width="5" fill-opacity="0.0"></path><path d="
M 492.5 183.6788013152589 C
476.75 156.3990010960491
445.25 156.3990010960491
429.5 183.6788013152589
" stroke="rgb(25,106,102)" stroke-width="5" fill-opacity="0.0"></path><path d="
M 429.5 183.6788013152589 C
402.22019978079015 230.9288013152589
389.55960043841964 238.23840175367854
335 238.23840175367854
" stroke="rgb(25,74,102)" stroke-width="5" fill-opacity="0.0"></path><path d="
M 429.5 183.6788013152589 C
413.75 210.95860153446873
429.5 238.23840175367854
461 238.23840175367854
" stroke="rgb(25,74,102)" stroke-width="5" fill-opacity="0.0"></path><path d="
M 429.5 183.6788013152589 C
398 238.23840175367854
398 238.23840175367854
366.5 292.7980021920982
" stroke="rgb(25,74,102)" stroke-width="5" fill-opacity="0.0"></path><path d="
M 83 238.23840175367854 C
51.5 238.23840175367854
35.75 265.5182019728884
51.5 292.7980021920982
" stroke="rgb(25,43,102)" stroke-width="5" fill-opacity="0.0"></path><path d="
M 83 238.23840175367854 C
28.440399561580364 238.23840175367854
15.779800219209818 245.54800219209818
-11.5 292.7980021920982
" stroke="rgb(25,43,102)" stroke-width="5" fill-opacity="0.0"></path><path d="
M 83 238.23840175367854 C
137.55960043841964 238.23840175367854
150.22019978079018 245.54800219209818
177.5 292.7980021920982
" stroke="rgb(25,43,102)" stroke-width="5" fill-opacity="0.0"></path><path d="
M 51.5 292.7980021920982 C
67.25 320.07780241130797
98.75 320.07780241130797
114.5 292.7980021920982
" stroke="rgb(25,52,102)" stroke-width="5" fill-opacity="0.0"></path><path d="
M 51.5 292.7980021920982 C
78.77980021920982 340.0480021920982
91.44039956158036 347.3576026305178
146 347.3576026305178
" stroke="rgb(25,36,102)" stroke-width="5" fill-opacity="0.0"></path><path d="
M 51.5 292.7980021920982 C
83 347.3576026305178
83 347.3576026305178
114.5 401.91720306893745
" stroke="rgb(25,36,102)" stroke-width="5" fill-opacity="0.0"></path><path d="
M 51.5 292.7980021920982 C
78.77980021920982 340.0480021920982
78.77980021920982 354.66720306893745
51.5 401.91720306893745
" stroke="rgb(25,43,102)" stroke-width="5" fill-opacity="0.0"></path><path d="
M 209 238.23840175367854 C
177.5 238.23840175367854
161.75 265.5182019728884
177.5 292.7980021920982
" stroke="rgb(25,52,102)" stroke-width="5" fill-opacity="0.0"></path><path d="
M 209 238.23840175367854 C
263.55960043841964 238.23840175367854
276.22019978079015 245.54800219209818
303.5 292.7980021920982
" stroke="rgb(25,52,102)" stroke-width="5" fill-opacity="0.0"></path><path d="
M 209 238.23840175367854 C
240.5 238.23840175367854
256.25 265.5182019728884
240.5 292.7980021920982
" stroke="rgb(25,61,102)" stroke-width="5" fill-opacity="0.0"></path><path d="
M 177.5 292.7980021920982 C
193.25 320.07780241130797
177.5 347.3576026305178
146 347.3576026305178
" stroke="rgb(25,36,102)" stroke-width="5" fill-opacity="0.0"></path><path d="
M 177.5 292.7980021920982 C
204.77980021920982 340.0480021920982
204.77980021920982 354.66720306893745
177.5 401.91720306893745
" stroke="rgb(25,36,102)" stroke-width="5" fill-opacity="0.0"></path><path d="
M 114.5 292.7980021920982 C
83 347.3576026305178
83 347.3576026305178
51.5 401.91720306893745
" stroke="rgb(25,52,102)" stroke-width="5" fill-opacity="0.0"></path><path d="
M 335 238.23840175367854 C
303.5 238.23840175367854
287.75 265.5182019728884
303.5 292.7980021920982
" stroke="rgb(25,52,102)" stroke-width="5" fill-opacity="0.0"></path><path d="
M 335 238.23840175367854 C
280.44039956158036 238.23840175367854
267.77980021920985 245.54800219209818
240.5 292.7980021920982
" stroke="rgb(25,61,102)" stroke-width="5" fill-opacity="0.0"></path><path d="
M 335 238.23840175367854 C
398 238.23840175367854
398 238.23840175367854
461 238.23840175367854
" stroke="rgb(25,61,102)" stroke-width="5" fill-opacity="0.0"></path><path d="
M 335 238.23840175367854 C
389.55960043841964 238.23840175367854
402.22019978079015 245.54800219209818
429.5 292.7980021920982
" stroke="rgb(25,61,102)" stroke-width="5" fill-opacity="0.0"></path><path d="
M 303.5 292.7980021920982 C
287.75 265.5182019728884
256.25 265.5182019728884
240.5 292.7980021920982
" stroke="rgb(25,52,102)" stroke-width="5" fill-opacity="0.0"></path><path d="
M 303.5 292.7980021920982 C
319.25 320.07780241130797
350.75 320.07780241130797
366.5 292.7980021920982
" stroke="rgb(25,52,102)" stroke-width="5" fill-opacity="0.0"></path><path d="
M 303.5 292.7980021920982 C
330.77980021920985 340.0480021920982
343.44039956158036 347.3576026305178
398 347.3576026305178
" stroke="rgb(25,43,102)" stroke-width="5" fill-opacity="0.0"></path><path d="
M 303.5 292.7980021920982 C
335 347.3576026305178
335 347.3576026305178
366.5 401.91720306893745
" stroke="rgb(25,43,102)" stroke-width="5" fill-opacity="0.0"></path><path d="
M 240.5 292.7980021920982 C
224.75 320.07780241130797
240.5 347.3576026305178
272 347.3576026305178
" stroke="rgb(25,52,102)" stroke-width="5" fill-opacity="0.0"></path><path d="
M 240.5 292.7980021920982 C
213.22019978079018 340.0480021920982
213.22019978079018 354.66720306893745
240.5 401.91720306893745
" stroke="rgb(25,52,102)" stroke-width="5" fill-opacity="0.0"></path><path d="
M 461 238.23840175367854 C
429.5 238.23840175367854
413.75 265.5182019728884
429.5 292.7980021920982
" stroke="rgb(25,61,102)" stroke-width="5" fill-opacity="0.0"></path><path d="
M 461 238.23840175367854 C
406.44039956158036 238.23840175367854
393.77980021920985 245.54800219209818
366.5 292.7980021920982
" stroke="rgb(25,61,102)" stroke-width="5" fill-opacity="0.0"></path><path d="
M 429.5 292.7980021920982 C
413.75 265.5182019728884
382.25 265.5182019728884
366.5 292.7980021920982
" stroke="rgb(25,61,102)" stroke-width="5" fill-opacity="0.0"></path><path d="
M 429.5 292.7980021920982 C
445.25 320.07780241130797
429.5 347.3576026305178
398 347.3576026305178
" stroke="rgb(25,52,102)" stroke-width="5" fill-opacity="0.0"></path><path d="
M 429.5 292.7980021920982 C
456.77980021920985 340.0480021920982
469.44039956158036 347.3576026305178
524 347.3576026305178
" stroke="rgb(25,52,102)" stroke-width="5" fill-opacity="0.0"></path><path d="
M 429.5 292.7980021920982 C
461 347.3576026305178
461 347.3576026305178
492.5 401.91720306893745
" stroke="rgb(25,52,102)" stroke-width="5" fill-opacity="0.0"></path><path d="
M 429.5 292.7980021920982 C
456.77980021920985 340.0480021920982
456.77980021920985 354.66720306893745
429.5 401.91720306893745
" stroke="rgb(25,52,102)" stroke-width="5" fill-opacity="0.0"></path><path d="
M 366.5 292.7980021920982 C
339.22019978079015 340.0480021920982
339.22019978079015 354.66720306893745
366.5 401.91720306893745
" stroke="rgb(25,52,102)" stroke-width="5" fill-opacity="0.0"></path><path d="
M 146 347.3576026305178 C
91.44039956158036 347.3576026305178
78.77980021920982 354.66720306893745
51.5 401.91720306893745
" stroke="rgb(25,36,102)" stroke-width="5" fill-opacity="0.0"></path><path d="
M 146 347.3576026305178 C
209 347.3576026305178
209 347.3576026305178
272 347.3576026305178
" stroke="rgb(25,36,102)" stroke-width="5" fill-opacity="0.0"></path><path d="
M 146 347.3576026305178 C
177.5 347.3576026305178
193.25 374.63740284972766
177.5 401.91720306893745
" stroke="rgb(25,30,102)" stroke-width="5" fill-opacity="0.0"></path><path d="
M 114.5 401.91720306893745 C
130.25 429.19700328814724
161.75 429.19700328814724
177.5 401.91720306893745
" stroke="rgb(25,30,102)" stroke-width="5" fill-opacity="0.0"></path><path d="
M 114.5 401.91720306893745 C
130.25 429.19700328814724
114.5 456.4768035073571
83 456.4768035073571
" stroke="rgb(25,30,102)" stroke-width="5" fill-opacity="0.0"></path><path d="
M 114.5 401.91720306893745 C
146 456.4768035073571
146 456.4768035073571
177.5 511.0364039457767
" stroke="rgb(25,25,102)" stroke-width="5" fill-opacity="0.0"></path><path d="
M 51.5 401.91720306893745 C
35.75 429.19700328814724
51.5 456.4768035073571
83 456.4768035073571
" stroke="rgb(25,36,102)" stroke-width="5" fill-opacity="0.0"></path><path d="
M 51.5 401.91720306893745 C
24.220199780790182 449.16720306893745
24.220199780790182 463.7864039457767
51.5 511.0364039457767
" stroke="rgb(25,36,102)" stroke-width="5" fill-opacity="0.0"></path><path d="
M 51.5 401.91720306893745 C
20 456.4768035073571
20 456.4768035073571
-11.5 511.0364039457767
" stroke="rgb(25,36,102)" stroke-width="5" fill-opacity="0.0"></path><path d="
M 272 347.3576026305178 C
240.5 347.3576026305178
224.75 374.63740284972766
240.5 401.91720306893745
" stroke="rgb(25,43,102)" stroke-width="5" fill-opacity="0.0"></path><path d="
M 177.5 401.91720306893745 C
161.75 429.19700328814724
177.5 456.4768035073571
209 456.4768035073571
" stroke="rgb(25,25,102)" stroke-width="5" fill-opacity="0.0"></path><path d="
M 177.5 401.91720306893745 C
146 456.4768035073571
146 456.4768035073571
114.5 511.0364039457767
" stroke="rgb(25,25,102)" stroke-width="5" fill-opacity="0.0"></path><path d="
M 398 347.3576026305178 C
343.44039956158036 347.3576026305178
330.77980021920985 354.66720306893745
303.5 401.91720306893745
" stroke="rgb(25,36,102)" stroke-width="5" fill-opacity="0.0"></path><path d="
M 366.5 401.91720306893745 C
382.25 429.19700328814724
413.75 429.19700328814724
429.5 401.91720306893745
" stroke="rgb(25,43,102)" stroke-width="5" fill-opacity="0.0"></path><path d="
M 366.5 401.91720306893745 C
382.25 429.19700328814724
366.5 456.4768035073571
335 456.4768035073571
" stroke="rgb(25,36,102)" stroke-width="5" fill-opacity="0.0"></path><path d="
M 366.5 401.91720306893745 C
393.77980021920985 449.16720306893745
406.44039956158036 456.4768035073571
461 456.4768035073571
" stroke="rgb(25,36,102)" stroke-width="5" fill-opacity="0.0"></path><path d="
M 366.5 401.91720306893745 C
393.77980021920985 449.16720306893745
393.77980021920985 463.7864039457767
366.5 511.0364039457767
" stroke="rgb(25,36,102)" stroke-width="5" fill-opacity="0.0"></path><path d="
M 303.5 401.91720306893745 C
287.75 429.19700328814724
303.5 456.4768035073571
335 456.4768035073571
" stroke="rgb(25,30,102)" stroke-width="5" fill-opacity="0.0"></path><path d="
M 429.5 401.91720306893745 C
402.22019978079015 449.16720306893745
389.55960043841964 456.4768035073571
335 456.4768035073571
" stroke="rgb(25,36,102)" stroke-width="5" fill-opacity="0.0"></path><path d="
M 83 456.4768035073571 C
51.5 456.4768035073571
35.75 483.75660372656694
51.5 511.0364039457767
" stroke="rgb(25,30,102)" stroke-width="5" fill-opacity="0.0"></path><path d="
M 83 456.4768035073571 C
28.440399561580364 456.4768035073571
15.779800219209818 463.7864039457767
-11.5 511.0364039457767
" stroke="rgb(25,30,102)" stroke-width="5" fill-opacity="0.0"></path><path d="
M 83 456.4768035073571 C
146 456.4768035073571
146 456.4768035073571
209 456.4768035073571
" stroke="rgb(25,25,102)" stroke-width="5" fill-opacity="0.0"></path><path d="
M 83 456.4768035073571 C
137.55960043841964 456.4768035073571
150.22019978079018 463.7864039457767
177.5 511.0364039457767
" stroke="rgb(25,25,102)" stroke-width="5" fill-opacity="0.0"></path><path d="
M 83 456.4768035073571 C
114.5 456.4768035073571
130.25 483.75660372656694
114.5 511.0364039457767
" stroke="rgb(25,25,102)" stroke-width="5" fill-opacity="0.0"></path><path d="
M 51.5 511.0364039457767 C
35.75 483.75660372656694
4.25 483.75660372656694
-11.5 511.0364039457767
" stroke="rgb(25,30,102)" stroke-width="5" fill-opacity="0.0"></path><path d="
M 51.5 511.0364039457767 C
67.25 538.3162041649865
98.75 538.3162041649865
114.5 511.0364039457767
" stroke="rgb(25,25,102)" stroke-width="5" fill-opacity="0.0"></path><path d="
M 209 456.4768035073571 C
272 456.4768035073571
272 456.4768035073571
335 456.4768035073571
" stroke="rgb(25,25,102)" stroke-width="5" fill-opacity="0.0"></path><path d="
M 209 456.4768035073571 C
263.55960043841964 456.4768035073571
276.22019978079015 463.7864039457767
303.5 511.0364039457767
" stroke="rgb(25,17,102)" stroke-width="5" fill-opacity="0.0"></path><path d="
M 177.5 511.0364039457767 C
193.25 538.3162041649865
224.75 538.3162041649865
240.5 511.0364039457767
" stroke="rgb(25,21,102)" stroke-width="5" fill-opacity="0.0"></path><path d="
M 335 456.4768035073571 C
280.44039956158036 456.4768035073571
267.77980021920985 463.7864039457767
240.5 511.0364039457767
" stroke="rgb(25,25,102)" stroke-width="5" fill-opacity="0.0"></path><path d="
M 335 456.4768035073571 C
366.5 456.4768035073571
382.25 483.75660372656694
366.5 511.0364039457767
" stroke="rgb(25,30,102)" stroke-width="5" fill-opacity="0.0"></path><path d="
M 303.5 511.0364039457767 C
287.75 483.75660372656694
256.25 483.75660372656694
240.5 511.0364039457767
" stroke="rgb(25,17,102)" stroke-width="5" fill-opacity="0.0"></path><path d="
M 429.5 511.0364039457767 C
413.75 483.75660372656694
382.25 483.75660372656694
366.5 511.0364039457767
" stroke="rgb(25,25,102)" stroke-width="5" fill-opacity="0.0"></path><line x1="86" y1="20" x2="80" y2="20" stroke="rgb(90,0,30)" stroke-width="2"></line><line x1="53" y1="77.15767664977295" x2="50" y2="71.96152422706632" stroke="rgb(129,0,43)" stroke-width="2"></line><line x1="-13" y1="77.15767664977295" x2="-10" y2="71.96152422706632" stroke="#040" stroke-width="5" stroke-opacity="0.0"></line><line x1="212" y1="20" x2="206" y2="20" stroke="rgb(255,0,125)" stroke-width="2"></line><line x1="179" y1="77.15767664977295" x2="176" y2="71.96152422706632" stroke="rgb(255,0,87)" stroke-width="2"></line><line x1="113" y1="77.15767664977295" x2="116" y2="71.96152422706632" stroke="rgb(129,0,43)" stroke-width="2"></line><line x1="338" y1="20" x2="332" y2="20" stroke="rgb(255,0,179)" stroke-width="2"></line><line x1="305" y1="77.15767664977295" x2="302" y2="71.96152422706632" stroke="rgb(255,0,125)" stroke-width="2"></line><line x1="239" y1="77.15767664977295" x2="242" y2="71.96152422706632" stroke="rgb(255,0,125)" stroke-width="2"></line><line x1="464" y1="20" x2="458" y2="20" stroke="rgb(255,0,255)" stroke-width="2"></line><line x1="431" y1="77.15767664977295" x2="428" y2="71.96152422706632" stroke="rgb(255,0,179)" stroke-width="2"></line><line x1="365" y1="77.15767664977295" x2="368" y2="71.96152422706632" stroke="rgb(255,0,179)" stroke-width="2"></line><line x1="149" y1="129.11920087683927" x2="143" y2="129.11920087683927" stroke="rgb(255,0,87)" stroke-width="2"></line><line x1="116" y1="186.27687752661222" x2="113" y2="181.0807251039056" stroke="rgb(184,0,61)" stroke-width="2"></line><line x1="50" y1="186.27687752661222" x2="53" y2="181.0807251039056" stroke="rgb(184,0,61)" stroke-width="2"></line><line x1="275" y1="129.11920087683927" x2="269" y2="129.11920087683927" stroke="rgb(255,0,125)" stroke-width="2"></line><line x1="242" y1="186.27687752661222" x2="239" y2="181.0807251039056" stroke="rgb(255,0,87)" stroke-width="2"></line><line x1="176" y1="186.27687752661222" x2="179" y2="181.0807251039056" stroke="rgb(255,0,87)" stroke-width="2"></line><line x1="401" y1="129.11920087683927" x2="395" y2="129.11920087683927" stroke="rgb(255,0,87)" stroke-width="2"></line><line x1="368" y1="186.27687752661222" x2="365" y2="181.0807251039056" stroke="rgb(255,0,87)" stroke-width="2"></line><line x1="302" y1="186.27687752661222" x2="305" y2="181.0807251039056" stroke="rgb(255,0,87)" stroke-width="2"></line><line x1="527" y1="129.11920087683927" x2="521" y2="129.11920087683927" stroke="rgb(255,0,125)" stroke-width="2"></line><line x1="494" y1="186.27687752661222" x2="491" y2="181.0807251039056" stroke="rgb(255,0,125)" stroke-width="2"></line><line x1="428" y1="186.27687752661222" x2="431" y2="181.0807251039056" stroke="rgb(255,0,87)" stroke-width="2"></line><line x1="86" y1="238.23840175367854" x2="80" y2="238.23840175367854" stroke="rgb(129,0,43)" stroke-width="2"></line><line x1="53" y1="295.3960784034515" x2="50" y2="290.19992598074487" stroke="rgb(129,0,43)" stroke-width="2"></line><line x1="-13" y1="295.3960784034515" x2="-10" y2="290.19992598074487" stroke="rgb(129,0,43)" stroke-width="2"></line><line x1="212" y1="238.23840175367854" x2="206" y2="238.23840175367854" stroke="rgb(184,0,61)" stroke-width="2"></line><line x1="179" y1="295.3960784034515" x2="176" y2="290.19992598074487" stroke="rgb(129,0,43)" stroke-width="2"></line><line x1="113" y1="295.3960784034515" x2="116" y2="290.19992598074487" stroke="rgb(184,0,61)" stroke-width="2"></line><line x1="338" y1="238.23840175367854" x2="332" y2="238.23840175367854" stroke="rgb(184,0,61)" stroke-width="2"></line><line x1="305" y1="295.3960784034515" x2="302" y2="290.19992598074487" stroke="rgb(129,0,43)" stroke-width="2"></line><line x1="239" y1="295.3960784034515" x2="242" y2="290.19992598074487" stroke="rgb(184,0,61)" stroke-width="2"></line><line x1="464" y1="238.23840175367854" x2="458" y2="238.23840175367854" stroke="rgb(184,0,61)" stroke-width="2"></line><line x1="431" y1="295.3960784034515" x2="428" y2="290.19992598074487" stroke="rgb(184,0,61)" stroke-width="2"></line><line x1="365" y1="295.3960784034515" x2="368" y2="290.19992598074487" stroke="rgb(184,0,61)" stroke-width="2"></line><line x1="149" y1="347.3576026305178" x2="143" y2="347.3576026305178" stroke="rgb(90,0,30)" stroke-width="2"></line><line x1="116" y1="404.51527928029077" x2="113" y2="399.31912685758414" stroke="rgb(90,0,30)" stroke-width="2"></line><line x1="50" y1="404.51527928029077" x2="53" y2="399.31912685758414" stroke="rgb(129,0,43)" stroke-width="2"></line><line x1="275" y1="347.3576026305178" x2="269" y2="347.3576026305178" stroke="rgb(129,0,43)" stroke-width="2"></line><line x1="242" y1="404.51527928029077" x2="239" y2="399.31912685758414" stroke="rgb(129,0,43)" stroke-width="2"></line><line x1="176" y1="404.51527928029077" x2="179" y2="399.31912685758414" stroke="rgb(90,0,30)" stroke-width="2"></line><line x1="401" y1="347.3576026305178" x2="395" y2="347.3576026305178" stroke="rgb(129,0,43)" stroke-width="2"></line><line x1="368" y1="404.51527928029077" x2="365" y2="399.31912685758414" stroke="rgb(129,0,43)" stroke-width="2"></line><line x1="302" y1="404.51527928029077" x2="305" y2="399.31912685758414" stroke="rgb(90,0,30)" stroke-width="2"></line><line x1="527" y1="347.3576026305178" x2="521" y2="347.3576026305178" stroke="rgb(129,0,43)" stroke-width="2"></line><line x1="494" y1="404.51527928029077" x2="491" y2="399.31912685758414" stroke="rgb(129,0,43)" stroke-width="2"></line><line x1="428" y1="404.51527928029077" x2="431" y2="399.31912685758414" stroke="rgb(129,0,43)" stroke-width="2"></line><line x1="86" y1="456.4768035073571" x2="80" y2="456.4768035073571" stroke="rgb(90,0,30)" stroke-width="2"></line><line x1="53" y1="513.63448015713" x2="50" y2="508.4383277344234" stroke="rgb(90,0,30)" stroke-width="2"></line><line x1="-13" y1="513.63448015713" x2="-10" y2="508.4383277344234" stroke="rgb(90,0,30)" stroke-width="2"></line><line x1="212" y1="456.4768035073571" x2="206" y2="456.4768035073571" stroke="rgb(63,0,21)" stroke-width="2"></line><line x1="179" y1="513.63448015713" x2="176" y2="508.4383277344234" stroke="rgb(63,0,21)" stroke-width="2"></line><line x1="113" y1="513.63448015713" x2="116" y2="508.4383277344234" stroke="rgb(63,0,21)" stroke-width="2"></line><line x1="338" y1="456.4768035073571" x2="332" y2="456.4768035073571" stroke="rgb(90,0,30)" stroke-width="2"></line><line x1="305" y1="513.63448015713" x2="302" y2="508.4383277344234" stroke="rgb(44,0,14)" stroke-width="2"></line><line x1="239" y1="513.63448015713" x2="242" y2="508.4383277344234" stroke="rgb(63,0,21)" stroke-width="2"></line><line x1="464" y1="456.4768035073571" x2="458" y2="456.4768035073571" stroke="rgb(90,0,30)" stroke-width="2"></line><line x1="431" y1="513.63448015713" x2="428" y2="508.4383277344234" stroke="rgb(63,0,21)" stroke-width="2"></line><line x1="365" y1="513.63448015713" x2="368" y2="508.4383277344234" stroke="rgb(90,0,30)" stroke-width="2"></line></svg>
