<svg xmlns="http://www.w3.org/2000/svg" version="1.1"><path d="
M 96 20 C
58 20
39 52.90896534380867
58 85.81793068761733
" stroke="#000" stroke-width="5" fill-opacity="0.0"></path><path d="
M 96 20 C
172 20
172 20
248 20
" stroke="#000" stroke-width="5" fill-opacity="0.0"></path><path d="
M 58 85.81793068761733 C
39 52.90896534380867
1 52.90896534380867
-18 85.81793068761733
" stroke="#000" stroke-width="5" fill-opacity="0.0"></path><path d="
M 58 85.81793068761733 C
96 151.6358613752347
96 151.63586137523467
134 217.45379206285202
" stroke="#000" stroke-width="5" fill-opacity="0.0"></path><path d="
M 58 85.81793068761733 C
90.90896534380867 142.81793068761735
90.90896534380867 160.45379206285202
58 217.45379206285202
" stroke="#000" stroke-width="5" fill-opacity="0.0"></path><path d="
M 248 20 C
210 20
191 52.90896534380867
210 85.81793068761733
" stroke="#000" stroke-width="5" fill-opacity="0.0"></path><path d="
M 248 20 C
182.18206931238268 20
166.90896534380866 28.81793068761734
134 85.81793068761733
" stroke="#000" stroke-width="5" fill-opacity="0.0"></path><path d="
M 248 20 C
313.8179306876173 20
329.0910346561913 28.81793068761734
362 85.81793068761733
" stroke="#000" stroke-width="5" fill-opacity="0.0"></path><path d="
M 210 85.81793068761733 C
191 52.90896534380867
153 52.90896534380867
134 85.81793068761733
" stroke="#000" stroke-width="5" fill-opacity="0.0"></path><path d="
M 210 85.81793068761733 C
229 118.72689603142601
210 151.63586137523467
172 151.63586137523467
" stroke="#000" stroke-width="5" fill-opacity="0.0"></path><path d="
M 134 85.81793068761733 C
101.09103465619133 142.81793068761735
101.09103465619133 160.45379206285202
134 217.45379206285202
" stroke="#000" stroke-width="5" fill-opacity="0.0"></path><path d="
M 134 85.81793068761733 C
96 151.6358613752347
96 151.63586137523467
58 217.45379206285202
" stroke="#000" stroke-width="5" fill-opacity="0.0"></path><path d="
M 400 20 C
334.1820693123827 20
318.9089653438087 28.81793068761734
286 85.81793068761733
" stroke="#000" stroke-width="5" fill-opacity="0.0"></path><path d="
M 362 85.81793068761733 C
343 52.90896534380867
305 52.90896534380867
286 85.81793068761733
" stroke="#000" stroke-width="5" fill-opacity="0.0"></path><path d="
M 362 85.81793068761733 C
400 151.6358613752347
400 151.63586137523467
438 217.45379206285202
" stroke="#000" stroke-width="5" fill-opacity="0.0"></path><path d="
M 286 85.81793068761733 C
253.09103465619134 142.81793068761732
237.81793068761732 151.63586137523467
172 151.63586137523467
" stroke="#000" stroke-width="5" fill-opacity="0.0"></path><path d="
M 286 85.81793068761733 C
253.0910346561913 142.81793068761735
253.0910346561913 160.45379206285202
286 217.45379206285202
" stroke="#000" stroke-width="5" fill-opacity="0.0"></path><path d="
M 286 85.81793068761733 C
248 151.6358613752347
248 151.63586137523467
210 217.45379206285202
" stroke="#000" stroke-width="5" fill-opacity="0.0"></path><path d="
M 514 85.81793068761733 C
495 52.90896534380867
457 52.90896534380867
438 85.81793068761733
" stroke="#000" stroke-width="5" fill-opacity="0.0"></path><path d="
M 172 151.63586137523467 C
134 151.63586137523467
115 184.54482671904333
134 217.45379206285202
" stroke="#000" stroke-width="5" fill-opacity="0.0"></path><path d="
M 172 151.63586137523467 C
106.18206931238267 151.63586137523467
90.90896534380866 160.45379206285202
58 217.45379206285202
" stroke="#000" stroke-width="5" fill-opacity="0.0"></path><path d="
M 172 151.63586137523467 C
248 151.63586137523467
248 151.63586137523467
324 151.63586137523467
" stroke="#000" stroke-width="5" fill-opacity="0.0"></path><path d="
M 134 217.45379206285202 C
166.90896534380866 274.453792062852
182.18206931238268 283.27172275046934
248 283.27172275046934
" stroke="#000" stroke-width="5" fill-opacity="0.0"></path><path d="
M 134 217.45379206285202 C
172 283.27172275046934
172 283.27172275046934
210 349.08965343808666
" stroke="#000" stroke-width="5" fill-opacity="0.0"></path><path d="
M 134 217.45379206285202 C
166.90896534380866 274.453792062852
166.90896534380866 292.08965343808666
134 349.08965343808666
" stroke="#000" stroke-width="5" fill-opacity="0.0"></path><path d="
M 324 151.63586137523467 C
362 151.63586137523467
381 184.54482671904333
362 217.45379206285202
" stroke="#000" stroke-width="5" fill-opacity="0.0"></path><path d="
M 286 217.45379206285202 C
305 250.36275740666068
343 250.36275740666068
362 217.45379206285202
" stroke="#000" stroke-width="5" fill-opacity="0.0"></path><path d="
M 286 217.45379206285202 C
305 250.36275740666068
286 283.27172275046934
248 283.27172275046934
" stroke="#000" stroke-width="5" fill-opacity="0.0"></path><path d="
M 286 217.45379206285202 C
318.9089653438087 274.453792062852
334.1820693123827 283.27172275046934
400 283.27172275046934
" stroke="#000" stroke-width="5" fill-opacity="0.0"></path><path d="
M 286 217.45379206285202 C
318.90896534380863 274.453792062852
318.90896534380863 292.08965343808666
286 349.08965343808666
" stroke="#000" stroke-width="5" fill-opacity="0.0"></path><path d="
M 210 217.45379206285202 C
177.09103465619134 274.453792062852
177.09103465619134 292.08965343808666
210 349.08965343808666
" stroke="#000" stroke-width="5" fill-opacity="0.0"></path><path d="
M 210 217.45379206285202 C
172 283.27172275046934
172 283.27172275046934
134 349.08965343808666
" stroke="#000" stroke-width="5" fill-opacity="0.0"></path><path d="
M 476 151.63586137523467 C
410.1820693123827 151.63586137523467
394.9089653438087 160.45379206285202
362 217.45379206285202
" stroke="#000" stroke-width="5" fill-opacity="0.0"></path><path d="
M 438 217.45379206285202 C
457 250.36275740666068
438 283.27172275046934
400 283.27172275046934
" stroke="#000" stroke-width="5" fill-opacity="0.0"></path><path d="
M 362 217.45379206285202 C
329.0910346561913 274.453792062852
313.8179306876173 283.27172275046934
248 283.27172275046934
" stroke="#000" stroke-width="5" fill-opacity="0.0"></path><path d="
M 362 217.45379206285202 C
343 250.36275740666068
362 283.27172275046934
400 283.27172275046934
" stroke="#000" stroke-width="5" fill-opacity="0.0"></path><path d="
M 362 217.45379206285202 C
329.09103465619137 274.453792062852
329.09103465619137 292.08965343808666
362 349.08965343808666
" stroke="#000" stroke-width="5" fill-opacity="0.0"></path><path d="
M 96 283.27172275046934 C
58.00000000000001 283.27172275046934
39 316.180688094278
58 349.08965343808666
" stroke="#000" stroke-width="5" fill-opacity="0.0"></path><path d="
M 96 283.27172275046934 C
30.182069312382666 283.27172275046934
14.908965343808667 292.08965343808666
-18 349.08965343808666
" stroke="#000" stroke-width="5" fill-opacity="0.0"></path><path d="
M 96 283.27172275046934 C
134 283.27172275046934
153 316.180688094278
134 349.08965343808666
" stroke="#000" stroke-width="5" fill-opacity="0.0"></path><path d="
M 58 349.08965343808666 C
39 316.18068809427797
1 316.18068809427797
-18 349.08965343808666
" stroke="#000" stroke-width="5" fill-opacity="0.0"></path><path d="
M 58 349.08965343808666 C
90.90896534380867 406.08965343808666
106.18206931238265 414.90758412570403
172 414.90758412570403
" stroke="#000" stroke-width="5" fill-opacity="0.0"></path><path d="
M 210 349.08965343808666 C
229 381.99861878189535
267 381.99861878189535
286 349.08965343808666
" stroke="#000" stroke-width="5" fill-opacity="0.0"></path><path d="
M 210 349.08965343808666 C
229 381.99861878189535
210.00000000000003 414.90758412570403
172 414.90758412570403
" stroke="#000" stroke-width="5" fill-opacity="0.0"></path><path d="
M 210 349.08965343808666 C
242.9089653438087 406.08965343808666
258.1820693123826 414.90758412570403
324 414.90758412570403
" stroke="#000" stroke-width="5" fill-opacity="0.0"></path><path d="
M 210 349.08965343808666 C
248 414.90758412570403
248 414.90758412570403
286 480.72551481332135
" stroke="#000" stroke-width="5" fill-opacity="0.0"></path><path d="
M 134 349.08965343808666 C
114.99999999999999 381.99861878189535
133.99999999999997 414.90758412570403
172 414.90758412570403
" stroke="#000" stroke-width="5" fill-opacity="0.0"></path><path d="
M 134 349.08965343808666 C
101.09103465619133 406.08965343808666
101.09103465619133 423.72551481332135
134 480.72551481332135
" stroke="#000" stroke-width="5" fill-opacity="0.0"></path><path d="
M 134 349.08965343808666 C
96 414.90758412570403
96 414.90758412570403
58 480.72551481332135
" stroke="#000" stroke-width="5" fill-opacity="0.0"></path><path d="
M 400 283.27172275046934 C
476 283.27172275046934
476 283.27172275046934
552 283.27172275046934
" stroke="#000" stroke-width="5" fill-opacity="0.0"></path><path d="
M 400 283.27172275046934 C
465.8179306876173 283.27172275046934
481.0910346561913 292.08965343808666
514 349.08965343808666
" stroke="#000" stroke-width="5" fill-opacity="0.0"></path><path d="
M 362 349.08965343808666 C
343 316.18068809427797
305 316.18068809427797
286 349.08965343808666
" stroke="#000" stroke-width="5" fill-opacity="0.0"></path><path d="
M 362 349.08965343808666 C
381 381.99861878189535
362 414.90758412570403
324 414.90758412570403
" stroke="#000" stroke-width="5" fill-opacity="0.0"></path><path d="
M 362 349.08965343808666 C
394.9089653438087 406.08965343808666
410.1820693123826 414.90758412570403
476 414.90758412570403
" stroke="#000" stroke-width="5" fill-opacity="0.0"></path><path d="
M 362 349.08965343808666 C
400 414.90758412570403
400 414.90758412570403
438 480.72551481332135
" stroke="#000" stroke-width="5" fill-opacity="0.0"></path><path d="
M 362 349.08965343808666 C
394.9089653438087 406.08965343808666
394.9089653438087 423.72551481332135
362 480.72551481332135
" stroke="#000" stroke-width="5" fill-opacity="0.0"></path><path d="
M 286 349.08965343808666 C
253.0910346561913 406.08965343808666
253.0910346561913 423.72551481332135
286 480.72551481332135
" stroke="#000" stroke-width="5" fill-opacity="0.0"></path><path d="
M 514 349.08965343808666 C
495 316.18068809427797
457 316.18068809427797
438 349.08965343808666
" stroke="#000" stroke-width="5" fill-opacity="0.0"></path><path d="
M 438 349.08965343808666 C
405.0910346561913 406.08965343808666
389.8179306876174 414.90758412570403
324 414.90758412570403
" stroke="#000" stroke-width="5" fill-opacity="0.0"></path><path d="
M 438 349.08965343808666 C
405.0910346561913 406.08965343808666
405.0910346561913 423.72551481332135
438 480.72551481332135
" stroke="#000" stroke-width="5" fill-opacity="0.0"></path><path d="
M 438 349.08965343808666 C
400 414.90758412570403
400 414.90758412570403
362 480.72551481332135
" stroke="#000" stroke-width="5" fill-opacity="0.0"></path><path d="
M 172 414.90758412570403 C
134 414.90758412570403
115 447.81654946951267
134 480.72551481332135
" stroke="#000" stroke-width="5" fill-opacity="0.0"></path><path d="
M 172 414.90758412570403 C
106.18206931238267 414.90758412570403
90.90896534380866 423.72551481332135
58 480.72551481332135
" stroke="#000" stroke-width="5" fill-opacity="0.0"></path><path d="
M 172 414.90758412570403 C
248 414.90758412570403
248 414.90758412570403
324 414.90758412570403
" stroke="#000" stroke-width="5" fill-opacity="0.0"></path><path d="
M 172 414.90758412570403 C
237.81793068761732 414.90758412570403
253.09103465619134 423.72551481332135
286 480.72551481332135
" stroke="#000" stroke-width="5" fill-opacity="0.0"></path><path d="
M 172 414.90758412570403 C
210 414.90758412570403
229 447.81654946951267
210 480.72551481332135
" stroke="#000" stroke-width="5" fill-opacity="0.0"></path><path d="
M 324 414.90758412570403 C
286 414.90758412570403
267 447.81654946951267
286 480.72551481332135
" stroke="#000" stroke-width="5" fill-opacity="0.0"></path><path d="
M 324 414.90758412570403 C
400 414.90758412570403
400 414.90758412570403
476 414.90758412570403
" stroke="#000" stroke-width="5" fill-opacity="0.0"></path><path d="
M 324 414.90758412570403 C
389.8179306876173 414.90758412570403
405.0910346561913 423.72551481332135
438 480.72551481332135
" stroke="#000" stroke-width="5" fill-opacity="0.0"></path><path d="
M 286 480.72551481332135 C
305 513.63448015713
343 513.63448015713
362 480.72551481332135
" stroke="#000" stroke-width="5" fill-opacity="0.0"></path><path d="
M 476 414.90758412570403 C
438 414.90758412570403
419 447.81654946951267
438 480.72551481332135
" stroke="#000" stroke-width="5" fill-opacity="0.0"></path><path d="
M 476 414.90758412570403 C
410.1820693123827 414.90758412570403
394.9089653438087 423.72551481332135
362 480.72551481332135
" stroke="#000" stroke-width="5" fill-opacity="0.0"></path><line x1="99" y1="20" x2="93" y2="20" stroke="#808" stroke-width="2"></line><line x1="59.5" y1="88.41600689897065" x2="56.5" y2="83.21985447626402" stroke="#808" stroke-width="2"></line><line x1="-19.5" y1="88.41600689897065" x2="-16.5" y2="83.21985447626402" stroke="#808" stroke-width="2"></line><line x1="251" y1="20" x2="245" y2="20" stroke="#808" stroke-width="2"></line><line x1="211.5" y1="88.41600689897065" x2="208.5" y2="83.21985447626402" stroke="#808" stroke-width="2"></line><line x1="132.5" y1="88.41600689897065" x2="135.5" y2="83.21985447626402" stroke="#808" stroke-width="2"></line><line x1="403" y1="20" x2="397" y2="20" stroke="#808" stroke-width="2"></line><line x1="363.5" y1="88.41600689897065" x2="360.5" y2="83.21985447626402" stroke="#808" stroke-width="2"></line><line x1="284.5" y1="88.41600689897065" x2="287.5" y2="83.21985447626402" stroke="#808" stroke-width="2"></line><line x1="555" y1="20" x2="549" y2="20" stroke="#808" stroke-width="2"></line><line x1="515.5" y1="88.41600689897065" x2="512.5" y2="83.21985447626402" stroke="#808" stroke-width="2"></line><line x1="436.5" y1="88.41600689897065" x2="439.5" y2="83.21985447626402" stroke="#808" stroke-width="2"></line><line x1="175" y1="151.63586137523467" x2="169" y2="151.63586137523467" stroke="#808" stroke-width="2"></line><line x1="135.5" y1="220.05186827420533" x2="132.5" y2="214.8557158514987" stroke="#808" stroke-width="2"></line><line x1="56.5" y1="220.05186827420533" x2="59.5" y2="214.8557158514987" stroke="#808" stroke-width="2"></line><line x1="327" y1="151.63586137523467" x2="321" y2="151.63586137523467" stroke="#808" stroke-width="2"></line><line x1="287.5" y1="220.05186827420533" x2="284.5" y2="214.8557158514987" stroke="#808" stroke-width="2"></line><line x1="208.5" y1="220.05186827420533" x2="211.5" y2="214.8557158514987" stroke="#808" stroke-width="2"></line><line x1="479" y1="151.63586137523467" x2="473" y2="151.63586137523467" stroke="#808" stroke-width="2"></line><line x1="439.5" y1="220.05186827420533" x2="436.5" y2="214.8557158514987" stroke="#808" stroke-width="2"></line><line x1="360.5" y1="220.05186827420533" x2="363.5" y2="214.8557158514987" stroke="#808" stroke-width="2"></line><line x1="99" y1="283.27172275046934" x2="93" y2="283.27172275046934" stroke="#808" stroke-width="2"></line><line x1="59.5" y1="351.68772964944" x2="56.5" y2="346.49157722673334" stroke="#808" stroke-width="2"></line><line x1="-19.5" y1="351.68772964944" x2="-16.5" y2="346.49157722673334" stroke="#808" stroke-width="2"></line><line x1="251" y1="283.27172275046934" x2="245" y2="283.27172275046934" stroke="#808" stroke-width="2"></line><line x1="211.5" y1="351.68772964944" x2="208.5" y2="346.49157722673334" stroke="#808" stroke-width="2"></line><line x1="132.5" y1="351.68772964944" x2="135.5" y2="346.49157722673334" stroke="#808" stroke-width="2"></line><line x1="403" y1="283.27172275046934" x2="397" y2="283.27172275046934" stroke="#808" stroke-width="2"></line><line x1="363.5" y1="351.68772964944" x2="360.5" y2="346.49157722673334" stroke="#808" stroke-width="2"></line><line x1="284.5" y1="351.68772964944" x2="287.5" y2="346.49157722673334" stroke="#808" stroke-width="2"></line><line x1="555" y1="283.27172275046934" x2="549" y2="283.27172275046934" stroke="#808" stroke-width="2"></line><line x1="515.5" y1="351.68772964944" x2="512.5" y2="346.49157722673334" stroke="#808" stroke-width="2"></line><line x1="436.5" y1="351.68772964944" x2="439.5" y2="346.49157722673334" stroke="#808" stroke-width="2"></line><line x1="175" y1="414.90758412570403" x2="169" y2="414.90758412570403" stroke="#808" stroke-width="2"></line><line x1="135.5" y1="483.32359102467467" x2="132.5" y2="478.12743860196804" stroke="#808" stroke-width="2"></line><line x1="56.5" y1="483.32359102467467" x2="59.5" y2="478.12743860196804" stroke="#808" stroke-width="2"></line><line x1="327" y1="414.90758412570403" x2="321" y2="414.90758412570403" stroke="#808" stroke-width="2"></line><line x1="287.5" y1="483.32359102467467" x2="284.5" y2="478.12743860196804" stroke="#808" stroke-width="2"></line><line x1="208.5" y1="483.32359102467467" x2="211.5" y2="478.12743860196804" stroke="#808" stroke-width="2"></line><line x1="479" y1="414.90758412570403" x2="473" y2="414.90758412570403" stroke="#808" stroke-width="2"></line><line x1="439.5" y1="483.32359102467467" x2="436.5" y2="478.12743860196804" stroke="#808" stroke-width="2"></line><line x1="360.5" y1="483.32359102467467" x2="363.5" y2="478.12743860196804" stroke="#808" stroke-width="2"></line></svg>
