<svg xmlns="http://www.w3.org/2000/svg" version="1.1"><path d="
M 105 20 C
62.5 20
41.25 56.80607966083864
62.5 93.61215932167728
" stroke="rgb(25,0,102)" stroke-width="5" fill-opacity="0.0"></path><path d="
M 105 20 C
31.387840678322718 20
14.306079660838641 29.86215932167729
-22.5 93.61215932167728
" stroke="rgb(25,0,102)" stroke-width="5" fill-opacity="0.0"></path><path d="
M 105 20 C
190 20
190 20
275 20
" stroke="rgb(25,0,102)" stroke-width="5" fill-opacity="0.0"></path><path d="
M 105 20 C
178.61215932167727 20
195.69392033916137 29.86215932167729
232.5 93.61215932167728
" stroke="rgb(25,0,102)" stroke-width="5" fill-opacity="0.0"></path><path d="
M 105 20 C
147.5 20
168.75 56.80607966083864
147.5 93.61215932167728
" stroke="rgb(25,0,102)" stroke-width="5" fill-opacity="0.0"></path><path d="
M 62.5 93.61215932167728 C
99.30607966083863 157.36215932167727
116.38784067832272 167.22431864335456
190 167.22431864335456
" stroke="rgb(25,0,102)" stroke-width="5" fill-opacity="0.0"></path><path d="
M 62.5 93.61215932167728 C
99.30607966083865 157.3621593216773
99.30607966083865 177.08647796503186
62.5 240.83647796503186
" stroke="rgb(25,0,102)" stroke-width="5" fill-opacity="0.0"></path><path d="
M 275 20 C
232.5 20
211.25 56.80607966083864
232.5 93.61215932167728
" stroke="rgb(25,0,102)" stroke-width="5" fill-opacity="0.0"></path><path d="
M 275 20 C
348.61215932167727 20
365.69392033916137 29.86215932167729
402.5 93.61215932167728
" stroke="rgb(25,0,102)" stroke-width="5" fill-opacity="0.0"></path><path d="
M 275 20 C
317.5 20
338.75 56.80607966083864
317.5 93.61215932167728
" stroke="rgb(25,0,102)" stroke-width="5" fill-opacity="0.0"></path><path d="
M 232.5 93.61215932167728 C
211.25 56.80607966083864
168.75 56.80607966083864
147.5 93.61215932167728
" stroke="rgb(25,0,102)" stroke-width="5" fill-opacity="0.0"></path><path d="
M 232.5 93.61215932167728 C
269.30607966083863 157.36215932167727
286.38784067832273 167.22431864335456
360 167.22431864335456
" stroke="rgb(25,0,102)" stroke-width="5" fill-opacity="0.0"></path><path d="
M 232.5 93.61215932167728 C
275 167.2243186433546
275 167.22431864335456
317.5 240.83647796503186
" stroke="rgb(25,0,102)" stroke-width="5" fill-opacity="0.0"></path><path d="
M 232.5 93.61215932167728 C
269.30607966083863 157.3621593216773
269.30607966083863 177.08647796503186
232.5 240.83647796503186
" stroke="rgb(25,0,102)" stroke-width="5" fill-opacity="0.0"></path><path d="
M 147.5 93.61215932167728 C
126.25 130.41823898251593
147.5 167.22431864335456
190 167.22431864335456
" stroke="rgb(25,0,102)" stroke-width="5" fill-opacity="0.0"></path><path d="
M 147.5 93.61215932167728 C
110.69392033916135 157.3621593216773
110.69392033916135 177.08647796503186
147.5 240.83647796503186
" stroke="rgb(25,0,102)" stroke-width="5" fill-opacity="0.0"></path><path d="
M 147.5 93.61215932167728 C
105 167.2243186433546
105 167.22431864335456
62.5 240.83647796503186
" stroke="rgb(25,0,102)" stroke-width="5" fill-opacity="0.0"></path><path d="
M 445 20 C
402.5 20
381.25 56.80607966083864
402.5 93.61215932167728
" stroke="rgb(25,0,102)" stroke-width="5" fill-opacity="0.0"></path><path d="
M 402.5 93.61215932167728 C
423.75 130.41823898251593
402.5 167.22431864335456
360 167.22431864335456
" stroke="rgb(25,0,102)" stroke-width="5" fill-opacity="0.0"></path><path d="
M 402.5 93.61215932167728 C
439.30607966083863 157.36215932167727
456.38784067832273 167.22431864335456
530 167.22431864335456
" stroke="rgb(25,0,102)" stroke-width="5" fill-opacity="0.0"></path><path d="
M 402.5 93.61215932167728 C
439.30607966083863 157.3621593216773
439.30607966083863 177.08647796503186
402.5 240.83647796503186
" stroke="rgb(25,0,102)" stroke-width="5" fill-opacity="0.0"></path><path d="
M 317.5 93.61215932167728 C
296.25 130.41823898251593
317.5 167.22431864335456
360 167.22431864335456
" stroke="rgb(25,0,102)" stroke-width="5" fill-opacity="0.0"></path><path d="
M 317.5 93.61215932167728 C
280.69392033916137 157.3621593216773
280.69392033916137 177.08647796503186
317.5 240.83647796503186
" stroke="rgb(25,0,102)" stroke-width="5" fill-opacity="0.0"></path><path d="
M 190 167.22431864335456 C
116.38784067832272 167.22431864335456
99.30607966083863 177.08647796503186
62.5 240.83647796503186
" stroke="rgb(25,0,102)" stroke-width="5" fill-opacity="0.0"></path><path d="
M 190 167.22431864335456 C
275 167.22431864335456
275 167.22431864335456
360 167.22431864335456
" stroke="rgb(25,0,102)" stroke-width="5" fill-opacity="0.0"></path><path d="
M 190 167.22431864335456 C
263.61215932167727 167.22431864335456
280.69392033916137 177.08647796503186
317.5 240.83647796503186
" stroke="rgb(25,0,102)" stroke-width="5" fill-opacity="0.0"></path><path d="
M 147.5 240.83647796503186 C
168.75 277.6425576258705
147.5 314.44863728670913
105 314.44863728670913
" stroke="rgb(25,0,102)" stroke-width="5" fill-opacity="0.0"></path><path d="
M 147.5 240.83647796503186 C
184.30607966083863 304.58647796503186
201.38784067832273 314.44863728670913
275 314.44863728670913
" stroke="rgb(25,0,102)" stroke-width="5" fill-opacity="0.0"></path><path d="
M 147.5 240.83647796503186 C
190 314.44863728670913
190 314.44863728670913
232.5 388.0607966083864
" stroke="rgb(25,0,102)" stroke-width="5" fill-opacity="0.0"></path><path d="
M 62.5 240.83647796503186 C
25.693920339161366 304.58647796503186
25.693920339161366 324.3107966083864
62.5 388.0607966083864
" stroke="rgb(25,0,102)" stroke-width="5" fill-opacity="0.0"></path><path d="
M 62.5 240.83647796503186 C
20.000000000000007 314.44863728670913
19.999999999999993 314.44863728670913
-22.5 388.0607966083864
" stroke="rgb(25,0,102)" stroke-width="5" fill-opacity="0.0"></path><path d="
M 360 167.22431864335456 C
317.5 167.22431864335456
296.25 204.03039830419323
317.5 240.83647796503186
" stroke="rgb(25,0,102)" stroke-width="5" fill-opacity="0.0"></path><path d="
M 360 167.22431864335456 C
286.38784067832273 167.22431864335456
269.30607966083863 177.08647796503186
232.5 240.83647796503186
" stroke="rgb(25,0,102)" stroke-width="5" fill-opacity="0.0"></path><path d="
M 360 167.22431864335456 C
433.61215932167727 167.22431864335456
450.69392033916137 177.08647796503186
487.5 240.83647796503186
" stroke="rgb(25,0,102)" stroke-width="5" fill-opacity="0.0"></path><path d="
M 317.5 240.83647796503186 C
296.25 204.03039830419323
253.75 204.03039830419323
232.5 240.83647796503186
" stroke="rgb(25,0,102)" stroke-width="5" fill-opacity="0.0"></path><path d="
M 317.5 240.83647796503186 C
360 314.44863728670913
360 314.44863728670913
402.5 388.0607966083864
" stroke="rgb(25,0,102)" stroke-width="5" fill-opacity="0.0"></path><path d="
M 317.5 240.83647796503186 C
354.30607966083863 304.58647796503186
354.30607966083863 324.3107966083864
317.5 388.0607966083864
" stroke="rgb(25,0,102)" stroke-width="5" fill-opacity="0.0"></path><path d="
M 232.5 240.83647796503186 C
195.69392033916137 304.58647796503186
195.69392033916137 324.3107966083864
232.5 388.0607966083864
" stroke="rgb(25,0,102)" stroke-width="5" fill-opacity="0.0"></path><path d="
M 232.5 240.83647796503186 C
190 314.44863728670913
190 314.44863728670913
147.5 388.0607966083864
" stroke="rgb(25,0,102)" stroke-width="5" fill-opacity="0.0"></path><path d="
M 530 167.22431864335456 C
456.38784067832273 167.22431864335456
439.30607966083863 177.08647796503186
402.5 240.83647796503186
" stroke="rgb(25,0,102)" stroke-width="5" fill-opacity="0.0"></path><path d="
M 487.5 240.83647796503186 C
466.25 204.03039830419323
423.75 204.03039830419323
402.5 240.83647796503186
" stroke="rgb(25,0,102)" stroke-width="5" fill-opacity="0.0"></path><path d="
M 487.5 240.83647796503186 C
508.75 277.6425576258705
487.5 314.44863728670913
445 314.44863728670913
" stroke="rgb(25,0,102)" stroke-width="5" fill-opacity="0.0"></path><path d="
M 402.5 240.83647796503186 C
365.69392033916137 304.58647796503186
348.61215932167727 314.44863728670913
275 314.44863728670913
" stroke="rgb(25,0,102)" stroke-width="5" fill-opacity="0.0"></path><path d="
M 402.5 240.83647796503186 C
381.25 277.6425576258705
402.5 314.44863728670913
445 314.44863728670913
" stroke="rgb(25,0,102)" stroke-width="5" fill-opacity="0.0"></path><path d="
M 402.5 240.83647796503186 C
360 314.44863728670913
360 314.44863728670913
317.5 388.0607966083864
" stroke="rgb(25,0,102)" stroke-width="5" fill-opacity="0.0"></path><path d="
M 105 314.44863728670913 C
62.50000000000001 314.44863728670913
41.25 351.25471694754776
62.5 388.0607966083864
" stroke="rgb(25,0,102)" stroke-width="5" fill-opacity="0.0"></path><path d="
M 105 314.44863728670913 C
31.387840678322718 314.44863728670913
14.306079660838641 324.3107966083864
-22.5 388.0607966083864
" stroke="rgb(25,0,102)" stroke-width="5" fill-opacity="0.0"></path><path d="
M 62.5 388.0607966083864 C
99.30607966083865 451.8107966083864
99.30607966083865 471.535115251741
62.5 535.285115251741
" stroke="rgb(25,0,102)" stroke-width="5" fill-opacity="0.0"></path><path d="
M 275 314.44863728670913 C
232.5 314.44863728670913
211.25 351.25471694754776
232.5 388.0607966083864
" stroke="rgb(25,0,102)" stroke-width="5" fill-opacity="0.0"></path><path d="
M 275 314.44863728670913 C
201.38784067832273 314.44863728670913
184.30607966083863 324.3107966083864
147.5 388.0607966083864
" stroke="rgb(25,0,102)" stroke-width="5" fill-opacity="0.0"></path><path d="
M 275 314.44863728670913 C
360 314.44863728670913
360 314.44863728670913
445 314.44863728670913
" stroke="rgb(25,0,102)" stroke-width="5" fill-opacity="0.0"></path><path d="
M 275 314.44863728670913 C
317.5 314.44863728670913
338.75 351.25471694754776
317.5 388.0607966083864
" stroke="rgb(25,0,102)" stroke-width="5" fill-opacity="0.0"></path><path d="
M 232.5 388.0607966083864 C
253.75 424.86687626922503
296.25 424.86687626922503
317.5 388.0607966083864
" stroke="rgb(25,0,102)" stroke-width="5" fill-opacity="0.0"></path><path d="
M 232.5 388.0607966083864 C
253.75 424.86687626922503
232.5 461.6729559300637
190 461.6729559300637
" stroke="rgb(25,0,102)" stroke-width="5" fill-opacity="0.0"></path><path d="
M 147.5 388.0607966083864 C
110.69392033916135 451.8107966083864
110.69392033916135 471.535115251741
147.5 535.285115251741
" stroke="rgb(25,0,102)" stroke-width="5" fill-opacity="0.0"></path><path d="
M 445 314.44863728670913 C
402.5 314.44863728670913
381.25 351.25471694754776
402.5 388.0607966083864
" stroke="rgb(25,0,102)" stroke-width="5" fill-opacity="0.0"></path><path d="
M 445 314.44863728670913 C
371.38784067832273 314.44863728670913
354.30607966083863 324.3107966083864
317.5 388.0607966083864
" stroke="rgb(25,0,102)" stroke-width="5" fill-opacity="0.0"></path><path d="
M 402.5 388.0607966083864 C
381.25 351.25471694754776
338.75 351.25471694754776
317.5 388.0607966083864
" stroke="rgb(25,0,102)" stroke-width="5" fill-opacity="0.0"></path><path d="
M 402.5 388.0607966083864 C
439.30607966083863 451.8107966083864
456.38784067832273 461.6729559300637
530 461.6729559300637
" stroke="rgb(25,0,102)" stroke-width="5" fill-opacity="0.0"></path><path d="
M 402.5 388.0607966083864 C
445 461.6729559300637
445 461.6729559300637
487.5 535.285115251741
" stroke="rgb(25,0,102)" stroke-width="5" fill-opacity="0.0"></path><path d="
M 402.5 388.0607966083864 C
439.30607966083863 451.8107966083864
439.30607966083863 471.535115251741
402.5 535.285115251741
" stroke="rgb(25,0,102)" stroke-width="5" fill-opacity="0.0"></path><path d="
M 317.5 388.0607966083864 C
275 461.6729559300637
275 461.6729559300637
232.5 535.285115251741
" stroke="rgb(25,0,102)" stroke-width="5" fill-opacity="0.0"></path><path d="
M 190 461.6729559300637 C
232.5 461.6729559300637
253.75 498.47903559090236
232.5 535.285115251741
" stroke="rgb(25,0,102)" stroke-width="5" fill-opacity="0.0"></path><path d="
M 147.5 535.285115251741 C
168.75 572.0911949125797
211.25 572.0911949125797
232.5 535.285115251741
" stroke="rgb(25,0,102)" stroke-width="5" fill-opacity="0.0"></path><path d="
M 360 461.6729559300637 C
317.5 461.6729559300637
296.25 498.47903559090236
317.5 535.285115251741
" stroke="rgb(25,0,102)" stroke-width="5" fill-opacity="0.0"></path><path d="
M 360 461.6729559300637 C
433.61215932167727 461.6729559300637
450.69392033916137 471.535115251741
487.5 535.285115251741
" stroke="rgb(25,0,102)" stroke-width="5" fill-opacity="0.0"></path><path d="
M 360 461.6729559300637 C
402.5 461.6729559300637
423.75 498.47903559090236
402.5 535.285115251741
" stroke="rgb(25,0,102)" stroke-width="5" fill-opacity="0.0"></path><path d="
M 317.5 535.285115251741 C
296.25 498.47903559090236
253.75 498.47903559090236
232.5 535.285115251741
" stroke="rgb(25,0,102)" stroke-width="5" fill-opacity="0.0"></path><path d="
M 317.5 535.285115251741 C
338.75 572.0911949125797
381.25 572.0911949125797
402.5 535.285115251741
" stroke="rgb(25,0,102)" stroke-width="5" fill-opacity="0.0"></path><path d="
M 530 461.6729559300637 C
487.5 461.6729559300637
466.25 498.47903559090236
487.5 535.285115251741
" stroke="rgb(25,0,102)" stroke-width="5" fill-opacity="0.0"></path><path d="
M 530 461.6729559300637 C
456.38784067832273 461.6729559300637
439.30607966083863 471.535115251741
402.5 535.285115251741
" stroke="rgb(25,0,102)" stroke-width="5" fill-opacity="0.0"></path><line x1="108" y1="20" x2="102" y2="20" stroke="rgb(0,0,0)" stroke-width="2"></line><line x1="64" y1="96.2102355330306" x2="61" y2="91.01408311032397" stroke="rgb(0,0,0)" stroke-width="2"></line><line x1="-24" y1="96.2102355330306" x2="-21" y2="91.01408311032397" stroke="rgb(0,0,0)" stroke-width="2"></line><line x1="278" y1="20" x2="272" y2="20" stroke="rgb(0,0,0)" stroke-width="2"></line><line x1="234" y1="96.2102355330306" x2="231" y2="91.01408311032397" stroke="rgb(0,0,0)" stroke-width="2"></line><line x1="146" y1="96.2102355330306" x2="149" y2="91.01408311032397" stroke="rgb(0,0,0)" stroke-width="2"></line><line x1="448" y1="20" x2="442" y2="20" stroke="rgb(0,0,0)" stroke-width="2"></line><line x1="404" y1="96.2102355330306" x2="401" y2="91.01408311032397" stroke="rgb(0,0,0)" stroke-width="2"></line><line x1="316" y1="96.2102355330306" x2="319" y2="91.01408311032397" stroke="rgb(0,0,0)" stroke-width="2"></line><line x1="193" y1="167.22431864335456" x2="187" y2="167.22431864335456" stroke="rgb(0,0,0)" stroke-width="2"></line><line x1="149" y1="243.43455417638518" x2="146" y2="238.23840175367854" stroke="rgb(0,0,0)" stroke-width="2"></line><line x1="61" y1="243.43455417638518" x2="64" y2="238.23840175367854" stroke="rgb(0,0,0)" stroke-width="2"></line><line x1="363" y1="167.22431864335456" x2="357" y2="167.22431864335456" stroke="rgb(0,0,0)" stroke-width="2"></line><line x1="319" y1="243.43455417638518" x2="316" y2="238.23840175367854" stroke="rgb(0,0,0)" stroke-width="2"></line><line x1="231" y1="243.43455417638518" x2="234" y2="238.23840175367854" stroke="rgb(0,0,0)" stroke-width="2"></line><line x1="533" y1="167.22431864335456" x2="527" y2="167.22431864335456" stroke="rgb(0,0,0)" stroke-width="2"></line><line x1="489" y1="243.43455417638518" x2="486" y2="238.23840175367854" stroke="rgb(0,0,0)" stroke-width="2"></line><line x1="401" y1="243.43455417638518" x2="404" y2="238.23840175367854" stroke="rgb(0,0,0)" stroke-width="2"></line><line x1="108" y1="314.44863728670913" x2="102" y2="314.44863728670913" stroke="rgb(0,0,0)" stroke-width="2"></line><line x1="64" y1="390.6588728197397" x2="61" y2="385.4627203970331" stroke="rgb(0,0,0)" stroke-width="2"></line><line x1="-24" y1="390.6588728197397" x2="-21" y2="385.4627203970331" stroke="rgb(0,0,0)" stroke-width="2"></line><line x1="278" y1="314.44863728670913" x2="272" y2="314.44863728670913" stroke="rgb(0,0,0)" stroke-width="2"></line><line x1="234" y1="390.6588728197397" x2="231" y2="385.4627203970331" stroke="rgb(0,0,0)" stroke-width="2"></line><line x1="146" y1="390.6588728197397" x2="149" y2="385.4627203970331" stroke="rgb(0,0,0)" stroke-width="2"></line><line x1="448" y1="314.44863728670913" x2="442" y2="314.44863728670913" stroke="rgb(0,0,0)" stroke-width="2"></line><line x1="404" y1="390.6588728197397" x2="401" y2="385.4627203970331" stroke="rgb(0,0,0)" stroke-width="2"></line><line x1="316" y1="390.6588728197397" x2="319" y2="385.4627203970331" stroke="rgb(0,0,0)" stroke-width="2"></line><line x1="193" y1="461.6729559300637" x2="187" y2="461.6729559300637" stroke="rgb(0,0,0)" stroke-width="2"></line><line x1="149" y1="537.8831914630944" x2="146" y2="532.6870390403876" stroke="rgb(0,0,0)" stroke-width="2"></line><line x1="61" y1="537.8831914630944" x2="64" y2="532.6870390403876" stroke="rgb(0,0,0)" stroke-width="2"></line><line x1="363" y1="461.6729559300637" x2="357" y2="461.6729559300637" stroke="rgb(0,0,0)" stroke-width="2"></line><line x1="319" y1="537.8831914630944" x2="316" y2="532.6870390403876" stroke="rgb(0,0,0)" stroke-width="2"></line><line x1="231" y1="537.8831914630944" x2="234" y2="532.6870390403876" stroke="rgb(0,0,0)" stroke-width="2"></line><line x1="533" y1="461.6729559300637" x2="527" y2="461.6729559300637" stroke="rgb(0,0,0)" stroke-width="2"></line><line x1="489" y1="537.8831914630944" x2="486" y2="532.6870390403876" stroke="rgb(0,0,0)" stroke-width="2"></line><line x1="401" y1="537.8831914630944" x2="404" y2="532.6870390403876" stroke="rgb(0,0,0)" stroke-width="2"></line></svg>
