<svg xmlns="http://www.w3.org/2000/svg" version="1.1"><path d="
M 100 20 C
60 20
40 54.64101615137754
60 89.28203230275508
" stroke="rgb(25,179,102)" stroke-width="5" fill-opacity="0.0"></path><path d="
M 100 20 C
30.7179676972449 20
14.64101615137755 29.282032302755084
-20 89.28203230275508
" stroke="rgb(25,179,102)" stroke-width="5" fill-opacity="0.0"></path><path d="
M 100 20 C
180 20
180 20
260 20
" stroke="rgb(25,179,102)" stroke-width="5" fill-opacity="0.0"></path><path d="
M 100 20 C
169.2820323027551 20
185.35898384862244 29.282032302755084
220 89.28203230275508
" stroke="rgb(25,179,102)" stroke-width="5" fill-opacity="0.0"></path><path d="
M 60 89.28203230275508 C
40 54.64101615137754
0 54.64101615137754
-20 89.28203230275508
" stroke="rgb(25,179,102)" stroke-width="5" fill-opacity="0.0"></path><path d="
M 60 89.28203230275508 C
94.64101615137756 149.28203230275508
110.7179676972449 158.56406460551017
180 158.56406460551017
" stroke="rgb(25,179,102)" stroke-width="5" fill-opacity="0.0"></path><path d="
M 60 89.28203230275508 C
100 158.56406460551017
100 158.56406460551017
140 227.84609690826525
" stroke="rgb(25,179,102)" stroke-width="5" fill-opacity="0.0"></path><path d="
M 60 89.28203230275508 C
94.64101615137754 149.28203230275508
94.64101615137754 167.84609690826525
60 227.84609690826525
" stroke="rgb(25,179,102)" stroke-width="5" fill-opacity="0.0"></path><path d="
M 260 20 C
190.7179676972449 20
174.64101615137756 29.282032302755084
140 89.28203230275508
" stroke="rgb(25,179,102)" stroke-width="5" fill-opacity="0.0"></path><path d="
M 260 20 C
340 20
340 20
420 20
" stroke="rgb(25,179,102)" stroke-width="5" fill-opacity="0.0"></path><path d="
M 260 20 C
329.2820323027551 20
345.3589838486225 29.282032302755084
380 89.28203230275508
" stroke="rgb(25,179,102)" stroke-width="5" fill-opacity="0.0"></path><path d="
M 220 89.28203230275508 C
254.64101615137756 149.28203230275508
270.7179676972449 158.56406460551017
340 158.56406460551017
" stroke="rgb(25,179,102)" stroke-width="5" fill-opacity="0.0"></path><path d="
M 220 89.28203230275508 C
260 158.56406460551017
260 158.56406460551017
300 227.84609690826525
" stroke="rgb(25,179,102)" stroke-width="5" fill-opacity="0.0"></path><path d="
M 220 89.28203230275508 C
254.64101615137753 149.28203230275508
254.64101615137753 167.84609690826525
220 227.84609690826525
" stroke="rgb(25,179,102)" stroke-width="5" fill-opacity="0.0"></path><path d="
M 140 89.28203230275508 C
120 123.92304845413263
140 158.56406460551017
180 158.56406460551017
" stroke="rgb(25,179,102)" stroke-width="5" fill-opacity="0.0"></path><path d="
M 140 89.28203230275508 C
105.35898384862246 149.28203230275508
105.35898384862246 167.84609690826525
140 227.84609690826525
" stroke="rgb(25,179,102)" stroke-width="5" fill-opacity="0.0"></path><path d="
M 140 89.28203230275508 C
100 158.56406460551017
100 158.56406460551017
60 227.84609690826525
" stroke="rgb(25,179,102)" stroke-width="5" fill-opacity="0.0"></path><path d="
M 420 20 C
350.7179676972449 20
334.6410161513775 29.282032302755084
300 89.28203230275508
" stroke="rgb(25,179,102)" stroke-width="5" fill-opacity="0.0"></path><path d="
M 380 89.28203230275508 C
360 54.64101615137754
320 54.64101615137754
300 89.28203230275508
" stroke="rgb(25,179,102)" stroke-width="5" fill-opacity="0.0"></path><path d="
M 380 89.28203230275508 C
400 123.92304845413263
380 158.56406460551017
340 158.56406460551017
" stroke="rgb(25,179,102)" stroke-width="5" fill-opacity="0.0"></path><path d="
M 380 89.28203230275508 C
414.6410161513775 149.28203230275508
430.7179676972449 158.56406460551017
500 158.56406460551017
" stroke="rgb(25,179,102)" stroke-width="5" fill-opacity="0.0"></path><path d="
M 380 89.28203230275508 C
420 158.56406460551017
420 158.56406460551017
460 227.84609690826525
" stroke="rgb(25,179,102)" stroke-width="5" fill-opacity="0.0"></path><path d="
M 380 89.28203230275508 C
414.6410161513775 149.28203230275508
414.6410161513775 167.84609690826525
380 227.84609690826525
" stroke="rgb(25,179,102)" stroke-width="5" fill-opacity="0.0"></path><path d="
M 300 89.28203230275508 C
265.3589838486225 149.28203230275508
249.2820323027551 158.56406460551017
180 158.56406460551017
" stroke="rgb(25,179,102)" stroke-width="5" fill-opacity="0.0"></path><path d="
M 300 89.28203230275508 C
265.3589838486225 149.28203230275508
265.3589838486225 167.84609690826525
300 227.84609690826525
" stroke="rgb(25,179,102)" stroke-width="5" fill-opacity="0.0"></path><path d="
M 300 89.28203230275508 C
260 158.56406460551017
260 158.56406460551017
220 227.84609690826525
" stroke="rgb(25,179,102)" stroke-width="5" fill-opacity="0.0"></path><path d="
M 180 158.56406460551017 C
140 158.56406460551017
120 193.2050807568877
140 227.84609690826525
" stroke="rgb(25,179,102)" stroke-width="5" fill-opacity="0.0"></path><path d="
M 180 158.56406460551017 C
110.7179676972449 158.56406460551017
94.64101615137756 167.84609690826525
60 227.84609690826525
" stroke="rgb(25,179,102)" stroke-width="5" fill-opacity="0.0"></path><path d="
M 180 158.56406460551017 C
260 158.56406460551017
260 158.56406460551017
340 158.56406460551017
" stroke="rgb(25,179,102)" stroke-width="5" fill-opacity="0.0"></path><path d="
M 180 158.56406460551017 C
249.2820323027551 158.56406460551017
265.3589838486225 167.84609690826525
300 227.84609690826525
" stroke="rgb(25,179,102)" stroke-width="5" fill-opacity="0.0"></path><path d="
M 140 227.84609690826525 C
160 262.4871130596428
140 297.12812921102034
100 297.12812921102034
" stroke="rgb(25,179,102)" stroke-width="5" fill-opacity="0.0"></path><path d="
M 140 227.84609690826525 C
174.64101615137756 287.8460969082653
190.7179676972449 297.12812921102034
260 297.12812921102034
" stroke="rgb(25,179,102)" stroke-width="5" fill-opacity="0.0"></path><path d="
M 140 227.84609690826525 C
180 297.12812921102034
180 297.12812921102034
220 366.4101615137754
" stroke="rgb(25,179,102)" stroke-width="5" fill-opacity="0.0"></path><path d="
M 140 227.84609690826525 C
174.64101615137753 287.8460969082652
174.64101615137753 306.4101615137754
140 366.4101615137754
" stroke="rgb(25,179,102)" stroke-width="5" fill-opacity="0.0"></path><path d="
M 60 227.84609690826525 C
40 262.4871130596428
60 297.12812921102034
100 297.12812921102034
" stroke="rgb(25,179,102)" stroke-width="5" fill-opacity="0.0"></path><path d="
M 60 227.84609690826525 C
25.358983848622465 287.8460969082652
25.358983848622465 306.4101615137754
60 366.4101615137754
" stroke="rgb(25,179,102)" stroke-width="5" fill-opacity="0.0"></path><path d="
M 60 227.84609690826525 C
20.000000000000007 297.12812921102034
19.999999999999993 297.12812921102034
-20 366.4101615137754
" stroke="rgb(25,179,102)" stroke-width="5" fill-opacity="0.0"></path><path d="
M 340 158.56406460551017 C
300 158.56406460551017
280 193.2050807568877
300 227.84609690826525
" stroke="rgb(25,179,102)" stroke-width="5" fill-opacity="0.0"></path><path d="
M 340 158.56406460551017 C
270.7179676972449 158.56406460551017
254.64101615137756 167.84609690826525
220 227.84609690826525
" stroke="rgb(25,179,102)" stroke-width="5" fill-opacity="0.0"></path><path d="
M 340 158.56406460551017 C
420 158.56406460551017
420 158.56406460551017
500 158.56406460551017
" stroke="rgb(25,179,102)" stroke-width="5" fill-opacity="0.0"></path><path d="
M 340 158.56406460551017 C
409.2820323027551 158.56406460551017
425.3589838486225 167.84609690826525
460 227.84609690826525
" stroke="rgb(25,179,102)" stroke-width="5" fill-opacity="0.0"></path><path d="
M 340 158.56406460551017 C
380 158.56406460551017
400 193.2050807568877
380 227.84609690826525
" stroke="rgb(25,179,102)" stroke-width="5" fill-opacity="0.0"></path><path d="
M 300 227.84609690826525 C
280 193.2050807568877
240 193.2050807568877
220 227.84609690826525
" stroke="rgb(25,179,102)" stroke-width="5" fill-opacity="0.0"></path><path d="
M 300 227.84609690826525 C
320 262.4871130596428
360 262.4871130596428
380 227.84609690826525
" stroke="rgb(25,179,102)" stroke-width="5" fill-opacity="0.0"></path><path d="
M 300 227.84609690826525 C
320 262.4871130596428
300 297.12812921102034
260 297.12812921102034
" stroke="rgb(25,179,102)" stroke-width="5" fill-opacity="0.0"></path><path d="
M 300 227.84609690826525 C
334.6410161513775 287.8460969082653
350.7179676972449 297.12812921102034
420 297.12812921102034
" stroke="rgb(25,179,102)" stroke-width="5" fill-opacity="0.0"></path><path d="
M 300 227.84609690826525 C
340 297.12812921102034
340 297.12812921102034
380 366.4101615137754
" stroke="rgb(25,179,102)" stroke-width="5" fill-opacity="0.0"></path><path d="
M 300 227.84609690826525 C
334.6410161513775 287.8460969082652
334.6410161513775 306.4101615137754
300 366.4101615137754
" stroke="rgb(25,179,102)" stroke-width="5" fill-opacity="0.0"></path><path d="
M 220 227.84609690826525 C
185.35898384862244 287.8460969082653
169.2820323027551 297.12812921102034
100 297.12812921102034
" stroke="rgb(25,179,102)" stroke-width="5" fill-opacity="0.0"></path><path d="
M 220 227.84609690826525 C
200 262.4871130596428
220 297.12812921102034
260 297.12812921102034
" stroke="rgb(25,179,102)" stroke-width="5" fill-opacity="0.0"></path><path d="
M 220 227.84609690826525 C
185.35898384862247 287.8460969082652
185.35898384862247 306.4101615137754
220 366.4101615137754
" stroke="rgb(25,179,102)" stroke-width="5" fill-opacity="0.0"></path><path d="
M 220 227.84609690826525 C
180 297.12812921102034
180 297.12812921102034
140 366.4101615137754
" stroke="rgb(25,179,102)" stroke-width="5" fill-opacity="0.0"></path><path d="
M 500 158.56406460551017 C
430.7179676972449 158.56406460551017
414.6410161513775 167.84609690826525
380 227.84609690826525
" stroke="rgb(25,179,102)" stroke-width="5" fill-opacity="0.0"></path><path d="
M 460 227.84609690826525 C
440 193.2050807568877
400 193.2050807568877
380 227.84609690826525
" stroke="rgb(25,179,102)" stroke-width="5" fill-opacity="0.0"></path><path d="
M 460 227.84609690826525 C
480 262.4871130596428
460 297.12812921102034
420 297.12812921102034
" stroke="rgb(25,179,102)" stroke-width="5" fill-opacity="0.0"></path><path d="
M 380 227.84609690826525 C
345.3589838486225 287.8460969082653
329.2820323027551 297.12812921102034
260 297.12812921102034
" stroke="rgb(25,179,102)" stroke-width="5" fill-opacity="0.0"></path><path d="
M 380 227.84609690826525 C
360 262.4871130596428
380 297.12812921102034
420 297.12812921102034
" stroke="rgb(25,179,102)" stroke-width="5" fill-opacity="0.0"></path><path d="
M 380 227.84609690826525 C
345.3589838486225 287.8460969082652
345.3589838486225 306.4101615137754
380 366.4101615137754
" stroke="rgb(25,179,102)" stroke-width="5" fill-opacity="0.0"></path><path d="
M 380 227.84609690826525 C
340 297.12812921102034
340 297.12812921102034
300 366.4101615137754
" stroke="rgb(25,179,102)" stroke-width="5" fill-opacity="0.0"></path><path d="
M 100 297.12812921102034 C
60.000000000000014 297.12812921102034
40.00000000000001 331.76914536239786
60 366.4101615137754
" stroke="rgb(25,179,102)" stroke-width="5" fill-opacity="0.0"></path><path d="
M 100 297.12812921102034 C
30.717967697244916 297.12812921102034
14.641016151377542 306.4101615137754
-20 366.4101615137754
" stroke="rgb(25,179,102)" stroke-width="5" fill-opacity="0.0"></path><path d="
M 100 297.12812921102034 C
180 297.12812921102034
180 297.12812921102034
260 297.12812921102034
" stroke="rgb(25,179,102)" stroke-width="5" fill-opacity="0.0"></path><path d="
M 100 297.12812921102034 C
169.28203230275508 297.12812921102034
185.35898384862247 306.4101615137754
220 366.4101615137754
" stroke="rgb(25,179,102)" stroke-width="5" fill-opacity="0.0"></path><path d="
M 60 366.4101615137754 C
40 331.76914536239786
0 331.76914536239786
-20 366.4101615137754
" stroke="rgb(25,179,102)" stroke-width="5" fill-opacity="0.0"></path><path d="
M 60 366.4101615137754 C
94.64101615137756 426.4101615137754
110.7179676972449 435.6921938165305
180 435.6921938165305
" stroke="rgb(25,179,102)" stroke-width="5" fill-opacity="0.0"></path><path d="
M 60 366.4101615137754 C
100 435.6921938165305
100 435.6921938165305
140 504.9742261192856
" stroke="rgb(25,179,102)" stroke-width="5" fill-opacity="0.0"></path><path d="
M 60 366.4101615137754 C
94.64101615137756 426.4101615137754
94.64101615137756 444.9742261192856
60 504.9742261192856
" stroke="rgb(25,179,102)" stroke-width="5" fill-opacity="0.0"></path><path d="
M 260 297.12812921102034 C
190.71796769724492 297.12812921102034
174.64101615137753 306.4101615137754
140 366.4101615137754
" stroke="rgb(25,179,102)" stroke-width="5" fill-opacity="0.0"></path><path d="
M 260 297.12812921102034 C
340 297.12812921102034
340 297.12812921102034
420 297.12812921102034
" stroke="rgb(25,179,102)" stroke-width="5" fill-opacity="0.0"></path><path d="
M 260 297.12812921102034 C
329.28203230275506 297.12812921102034
345.3589838486225 306.4101615137754
380 366.4101615137754
" stroke="rgb(25,179,102)" stroke-width="5" fill-opacity="0.0"></path><path d="
M 260 297.12812921102034 C
300 297.12812921102034
320 331.76914536239786
300 366.4101615137754
" stroke="rgb(25,179,102)" stroke-width="5" fill-opacity="0.0"></path><path d="
M 220 366.4101615137754 C
240 401.0511776651529
220 435.6921938165305
180 435.6921938165305
" stroke="rgb(25,179,102)" stroke-width="5" fill-opacity="0.0"></path><path d="
M 220 366.4101615137754 C
254.64101615137756 426.4101615137754
270.7179676972449 435.6921938165305
340 435.6921938165305
" stroke="rgb(25,179,102)" stroke-width="5" fill-opacity="0.0"></path><path d="
M 220 366.4101615137754 C
260 435.6921938165305
260 435.6921938165305
300 504.9742261192856
" stroke="rgb(25,179,102)" stroke-width="5" fill-opacity="0.0"></path><path d="
M 220 366.4101615137754 C
254.64101615137756 426.4101615137754
254.64101615137756 444.9742261192856
220 504.9742261192856
" stroke="rgb(25,179,102)" stroke-width="5" fill-opacity="0.0"></path><path d="
M 140 366.4101615137754 C
105.35898384862244 426.4101615137754
105.35898384862244 444.9742261192856
140 504.9742261192856
" stroke="rgb(25,179,102)" stroke-width="5" fill-opacity="0.0"></path><path d="
M 140 366.4101615137754 C
100 435.6921938165305
100 435.6921938165305
60 504.9742261192856
" stroke="rgb(25,179,102)" stroke-width="5" fill-opacity="0.0"></path><path d="
M 420 297.12812921102034 C
350.71796769724494 297.12812921102034
334.6410161513775 306.4101615137754
300 366.4101615137754
" stroke="rgb(25,179,102)" stroke-width="5" fill-opacity="0.0"></path><path d="
M 380 366.4101615137754 C
360 331.76914536239786
320 331.76914536239786
300 366.4101615137754
" stroke="rgb(25,179,102)" stroke-width="5" fill-opacity="0.0"></path><path d="
M 380 366.4101615137754 C
400 401.0511776651529
380 435.6921938165305
340 435.6921938165305
" stroke="rgb(25,179,102)" stroke-width="5" fill-opacity="0.0"></path><path d="
M 380 366.4101615137754 C
414.6410161513775 426.4101615137754
430.7179676972449 435.6921938165305
500 435.6921938165305
" stroke="rgb(25,179,102)" stroke-width="5" fill-opacity="0.0"></path><path d="
M 380 366.4101615137754 C
420 435.6921938165305
420 435.6921938165305
460 504.9742261192856
" stroke="rgb(25,179,102)" stroke-width="5" fill-opacity="0.0"></path><path d="
M 380 366.4101615137754 C
414.6410161513776 426.4101615137754
414.6410161513776 444.9742261192856
380 504.9742261192856
" stroke="rgb(25,179,102)" stroke-width="5" fill-opacity="0.0"></path><path d="
M 300 366.4101615137754 C
265.3589838486225 426.4101615137754
249.2820323027551 435.6921938165305
180 435.6921938165305
" stroke="rgb(25,179,102)" stroke-width="5" fill-opacity="0.0"></path><path d="
M 300 366.4101615137754 C
280 401.0511776651529
300 435.6921938165305
340 435.6921938165305
" stroke="rgb(25,179,102)" stroke-width="5" fill-opacity="0.0"></path><path d="
M 300 366.4101615137754 C
265.3589838486224 426.4101615137754
265.3589838486224 444.9742261192856
300 504.9742261192856
" stroke="rgb(25,179,102)" stroke-width="5" fill-opacity="0.0"></path><path d="
M 300 366.4101615137754 C
260 435.6921938165305
260 435.6921938165305
220 504.9742261192856
" stroke="rgb(25,179,102)" stroke-width="5" fill-opacity="0.0"></path><path d="
M 180 435.6921938165305 C
140 435.6921938165305
120 470.3332099679081
140 504.9742261192856
" stroke="rgb(25,179,102)" stroke-width="5" fill-opacity="0.0"></path><path d="
M 180 435.6921938165305 C
110.7179676972449 435.6921938165305
94.64101615137756 444.9742261192856
60 504.9742261192856
" stroke="rgb(25,179,102)" stroke-width="5" fill-opacity="0.0"></path><path d="
M 180 435.6921938165305 C
260 435.6921938165305
260 435.6921938165305
340 435.6921938165305
" stroke="rgb(25,179,102)" stroke-width="5" fill-opacity="0.0"></path><path d="
M 180 435.6921938165305 C
249.2820323027551 435.6921938165305
265.3589838486225 444.9742261192856
300 504.9742261192856
" stroke="rgb(25,179,102)" stroke-width="5" fill-opacity="0.0"></path><path d="
M 140 504.9742261192856 C
120 470.3332099679081
80 470.3332099679081
60 504.9742261192856
" stroke="rgb(25,179,102)" stroke-width="5" fill-opacity="0.0"></path><path d="
M 140 504.9742261192856 C
160 539.6152422706632
200 539.6152422706632
220 504.9742261192856
" stroke="rgb(25,179,102)" stroke-width="5" fill-opacity="0.0"></path><path d="
M 340 435.6921938165305 C
300 435.6921938165305
280 470.3332099679081
300 504.9742261192856
" stroke="rgb(25,179,102)" stroke-width="5" fill-opacity="0.0"></path><path d="
M 340 435.6921938165305 C
270.7179676972449 435.6921938165305
254.64101615137756 444.9742261192856
220 504.9742261192856
" stroke="rgb(25,179,102)" stroke-width="5" fill-opacity="0.0"></path><path d="
M 340 435.6921938165305 C
420 435.6921938165305
420 435.6921938165305
500 435.6921938165305
" stroke="rgb(25,179,102)" stroke-width="5" fill-opacity="0.0"></path><path d="
M 340 435.6921938165305 C
409.2820323027551 435.6921938165305
425.3589838486225 444.9742261192856
460 504.9742261192856
" stroke="rgb(25,179,102)" stroke-width="5" fill-opacity="0.0"></path><path d="
M 340 435.6921938165305 C
380 435.6921938165305
400 470.3332099679081
380 504.9742261192856
" stroke="rgb(25,179,102)" stroke-width="5" fill-opacity="0.0"></path><path d="
M 300 504.9742261192856 C
280 470.3332099679081
240 470.3332099679081
220 504.9742261192856
" stroke="rgb(25,179,102)" stroke-width="5" fill-opacity="0.0"></path><path d="
M 300 504.9742261192856 C
320 539.6152422706632
360 539.6152422706632
380 504.9742261192856
" stroke="rgb(25,179,102)" stroke-width="5" fill-opacity="0.0"></path><path d="
M 500 435.6921938165305 C
430.7179676972449 435.6921938165305
414.6410161513775 444.9742261192856
380 504.9742261192856
" stroke="rgb(25,179,102)" stroke-width="5" fill-opacity="0.0"></path><line x1="103" y1="20" x2="97" y2="20" stroke="#040" stroke-width="5"></line><line x1="61.5" y1="91.8801085141084" x2="58.5" y2="86.68395609140177" stroke="#040" stroke-width="5"></line><line x1="-21.5" y1="91.8801085141084" x2="-18.5" y2="86.68395609140177" stroke="#040" stroke-width="5"></line><line x1="263" y1="20" x2="257" y2="20" stroke="#040" stroke-width="5"></line><line x1="221.5" y1="91.8801085141084" x2="218.5" y2="86.68395609140177" stroke="#040" stroke-width="5"></line><line x1="138.5" y1="91.8801085141084" x2="141.5" y2="86.68395609140177" stroke="#040" stroke-width="5"></line><line x1="423" y1="20" x2="417" y2="20" stroke="#040" stroke-width="5"></line><line x1="381.5" y1="91.8801085141084" x2="378.5" y2="86.68395609140177" stroke="#040" stroke-width="5"></line><line x1="298.5" y1="91.8801085141084" x2="301.5" y2="86.68395609140177" stroke="#040" stroke-width="5"></line><line x1="183" y1="158.56406460551017" x2="177" y2="158.56406460551017" stroke="#040" stroke-width="5"></line><line x1="141.5" y1="230.44417311961857" x2="138.5" y2="225.24802069691194" stroke="#040" stroke-width="5"></line><line x1="58.5" y1="230.44417311961857" x2="61.5" y2="225.24802069691194" stroke="#040" stroke-width="5"></line><line x1="343" y1="158.56406460551017" x2="337" y2="158.56406460551017" stroke="#040" stroke-width="5"></line><line x1="301.5" y1="230.44417311961857" x2="298.5" y2="225.24802069691194" stroke="#040" stroke-width="5"></line><line x1="218.5" y1="230.44417311961857" x2="221.5" y2="225.24802069691194" stroke="#040" stroke-width="5"></line><line x1="503" y1="158.56406460551017" x2="497" y2="158.56406460551017" stroke="#040" stroke-width="5"></line><line x1="461.5" y1="230.44417311961857" x2="458.5" y2="225.24802069691194" stroke="#040" stroke-width="5"></line><line x1="378.5" y1="230.44417311961857" x2="381.5" y2="225.24802069691194" stroke="#040" stroke-width="5"></line><line x1="103" y1="297.12812921102034" x2="97" y2="297.12812921102034" stroke="#040" stroke-width="5"></line><line x1="61.5" y1="369.0082377251287" x2="58.5" y2="363.8120853024221" stroke="#040" stroke-width="5"></line><line x1="-21.5" y1="369.0082377251287" x2="-18.5" y2="363.8120853024221" stroke="#040" stroke-width="5"></line><line x1="263" y1="297.12812921102034" x2="257" y2="297.12812921102034" stroke="#040" stroke-width="5"></line><line x1="221.5" y1="369.0082377251287" x2="218.5" y2="363.8120853024221" stroke="#040" stroke-width="5"></line><line x1="138.5" y1="369.0082377251287" x2="141.5" y2="363.8120853024221" stroke="#040" stroke-width="5"></line><line x1="423" y1="297.12812921102034" x2="417" y2="297.12812921102034" stroke="#040" stroke-width="5"></line><line x1="381.5" y1="369.0082377251287" x2="378.5" y2="363.8120853024221" stroke="#040" stroke-width="5"></line><line x1="298.5" y1="369.0082377251287" x2="301.5" y2="363.8120853024221" stroke="#040" stroke-width="5"></line><line x1="183" y1="435.6921938165305" x2="177" y2="435.6921938165305" stroke="#040" stroke-width="5"></line><line x1="141.5" y1="507.57230233063893" x2="138.5" y2="502.3761499079323" stroke="#040" stroke-width="5"></line><line x1="58.5" y1="507.57230233063893" x2="61.5" y2="502.3761499079323" stroke="#040" stroke-width="5"></line><line x1="343" y1="435.6921938165305" x2="337" y2="435.6921938165305" stroke="#040" stroke-width="5"></line><line x1="301.5" y1="507.57230233063893" x2="298.5" y2="502.3761499079323" stroke="#040" stroke-width="5"></line><line x1="218.5" y1="507.57230233063893" x2="221.5" y2="502.3761499079323" stroke="#040" stroke-width="5"></line><line x1="503" y1="435.6921938165305" x2="497" y2="435.6921938165305" stroke="#040" stroke-width="5"></line><line x1="461.5" y1="507.57230233063893" x2="458.5" y2="502.3761499079323" stroke="#040" stroke-width="5"></line><line x1="378.5" y1="507.57230233063893" x2="381.5" y2="502.3761499079323" stroke="#040" stroke-width="5"></line></svg>
