<svg xmlns="http://www.w3.org/2000/svg" version="1.1"><path d="
M 62 20 C
41 20
30.5 38.18653347947321
41 56.373066958946424
" stroke="#000" stroke-width="5" fill-opacity="0.0"></path><path d="
M 62 20 C
104 20
104 20
146 20
" stroke="#000" stroke-width="5" fill-opacity="0.0"></path><path d="
M 62 20 C
98.37306695894642 20
106.81346652052679 24.873066958946424
125 56.373066958946424
" stroke="#000" stroke-width="5" fill-opacity="0.0"></path><path d="
M 62 20 C
83 20
93.5 38.18653347947321
83 56.373066958946424
" stroke="#000" stroke-width="5" fill-opacity="0.0"></path><path d="
M 41 56.373066958946424 C
62 92.74613391789285
62 92.74613391789285
83 129.11920087683927
" stroke="#000" stroke-width="5" fill-opacity="0.0"></path><path d="
M 41 56.373066958946424 C
59.18653347947321 87.87306695894642
59.18653347947321 97.61920087683927
41 129.11920087683927
" stroke="#000" stroke-width="5" fill-opacity="0.0"></path><path d="
M 146 20 C
125 20
114.5 38.18653347947321
125 56.373066958946424
" stroke="#000" stroke-width="5" fill-opacity="0.0"></path><path d="
M 146 20 C
109.62693304105358 20
101.18653347947321 24.873066958946424
83 56.373066958946424
" stroke="#000" stroke-width="5" fill-opacity="0.0"></path><path d="
M 146 20 C
188 20
188 20
230 20
" stroke="#000" stroke-width="5" fill-opacity="0.0"></path><path d="
M 146 20 C
182.37306695894642 20
190.8134665205268 24.873066958946424
209 56.373066958946424
" stroke="#000" stroke-width="5" fill-opacity="0.0"></path><path d="
M 146 20 C
167 20
177.5 38.18653347947321
167 56.373066958946424
" stroke="#000" stroke-width="5" fill-opacity="0.0"></path><path d="
M 125 56.373066958946424 C
135.5 74.55960043841964
156.5 74.55960043841964
167 56.373066958946424
" stroke="#000" stroke-width="5" fill-opacity="0.0"></path><path d="
M 125 56.373066958946424 C
146 92.74613391789285
146 92.74613391789285
167 129.11920087683927
" stroke="#000" stroke-width="5" fill-opacity="0.0"></path><path d="
M 125 56.373066958946424 C
143.1865334794732 87.87306695894642
143.1865334794732 97.61920087683927
125 129.11920087683927
" stroke="#000" stroke-width="5" fill-opacity="0.0"></path><path d="
M 83 56.373066958946424 C
62 92.74613391789285
62 92.74613391789285
41 129.11920087683927
" stroke="#000" stroke-width="5" fill-opacity="0.0"></path><path d="
M 230 20 C
209 20
198.5 38.18653347947321
209 56.373066958946424
" stroke="#000" stroke-width="5" fill-opacity="0.0"></path><path d="
M 230 20 C
193.62693304105358 20
185.1865334794732 24.873066958946424
167 56.373066958946424
" stroke="#000" stroke-width="5" fill-opacity="0.0"></path><path d="
M 230 20 C
272 20
272 20
314 20
" stroke="#000" stroke-width="5" fill-opacity="0.0"></path><path d="
M 209 56.373066958946424 C
219.5 74.55960043841964
240.5 74.55960043841964
251 56.373066958946424
" stroke="#000" stroke-width="5" fill-opacity="0.0"></path><path d="
M 209 56.373066958946424 C
219.5 74.55960043841964
209 92.74613391789285
188 92.74613391789285
" stroke="#000" stroke-width="5" fill-opacity="0.0"></path><path d="
M 209 56.373066958946424 C
230 92.74613391789285
230 92.74613391789285
251 129.11920087683927
" stroke="#000" stroke-width="5" fill-opacity="0.0"></path><path d="
M 167 56.373066958946424 C
148.8134665205268 87.87306695894642
140.37306695894642 92.74613391789285
104 92.74613391789285
" stroke="#000" stroke-width="5" fill-opacity="0.0"></path><path d="
M 167 56.373066958946424 C
146 92.74613391789285
146 92.74613391789285
125 129.11920087683927
" stroke="#000" stroke-width="5" fill-opacity="0.0"></path><path d="
M 314 20 C
293 20
282.5 38.18653347947321
293 56.373066958946424
" stroke="#000" stroke-width="5" fill-opacity="0.0"></path><path d="
M 314 20 C
277.6269330410536 20
269.1865334794732 24.873066958946424
251 56.373066958946424
" stroke="#000" stroke-width="5" fill-opacity="0.0"></path><path d="
M 314 20 C
356 20
356 20
398 20
" stroke="#000" stroke-width="5" fill-opacity="0.0"></path><path d="
M 293 56.373066958946424 C
303.5 74.55960043841964
324.5 74.55960043841964
335 56.373066958946424
" stroke="#000" stroke-width="5" fill-opacity="0.0"></path><path d="
M 293 56.373066958946424 C
303.5 74.55960043841964
293 92.74613391789285
272 92.74613391789285
" stroke="#000" stroke-width="5" fill-opacity="0.0"></path><path d="
M 293 56.373066958946424 C
311.1865334794732 87.87306695894642
319.6269330410536 92.74613391789285
356 92.74613391789285
" stroke="#000" stroke-width="5" fill-opacity="0.0"></path><path d="
M 293 56.373066958946424 C
314 92.74613391789285
314 92.74613391789285
335 129.11920087683927
" stroke="#000" stroke-width="5" fill-opacity="0.0"></path><path d="
M 251 56.373066958946424 C
230 92.74613391789285
230 92.74613391789285
209 129.11920087683927
" stroke="#000" stroke-width="5" fill-opacity="0.0"></path><path d="
M 398 20 C
377 20
366.5 38.18653347947321
377 56.373066958946424
" stroke="#000" stroke-width="5" fill-opacity="0.0"></path><path d="
M 398 20 C
440 20
440 20
482 20
" stroke="#000" stroke-width="5" fill-opacity="0.0"></path><path d="
M 398 20 C
419 20
429.5 38.18653347947321
419 56.373066958946424
" stroke="#000" stroke-width="5" fill-opacity="0.0"></path><path d="
M 377 56.373066958946424 C
387.5 74.55960043841964
408.5 74.55960043841964
419 56.373066958946424
" stroke="#000" stroke-width="5" fill-opacity="0.0"></path><path d="
M 377 56.373066958946424 C
387.5 74.55960043841964
377 92.74613391789285
356 92.74613391789285
" stroke="#000" stroke-width="5" fill-opacity="0.0"></path><path d="
M 377 56.373066958946424 C
398 92.74613391789285
398 92.74613391789285
419 129.11920087683927
" stroke="#000" stroke-width="5" fill-opacity="0.0"></path><path d="
M 335 56.373066958946424 C
316.8134665205268 87.87306695894642
308.3730669589464 92.74613391789285
272 92.74613391789285
" stroke="#000" stroke-width="5" fill-opacity="0.0"></path><path d="
M 335 56.373066958946424 C
316.8134665205268 87.87306695894642
316.8134665205268 97.61920087683927
335 129.11920087683927
" stroke="#000" stroke-width="5" fill-opacity="0.0"></path><path d="
M 335 56.373066958946424 C
314 92.74613391789285
314 92.74613391789285
293 129.11920087683927
" stroke="#000" stroke-width="5" fill-opacity="0.0"></path><path d="
M 482 20 C
461 20
450.5 38.18653347947321
461 56.373066958946424
" stroke="#000" stroke-width="5" fill-opacity="0.0"></path><path d="
M 461 56.373066958946424 C
471.5 74.55960043841964
461 92.74613391789285
440 92.74613391789285
" stroke="#000" stroke-width="5" fill-opacity="0.0"></path><path d="
M 461 56.373066958946424 C
479.1865334794732 87.87306695894642
487.6269330410536 92.74613391789285
524 92.74613391789285
" stroke="#000" stroke-width="5" fill-opacity="0.0"></path><path d="
M 461 56.373066958946424 C
482 92.74613391789285
482 92.74613391789285
503 129.11920087683927
" stroke="#000" stroke-width="5" fill-opacity="0.0"></path><path d="
M 461 56.373066958946424 C
479.1865334794732 87.87306695894642
479.1865334794732 97.61920087683927
461 129.11920087683927
" stroke="#000" stroke-width="5" fill-opacity="0.0"></path><path d="
M 419 56.373066958946424 C
400.8134665205268 87.87306695894642
392.3730669589464 92.74613391789285
356 92.74613391789285
" stroke="#000" stroke-width="5" fill-opacity="0.0"></path><path d="
M 419 56.373066958946424 C
400.8134665205268 87.87306695894642
400.8134665205268 97.61920087683927
419 129.11920087683927
" stroke="#000" stroke-width="5" fill-opacity="0.0"></path><path d="
M 419 56.373066958946424 C
398 92.74613391789285
398 92.74613391789285
377 129.11920087683927
" stroke="#000" stroke-width="5" fill-opacity="0.0"></path><path d="
M 104 92.74613391789285 C
83 92.74613391789285
72.5 110.93266739736606
83 129.11920087683927
" stroke="#000" stroke-width="5" fill-opacity="0.0"></path><path d="
M 104 92.74613391789285 C
67.62693304105358 92.74613391789285
59.18653347947321 97.61920087683927
41 129.11920087683927
" stroke="#000" stroke-width="5" fill-opacity="0.0"></path><path d="
M 104 92.74613391789285 C
146 92.74613391789285
146 92.74613391789285
188 92.74613391789285
" stroke="#000" stroke-width="5" fill-opacity="0.0"></path><path d="
M 104 92.74613391789285 C
140.37306695894642 92.74613391789285
148.8134665205268 97.61920087683927
167 129.11920087683927
" stroke="#000" stroke-width="5" fill-opacity="0.0"></path><path d="
M 104 92.74613391789285 C
125 92.74613391789285
135.5 110.93266739736606
125 129.11920087683927
" stroke="#000" stroke-width="5" fill-opacity="0.0"></path><path d="
M 83 129.11920087683927 C
93.5 147.30573435631248
114.5 147.30573435631248
125 129.11920087683927
" stroke="#000" stroke-width="5" fill-opacity="0.0"></path><path d="
M 83 129.11920087683927 C
93.5 147.30573435631248
83 165.4922678357857
62 165.4922678357857
" stroke="#000" stroke-width="5" fill-opacity="0.0"></path><path d="
M 83 129.11920087683927 C
101.18653347947321 160.61920087683927
109.62693304105358 165.4922678357857
146 165.4922678357857
" stroke="#000" stroke-width="5" fill-opacity="0.0"></path><path d="
M 83 129.11920087683927 C
104 165.4922678357857
104 165.4922678357857
125 201.86533479473212
" stroke="#000" stroke-width="5" fill-opacity="0.0"></path><path d="
M 41 129.11920087683927 C
30.5 147.30573435631248
41 165.4922678357857
62 165.4922678357857
" stroke="#000" stroke-width="5" fill-opacity="0.0"></path><path d="
M 41 129.11920087683927 C
20 165.4922678357857
20 165.4922678357857
-1 201.86533479473212
" stroke="#000" stroke-width="5" fill-opacity="0.0"></path><path d="
M 188 92.74613391789285 C
151.62693304105358 92.74613391789285
143.1865334794732 97.61920087683927
125 129.11920087683927
" stroke="#000" stroke-width="5" fill-opacity="0.0"></path><path d="
M 188 92.74613391789285 C
230 92.74613391789285
230 92.74613391789285
272 92.74613391789285
" stroke="#000" stroke-width="5" fill-opacity="0.0"></path><path d="
M 188 92.74613391789285 C
209 92.74613391789285
219.5 110.93266739736606
209 129.11920087683927
" stroke="#000" stroke-width="5" fill-opacity="0.0"></path><path d="
M 167 129.11920087683927 C
177.5 147.30573435631248
167 165.4922678357857
146 165.4922678357857
" stroke="#000" stroke-width="5" fill-opacity="0.0"></path><path d="
M 167 129.11920087683927 C
188 165.4922678357857
188 165.4922678357857
209 201.86533479473212
" stroke="#000" stroke-width="5" fill-opacity="0.0"></path><path d="
M 167 129.11920087683927 C
185.1865334794732 160.61920087683927
185.1865334794732 170.36533479473212
167 201.86533479473212
" stroke="#000" stroke-width="5" fill-opacity="0.0"></path><path d="
M 125 129.11920087683927 C
106.81346652052679 160.61920087683927
98.37306695894642 165.4922678357857
62 165.4922678357857
" stroke="#000" stroke-width="5" fill-opacity="0.0"></path><path d="
M 125 129.11920087683927 C
104 165.4922678357857
104 165.4922678357857
83 201.86533479473212
" stroke="#000" stroke-width="5" fill-opacity="0.0"></path><path d="
M 272 92.74613391789285 C
314 92.74613391789285
314 92.74613391789285
356 92.74613391789285
" stroke="#000" stroke-width="5" fill-opacity="0.0"></path><path d="
M 272 92.74613391789285 C
293 92.74613391789285
303.5 110.93266739736606
293 129.11920087683927
" stroke="#000" stroke-width="5" fill-opacity="0.0"></path><path d="
M 251 129.11920087683927 C
240.5 110.93266739736606
219.5 110.93266739736606
209 129.11920087683927
" stroke="#000" stroke-width="5" fill-opacity="0.0"></path><path d="
M 251 129.11920087683927 C
261.5 147.30573435631248
282.5 147.30573435631248
293 129.11920087683927
" stroke="#000" stroke-width="5" fill-opacity="0.0"></path><path d="
M 251 129.11920087683927 C
269.1865334794732 160.61920087683927
277.6269330410536 165.4922678357857
314 165.4922678357857
" stroke="#000" stroke-width="5" fill-opacity="0.0"></path><path d="
M 251 129.11920087683927 C
272 165.4922678357857
272 165.4922678357857
293 201.86533479473212
" stroke="#000" stroke-width="5" fill-opacity="0.0"></path><path d="
M 251 129.11920087683927 C
269.1865334794732 160.61920087683927
269.1865334794732 170.36533479473212
251 201.86533479473212
" stroke="#000" stroke-width="5" fill-opacity="0.0"></path><path d="
M 209 129.11920087683927 C
198.5 147.30573435631248
209 165.4922678357857
230 165.4922678357857
" stroke="#000" stroke-width="5" fill-opacity="0.0"></path><path d="
M 209 129.11920087683927 C
188 165.4922678357857
188 165.4922678357857
167 201.86533479473212
" stroke="#000" stroke-width="5" fill-opacity="0.0"></path><path d="
M 356 92.74613391789285 C
319.6269330410536 92.74613391789285
311.1865334794732 97.61920087683927
293 129.11920087683927
" stroke="#000" stroke-width="5" fill-opacity="0.0"></path><path d="
M 356 92.74613391789285 C
398 92.74613391789285
398 92.74613391789285
440 92.74613391789285
" stroke="#000" stroke-width="5" fill-opacity="0.0"></path><path d="
M 356 92.74613391789285 C
392.3730669589464 92.74613391789285
400.8134665205268 97.61920087683927
419 129.11920087683927
" stroke="#000" stroke-width="5" fill-opacity="0.0"></path><path d="
M 335 129.11920087683927 C
324.5 110.93266739736606
303.5 110.93266739736606
293 129.11920087683927
" stroke="#000" stroke-width="5" fill-opacity="0.0"></path><path d="
M 335 129.11920087683927 C
345.5 147.30573435631248
366.5 147.30573435631248
377 129.11920087683927
" stroke="#000" stroke-width="5" fill-opacity="0.0"></path><path d="
M 335 129.11920087683927 C
356 165.4922678357857
356 165.4922678357857
377 201.86533479473212
" stroke="#000" stroke-width="5" fill-opacity="0.0"></path><path d="
M 335 129.11920087683927 C
353.1865334794732 160.61920087683927
353.1865334794732 170.36533479473212
335 201.86533479473212
" stroke="#000" stroke-width="5" fill-opacity="0.0"></path><path d="
M 293 129.11920087683927 C
274.8134665205268 160.61920087683927
274.8134665205268 170.36533479473212
293 201.86533479473212
" stroke="#000" stroke-width="5" fill-opacity="0.0"></path><path d="
M 293 129.11920087683927 C
272 165.4922678357857
272 165.4922678357857
251 201.86533479473212
" stroke="#000" stroke-width="5" fill-opacity="0.0"></path><path d="
M 440 92.74613391789285 C
419 92.74613391789285
408.5 110.93266739736606
419 129.11920087683927
" stroke="#000" stroke-width="5" fill-opacity="0.0"></path><path d="
M 440 92.74613391789285 C
482 92.74613391789285
482 92.74613391789285
524 92.74613391789285
" stroke="#000" stroke-width="5" fill-opacity="0.0"></path><path d="
M 419 129.11920087683927 C
408.5 110.93266739736606
387.5 110.93266739736606
377 129.11920087683927
" stroke="#000" stroke-width="5" fill-opacity="0.0"></path><path d="
M 419 129.11920087683927 C
429.5 147.30573435631248
450.5 147.30573435631248
461 129.11920087683927
" stroke="#000" stroke-width="5" fill-opacity="0.0"></path><path d="
M 419 129.11920087683927 C
429.5 147.30573435631248
419 165.4922678357857
398 165.4922678357857
" stroke="#000" stroke-width="5" fill-opacity="0.0"></path><path d="
M 419 129.11920087683927 C
440 165.4922678357857
440 165.4922678357857
461 201.86533479473212
" stroke="#000" stroke-width="5" fill-opacity="0.0"></path><path d="
M 419 129.11920087683927 C
437.1865334794732 160.61920087683927
437.1865334794732 170.36533479473212
419 201.86533479473212
" stroke="#000" stroke-width="5" fill-opacity="0.0"></path><path d="
M 377 129.11920087683927 C
358.8134665205268 160.61920087683927
350.3730669589464 165.4922678357857
314 165.4922678357857
" stroke="#000" stroke-width="5" fill-opacity="0.0"></path><path d="
M 377 129.11920087683927 C
358.8134665205268 160.61920087683927
358.8134665205268 170.36533479473212
377 201.86533479473212
" stroke="#000" stroke-width="5" fill-opacity="0.0"></path><path d="
M 377 129.11920087683927 C
356 165.4922678357857
356 165.4922678357857
335 201.86533479473212
" stroke="#000" stroke-width="5" fill-opacity="0.0"></path><path d="
M 524 92.74613391789285 C
487.6269330410536 92.74613391789285
479.1865334794732 97.61920087683927
461 129.11920087683927
" stroke="#000" stroke-width="5" fill-opacity="0.0"></path><path d="
M 503 129.11920087683927 C
513.5 147.30573435631248
503 165.4922678357857
482 165.4922678357857
" stroke="#000" stroke-width="5" fill-opacity="0.0"></path><path d="
M 461 129.11920087683927 C
442.8134665205268 160.61920087683927
434.3730669589464 165.4922678357857
398 165.4922678357857
" stroke="#000" stroke-width="5" fill-opacity="0.0"></path><path d="
M 461 129.11920087683927 C
450.5 147.30573435631248
461 165.4922678357857
482 165.4922678357857
" stroke="#000" stroke-width="5" fill-opacity="0.0"></path><path d="
M 461 129.11920087683927 C
442.8134665205268 160.61920087683927
442.8134665205268 170.36533479473212
461 201.86533479473212
" stroke="#000" stroke-width="5" fill-opacity="0.0"></path><path d="
M 461 129.11920087683927 C
440 165.4922678357857
440 165.4922678357857
419 201.86533479473212
" stroke="#000" stroke-width="5" fill-opacity="0.0"></path><path d="
M 62 165.4922678357857 C
25.626933041053576 165.4922678357857
17.186533479473212 170.36533479473212
-1 201.86533479473212
" stroke="#000" stroke-width="5" fill-opacity="0.0"></path><path d="
M 62 165.4922678357857 C
104 165.4922678357857
104 165.4922678357857
146 165.4922678357857
" stroke="#000" stroke-width="5" fill-opacity="0.0"></path><path d="
M 62 165.4922678357857 C
83 165.4922678357857
93.5 183.6788013152589
83 201.86533479473212
" stroke="#000" stroke-width="5" fill-opacity="0.0"></path><path d="
M 41 201.86533479473212 C
51.5 220.05186827420533
72.5 220.05186827420533
83 201.86533479473212
" stroke="#000" stroke-width="5" fill-opacity="0.0"></path><path d="
M 41 201.86533479473212 C
59.18653347947321 233.36533479473212
67.62693304105358 238.23840175367854
104 238.23840175367854
" stroke="#000" stroke-width="5" fill-opacity="0.0"></path><path d="
M 41 201.86533479473212 C
62 238.23840175367854
62 238.23840175367854
83 274.61146871262497
" stroke="#000" stroke-width="5" fill-opacity="0.0"></path><path d="
M 41 201.86533479473212 C
59.18653347947321 233.36533479473212
59.18653347947321 243.11146871262497
41 274.61146871262497
" stroke="#000" stroke-width="5" fill-opacity="0.0"></path><path d="
M 146 165.4922678357857 C
125 165.4922678357857
114.5 183.6788013152589
125 201.86533479473212
" stroke="#000" stroke-width="5" fill-opacity="0.0"></path><path d="
M 146 165.4922678357857 C
188 165.4922678357857
188 165.4922678357857
230 165.4922678357857
" stroke="#000" stroke-width="5" fill-opacity="0.0"></path><path d="
M 125 201.86533479473212 C
135.5 220.05186827420533
156.5 220.05186827420533
167 201.86533479473212
" stroke="#000" stroke-width="5" fill-opacity="0.0"></path><path d="
M 125 201.86533479473212 C
146 238.23840175367854
146 238.23840175367854
167 274.61146871262497
" stroke="#000" stroke-width="5" fill-opacity="0.0"></path><path d="
M 125 201.86533479473212 C
143.1865334794732 233.36533479473212
143.1865334794732 243.11146871262497
125 274.61146871262497
" stroke="#000" stroke-width="5" fill-opacity="0.0"></path><path d="
M 83 201.86533479473212 C
62 238.23840175367854
62 238.23840175367854
41 274.61146871262497
" stroke="#000" stroke-width="5" fill-opacity="0.0"></path><path d="
M 230 165.4922678357857 C
209 165.4922678357857
198.5 183.6788013152589
209 201.86533479473212
" stroke="#000" stroke-width="5" fill-opacity="0.0"></path><path d="
M 230 165.4922678357857 C
272 165.4922678357857
272 165.4922678357857
314 165.4922678357857
" stroke="#000" stroke-width="5" fill-opacity="0.0"></path><path d="
M 209 201.86533479473212 C
219.5 220.05186827420533
240.5 220.05186827420533
251 201.86533479473212
" stroke="#000" stroke-width="5" fill-opacity="0.0"></path><path d="
M 209 201.86533479473212 C
230 238.23840175367854
230 238.23840175367854
251 274.61146871262497
" stroke="#000" stroke-width="5" fill-opacity="0.0"></path><path d="
M 209 201.86533479473212 C
227.1865334794732 233.36533479473212
227.1865334794732 243.11146871262497
209 274.61146871262497
" stroke="#000" stroke-width="5" fill-opacity="0.0"></path><path d="
M 167 201.86533479473212 C
148.8134665205268 233.36533479473212
140.37306695894642 238.23840175367854
104 238.23840175367854
" stroke="#000" stroke-width="5" fill-opacity="0.0"></path><path d="
M 167 201.86533479473212 C
156.5 220.05186827420533
167 238.23840175367854
188 238.23840175367854
" stroke="#000" stroke-width="5" fill-opacity="0.0"></path><path d="
M 167 201.86533479473212 C
148.8134665205268 233.36533479473212
148.8134665205268 243.11146871262497
167 274.61146871262497
" stroke="#000" stroke-width="5" fill-opacity="0.0"></path><path d="
M 167 201.86533479473212 C
146 238.23840175367854
146 238.23840175367854
125 274.61146871262497
" stroke="#000" stroke-width="5" fill-opacity="0.0"></path><path d="
M 314 165.4922678357857 C
293 165.4922678357857
282.5 183.6788013152589
293 201.86533479473212
" stroke="#000" stroke-width="5" fill-opacity="0.0"></path><path d="
M 314 165.4922678357857 C
277.6269330410536 165.4922678357857
269.1865334794732 170.36533479473212
251 201.86533479473212
" stroke="#000" stroke-width="5" fill-opacity="0.0"></path><path d="
M 314 165.4922678357857 C
356 165.4922678357857
356 165.4922678357857
398 165.4922678357857
" stroke="#000" stroke-width="5" fill-opacity="0.0"></path><path d="
M 314 165.4922678357857 C
350.3730669589464 165.4922678357857
358.8134665205268 170.36533479473212
377 201.86533479473212
" stroke="#000" stroke-width="5" fill-opacity="0.0"></path><path d="
M 293 201.86533479473212 C
303.5 220.05186827420533
324.5 220.05186827420533
335 201.86533479473212
" stroke="#000" stroke-width="5" fill-opacity="0.0"></path><path d="
M 293 201.86533479473212 C
303.5 220.05186827420533
293 238.23840175367854
272 238.23840175367854
" stroke="#000" stroke-width="5" fill-opacity="0.0"></path><path d="
M 293 201.86533479473212 C
311.1865334794732 233.36533479473212
319.6269330410536 238.23840175367854
356 238.23840175367854
" stroke="#000" stroke-width="5" fill-opacity="0.0"></path><path d="
M 293 201.86533479473212 C
314 238.23840175367854
314 238.23840175367854
335 274.61146871262497
" stroke="#000" stroke-width="5" fill-opacity="0.0"></path><path d="
M 293 201.86533479473212 C
311.1865334794732 233.36533479473212
311.1865334794732 243.11146871262497
293 274.61146871262497
" stroke="#000" stroke-width="5" fill-opacity="0.0"></path><path d="
M 251 201.86533479473212 C
232.8134665205268 233.36533479473212
224.37306695894642 238.23840175367854
188 238.23840175367854
" stroke="#000" stroke-width="5" fill-opacity="0.0"></path><path d="
M 251 201.86533479473212 C
240.5 220.05186827420533
251 238.23840175367854
272 238.23840175367854
" stroke="#000" stroke-width="5" fill-opacity="0.0"></path><path d="
M 251 201.86533479473212 C
232.8134665205268 233.36533479473212
232.8134665205268 243.11146871262497
251 274.61146871262497
" stroke="#000" stroke-width="5" fill-opacity="0.0"></path><path d="
M 251 201.86533479473212 C
230 238.23840175367854
230 238.23840175367854
209 274.61146871262497
" stroke="#000" stroke-width="5" fill-opacity="0.0"></path><path d="
M 398 165.4922678357857 C
440 165.4922678357857
440 165.4922678357857
482 165.4922678357857
" stroke="#000" stroke-width="5" fill-opacity="0.0"></path><path d="
M 398 165.4922678357857 C
434.3730669589464 165.4922678357857
442.8134665205268 170.36533479473212
461 201.86533479473212
" stroke="#000" stroke-width="5" fill-opacity="0.0"></path><path d="
M 398 165.4922678357857 C
419 165.4922678357857
429.5 183.6788013152589
419 201.86533479473212
" stroke="#000" stroke-width="5" fill-opacity="0.0"></path><path d="
M 377 201.86533479473212 C
366.5 183.6788013152589
345.5 183.6788013152589
335 201.86533479473212
" stroke="#000" stroke-width="5" fill-opacity="0.0"></path><path d="
M 377 201.86533479473212 C
387.5 220.05186827420533
408.5 220.05186827420533
419 201.86533479473212
" stroke="#000" stroke-width="5" fill-opacity="0.0"></path><path d="
M 377 201.86533479473212 C
387.5 220.05186827420533
377 238.23840175367854
356 238.23840175367854
" stroke="#000" stroke-width="5" fill-opacity="0.0"></path><path d="
M 377 201.86533479473212 C
395.1865334794732 233.36533479473212
403.6269330410536 238.23840175367854
440 238.23840175367854
" stroke="#000" stroke-width="5" fill-opacity="0.0"></path><path d="
M 377 201.86533479473212 C
398 238.23840175367854
398 238.23840175367854
419 274.61146871262497
" stroke="#000" stroke-width="5" fill-opacity="0.0"></path><path d="
M 377 201.86533479473212 C
395.1865334794732 233.36533479473212
395.1865334794732 243.11146871262497
377 274.61146871262497
" stroke="#000" stroke-width="5" fill-opacity="0.0"></path><path d="
M 335 201.86533479473212 C
324.5 220.05186827420533
335 238.23840175367854
356 238.23840175367854
" stroke="#000" stroke-width="5" fill-opacity="0.0"></path><path d="
M 335 201.86533479473212 C
314 238.23840175367854
314 238.23840175367854
293 274.61146871262497
" stroke="#000" stroke-width="5" fill-opacity="0.0"></path><path d="
M 461 201.86533479473212 C
450.5 183.6788013152589
429.5 183.6788013152589
419 201.86533479473212
" stroke="#000" stroke-width="5" fill-opacity="0.0"></path><path d="
M 461 201.86533479473212 C
479.1865334794732 233.36533479473212
487.6269330410536 238.23840175367854
524 238.23840175367854
" stroke="#000" stroke-width="5" fill-opacity="0.0"></path><path d="
M 461 201.86533479473212 C
482 238.23840175367854
482 238.23840175367854
503 274.61146871262497
" stroke="#000" stroke-width="5" fill-opacity="0.0"></path><path d="
M 461 201.86533479473212 C
479.1865334794732 233.36533479473212
479.1865334794732 243.11146871262497
461 274.61146871262497
" stroke="#000" stroke-width="5" fill-opacity="0.0"></path><path d="
M 419 201.86533479473212 C
400.8134665205268 233.36533479473212
392.3730669589464 238.23840175367854
356 238.23840175367854
" stroke="#000" stroke-width="5" fill-opacity="0.0"></path><path d="
M 419 201.86533479473212 C
398 238.23840175367854
398 238.23840175367854
377 274.61146871262497
" stroke="#000" stroke-width="5" fill-opacity="0.0"></path><path d="
M 104 238.23840175367854 C
83 238.23840175367854
72.5 256.42493523315176
83 274.61146871262497
" stroke="#000" stroke-width="5" fill-opacity="0.0"></path><path d="
M 104 238.23840175367854 C
146 238.23840175367854
146 238.23840175367854
188 238.23840175367854
" stroke="#000" stroke-width="5" fill-opacity="0.0"></path><path d="
M 104 238.23840175367854 C
140.37306695894642 238.23840175367854
148.8134665205268 243.11146871262497
167 274.61146871262497
" stroke="#000" stroke-width="5" fill-opacity="0.0"></path><path d="
M 104 238.23840175367854 C
125 238.23840175367854
135.5 256.42493523315176
125 274.61146871262497
" stroke="#000" stroke-width="5" fill-opacity="0.0"></path><path d="
M 83 274.61146871262497 C
72.5 256.42493523315176
51.5 256.42493523315176
41 274.61146871262497
" stroke="#000" stroke-width="5" fill-opacity="0.0"></path><path d="
M 83 274.61146871262497 C
93.5 292.7980021920982
83 310.9845356715714
62 310.9845356715714
" stroke="#000" stroke-width="5" fill-opacity="0.0"></path><path d="
M 83 274.61146871262497 C
104 310.9845356715714
104 310.9845356715714
125 347.3576026305178
" stroke="#000" stroke-width="5" fill-opacity="0.0"></path><path d="
M 83 274.61146871262497 C
101.18653347947321 306.11146871262497
101.18653347947321 315.8576026305178
83 347.3576026305178
" stroke="#000" stroke-width="5" fill-opacity="0.0"></path><path d="
M 41 274.61146871262497 C
30.5 292.7980021920982
41 310.9845356715714
62 310.9845356715714
" stroke="#000" stroke-width="5" fill-opacity="0.0"></path><path d="
M 41 274.61146871262497 C
22.813466520526788 306.11146871262497
22.813466520526788 315.8576026305178
41 347.3576026305178
" stroke="#000" stroke-width="5" fill-opacity="0.0"></path><path d="
M 41 274.61146871262497 C
20 310.9845356715714
20 310.9845356715714
-1 347.3576026305178
" stroke="#000" stroke-width="5" fill-opacity="0.0"></path><path d="
M 188 238.23840175367854 C
167 238.23840175367854
156.5 256.42493523315176
167 274.61146871262497
" stroke="#000" stroke-width="5" fill-opacity="0.0"></path><path d="
M 188 238.23840175367854 C
151.62693304105358 238.23840175367854
143.1865334794732 243.11146871262497
125 274.61146871262497
" stroke="#000" stroke-width="5" fill-opacity="0.0"></path><path d="
M 188 238.23840175367854 C
230 238.23840175367854
230 238.23840175367854
272 238.23840175367854
" stroke="#000" stroke-width="5" fill-opacity="0.0"></path><path d="
M 188 238.23840175367854 C
224.37306695894642 238.23840175367854
232.8134665205268 243.11146871262497
251 274.61146871262497
" stroke="#000" stroke-width="5" fill-opacity="0.0"></path><path d="
M 188 238.23840175367854 C
209 238.23840175367854
219.5 256.42493523315176
209 274.61146871262497
" stroke="#000" stroke-width="5" fill-opacity="0.0"></path><path d="
M 167 274.61146871262497 C
177.5 292.7980021920982
198.5 292.7980021920982
209 274.61146871262497
" stroke="#000" stroke-width="5" fill-opacity="0.0"></path><path d="
M 167 274.61146871262497 C
177.5 292.7980021920982
167 310.9845356715714
146 310.9845356715714
" stroke="#000" stroke-width="5" fill-opacity="0.0"></path><path d="
M 167 274.61146871262497 C
188 310.9845356715714
188 310.9845356715714
209 347.3576026305178
" stroke="#000" stroke-width="5" fill-opacity="0.0"></path><path d="
M 125 274.61146871262497 C
106.81346652052679 306.11146871262497
106.81346652052679 315.8576026305178
125 347.3576026305178
" stroke="#000" stroke-width="5" fill-opacity="0.0"></path><path d="
M 125 274.61146871262497 C
104 310.9845356715714
104 310.9845356715714
83 347.3576026305178
" stroke="#000" stroke-width="5" fill-opacity="0.0"></path><path d="
M 272 238.23840175367854 C
251 238.23840175367854
240.5 256.42493523315176
251 274.61146871262497
" stroke="#000" stroke-width="5" fill-opacity="0.0"></path><path d="
M 272 238.23840175367854 C
314 238.23840175367854
314 238.23840175367854
356 238.23840175367854
" stroke="#000" stroke-width="5" fill-opacity="0.0"></path><path d="
M 272 238.23840175367854 C
308.3730669589464 238.23840175367854
316.8134665205268 243.11146871262497
335 274.61146871262497
" stroke="#000" stroke-width="5" fill-opacity="0.0"></path><path d="
M 272 238.23840175367854 C
293 238.23840175367854
303.5 256.42493523315176
293 274.61146871262497
" stroke="#000" stroke-width="5" fill-opacity="0.0"></path><path d="
M 251 274.61146871262497 C
261.5 292.7980021920982
251 310.9845356715714
230 310.9845356715714
" stroke="#000" stroke-width="5" fill-opacity="0.0"></path><path d="
M 251 274.61146871262497 C
269.1865334794732 306.11146871262497
277.6269330410536 310.9845356715714
314 310.9845356715714
" stroke="#000" stroke-width="5" fill-opacity="0.0"></path><path d="
M 251 274.61146871262497 C
272 310.9845356715714
272 310.9845356715714
293 347.3576026305178
" stroke="#000" stroke-width="5" fill-opacity="0.0"></path><path d="
M 251 274.61146871262497 C
269.1865334794732 306.11146871262497
269.1865334794732 315.8576026305178
251 347.3576026305178
" stroke="#000" stroke-width="5" fill-opacity="0.0"></path><path d="
M 209 274.61146871262497 C
190.8134665205268 306.11146871262497
182.37306695894642 310.9845356715714
146 310.9845356715714
" stroke="#000" stroke-width="5" fill-opacity="0.0"></path><path d="
M 209 274.61146871262497 C
198.5 292.7980021920982
209 310.9845356715714
230 310.9845356715714
" stroke="#000" stroke-width="5" fill-opacity="0.0"></path><path d="
M 209 274.61146871262497 C
188 310.9845356715714
188 310.9845356715714
167 347.3576026305178
" stroke="#000" stroke-width="5" fill-opacity="0.0"></path><path d="
M 356 238.23840175367854 C
335 238.23840175367854
324.5 256.42493523315176
335 274.61146871262497
" stroke="#000" stroke-width="5" fill-opacity="0.0"></path><path d="
M 356 238.23840175367854 C
319.6269330410536 238.23840175367854
311.1865334794732 243.11146871262497
293 274.61146871262497
" stroke="#000" stroke-width="5" fill-opacity="0.0"></path><path d="
M 356 238.23840175367854 C
398 238.23840175367854
398 238.23840175367854
440 238.23840175367854
" stroke="#000" stroke-width="5" fill-opacity="0.0"></path><path d="
M 356 238.23840175367854 C
392.3730669589464 238.23840175367854
400.8134665205268 243.11146871262497
419 274.61146871262497
" stroke="#000" stroke-width="5" fill-opacity="0.0"></path><path d="
M 335 274.61146871262497 C
345.5 292.7980021920982
335 310.9845356715714
314 310.9845356715714
" stroke="#000" stroke-width="5" fill-opacity="0.0"></path><path d="
M 335 274.61146871262497 C
356 310.9845356715714
356 310.9845356715714
377 347.3576026305178
" stroke="#000" stroke-width="5" fill-opacity="0.0"></path><path d="
M 335 274.61146871262497 C
353.1865334794732 306.11146871262497
353.1865334794732 315.8576026305178
335 347.3576026305178
" stroke="#000" stroke-width="5" fill-opacity="0.0"></path><path d="
M 293 274.61146871262497 C
274.8134665205268 306.11146871262497
266.3730669589464 310.9845356715714
230 310.9845356715714
" stroke="#000" stroke-width="5" fill-opacity="0.0"></path><path d="
M 293 274.61146871262497 C
282.5 292.7980021920982
293 310.9845356715714
314 310.9845356715714
" stroke="#000" stroke-width="5" fill-opacity="0.0"></path><path d="
M 293 274.61146871262497 C
274.8134665205268 306.11146871262497
274.8134665205268 315.8576026305178
293 347.3576026305178
" stroke="#000" stroke-width="5" fill-opacity="0.0"></path><path d="
M 293 274.61146871262497 C
272 310.9845356715714
272 310.9845356715714
251 347.3576026305178
" stroke="#000" stroke-width="5" fill-opacity="0.0"></path><path d="
M 440 238.23840175367854 C
403.6269330410536 238.23840175367854
395.1865334794732 243.11146871262497
377 274.61146871262497
" stroke="#000" stroke-width="5" fill-opacity="0.0"></path><path d="
M 440 238.23840175367854 C
482 238.23840175367854
482 238.23840175367854
524 238.23840175367854
" stroke="#000" stroke-width="5" fill-opacity="0.0"></path><path d="
M 419 274.61146871262497 C
408.5 256.42493523315176
387.5 256.42493523315176
377 274.61146871262497
" stroke="#000" stroke-width="5" fill-opacity="0.0"></path><path d="
M 419 274.61146871262497 C
429.5 292.7980021920982
450.5 292.7980021920982
461 274.61146871262497
" stroke="#000" stroke-width="5" fill-opacity="0.0"></path><path d="
M 419 274.61146871262497 C
437.1865334794732 306.11146871262497
445.6269330410536 310.9845356715714
482 310.9845356715714
" stroke="#000" stroke-width="5" fill-opacity="0.0"></path><path d="
M 419 274.61146871262497 C
440 310.9845356715714
440 310.9845356715714
461 347.3576026305178
" stroke="#000" stroke-width="5" fill-opacity="0.0"></path><path d="
M 419 274.61146871262497 C
437.1865334794732 306.11146871262497
437.1865334794732 315.8576026305178
419 347.3576026305178
" stroke="#000" stroke-width="5" fill-opacity="0.0"></path><path d="
M 377 274.61146871262497 C
366.5 292.7980021920982
377 310.9845356715714
398 310.9845356715714
" stroke="#000" stroke-width="5" fill-opacity="0.0"></path><path d="
M 377 274.61146871262497 C
356 310.9845356715714
356 310.9845356715714
335 347.3576026305178
" stroke="#000" stroke-width="5" fill-opacity="0.0"></path><path d="
M 524 238.23840175367854 C
503 238.23840175367854
492.5 256.42493523315176
503 274.61146871262497
" stroke="#000" stroke-width="5" fill-opacity="0.0"></path><path d="
M 503 274.61146871262497 C
513.5 292.7980021920982
503 310.9845356715714
482 310.9845356715714
" stroke="#000" stroke-width="5" fill-opacity="0.0"></path><path d="
M 461 274.61146871262497 C
442.8134665205268 306.11146871262497
434.3730669589464 310.9845356715714
398 310.9845356715714
" stroke="#000" stroke-width="5" fill-opacity="0.0"></path><path d="
M 461 274.61146871262497 C
440 310.9845356715714
440 310.9845356715714
419 347.3576026305178
" stroke="#000" stroke-width="5" fill-opacity="0.0"></path><path d="
M 62 310.9845356715714 C
25.626933041053576 310.9845356715714
17.186533479473212 315.8576026305178
-1 347.3576026305178
" stroke="#000" stroke-width="5" fill-opacity="0.0"></path><path d="
M 62 310.9845356715714 C
104 310.9845356715714
104 310.9845356715714
146 310.9845356715714
" stroke="#000" stroke-width="5" fill-opacity="0.0"></path><path d="
M 62 310.9845356715714 C
98.37306695894642 310.9845356715714
106.81346652052679 315.8576026305178
125 347.3576026305178
" stroke="#000" stroke-width="5" fill-opacity="0.0"></path><path d="
M 41 347.3576026305178 C
51.5 365.54413610999103
72.5 365.54413610999103
83 347.3576026305178
" stroke="#000" stroke-width="5" fill-opacity="0.0"></path><path d="
M 41 347.3576026305178 C
59.18653347947321 378.8576026305178
67.62693304105358 383.73066958946424
104 383.73066958946424
" stroke="#000" stroke-width="5" fill-opacity="0.0"></path><path d="
M 41 347.3576026305178 C
62 383.73066958946424
62 383.73066958946424
83 420.10373654841067
" stroke="#000" stroke-width="5" fill-opacity="0.0"></path><path d="
M 146 310.9845356715714 C
188 310.9845356715714
188 310.9845356715714
230 310.9845356715714
" stroke="#000" stroke-width="5" fill-opacity="0.0"></path><path d="
M 125 347.3576026305178 C
114.5 329.1710691510446
93.5 329.1710691510446
83 347.3576026305178
" stroke="#000" stroke-width="5" fill-opacity="0.0"></path><path d="
M 125 347.3576026305178 C
143.1865334794732 378.8576026305178
151.62693304105358 383.73066958946424
188 383.73066958946424
" stroke="#000" stroke-width="5" fill-opacity="0.0"></path><path d="
M 125 347.3576026305178 C
146 383.73066958946424
146 383.73066958946424
167 420.10373654841067
" stroke="#000" stroke-width="5" fill-opacity="0.0"></path><path d="
M 83 347.3576026305178 C
72.5 365.54413610999103
83 383.73066958946424
104 383.73066958946424
" stroke="#000" stroke-width="5" fill-opacity="0.0"></path><path d="
M 83 347.3576026305178 C
64.81346652052679 378.8576026305178
64.81346652052679 388.60373654841067
83 420.10373654841067
" stroke="#000" stroke-width="5" fill-opacity="0.0"></path><path d="
M 83 347.3576026305178 C
62 383.73066958946424
62 383.73066958946424
41 420.10373654841067
" stroke="#000" stroke-width="5" fill-opacity="0.0"></path><path d="
M 230 310.9845356715714 C
193.62693304105358 310.9845356715714
185.1865334794732 315.8576026305178
167 347.3576026305178
" stroke="#000" stroke-width="5" fill-opacity="0.0"></path><path d="
M 230 310.9845356715714 C
272 310.9845356715714
272 310.9845356715714
314 310.9845356715714
" stroke="#000" stroke-width="5" fill-opacity="0.0"></path><path d="
M 230 310.9845356715714 C
266.3730669589464 310.9845356715714
274.8134665205268 315.8576026305178
293 347.3576026305178
" stroke="#000" stroke-width="5" fill-opacity="0.0"></path><path d="
M 209 347.3576026305178 C
198.5 329.1710691510446
177.5 329.1710691510446
167 347.3576026305178
" stroke="#000" stroke-width="5" fill-opacity="0.0"></path><path d="
M 209 347.3576026305178 C
219.5 365.54413610999103
240.5 365.54413610999103
251 347.3576026305178
" stroke="#000" stroke-width="5" fill-opacity="0.0"></path><path d="
M 209 347.3576026305178 C
230 383.73066958946424
230 383.73066958946424
251 420.10373654841067
" stroke="#000" stroke-width="5" fill-opacity="0.0"></path><path d="
M 209 347.3576026305178 C
227.1865334794732 378.8576026305178
227.1865334794732 388.60373654841067
209 420.10373654841067
" stroke="#000" stroke-width="5" fill-opacity="0.0"></path><path d="
M 167 347.3576026305178 C
156.5 365.54413610999103
167 383.73066958946424
188 383.73066958946424
" stroke="#000" stroke-width="5" fill-opacity="0.0"></path><path d="
M 167 347.3576026305178 C
148.8134665205268 378.8576026305178
148.8134665205268 388.60373654841067
167 420.10373654841067
" stroke="#000" stroke-width="5" fill-opacity="0.0"></path><path d="
M 167 347.3576026305178 C
146 383.73066958946424
146 383.73066958946424
125 420.10373654841067
" stroke="#000" stroke-width="5" fill-opacity="0.0"></path><path d="
M 314 310.9845356715714 C
356 310.9845356715714
356 310.9845356715714
398 310.9845356715714
" stroke="#000" stroke-width="5" fill-opacity="0.0"></path><path d="
M 314 310.9845356715714 C
350.3730669589464 310.9845356715714
358.8134665205268 315.8576026305178
377 347.3576026305178
" stroke="#000" stroke-width="5" fill-opacity="0.0"></path><path d="
M 293 347.3576026305178 C
303.5 365.54413610999103
324.5 365.54413610999103
335 347.3576026305178
" stroke="#000" stroke-width="5" fill-opacity="0.0"></path><path d="
M 293 347.3576026305178 C
314 383.73066958946424
314 383.73066958946424
335 420.10373654841067
" stroke="#000" stroke-width="5" fill-opacity="0.0"></path><path d="
M 251 347.3576026305178 C
232.8134665205268 378.8576026305178
232.8134665205268 388.60373654841067
251 420.10373654841067
" stroke="#000" stroke-width="5" fill-opacity="0.0"></path><path d="
M 251 347.3576026305178 C
230 383.73066958946424
230 383.73066958946424
209 420.10373654841067
" stroke="#000" stroke-width="5" fill-opacity="0.0"></path><path d="
M 398 310.9845356715714 C
440 310.9845356715714
440 310.9845356715714
482 310.9845356715714
" stroke="#000" stroke-width="5" fill-opacity="0.0"></path><path d="
M 398 310.9845356715714 C
419 310.9845356715714
429.5 329.1710691510446
419 347.3576026305178
" stroke="#000" stroke-width="5" fill-opacity="0.0"></path><path d="
M 377 347.3576026305178 C
366.5 329.1710691510446
345.5 329.1710691510446
335 347.3576026305178
" stroke="#000" stroke-width="5" fill-opacity="0.0"></path><path d="
M 377 347.3576026305178 C
387.5 365.54413610999103
408.5 365.54413610999103
419 347.3576026305178
" stroke="#000" stroke-width="5" fill-opacity="0.0"></path><path d="
M 377 347.3576026305178 C
398 383.73066958946424
398 383.73066958946424
419 420.10373654841067
" stroke="#000" stroke-width="5" fill-opacity="0.0"></path><path d="
M 335 347.3576026305178 C
316.8134665205268 378.8576026305178
316.8134665205268 388.60373654841067
335 420.10373654841067
" stroke="#000" stroke-width="5" fill-opacity="0.0"></path><path d="
M 335 347.3576026305178 C
314 383.73066958946424
314 383.73066958946424
293 420.10373654841067
" stroke="#000" stroke-width="5" fill-opacity="0.0"></path><path d="
M 461 347.3576026305178 C
471.5 365.54413610999103
461 383.73066958946424
440 383.73066958946424
" stroke="#000" stroke-width="5" fill-opacity="0.0"></path><path d="
M 461 347.3576026305178 C
482 383.73066958946424
482 383.73066958946424
503 420.10373654841067
" stroke="#000" stroke-width="5" fill-opacity="0.0"></path><path d="
M 461 347.3576026305178 C
479.1865334794732 378.8576026305178
479.1865334794732 388.60373654841067
461 420.10373654841067
" stroke="#000" stroke-width="5" fill-opacity="0.0"></path><path d="
M 419 347.3576026305178 C
400.8134665205268 378.8576026305178
392.3730669589464 383.73066958946424
356 383.73066958946424
" stroke="#000" stroke-width="5" fill-opacity="0.0"></path><path d="
M 419 347.3576026305178 C
408.5 365.54413610999103
419 383.73066958946424
440 383.73066958946424
" stroke="#000" stroke-width="5" fill-opacity="0.0"></path><path d="
M 419 347.3576026305178 C
400.8134665205268 378.8576026305178
400.8134665205268 388.60373654841067
419 420.10373654841067
" stroke="#000" stroke-width="5" fill-opacity="0.0"></path><path d="
M 419 347.3576026305178 C
398 383.73066958946424
398 383.73066958946424
377 420.10373654841067
" stroke="#000" stroke-width="5" fill-opacity="0.0"></path><path d="
M 104 383.73066958946424 C
83 383.73066958946424
72.5 401.91720306893745
83 420.10373654841067
" stroke="#000" stroke-width="5" fill-opacity="0.0"></path><path d="
M 104 383.73066958946424 C
67.62693304105358 383.73066958946424
59.18653347947321 388.60373654841067
41 420.10373654841067
" stroke="#000" stroke-width="5" fill-opacity="0.0"></path><path d="
M 104 383.73066958946424 C
146 383.73066958946424
146 383.73066958946424
188 383.73066958946424
" stroke="#000" stroke-width="5" fill-opacity="0.0"></path><path d="
M 104 383.73066958946424 C
140.37306695894642 383.73066958946424
148.8134665205268 388.60373654841067
167 420.10373654841067
" stroke="#000" stroke-width="5" fill-opacity="0.0"></path><path d="
M 83 420.10373654841067 C
72.5 401.91720306893745
51.5 401.91720306893745
41 420.10373654841067
" stroke="#000" stroke-width="5" fill-opacity="0.0"></path><path d="
M 83 420.10373654841067 C
93.5 438.2902700278839
83 456.4768035073571
62 456.4768035073571
" stroke="#000" stroke-width="5" fill-opacity="0.0"></path><path d="
M 83 420.10373654841067 C
101.18653347947321 451.60373654841067
109.62693304105358 456.4768035073571
146 456.4768035073571
" stroke="#000" stroke-width="5" fill-opacity="0.0"></path><path d="
M 83 420.10373654841067 C
104 456.4768035073571
104 456.4768035073571
125 492.8498704663035
" stroke="#000" stroke-width="5" fill-opacity="0.0"></path><path d="
M 83 420.10373654841067 C
101.18653347947321 451.60373654841067
101.18653347947321 461.3498704663035
83 492.8498704663035
" stroke="#000" stroke-width="5" fill-opacity="0.0"></path><path d="
M 41 420.10373654841067 C
20 456.4768035073571
20 456.4768035073571
-1 492.8498704663035
" stroke="#000" stroke-width="5" fill-opacity="0.0"></path><path d="
M 188 383.73066958946424 C
167 383.73066958946424
156.5 401.91720306893745
167 420.10373654841067
" stroke="#000" stroke-width="5" fill-opacity="0.0"></path><path d="
M 188 383.73066958946424 C
230 383.73066958946424
230 383.73066958946424
272 383.73066958946424
" stroke="#000" stroke-width="5" fill-opacity="0.0"></path><path d="
M 188 383.73066958946424 C
224.37306695894642 383.73066958946424
232.8134665205268 388.60373654841067
251 420.10373654841067
" stroke="#000" stroke-width="5" fill-opacity="0.0"></path><path d="
M 188 383.73066958946424 C
209 383.73066958946424
219.5 401.91720306893745
209 420.10373654841067
" stroke="#000" stroke-width="5" fill-opacity="0.0"></path><path d="
M 167 420.10373654841067 C
177.5 438.2902700278839
167 456.4768035073571
146 456.4768035073571
" stroke="#000" stroke-width="5" fill-opacity="0.0"></path><path d="
M 167 420.10373654841067 C
185.1865334794732 451.60373654841067
193.62693304105358 456.4768035073571
230 456.4768035073571
" stroke="#000" stroke-width="5" fill-opacity="0.0"></path><path d="
M 167 420.10373654841067 C
188 456.4768035073571
188 456.4768035073571
209 492.8498704663035
" stroke="#000" stroke-width="5" fill-opacity="0.0"></path><path d="
M 167 420.10373654841067 C
185.1865334794732 451.60373654841067
185.1865334794732 461.3498704663035
167 492.8498704663035
" stroke="#000" stroke-width="5" fill-opacity="0.0"></path><path d="
M 125 420.10373654841067 C
106.81346652052679 451.60373654841067
98.37306695894642 456.4768035073571
62 456.4768035073571
" stroke="#000" stroke-width="5" fill-opacity="0.0"></path><path d="
M 125 420.10373654841067 C
114.5 438.2902700278839
125 456.4768035073571
146 456.4768035073571
" stroke="#000" stroke-width="5" fill-opacity="0.0"></path><path d="
M 125 420.10373654841067 C
104 456.4768035073571
104 456.4768035073571
83 492.8498704663035
" stroke="#000" stroke-width="5" fill-opacity="0.0"></path><path d="
M 272 383.73066958946424 C
251 383.73066958946424
240.5 401.91720306893745
251 420.10373654841067
" stroke="#000" stroke-width="5" fill-opacity="0.0"></path><path d="
M 272 383.73066958946424 C
235.62693304105358 383.73066958946424
227.1865334794732 388.60373654841067
209 420.10373654841067
" stroke="#000" stroke-width="5" fill-opacity="0.0"></path><path d="
M 272 383.73066958946424 C
314 383.73066958946424
314 383.73066958946424
356 383.73066958946424
" stroke="#000" stroke-width="5" fill-opacity="0.0"></path><path d="
M 251 420.10373654841067 C
261.5 438.2902700278839
282.5 438.2902700278839
293 420.10373654841067
" stroke="#000" stroke-width="5" fill-opacity="0.0"></path><path d="
M 251 420.10373654841067 C
261.5 438.2902700278839
251 456.4768035073571
230 456.4768035073571
" stroke="#000" stroke-width="5" fill-opacity="0.0"></path><path d="
M 251 420.10373654841067 C
269.1865334794732 451.60373654841067
277.6269330410536 456.4768035073571
314 456.4768035073571
" stroke="#000" stroke-width="5" fill-opacity="0.0"></path><path d="
M 251 420.10373654841067 C
272 456.4768035073571
272 456.4768035073571
293 492.8498704663035
" stroke="#000" stroke-width="5" fill-opacity="0.0"></path><path d="
M 251 420.10373654841067 C
269.1865334794732 451.60373654841067
269.1865334794732 461.3498704663035
251 492.8498704663035
" stroke="#000" stroke-width="5" fill-opacity="0.0"></path><path d="
M 209 420.10373654841067 C
190.8134665205268 451.60373654841067
182.37306695894642 456.4768035073571
146 456.4768035073571
" stroke="#000" stroke-width="5" fill-opacity="0.0"></path><path d="
M 209 420.10373654841067 C
198.5 438.2902700278839
209 456.4768035073571
230 456.4768035073571
" stroke="#000" stroke-width="5" fill-opacity="0.0"></path><path d="
M 209 420.10373654841067 C
190.8134665205268 451.60373654841067
190.8134665205268 461.3498704663035
209 492.8498704663035
" stroke="#000" stroke-width="5" fill-opacity="0.0"></path><path d="
M 209 420.10373654841067 C
188 456.4768035073571
188 456.4768035073571
167 492.8498704663035
" stroke="#000" stroke-width="5" fill-opacity="0.0"></path><path d="
M 356 383.73066958946424 C
398 383.73066958946424
398 383.73066958946424
440 383.73066958946424
" stroke="#000" stroke-width="5" fill-opacity="0.0"></path><path d="
M 356 383.73066958946424 C
377 383.73066958946424
387.5 401.91720306893745
377 420.10373654841067
" stroke="#000" stroke-width="5" fill-opacity="0.0"></path><path d="
M 335 420.10373654841067 C
324.5 401.91720306893745
303.5 401.91720306893745
293 420.10373654841067
" stroke="#000" stroke-width="5" fill-opacity="0.0"></path><path d="
M 335 420.10373654841067 C
345.5 438.2902700278839
366.5 438.2902700278839
377 420.10373654841067
" stroke="#000" stroke-width="5" fill-opacity="0.0"></path><path d="
M 335 420.10373654841067 C
345.5 438.2902700278839
335 456.4768035073571
314 456.4768035073571
" stroke="#000" stroke-width="5" fill-opacity="0.0"></path><path d="
M 335 420.10373654841067 C
356 456.4768035073571
356 456.4768035073571
377 492.8498704663035
" stroke="#000" stroke-width="5" fill-opacity="0.0"></path><path d="
M 335 420.10373654841067 C
353.1865334794732 451.60373654841067
353.1865334794732 461.3498704663035
335 492.8498704663035
" stroke="#000" stroke-width="5" fill-opacity="0.0"></path><path d="
M 293 420.10373654841067 C
272 456.4768035073571
272 456.4768035073571
251 492.8498704663035
" stroke="#000" stroke-width="5" fill-opacity="0.0"></path><path d="
M 440 383.73066958946424 C
482 383.73066958946424
482 383.73066958946424
524 383.73066958946424
" stroke="#000" stroke-width="5" fill-opacity="0.0"></path><path d="
M 440 383.73066958946424 C
461 383.73066958946424
471.5 401.91720306893745
461 420.10373654841067
" stroke="#000" stroke-width="5" fill-opacity="0.0"></path><path d="
M 419 420.10373654841067 C
429.5 438.2902700278839
419 456.4768035073571
398 456.4768035073571
" stroke="#000" stroke-width="5" fill-opacity="0.0"></path><path d="
M 419 420.10373654841067 C
440 456.4768035073571
440 456.4768035073571
461 492.8498704663035
" stroke="#000" stroke-width="5" fill-opacity="0.0"></path><path d="
M 419 420.10373654841067 C
437.1865334794732 451.60373654841067
437.1865334794732 461.3498704663035
419 492.8498704663035
" stroke="#000" stroke-width="5" fill-opacity="0.0"></path><path d="
M 377 420.10373654841067 C
358.8134665205268 451.60373654841067
350.3730669589464 456.4768035073571
314 456.4768035073571
" stroke="#000" stroke-width="5" fill-opacity="0.0"></path><path d="
M 377 420.10373654841067 C
356 456.4768035073571
356 456.4768035073571
335 492.8498704663035
" stroke="#000" stroke-width="5" fill-opacity="0.0"></path><path d="
M 524 383.73066958946424 C
487.6269330410536 383.73066958946424
479.1865334794732 388.60373654841067
461 420.10373654841067
" stroke="#000" stroke-width="5" fill-opacity="0.0"></path><path d="
M 503 420.10373654841067 C
492.5 401.91720306893745
471.5 401.91720306893745
461 420.10373654841067
" stroke="#000" stroke-width="5" fill-opacity="0.0"></path><path d="
M 503 420.10373654841067 C
513.5 438.2902700278839
503 456.4768035073571
482 456.4768035073571
" stroke="#000" stroke-width="5" fill-opacity="0.0"></path><path d="
M 461 420.10373654841067 C
442.8134665205268 451.60373654841067
434.3730669589464 456.4768035073571
398 456.4768035073571
" stroke="#000" stroke-width="5" fill-opacity="0.0"></path><path d="
M 461 420.10373654841067 C
450.5 438.2902700278839
461 456.4768035073571
482 456.4768035073571
" stroke="#000" stroke-width="5" fill-opacity="0.0"></path><path d="
M 461 420.10373654841067 C
440 456.4768035073571
440 456.4768035073571
419 492.8498704663035
" stroke="#000" stroke-width="5" fill-opacity="0.0"></path><path d="
M 62 456.4768035073571 C
104 456.4768035073571
104 456.4768035073571
146 456.4768035073571
" stroke="#000" stroke-width="5" fill-opacity="0.0"></path><path d="
M 41 492.8498704663035 C
51.5 511.0364039457767
72.5 511.0364039457767
83 492.8498704663035
" stroke="#000" stroke-width="5" fill-opacity="0.0"></path><path d="
M 146 456.4768035073571 C
109.62693304105358 456.4768035073571
101.18653347947321 461.3498704663035
83 492.8498704663035
" stroke="#000" stroke-width="5" fill-opacity="0.0"></path><path d="
M 146 456.4768035073571 C
188 456.4768035073571
188 456.4768035073571
230 456.4768035073571
" stroke="#000" stroke-width="5" fill-opacity="0.0"></path><path d="
M 146 456.4768035073571 C
182.37306695894642 456.4768035073571
190.8134665205268 461.3498704663035
209 492.8498704663035
" stroke="#000" stroke-width="5" fill-opacity="0.0"></path><path d="
M 125 492.8498704663035 C
114.5 474.6633369868303
93.5 474.6633369868303
83 492.8498704663035
" stroke="#000" stroke-width="5" fill-opacity="0.0"></path><path d="
M 125 492.8498704663035 C
135.5 511.0364039457767
156.5 511.0364039457767
167 492.8498704663035
" stroke="#000" stroke-width="5" fill-opacity="0.0"></path><path d="
M 230 456.4768035073571 C
209 456.4768035073571
198.5 474.6633369868303
209 492.8498704663035
" stroke="#000" stroke-width="5" fill-opacity="0.0"></path><path d="
M 230 456.4768035073571 C
193.62693304105358 456.4768035073571
185.1865334794732 461.3498704663035
167 492.8498704663035
" stroke="#000" stroke-width="5" fill-opacity="0.0"></path><path d="
M 230 456.4768035073571 C
272 456.4768035073571
272 456.4768035073571
314 456.4768035073571
" stroke="#000" stroke-width="5" fill-opacity="0.0"></path><path d="
M 209 492.8498704663035 C
219.5 511.0364039457767
240.5 511.0364039457767
251 492.8498704663035
" stroke="#000" stroke-width="5" fill-opacity="0.0"></path><path d="
M 314 456.4768035073571 C
277.6269330410536 456.4768035073571
269.1865334794732 461.3498704663035
251 492.8498704663035
" stroke="#000" stroke-width="5" fill-opacity="0.0"></path><path d="
M 314 456.4768035073571 C
356 456.4768035073571
356 456.4768035073571
398 456.4768035073571
" stroke="#000" stroke-width="5" fill-opacity="0.0"></path><path d="
M 314 456.4768035073571 C
350.3730669589464 456.4768035073571
358.8134665205268 461.3498704663035
377 492.8498704663035
" stroke="#000" stroke-width="5" fill-opacity="0.0"></path><path d="
M 314 456.4768035073571 C
335 456.4768035073571
345.5 474.6633369868303
335 492.8498704663035
" stroke="#000" stroke-width="5" fill-opacity="0.0"></path><path d="
M 293 492.8498704663035 C
303.5 511.0364039457767
324.5 511.0364039457767
335 492.8498704663035
" stroke="#000" stroke-width="5" fill-opacity="0.0"></path><path d="
M 398 456.4768035073571 C
361.6269330410536 456.4768035073571
353.1865334794732 461.3498704663035
335 492.8498704663035
" stroke="#000" stroke-width="5" fill-opacity="0.0"></path><path d="
M 398 456.4768035073571 C
440 456.4768035073571
440 456.4768035073571
482 456.4768035073571
" stroke="#000" stroke-width="5" fill-opacity="0.0"></path><path d="
M 377 492.8498704663035 C
387.5 511.0364039457767
408.5 511.0364039457767
419 492.8498704663035
" stroke="#000" stroke-width="5" fill-opacity="0.0"></path><path d="
M 482 456.4768035073571 C
461 456.4768035073571
450.5 474.6633369868303
461 492.8498704663035
" stroke="#000" stroke-width="5" fill-opacity="0.0"></path><path d="
M 482 456.4768035073571 C
445.6269330410536 456.4768035073571
437.1865334794732 461.3498704663035
419 492.8498704663035
" stroke="#000" stroke-width="5" fill-opacity="0.0"></path><line x1="65" y1="20" x2="59" y2="20" stroke="#808" stroke-width="2"></line><line x1="42.5" y1="58.97114317029974" x2="39.5" y2="53.77499074759311" stroke="#808" stroke-width="2"></line><line x1="-2.5" y1="58.97114317029974" x2="0.5" y2="53.77499074759311" stroke="#808" stroke-width="2"></line><line x1="149" y1="20" x2="143" y2="20" stroke="#808" stroke-width="2"></line><line x1="126.5" y1="58.97114317029974" x2="123.5" y2="53.77499074759311" stroke="#808" stroke-width="2"></line><line x1="81.5" y1="58.97114317029974" x2="84.5" y2="53.77499074759311" stroke="#808" stroke-width="2"></line><line x1="233" y1="20" x2="227" y2="20" stroke="#808" stroke-width="2"></line><line x1="210.5" y1="58.97114317029974" x2="207.5" y2="53.77499074759311" stroke="#808" stroke-width="2"></line><line x1="165.5" y1="58.97114317029974" x2="168.5" y2="53.77499074759311" stroke="#808" stroke-width="2"></line><line x1="317" y1="20" x2="311" y2="20" stroke="#808" stroke-width="2"></line><line x1="294.5" y1="58.97114317029974" x2="291.5" y2="53.77499074759311" stroke="#808" stroke-width="2"></line><line x1="249.5" y1="58.97114317029974" x2="252.5" y2="53.77499074759311" stroke="#808" stroke-width="2"></line><line x1="401" y1="20" x2="395" y2="20" stroke="#808" stroke-width="2"></line><line x1="378.5" y1="58.97114317029974" x2="375.5" y2="53.77499074759311" stroke="#808" stroke-width="2"></line><line x1="333.5" y1="58.97114317029974" x2="336.5" y2="53.77499074759311" stroke="#808" stroke-width="2"></line><line x1="485" y1="20" x2="479" y2="20" stroke="#808" stroke-width="2"></line><line x1="462.5" y1="58.97114317029974" x2="459.5" y2="53.77499074759311" stroke="#808" stroke-width="2"></line><line x1="417.5" y1="58.97114317029974" x2="420.5" y2="53.77499074759311" stroke="#808" stroke-width="2"></line><line x1="107" y1="92.74613391789285" x2="101" y2="92.74613391789285" stroke="#808" stroke-width="2"></line><line x1="84.5" y1="131.7172770881926" x2="81.5" y2="126.52112466548596" stroke="#808" stroke-width="2"></line><line x1="39.5" y1="131.7172770881926" x2="42.5" y2="126.52112466548596" stroke="#808" stroke-width="2"></line><line x1="191" y1="92.74613391789285" x2="185" y2="92.74613391789285" stroke="#808" stroke-width="2"></line><line x1="168.5" y1="131.7172770881926" x2="165.5" y2="126.52112466548596" stroke="#808" stroke-width="2"></line><line x1="123.5" y1="131.7172770881926" x2="126.5" y2="126.52112466548596" stroke="#808" stroke-width="2"></line><line x1="275" y1="92.74613391789285" x2="269" y2="92.74613391789285" stroke="#808" stroke-width="2"></line><line x1="252.5" y1="131.7172770881926" x2="249.5" y2="126.52112466548596" stroke="#808" stroke-width="2"></line><line x1="207.5" y1="131.7172770881926" x2="210.5" y2="126.52112466548596" stroke="#808" stroke-width="2"></line><line x1="359" y1="92.74613391789285" x2="353" y2="92.74613391789285" stroke="#808" stroke-width="2"></line><line x1="336.5" y1="131.7172770881926" x2="333.5" y2="126.52112466548596" stroke="#808" stroke-width="2"></line><line x1="291.5" y1="131.7172770881926" x2="294.5" y2="126.52112466548596" stroke="#808" stroke-width="2"></line><line x1="443" y1="92.74613391789285" x2="437" y2="92.74613391789285" stroke="#808" stroke-width="2"></line><line x1="420.5" y1="131.7172770881926" x2="417.5" y2="126.52112466548596" stroke="#808" stroke-width="2"></line><line x1="375.5" y1="131.7172770881926" x2="378.5" y2="126.52112466548596" stroke="#808" stroke-width="2"></line><line x1="527" y1="92.74613391789285" x2="521" y2="92.74613391789285" stroke="#808" stroke-width="2"></line><line x1="504.5" y1="131.7172770881926" x2="501.5" y2="126.52112466548596" stroke="#808" stroke-width="2"></line><line x1="459.5" y1="131.7172770881926" x2="462.5" y2="126.52112466548596" stroke="#808" stroke-width="2"></line><line x1="65" y1="165.4922678357857" x2="59" y2="165.4922678357857" stroke="#808" stroke-width="2"></line><line x1="42.5" y1="204.46341100608544" x2="39.5" y2="199.2672585833788" stroke="#808" stroke-width="2"></line><line x1="-2.5" y1="204.46341100608544" x2="0.5" y2="199.2672585833788" stroke="#808" stroke-width="2"></line><line x1="149" y1="165.4922678357857" x2="143" y2="165.4922678357857" stroke="#808" stroke-width="2"></line><line x1="126.5" y1="204.46341100608544" x2="123.5" y2="199.2672585833788" stroke="#808" stroke-width="2"></line><line x1="81.5" y1="204.46341100608544" x2="84.5" y2="199.2672585833788" stroke="#808" stroke-width="2"></line><line x1="233" y1="165.4922678357857" x2="227" y2="165.4922678357857" stroke="#808" stroke-width="2"></line><line x1="210.5" y1="204.46341100608544" x2="207.5" y2="199.2672585833788" stroke="#808" stroke-width="2"></line><line x1="165.5" y1="204.46341100608544" x2="168.5" y2="199.2672585833788" stroke="#808" stroke-width="2"></line><line x1="317" y1="165.4922678357857" x2="311" y2="165.4922678357857" stroke="#808" stroke-width="2"></line><line x1="294.5" y1="204.46341100608544" x2="291.5" y2="199.2672585833788" stroke="#808" stroke-width="2"></line><line x1="249.5" y1="204.46341100608544" x2="252.5" y2="199.2672585833788" stroke="#808" stroke-width="2"></line><line x1="401" y1="165.4922678357857" x2="395" y2="165.4922678357857" stroke="#808" stroke-width="2"></line><line x1="378.5" y1="204.46341100608544" x2="375.5" y2="199.2672585833788" stroke="#808" stroke-width="2"></line><line x1="333.5" y1="204.46341100608544" x2="336.5" y2="199.2672585833788" stroke="#808" stroke-width="2"></line><line x1="485" y1="165.4922678357857" x2="479" y2="165.4922678357857" stroke="#808" stroke-width="2"></line><line x1="462.5" y1="204.46341100608544" x2="459.5" y2="199.2672585833788" stroke="#808" stroke-width="2"></line><line x1="417.5" y1="204.46341100608544" x2="420.5" y2="199.2672585833788" stroke="#808" stroke-width="2"></line><line x1="107" y1="238.23840175367854" x2="101" y2="238.23840175367854" stroke="#808" stroke-width="2"></line><line x1="84.5" y1="277.2095449239783" x2="81.5" y2="272.01339250127165" stroke="#808" stroke-width="2"></line><line x1="39.5" y1="277.2095449239783" x2="42.5" y2="272.01339250127165" stroke="#808" stroke-width="2"></line><line x1="191" y1="238.23840175367854" x2="185" y2="238.23840175367854" stroke="#808" stroke-width="2"></line><line x1="168.5" y1="277.2095449239783" x2="165.5" y2="272.01339250127165" stroke="#808" stroke-width="2"></line><line x1="123.5" y1="277.2095449239783" x2="126.5" y2="272.01339250127165" stroke="#808" stroke-width="2"></line><line x1="275" y1="238.23840175367854" x2="269" y2="238.23840175367854" stroke="#808" stroke-width="2"></line><line x1="252.5" y1="277.2095449239783" x2="249.5" y2="272.01339250127165" stroke="#808" stroke-width="2"></line><line x1="207.5" y1="277.2095449239783" x2="210.5" y2="272.01339250127165" stroke="#808" stroke-width="2"></line><line x1="359" y1="238.23840175367854" x2="353" y2="238.23840175367854" stroke="#808" stroke-width="2"></line><line x1="336.5" y1="277.2095449239783" x2="333.5" y2="272.01339250127165" stroke="#808" stroke-width="2"></line><line x1="291.5" y1="277.2095449239783" x2="294.5" y2="272.01339250127165" stroke="#808" stroke-width="2"></line><line x1="443" y1="238.23840175367854" x2="437" y2="238.23840175367854" stroke="#808" stroke-width="2"></line><line x1="420.5" y1="277.2095449239783" x2="417.5" y2="272.01339250127165" stroke="#808" stroke-width="2"></line><line x1="375.5" y1="277.2095449239783" x2="378.5" y2="272.01339250127165" stroke="#808" stroke-width="2"></line><line x1="527" y1="238.23840175367854" x2="521" y2="238.23840175367854" stroke="#808" stroke-width="2"></line><line x1="504.5" y1="277.2095449239783" x2="501.5" y2="272.01339250127165" stroke="#808" stroke-width="2"></line><line x1="459.5" y1="277.2095449239783" x2="462.5" y2="272.01339250127165" stroke="#808" stroke-width="2"></line><line x1="65" y1="310.9845356715714" x2="59" y2="310.9845356715714" stroke="#808" stroke-width="2"></line><line x1="42.5" y1="349.95567884187113" x2="39.5" y2="344.7595264191645" stroke="#808" stroke-width="2"></line><line x1="-2.5" y1="349.95567884187113" x2="0.5" y2="344.7595264191645" stroke="#808" stroke-width="2"></line><line x1="149" y1="310.9845356715714" x2="143" y2="310.9845356715714" stroke="#808" stroke-width="2"></line><line x1="126.5" y1="349.95567884187113" x2="123.5" y2="344.7595264191645" stroke="#808" stroke-width="2"></line><line x1="81.5" y1="349.95567884187113" x2="84.5" y2="344.7595264191645" stroke="#808" stroke-width="2"></line><line x1="233" y1="310.9845356715714" x2="227" y2="310.9845356715714" stroke="#808" stroke-width="2"></line><line x1="210.5" y1="349.95567884187113" x2="207.5" y2="344.7595264191645" stroke="#808" stroke-width="2"></line><line x1="165.5" y1="349.95567884187113" x2="168.5" y2="344.7595264191645" stroke="#808" stroke-width="2"></line><line x1="317" y1="310.9845356715714" x2="311" y2="310.9845356715714" stroke="#808" stroke-width="2"></line><line x1="294.5" y1="349.95567884187113" x2="291.5" y2="344.7595264191645" stroke="#808" stroke-width="2"></line><line x1="249.5" y1="349.95567884187113" x2="252.5" y2="344.7595264191645" stroke="#808" stroke-width="2"></line><line x1="401" y1="310.9845356715714" x2="395" y2="310.9845356715714" stroke="#808" stroke-width="2"></line><line x1="378.5" y1="349.95567884187113" x2="375.5" y2="344.7595264191645" stroke="#808" stroke-width="2"></line><line x1="333.5" y1="349.95567884187113" x2="336.5" y2="344.7595264191645" stroke="#808" stroke-width="2"></line><line x1="485" y1="310.9845356715714" x2="479" y2="310.9845356715714" stroke="#808" stroke-width="2"></line><line x1="462.5" y1="349.95567884187113" x2="459.5" y2="344.7595264191645" stroke="#808" stroke-width="2"></line><line x1="417.5" y1="349.95567884187113" x2="420.5" y2="344.7595264191645" stroke="#808" stroke-width="2"></line><line x1="107" y1="383.73066958946424" x2="101" y2="383.73066958946424" stroke="#808" stroke-width="2"></line><line x1="84.5" y1="422.701812759764" x2="81.5" y2="417.50566033705735" stroke="#808" stroke-width="2"></line><line x1="39.5" y1="422.701812759764" x2="42.5" y2="417.50566033705735" stroke="#808" stroke-width="2"></line><line x1="191" y1="383.73066958946424" x2="185" y2="383.73066958946424" stroke="#808" stroke-width="2"></line><line x1="168.5" y1="422.701812759764" x2="165.5" y2="417.50566033705735" stroke="#808" stroke-width="2"></line><line x1="123.5" y1="422.701812759764" x2="126.5" y2="417.50566033705735" stroke="#808" stroke-width="2"></line><line x1="275" y1="383.73066958946424" x2="269" y2="383.73066958946424" stroke="#808" stroke-width="2"></line><line x1="252.5" y1="422.701812759764" x2="249.5" y2="417.50566033705735" stroke="#808" stroke-width="2"></line><line x1="207.5" y1="422.701812759764" x2="210.5" y2="417.50566033705735" stroke="#808" stroke-width="2"></line><line x1="359" y1="383.73066958946424" x2="353" y2="383.73066958946424" stroke="#808" stroke-width="2"></line><line x1="336.5" y1="422.701812759764" x2="333.5" y2="417.50566033705735" stroke="#808" stroke-width="2"></line><line x1="291.5" y1="422.701812759764" x2="294.5" y2="417.50566033705735" stroke="#808" stroke-width="2"></line><line x1="443" y1="383.73066958946424" x2="437" y2="383.73066958946424" stroke="#808" stroke-width="2"></line><line x1="420.5" y1="422.701812759764" x2="417.5" y2="417.50566033705735" stroke="#808" stroke-width="2"></line><line x1="375.5" y1="422.701812759764" x2="378.5" y2="417.50566033705735" stroke="#808" stroke-width="2"></line><line x1="527" y1="383.73066958946424" x2="521" y2="383.73066958946424" stroke="#808" stroke-width="2"></line><line x1="504.5" y1="422.701812759764" x2="501.5" y2="417.50566033705735" stroke="#808" stroke-width="2"></line><line x1="459.5" y1="422.701812759764" x2="462.5" y2="417.50566033705735" stroke="#808" stroke-width="2"></line><line x1="65" y1="456.4768035073571" x2="59" y2="456.4768035073571" stroke="#808" stroke-width="2"></line><line x1="42.5" y1="495.44794667765683" x2="39.5" y2="490.2517942549502" stroke="#808" stroke-width="2"></line><line x1="-2.5" y1="495.44794667765683" x2="0.5" y2="490.2517942549502" stroke="#808" stroke-width="2"></line><line x1="149" y1="456.4768035073571" x2="143" y2="456.4768035073571" stroke="#808" stroke-width="2"></line><line x1="126.5" y1="495.44794667765683" x2="123.5" y2="490.2517942549502" stroke="#808" stroke-width="2"></line><line x1="81.5" y1="495.44794667765683" x2="84.5" y2="490.2517942549502" stroke="#808" stroke-width="2"></line><line x1="233" y1="456.4768035073571" x2="227" y2="456.4768035073571" stroke="#808" stroke-width="2"></line><line x1="210.5" y1="495.44794667765683" x2="207.5" y2="490.2517942549502" stroke="#808" stroke-width="2"></line><line x1="165.5" y1="495.44794667765683" x2="168.5" y2="490.2517942549502" stroke="#808" stroke-width="2"></line><line x1="317" y1="456.4768035073571" x2="311" y2="456.4768035073571" stroke="#808" stroke-width="2"></line><line x1="294.5" y1="495.44794667765683" x2="291.5" y2="490.2517942549502" stroke="#808" stroke-width="2"></line><line x1="249.5" y1="495.44794667765683" x2="252.5" y2="490.2517942549502" stroke="#808" stroke-width="2"></line><line x1="401" y1="456.4768035073571" x2="395" y2="456.4768035073571" stroke="#808" stroke-width="2"></line><line x1="378.5" y1="495.44794667765683" x2="375.5" y2="490.2517942549502" stroke="#808" stroke-width="2"></line><line x1="333.5" y1="495.44794667765683" x2="336.5" y2="490.2517942549502" stroke="#808" stroke-width="2"></line><line x1="485" y1="456.4768035073571" x2="479" y2="456.4768035073571" stroke="#808" stroke-width="2"></line><line x1="462.5" y1="495.44794667765683" x2="459.5" y2="490.2517942549502" stroke="#808" stroke-width="2"></line><line x1="417.5" y1="495.44794667765683" x2="420.5" y2="490.2517942549502" stroke="#808" stroke-width="2"></line></svg>
