<svg xmlns="http://www.w3.org/2000/svg" version="1.1"><path d="
M 60 20 C
25.35898384862245 20
17.320508075688775 24.641016151377542
0 54.64101615137754
" stroke="rgb(25,179,102)" stroke-width="5" fill-opacity="0.0"></path><path d="
M 60 20 C
100 20
100 20
140 20
" stroke="rgb(25,179,102)" stroke-width="5" fill-opacity="0.0"></path><path d="
M 40 54.64101615137754 C
60 89.28203230275508
60 89.28203230275508
80 123.92304845413263
" stroke="rgb(25,179,102)" stroke-width="5" fill-opacity="0.0"></path><path d="
M 40 54.64101615137754 C
57.32050807568877 84.64101615137754
57.32050807568877 93.92304845413263
40 123.92304845413263
" stroke="rgb(25,179,102)" stroke-width="5" fill-opacity="0.0"></path><path d="
M 140 20 C
174.64101615137756 20
182.67949192431124 24.641016151377542
200 54.64101615137754
" stroke="rgb(25,179,102)" stroke-width="5" fill-opacity="0.0"></path><path d="
M 80 54.64101615137754 C
60 89.28203230275508
60 89.28203230275508
40 123.92304845413263
" stroke="rgb(25,179,102)" stroke-width="5" fill-opacity="0.0"></path><path d="
M 220 20 C
260 20
260 20
300 20
" stroke="rgb(25,179,102)" stroke-width="5" fill-opacity="0.0"></path><path d="
M 200 54.64101615137754 C
220 89.28203230275508
220 89.28203230275508
240 123.92304845413263
" stroke="rgb(25,179,102)" stroke-width="5" fill-opacity="0.0"></path><path d="
M 200 54.64101615137754 C
217.32050807568876 84.64101615137754
217.32050807568876 93.92304845413263
200 123.92304845413263
" stroke="rgb(25,179,102)" stroke-width="5" fill-opacity="0.0"></path><path d="
M 160 54.64101615137754 C
142.67949192431124 84.64101615137754
134.64101615137756 89.28203230275508
100 89.28203230275508
" stroke="rgb(25,179,102)" stroke-width="5" fill-opacity="0.0"></path><path d="
M 160 54.64101615137754 C
142.67949192431124 84.64101615137754
142.67949192431124 93.92304845413263
160 123.92304845413263
" stroke="rgb(25,179,102)" stroke-width="5" fill-opacity="0.0"></path><path d="
M 160 54.64101615137754 C
140 89.28203230275508
140 89.28203230275508
120 123.92304845413263
" stroke="rgb(25,179,102)" stroke-width="5" fill-opacity="0.0"></path><path d="
M 300 20 C
340 20
340 20
380 20
" stroke="rgb(25,179,102)" stroke-width="5" fill-opacity="0.0"></path><path d="
M 280 54.64101615137754 C
297.3205080756888 84.64101615137754
305.3589838486225 89.28203230275508
340 89.28203230275508
" stroke="rgb(25,179,102)" stroke-width="5" fill-opacity="0.0"></path><path d="
M 280 54.64101615137754 C
300 89.28203230275508
300 89.28203230275508
320 123.92304845413263
" stroke="rgb(25,179,102)" stroke-width="5" fill-opacity="0.0"></path><path d="
M 280 54.64101615137754 C
297.3205080756888 84.64101615137754
297.3205080756888 93.92304845413263
280 123.92304845413263
" stroke="rgb(25,179,102)" stroke-width="5" fill-opacity="0.0"></path><path d="
M 240 54.64101615137754 C
222.67949192431124 84.64101615137754
214.64101615137756 89.28203230275508
180 89.28203230275508
" stroke="rgb(25,179,102)" stroke-width="5" fill-opacity="0.0"></path><path d="
M 240 54.64101615137754 C
220 89.28203230275508
220 89.28203230275508
200 123.92304845413263
" stroke="rgb(25,179,102)" stroke-width="5" fill-opacity="0.0"></path><path d="
M 380 20 C
420 20
420 20
460 20
" stroke="rgb(25,179,102)" stroke-width="5" fill-opacity="0.0"></path><path d="
M 380 20 C
414.6410161513775 20
422.6794919243112 24.641016151377542
440 54.64101615137754
" stroke="rgb(25,179,102)" stroke-width="5" fill-opacity="0.0"></path><path d="
M 360 54.64101615137754 C
377.3205080756888 84.64101615137754
385.3589838486225 89.28203230275508
420 89.28203230275508
" stroke="rgb(25,179,102)" stroke-width="5" fill-opacity="0.0"></path><path d="
M 360 54.64101615137754 C
380 89.28203230275508
380 89.28203230275508
400 123.92304845413263
" stroke="rgb(25,179,102)" stroke-width="5" fill-opacity="0.0"></path><path d="
M 320 54.64101615137754 C
302.6794919243112 84.64101615137754
294.6410161513775 89.28203230275508
260 89.28203230275508
" stroke="rgb(25,179,102)" stroke-width="5" fill-opacity="0.0"></path><path d="
M 320 54.64101615137754 C
300 89.28203230275508
300 89.28203230275508
280 123.92304845413263
" stroke="rgb(25,179,102)" stroke-width="5" fill-opacity="0.0"></path><path d="
M 440 54.64101615137754 C
457.3205080756888 84.64101615137754
457.3205080756888 93.92304845413263
440 123.92304845413263
" stroke="rgb(25,179,102)" stroke-width="5" fill-opacity="0.0"></path><path d="
M 400 54.64101615137754 C
382.6794919243112 84.64101615137754
374.6410161513775 89.28203230275508
340 89.28203230275508
" stroke="rgb(25,179,102)" stroke-width="5" fill-opacity="0.0"></path><path d="
M 100 89.28203230275508 C
65.35898384862244 89.28203230275508
57.32050807568878 93.92304845413263
40 123.92304845413263
" stroke="rgb(25,179,102)" stroke-width="5" fill-opacity="0.0"></path><path d="
M 100 89.28203230275508 C
140 89.28203230275508
140 89.28203230275508
180 89.28203230275508
" stroke="rgb(25,179,102)" stroke-width="5" fill-opacity="0.0"></path><path d="
M 100 89.28203230275508 C
134.64101615137756 89.28203230275508
142.67949192431124 93.92304845413263
160 123.92304845413263
" stroke="rgb(25,179,102)" stroke-width="5" fill-opacity="0.0"></path><path d="
M 80 123.92304845413263 C
97.32050807568878 153.92304845413264
105.35898384862244 158.56406460551017
140 158.56406460551017
" stroke="rgb(25,179,102)" stroke-width="5" fill-opacity="0.0"></path><path d="
M 180 89.28203230275508 C
145.35898384862244 89.28203230275508
137.32050807568876 93.92304845413263
120 123.92304845413263
" stroke="rgb(25,179,102)" stroke-width="5" fill-opacity="0.0"></path><path d="
M 180 89.28203230275508 C
214.64101615137756 89.28203230275508
222.67949192431124 93.92304845413263
240 123.92304845413263
" stroke="rgb(25,179,102)" stroke-width="5" fill-opacity="0.0"></path><path d="
M 160 123.92304845413263 C
180 158.56406460551017
180 158.56406460551017
200 193.2050807568877
" stroke="rgb(25,179,102)" stroke-width="5" fill-opacity="0.0"></path><path d="
M 120 123.92304845413263 C
102.67949192431122 153.92304845413264
94.64101615137756 158.56406460551017
60 158.56406460551017
" stroke="rgb(25,179,102)" stroke-width="5" fill-opacity="0.0"></path><path d="
M 120 123.92304845413263 C
102.67949192431124 153.9230484541326
102.67949192431124 163.2050807568877
120 193.2050807568877
" stroke="rgb(25,179,102)" stroke-width="5" fill-opacity="0.0"></path><path d="
M 120 123.92304845413263 C
100 158.56406460551017
100 158.56406460551017
80 193.2050807568877
" stroke="rgb(25,179,102)" stroke-width="5" fill-opacity="0.0"></path><path d="
M 260 89.28203230275508 C
225.35898384862244 89.28203230275508
217.32050807568876 93.92304845413263
200 123.92304845413263
" stroke="rgb(25,179,102)" stroke-width="5" fill-opacity="0.0"></path><path d="
M 260 89.28203230275508 C
300 89.28203230275508
300 89.28203230275508
340 89.28203230275508
" stroke="rgb(25,179,102)" stroke-width="5" fill-opacity="0.0"></path><path d="
M 240 123.92304845413263 C
260 158.56406460551017
260 158.56406460551017
280 193.2050807568877
" stroke="rgb(25,179,102)" stroke-width="5" fill-opacity="0.0"></path><path d="
M 340 89.28203230275508 C
305.3589838486225 89.28203230275508
297.3205080756888 93.92304845413263
280 123.92304845413263
" stroke="rgb(25,179,102)" stroke-width="5" fill-opacity="0.0"></path><path d="
M 340 89.28203230275508 C
380 89.28203230275508
380 89.28203230275508
420 89.28203230275508
" stroke="rgb(25,179,102)" stroke-width="5" fill-opacity="0.0"></path><path d="
M 340 89.28203230275508 C
374.6410161513775 89.28203230275508
382.6794919243112 93.92304845413263
400 123.92304845413263
" stroke="rgb(25,179,102)" stroke-width="5" fill-opacity="0.0"></path><path d="
M 320 123.92304845413263 C
340 158.56406460551017
340 158.56406460551017
360 193.2050807568877
" stroke="rgb(25,179,102)" stroke-width="5" fill-opacity="0.0"></path><path d="
M 280 123.92304845413263 C
262.6794919243112 153.9230484541326
262.6794919243112 163.2050807568877
280 193.2050807568877
" stroke="rgb(25,179,102)" stroke-width="5" fill-opacity="0.0"></path><path d="
M 280 123.92304845413263 C
260 158.56406460551017
260 158.56406460551017
240 193.2050807568877
" stroke="rgb(25,179,102)" stroke-width="5" fill-opacity="0.0"></path><path d="
M 420 89.28203230275508 C
460 89.28203230275508
460 89.28203230275508
500 89.28203230275508
" stroke="rgb(25,179,102)" stroke-width="5" fill-opacity="0.0"></path><path d="
M 400 123.92304845413263 C
417.3205080756888 153.9230484541326
417.3205080756888 163.2050807568877
400 193.2050807568877
" stroke="rgb(25,179,102)" stroke-width="5" fill-opacity="0.0"></path><path d="
M 360 123.92304845413263 C
342.6794919243112 153.92304845413264
334.6410161513775 158.56406460551017
300 158.56406460551017
" stroke="rgb(25,179,102)" stroke-width="5" fill-opacity="0.0"></path><path d="
M 360 123.92304845413263 C
342.6794919243112 153.9230484541326
342.6794919243112 163.2050807568877
360 193.2050807568877
" stroke="rgb(25,179,102)" stroke-width="5" fill-opacity="0.0"></path><path d="
M 360 123.92304845413263 C
340 158.56406460551017
340 158.56406460551017
320 193.2050807568877
" stroke="rgb(25,179,102)" stroke-width="5" fill-opacity="0.0"></path><path d="
M 500 89.28203230275508 C
465.3589838486225 89.28203230275508
457.3205080756888 93.92304845413263
440 123.92304845413263
" stroke="rgb(25,179,102)" stroke-width="5" fill-opacity="0.0"></path><path d="
M 440 123.92304845413263 C
422.6794919243112 153.9230484541326
422.6794919243112 163.2050807568877
440 193.2050807568877
" stroke="rgb(25,179,102)" stroke-width="5" fill-opacity="0.0"></path><path d="
M 440 123.92304845413263 C
420 158.56406460551017
420 158.56406460551017
400 193.2050807568877
" stroke="rgb(25,179,102)" stroke-width="5" fill-opacity="0.0"></path><path d="
M 60 158.56406460551017 C
94.64101615137754 158.56406460551017
102.67949192431124 163.2050807568877
120 193.2050807568877
" stroke="rgb(25,179,102)" stroke-width="5" fill-opacity="0.0"></path><path d="
M 40 193.2050807568877 C
57.32050807568878 223.2050807568877
65.35898384862244 227.84609690826525
100 227.84609690826525
" stroke="rgb(25,179,102)" stroke-width="5" fill-opacity="0.0"></path><path d="
M 40 193.2050807568877 C
57.32050807568878 223.2050807568877
57.32050807568878 232.4871130596428
40 262.4871130596428
" stroke="rgb(25,179,102)" stroke-width="5" fill-opacity="0.0"></path><path d="
M 140 158.56406460551017 C
105.35898384862246 158.56406460551017
97.32050807568876 163.2050807568877
80 193.2050807568877
" stroke="rgb(25,179,102)" stroke-width="5" fill-opacity="0.0"></path><path d="
M 120 193.2050807568877 C
140 227.84609690826525
140 227.84609690826525
160 262.4871130596428
" stroke="rgb(25,179,102)" stroke-width="5" fill-opacity="0.0"></path><path d="
M 80 193.2050807568877 C
60 227.84609690826525
60 227.84609690826525
40 262.4871130596428
" stroke="rgb(25,179,102)" stroke-width="5" fill-opacity="0.0"></path><path d="
M 220 158.56406460551017 C
260 158.56406460551017
260 158.56406460551017
300 158.56406460551017
" stroke="rgb(25,179,102)" stroke-width="5" fill-opacity="0.0"></path><path d="
M 220 158.56406460551017 C
254.64101615137753 158.56406460551017
262.6794919243112 163.2050807568877
280 193.2050807568877
" stroke="rgb(25,179,102)" stroke-width="5" fill-opacity="0.0"></path><path d="
M 200 193.2050807568877 C
217.32050807568876 223.2050807568877
225.35898384862244 227.84609690826525
260 227.84609690826525
" stroke="rgb(25,179,102)" stroke-width="5" fill-opacity="0.0"></path><path d="
M 160 193.2050807568877 C
142.67949192431124 223.2050807568877
134.64101615137756 227.84609690826525
100 227.84609690826525
" stroke="rgb(25,179,102)" stroke-width="5" fill-opacity="0.0"></path><path d="
M 160 193.2050807568877 C
140 227.84609690826525
140 227.84609690826525
120 262.4871130596428
" stroke="rgb(25,179,102)" stroke-width="5" fill-opacity="0.0"></path><path d="
M 300 158.56406460551017 C
340 158.56406460551017
340 158.56406460551017
380 158.56406460551017
" stroke="rgb(25,179,102)" stroke-width="5" fill-opacity="0.0"></path><path d="
M 300 158.56406460551017 C
334.6410161513775 158.56406460551017
342.6794919243112 163.2050807568877
360 193.2050807568877
" stroke="rgb(25,179,102)" stroke-width="5" fill-opacity="0.0"></path><path d="
M 280 193.2050807568877 C
297.3205080756888 223.2050807568877
305.3589838486225 227.84609690826525
340 227.84609690826525
" stroke="rgb(25,179,102)" stroke-width="5" fill-opacity="0.0"></path><path d="
M 280 193.2050807568877 C
297.3205080756888 223.2050807568877
297.3205080756888 232.4871130596428
280 262.4871130596428
" stroke="rgb(25,179,102)" stroke-width="5" fill-opacity="0.0"></path><path d="
M 240 193.2050807568877 C
222.67949192431124 223.2050807568877
214.64101615137756 227.84609690826525
180 227.84609690826525
" stroke="rgb(25,179,102)" stroke-width="5" fill-opacity="0.0"></path><path d="
M 380 158.56406460551017 C
345.3589838486225 158.56406460551017
337.3205080756888 163.2050807568877
320 193.2050807568877
" stroke="rgb(25,179,102)" stroke-width="5" fill-opacity="0.0"></path><path d="
M 360 193.2050807568877 C
377.3205080756888 223.2050807568877
385.3589838486225 227.84609690826525
420 227.84609690826525
" stroke="rgb(25,179,102)" stroke-width="5" fill-opacity="0.0"></path><path d="
M 360 193.2050807568877 C
377.3205080756888 223.2050807568877
377.3205080756888 232.4871130596428
360 262.4871130596428
" stroke="rgb(25,179,102)" stroke-width="5" fill-opacity="0.0"></path><path d="
M 440 193.2050807568877 C
457.3205080756888 223.2050807568877
465.3589838486225 227.84609690826525
500 227.84609690826525
" stroke="rgb(25,179,102)" stroke-width="5" fill-opacity="0.0"></path><path d="
M 400 193.2050807568877 C
382.6794919243112 223.2050807568877
374.6410161513775 227.84609690826525
340 227.84609690826525
" stroke="rgb(25,179,102)" stroke-width="5" fill-opacity="0.0"></path><path d="
M 80 262.4871130596428 C
97.32050807568876 292.4871130596428
105.35898384862246 297.12812921102034
140 297.12812921102034
" stroke="rgb(25,179,102)" stroke-width="5" fill-opacity="0.0"></path><path d="
M 80 262.4871130596428 C
100 297.12812921102034
100 297.12812921102034
120 331.76914536239786
" stroke="rgb(25,179,102)" stroke-width="5" fill-opacity="0.0"></path><path d="
M 80 262.4871130596428 C
97.32050807568876 292.4871130596428
97.32050807568876 301.76914536239786
80 331.76914536239786
" stroke="rgb(25,179,102)" stroke-width="5" fill-opacity="0.0"></path><path d="
M 40 262.4871130596428 C
22.679491924311236 292.4871130596428
22.679491924311236 301.76914536239786
40 331.76914536239786
" stroke="rgb(25,179,102)" stroke-width="5" fill-opacity="0.0"></path><path d="
M 180 227.84609690826525 C
145.35898384862244 227.84609690826525
137.32050807568876 232.4871130596428
120 262.4871130596428
" stroke="rgb(25,179,102)" stroke-width="5" fill-opacity="0.0"></path><path d="
M 180 227.84609690826525 C
214.64101615137756 227.84609690826525
222.67949192431124 232.4871130596428
240 262.4871130596428
" stroke="rgb(25,179,102)" stroke-width="5" fill-opacity="0.0"></path><path d="
M 160 262.4871130596428 C
177.32050807568876 292.4871130596428
185.35898384862247 297.12812921102034
220 297.12812921102034
" stroke="rgb(25,179,102)" stroke-width="5" fill-opacity="0.0"></path><path d="
M 120 262.4871130596428 C
102.67949192431124 292.4871130596428
94.64101615137754 297.12812921102034
60 297.12812921102034
" stroke="rgb(25,179,102)" stroke-width="5" fill-opacity="0.0"></path><path d="
M 260 227.84609690826525 C
300 227.84609690826525
300 227.84609690826525
340 227.84609690826525
" stroke="rgb(25,179,102)" stroke-width="5" fill-opacity="0.0"></path><path d="
M 260 227.84609690826525 C
294.6410161513775 227.84609690826525
302.6794919243112 232.4871130596428
320 262.4871130596428
" stroke="rgb(25,179,102)" stroke-width="5" fill-opacity="0.0"></path><path d="
M 240 262.4871130596428 C
257.32050807568874 292.4871130596428
257.32050807568874 301.76914536239786
240 331.76914536239786
" stroke="rgb(25,179,102)" stroke-width="5" fill-opacity="0.0"></path><path d="
M 340 227.84609690826525 C
374.6410161513775 227.84609690826525
382.6794919243112 232.4871130596428
400 262.4871130596428
" stroke="rgb(25,179,102)" stroke-width="5" fill-opacity="0.0"></path><path d="
M 320 262.4871130596428 C
340 297.12812921102034
340 297.12812921102034
360 331.76914536239786
" stroke="rgb(25,179,102)" stroke-width="5" fill-opacity="0.0"></path><path d="
M 280 262.4871130596428 C
262.6794919243112 292.4871130596428
254.64101615137753 297.12812921102034
220 297.12812921102034
" stroke="rgb(25,179,102)" stroke-width="5" fill-opacity="0.0"></path><path d="
M 420 227.84609690826525 C
385.3589838486225 227.84609690826525
377.3205080756888 232.4871130596428
360 262.4871130596428
" stroke="rgb(25,179,102)" stroke-width="5" fill-opacity="0.0"></path><path d="
M 420 227.84609690826525 C
460 227.84609690826525
460 227.84609690826525
500 227.84609690826525
" stroke="rgb(25,179,102)" stroke-width="5" fill-opacity="0.0"></path><path d="
M 400 262.4871130596428 C
420 297.12812921102034
420 297.12812921102034
440 331.76914536239786
" stroke="rgb(25,179,102)" stroke-width="5" fill-opacity="0.0"></path><path d="
M 400 262.4871130596428 C
417.32050807568874 292.4871130596428
417.32050807568874 301.76914536239786
400 331.76914536239786
" stroke="rgb(25,179,102)" stroke-width="5" fill-opacity="0.0"></path><path d="
M 500 227.84609690826525 C
465.3589838486225 227.84609690826525
457.3205080756888 232.4871130596428
440 262.4871130596428
" stroke="rgb(25,179,102)" stroke-width="5" fill-opacity="0.0"></path><path d="
M 440 262.4871130596428 C
422.67949192431126 292.4871130596428
422.67949192431126 301.76914536239786
440 331.76914536239786
" stroke="rgb(25,179,102)" stroke-width="5" fill-opacity="0.0"></path><path d="
M 60 297.12812921102034 C
94.64101615137754 297.12812921102034
102.67949192431124 301.76914536239786
120 331.76914536239786
" stroke="rgb(25,179,102)" stroke-width="5" fill-opacity="0.0"></path><path d="
M 40 331.76914536239786 C
57.32050807568877 361.76914536239786
65.35898384862246 366.4101615137754
100 366.4101615137754
" stroke="rgb(25,179,102)" stroke-width="5" fill-opacity="0.0"></path><path d="
M 40 331.76914536239786 C
59.99999999999999 366.4101615137754
60.00000000000001 366.4101615137754
80 401.0511776651529
" stroke="rgb(25,179,102)" stroke-width="5" fill-opacity="0.0"></path><path d="
M 40 331.76914536239786 C
57.320508075688764 361.76914536239786
57.320508075688764 371.0511776651529
40 401.0511776651529
" stroke="rgb(25,179,102)" stroke-width="5" fill-opacity="0.0"></path><path d="
M 140 297.12812921102034 C
105.35898384862246 297.12812921102034
97.32050807568876 301.76914536239786
80 331.76914536239786
" stroke="rgb(25,179,102)" stroke-width="5" fill-opacity="0.0"></path><path d="
M 140 297.12812921102034 C
180 297.12812921102034
180 297.12812921102034
220 297.12812921102034
" stroke="rgb(25,179,102)" stroke-width="5" fill-opacity="0.0"></path><path d="
M 140 297.12812921102034 C
174.64101615137753 297.12812921102034
182.67949192431124 301.76914536239786
200 331.76914536239786
" stroke="rgb(25,179,102)" stroke-width="5" fill-opacity="0.0"></path><path d="
M 120 331.76914536239786 C
137.32050807568876 361.76914536239786
137.32050807568876 371.0511776651529
120 401.0511776651529
" stroke="rgb(25,179,102)" stroke-width="5" fill-opacity="0.0"></path><path d="
M 80 331.76914536239786 C
62.679491924311236 361.76914536239786
62.679491924311236 371.0511776651529
80 401.0511776651529
" stroke="rgb(25,179,102)" stroke-width="5" fill-opacity="0.0"></path><path d="
M 220 297.12812921102034 C
185.35898384862247 297.12812921102034
177.32050807568876 301.76914536239786
160 331.76914536239786
" stroke="rgb(25,179,102)" stroke-width="5" fill-opacity="0.0"></path><path d="
M 220 297.12812921102034 C
260 297.12812921102034
260 297.12812921102034
300 297.12812921102034
" stroke="rgb(25,179,102)" stroke-width="5" fill-opacity="0.0"></path><path d="
M 200 331.76914536239786 C
220 366.4101615137754
220 366.4101615137754
240 401.0511776651529
" stroke="rgb(25,179,102)" stroke-width="5" fill-opacity="0.0"></path><path d="
M 200 331.76914536239786 C
217.32050807568876 361.76914536239786
217.32050807568876 371.0511776651529
200 401.0511776651529
" stroke="rgb(25,179,102)" stroke-width="5" fill-opacity="0.0"></path><path d="
M 160 331.76914536239786 C
142.67949192431124 361.76914536239786
142.67949192431124 371.0511776651529
160 401.0511776651529
" stroke="rgb(25,179,102)" stroke-width="5" fill-opacity="0.0"></path><path d="
M 300 297.12812921102034 C
265.3589838486225 297.12812921102034
257.3205080756888 301.76914536239786
240 331.76914536239786
" stroke="rgb(25,179,102)" stroke-width="5" fill-opacity="0.0"></path><path d="
M 280 331.76914536239786 C
297.32050807568874 361.76914536239786
297.32050807568874 371.0511776651529
280 401.0511776651529
" stroke="rgb(25,179,102)" stroke-width="5" fill-opacity="0.0"></path><path d="
M 240 331.76914536239786 C
222.67949192431124 361.76914536239786
214.64101615137753 366.4101615137754
180 366.4101615137754
" stroke="rgb(25,179,102)" stroke-width="5" fill-opacity="0.0"></path><path d="
M 240 331.76914536239786 C
222.67949192431124 361.76914536239786
222.67949192431124 371.0511776651529
240 401.0511776651529
" stroke="rgb(25,179,102)" stroke-width="5" fill-opacity="0.0"></path><path d="
M 380 297.12812921102034 C
345.3589838486225 297.12812921102034
337.3205080756888 301.76914536239786
320 331.76914536239786
" stroke="rgb(25,179,102)" stroke-width="5" fill-opacity="0.0"></path><path d="
M 380 297.12812921102034 C
414.6410161513775 297.12812921102034
422.6794919243112 301.76914536239786
440 331.76914536239786
" stroke="rgb(25,179,102)" stroke-width="5" fill-opacity="0.0"></path><path d="
M 360 331.76914536239786 C
377.3205080756888 361.76914536239786
385.3589838486225 366.4101615137754
420 366.4101615137754
" stroke="rgb(25,179,102)" stroke-width="5" fill-opacity="0.0"></path><path d="
M 360 331.76914536239786 C
380 366.4101615137754
380 366.4101615137754
400 401.0511776651529
" stroke="rgb(25,179,102)" stroke-width="5" fill-opacity="0.0"></path><path d="
M 360 331.76914536239786 C
377.32050807568874 361.76914536239786
377.32050807568874 371.0511776651529
360 401.0511776651529
" stroke="rgb(25,179,102)" stroke-width="5" fill-opacity="0.0"></path><path d="
M 320 331.76914536239786 C
302.67949192431126 361.76914536239786
302.67949192431126 371.0511776651529
320 401.0511776651529
" stroke="rgb(25,179,102)" stroke-width="5" fill-opacity="0.0"></path><path d="
M 320 331.76914536239786 C
300 366.4101615137754
300 366.4101615137754
280 401.0511776651529
" stroke="rgb(25,179,102)" stroke-width="5" fill-opacity="0.0"></path><path d="
M 440 331.76914536239786 C
457.3205080756888 361.76914536239786
465.3589838486225 366.4101615137754
500 366.4101615137754
" stroke="rgb(25,179,102)" stroke-width="5" fill-opacity="0.0"></path><path d="
M 440 331.76914536239786 C
460 366.4101615137754
460 366.4101615137754
480 401.0511776651529
" stroke="rgb(25,179,102)" stroke-width="5" fill-opacity="0.0"></path><path d="
M 400 331.76914536239786 C
382.67949192431126 361.76914536239786
382.67949192431126 371.0511776651529
400 401.0511776651529
" stroke="rgb(25,179,102)" stroke-width="5" fill-opacity="0.0"></path><path d="
M 100 366.4101615137754 C
140 366.4101615137754
140 366.4101615137754
180 366.4101615137754
" stroke="rgb(25,179,102)" stroke-width="5" fill-opacity="0.0"></path><path d="
M 80 401.0511776651529 C
97.32050807568876 431.0511776651529
105.35898384862246 435.69219381653045
140 435.69219381653045
" stroke="rgb(25,179,102)" stroke-width="5" fill-opacity="0.0"></path><path d="
M 80 401.0511776651529 C
100 435.69219381653045
100 435.69219381653045
120 470.333209967908
" stroke="rgb(25,179,102)" stroke-width="5" fill-opacity="0.0"></path><path d="
M 40 401.0511776651529 C
22.679491924311236 431.0511776651529
22.679491924311236 440.333209967908
40 470.333209967908
" stroke="rgb(25,179,102)" stroke-width="5" fill-opacity="0.0"></path><path d="
M 40 401.0511776651529 C
20.000000000000007 435.69219381653045
19.999999999999993 435.69219381653045
0 470.333209967908
" stroke="rgb(25,179,102)" stroke-width="5" fill-opacity="0.0"></path><path d="
M 160 401.0511776651529 C
177.32050807568876 431.0511776651529
185.35898384862247 435.69219381653045
220 435.69219381653045
" stroke="rgb(25,179,102)" stroke-width="5" fill-opacity="0.0"></path><path d="
M 120 401.0511776651529 C
102.67949192431124 431.0511776651529
94.64101615137754 435.69219381653045
60 435.69219381653045
" stroke="rgb(25,179,102)" stroke-width="5" fill-opacity="0.0"></path><path d="
M 260 366.4101615137754 C
300 366.4101615137754
300 366.4101615137754
340 366.4101615137754
" stroke="rgb(25,179,102)" stroke-width="5" fill-opacity="0.0"></path><path d="
M 240 401.0511776651529 C
257.3205080756888 431.0511776651529
265.3589838486225 435.69219381653045
300 435.69219381653045
" stroke="rgb(25,179,102)" stroke-width="5" fill-opacity="0.0"></path><path d="
M 240 401.0511776651529 C
257.32050807568874 431.0511776651529
257.32050807568874 440.333209967908
240 470.333209967908
" stroke="rgb(25,179,102)" stroke-width="5" fill-opacity="0.0"></path><path d="
M 200 401.0511776651529 C
182.67949192431124 431.0511776651529
182.67949192431124 440.333209967908
200 470.333209967908
" stroke="rgb(25,179,102)" stroke-width="5" fill-opacity="0.0"></path><path d="
M 340 366.4101615137754 C
380 366.4101615137754
380 366.4101615137754
420 366.4101615137754
" stroke="rgb(25,179,102)" stroke-width="5" fill-opacity="0.0"></path><path d="
M 320 401.0511776651529 C
337.3205080756888 431.0511776651529
345.3589838486225 435.69219381653045
380 435.69219381653045
" stroke="rgb(25,179,102)" stroke-width="5" fill-opacity="0.0"></path><path d="
M 280 401.0511776651529 C
262.6794919243112 431.0511776651529
254.64101615137753 435.69219381653045
220 435.69219381653045
" stroke="rgb(25,179,102)" stroke-width="5" fill-opacity="0.0"></path><path d="
M 280 401.0511776651529 C
262.67949192431126 431.0511776651529
262.67949192431126 440.333209967908
280 470.333209967908
" stroke="rgb(25,179,102)" stroke-width="5" fill-opacity="0.0"></path><path d="
M 420 366.4101615137754 C
454.6410161513775 366.4101615137754
462.6794919243112 371.0511776651529
480 401.0511776651529
" stroke="rgb(25,179,102)" stroke-width="5" fill-opacity="0.0"></path><path d="
M 400 401.0511776651529 C
420 435.69219381653045
420 435.69219381653045
440 470.333209967908
" stroke="rgb(25,179,102)" stroke-width="5" fill-opacity="0.0"></path><path d="
M 360 401.0511776651529 C
340 435.69219381653045
340 435.69219381653045
320 470.333209967908
" stroke="rgb(25,179,102)" stroke-width="5" fill-opacity="0.0"></path><path d="
M 440 401.0511776651529 C
422.67949192431126 431.0511776651529
422.67949192431126 440.333209967908
440 470.333209967908
" stroke="rgb(25,179,102)" stroke-width="5" fill-opacity="0.0"></path><path d="
M 140 435.69219381653045 C
105.35898384862246 435.69219381653045
97.32050807568876 440.333209967908
80 470.333209967908
" stroke="rgb(25,179,102)" stroke-width="5" fill-opacity="0.0"></path><path d="
M 220 435.69219381653045 C
185.35898384862247 435.69219381653045
177.32050807568876 440.333209967908
160 470.333209967908
" stroke="rgb(25,179,102)" stroke-width="5" fill-opacity="0.0"></path><path d="
M 220 435.69219381653045 C
260 435.69219381653045
260 435.69219381653045
300 435.69219381653045
" stroke="rgb(25,179,102)" stroke-width="5" fill-opacity="0.0"></path><path d="
M 220 435.69219381653045 C
254.64101615137753 435.69219381653045
262.6794919243112 440.333209967908
280 470.333209967908
" stroke="rgb(25,179,102)" stroke-width="5" fill-opacity="0.0"></path><path d="
M 300 435.69219381653045 C
340 435.69219381653045
340 435.69219381653045
380 435.69219381653045
" stroke="rgb(25,179,102)" stroke-width="5" fill-opacity="0.0"></path><path d="
M 300 435.69219381653045 C
334.6410161513775 435.69219381653045
342.6794919243112 440.333209967908
360 470.333209967908
" stroke="rgb(25,179,102)" stroke-width="5" fill-opacity="0.0"></path><path d="
M 380 435.69219381653045 C
420 435.69219381653045
420 435.69219381653045
460 435.69219381653045
" stroke="rgb(25,179,102)" stroke-width="5" fill-opacity="0.0"></path><path d="
M 460 435.69219381653045 C
425.3589838486225 435.69219381653045
417.3205080756888 440.333209967908
400 470.333209967908
" stroke="rgb(25,179,102)" stroke-width="5" fill-opacity="0.0"></path><line x1="63" y1="20" x2="57" y2="20" stroke="#808" stroke-width="2"></line><line x1="41.5" y1="57.23909236273086" x2="38.5" y2="52.042939940024226" stroke="#808" stroke-width="2"></line><line x1="-1.5" y1="57.23909236273086" x2="1.5" y2="52.042939940024226" stroke="#808" stroke-width="2"></line><line x1="143" y1="20" x2="137" y2="20" stroke="#808" stroke-width="2"></line><line x1="121.5" y1="57.23909236273086" x2="118.5" y2="52.042939940024226" stroke="#808" stroke-width="2"></line><line x1="78.5" y1="57.23909236273086" x2="81.5" y2="52.042939940024226" stroke="#808" stroke-width="2"></line><line x1="223" y1="20" x2="217" y2="20" stroke="#808" stroke-width="2"></line><line x1="201.5" y1="57.23909236273086" x2="198.5" y2="52.042939940024226" stroke="#808" stroke-width="2"></line><line x1="158.5" y1="57.23909236273086" x2="161.5" y2="52.042939940024226" stroke="#808" stroke-width="2"></line><line x1="303" y1="20" x2="297" y2="20" stroke="#808" stroke-width="2"></line><line x1="281.5" y1="57.23909236273086" x2="278.5" y2="52.042939940024226" stroke="#808" stroke-width="2"></line><line x1="238.5" y1="57.23909236273086" x2="241.5" y2="52.042939940024226" stroke="#808" stroke-width="2"></line><line x1="383" y1="20" x2="377" y2="20" stroke="#808" stroke-width="2"></line><line x1="361.5" y1="57.23909236273086" x2="358.5" y2="52.042939940024226" stroke="#808" stroke-width="2"></line><line x1="318.5" y1="57.23909236273086" x2="321.5" y2="52.042939940024226" stroke="#808" stroke-width="2"></line><line x1="463" y1="20" x2="457" y2="20" stroke="#808" stroke-width="2"></line><line x1="441.5" y1="57.23909236273086" x2="438.5" y2="52.042939940024226" stroke="#808" stroke-width="2"></line><line x1="398.5" y1="57.23909236273086" x2="401.5" y2="52.042939940024226" stroke="#808" stroke-width="2"></line><line x1="103" y1="89.28203230275508" x2="97" y2="89.28203230275508" stroke="#808" stroke-width="2"></line><line x1="81.5" y1="126.52112466548594" x2="78.5" y2="121.32497224277931" stroke="#808" stroke-width="2"></line><line x1="38.5" y1="126.52112466548594" x2="41.5" y2="121.32497224277931" stroke="#808" stroke-width="2"></line><line x1="183" y1="89.28203230275508" x2="177" y2="89.28203230275508" stroke="#808" stroke-width="2"></line><line x1="161.5" y1="126.52112466548594" x2="158.5" y2="121.32497224277931" stroke="#808" stroke-width="2"></line><line x1="118.5" y1="126.52112466548594" x2="121.5" y2="121.32497224277931" stroke="#808" stroke-width="2"></line><line x1="263" y1="89.28203230275508" x2="257" y2="89.28203230275508" stroke="#808" stroke-width="2"></line><line x1="241.5" y1="126.52112466548594" x2="238.5" y2="121.32497224277931" stroke="#808" stroke-width="2"></line><line x1="198.5" y1="126.52112466548594" x2="201.5" y2="121.32497224277931" stroke="#808" stroke-width="2"></line><line x1="343" y1="89.28203230275508" x2="337" y2="89.28203230275508" stroke="#808" stroke-width="2"></line><line x1="321.5" y1="126.52112466548594" x2="318.5" y2="121.32497224277931" stroke="#808" stroke-width="2"></line><line x1="278.5" y1="126.52112466548594" x2="281.5" y2="121.32497224277931" stroke="#808" stroke-width="2"></line><line x1="423" y1="89.28203230275508" x2="417" y2="89.28203230275508" stroke="#808" stroke-width="2"></line><line x1="401.5" y1="126.52112466548594" x2="398.5" y2="121.32497224277931" stroke="#808" stroke-width="2"></line><line x1="358.5" y1="126.52112466548594" x2="361.5" y2="121.32497224277931" stroke="#808" stroke-width="2"></line><line x1="503" y1="89.28203230275508" x2="497" y2="89.28203230275508" stroke="#808" stroke-width="2"></line><line x1="481.5" y1="126.52112466548594" x2="478.5" y2="121.32497224277931" stroke="#808" stroke-width="2"></line><line x1="438.5" y1="126.52112466548594" x2="441.5" y2="121.32497224277931" stroke="#808" stroke-width="2"></line><line x1="63" y1="158.56406460551017" x2="57" y2="158.56406460551017" stroke="#808" stroke-width="2"></line><line x1="41.5" y1="195.803156968241" x2="38.5" y2="190.60700454553438" stroke="#808" stroke-width="2"></line><line x1="-1.5" y1="195.803156968241" x2="1.5" y2="190.60700454553438" stroke="#808" stroke-width="2"></line><line x1="143" y1="158.56406460551017" x2="137" y2="158.56406460551017" stroke="#808" stroke-width="2"></line><line x1="121.5" y1="195.803156968241" x2="118.5" y2="190.60700454553438" stroke="#808" stroke-width="2"></line><line x1="78.5" y1="195.803156968241" x2="81.5" y2="190.60700454553438" stroke="#808" stroke-width="2"></line><line x1="223" y1="158.56406460551017" x2="217" y2="158.56406460551017" stroke="#808" stroke-width="2"></line><line x1="201.5" y1="195.803156968241" x2="198.5" y2="190.60700454553438" stroke="#808" stroke-width="2"></line><line x1="158.5" y1="195.803156968241" x2="161.5" y2="190.60700454553438" stroke="#808" stroke-width="2"></line><line x1="303" y1="158.56406460551017" x2="297" y2="158.56406460551017" stroke="#808" stroke-width="2"></line><line x1="281.5" y1="195.803156968241" x2="278.5" y2="190.60700454553438" stroke="#808" stroke-width="2"></line><line x1="238.5" y1="195.803156968241" x2="241.5" y2="190.60700454553438" stroke="#808" stroke-width="2"></line><line x1="383" y1="158.56406460551017" x2="377" y2="158.56406460551017" stroke="#808" stroke-width="2"></line><line x1="361.5" y1="195.803156968241" x2="358.5" y2="190.60700454553438" stroke="#808" stroke-width="2"></line><line x1="318.5" y1="195.803156968241" x2="321.5" y2="190.60700454553438" stroke="#808" stroke-width="2"></line><line x1="463" y1="158.56406460551017" x2="457" y2="158.56406460551017" stroke="#808" stroke-width="2"></line><line x1="441.5" y1="195.803156968241" x2="438.5" y2="190.60700454553438" stroke="#808" stroke-width="2"></line><line x1="398.5" y1="195.803156968241" x2="401.5" y2="190.60700454553438" stroke="#808" stroke-width="2"></line><line x1="103" y1="227.84609690826525" x2="97" y2="227.84609690826525" stroke="#808" stroke-width="2"></line><line x1="81.5" y1="265.0851892709961" x2="78.5" y2="259.8890368482895" stroke="#808" stroke-width="2"></line><line x1="38.5" y1="265.0851892709961" x2="41.5" y2="259.8890368482895" stroke="#808" stroke-width="2"></line><line x1="183" y1="227.84609690826525" x2="177" y2="227.84609690826525" stroke="#808" stroke-width="2"></line><line x1="161.5" y1="265.0851892709961" x2="158.5" y2="259.8890368482895" stroke="#808" stroke-width="2"></line><line x1="118.5" y1="265.0851892709961" x2="121.5" y2="259.8890368482895" stroke="#808" stroke-width="2"></line><line x1="263" y1="227.84609690826525" x2="257" y2="227.84609690826525" stroke="#808" stroke-width="2"></line><line x1="241.5" y1="265.0851892709961" x2="238.5" y2="259.8890368482895" stroke="#808" stroke-width="2"></line><line x1="198.5" y1="265.0851892709961" x2="201.5" y2="259.8890368482895" stroke="#808" stroke-width="2"></line><line x1="343" y1="227.84609690826525" x2="337" y2="227.84609690826525" stroke="#808" stroke-width="2"></line><line x1="321.5" y1="265.0851892709961" x2="318.5" y2="259.8890368482895" stroke="#808" stroke-width="2"></line><line x1="278.5" y1="265.0851892709961" x2="281.5" y2="259.8890368482895" stroke="#808" stroke-width="2"></line><line x1="423" y1="227.84609690826525" x2="417" y2="227.84609690826525" stroke="#808" stroke-width="2"></line><line x1="401.5" y1="265.0851892709961" x2="398.5" y2="259.8890368482895" stroke="#808" stroke-width="2"></line><line x1="358.5" y1="265.0851892709961" x2="361.5" y2="259.8890368482895" stroke="#808" stroke-width="2"></line><line x1="503" y1="227.84609690826525" x2="497" y2="227.84609690826525" stroke="#808" stroke-width="2"></line><line x1="481.5" y1="265.0851892709961" x2="478.5" y2="259.8890368482895" stroke="#808" stroke-width="2"></line><line x1="438.5" y1="265.0851892709961" x2="441.5" y2="259.8890368482895" stroke="#808" stroke-width="2"></line><line x1="63" y1="297.12812921102034" x2="57" y2="297.12812921102034" stroke="#808" stroke-width="2"></line><line x1="41.5" y1="334.3672215737512" x2="38.5" y2="329.17106915104455" stroke="#808" stroke-width="2"></line><line x1="-1.5" y1="334.3672215737512" x2="1.5" y2="329.17106915104455" stroke="#808" stroke-width="2"></line><line x1="143" y1="297.12812921102034" x2="137" y2="297.12812921102034" stroke="#808" stroke-width="2"></line><line x1="121.5" y1="334.3672215737512" x2="118.5" y2="329.17106915104455" stroke="#808" stroke-width="2"></line><line x1="78.5" y1="334.3672215737512" x2="81.5" y2="329.17106915104455" stroke="#808" stroke-width="2"></line><line x1="223" y1="297.12812921102034" x2="217" y2="297.12812921102034" stroke="#808" stroke-width="2"></line><line x1="201.5" y1="334.3672215737512" x2="198.5" y2="329.17106915104455" stroke="#808" stroke-width="2"></line><line x1="158.5" y1="334.3672215737512" x2="161.5" y2="329.17106915104455" stroke="#808" stroke-width="2"></line><line x1="303" y1="297.12812921102034" x2="297" y2="297.12812921102034" stroke="#808" stroke-width="2"></line><line x1="281.5" y1="334.3672215737512" x2="278.5" y2="329.17106915104455" stroke="#808" stroke-width="2"></line><line x1="238.5" y1="334.3672215737512" x2="241.5" y2="329.17106915104455" stroke="#808" stroke-width="2"></line><line x1="383" y1="297.12812921102034" x2="377" y2="297.12812921102034" stroke="#808" stroke-width="2"></line><line x1="361.5" y1="334.3672215737512" x2="358.5" y2="329.17106915104455" stroke="#808" stroke-width="2"></line><line x1="318.5" y1="334.3672215737512" x2="321.5" y2="329.17106915104455" stroke="#808" stroke-width="2"></line><line x1="463" y1="297.12812921102034" x2="457" y2="297.12812921102034" stroke="#808" stroke-width="2"></line><line x1="441.5" y1="334.3672215737512" x2="438.5" y2="329.17106915104455" stroke="#808" stroke-width="2"></line><line x1="398.5" y1="334.3672215737512" x2="401.5" y2="329.17106915104455" stroke="#808" stroke-width="2"></line><line x1="103" y1="366.4101615137754" x2="97" y2="366.4101615137754" stroke="#808" stroke-width="2"></line><line x1="81.5" y1="403.64925387650624" x2="78.5" y2="398.4531014537996" stroke="#808" stroke-width="2"></line><line x1="38.5" y1="403.64925387650624" x2="41.5" y2="398.4531014537996" stroke="#808" stroke-width="2"></line><line x1="183" y1="366.4101615137754" x2="177" y2="366.4101615137754" stroke="#808" stroke-width="2"></line><line x1="161.5" y1="403.64925387650624" x2="158.5" y2="398.4531014537996" stroke="#808" stroke-width="2"></line><line x1="118.5" y1="403.64925387650624" x2="121.5" y2="398.4531014537996" stroke="#808" stroke-width="2"></line><line x1="263" y1="366.4101615137754" x2="257" y2="366.4101615137754" stroke="#808" stroke-width="2"></line><line x1="241.5" y1="403.64925387650624" x2="238.5" y2="398.4531014537996" stroke="#808" stroke-width="2"></line><line x1="198.5" y1="403.64925387650624" x2="201.5" y2="398.4531014537996" stroke="#808" stroke-width="2"></line><line x1="343" y1="366.4101615137754" x2="337" y2="366.4101615137754" stroke="#808" stroke-width="2"></line><line x1="321.5" y1="403.64925387650624" x2="318.5" y2="398.4531014537996" stroke="#808" stroke-width="2"></line><line x1="278.5" y1="403.64925387650624" x2="281.5" y2="398.4531014537996" stroke="#808" stroke-width="2"></line><line x1="423" y1="366.4101615137754" x2="417" y2="366.4101615137754" stroke="#808" stroke-width="2"></line><line x1="401.5" y1="403.64925387650624" x2="398.5" y2="398.4531014537996" stroke="#808" stroke-width="2"></line><line x1="358.5" y1="403.64925387650624" x2="361.5" y2="398.4531014537996" stroke="#808" stroke-width="2"></line><line x1="503" y1="366.4101615137754" x2="497" y2="366.4101615137754" stroke="#808" stroke-width="2"></line><line x1="481.5" y1="403.64925387650624" x2="478.5" y2="398.4531014537996" stroke="#808" stroke-width="2"></line><line x1="438.5" y1="403.64925387650624" x2="441.5" y2="398.4531014537996" stroke="#808" stroke-width="2"></line><line x1="63" y1="435.69219381653045" x2="57" y2="435.69219381653045" stroke="#808" stroke-width="2"></line><line x1="41.5" y1="472.9312861792613" x2="38.5" y2="467.73513375655466" stroke="#808" stroke-width="2"></line><line x1="-1.5" y1="472.9312861792613" x2="1.5" y2="467.73513375655466" stroke="#808" stroke-width="2"></line><line x1="143" y1="435.69219381653045" x2="137" y2="435.69219381653045" stroke="#808" stroke-width="2"></line><line x1="121.5" y1="472.9312861792613" x2="118.5" y2="467.73513375655466" stroke="#808" stroke-width="2"></line><line x1="78.5" y1="472.9312861792613" x2="81.5" y2="467.73513375655466" stroke="#808" stroke-width="2"></line><line x1="223" y1="435.69219381653045" x2="217" y2="435.69219381653045" stroke="#808" stroke-width="2"></line><line x1="201.5" y1="472.9312861792613" x2="198.5" y2="467.73513375655466" stroke="#808" stroke-width="2"></line><line x1="158.5" y1="472.9312861792613" x2="161.5" y2="467.73513375655466" stroke="#808" stroke-width="2"></line><line x1="303" y1="435.69219381653045" x2="297" y2="435.69219381653045" stroke="#808" stroke-width="2"></line><line x1="281.5" y1="472.9312861792613" x2="278.5" y2="467.73513375655466" stroke="#808" stroke-width="2"></line><line x1="238.5" y1="472.9312861792613" x2="241.5" y2="467.73513375655466" stroke="#808" stroke-width="2"></line><line x1="383" y1="435.69219381653045" x2="377" y2="435.69219381653045" stroke="#808" stroke-width="2"></line><line x1="361.5" y1="472.9312861792613" x2="358.5" y2="467.73513375655466" stroke="#808" stroke-width="2"></line><line x1="318.5" y1="472.9312861792613" x2="321.5" y2="467.73513375655466" stroke="#808" stroke-width="2"></line><line x1="463" y1="435.69219381653045" x2="457" y2="435.69219381653045" stroke="#808" stroke-width="2"></line><line x1="441.5" y1="472.9312861792613" x2="438.5" y2="467.73513375655466" stroke="#808" stroke-width="2"></line><line x1="398.5" y1="472.9312861792613" x2="401.5" y2="467.73513375655466" stroke="#808" stroke-width="2"></line></svg>
