<svg viewBox="15 15 458 458" xmlns="http://www.w3.org/2000/svg" version="1.1"><path d="
M 20 20 C
20 65.25483399593904
129.25483399593904 84
84 84
" stroke="rgb(25,0,102)" stroke-width="5" fill-opacity="0.0"></path><path d="
M 20 20 C
20 65.25483399593904
38.745166004060955 84
84 84
" stroke="rgb(25,0,102)" stroke-width="5" fill-opacity="0.0"></path><path d="
M 20 20 C
20 -25.254833995939045
129.25483399593904 84
84 84
" stroke="rgb(25,0,102)" stroke-width="5" fill-opacity="0.0"></path><path d="
M 20 20 C
20 -25.254833995939045
38.745166004060955 84
84 84
" stroke="rgb(25,0,102)" stroke-width="5" fill-opacity="0.0"></path><path d="
M 20 20 C
20 84
20 84
20 148
" stroke="rgb(25,0,102)" stroke-width="5" fill-opacity="0.0"></path><path d="
M 84 84 C
129.25483399593904 84
20 193.25483399593904
20 148
" stroke="rgb(25,0,102)" stroke-width="5" fill-opacity="0.0"></path><path d="
M 84 84 C
129.25483399593904 84
20 102.74516600406096
20 148
" stroke="rgb(25,0,102)" stroke-width="5" fill-opacity="0.0"></path><path d="
M 84 84 C
38.745166004060955 84
20 193.25483399593904
20 148
" stroke="rgb(25,0,102)" stroke-width="5" fill-opacity="0.0"></path><path d="
M 84 84 C
38.745166004060955 84
20 102.74516600406096
20 148
" stroke="rgb(25,0,102)" stroke-width="5" fill-opacity="0.0"></path><path d="
M 84 84 C
129.25483399593904 84
148 65.25483399593904
148 20
" stroke="rgb(25,0,102)" stroke-width="5" fill-opacity="0.0"></path><path d="
M 84 84 C
129.25483399593904 84
148 -25.254833995939045
148 20
" stroke="rgb(25,0,102)" stroke-width="5" fill-opacity="0.0"></path><path d="
M 84 84 C
38.745166004060955 84
148 65.25483399593904
148 20
" stroke="rgb(25,0,102)" stroke-width="5" fill-opacity="0.0"></path><path d="
M 84 84 C
38.745166004060955 84
148 -25.254833995939045
148 20
" stroke="rgb(25,0,102)" stroke-width="5" fill-opacity="0.0"></path><path d="
M 84 84 C
148 84
148 84
212 84
" stroke="rgb(25,0,102)" stroke-width="5" fill-opacity="0.0"></path><path d="
M 84 84 C
129.25483399593904 84
148 193.25483399593904
148 148
" stroke="rgb(25,0,102)" stroke-width="5" fill-opacity="0.0"></path><path d="
M 84 84 C
129.25483399593904 84
148 102.74516600406096
148 148
" stroke="rgb(25,0,102)" stroke-width="5" fill-opacity="0.0"></path><path d="
M 84 84 C
38.745166004060955 84
148 193.25483399593904
148 148
" stroke="rgb(25,0,102)" stroke-width="5" fill-opacity="0.0"></path><path d="
M 84 84 C
38.745166004060955 84
148 102.74516600406096
148 148
" stroke="rgb(25,0,102)" stroke-width="5" fill-opacity="0.0"></path><path d="
M 20 148 C
20 193.25483399593904
129.25483399593904 212
84 212
" stroke="rgb(25,0,102)" stroke-width="5" fill-opacity="0.0"></path><path d="
M 20 148 C
20 193.25483399593904
38.745166004060955 212
84 212
" stroke="rgb(25,0,102)" stroke-width="5" fill-opacity="0.0"></path><path d="
M 20 148 C
20 102.74516600406096
129.25483399593904 212
84 212
" stroke="rgb(25,0,102)" stroke-width="5" fill-opacity="0.0"></path><path d="
M 20 148 C
20 102.74516600406096
38.745166004060955 212
84 212
" stroke="rgb(25,0,102)" stroke-width="5" fill-opacity="0.0"></path><path d="
M 20 148 C
20 212
20 212
20 276
" stroke="rgb(25,0,102)" stroke-width="5" fill-opacity="0.0"></path><path d="
M 84 212 C
129.25483399593904 212
20 321.25483399593907
20 276
" stroke="rgb(25,0,102)" stroke-width="5" fill-opacity="0.0"></path><path d="
M 84 212 C
129.25483399593904 212
20 230.74516600406096
20 276
" stroke="rgb(25,0,102)" stroke-width="5" fill-opacity="0.0"></path><path d="
M 84 212 C
38.745166004060955 212
20 321.25483399593907
20 276
" stroke="rgb(25,0,102)" stroke-width="5" fill-opacity="0.0"></path><path d="
M 84 212 C
38.745166004060955 212
20 230.74516600406096
20 276
" stroke="rgb(25,0,102)" stroke-width="5" fill-opacity="0.0"></path><path d="
M 84 212 C
129.25483399593904 212
148 193.25483399593904
148 148
" stroke="rgb(25,0,102)" stroke-width="5" fill-opacity="0.0"></path><path d="
M 84 212 C
129.25483399593904 212
148 102.74516600406096
148 148
" stroke="rgb(25,0,102)" stroke-width="5" fill-opacity="0.0"></path><path d="
M 84 212 C
38.745166004060955 212
148 193.25483399593904
148 148
" stroke="rgb(25,0,102)" stroke-width="5" fill-opacity="0.0"></path><path d="
M 84 212 C
38.745166004060955 212
148 102.74516600406096
148 148
" stroke="rgb(25,0,102)" stroke-width="5" fill-opacity="0.0"></path><path d="
M 84 212 C
148 212
148 212
212 212
" stroke="rgb(25,0,102)" stroke-width="5" fill-opacity="0.0"></path><path d="
M 84 212 C
129.25483399593904 212
148 321.25483399593907
148 276
" stroke="rgb(25,0,102)" stroke-width="5" fill-opacity="0.0"></path><path d="
M 84 212 C
129.25483399593904 212
148 230.74516600406096
148 276
" stroke="rgb(25,0,102)" stroke-width="5" fill-opacity="0.0"></path><path d="
M 84 212 C
38.745166004060955 212
148 321.25483399593907
148 276
" stroke="rgb(25,0,102)" stroke-width="5" fill-opacity="0.0"></path><path d="
M 84 212 C
38.745166004060955 212
148 230.74516600406096
148 276
" stroke="rgb(25,0,102)" stroke-width="5" fill-opacity="0.0"></path><path d="
M 20 276 C
20 321.25483399593907
129.25483399593904 340
84 340
" stroke="rgb(25,0,102)" stroke-width="5" fill-opacity="0.0"></path><path d="
M 20 276 C
20 321.25483399593907
38.745166004060955 340
84 340
" stroke="rgb(25,0,102)" stroke-width="5" fill-opacity="0.0"></path><path d="
M 20 276 C
20 230.74516600406096
129.25483399593904 340
84 340
" stroke="rgb(25,0,102)" stroke-width="5" fill-opacity="0.0"></path><path d="
M 20 276 C
20 230.74516600406096
38.745166004060955 340
84 340
" stroke="rgb(25,0,102)" stroke-width="5" fill-opacity="0.0"></path><path d="
M 20 276 C
20 340
20 340
20 404
" stroke="rgb(25,0,102)" stroke-width="5" fill-opacity="0.0"></path><path d="
M 84 340 C
129.25483399593904 340
20 449.25483399593907
20 404
" stroke="rgb(25,0,102)" stroke-width="5" fill-opacity="0.0"></path><path d="
M 84 340 C
129.25483399593904 340
20 358.74516600406093
20 404
" stroke="rgb(25,0,102)" stroke-width="5" fill-opacity="0.0"></path><path d="
M 84 340 C
38.745166004060955 340
20 449.25483399593907
20 404
" stroke="rgb(25,0,102)" stroke-width="5" fill-opacity="0.0"></path><path d="
M 84 340 C
38.745166004060955 340
20 358.74516600406093
20 404
" stroke="rgb(25,0,102)" stroke-width="5" fill-opacity="0.0"></path><path d="
M 84 340 C
129.25483399593904 340
148 321.25483399593907
148 276
" stroke="rgb(25,0,102)" stroke-width="5" fill-opacity="0.0"></path><path d="
M 84 340 C
129.25483399593904 340
148 230.74516600406096
148 276
" stroke="rgb(25,0,102)" stroke-width="5" fill-opacity="0.0"></path><path d="
M 84 340 C
38.745166004060955 340
148 321.25483399593907
148 276
" stroke="rgb(25,0,102)" stroke-width="5" fill-opacity="0.0"></path><path d="
M 84 340 C
38.745166004060955 340
148 230.74516600406096
148 276
" stroke="rgb(25,0,102)" stroke-width="5" fill-opacity="0.0"></path><path d="
M 84 340 C
148 340
148 340
212 340
" stroke="rgb(25,0,102)" stroke-width="5" fill-opacity="0.0"></path><path d="
M 84 340 C
129.25483399593904 340
148 449.25483399593907
148 404
" stroke="rgb(25,0,102)" stroke-width="5" fill-opacity="0.0"></path><path d="
M 84 340 C
129.25483399593904 340
148 358.74516600406093
148 404
" stroke="rgb(25,0,102)" stroke-width="5" fill-opacity="0.0"></path><path d="
M 84 340 C
38.745166004060955 340
148 449.25483399593907
148 404
" stroke="rgb(25,0,102)" stroke-width="5" fill-opacity="0.0"></path><path d="
M 84 340 C
38.745166004060955 340
148 358.74516600406093
148 404
" stroke="rgb(25,0,102)" stroke-width="5" fill-opacity="0.0"></path><path d="
M 20 404 C
20 449.25483399593907
129.25483399593904 468
84 468
" stroke="rgb(25,0,102)" stroke-width="5" fill-opacity="0.0"></path><path d="
M 20 404 C
20 449.25483399593907
38.745166004060955 468
84 468
" stroke="rgb(25,0,102)" stroke-width="5" fill-opacity="0.0"></path><path d="
M 20 404 C
20 358.74516600406093
129.25483399593904 468
84 468
" stroke="rgb(25,0,102)" stroke-width="5" fill-opacity="0.0"></path><path d="
M 20 404 C
20 358.74516600406093
38.745166004060955 468
84 468
" stroke="rgb(25,0,102)" stroke-width="5" fill-opacity="0.0"></path><path d="
M 84 468 C
129.25483399593904 468
148 449.25483399593907
148 404
" stroke="rgb(25,0,102)" stroke-width="5" fill-opacity="0.0"></path><path d="
M 84 468 C
129.25483399593904 468
148 358.74516600406093
148 404
" stroke="rgb(25,0,102)" stroke-width="5" fill-opacity="0.0"></path><path d="
M 84 468 C
38.745166004060955 468
148 449.25483399593907
148 404
" stroke="rgb(25,0,102)" stroke-width="5" fill-opacity="0.0"></path><path d="
M 84 468 C
38.745166004060955 468
148 358.74516600406093
148 404
" stroke="rgb(25,0,102)" stroke-width="5" fill-opacity="0.0"></path><path d="
M 84 468 C
148 468
148 468
212 468
" stroke="rgb(25,0,102)" stroke-width="5" fill-opacity="0.0"></path><path d="
M 148 20 C
148 65.25483399593904
257.25483399593907 84
212 84
" stroke="rgb(25,0,102)" stroke-width="5" fill-opacity="0.0"></path><path d="
M 148 20 C
148 65.25483399593904
166.74516600406096 84
212 84
" stroke="rgb(25,0,102)" stroke-width="5" fill-opacity="0.0"></path><path d="
M 148 20 C
148 -25.254833995939045
257.25483399593907 84
212 84
" stroke="rgb(25,0,102)" stroke-width="5" fill-opacity="0.0"></path><path d="
M 148 20 C
148 -25.254833995939045
166.74516600406096 84
212 84
" stroke="rgb(25,0,102)" stroke-width="5" fill-opacity="0.0"></path><path d="
M 148 20 C
148 84
148 84
148 148
" stroke="rgb(25,0,102)" stroke-width="5" fill-opacity="0.0"></path><path d="
M 212 84 C
257.25483399593907 84
148 193.25483399593904
148 148
" stroke="rgb(25,0,102)" stroke-width="5" fill-opacity="0.0"></path><path d="
M 212 84 C
257.25483399593907 84
148 102.74516600406096
148 148
" stroke="rgb(25,0,102)" stroke-width="5" fill-opacity="0.0"></path><path d="
M 212 84 C
166.74516600406096 84
148 193.25483399593904
148 148
" stroke="rgb(25,0,102)" stroke-width="5" fill-opacity="0.0"></path><path d="
M 212 84 C
166.74516600406096 84
148 102.74516600406096
148 148
" stroke="rgb(25,0,102)" stroke-width="5" fill-opacity="0.0"></path><path d="
M 212 84 C
257.25483399593907 84
276 65.25483399593904
276 20
" stroke="rgb(25,0,102)" stroke-width="5" fill-opacity="0.0"></path><path d="
M 212 84 C
257.25483399593907 84
276 -25.254833995939045
276 20
" stroke="rgb(25,0,102)" stroke-width="5" fill-opacity="0.0"></path><path d="
M 212 84 C
166.74516600406096 84
276 65.25483399593904
276 20
" stroke="rgb(25,0,102)" stroke-width="5" fill-opacity="0.0"></path><path d="
M 212 84 C
166.74516600406096 84
276 -25.254833995939045
276 20
" stroke="rgb(25,0,102)" stroke-width="5" fill-opacity="0.0"></path><path d="
M 212 84 C
276 84
276 84
340 84
" stroke="rgb(25,0,102)" stroke-width="5" fill-opacity="0.0"></path><path d="
M 212 84 C
257.25483399593907 84
276 193.25483399593904
276 148
" stroke="rgb(25,0,102)" stroke-width="5" fill-opacity="0.0"></path><path d="
M 212 84 C
257.25483399593907 84
276 102.74516600406096
276 148
" stroke="rgb(25,0,102)" stroke-width="5" fill-opacity="0.0"></path><path d="
M 212 84 C
166.74516600406096 84
276 193.25483399593904
276 148
" stroke="rgb(25,0,102)" stroke-width="5" fill-opacity="0.0"></path><path d="
M 212 84 C
166.74516600406096 84
276 102.74516600406096
276 148
" stroke="rgb(25,0,102)" stroke-width="5" fill-opacity="0.0"></path><path d="
M 148 148 C
148 193.25483399593904
257.25483399593907 212
212 212
" stroke="rgb(25,0,102)" stroke-width="5" fill-opacity="0.0"></path><path d="
M 148 148 C
148 193.25483399593904
166.74516600406096 212
212 212
" stroke="rgb(25,0,102)" stroke-width="5" fill-opacity="0.0"></path><path d="
M 148 148 C
148 102.74516600406096
257.25483399593907 212
212 212
" stroke="rgb(25,0,102)" stroke-width="5" fill-opacity="0.0"></path><path d="
M 148 148 C
148 102.74516600406096
166.74516600406096 212
212 212
" stroke="rgb(25,0,102)" stroke-width="5" fill-opacity="0.0"></path><path d="
M 148 148 C
148 212
148 212
148 276
" stroke="rgb(25,0,102)" stroke-width="5" fill-opacity="0.0"></path><path d="
M 212 212 C
257.25483399593907 212
148 321.25483399593907
148 276
" stroke="rgb(25,0,102)" stroke-width="5" fill-opacity="0.0"></path><path d="
M 212 212 C
257.25483399593907 212
148 230.74516600406096
148 276
" stroke="rgb(25,0,102)" stroke-width="5" fill-opacity="0.0"></path><path d="
M 212 212 C
166.74516600406096 212
148 321.25483399593907
148 276
" stroke="rgb(25,0,102)" stroke-width="5" fill-opacity="0.0"></path><path d="
M 212 212 C
166.74516600406096 212
148 230.74516600406096
148 276
" stroke="rgb(25,0,102)" stroke-width="5" fill-opacity="0.0"></path><path d="
M 212 212 C
257.25483399593907 212
276 193.25483399593904
276 148
" stroke="rgb(25,0,102)" stroke-width="5" fill-opacity="0.0"></path><path d="
M 212 212 C
257.25483399593907 212
276 102.74516600406096
276 148
" stroke="rgb(25,0,102)" stroke-width="5" fill-opacity="0.0"></path><path d="
M 212 212 C
166.74516600406096 212
276 193.25483399593904
276 148
" stroke="rgb(25,0,102)" stroke-width="5" fill-opacity="0.0"></path><path d="
M 212 212 C
166.74516600406096 212
276 102.74516600406096
276 148
" stroke="rgb(25,0,102)" stroke-width="5" fill-opacity="0.0"></path><path d="
M 212 212 C
276 212
276 212
340 212
" stroke="rgb(25,0,102)" stroke-width="5" fill-opacity="0.0"></path><path d="
M 212 212 C
257.25483399593907 212
276 321.25483399593907
276 276
" stroke="rgb(25,0,102)" stroke-width="5" fill-opacity="0.0"></path><path d="
M 212 212 C
257.25483399593907 212
276 230.74516600406096
276 276
" stroke="rgb(25,0,102)" stroke-width="5" fill-opacity="0.0"></path><path d="
M 212 212 C
166.74516600406096 212
276 321.25483399593907
276 276
" stroke="rgb(25,0,102)" stroke-width="5" fill-opacity="0.0"></path><path d="
M 212 212 C
166.74516600406096 212
276 230.74516600406096
276 276
" stroke="rgb(25,0,102)" stroke-width="5" fill-opacity="0.0"></path><path d="
M 148 276 C
148 321.25483399593907
257.25483399593907 340
212 340
" stroke="rgb(25,0,102)" stroke-width="5" fill-opacity="0.0"></path><path d="
M 148 276 C
148 321.25483399593907
166.74516600406096 340
212 340
" stroke="rgb(25,0,102)" stroke-width="5" fill-opacity="0.0"></path><path d="
M 148 276 C
148 230.74516600406096
257.25483399593907 340
212 340
" stroke="rgb(25,0,102)" stroke-width="5" fill-opacity="0.0"></path><path d="
M 148 276 C
148 230.74516600406096
166.74516600406096 340
212 340
" stroke="rgb(25,0,102)" stroke-width="5" fill-opacity="0.0"></path><path d="
M 148 276 C
148 340
148 340
148 404
" stroke="rgb(25,0,102)" stroke-width="5" fill-opacity="0.0"></path><path d="
M 212 340 C
257.25483399593907 340
148 449.25483399593907
148 404
" stroke="rgb(25,0,102)" stroke-width="5" fill-opacity="0.0"></path><path d="
M 212 340 C
257.25483399593907 340
148 358.74516600406093
148 404
" stroke="rgb(25,0,102)" stroke-width="5" fill-opacity="0.0"></path><path d="
M 212 340 C
166.74516600406096 340
148 449.25483399593907
148 404
" stroke="rgb(25,0,102)" stroke-width="5" fill-opacity="0.0"></path><path d="
M 212 340 C
166.74516600406096 340
148 358.74516600406093
148 404
" stroke="rgb(25,0,102)" stroke-width="5" fill-opacity="0.0"></path><path d="
M 212 340 C
257.25483399593907 340
276 321.25483399593907
276 276
" stroke="rgb(25,0,102)" stroke-width="5" fill-opacity="0.0"></path><path d="
M 212 340 C
257.25483399593907 340
276 230.74516600406096
276 276
" stroke="rgb(25,0,102)" stroke-width="5" fill-opacity="0.0"></path><path d="
M 212 340 C
166.74516600406096 340
276 321.25483399593907
276 276
" stroke="rgb(25,0,102)" stroke-width="5" fill-opacity="0.0"></path><path d="
M 212 340 C
166.74516600406096 340
276 230.74516600406096
276 276
" stroke="rgb(25,0,102)" stroke-width="5" fill-opacity="0.0"></path><path d="
M 212 340 C
276 340
276 340
340 340
" stroke="rgb(25,0,102)" stroke-width="5" fill-opacity="0.0"></path><path d="
M 212 340 C
257.25483399593907 340
276 449.25483399593907
276 404
" stroke="rgb(25,0,102)" stroke-width="5" fill-opacity="0.0"></path><path d="
M 212 340 C
257.25483399593907 340
276 358.74516600406093
276 404
" stroke="rgb(25,0,102)" stroke-width="5" fill-opacity="0.0"></path><path d="
M 212 340 C
166.74516600406096 340
276 449.25483399593907
276 404
" stroke="rgb(25,0,102)" stroke-width="5" fill-opacity="0.0"></path><path d="
M 212 340 C
166.74516600406096 340
276 358.74516600406093
276 404
" stroke="rgb(25,0,102)" stroke-width="5" fill-opacity="0.0"></path><path d="
M 148 404 C
148 449.25483399593907
257.25483399593907 468
212 468
" stroke="rgb(25,0,102)" stroke-width="5" fill-opacity="0.0"></path><path d="
M 148 404 C
148 449.25483399593907
166.74516600406096 468
212 468
" stroke="rgb(25,0,102)" stroke-width="5" fill-opacity="0.0"></path><path d="
M 148 404 C
148 358.74516600406093
257.25483399593907 468
212 468
" stroke="rgb(25,0,102)" stroke-width="5" fill-opacity="0.0"></path><path d="
M 148 404 C
148 358.74516600406093
166.74516600406096 468
212 468
" stroke="rgb(25,0,102)" stroke-width="5" fill-opacity="0.0"></path><path d="
M 212 468 C
257.25483399593907 468
276 449.25483399593907
276 404
" stroke="rgb(25,0,102)" stroke-width="5" fill-opacity="0.0"></path><path d="
M 212 468 C
257.25483399593907 468
276 358.74516600406093
276 404
" stroke="rgb(25,0,102)" stroke-width="5" fill-opacity="0.0"></path><path d="
M 212 468 C
166.74516600406096 468
276 449.25483399593907
276 404
" stroke="rgb(25,0,102)" stroke-width="5" fill-opacity="0.0"></path><path d="
M 212 468 C
166.74516600406096 468
276 358.74516600406093
276 404
" stroke="rgb(25,0,102)" stroke-width="5" fill-opacity="0.0"></path><path d="
M 212 468 C
276 468
276 468
340 468
" stroke="rgb(25,0,102)" stroke-width="5" fill-opacity="0.0"></path><path d="
M 276 20 C
276 65.25483399593904
385.25483399593907 84
340 84
" stroke="rgb(25,0,102)" stroke-width="5" fill-opacity="0.0"></path><path d="
M 276 20 C
276 65.25483399593904
294.74516600406093 84
340 84
" stroke="rgb(25,0,102)" stroke-width="5" fill-opacity="0.0"></path><path d="
M 276 20 C
276 -25.254833995939045
385.25483399593907 84
340 84
" stroke="rgb(25,0,102)" stroke-width="5" fill-opacity="0.0"></path><path d="
M 276 20 C
276 -25.254833995939045
294.74516600406093 84
340 84
" stroke="rgb(25,0,102)" stroke-width="5" fill-opacity="0.0"></path><path d="
M 276 20 C
276 84
276 84
276 148
" stroke="rgb(25,0,102)" stroke-width="5" fill-opacity="0.0"></path><path d="
M 340 84 C
385.25483399593907 84
276 193.25483399593904
276 148
" stroke="rgb(25,0,102)" stroke-width="5" fill-opacity="0.0"></path><path d="
M 340 84 C
385.25483399593907 84
276 102.74516600406096
276 148
" stroke="rgb(25,0,102)" stroke-width="5" fill-opacity="0.0"></path><path d="
M 340 84 C
294.74516600406093 84
276 193.25483399593904
276 148
" stroke="rgb(25,0,102)" stroke-width="5" fill-opacity="0.0"></path><path d="
M 340 84 C
294.74516600406093 84
276 102.74516600406096
276 148
" stroke="rgb(25,0,102)" stroke-width="5" fill-opacity="0.0"></path><path d="
M 340 84 C
385.25483399593907 84
404 65.25483399593904
404 20
" stroke="rgb(25,0,102)" stroke-width="5" fill-opacity="0.0"></path><path d="
M 340 84 C
385.25483399593907 84
404 -25.254833995939045
404 20
" stroke="rgb(25,0,102)" stroke-width="5" fill-opacity="0.0"></path><path d="
M 340 84 C
294.74516600406093 84
404 65.25483399593904
404 20
" stroke="rgb(25,0,102)" stroke-width="5" fill-opacity="0.0"></path><path d="
M 340 84 C
294.74516600406093 84
404 -25.254833995939045
404 20
" stroke="rgb(25,0,102)" stroke-width="5" fill-opacity="0.0"></path><path d="
M 340 84 C
404 84
404 84
468 84
" stroke="rgb(25,0,102)" stroke-width="5" fill-opacity="0.0"></path><path d="
M 340 84 C
385.25483399593907 84
404 193.25483399593904
404 148
" stroke="rgb(25,0,102)" stroke-width="5" fill-opacity="0.0"></path><path d="
M 340 84 C
385.25483399593907 84
404 102.74516600406096
404 148
" stroke="rgb(25,0,102)" stroke-width="5" fill-opacity="0.0"></path><path d="
M 340 84 C
294.74516600406093 84
404 193.25483399593904
404 148
" stroke="rgb(25,0,102)" stroke-width="5" fill-opacity="0.0"></path><path d="
M 340 84 C
294.74516600406093 84
404 102.74516600406096
404 148
" stroke="rgb(25,0,102)" stroke-width="5" fill-opacity="0.0"></path><path d="
M 276 148 C
276 193.25483399593904
385.25483399593907 212
340 212
" stroke="rgb(25,0,102)" stroke-width="5" fill-opacity="0.0"></path><path d="
M 276 148 C
276 193.25483399593904
294.74516600406093 212
340 212
" stroke="rgb(25,0,102)" stroke-width="5" fill-opacity="0.0"></path><path d="
M 276 148 C
276 102.74516600406096
385.25483399593907 212
340 212
" stroke="rgb(25,0,102)" stroke-width="5" fill-opacity="0.0"></path><path d="
M 276 148 C
276 102.74516600406096
294.74516600406093 212
340 212
" stroke="rgb(25,0,102)" stroke-width="5" fill-opacity="0.0"></path><path d="
M 276 148 C
276 212
276 212
276 276
" stroke="rgb(25,0,102)" stroke-width="5" fill-opacity="0.0"></path><path d="
M 340 212 C
385.25483399593907 212
276 321.25483399593907
276 276
" stroke="rgb(25,0,102)" stroke-width="5" fill-opacity="0.0"></path><path d="
M 340 212 C
385.25483399593907 212
276 230.74516600406096
276 276
" stroke="rgb(25,0,102)" stroke-width="5" fill-opacity="0.0"></path><path d="
M 340 212 C
294.74516600406093 212
276 321.25483399593907
276 276
" stroke="rgb(25,0,102)" stroke-width="5" fill-opacity="0.0"></path><path d="
M 340 212 C
294.74516600406093 212
276 230.74516600406096
276 276
" stroke="rgb(25,0,102)" stroke-width="5" fill-opacity="0.0"></path><path d="
M 340 212 C
385.25483399593907 212
404 193.25483399593904
404 148
" stroke="rgb(25,0,102)" stroke-width="5" fill-opacity="0.0"></path><path d="
M 340 212 C
385.25483399593907 212
404 102.74516600406096
404 148
" stroke="rgb(25,0,102)" stroke-width="5" fill-opacity="0.0"></path><path d="
M 340 212 C
294.74516600406093 212
404 193.25483399593904
404 148
" stroke="rgb(25,0,102)" stroke-width="5" fill-opacity="0.0"></path><path d="
M 340 212 C
294.74516600406093 212
404 102.74516600406096
404 148
" stroke="rgb(25,0,102)" stroke-width="5" fill-opacity="0.0"></path><path d="
M 340 212 C
404 212
404 212
468 212
" stroke="rgb(25,0,102)" stroke-width="5" fill-opacity="0.0"></path><path d="
M 340 212 C
385.25483399593907 212
404 321.25483399593907
404 276
" stroke="rgb(25,0,102)" stroke-width="5" fill-opacity="0.0"></path><path d="
M 340 212 C
385.25483399593907 212
404 230.74516600406096
404 276
" stroke="rgb(25,0,102)" stroke-width="5" fill-opacity="0.0"></path><path d="
M 340 212 C
294.74516600406093 212
404 321.25483399593907
404 276
" stroke="rgb(25,0,102)" stroke-width="5" fill-opacity="0.0"></path><path d="
M 340 212 C
294.74516600406093 212
404 230.74516600406096
404 276
" stroke="rgb(25,0,102)" stroke-width="5" fill-opacity="0.0"></path><path d="
M 276 276 C
276 321.25483399593907
385.25483399593907 340
340 340
" stroke="rgb(25,0,102)" stroke-width="5" fill-opacity="0.0"></path><path d="
M 276 276 C
276 321.25483399593907
294.74516600406093 340
340 340
" stroke="rgb(25,0,102)" stroke-width="5" fill-opacity="0.0"></path><path d="
M 276 276 C
276 230.74516600406096
385.25483399593907 340
340 340
" stroke="rgb(25,0,102)" stroke-width="5" fill-opacity="0.0"></path><path d="
M 276 276 C
276 230.74516600406096
294.74516600406093 340
340 340
" stroke="rgb(25,0,102)" stroke-width="5" fill-opacity="0.0"></path><path d="
M 276 276 C
276 340
276 340
276 404
" stroke="rgb(25,0,102)" stroke-width="5" fill-opacity="0.0"></path><path d="
M 340 340 C
385.25483399593907 340
276 449.25483399593907
276 404
" stroke="rgb(25,0,102)" stroke-width="5" fill-opacity="0.0"></path><path d="
M 340 340 C
385.25483399593907 340
276 358.74516600406093
276 404
" stroke="rgb(25,0,102)" stroke-width="5" fill-opacity="0.0"></path><path d="
M 340 340 C
294.74516600406093 340
276 449.25483399593907
276 404
" stroke="rgb(25,0,102)" stroke-width="5" fill-opacity="0.0"></path><path d="
M 340 340 C
294.74516600406093 340
276 358.74516600406093
276 404
" stroke="rgb(25,0,102)" stroke-width="5" fill-opacity="0.0"></path><path d="
M 340 340 C
385.25483399593907 340
404 321.25483399593907
404 276
" stroke="rgb(25,0,102)" stroke-width="5" fill-opacity="0.0"></path><path d="
M 340 340 C
385.25483399593907 340
404 230.74516600406096
404 276
" stroke="rgb(25,0,102)" stroke-width="5" fill-opacity="0.0"></path><path d="
M 340 340 C
294.74516600406093 340
404 321.25483399593907
404 276
" stroke="rgb(25,0,102)" stroke-width="5" fill-opacity="0.0"></path><path d="
M 340 340 C
294.74516600406093 340
404 230.74516600406096
404 276
" stroke="rgb(25,0,102)" stroke-width="5" fill-opacity="0.0"></path><path d="
M 340 340 C
404 340
404 340
468 340
" stroke="rgb(25,0,102)" stroke-width="5" fill-opacity="0.0"></path><path d="
M 340 340 C
385.25483399593907 340
404 449.25483399593907
404 404
" stroke="rgb(25,0,102)" stroke-width="5" fill-opacity="0.0"></path><path d="
M 340 340 C
385.25483399593907 340
404 358.74516600406093
404 404
" stroke="rgb(25,0,102)" stroke-width="5" fill-opacity="0.0"></path><path d="
M 340 340 C
294.74516600406093 340
404 449.25483399593907
404 404
" stroke="rgb(25,0,102)" stroke-width="5" fill-opacity="0.0"></path><path d="
M 340 340 C
294.74516600406093 340
404 358.74516600406093
404 404
" stroke="rgb(25,0,102)" stroke-width="5" fill-opacity="0.0"></path><path d="
M 276 404 C
276 449.25483399593907
385.25483399593907 468
340 468
" stroke="rgb(25,0,102)" stroke-width="5" fill-opacity="0.0"></path><path d="
M 276 404 C
276 449.25483399593907
294.74516600406093 468
340 468
" stroke="rgb(25,0,102)" stroke-width="5" fill-opacity="0.0"></path><path d="
M 276 404 C
276 358.74516600406093
385.25483399593907 468
340 468
" stroke="rgb(25,0,102)" stroke-width="5" fill-opacity="0.0"></path><path d="
M 276 404 C
276 358.74516600406093
294.74516600406093 468
340 468
" stroke="rgb(25,0,102)" stroke-width="5" fill-opacity="0.0"></path><path d="
M 340 468 C
385.25483399593907 468
404 449.25483399593907
404 404
" stroke="rgb(25,0,102)" stroke-width="5" fill-opacity="0.0"></path><path d="
M 340 468 C
385.25483399593907 468
404 358.74516600406093
404 404
" stroke="rgb(25,0,102)" stroke-width="5" fill-opacity="0.0"></path><path d="
M 340 468 C
294.74516600406093 468
404 449.25483399593907
404 404
" stroke="rgb(25,0,102)" stroke-width="5" fill-opacity="0.0"></path><path d="
M 340 468 C
294.74516600406093 468
404 358.74516600406093
404 404
" stroke="rgb(25,0,102)" stroke-width="5" fill-opacity="0.0"></path><path d="
M 340 468 C
404 468
404 468
468 468
" stroke="rgb(25,0,102)" stroke-width="5" fill-opacity="0.0"></path><path d="
M 404 20 C
404 65.25483399593904
513.2548339959391 84
468 84
" stroke="rgb(25,0,102)" stroke-width="5" fill-opacity="0.0"></path><path d="
M 404 20 C
404 65.25483399593904
422.74516600406093 84
468 84
" stroke="rgb(25,0,102)" stroke-width="5" fill-opacity="0.0"></path><path d="
M 404 20 C
404 -25.254833995939045
513.2548339959391 84
468 84
" stroke="rgb(25,0,102)" stroke-width="5" fill-opacity="0.0"></path><path d="
M 404 20 C
404 -25.254833995939045
422.74516600406093 84
468 84
" stroke="rgb(25,0,102)" stroke-width="5" fill-opacity="0.0"></path><path d="
M 404 20 C
404 84
404 84
404 148
" stroke="rgb(25,0,102)" stroke-width="5" fill-opacity="0.0"></path><path d="
M 468 84 C
513.2548339959391 84
404 193.25483399593904
404 148
" stroke="rgb(25,0,102)" stroke-width="5" fill-opacity="0.0"></path><path d="
M 468 84 C
513.2548339959391 84
404 102.74516600406096
404 148
" stroke="rgb(25,0,102)" stroke-width="5" fill-opacity="0.0"></path><path d="
M 468 84 C
422.74516600406093 84
404 193.25483399593904
404 148
" stroke="rgb(25,0,102)" stroke-width="5" fill-opacity="0.0"></path><path d="
M 468 84 C
422.74516600406093 84
404 102.74516600406096
404 148
" stroke="rgb(25,0,102)" stroke-width="5" fill-opacity="0.0"></path><path d="
M 404 148 C
404 193.25483399593904
513.2548339959391 212
468 212
" stroke="rgb(25,0,102)" stroke-width="5" fill-opacity="0.0"></path><path d="
M 404 148 C
404 193.25483399593904
422.74516600406093 212
468 212
" stroke="rgb(25,0,102)" stroke-width="5" fill-opacity="0.0"></path><path d="
M 404 148 C
404 102.74516600406096
513.2548339959391 212
468 212
" stroke="rgb(25,0,102)" stroke-width="5" fill-opacity="0.0"></path><path d="
M 404 148 C
404 102.74516600406096
422.74516600406093 212
468 212
" stroke="rgb(25,0,102)" stroke-width="5" fill-opacity="0.0"></path><path d="
M 404 148 C
404 212
404 212
404 276
" stroke="rgb(25,0,102)" stroke-width="5" fill-opacity="0.0"></path><path d="
M 468 212 C
513.2548339959391 212
404 321.25483399593907
404 276
" stroke="rgb(25,0,102)" stroke-width="5" fill-opacity="0.0"></path><path d="
M 468 212 C
513.2548339959391 212
404 230.74516600406096
404 276
" stroke="rgb(25,0,102)" stroke-width="5" fill-opacity="0.0"></path><path d="
M 468 212 C
422.74516600406093 212
404 321.25483399593907
404 276
" stroke="rgb(25,0,102)" stroke-width="5" fill-opacity="0.0"></path><path d="
M 468 212 C
422.74516600406093 212
404 230.74516600406096
404 276
" stroke="rgb(25,0,102)" stroke-width="5" fill-opacity="0.0"></path><path d="
M 404 276 C
404 321.25483399593907
513.2548339959391 340
468 340
" stroke="rgb(25,0,102)" stroke-width="5" fill-opacity="0.0"></path><path d="
M 404 276 C
404 321.25483399593907
422.74516600406093 340
468 340
" stroke="rgb(25,0,102)" stroke-width="5" fill-opacity="0.0"></path><path d="
M 404 276 C
404 230.74516600406096
513.2548339959391 340
468 340
" stroke="rgb(25,0,102)" stroke-width="5" fill-opacity="0.0"></path><path d="
M 404 276 C
404 230.74516600406096
422.74516600406093 340
468 340
" stroke="rgb(25,0,102)" stroke-width="5" fill-opacity="0.0"></path><path d="
M 404 276 C
404 340
404 340
404 404
" stroke="rgb(25,0,102)" stroke-width="5" fill-opacity="0.0"></path><path d="
M 468 340 C
513.2548339959391 340
404 449.25483399593907
404 404
" stroke="rgb(25,0,102)" stroke-width="5" fill-opacity="0.0"></path><path d="
M 468 340 C
513.2548339959391 340
404 358.74516600406093
404 404
" stroke="rgb(25,0,102)" stroke-width="5" fill-opacity="0.0"></path><path d="
M 468 340 C
422.74516600406093 340
404 449.25483399593907
404 404
" stroke="rgb(25,0,102)" stroke-width="5" fill-opacity="0.0"></path><path d="
M 468 340 C
422.74516600406093 340
404 358.74516600406093
404 404
" stroke="rgb(25,0,102)" stroke-width="5" fill-opacity="0.0"></path><path d="
M 404 404 C
404 449.25483399593907
513.2548339959391 468
468 468
" stroke="rgb(25,0,102)" stroke-width="5" fill-opacity="0.0"></path><path d="
M 404 404 C
404 449.25483399593907
422.74516600406093 468
468 468
" stroke="rgb(25,0,102)" stroke-width="5" fill-opacity="0.0"></path><path d="
M 404 404 C
404 358.74516600406093
513.2548339959391 468
468 468
" stroke="rgb(25,0,102)" stroke-width="5" fill-opacity="0.0"></path><path d="
M 404 404 C
404 358.74516600406093
422.74516600406093 468
468 468
" stroke="rgb(25,0,102)" stroke-width="5" fill-opacity="0.0"></path><line x1="20" y1="23" x2="20" y2="17" stroke="rgb(0,0,0)" stroke-width="2"></line><line x1="87" y1="84" x2="81" y2="84" stroke="rgb(0,0,0)" stroke-width="2"></line><line x1="20" y1="151" x2="20" y2="145" stroke="rgb(0,0,0)" stroke-width="2"></line><line x1="87" y1="212" x2="81" y2="212" stroke="rgb(0,0,0)" stroke-width="2"></line><line x1="20" y1="279" x2="20" y2="273" stroke="rgb(0,0,0)" stroke-width="2"></line><line x1="87" y1="340" x2="81" y2="340" stroke="rgb(0,0,0)" stroke-width="2"></line><line x1="20" y1="407" x2="20" y2="401" stroke="rgb(0,0,0)" stroke-width="2"></line><line x1="87" y1="468" x2="81" y2="468" stroke="rgb(0,0,0)" stroke-width="2"></line><line x1="148" y1="23" x2="148" y2="17" stroke="rgb(0,0,0)" stroke-width="2"></line><line x1="215" y1="84" x2="209" y2="84" stroke="rgb(0,0,0)" stroke-width="2"></line><line x1="148" y1="151" x2="148" y2="145" stroke="rgb(0,0,0)" stroke-width="2"></line><line x1="215" y1="212" x2="209" y2="212" stroke="rgb(0,0,0)" stroke-width="2"></line><line x1="148" y1="279" x2="148" y2="273" stroke="rgb(0,0,0)" stroke-width="2"></line><line x1="215" y1="340" x2="209" y2="340" stroke="rgb(0,0,0)" stroke-width="2"></line><line x1="148" y1="407" x2="148" y2="401" stroke="rgb(0,0,0)" stroke-width="2"></line><line x1="215" y1="468" x2="209" y2="468" stroke="rgb(0,0,0)" stroke-width="2"></line><line x1="276" y1="23" x2="276" y2="17" stroke="rgb(0,0,0)" stroke-width="2"></line><line x1="343" y1="84" x2="337" y2="84" stroke="rgb(0,0,0)" stroke-width="2"></line><line x1="276" y1="151" x2="276" y2="145" stroke="rgb(0,0,0)" stroke-width="2"></line><line x1="343" y1="212" x2="337" y2="212" stroke="rgb(0,0,0)" stroke-width="2"></line><line x1="276" y1="279" x2="276" y2="273" stroke="rgb(0,0,0)" stroke-width="2"></line><line x1="343" y1="340" x2="337" y2="340" stroke="rgb(0,0,0)" stroke-width="2"></line><line x1="276" y1="407" x2="276" y2="401" stroke="rgb(0,0,0)" stroke-width="2"></line><line x1="343" y1="468" x2="337" y2="468" stroke="rgb(0,0,0)" stroke-width="2"></line><line x1="404" y1="23" x2="404" y2="17" stroke="rgb(0,0,0)" stroke-width="2"></line><line x1="471" y1="84" x2="465" y2="84" stroke="rgb(0,0,0)" stroke-width="2"></line><line x1="404" y1="151" x2="404" y2="145" stroke="rgb(0,0,0)" stroke-width="2"></line><line x1="471" y1="212" x2="465" y2="212" stroke="rgb(0,0,0)" stroke-width="2"></line><line x1="404" y1="279" x2="404" y2="273" stroke="rgb(0,0,0)" stroke-width="2"></line><line x1="471" y1="340" x2="465" y2="340" stroke="rgb(0,0,0)" stroke-width="2"></line><line x1="404" y1="407" x2="404" y2="401" stroke="rgb(0,0,0)" stroke-width="2"></line><line x1="471" y1="468" x2="465" y2="468" stroke="rgb(0,0,0)" stroke-width="2"></line></svg>
