<svg viewBox="-3.5 15 509.5 490.6440991003633" xmlns="http://www.w3.org/2000/svg" version="1.1"><path d="
M 57 20 C
24.957060059975767 20
17.521469970012117 24.292939940024226
1.5 52.042939940024226
" stroke="rgb(25,4,102)" stroke-width="5" fill-opacity="0.0"></path><path d="
M 57 20 C
94 20
94 20
131 20
" stroke="rgb(25,6,102)" stroke-width="5" fill-opacity="0.0"></path><path d="
M 38.5 52.042939940024226 C
54.52146997001212 79.79293994002423
61.95706005997577 84.08587988004845
94 84.08587988004845
" stroke="rgb(25,7,102)" stroke-width="5" fill-opacity="0.0"></path><path d="
M 38.5 52.042939940024226 C
57 84.08587988004845
57 84.08587988004845
75.5 116.12881982007268
" stroke="rgb(25,8,102)" stroke-width="5" fill-opacity="0.0"></path><path d="
M 131 20 C
163.04293994002424 20
170.4785300299879 24.292939940024226
186.5 52.042939940024226
" stroke="rgb(25,8,102)" stroke-width="5" fill-opacity="0.0"></path><path d="
M 112.5 52.042939940024226 C
128.5214699700121 79.79293994002423
135.95706005997576 84.08587988004845
168 84.08587988004845
" stroke="rgb(25,7,102)" stroke-width="5" fill-opacity="0.0"></path><path d="
M 112.5 52.042939940024226 C
131 84.08587988004845
131 84.08587988004845
149.5 116.12881982007268
" stroke="rgb(25,8,102)" stroke-width="5" fill-opacity="0.0"></path><path d="
M 75.5 52.042939940024226 C
59.47853002998789 79.79293994002423
59.47853002998789 88.37881982007268
75.5 116.12881982007268
" stroke="rgb(25,8,102)" stroke-width="5" fill-opacity="0.0"></path><path d="
M 75.5 52.042939940024226 C
57 84.08587988004845
57 84.08587988004845
38.5 116.12881982007268
" stroke="rgb(25,8,102)" stroke-width="5" fill-opacity="0.0"></path><path d="
M 205 20 C
172.95706005997576 20
165.5214699700121 24.292939940024226
149.5 52.042939940024226
" stroke="rgb(25,6,102)" stroke-width="5" fill-opacity="0.0"></path><path d="
M 205 20 C
242 20
242 20
279 20
" stroke="rgb(25,4,102)" stroke-width="5" fill-opacity="0.0"></path><path d="
M 205 20 C
237.04293994002424 20
244.4785300299879 24.292939940024226
260.5 52.042939940024226
" stroke="rgb(25,6,102)" stroke-width="5" fill-opacity="0.0"></path><path d="
M 186.5 52.042939940024226 C
205 84.08587988004845
205 84.08587988004845
223.5 116.12881982007268
" stroke="rgb(25,12,102)" stroke-width="5" fill-opacity="0.0"></path><path d="
M 149.5 52.042939940024226 C
131 84.08587988004845
131 84.08587988004845
112.5 116.12881982007268
" stroke="rgb(25,8,102)" stroke-width="5" fill-opacity="0.0"></path><path d="
M 260.5 52.042939940024226 C
276.5214699700121 79.79293994002423
283.9570600599758 84.08587988004845
316 84.08587988004845
" stroke="rgb(25,8,102)" stroke-width="5" fill-opacity="0.0"></path><path d="
M 260.5 52.042939940024226 C
276.5214699700121 79.79293994002423
276.5214699700121 88.37881982007268
260.5 116.12881982007268
" stroke="rgb(25,7,102)" stroke-width="5" fill-opacity="0.0"></path><path d="
M 223.5 52.042939940024226 C
207.4785300299879 79.79293994002423
207.4785300299879 88.37881982007268
223.5 116.12881982007268
" stroke="rgb(25,12,102)" stroke-width="5" fill-opacity="0.0"></path><path d="
M 223.5 52.042939940024226 C
205 84.08587988004845
205 84.08587988004845
186.5 116.12881982007268
" stroke="rgb(25,10,102)" stroke-width="5" fill-opacity="0.0"></path><path d="
M 353 20 C
320.9570600599758 20
313.5214699700121 24.292939940024226
297.5 52.042939940024226
" stroke="rgb(25,6,102)" stroke-width="5" fill-opacity="0.0"></path><path d="
M 353 20 C
390 20
390 20
427 20
" stroke="rgb(25,8,102)" stroke-width="5" fill-opacity="0.0"></path><path d="
M 353 20 C
385.0429399400242 20
392.4785300299879 24.292939940024226
408.5 52.042939940024226
" stroke="rgb(25,6,102)" stroke-width="5" fill-opacity="0.0"></path><path d="
M 334.5 52.042939940024226 C
350.5214699700121 79.79293994002423
357.9570600599758 84.08587988004845
390 84.08587988004845
" stroke="rgb(25,8,102)" stroke-width="5" fill-opacity="0.0"></path><path d="
M 297.5 52.042939940024226 C
279 84.08587988004845
279 84.08587988004845
260.5 116.12881982007268
" stroke="rgb(25,6,102)" stroke-width="5" fill-opacity="0.0"></path><path d="
M 427 20 C
394.9570600599758 20
387.5214699700121 24.292939940024226
371.5 52.042939940024226
" stroke="rgb(25,12,102)" stroke-width="5" fill-opacity="0.0"></path><path d="
M 427 20 C
464 20
464 20
501 20
" stroke="rgb(25,8,102)" stroke-width="5" fill-opacity="0.0"></path><path d="
M 427 20 C
459.0429399400242 20
466.4785300299879 24.292939940024226
482.5 52.042939940024226
" stroke="rgb(25,8,102)" stroke-width="5" fill-opacity="0.0"></path><path d="
M 371.5 52.042939940024226 C
355.4785300299879 79.79293994002423
348.0429399400242 84.08587988004845
316 84.08587988004845
" stroke="rgb(25,12,102)" stroke-width="5" fill-opacity="0.0"></path><path d="
M 371.5 52.042939940024226 C
355.4785300299879 79.79293994002423
355.4785300299879 88.37881982007268
371.5 116.12881982007268
" stroke="rgb(25,17,102)" stroke-width="5" fill-opacity="0.0"></path><path d="
M 371.5 52.042939940024226 C
353 84.08587988004845
353 84.08587988004845
334.5 116.12881982007268
" stroke="rgb(25,14,102)" stroke-width="5" fill-opacity="0.0"></path><path d="
M 501 20 C
468.9570600599758 20
461.5214699700121 24.292939940024226
445.5 52.042939940024226
" stroke="rgb(25,7,102)" stroke-width="5" fill-opacity="0.0"></path><path d="
M 445.5 52.042939940024226 C
429.4785300299879 79.79293994002423
422.0429399400242 84.08587988004845
390 84.08587988004845
" stroke="rgb(25,8,102)" stroke-width="5" fill-opacity="0.0"></path><path d="
M 94 84.08587988004845 C
131 84.08587988004845
131 84.08587988004845
168 84.08587988004845
" stroke="rgb(25,7,102)" stroke-width="5" fill-opacity="0.0"></path><path d="
M 94 84.08587988004845 C
126.04293994002424 84.08587988004845
133.4785300299879 88.37881982007268
149.5 116.12881982007268
" stroke="rgb(25,8,102)" stroke-width="5" fill-opacity="0.0"></path><path d="
M 75.5 116.12881982007268 C
91.52146997001212 143.8788198200727
98.95706005997576 148.1717597600969
131 148.1717597600969
" stroke="rgb(25,12,102)" stroke-width="5" fill-opacity="0.0"></path><path d="
M 75.5 116.12881982007268 C
94 148.1717597600969
94 148.1717597600969
112.5 180.21469970012112
" stroke="rgb(25,12,102)" stroke-width="5" fill-opacity="0.0"></path><path d="
M 38.5 116.12881982007268 C
22.47853002998789 143.87881982007266
22.47853002998789 152.46469970012112
38.5 180.21469970012112
" stroke="rgb(25,12,102)" stroke-width="5" fill-opacity="0.0"></path><path d="
M 168 84.08587988004845 C
135.95706005997576 84.08587988004845
128.5214699700121 88.37881982007268
112.5 116.12881982007268
" stroke="rgb(25,8,102)" stroke-width="5" fill-opacity="0.0"></path><path d="
M 168 84.08587988004845 C
205 84.08587988004845
205 84.08587988004845
242 84.08587988004845
" stroke="rgb(25,8,102)" stroke-width="5" fill-opacity="0.0"></path><path d="
M 149.5 116.12881982007268 C
165.5214699700121 143.8788198200727
172.95706005997576 148.1717597600969
205 148.1717597600969
" stroke="rgb(25,12,102)" stroke-width="5" fill-opacity="0.0"></path><path d="
M 149.5 116.12881982007268 C
165.5214699700121 143.87881982007266
165.5214699700121 152.46469970012112
149.5 180.21469970012112
" stroke="rgb(25,12,102)" stroke-width="5" fill-opacity="0.0"></path><path d="
M 112.5 116.12881982007268 C
96.47853002998788 143.8788198200727
89.04293994002424 148.1717597600969
57 148.1717597600969
" stroke="rgb(25,10,102)" stroke-width="5" fill-opacity="0.0"></path><path d="
M 112.5 116.12881982007268 C
94 148.1717597600969
94 148.1717597600969
75.5 180.21469970012112
" stroke="rgb(25,12,102)" stroke-width="5" fill-opacity="0.0"></path><path d="
M 242 84.08587988004845 C
274.0429399400242 84.08587988004845
281.4785300299879 88.37881982007268
297.5 116.12881982007268
" stroke="rgb(25,12,102)" stroke-width="5" fill-opacity="0.0"></path><path d="
M 223.5 116.12881982007268 C
239.5214699700121 143.8788198200727
246.95706005997576 148.1717597600969
279 148.1717597600969
" stroke="rgb(25,12,102)" stroke-width="5" fill-opacity="0.0"></path><path d="
M 223.5 116.12881982007268 C
242 148.1717597600969
242 148.1717597600969
260.5 180.21469970012112
" stroke="rgb(25,17,102)" stroke-width="5" fill-opacity="0.0"></path><path d="
M 186.5 116.12881982007268 C
170.4785300299879 143.8788198200727
163.04293994002424 148.1717597600969
131 148.1717597600969
" stroke="rgb(25,12,102)" stroke-width="5" fill-opacity="0.0"></path><path d="
M 316 84.08587988004845 C
283.9570600599758 84.08587988004845
276.5214699700121 88.37881982007268
260.5 116.12881982007268
" stroke="rgb(25,8,102)" stroke-width="5" fill-opacity="0.0"></path><path d="
M 316 84.08587988004845 C
353 84.08587988004845
353 84.08587988004845
390 84.08587988004845
" stroke="rgb(25,10,102)" stroke-width="5" fill-opacity="0.0"></path><path d="
M 297.5 116.12881982007268 C
316 148.1717597600969
316 148.1717597600969
334.5 180.21469970012112
" stroke="rgb(25,17,102)" stroke-width="5" fill-opacity="0.0"></path><path d="
M 390 84.08587988004845 C
357.9570600599758 84.08587988004845
350.5214699700121 88.37881982007268
334.5 116.12881982007268
" stroke="rgb(25,12,102)" stroke-width="5" fill-opacity="0.0"></path><path d="
M 371.5 116.12881982007268 C
387.5214699700121 143.8788198200727
394.9570600599758 148.1717597600969
427 148.1717597600969
" stroke="rgb(25,21,102)" stroke-width="5" fill-opacity="0.0"></path><path d="
M 371.5 116.12881982007268 C
390 148.1717597600969
390 148.1717597600969
408.5 180.21469970012112
" stroke="rgb(25,25,102)" stroke-width="5" fill-opacity="0.0"></path><path d="
M 371.5 116.12881982007268 C
387.5214699700121 143.87881982007266
387.5214699700121 152.46469970012112
371.5 180.21469970012112
" stroke="rgb(25,25,102)" stroke-width="5" fill-opacity="0.0"></path><path d="
M 334.5 116.12881982007268 C
318.4785300299879 143.87881982007266
318.4785300299879 152.46469970012112
334.5 180.21469970012112
" stroke="rgb(25,17,102)" stroke-width="5" fill-opacity="0.0"></path><path d="
M 464 84.08587988004845 C
431.9570600599758 84.08587988004845
424.5214699700121 88.37881982007268
408.5 116.12881982007268
" stroke="rgb(25,17,102)" stroke-width="5" fill-opacity="0.0"></path><path d="
M 445.5 116.12881982007268 C
461.5214699700121 143.8788198200727
468.9570600599758 148.1717597600969
501 148.1717597600969
" stroke="rgb(25,0,102)" stroke-width="5" fill-opacity="0.0"></path><path d="
M 408.5 116.12881982007268 C
390 148.1717597600969
390 148.1717597600969
371.5 180.21469970012112
" stroke="rgb(25,25,102)" stroke-width="5" fill-opacity="0.0"></path><path d="
M 57 148.1717597600969 C
89.04293994002423 148.1717597600969
96.4785300299879 152.46469970012112
112.5 180.21469970012112
" stroke="rgb(25,12,102)" stroke-width="5" fill-opacity="0.0"></path><path d="
M 38.5 180.21469970012112 C
57 212.25763964014536
57 212.25763964014536
75.5 244.3005795801696
" stroke="rgb(25,17,102)" stroke-width="5" fill-opacity="0.0"></path><path d="
M 38.5 180.21469970012112 C
54.52146997001212 207.96469970012112
54.52146997001212 216.5505795801696
38.5 244.3005795801696
" stroke="rgb(25,12,102)" stroke-width="5" fill-opacity="0.0"></path><path d="
M 131 148.1717597600969 C
163.0429399400242 148.1717597600969
170.4785300299879 152.46469970012112
186.5 180.21469970012112
" stroke="rgb(25,17,102)" stroke-width="5" fill-opacity="0.0"></path><path d="
M 112.5 180.21469970012112 C
128.5214699700121 207.96469970012112
128.5214699700121 216.5505795801696
112.5 244.3005795801696
" stroke="rgb(25,17,102)" stroke-width="5" fill-opacity="0.0"></path><path d="
M 75.5 180.21469970012112 C
59.47853002998788 207.96469970012112
59.47853002998788 216.5505795801696
75.5 244.3005795801696
" stroke="rgb(25,17,102)" stroke-width="5" fill-opacity="0.0"></path><path d="
M 205 148.1717597600969 C
237.0429399400242 148.1717597600969
244.4785300299879 152.46469970012112
260.5 180.21469970012112
" stroke="rgb(25,17,102)" stroke-width="5" fill-opacity="0.0"></path><path d="
M 186.5 180.21469970012112 C
205 212.25763964014536
205 212.25763964014536
223.5 244.3005795801696
" stroke="rgb(25,25,102)" stroke-width="5" fill-opacity="0.0"></path><path d="
M 149.5 180.21469970012112 C
133.4785300299879 207.96469970012112
126.04293994002424 212.25763964014536
94 212.25763964014536
" stroke="rgb(25,14,102)" stroke-width="5" fill-opacity="0.0"></path><path d="
M 149.5 180.21469970012112 C
131 212.25763964014536
131 212.25763964014536
112.5 244.3005795801696
" stroke="rgb(25,17,102)" stroke-width="5" fill-opacity="0.0"></path><path d="
M 279 148.1717597600969 C
246.9570600599758 148.1717597600969
239.5214699700121 152.46469970012112
223.5 180.21469970012112
" stroke="rgb(25,8,102)" stroke-width="5" fill-opacity="0.0"></path><path d="
M 260.5 180.21469970012112 C
276.5214699700121 207.96469970012112
283.9570600599758 212.25763964014536
316 212.25763964014536
" stroke="rgb(25,25,102)" stroke-width="5" fill-opacity="0.0"></path><path d="
M 353 148.1717597600969 C
320.9570600599758 148.1717597600969
313.5214699700121 152.46469970012112
297.5 180.21469970012112
" stroke="rgb(25,21,102)" stroke-width="5" fill-opacity="0.0"></path><path d="
M 353 148.1717597600969 C
385.0429399400242 148.1717597600969
392.4785300299879 152.46469970012112
408.5 180.21469970012112
" stroke="rgb(25,25,102)" stroke-width="5" fill-opacity="0.0"></path><path d="
M 334.5 180.21469970012112 C
350.5214699700121 207.96469970012112
350.5214699700121 216.5505795801696
334.5 244.3005795801696
" stroke="rgb(25,25,102)" stroke-width="5" fill-opacity="0.0"></path><path d="
M 297.5 180.21469970012112 C
281.4785300299879 207.96469970012112
281.4785300299879 216.5505795801696
297.5 244.3005795801696
" stroke="rgb(25,25,102)" stroke-width="5" fill-opacity="0.0"></path><path d="
M 427 148.1717597600969 C
394.9570600599758 148.1717597600969
387.5214699700121 152.46469970012112
371.5 180.21469970012112
" stroke="rgb(25,25,102)" stroke-width="5" fill-opacity="0.0"></path><path d="
M 408.5 180.21469970012112 C
424.5214699700121 207.96469970012112
424.5214699700121 216.5505795801696
408.5 244.3005795801696
" stroke="rgb(25,36,102)" stroke-width="5" fill-opacity="0.0"></path><path d="
M 371.5 180.21469970012112 C
355.4785300299879 207.96469970012112
348.0429399400242 212.25763964014536
316 212.25763964014536
" stroke="rgb(25,30,102)" stroke-width="5" fill-opacity="0.0"></path><path d="
M 371.5 180.21469970012112 C
355.4785300299879 207.96469970012112
355.4785300299879 216.5505795801696
371.5 244.3005795801696
" stroke="rgb(25,36,102)" stroke-width="5" fill-opacity="0.0"></path><path d="
M 371.5 180.21469970012112 C
353 212.25763964014536
353 212.25763964014536
334.5 244.3005795801696
" stroke="rgb(25,30,102)" stroke-width="5" fill-opacity="0.0"></path><path d="
M 445.5 180.21469970012112 C
429.4785300299879 207.96469970012112
422.0429399400242 212.25763964014536
390 212.25763964014536
" stroke="rgb(25,36,102)" stroke-width="5" fill-opacity="0.0"></path><path d="
M 445.5 180.21469970012112 C
429.4785300299879 207.96469970012112
429.4785300299879 216.5505795801696
445.5 244.3005795801696
" stroke="rgb(25,52,102)" stroke-width="5" fill-opacity="0.0"></path><path d="
M 445.5 180.21469970012112 C
427 212.25763964014536
427 212.25763964014536
408.5 244.3005795801696
" stroke="rgb(25,43,102)" stroke-width="5" fill-opacity="0.0"></path><path d="
M 94 212.25763964014536 C
61.95706005997577 212.25763964014536
54.52146997001212 216.5505795801696
38.5 244.3005795801696
" stroke="rgb(25,12,102)" stroke-width="5" fill-opacity="0.0"></path><path d="
M 94 212.25763964014536 C
131 212.25763964014536
131 212.25763964014536
168 212.25763964014536
" stroke="rgb(25,17,102)" stroke-width="5" fill-opacity="0.0"></path><path d="
M 75.5 244.3005795801696 C
94 276.3435195201938
94 276.3435195201938
112.5 308.386459460218
" stroke="rgb(25,21,102)" stroke-width="5" fill-opacity="0.0"></path><path d="
M 75.5 244.3005795801696 C
91.5214699700121 272.0505795801696
91.5214699700121 280.636459460218
75.5 308.386459460218
" stroke="rgb(25,25,102)" stroke-width="5" fill-opacity="0.0"></path><path d="
M 38.5 244.3005795801696 C
20.000000000000007 276.3435195201938
19.999999999999993 276.3435195201938
1.5 308.386459460218
" stroke="rgb(25,8,102)" stroke-width="5" fill-opacity="0.0"></path><path d="
M 168 212.25763964014536 C
205 212.25763964014536
205 212.25763964014536
242 212.25763964014536
" stroke="rgb(25,21,102)" stroke-width="5" fill-opacity="0.0"></path><path d="
M 168 212.25763964014536 C
200.04293994002424 212.25763964014536
207.4785300299879 216.5505795801696
223.5 244.3005795801696
" stroke="rgb(25,25,102)" stroke-width="5" fill-opacity="0.0"></path><path d="
M 149.5 244.3005795801696 C
168 276.3435195201938
168 276.3435195201938
186.5 308.386459460218
" stroke="rgb(25,52,102)" stroke-width="5" fill-opacity="0.0"></path><path d="
M 149.5 244.3005795801696 C
165.5214699700121 272.0505795801696
165.5214699700121 280.636459460218
149.5 308.386459460218
" stroke="rgb(25,36,102)" stroke-width="5" fill-opacity="0.0"></path><path d="
M 112.5 244.3005795801696 C
96.4785300299879 272.0505795801696
89.04293994002423 276.3435195201938
57 276.3435195201938
" stroke="rgb(25,25,102)" stroke-width="5" fill-opacity="0.0"></path><path d="
M 242 212.25763964014536 C
209.95706005997576 212.25763964014536
202.5214699700121 216.5505795801696
186.5 244.3005795801696
" stroke="rgb(25,25,102)" stroke-width="5" fill-opacity="0.0"></path><path d="
M 242 212.25763964014536 C
279 212.25763964014536
279 212.25763964014536
316 212.25763964014536
" stroke="rgb(25,25,102)" stroke-width="5" fill-opacity="0.0"></path><path d="
M 242 212.25763964014536 C
274.0429399400242 212.25763964014536
281.4785300299879 216.5505795801696
297.5 244.3005795801696
" stroke="rgb(25,25,102)" stroke-width="5" fill-opacity="0.0"></path><path d="
M 223.5 244.3005795801696 C
239.5214699700121 272.0505795801696
246.9570600599758 276.3435195201938
279 276.3435195201938
" stroke="rgb(25,30,102)" stroke-width="5" fill-opacity="0.0"></path><path d="
M 223.5 244.3005795801696 C
242 276.3435195201938
242 276.3435195201938
260.5 308.386459460218
" stroke="rgb(25,36,102)" stroke-width="5" fill-opacity="0.0"></path><path d="
M 186.5 244.3005795801696 C
170.4785300299879 272.0505795801696
163.0429399400242 276.3435195201938
131 276.3435195201938
" stroke="rgb(25,36,102)" stroke-width="5" fill-opacity="0.0"></path><path d="
M 316 212.25763964014536 C
348.0429399400242 212.25763964014536
355.4785300299879 216.5505795801696
371.5 244.3005795801696
" stroke="rgb(25,36,102)" stroke-width="5" fill-opacity="0.0"></path><path d="
M 297.5 244.3005795801696 C
313.5214699700121 272.0505795801696
313.5214699700121 280.636459460218
297.5 308.386459460218
" stroke="rgb(25,36,102)" stroke-width="5" fill-opacity="0.0"></path><path d="
M 260.5 244.3005795801696 C
244.4785300299879 272.0505795801696
237.0429399400242 276.3435195201938
205 276.3435195201938
" stroke="rgb(25,25,102)" stroke-width="5" fill-opacity="0.0"></path><path d="
M 260.5 244.3005795801696 C
242 276.3435195201938
242 276.3435195201938
223.5 308.386459460218
" stroke="rgb(25,21,102)" stroke-width="5" fill-opacity="0.0"></path><path d="
M 390 212.25763964014536 C
427 212.25763964014536
427 212.25763964014536
464 212.25763964014536
" stroke="rgb(25,25,102)" stroke-width="5" fill-opacity="0.0"></path><path d="
M 371.5 244.3005795801696 C
387.5214699700121 272.0505795801696
394.9570600599758 276.3435195201938
427 276.3435195201938
" stroke="rgb(25,52,102)" stroke-width="5" fill-opacity="0.0"></path><path d="
M 371.5 244.3005795801696 C
390 276.3435195201938
390 276.3435195201938
408.5 308.386459460218
" stroke="rgb(25,52,102)" stroke-width="5" fill-opacity="0.0"></path><path d="
M 371.5 244.3005795801696 C
387.5214699700121 272.0505795801696
387.5214699700121 280.636459460218
371.5 308.386459460218
" stroke="rgb(25,52,102)" stroke-width="5" fill-opacity="0.0"></path><path d="
M 334.5 244.3005795801696 C
318.4785300299879 272.0505795801696
311.0429399400242 276.3435195201938
279 276.3435195201938
" stroke="rgb(25,30,102)" stroke-width="5" fill-opacity="0.0"></path><path d="
M 334.5 244.3005795801696 C
318.4785300299879 272.0505795801696
318.4785300299879 280.636459460218
334.5 308.386459460218
" stroke="rgb(25,36,102)" stroke-width="5" fill-opacity="0.0"></path><path d="
M 334.5 244.3005795801696 C
316 276.3435195201938
316 276.3435195201938
297.5 308.386459460218
" stroke="rgb(25,36,102)" stroke-width="5" fill-opacity="0.0"></path><path d="
M 445.5 244.3005795801696 C
461.5214699700121 272.0505795801696
468.9570600599758 276.3435195201938
501 276.3435195201938
" stroke="rgb(25,74,102)" stroke-width="5" fill-opacity="0.0"></path><path d="
M 445.5 244.3005795801696 C
464 276.3435195201938
464 276.3435195201938
482.5 308.386459460218
" stroke="rgb(25,52,102)" stroke-width="5" fill-opacity="0.0"></path><path d="
M 408.5 244.3005795801696 C
392.4785300299879 272.0505795801696
392.4785300299879 280.636459460218
408.5 308.386459460218
" stroke="rgb(25,52,102)" stroke-width="5" fill-opacity="0.0"></path><path d="
M 408.5 244.3005795801696 C
390 276.3435195201938
390 276.3435195201938
371.5 308.386459460218
" stroke="rgb(25,52,102)" stroke-width="5" fill-opacity="0.0"></path><path d="
M 57 276.3435195201938 C
94 276.3435195201938
94 276.3435195201938
131 276.3435195201938
" stroke="rgb(25,36,102)" stroke-width="5" fill-opacity="0.0"></path><path d="
M 38.5 308.386459460218 C
54.52146997001211 336.136459460218
61.957060059975774 340.42939940024223
94 340.42939940024223
" stroke="rgb(25,36,102)" stroke-width="5" fill-opacity="0.0"></path><path d="
M 38.5 308.386459460218 C
54.521469970012106 336.136459460218
54.521469970012106 344.72233934026644
38.5 372.47233934026644
" stroke="rgb(25,25,102)" stroke-width="5" fill-opacity="0.0"></path><path d="
M 131 276.3435195201938 C
98.95706005997577 276.3435195201938
91.5214699700121 280.636459460218
75.5 308.386459460218
" stroke="rgb(25,36,102)" stroke-width="5" fill-opacity="0.0"></path><path d="
M 131 276.3435195201938 C
168 276.3435195201938
168 276.3435195201938
205 276.3435195201938
" stroke="rgb(25,36,102)" stroke-width="5" fill-opacity="0.0"></path><path d="
M 131 276.3435195201938 C
163.0429399400242 276.3435195201938
170.4785300299879 280.636459460218
186.5 308.386459460218
" stroke="rgb(25,52,102)" stroke-width="5" fill-opacity="0.0"></path><path d="
M 112.5 308.386459460218 C
128.5214699700121 336.136459460218
135.9570600599758 340.42939940024223
168 340.42939940024223
" stroke="rgb(25,25,102)" stroke-width="5" fill-opacity="0.0"></path><path d="
M 112.5 308.386459460218 C
128.5214699700121 336.136459460218
128.5214699700121 344.72233934026644
112.5 372.47233934026644
" stroke="rgb(25,21,102)" stroke-width="5" fill-opacity="0.0"></path><path d="
M 75.5 308.386459460218 C
57.00000000000001 340.42939940024223
56.99999999999999 340.42939940024223
38.5 372.47233934026644
" stroke="rgb(25,25,102)" stroke-width="5" fill-opacity="0.0"></path><path d="
M 205 276.3435195201938 C
172.9570600599758 276.3435195201938
165.5214699700121 280.636459460218
149.5 308.386459460218
" stroke="rgb(25,30,102)" stroke-width="5" fill-opacity="0.0"></path><path d="
M 205 276.3435195201938 C
242 276.3435195201938
242 276.3435195201938
279 276.3435195201938
" stroke="rgb(25,30,102)" stroke-width="5" fill-opacity="0.0"></path><path d="
M 205 276.3435195201938 C
237.0429399400242 276.3435195201938
244.4785300299879 280.636459460218
260.5 308.386459460218
" stroke="rgb(25,36,102)" stroke-width="5" fill-opacity="0.0"></path><path d="
M 186.5 308.386459460218 C
202.5214699700121 336.136459460218
202.5214699700121 344.72233934026644
186.5 372.47233934026644
" stroke="rgb(25,74,102)" stroke-width="5" fill-opacity="0.0"></path><path d="
M 149.5 308.386459460218 C
133.4785300299879 336.136459460218
126.04293994002423 340.42939940024223
94 340.42939940024223
" stroke="rgb(25,36,102)" stroke-width="5" fill-opacity="0.0"></path><path d="
M 149.5 308.386459460218 C
131 340.42939940024223
131 340.42939940024223
112.5 372.47233934026644
" stroke="rgb(25,25,102)" stroke-width="5" fill-opacity="0.0"></path><path d="
M 279 276.3435195201938 C
246.9570600599758 276.3435195201938
239.5214699700121 280.636459460218
223.5 308.386459460218
" stroke="rgb(25,25,102)" stroke-width="5" fill-opacity="0.0"></path><path d="
M 279 276.3435195201938 C
311.0429399400242 276.3435195201938
318.4785300299879 280.636459460218
334.5 308.386459460218
" stroke="rgb(25,36,102)" stroke-width="5" fill-opacity="0.0"></path><path d="
M 260.5 308.386459460218 C
279 340.42939940024223
279 340.42939940024223
297.5 372.47233934026644
" stroke="rgb(25,36,102)" stroke-width="5" fill-opacity="0.0"></path><path d="
M 260.5 308.386459460218 C
276.5214699700121 336.136459460218
276.5214699700121 344.72233934026644
260.5 372.47233934026644
" stroke="rgb(25,52,102)" stroke-width="5" fill-opacity="0.0"></path><path d="
M 223.5 308.386459460218 C
207.4785300299879 336.136459460218
200.0429399400242 340.42939940024223
168 340.42939940024223
" stroke="rgb(25,25,102)" stroke-width="5" fill-opacity="0.0"></path><path d="
M 353 276.3435195201938 C
320.9570600599758 276.3435195201938
313.5214699700121 280.636459460218
297.5 308.386459460218
" stroke="rgb(25,43,102)" stroke-width="5" fill-opacity="0.0"></path><path d="
M 353 276.3435195201938 C
385.0429399400242 276.3435195201938
392.4785300299879 280.636459460218
408.5 308.386459460218
" stroke="rgb(25,52,102)" stroke-width="5" fill-opacity="0.0"></path><path d="
M 334.5 308.386459460218 C
353 340.42939940024223
353 340.42939940024223
371.5 372.47233934026644
" stroke="rgb(25,52,102)" stroke-width="5" fill-opacity="0.0"></path><path d="
M 297.5 308.386459460218 C
281.4785300299879 336.136459460218
274.0429399400242 340.42939940024223
242 340.42939940024223
" stroke="rgb(25,36,102)" stroke-width="5" fill-opacity="0.0"></path><path d="
M 297.5 308.386459460218 C
281.4785300299879 336.136459460218
281.4785300299879 344.72233934026644
297.5 372.47233934026644
" stroke="rgb(25,36,102)" stroke-width="5" fill-opacity="0.0"></path><path d="
M 297.5 308.386459460218 C
279 340.42939940024223
279 340.42939940024223
260.5 372.47233934026644
" stroke="rgb(25,52,102)" stroke-width="5" fill-opacity="0.0"></path><path d="
M 427 276.3435195201938 C
394.9570600599758 276.3435195201938
387.5214699700121 280.636459460218
371.5 308.386459460218
" stroke="rgb(25,61,102)" stroke-width="5" fill-opacity="0.0"></path><path d="
M 427 276.3435195201938 C
464 276.3435195201938
464 276.3435195201938
501 276.3435195201938
" stroke="rgb(25,74,102)" stroke-width="5" fill-opacity="0.0"></path><path d="
M 427 276.3435195201938 C
459.0429399400242 276.3435195201938
466.4785300299879 280.636459460218
482.5 308.386459460218
" stroke="rgb(25,52,102)" stroke-width="5" fill-opacity="0.0"></path><path d="
M 408.5 308.386459460218 C
424.5214699700121 336.136459460218
424.5214699700121 344.72233934026644
408.5 372.47233934026644
" stroke="rgb(25,74,102)" stroke-width="5" fill-opacity="0.0"></path><path d="
M 371.5 308.386459460218 C
355.4785300299879 336.136459460218
348.0429399400242 340.42939940024223
316 340.42939940024223
" stroke="rgb(25,74,102)" stroke-width="5" fill-opacity="0.0"></path><path d="
M 371.5 308.386459460218 C
355.4785300299879 336.136459460218
355.4785300299879 344.72233934026644
371.5 372.47233934026644
" stroke="rgb(25,61,102)" stroke-width="5" fill-opacity="0.0"></path><path d="
M 501 276.3435195201938 C
468.9570600599758 276.3435195201938
461.5214699700121 280.636459460218
445.5 308.386459460218
" stroke="rgb(25,106,102)" stroke-width="5" fill-opacity="0.0"></path><path d="
M 445.5 308.386459460218 C
429.4785300299879 336.136459460218
429.4785300299879 344.72233934026644
445.5 372.47233934026644
" stroke="rgb(25,152,102)" stroke-width="5" fill-opacity="0.0"></path><path d="
M 445.5 308.386459460218 C
427 340.42939940024223
427 340.42939940024223
408.5 372.47233934026644
" stroke="rgb(25,106,102)" stroke-width="5" fill-opacity="0.0"></path><path d="
M 94 340.42939940024223 C
131 340.42939940024223
131 340.42939940024223
168 340.42939940024223
" stroke="rgb(25,36,102)" stroke-width="5" fill-opacity="0.0"></path><path d="
M 94 340.42939940024223 C
126.04293994002423 340.42939940024223
133.4785300299879 344.72233934026644
149.5 372.47233934026644
" stroke="rgb(25,52,102)" stroke-width="5" fill-opacity="0.0"></path><path d="
M 75.5 372.47233934026644 C
91.5214699700121 400.22233934026644
98.95706005997577 404.51527928029066
131 404.51527928029066
" stroke="rgb(25,106,102)" stroke-width="5" fill-opacity="0.0"></path><path d="
M 75.5 372.47233934026644 C
91.5214699700121 400.22233934026644
91.5214699700121 408.80821922031487
75.5 436.55821922031487
" stroke="rgb(25,87,102)" stroke-width="5" fill-opacity="0.0"></path><path d="
M 168 340.42939940024223 C
135.9570600599758 340.42939940024223
128.5214699700121 344.72233934026644
112.5 372.47233934026644
" stroke="rgb(25,25,102)" stroke-width="5" fill-opacity="0.0"></path><path d="
M 168 340.42939940024223 C
205 340.42939940024223
205 340.42939940024223
242 340.42939940024223
" stroke="rgb(25,30,102)" stroke-width="5" fill-opacity="0.0"></path><path d="
M 168 340.42939940024223 C
200.0429399400242 340.42939940024223
207.4785300299879 344.72233934026644
223.5 372.47233934026644
" stroke="rgb(25,25,102)" stroke-width="5" fill-opacity="0.0"></path><path d="
M 149.5 372.47233934026644 C
168 404.51527928029066
168 404.51527928029066
186.5 436.55821922031487
" stroke="rgb(25,74,102)" stroke-width="5" fill-opacity="0.0"></path><path d="
M 149.5 372.47233934026644 C
165.5214699700121 400.22233934026644
165.5214699700121 408.80821922031487
149.5 436.55821922031487
" stroke="rgb(25,52,102)" stroke-width="5" fill-opacity="0.0"></path><path d="
M 242 340.42939940024223 C
274.0429399400242 340.42939940024223
281.4785300299879 344.72233934026644
297.5 372.47233934026644
" stroke="rgb(25,30,102)" stroke-width="5" fill-opacity="0.0"></path><path d="
M 186.5 372.47233934026644 C
170.4785300299879 400.22233934026644
163.0429399400242 404.51527928029066
131 404.51527928029066
" stroke="rgb(25,106,102)" stroke-width="5" fill-opacity="0.0"></path><path d="
M 186.5 372.47233934026644 C
170.4785300299879 400.22233934026644
170.4785300299879 408.80821922031487
186.5 436.55821922031487
" stroke="rgb(25,87,102)" stroke-width="5" fill-opacity="0.0"></path><path d="
M 316 340.42939940024223 C
283.9570600599758 340.42939940024223
276.5214699700121 344.72233934026644
260.5 372.47233934026644
" stroke="rgb(25,74,102)" stroke-width="5" fill-opacity="0.0"></path><path d="
M 316 340.42939940024223 C
353 340.42939940024223
353 340.42939940024223
390 340.42939940024223
" stroke="rgb(25,106,102)" stroke-width="5" fill-opacity="0.0"></path><path d="
M 316 340.42939940024223 C
348.0429399400242 340.42939940024223
355.4785300299879 344.72233934026644
371.5 372.47233934026644
" stroke="rgb(25,74,102)" stroke-width="5" fill-opacity="0.0"></path><path d="
M 260.5 372.47233934026644 C
244.4785300299879 400.22233934026644
244.4785300299879 408.80821922031487
260.5 436.55821922031487
" stroke="rgb(25,52,102)" stroke-width="5" fill-opacity="0.0"></path><path d="
M 260.5 372.47233934026644 C
242 404.51527928029066
242 404.51527928029066
223.5 436.55821922031487
" stroke="rgb(25,52,102)" stroke-width="5" fill-opacity="0.0"></path><path d="
M 390 340.42939940024223 C
422.0429399400242 340.42939940024223
429.4785300299879 344.72233934026644
445.5 372.47233934026644
" stroke="rgb(25,152,102)" stroke-width="5" fill-opacity="0.0"></path><path d="
M 371.5 372.47233934026644 C
387.5214699700121 400.22233934026644
387.5214699700121 408.80821922031487
371.5 436.55821922031487
" stroke="rgb(25,52,102)" stroke-width="5" fill-opacity="0.0"></path><path d="
M 334.5 372.47233934026644 C
318.4785300299879 400.22233934026644
311.0429399400242 404.51527928029066
279 404.51527928029066
" stroke="rgb(25,17,102)" stroke-width="5" fill-opacity="0.0"></path><path d="
M 334.5 372.47233934026644 C
316 404.51527928029066
316 404.51527928029066
297.5 436.55821922031487
" stroke="rgb(25,12,102)" stroke-width="5" fill-opacity="0.0"></path><path d="
M 464 340.42939940024223 C
431.9570600599758 340.42939940024223
424.5214699700121 344.72233934026644
408.5 372.47233934026644
" stroke="rgb(25,74,102)" stroke-width="5" fill-opacity="0.0"></path><path d="
M 445.5 372.47233934026644 C
461.5214699700121 400.22233934026644
468.9570600599758 404.51527928029066
501 404.51527928029066
" stroke="rgb(25,179,102)" stroke-width="5" fill-opacity="0.0"></path><path d="
M 445.5 372.47233934026644 C
461.5214699700121 400.22233934026644
461.5214699700121 408.80821922031487
445.5 436.55821922031487
" stroke="rgb(25,217,102)" stroke-width="5" fill-opacity="0.0"></path><path d="
M 408.5 372.47233934026644 C
392.4785300299879 400.22233934026644
392.4785300299879 408.80821922031487
408.5 436.55821922031487
" stroke="rgb(25,106,102)" stroke-width="5" fill-opacity="0.0"></path><path d="
M 57 404.51527928029066 C
24.957060059975774 404.51527928029066
17.521469970012113 408.80821922031487
1.5 436.55821922031487
" stroke="rgb(25,217,102)" stroke-width="5" fill-opacity="0.0"></path><path d="
M 57 404.51527928029066 C
94 404.51527928029066
94 404.51527928029066
131 404.51527928029066
" stroke="rgb(25,152,102)" stroke-width="5" fill-opacity="0.0"></path><path d="
M 38.5 436.55821922031487 C
56.99999999999999 468.6011591603391
57.00000000000001 468.6011591603391
75.5 500.6440991003633
" stroke="rgb(25,0,102)" stroke-width="5" fill-opacity="0.0"></path><path d="
M 131 404.51527928029066 C
98.95706005997577 404.51527928029066
91.5214699700121 408.80821922031487
75.5 436.55821922031487
" stroke="rgb(25,106,102)" stroke-width="5" fill-opacity="0.0"></path><path d="
M 131 404.51527928029066 C
163.0429399400242 404.51527928029066
170.4785300299879 408.80821922031487
186.5 436.55821922031487
" stroke="rgb(25,106,102)" stroke-width="5" fill-opacity="0.0"></path><path d="
M 112.5 436.55821922031487 C
128.5214699700121 464.30821922031487
135.9570600599758 468.6011591603391
168 468.6011591603391
" stroke="rgb(25,0,102)" stroke-width="5" fill-opacity="0.0"></path><path d="
M 112.5 436.55821922031487 C
131 468.6011591603391
131 468.6011591603391
149.5 500.6440991003633
" stroke="rgb(25,0,102)" stroke-width="5" fill-opacity="0.0"></path><path d="
M 75.5 436.55821922031487 C
57.00000000000001 468.6011591603391
56.99999999999999 468.6011591603391
38.5 500.6440991003633
" stroke="rgb(25,74,102)" stroke-width="5" fill-opacity="0.0"></path><path d="
M 205 404.51527928029066 C
242 404.51527928029066
242 404.51527928029066
279 404.51527928029066
" stroke="rgb(25,25,102)" stroke-width="5" fill-opacity="0.0"></path><path d="
M 205 404.51527928029066 C
237.0429399400242 404.51527928029066
244.4785300299879 408.80821922031487
260.5 436.55821922031487
" stroke="rgb(25,36,102)" stroke-width="5" fill-opacity="0.0"></path><path d="
M 279 404.51527928029066 C
311.0429399400242 404.51527928029066
318.4785300299879 408.80821922031487
334.5 436.55821922031487
" stroke="rgb(25,17,102)" stroke-width="5" fill-opacity="0.0"></path><path d="
M 260.5 436.55821922031487 C
276.5214699700121 464.30821922031487
283.9570600599758 468.6011591603391
316 468.6011591603391
" stroke="rgb(25,36,102)" stroke-width="5" fill-opacity="0.0"></path><path d="
M 223.5 436.55821922031487 C
205 468.6011591603391
205 468.6011591603391
186.5 500.6440991003633
" stroke="rgb(25,36,102)" stroke-width="5" fill-opacity="0.0"></path><path d="
M 353 404.51527928029066 C
385.0429399400242 404.51527928029066
392.4785300299879 408.80821922031487
408.5 436.55821922031487
" stroke="rgb(25,106,102)" stroke-width="5" fill-opacity="0.0"></path><path d="
M 334.5 436.55821922031487 C
353 468.6011591603391
353 468.6011591603391
371.5 500.6440991003633
" stroke="rgb(25,12,102)" stroke-width="5" fill-opacity="0.0"></path><path d="
M 427 404.51527928029066 C
394.9570600599758 404.51527928029066
387.5214699700121 408.80821922031487
371.5 436.55821922031487
" stroke="rgb(25,36,102)" stroke-width="5" fill-opacity="0.0"></path><path d="
M 427 404.51527928029066 C
459.0429399400242 404.51527928029066
466.4785300299879 408.80821922031487
482.5 436.55821922031487
" stroke="rgb(25,25,102)" stroke-width="5" fill-opacity="0.0"></path><path d="
M 408.5 436.55821922031487 C
424.5214699700121 464.30821922031487
431.9570600599758 468.6011591603391
464 468.6011591603391
" stroke="rgb(25,106,102)" stroke-width="5" fill-opacity="0.0"></path><path d="
M 408.5 436.55821922031487 C
424.5214699700121 464.30821922031487
424.5214699700121 472.8940991003633
408.5 500.6440991003633
" stroke="rgb(25,152,102)" stroke-width="5" fill-opacity="0.0"></path><path d="
M 501 404.51527928029066 C
468.9570600599758 404.51527928029066
461.5214699700121 408.80821922031487
445.5 436.55821922031487
" stroke="rgb(25,217,102)" stroke-width="5" fill-opacity="0.0"></path><path d="
M 445.5 436.55821922031487 C
427 468.6011591603391
427 468.6011591603391
408.5 500.6440991003633
" stroke="rgb(25,217,102)" stroke-width="5" fill-opacity="0.0"></path><path d="
M 94 468.6011591603391 C
126.04293994002423 468.6011591603391
133.4785300299879 472.8940991003633
149.5 500.6440991003633
" stroke="rgb(25,0,102)" stroke-width="5" fill-opacity="0.0"></path><path d="
M 168 468.6011591603391 C
135.9570600599758 468.6011591603391
128.5214699700121 472.8940991003633
112.5 500.6440991003633
" stroke="rgb(25,0,102)" stroke-width="5" fill-opacity="0.0"></path><path d="
M 168 468.6011591603391 C
200.0429399400242 468.6011591603391
207.4785300299879 472.8940991003633
223.5 500.6440991003633
" stroke="rgb(25,0,102)" stroke-width="5" fill-opacity="0.0"></path><path d="
M 242 468.6011591603391 C
209.9570600599758 468.6011591603391
202.5214699700121 472.8940991003633
186.5 500.6440991003633
" stroke="rgb(25,25,102)" stroke-width="5" fill-opacity="0.0"></path><path d="
M 242 468.6011591603391 C
274.0429399400242 468.6011591603391
281.4785300299879 472.8940991003633
297.5 500.6440991003633
" stroke="rgb(25,17,102)" stroke-width="5" fill-opacity="0.0"></path><path d="
M 316 468.6011591603391 C
353 468.6011591603391
353 468.6011591603391
390 468.6011591603391
" stroke="rgb(25,25,102)" stroke-width="5" fill-opacity="0.0"></path><path d="
M 390 468.6011591603391 C
357.9570600599758 468.6011591603391
350.5214699700121 472.8940991003633
334.5 500.6440991003633
" stroke="rgb(25,17,102)" stroke-width="5" fill-opacity="0.0"></path><path d="
M 390 468.6011591603391 C
422.0429399400242 468.6011591603391
429.4785300299879 472.8940991003633
445.5 500.6440991003633
" stroke="rgb(25,17,102)" stroke-width="5" fill-opacity="0.0"></path><line x1="60" y1="20" x2="54" y2="20" stroke="rgb(15,0,5)" stroke-width="2"></line><line x1="40" y1="54.64101615137754" x2="37" y2="49.44486372867091" stroke="rgb(21,0,7)" stroke-width="2"></line><line x1="0" y1="54.64101615137754" x2="3" y2="49.44486372867091" stroke="rgb(10,0,3)" stroke-width="2"></line><line x1="134" y1="20" x2="128" y2="20" stroke="rgb(21,0,7)" stroke-width="2"></line><line x1="114" y1="54.64101615137754" x2="111" y2="49.44486372867091" stroke="rgb(21,0,7)" stroke-width="2"></line><line x1="74" y1="54.64101615137754" x2="77" y2="49.44486372867091" stroke="rgb(21,0,7)" stroke-width="2"></line><line x1="208" y1="20" x2="202" y2="20" stroke="rgb(15,0,5)" stroke-width="2"></line><line x1="188" y1="54.64101615137754" x2="185" y2="49.44486372867091" stroke="rgb(30,0,10)" stroke-width="2"></line><line x1="148" y1="54.64101615137754" x2="151" y2="49.44486372867091" stroke="rgb(21,0,7)" stroke-width="2"></line><line x1="282" y1="20" x2="276" y2="20" stroke="rgb(10,0,3)" stroke-width="2"></line><line x1="262" y1="54.64101615137754" x2="259" y2="49.44486372867091" stroke="rgb(21,0,7)" stroke-width="2"></line><line x1="222" y1="54.64101615137754" x2="225" y2="49.44486372867091" stroke="rgb(30,0,10)" stroke-width="2"></line><line x1="356" y1="20" x2="350" y2="20" stroke="rgb(21,0,7)" stroke-width="2"></line><line x1="336" y1="54.64101615137754" x2="333" y2="49.44486372867091" stroke="rgb(21,0,7)" stroke-width="2"></line><line x1="296" y1="54.64101615137754" x2="299" y2="49.44486372867091" stroke="rgb(15,0,5)" stroke-width="2"></line><line x1="430" y1="20" x2="424" y2="20" stroke="rgb(30,0,10)" stroke-width="2"></line><line x1="410" y1="54.64101615137754" x2="407" y2="49.44486372867091" stroke="rgb(15,0,5)" stroke-width="2"></line><line x1="370" y1="54.64101615137754" x2="373" y2="49.44486372867091" stroke="rgb(44,0,14)" stroke-width="2"></line><line x1="504" y1="20" x2="498" y2="20" stroke="rgb(21,0,7)" stroke-width="2"></line><line x1="484" y1="54.64101615137754" x2="481" y2="49.44486372867091" stroke="rgb(21,0,7)" stroke-width="2"></line><line x1="444" y1="54.64101615137754" x2="447" y2="49.44486372867091" stroke="rgb(21,0,7)" stroke-width="2"></line><line x1="97" y1="84.08587988004845" x2="91" y2="84.08587988004845" stroke="rgb(21,0,7)" stroke-width="2"></line><line x1="77" y1="118.726896031426" x2="74" y2="113.53074360871936" stroke="rgb(30,0,10)" stroke-width="2"></line><line x1="37" y1="118.726896031426" x2="40" y2="113.53074360871936" stroke="rgb(30,0,10)" stroke-width="2"></line><line x1="171" y1="84.08587988004845" x2="165" y2="84.08587988004845" stroke="rgb(21,0,7)" stroke-width="2"></line><line x1="151" y1="118.726896031426" x2="148" y2="113.53074360871936" stroke="rgb(30,0,10)" stroke-width="2"></line><line x1="111" y1="118.726896031426" x2="114" y2="113.53074360871936" stroke="rgb(30,0,10)" stroke-width="2"></line><line x1="245" y1="84.08587988004845" x2="239" y2="84.08587988004845" stroke="rgb(30,0,10)" stroke-width="2"></line><line x1="225" y1="118.726896031426" x2="222" y2="113.53074360871936" stroke="rgb(44,0,14)" stroke-width="2"></line><line x1="185" y1="118.726896031426" x2="188" y2="113.53074360871936" stroke="rgb(30,0,10)" stroke-width="2"></line><line x1="319" y1="84.08587988004845" x2="313" y2="84.08587988004845" stroke="rgb(30,0,10)" stroke-width="2"></line><line x1="299" y1="118.726896031426" x2="296" y2="113.53074360871936" stroke="rgb(44,0,14)" stroke-width="2"></line><line x1="259" y1="118.726896031426" x2="262" y2="113.53074360871936" stroke="rgb(21,0,7)" stroke-width="2"></line><line x1="393" y1="84.08587988004845" x2="387" y2="84.08587988004845" stroke="rgb(30,0,10)" stroke-width="2"></line><line x1="373" y1="118.726896031426" x2="370" y2="113.53074360871936" stroke="rgb(63,0,21)" stroke-width="2"></line><line x1="333" y1="118.726896031426" x2="336" y2="113.53074360871936" stroke="rgb(44,0,14)" stroke-width="2"></line><line x1="467" y1="84.08587988004845" x2="461" y2="84.08587988004845" stroke="rgb(44,0,14)" stroke-width="2"></line><line x1="447" y1="118.726896031426" x2="444" y2="113.53074360871936" stroke="rgb(0,0,0)" stroke-width="2"></line><line x1="407" y1="118.726896031426" x2="410" y2="113.53074360871936" stroke="rgb(63,0,21)" stroke-width="2"></line><line x1="60" y1="148.1717597600969" x2="54" y2="148.1717597600969" stroke="rgb(30,0,10)" stroke-width="2"></line><line x1="40" y1="182.81277591147443" x2="37" y2="177.6166234887678" stroke="rgb(44,0,14)" stroke-width="2"></line><line x1="0" y1="182.81277591147443" x2="3" y2="177.6166234887678" stroke="#040" stroke-width="5" stroke-opacity="0.0"></line><line x1="134" y1="148.1717597600969" x2="128" y2="148.1717597600969" stroke="rgb(44,0,14)" stroke-width="2"></line><line x1="114" y1="182.81277591147443" x2="111" y2="177.6166234887678" stroke="rgb(44,0,14)" stroke-width="2"></line><line x1="74" y1="182.81277591147443" x2="77" y2="177.6166234887678" stroke="rgb(44,0,14)" stroke-width="2"></line><line x1="208" y1="148.1717597600969" x2="202" y2="148.1717597600969" stroke="rgb(44,0,14)" stroke-width="2"></line><line x1="188" y1="182.81277591147443" x2="185" y2="177.6166234887678" stroke="rgb(63,0,21)" stroke-width="2"></line><line x1="148" y1="182.81277591147443" x2="151" y2="177.6166234887678" stroke="rgb(44,0,14)" stroke-width="2"></line><line x1="282" y1="148.1717597600969" x2="276" y2="148.1717597600969" stroke="rgb(30,0,10)" stroke-width="2"></line><line x1="262" y1="182.81277591147443" x2="259" y2="177.6166234887678" stroke="rgb(63,0,21)" stroke-width="2"></line><line x1="222" y1="182.81277591147443" x2="225" y2="177.6166234887678" stroke="rgb(21,0,7)" stroke-width="2"></line><line x1="356" y1="148.1717597600969" x2="350" y2="148.1717597600969" stroke="rgb(63,0,21)" stroke-width="2"></line><line x1="336" y1="182.81277591147443" x2="333" y2="177.6166234887678" stroke="rgb(63,0,21)" stroke-width="2"></line><line x1="296" y1="182.81277591147443" x2="299" y2="177.6166234887678" stroke="rgb(63,0,21)" stroke-width="2"></line><line x1="430" y1="148.1717597600969" x2="424" y2="148.1717597600969" stroke="rgb(63,0,21)" stroke-width="2"></line><line x1="410" y1="182.81277591147443" x2="407" y2="177.6166234887678" stroke="rgb(90,0,30)" stroke-width="2"></line><line x1="370" y1="182.81277591147443" x2="373" y2="177.6166234887678" stroke="rgb(90,0,30)" stroke-width="2"></line><line x1="504" y1="148.1717597600969" x2="498" y2="148.1717597600969" stroke="rgb(0,0,0)" stroke-width="2"></line><line x1="484" y1="182.81277591147443" x2="481" y2="177.6166234887678" stroke="#040" stroke-width="5" stroke-opacity="0.0"></line><line x1="444" y1="182.81277591147443" x2="447" y2="177.6166234887678" stroke="rgb(129,0,43)" stroke-width="2"></line><line x1="97" y1="212.25763964014536" x2="91" y2="212.25763964014536" stroke="rgb(44,0,14)" stroke-width="2"></line><line x1="77" y1="246.8986557915229" x2="74" y2="241.70250336881628" stroke="rgb(63,0,21)" stroke-width="2"></line><line x1="37" y1="246.8986557915229" x2="40" y2="241.70250336881628" stroke="rgb(30,0,10)" stroke-width="2"></line><line x1="171" y1="212.25763964014536" x2="165" y2="212.25763964014536" stroke="rgb(63,0,21)" stroke-width="2"></line><line x1="151" y1="246.8986557915229" x2="148" y2="241.70250336881628" stroke="rgb(129,0,43)" stroke-width="2"></line><line x1="111" y1="246.8986557915229" x2="114" y2="241.70250336881628" stroke="rgb(63,0,21)" stroke-width="2"></line><line x1="245" y1="212.25763964014536" x2="239" y2="212.25763964014536" stroke="rgb(63,0,21)" stroke-width="2"></line><line x1="225" y1="246.8986557915229" x2="222" y2="241.70250336881628" stroke="rgb(90,0,30)" stroke-width="2"></line><line x1="185" y1="246.8986557915229" x2="188" y2="241.70250336881628" stroke="rgb(90,0,30)" stroke-width="2"></line><line x1="319" y1="212.25763964014536" x2="313" y2="212.25763964014536" stroke="rgb(90,0,30)" stroke-width="2"></line><line x1="299" y1="246.8986557915229" x2="296" y2="241.70250336881628" stroke="rgb(90,0,30)" stroke-width="2"></line><line x1="259" y1="246.8986557915229" x2="262" y2="241.70250336881628" stroke="rgb(63,0,21)" stroke-width="2"></line><line x1="393" y1="212.25763964014536" x2="387" y2="212.25763964014536" stroke="rgb(90,0,30)" stroke-width="2"></line><line x1="373" y1="246.8986557915229" x2="370" y2="241.70250336881628" stroke="rgb(129,0,43)" stroke-width="2"></line><line x1="333" y1="246.8986557915229" x2="336" y2="241.70250336881628" stroke="rgb(90,0,30)" stroke-width="2"></line><line x1="467" y1="212.25763964014536" x2="461" y2="212.25763964014536" stroke="rgb(63,0,21)" stroke-width="2"></line><line x1="447" y1="246.8986557915229" x2="444" y2="241.70250336881628" stroke="rgb(184,0,61)" stroke-width="2"></line><line x1="407" y1="246.8986557915229" x2="410" y2="241.70250336881628" stroke="rgb(129,0,43)" stroke-width="2"></line><line x1="60" y1="276.3435195201938" x2="54" y2="276.3435195201938" stroke="rgb(90,0,30)" stroke-width="2"></line><line x1="40" y1="310.98453567157134" x2="37" y2="305.7883832488647" stroke="rgb(90,0,30)" stroke-width="2"></line><line x1="0" y1="310.98453567157134" x2="3" y2="305.7883832488647" stroke="rgb(21,0,7)" stroke-width="2"></line><line x1="134" y1="276.3435195201938" x2="128" y2="276.3435195201938" stroke="rgb(129,0,43)" stroke-width="2"></line><line x1="114" y1="310.98453567157134" x2="111" y2="305.7883832488647" stroke="rgb(63,0,21)" stroke-width="2"></line><line x1="74" y1="310.98453567157134" x2="77" y2="305.7883832488647" stroke="rgb(90,0,30)" stroke-width="2"></line><line x1="208" y1="276.3435195201938" x2="202" y2="276.3435195201938" stroke="rgb(90,0,30)" stroke-width="2"></line><line x1="188" y1="310.98453567157134" x2="185" y2="305.7883832488647" stroke="rgb(184,0,61)" stroke-width="2"></line><line x1="148" y1="310.98453567157134" x2="151" y2="305.7883832488647" stroke="rgb(90,0,30)" stroke-width="2"></line><line x1="282" y1="276.3435195201938" x2="276" y2="276.3435195201938" stroke="rgb(90,0,30)" stroke-width="2"></line><line x1="262" y1="310.98453567157134" x2="259" y2="305.7883832488647" stroke="rgb(129,0,43)" stroke-width="2"></line><line x1="222" y1="310.98453567157134" x2="225" y2="305.7883832488647" stroke="rgb(63,0,21)" stroke-width="2"></line><line x1="356" y1="276.3435195201938" x2="350" y2="276.3435195201938" stroke="rgb(129,0,43)" stroke-width="2"></line><line x1="336" y1="310.98453567157134" x2="333" y2="305.7883832488647" stroke="rgb(129,0,43)" stroke-width="2"></line><line x1="296" y1="310.98453567157134" x2="299" y2="305.7883832488647" stroke="rgb(129,0,43)" stroke-width="2"></line><line x1="430" y1="276.3435195201938" x2="424" y2="276.3435195201938" stroke="rgb(184,0,61)" stroke-width="2"></line><line x1="410" y1="310.98453567157134" x2="407" y2="305.7883832488647" stroke="rgb(184,0,61)" stroke-width="2"></line><line x1="370" y1="310.98453567157134" x2="373" y2="305.7883832488647" stroke="rgb(184,0,61)" stroke-width="2"></line><line x1="504" y1="276.3435195201938" x2="498" y2="276.3435195201938" stroke="rgb(255,0,87)" stroke-width="2"></line><line x1="484" y1="310.98453567157134" x2="481" y2="305.7883832488647" stroke="rgb(129,0,43)" stroke-width="2"></line><line x1="444" y1="310.98453567157134" x2="447" y2="305.7883832488647" stroke="rgb(255,0,125)" stroke-width="2"></line><line x1="97" y1="340.42939940024223" x2="91" y2="340.42939940024223" stroke="rgb(129,0,43)" stroke-width="2"></line><line x1="77" y1="375.07041555161976" x2="74" y2="369.8742631289131" stroke="rgb(255,0,87)" stroke-width="2"></line><line x1="37" y1="375.07041555161976" x2="40" y2="369.8742631289131" stroke="rgb(63,0,21)" stroke-width="2"></line><line x1="171" y1="340.42939940024223" x2="165" y2="340.42939940024223" stroke="rgb(90,0,30)" stroke-width="2"></line><line x1="151" y1="375.07041555161976" x2="148" y2="369.8742631289131" stroke="rgb(184,0,61)" stroke-width="2"></line><line x1="111" y1="375.07041555161976" x2="114" y2="369.8742631289131" stroke="rgb(63,0,21)" stroke-width="2"></line><line x1="245" y1="340.42939940024223" x2="239" y2="340.42939940024223" stroke="rgb(90,0,30)" stroke-width="2"></line><line x1="225" y1="375.07041555161976" x2="222" y2="369.8742631289131" stroke="rgb(63,0,21)" stroke-width="2"></line><line x1="185" y1="375.07041555161976" x2="188" y2="369.8742631289131" stroke="rgb(255,0,87)" stroke-width="2"></line><line x1="319" y1="340.42939940024223" x2="313" y2="340.42939940024223" stroke="rgb(255,0,87)" stroke-width="2"></line><line x1="299" y1="375.07041555161976" x2="296" y2="369.8742631289131" stroke="rgb(90,0,30)" stroke-width="2"></line><line x1="259" y1="375.07041555161976" x2="262" y2="369.8742631289131" stroke="rgb(184,0,61)" stroke-width="2"></line><line x1="393" y1="340.42939940024223" x2="387" y2="340.42939940024223" stroke="rgb(255,0,125)" stroke-width="2"></line><line x1="373" y1="375.07041555161976" x2="370" y2="369.8742631289131" stroke="rgb(184,0,61)" stroke-width="2"></line><line x1="333" y1="375.07041555161976" x2="336" y2="369.8742631289131" stroke="rgb(44,0,14)" stroke-width="2"></line><line x1="467" y1="340.42939940024223" x2="461" y2="340.42939940024223" stroke="rgb(184,0,61)" stroke-width="2"></line><line x1="447" y1="375.07041555161976" x2="444" y2="369.8742631289131" stroke="rgb(255,0,179)" stroke-width="2"></line><line x1="407" y1="375.07041555161976" x2="410" y2="369.8742631289131" stroke="rgb(255,0,87)" stroke-width="2"></line><line x1="60" y1="404.51527928029066" x2="54" y2="404.51527928029066" stroke="rgb(255,0,179)" stroke-width="2"></line><line x1="40" y1="439.1562954316682" x2="37" y2="433.96014300896155" stroke="rgb(0,0,0)" stroke-width="2"></line><line x1="0" y1="439.1562954316682" x2="3" y2="433.96014300896155" stroke="rgb(255,0,255)" stroke-width="2"></line><line x1="134" y1="404.51527928029066" x2="128" y2="404.51527928029066" stroke="rgb(255,0,125)" stroke-width="2"></line><line x1="114" y1="439.1562954316682" x2="111" y2="433.96014300896155" stroke="rgb(0,0,0)" stroke-width="2"></line><line x1="74" y1="439.1562954316682" x2="77" y2="433.96014300896155" stroke="rgb(255,0,87)" stroke-width="2"></line><line x1="208" y1="404.51527928029066" x2="202" y2="404.51527928029066" stroke="rgb(90,0,30)" stroke-width="2"></line><line x1="188" y1="439.1562954316682" x2="185" y2="433.96014300896155" stroke="rgb(255,0,87)" stroke-width="2"></line><line x1="148" y1="439.1562954316682" x2="151" y2="433.96014300896155" stroke="rgb(129,0,43)" stroke-width="2"></line><line x1="282" y1="404.51527928029066" x2="276" y2="404.51527928029066" stroke="rgb(63,0,21)" stroke-width="2"></line><line x1="262" y1="439.1562954316682" x2="259" y2="433.96014300896155" stroke="rgb(129,0,43)" stroke-width="2"></line><line x1="222" y1="439.1562954316682" x2="225" y2="433.96014300896155" stroke="rgb(129,0,43)" stroke-width="2"></line><line x1="356" y1="404.51527928029066" x2="350" y2="404.51527928029066" stroke="rgb(255,0,87)" stroke-width="2"></line><line x1="336" y1="439.1562954316682" x2="333" y2="433.96014300896155" stroke="rgb(44,0,14)" stroke-width="2"></line><line x1="296" y1="439.1562954316682" x2="299" y2="433.96014300896155" stroke="rgb(30,0,10)" stroke-width="2"></line><line x1="430" y1="404.51527928029066" x2="424" y2="404.51527928029066" stroke="rgb(90,0,30)" stroke-width="2"></line><line x1="410" y1="439.1562954316682" x2="407" y2="433.96014300896155" stroke="rgb(255,0,125)" stroke-width="2"></line><line x1="370" y1="439.1562954316682" x2="373" y2="433.96014300896155" stroke="rgb(129,0,43)" stroke-width="2"></line><line x1="504" y1="404.51527928029066" x2="498" y2="404.51527928029066" stroke="rgb(255,0,179)" stroke-width="2"></line><line x1="484" y1="439.1562954316682" x2="481" y2="433.96014300896155" stroke="rgb(63,0,21)" stroke-width="2"></line><line x1="444" y1="439.1562954316682" x2="447" y2="433.96014300896155" stroke="rgb(255,0,255)" stroke-width="2"></line><line x1="97" y1="468.6011591603391" x2="91" y2="468.6011591603391" stroke="rgb(0,0,0)" stroke-width="2"></line><line x1="77" y1="503.2421753117166" x2="74" y2="498.04602288901" stroke="rgb(0,0,0)" stroke-width="2"></line><line x1="37" y1="503.2421753117166" x2="40" y2="498.04602288901" stroke="rgb(184,0,61)" stroke-width="2"></line><line x1="171" y1="468.6011591603391" x2="165" y2="468.6011591603391" stroke="rgb(0,0,0)" stroke-width="2"></line><line x1="151" y1="503.2421753117166" x2="148" y2="498.04602288901" stroke="rgb(0,0,0)" stroke-width="2"></line><line x1="111" y1="503.2421753117166" x2="114" y2="498.04602288901" stroke="rgb(0,0,0)" stroke-width="2"></line><line x1="245" y1="468.6011591603391" x2="239" y2="468.6011591603391" stroke="rgb(63,0,21)" stroke-width="2"></line><line x1="225" y1="503.2421753117166" x2="222" y2="498.04602288901" stroke="rgb(0,0,0)" stroke-width="2"></line><line x1="185" y1="503.2421753117166" x2="188" y2="498.04602288901" stroke="rgb(90,0,30)" stroke-width="2"></line><line x1="319" y1="468.6011591603391" x2="313" y2="468.6011591603391" stroke="rgb(90,0,30)" stroke-width="2"></line><line x1="299" y1="503.2421753117166" x2="296" y2="498.04602288901" stroke="rgb(44,0,14)" stroke-width="2"></line><line x1="259" y1="503.2421753117166" x2="262" y2="498.04602288901" stroke="#040" stroke-width="5" stroke-opacity="0.0"></line><line x1="393" y1="468.6011591603391" x2="387" y2="468.6011591603391" stroke="rgb(63,0,21)" stroke-width="2"></line><line x1="373" y1="503.2421753117166" x2="370" y2="498.04602288901" stroke="rgb(30,0,10)" stroke-width="2"></line><line x1="333" y1="503.2421753117166" x2="336" y2="498.04602288901" stroke="rgb(44,0,14)" stroke-width="2"></line><line x1="467" y1="468.6011591603391" x2="461" y2="468.6011591603391" stroke="rgb(255,0,87)" stroke-width="2"></line><line x1="447" y1="503.2421753117166" x2="444" y2="498.04602288901" stroke="rgb(44,0,14)" stroke-width="2"></line><line x1="407" y1="503.2421753117166" x2="410" y2="498.04602288901" stroke="rgb(255,0,179)" stroke-width="2"></line></svg>
