<svg xmlns="http://www.w3.org/2000/svg" version="1.1"><path d="
M 56 20 C
92 20
92 20
128 20
" stroke="rgb(25,179,102)" stroke-width="5" fill-opacity="0.0"></path><path d="
M 56 20 C
87.17691453623979 20
94.4115427318801 24.176914536239792
110 51.17691453623979
" stroke="rgb(25,179,102)" stroke-width="5" fill-opacity="0.0"></path><path d="
M 38 51.17691453623979 C
53.588457268119896 78.17691453623979
60.82308546376021 82.35382907247958
92 82.35382907247958
" stroke="rgb(25,179,102)" stroke-width="5" fill-opacity="0.0"></path><path d="
M 38 51.17691453623979 C
56 82.35382907247958
56 82.35382907247958
74 113.53074360871938
" stroke="rgb(25,179,102)" stroke-width="5" fill-opacity="0.0"></path><path d="
M 128 20 C
164 20
164 20
200 20
" stroke="rgb(25,179,102)" stroke-width="5" fill-opacity="0.0"></path><path d="
M 128 20 C
159.1769145362398 20
166.4115427318801 24.176914536239792
182 51.17691453623979
" stroke="rgb(25,179,102)" stroke-width="5" fill-opacity="0.0"></path><path d="
M 110 51.17691453623979 C
128 82.35382907247958
128 82.35382907247958
146 113.53074360871938
" stroke="rgb(25,179,102)" stroke-width="5" fill-opacity="0.0"></path><path d="
M 110 51.17691453623979 C
125.5884572681199 78.17691453623979
125.5884572681199 86.53074360871938
110 113.53074360871938
" stroke="rgb(25,179,102)" stroke-width="5" fill-opacity="0.0"></path><path d="
M 74 51.17691453623979 C
58.411542731880104 78.17691453623979
58.411542731880104 86.53074360871938
74 113.53074360871938
" stroke="rgb(25,179,102)" stroke-width="5" fill-opacity="0.0"></path><path d="
M 74 51.17691453623979 C
56 82.35382907247958
56 82.35382907247958
38 113.53074360871938
" stroke="rgb(25,179,102)" stroke-width="5" fill-opacity="0.0"></path><path d="
M 200 20 C
168.8230854637602 20
161.5884572681199 24.176914536239792
146 51.17691453623979
" stroke="rgb(25,179,102)" stroke-width="5" fill-opacity="0.0"></path><path d="
M 200 20 C
236 20
236 20
272 20
" stroke="rgb(25,179,102)" stroke-width="5" fill-opacity="0.0"></path><path d="
M 182 51.17691453623979 C
200 82.35382907247958
200 82.35382907247958
218 113.53074360871938
" stroke="rgb(25,179,102)" stroke-width="5" fill-opacity="0.0"></path><path d="
M 182 51.17691453623979 C
197.5884572681199 78.17691453623979
197.5884572681199 86.53074360871938
182 113.53074360871938
" stroke="rgb(25,179,102)" stroke-width="5" fill-opacity="0.0"></path><path d="
M 146 51.17691453623979 C
128 82.35382907247958
128 82.35382907247958
110 113.53074360871938
" stroke="rgb(25,179,102)" stroke-width="5" fill-opacity="0.0"></path><path d="
M 272 20 C
240.8230854637602 20
233.5884572681199 24.176914536239792
218 51.17691453623979
" stroke="rgb(25,179,102)" stroke-width="5" fill-opacity="0.0"></path><path d="
M 272 20 C
308 20
308 20
344 20
" stroke="rgb(25,179,102)" stroke-width="5" fill-opacity="0.0"></path><path d="
M 272 20 C
303.1769145362398 20
310.4115427318801 24.176914536239792
326 51.17691453623979
" stroke="rgb(25,179,102)" stroke-width="5" fill-opacity="0.0"></path><path d="
M 254 51.17691453623979 C
269.5884572681199 78.17691453623979
276.8230854637602 82.35382907247958
308 82.35382907247958
" stroke="rgb(25,179,102)" stroke-width="5" fill-opacity="0.0"></path><path d="
M 254 51.17691453623979 C
272 82.35382907247958
272 82.35382907247958
290 113.53074360871938
" stroke="rgb(25,179,102)" stroke-width="5" fill-opacity="0.0"></path><path d="
M 218 51.17691453623979 C
202.4115427318801 78.17691453623979
202.4115427318801 86.53074360871938
218 113.53074360871938
" stroke="rgb(25,179,102)" stroke-width="5" fill-opacity="0.0"></path><path d="
M 218 51.17691453623979 C
200 82.35382907247958
200 82.35382907247958
182 113.53074360871938
" stroke="rgb(25,179,102)" stroke-width="5" fill-opacity="0.0"></path><path d="
M 344 20 C
312.8230854637602 20
305.5884572681199 24.176914536239792
290 51.17691453623979
" stroke="rgb(25,179,102)" stroke-width="5" fill-opacity="0.0"></path><path d="
M 344 20 C
380 20
380 20
416 20
" stroke="rgb(25,179,102)" stroke-width="5" fill-opacity="0.0"></path><path d="
M 326 51.17691453623979 C
344 82.35382907247958
344 82.35382907247958
362 113.53074360871938
" stroke="rgb(25,179,102)" stroke-width="5" fill-opacity="0.0"></path><path d="
M 290 51.17691453623979 C
274.4115427318801 78.17691453623979
274.4115427318801 86.53074360871938
290 113.53074360871938
" stroke="rgb(25,179,102)" stroke-width="5" fill-opacity="0.0"></path><path d="
M 290 51.17691453623979 C
272 82.35382907247958
272 82.35382907247958
254 113.53074360871938
" stroke="rgb(25,179,102)" stroke-width="5" fill-opacity="0.0"></path><path d="
M 416 20 C
452 20
452 20
488 20
" stroke="rgb(25,179,102)" stroke-width="5" fill-opacity="0.0"></path><path d="
M 398 51.17691453623979 C
416 82.35382907247958
416 82.35382907247958
434 113.53074360871938
" stroke="rgb(25,179,102)" stroke-width="5" fill-opacity="0.0"></path><path d="
M 362 51.17691453623979 C
344 82.35382907247958
344 82.35382907247958
326 113.53074360871938
" stroke="rgb(25,179,102)" stroke-width="5" fill-opacity="0.0"></path><path d="
M 488 20 C
456.8230854637602 20
449.5884572681199 24.176914536239792
434 51.17691453623979
" stroke="rgb(25,179,102)" stroke-width="5" fill-opacity="0.0"></path><path d="
M 470 51.17691453623979 C
485.5884572681199 78.17691453623979
492.8230854637602 82.35382907247958
524 82.35382907247958
" stroke="rgb(25,179,102)" stroke-width="5" fill-opacity="0.0"></path><path d="
M 470 51.17691453623979 C
488 82.35382907247958
488 82.35382907247958
506 113.53074360871938
" stroke="rgb(25,179,102)" stroke-width="5" fill-opacity="0.0"></path><path d="
M 470 51.17691453623979 C
485.5884572681199 78.17691453623979
485.5884572681199 86.53074360871938
470 113.53074360871938
" stroke="rgb(25,179,102)" stroke-width="5" fill-opacity="0.0"></path><path d="
M 434 51.17691453623979 C
418.4115427318801 78.17691453623979
418.4115427318801 86.53074360871938
434 113.53074360871938
" stroke="rgb(25,179,102)" stroke-width="5" fill-opacity="0.0"></path><path d="
M 434 51.17691453623979 C
416 82.35382907247958
416 82.35382907247958
398 113.53074360871938
" stroke="rgb(25,179,102)" stroke-width="5" fill-opacity="0.0"></path><path d="
M 92 82.35382907247958 C
128 82.35382907247958
128 82.35382907247958
164 82.35382907247958
" stroke="rgb(25,179,102)" stroke-width="5" fill-opacity="0.0"></path><path d="
M 92 82.35382907247958 C
123.17691453623979 82.35382907247958
130.4115427318801 86.53074360871938
146 113.53074360871938
" stroke="rgb(25,179,102)" stroke-width="5" fill-opacity="0.0"></path><path d="
M 74 113.53074360871938 C
92 144.70765814495917
92 144.70765814495917
110 175.88457268119896
" stroke="rgb(25,179,102)" stroke-width="5" fill-opacity="0.0"></path><path d="
M 38 113.53074360871938 C
20 144.70765814495917
20 144.70765814495917
2 175.88457268119896
" stroke="rgb(25,179,102)" stroke-width="5" fill-opacity="0.0"></path><path d="
M 164 82.35382907247958 C
132.8230854637602 82.35382907247958
125.5884572681199 86.53074360871938
110 113.53074360871938
" stroke="rgb(25,179,102)" stroke-width="5" fill-opacity="0.0"></path><path d="
M 164 82.35382907247958 C
200 82.35382907247958
200 82.35382907247958
236 82.35382907247958
" stroke="rgb(25,179,102)" stroke-width="5" fill-opacity="0.0"></path><path d="
M 146 113.53074360871938 C
164 144.70765814495917
164 144.70765814495917
182 175.88457268119896
" stroke="rgb(25,179,102)" stroke-width="5" fill-opacity="0.0"></path><path d="
M 146 113.53074360871938 C
161.5884572681199 140.53074360871938
161.5884572681199 148.88457268119896
146 175.88457268119896
" stroke="rgb(25,179,102)" stroke-width="5" fill-opacity="0.0"></path><path d="
M 110 113.53074360871938 C
92 144.70765814495917
92 144.70765814495917
74 175.88457268119896
" stroke="rgb(25,179,102)" stroke-width="5" fill-opacity="0.0"></path><path d="
M 236 82.35382907247958 C
272 82.35382907247958
272 82.35382907247958
308 82.35382907247958
" stroke="rgb(25,179,102)" stroke-width="5" fill-opacity="0.0"></path><path d="
M 236 82.35382907247958 C
267.1769145362398 82.35382907247958
274.4115427318801 86.53074360871938
290 113.53074360871938
" stroke="rgb(25,179,102)" stroke-width="5" fill-opacity="0.0"></path><path d="
M 218 113.53074360871938 C
233.5884572681199 140.53074360871938
240.8230854637602 144.70765814495917
272 144.70765814495917
" stroke="rgb(25,179,102)" stroke-width="5" fill-opacity="0.0"></path><path d="
M 218 113.53074360871938 C
236 144.70765814495917
236 144.70765814495917
254 175.88457268119896
" stroke="rgb(25,179,102)" stroke-width="5" fill-opacity="0.0"></path><path d="
M 218 113.53074360871938 C
233.5884572681199 140.53074360871938
233.5884572681199 148.88457268119896
218 175.88457268119896
" stroke="rgb(25,179,102)" stroke-width="5" fill-opacity="0.0"></path><path d="
M 182 113.53074360871938 C
166.4115427318801 140.53074360871938
159.1769145362398 144.70765814495917
128 144.70765814495917
" stroke="rgb(25,179,102)" stroke-width="5" fill-opacity="0.0"></path><path d="
M 182 113.53074360871938 C
164 144.70765814495917
164 144.70765814495917
146 175.88457268119896
" stroke="rgb(25,179,102)" stroke-width="5" fill-opacity="0.0"></path><path d="
M 308 82.35382907247958 C
276.8230854637602 82.35382907247958
269.5884572681199 86.53074360871938
254 113.53074360871938
" stroke="rgb(25,179,102)" stroke-width="5" fill-opacity="0.0"></path><path d="
M 308 82.35382907247958 C
344 82.35382907247958
344 82.35382907247958
380 82.35382907247958
" stroke="rgb(25,179,102)" stroke-width="5" fill-opacity="0.0"></path><path d="
M 290 113.53074360871938 C
308 144.70765814495917
308 144.70765814495917
326 175.88457268119896
" stroke="rgb(25,179,102)" stroke-width="5" fill-opacity="0.0"></path><path d="
M 254 113.53074360871938 C
238.4115427318801 140.53074360871938
238.4115427318801 148.88457268119896
254 175.88457268119896
" stroke="rgb(25,179,102)" stroke-width="5" fill-opacity="0.0"></path><path d="
M 254 113.53074360871938 C
236 144.70765814495917
236 144.70765814495917
218 175.88457268119896
" stroke="rgb(25,179,102)" stroke-width="5" fill-opacity="0.0"></path><path d="
M 380 82.35382907247958 C
416 82.35382907247958
416 82.35382907247958
452 82.35382907247958
" stroke="rgb(25,179,102)" stroke-width="5" fill-opacity="0.0"></path><path d="
M 380 82.35382907247958 C
411.1769145362398 82.35382907247958
418.4115427318801 86.53074360871938
434 113.53074360871938
" stroke="rgb(25,179,102)" stroke-width="5" fill-opacity="0.0"></path><path d="
M 362 113.53074360871938 C
380 144.70765814495917
380 144.70765814495917
398 175.88457268119896
" stroke="rgb(25,179,102)" stroke-width="5" fill-opacity="0.0"></path><path d="
M 326 113.53074360871938 C
310.4115427318801 140.53074360871938
303.1769145362398 144.70765814495917
272 144.70765814495917
" stroke="rgb(25,179,102)" stroke-width="5" fill-opacity="0.0"></path><path d="
M 326 113.53074360871938 C
308 144.70765814495917
308 144.70765814495917
290 175.88457268119896
" stroke="rgb(25,179,102)" stroke-width="5" fill-opacity="0.0"></path><path d="
M 452 82.35382907247958 C
420.8230854637602 82.35382907247958
413.5884572681199 86.53074360871938
398 113.53074360871938
" stroke="rgb(25,179,102)" stroke-width="5" fill-opacity="0.0"></path><path d="
M 452 82.35382907247958 C
488 82.35382907247958
488 82.35382907247958
524 82.35382907247958
" stroke="rgb(25,179,102)" stroke-width="5" fill-opacity="0.0"></path><path d="
M 452 82.35382907247958 C
483.1769145362398 82.35382907247958
490.4115427318801 86.53074360871938
506 113.53074360871938
" stroke="rgb(25,179,102)" stroke-width="5" fill-opacity="0.0"></path><path d="
M 434 113.53074360871938 C
452 144.70765814495917
452 144.70765814495917
470 175.88457268119896
" stroke="rgb(25,179,102)" stroke-width="5" fill-opacity="0.0"></path><path d="
M 398 113.53074360871938 C
382.4115427318801 140.53074360871938
375.1769145362398 144.70765814495917
344 144.70765814495917
" stroke="rgb(25,179,102)" stroke-width="5" fill-opacity="0.0"></path><path d="
M 398 113.53074360871938 C
380 144.70765814495917
380 144.70765814495917
362 175.88457268119896
" stroke="rgb(25,179,102)" stroke-width="5" fill-opacity="0.0"></path><path d="
M 470 113.53074360871938 C
452 144.70765814495917
452 144.70765814495917
434 175.88457268119896
" stroke="rgb(25,179,102)" stroke-width="5" fill-opacity="0.0"></path><path d="
M 56 144.70765814495917 C
24.823085463760208 144.70765814495917
17.588457268119896 148.88457268119896
2 175.88457268119896
" stroke="rgb(25,179,102)" stroke-width="5" fill-opacity="0.0"></path><path d="
M 56 144.70765814495917 C
92 144.70765814495917
92 144.70765814495917
128 144.70765814495917
" stroke="rgb(25,179,102)" stroke-width="5" fill-opacity="0.0"></path><path d="
M 38 175.88457268119896 C
53.588457268119896 202.88457268119896
60.82308546376021 207.06148721743875
92 207.06148721743875
" stroke="rgb(25,179,102)" stroke-width="5" fill-opacity="0.0"></path><path d="
M 38 175.88457268119896 C
56 207.06148721743875
56 207.06148721743875
74 238.23840175367854
" stroke="rgb(25,179,102)" stroke-width="5" fill-opacity="0.0"></path><path d="
M 38 175.88457268119896 C
53.588457268119896 202.88457268119896
53.588457268119896 211.23840175367854
38 238.23840175367854
" stroke="rgb(25,179,102)" stroke-width="5" fill-opacity="0.0"></path><path d="
M 128 144.70765814495917 C
96.82308546376021 144.70765814495917
89.5884572681199 148.88457268119896
74 175.88457268119896
" stroke="rgb(25,179,102)" stroke-width="5" fill-opacity="0.0"></path><path d="
M 128 144.70765814495917 C
164 144.70765814495917
164 144.70765814495917
200 144.70765814495917
" stroke="rgb(25,179,102)" stroke-width="5" fill-opacity="0.0"></path><path d="
M 128 144.70765814495917 C
159.1769145362398 144.70765814495917
166.4115427318801 148.88457268119896
182 175.88457268119896
" stroke="rgb(25,179,102)" stroke-width="5" fill-opacity="0.0"></path><path d="
M 110 175.88457268119896 C
128 207.06148721743875
128 207.06148721743875
146 238.23840175367854
" stroke="rgb(25,179,102)" stroke-width="5" fill-opacity="0.0"></path><path d="
M 74 175.88457268119896 C
56 207.06148721743875
56 207.06148721743875
38 238.23840175367854
" stroke="rgb(25,179,102)" stroke-width="5" fill-opacity="0.0"></path><path d="
M 200 144.70765814495917 C
168.8230854637602 144.70765814495917
161.5884572681199 148.88457268119896
146 175.88457268119896
" stroke="rgb(25,179,102)" stroke-width="5" fill-opacity="0.0"></path><path d="
M 200 144.70765814495917 C
236 144.70765814495917
236 144.70765814495917
272 144.70765814495917
" stroke="rgb(25,179,102)" stroke-width="5" fill-opacity="0.0"></path><path d="
M 182 175.88457268119896 C
197.5884572681199 202.88457268119896
204.8230854637602 207.06148721743875
236 207.06148721743875
" stroke="rgb(25,179,102)" stroke-width="5" fill-opacity="0.0"></path><path d="
M 182 175.88457268119896 C
200 207.06148721743875
200 207.06148721743875
218 238.23840175367854
" stroke="rgb(25,179,102)" stroke-width="5" fill-opacity="0.0"></path><path d="
M 182 175.88457268119896 C
197.5884572681199 202.88457268119896
197.5884572681199 211.23840175367854
182 238.23840175367854
" stroke="rgb(25,179,102)" stroke-width="5" fill-opacity="0.0"></path><path d="
M 146 175.88457268119896 C
130.4115427318801 202.88457268119896
123.17691453623979 207.06148721743875
92 207.06148721743875
" stroke="rgb(25,179,102)" stroke-width="5" fill-opacity="0.0"></path><path d="
M 146 175.88457268119896 C
128 207.06148721743875
128 207.06148721743875
110 238.23840175367854
" stroke="rgb(25,179,102)" stroke-width="5" fill-opacity="0.0"></path><path d="
M 272 144.70765814495917 C
240.8230854637602 144.70765814495917
233.5884572681199 148.88457268119896
218 175.88457268119896
" stroke="rgb(25,179,102)" stroke-width="5" fill-opacity="0.0"></path><path d="
M 272 144.70765814495917 C
308 144.70765814495917
308 144.70765814495917
344 144.70765814495917
" stroke="rgb(25,179,102)" stroke-width="5" fill-opacity="0.0"></path><path d="
M 272 144.70765814495917 C
303.1769145362398 144.70765814495917
310.4115427318801 148.88457268119896
326 175.88457268119896
" stroke="rgb(25,179,102)" stroke-width="5" fill-opacity="0.0"></path><path d="
M 254 175.88457268119896 C
269.5884572681199 202.88457268119896
276.8230854637602 207.06148721743875
308 207.06148721743875
" stroke="rgb(25,179,102)" stroke-width="5" fill-opacity="0.0"></path><path d="
M 254 175.88457268119896 C
272 207.06148721743875
272 207.06148721743875
290 238.23840175367854
" stroke="rgb(25,179,102)" stroke-width="5" fill-opacity="0.0"></path><path d="
M 254 175.88457268119896 C
269.5884572681199 202.88457268119896
269.5884572681199 211.23840175367854
254 238.23840175367854
" stroke="rgb(25,179,102)" stroke-width="5" fill-opacity="0.0"></path><path d="
M 218 175.88457268119896 C
202.4115427318801 202.88457268119896
202.4115427318801 211.23840175367854
218 238.23840175367854
" stroke="rgb(25,179,102)" stroke-width="5" fill-opacity="0.0"></path><path d="
M 218 175.88457268119896 C
200 207.06148721743875
200 207.06148721743875
182 238.23840175367854
" stroke="rgb(25,179,102)" stroke-width="5" fill-opacity="0.0"></path><path d="
M 344 144.70765814495917 C
380 144.70765814495917
380 144.70765814495917
416 144.70765814495917
" stroke="rgb(25,179,102)" stroke-width="5" fill-opacity="0.0"></path><path d="
M 344 144.70765814495917 C
375.1769145362398 144.70765814495917
382.4115427318801 148.88457268119896
398 175.88457268119896
" stroke="rgb(25,179,102)" stroke-width="5" fill-opacity="0.0"></path><path d="
M 326 175.88457268119896 C
341.5884572681199 202.88457268119896
348.8230854637602 207.06148721743875
380 207.06148721743875
" stroke="rgb(25,179,102)" stroke-width="5" fill-opacity="0.0"></path><path d="
M 326 175.88457268119896 C
344 207.06148721743875
344 207.06148721743875
362 238.23840175367854
" stroke="rgb(25,179,102)" stroke-width="5" fill-opacity="0.0"></path><path d="
M 326 175.88457268119896 C
341.5884572681199 202.88457268119896
341.5884572681199 211.23840175367854
326 238.23840175367854
" stroke="rgb(25,179,102)" stroke-width="5" fill-opacity="0.0"></path><path d="
M 290 175.88457268119896 C
272 207.06148721743875
272 207.06148721743875
254 238.23840175367854
" stroke="rgb(25,179,102)" stroke-width="5" fill-opacity="0.0"></path><path d="
M 416 144.70765814495917 C
384.8230854637602 144.70765814495917
377.5884572681199 148.88457268119896
362 175.88457268119896
" stroke="rgb(25,179,102)" stroke-width="5" fill-opacity="0.0"></path><path d="
M 416 144.70765814495917 C
452 144.70765814495917
452 144.70765814495917
488 144.70765814495917
" stroke="rgb(25,179,102)" stroke-width="5" fill-opacity="0.0"></path><path d="
M 416 144.70765814495917 C
447.1769145362398 144.70765814495917
454.4115427318801 148.88457268119896
470 175.88457268119896
" stroke="rgb(25,179,102)" stroke-width="5" fill-opacity="0.0"></path><path d="
M 398 175.88457268119896 C
416 207.06148721743875
416 207.06148721743875
434 238.23840175367854
" stroke="rgb(25,179,102)" stroke-width="5" fill-opacity="0.0"></path><path d="
M 398 175.88457268119896 C
413.5884572681199 202.88457268119896
413.5884572681199 211.23840175367854
398 238.23840175367854
" stroke="rgb(25,179,102)" stroke-width="5" fill-opacity="0.0"></path><path d="
M 362 175.88457268119896 C
346.4115427318801 202.88457268119896
339.1769145362398 207.06148721743875
308 207.06148721743875
" stroke="rgb(25,179,102)" stroke-width="5" fill-opacity="0.0"></path><path d="
M 362 175.88457268119896 C
344 207.06148721743875
344 207.06148721743875
326 238.23840175367854
" stroke="rgb(25,179,102)" stroke-width="5" fill-opacity="0.0"></path><path d="
M 488 144.70765814495917 C
456.8230854637602 144.70765814495917
449.5884572681199 148.88457268119896
434 175.88457268119896
" stroke="rgb(25,179,102)" stroke-width="5" fill-opacity="0.0"></path><path d="
M 470 175.88457268119896 C
488 207.06148721743875
488 207.06148721743875
506 238.23840175367854
" stroke="rgb(25,179,102)" stroke-width="5" fill-opacity="0.0"></path><path d="
M 470 175.88457268119896 C
485.5884572681199 202.88457268119896
485.5884572681199 211.23840175367854
470 238.23840175367854
" stroke="rgb(25,179,102)" stroke-width="5" fill-opacity="0.0"></path><path d="
M 434 175.88457268119896 C
418.4115427318801 202.88457268119896
411.1769145362398 207.06148721743875
380 207.06148721743875
" stroke="rgb(25,179,102)" stroke-width="5" fill-opacity="0.0"></path><path d="
M 434 175.88457268119896 C
418.4115427318801 202.88457268119896
418.4115427318801 211.23840175367854
434 238.23840175367854
" stroke="rgb(25,179,102)" stroke-width="5" fill-opacity="0.0"></path><path d="
M 434 175.88457268119896 C
416 207.06148721743875
416 207.06148721743875
398 238.23840175367854
" stroke="rgb(25,179,102)" stroke-width="5" fill-opacity="0.0"></path><path d="
M 92 207.06148721743875 C
128 207.06148721743875
128 207.06148721743875
164 207.06148721743875
" stroke="rgb(25,179,102)" stroke-width="5" fill-opacity="0.0"></path><path d="
M 92 207.06148721743875 C
123.17691453623979 207.06148721743875
130.4115427318801 211.23840175367854
146 238.23840175367854
" stroke="rgb(25,179,102)" stroke-width="5" fill-opacity="0.0"></path><path d="
M 74 238.23840175367854 C
92 269.41531628991834
92 269.41531628991834
110 300.59223082615813
" stroke="rgb(25,179,102)" stroke-width="5" fill-opacity="0.0"></path><path d="
M 38 238.23840175367854 C
22.411542731880104 265.23840175367854
22.411542731880104 273.59223082615813
38 300.59223082615813
" stroke="rgb(25,179,102)" stroke-width="5" fill-opacity="0.0"></path><path d="
M 38 238.23840175367854 C
20 269.41531628991834
20 269.41531628991834
2 300.59223082615813
" stroke="rgb(25,179,102)" stroke-width="5" fill-opacity="0.0"></path><path d="
M 164 207.06148721743875 C
132.8230854637602 207.06148721743875
125.5884572681199 211.23840175367854
110 238.23840175367854
" stroke="rgb(25,179,102)" stroke-width="5" fill-opacity="0.0"></path><path d="
M 164 207.06148721743875 C
200 207.06148721743875
200 207.06148721743875
236 207.06148721743875
" stroke="rgb(25,179,102)" stroke-width="5" fill-opacity="0.0"></path><path d="
M 164 207.06148721743875 C
195.1769145362398 207.06148721743875
202.4115427318801 211.23840175367854
218 238.23840175367854
" stroke="rgb(25,179,102)" stroke-width="5" fill-opacity="0.0"></path><path d="
M 146 238.23840175367854 C
164 269.41531628991834
164 269.41531628991834
182 300.59223082615813
" stroke="rgb(25,179,102)" stroke-width="5" fill-opacity="0.0"></path><path d="
M 110 238.23840175367854 C
94.4115427318801 265.23840175367854
87.17691453623979 269.41531628991834
56 269.41531628991834
" stroke="rgb(25,179,102)" stroke-width="5" fill-opacity="0.0"></path><path d="
M 110 238.23840175367854 C
92 269.41531628991834
92 269.41531628991834
74 300.59223082615813
" stroke="rgb(25,179,102)" stroke-width="5" fill-opacity="0.0"></path><path d="
M 236 207.06148721743875 C
204.8230854637602 207.06148721743875
197.5884572681199 211.23840175367854
182 238.23840175367854
" stroke="rgb(25,179,102)" stroke-width="5" fill-opacity="0.0"></path><path d="
M 236 207.06148721743875 C
272 207.06148721743875
272 207.06148721743875
308 207.06148721743875
" stroke="rgb(25,179,102)" stroke-width="5" fill-opacity="0.0"></path><path d="
M 236 207.06148721743875 C
267.1769145362398 207.06148721743875
274.4115427318801 211.23840175367854
290 238.23840175367854
" stroke="rgb(25,179,102)" stroke-width="5" fill-opacity="0.0"></path><path d="
M 218 238.23840175367854 C
236 269.41531628991834
236 269.41531628991834
254 300.59223082615813
" stroke="rgb(25,179,102)" stroke-width="5" fill-opacity="0.0"></path><path d="
M 218 238.23840175367854 C
233.5884572681199 265.23840175367854
233.5884572681199 273.59223082615813
218 300.59223082615813
" stroke="rgb(25,179,102)" stroke-width="5" fill-opacity="0.0"></path><path d="
M 182 238.23840175367854 C
166.4115427318801 265.23840175367854
166.4115427318801 273.59223082615813
182 300.59223082615813
" stroke="rgb(25,179,102)" stroke-width="5" fill-opacity="0.0"></path><path d="
M 182 238.23840175367854 C
164 269.41531628991834
164 269.41531628991834
146 300.59223082615813
" stroke="rgb(25,179,102)" stroke-width="5" fill-opacity="0.0"></path><path d="
M 308 207.06148721743875 C
344 207.06148721743875
344 207.06148721743875
380 207.06148721743875
" stroke="rgb(25,179,102)" stroke-width="5" fill-opacity="0.0"></path><path d="
M 308 207.06148721743875 C
339.1769145362398 207.06148721743875
346.4115427318801 211.23840175367854
362 238.23840175367854
" stroke="rgb(25,179,102)" stroke-width="5" fill-opacity="0.0"></path><path d="
M 290 238.23840175367854 C
305.5884572681199 265.23840175367854
312.8230854637602 269.41531628991834
344 269.41531628991834
" stroke="rgb(25,179,102)" stroke-width="5" fill-opacity="0.0"></path><path d="
M 290 238.23840175367854 C
308 269.41531628991834
308 269.41531628991834
326 300.59223082615813
" stroke="rgb(25,179,102)" stroke-width="5" fill-opacity="0.0"></path><path d="
M 254 238.23840175367854 C
236 269.41531628991834
236 269.41531628991834
218 300.59223082615813
" stroke="rgb(25,179,102)" stroke-width="5" fill-opacity="0.0"></path><path d="
M 380 207.06148721743875 C
348.8230854637602 207.06148721743875
341.5884572681199 211.23840175367854
326 238.23840175367854
" stroke="rgb(25,179,102)" stroke-width="5" fill-opacity="0.0"></path><path d="
M 380 207.06148721743875 C
416 207.06148721743875
416 207.06148721743875
452 207.06148721743875
" stroke="rgb(25,179,102)" stroke-width="5" fill-opacity="0.0"></path><path d="
M 362 238.23840175367854 C
380 269.41531628991834
380 269.41531628991834
398 300.59223082615813
" stroke="rgb(25,179,102)" stroke-width="5" fill-opacity="0.0"></path><path d="
M 326 238.23840175367854 C
310.4115427318801 265.23840175367854
310.4115427318801 273.59223082615813
326 300.59223082615813
" stroke="rgb(25,179,102)" stroke-width="5" fill-opacity="0.0"></path><path d="
M 326 238.23840175367854 C
308 269.41531628991834
308 269.41531628991834
290 300.59223082615813
" stroke="rgb(25,179,102)" stroke-width="5" fill-opacity="0.0"></path><path d="
M 452 207.06148721743875 C
420.8230854637602 207.06148721743875
413.5884572681199 211.23840175367854
398 238.23840175367854
" stroke="rgb(25,179,102)" stroke-width="5" fill-opacity="0.0"></path><path d="
M 452 207.06148721743875 C
488 207.06148721743875
488 207.06148721743875
524 207.06148721743875
" stroke="rgb(25,179,102)" stroke-width="5" fill-opacity="0.0"></path><path d="
M 452 207.06148721743875 C
483.1769145362398 207.06148721743875
490.4115427318801 211.23840175367854
506 238.23840175367854
" stroke="rgb(25,179,102)" stroke-width="5" fill-opacity="0.0"></path><path d="
M 434 238.23840175367854 C
449.5884572681199 265.23840175367854
456.8230854637602 269.41531628991834
488 269.41531628991834
" stroke="rgb(25,179,102)" stroke-width="5" fill-opacity="0.0"></path><path d="
M 434 238.23840175367854 C
452 269.41531628991834
452 269.41531628991834
470 300.59223082615813
" stroke="rgb(25,179,102)" stroke-width="5" fill-opacity="0.0"></path><path d="
M 434 238.23840175367854 C
449.5884572681199 265.23840175367854
449.5884572681199 273.59223082615813
434 300.59223082615813
" stroke="rgb(25,179,102)" stroke-width="5" fill-opacity="0.0"></path><path d="
M 398 238.23840175367854 C
382.4115427318801 265.23840175367854
375.1769145362398 269.41531628991834
344 269.41531628991834
" stroke="rgb(25,179,102)" stroke-width="5" fill-opacity="0.0"></path><path d="
M 398 238.23840175367854 C
380 269.41531628991834
380 269.41531628991834
362 300.59223082615813
" stroke="rgb(25,179,102)" stroke-width="5" fill-opacity="0.0"></path><path d="
M 470 238.23840175367854 C
454.4115427318801 265.23840175367854
447.1769145362398 269.41531628991834
416 269.41531628991834
" stroke="rgb(25,179,102)" stroke-width="5" fill-opacity="0.0"></path><path d="
M 470 238.23840175367854 C
452 269.41531628991834
452 269.41531628991834
434 300.59223082615813
" stroke="rgb(25,179,102)" stroke-width="5" fill-opacity="0.0"></path><path d="
M 56 269.41531628991834 C
92 269.41531628991834
92 269.41531628991834
128 269.41531628991834
" stroke="rgb(25,179,102)" stroke-width="5" fill-opacity="0.0"></path><path d="
M 56 269.41531628991834 C
87.17691453623979 269.41531628991834
94.4115427318801 273.59223082615813
110 300.59223082615813
" stroke="rgb(25,179,102)" stroke-width="5" fill-opacity="0.0"></path><path d="
M 38 300.59223082615813 C
56 331.7691453623979
56 331.7691453623979
74 362.9460598986377
" stroke="rgb(25,179,102)" stroke-width="5" fill-opacity="0.0"></path><path d="
M 128 269.41531628991834 C
164 269.41531628991834
164 269.41531628991834
200 269.41531628991834
" stroke="rgb(25,179,102)" stroke-width="5" fill-opacity="0.0"></path><path d="
M 128 269.41531628991834 C
159.1769145362398 269.41531628991834
166.4115427318801 273.59223082615813
182 300.59223082615813
" stroke="rgb(25,179,102)" stroke-width="5" fill-opacity="0.0"></path><path d="
M 110 300.59223082615813 C
125.5884572681199 327.59223082615813
132.8230854637602 331.7691453623979
164 331.7691453623979
" stroke="rgb(25,179,102)" stroke-width="5" fill-opacity="0.0"></path><path d="
M 110 300.59223082615813 C
128 331.7691453623979
128 331.7691453623979
146 362.9460598986377
" stroke="rgb(25,179,102)" stroke-width="5" fill-opacity="0.0"></path><path d="
M 110 300.59223082615813 C
125.5884572681199 327.59223082615813
125.5884572681199 335.9460598986377
110 362.9460598986377
" stroke="rgb(25,179,102)" stroke-width="5" fill-opacity="0.0"></path><path d="
M 74 300.59223082615813 C
56 331.7691453623979
56 331.7691453623979
38 362.9460598986377
" stroke="rgb(25,179,102)" stroke-width="5" fill-opacity="0.0"></path><path d="
M 200 269.41531628991834 C
168.8230854637602 269.41531628991834
161.5884572681199 273.59223082615813
146 300.59223082615813
" stroke="rgb(25,179,102)" stroke-width="5" fill-opacity="0.0"></path><path d="
M 200 269.41531628991834 C
236 269.41531628991834
236 269.41531628991834
272 269.41531628991834
" stroke="rgb(25,179,102)" stroke-width="5" fill-opacity="0.0"></path><path d="
M 200 269.41531628991834 C
231.1769145362398 269.41531628991834
238.4115427318801 273.59223082615813
254 300.59223082615813
" stroke="rgb(25,179,102)" stroke-width="5" fill-opacity="0.0"></path><path d="
M 182 300.59223082615813 C
197.5884572681199 327.59223082615813
204.8230854637602 331.7691453623979
236 331.7691453623979
" stroke="rgb(25,179,102)" stroke-width="5" fill-opacity="0.0"></path><path d="
M 182 300.59223082615813 C
200 331.7691453623979
200 331.7691453623979
218 362.9460598986377
" stroke="rgb(25,179,102)" stroke-width="5" fill-opacity="0.0"></path><path d="
M 146 300.59223082615813 C
130.4115427318801 327.59223082615813
123.17691453623979 331.7691453623979
92 331.7691453623979
" stroke="rgb(25,179,102)" stroke-width="5" fill-opacity="0.0"></path><path d="
M 146 300.59223082615813 C
130.4115427318801 327.59223082615813
130.4115427318801 335.9460598986377
146 362.9460598986377
" stroke="rgb(25,179,102)" stroke-width="5" fill-opacity="0.0"></path><path d="
M 146 300.59223082615813 C
128 331.7691453623979
128 331.7691453623979
110 362.9460598986377
" stroke="rgb(25,179,102)" stroke-width="5" fill-opacity="0.0"></path><path d="
M 272 269.41531628991834 C
240.8230854637602 269.41531628991834
233.5884572681199 273.59223082615813
218 300.59223082615813
" stroke="rgb(25,179,102)" stroke-width="5" fill-opacity="0.0"></path><path d="
M 272 269.41531628991834 C
308 269.41531628991834
308 269.41531628991834
344 269.41531628991834
" stroke="rgb(25,179,102)" stroke-width="5" fill-opacity="0.0"></path><path d="
M 254 300.59223082615813 C
269.5884572681199 327.59223082615813
276.8230854637602 331.7691453623979
308 331.7691453623979
" stroke="rgb(25,179,102)" stroke-width="5" fill-opacity="0.0"></path><path d="
M 254 300.59223082615813 C
272 331.7691453623979
272 331.7691453623979
290 362.9460598986377
" stroke="rgb(25,179,102)" stroke-width="5" fill-opacity="0.0"></path><path d="
M 254 300.59223082615813 C
269.5884572681199 327.59223082615813
269.5884572681199 335.9460598986377
254 362.9460598986377
" stroke="rgb(25,179,102)" stroke-width="5" fill-opacity="0.0"></path><path d="
M 218 300.59223082615813 C
200 331.7691453623979
200 331.7691453623979
182 362.9460598986377
" stroke="rgb(25,179,102)" stroke-width="5" fill-opacity="0.0"></path><path d="
M 344 269.41531628991834 C
380 269.41531628991834
380 269.41531628991834
416 269.41531628991834
" stroke="rgb(25,179,102)" stroke-width="5" fill-opacity="0.0"></path><path d="
M 344 269.41531628991834 C
375.1769145362398 269.41531628991834
382.4115427318801 273.59223082615813
398 300.59223082615813
" stroke="rgb(25,179,102)" stroke-width="5" fill-opacity="0.0"></path><path d="
M 326 300.59223082615813 C
341.5884572681199 327.59223082615813
348.8230854637602 331.7691453623979
380 331.7691453623979
" stroke="rgb(25,179,102)" stroke-width="5" fill-opacity="0.0"></path><path d="
M 326 300.59223082615813 C
344 331.7691453623979
344 331.7691453623979
362 362.9460598986377
" stroke="rgb(25,179,102)" stroke-width="5" fill-opacity="0.0"></path><path d="
M 326 300.59223082615813 C
341.5884572681199 327.59223082615813
341.5884572681199 335.9460598986377
326 362.9460598986377
" stroke="rgb(25,179,102)" stroke-width="5" fill-opacity="0.0"></path><path d="
M 290 300.59223082615813 C
274.4115427318801 327.59223082615813
267.1769145362398 331.7691453623979
236 331.7691453623979
" stroke="rgb(25,179,102)" stroke-width="5" fill-opacity="0.0"></path><path d="
M 290 300.59223082615813 C
274.4115427318801 327.59223082615813
274.4115427318801 335.9460598986377
290 362.9460598986377
" stroke="rgb(25,179,102)" stroke-width="5" fill-opacity="0.0"></path><path d="
M 290 300.59223082615813 C
272 331.7691453623979
272 331.7691453623979
254 362.9460598986377
" stroke="rgb(25,179,102)" stroke-width="5" fill-opacity="0.0"></path><path d="
M 416 269.41531628991834 C
452 269.41531628991834
452 269.41531628991834
488 269.41531628991834
" stroke="rgb(25,179,102)" stroke-width="5" fill-opacity="0.0"></path><path d="
M 416 269.41531628991834 C
447.1769145362398 269.41531628991834
454.4115427318801 273.59223082615813
470 300.59223082615813
" stroke="rgb(25,179,102)" stroke-width="5" fill-opacity="0.0"></path><path d="
M 398 300.59223082615813 C
416 331.7691453623979
416 331.7691453623979
434 362.9460598986377
" stroke="rgb(25,179,102)" stroke-width="5" fill-opacity="0.0"></path><path d="
M 362 300.59223082615813 C
346.4115427318801 327.59223082615813
339.1769145362398 331.7691453623979
308 331.7691453623979
" stroke="rgb(25,179,102)" stroke-width="5" fill-opacity="0.0"></path><path d="
M 362 300.59223082615813 C
346.4115427318801 327.59223082615813
346.4115427318801 335.9460598986377
362 362.9460598986377
" stroke="rgb(25,179,102)" stroke-width="5" fill-opacity="0.0"></path><path d="
M 362 300.59223082615813 C
344 331.7691453623979
344 331.7691453623979
326 362.9460598986377
" stroke="rgb(25,179,102)" stroke-width="5" fill-opacity="0.0"></path><path d="
M 488 269.41531628991834 C
456.8230854637602 269.41531628991834
449.5884572681199 273.59223082615813
434 300.59223082615813
" stroke="rgb(25,179,102)" stroke-width="5" fill-opacity="0.0"></path><path d="
M 470 300.59223082615813 C
488 331.7691453623979
488 331.7691453623979
506 362.9460598986377
" stroke="rgb(25,179,102)" stroke-width="5" fill-opacity="0.0"></path><path d="
M 470 300.59223082615813 C
485.5884572681199 327.59223082615813
485.5884572681199 335.9460598986377
470 362.9460598986377
" stroke="rgb(25,179,102)" stroke-width="5" fill-opacity="0.0"></path><path d="
M 434 300.59223082615813 C
418.4115427318801 327.59223082615813
418.4115427318801 335.9460598986377
434 362.9460598986377
" stroke="rgb(25,179,102)" stroke-width="5" fill-opacity="0.0"></path><path d="
M 434 300.59223082615813 C
416 331.7691453623979
416 331.7691453623979
398 362.9460598986377
" stroke="rgb(25,179,102)" stroke-width="5" fill-opacity="0.0"></path><path d="
M 92 331.7691453623979 C
128 331.7691453623979
128 331.7691453623979
164 331.7691453623979
" stroke="rgb(25,179,102)" stroke-width="5" fill-opacity="0.0"></path><path d="
M 92 331.7691453623979 C
123.17691453623979 331.7691453623979
130.4115427318801 335.9460598986377
146 362.9460598986377
" stroke="rgb(25,179,102)" stroke-width="5" fill-opacity="0.0"></path><path d="
M 74 362.9460598986377 C
92 394.1229744348775
92 394.1229744348775
110 425.2998889711173
" stroke="rgb(25,179,102)" stroke-width="5" fill-opacity="0.0"></path><path d="
M 38 362.9460598986377 C
22.411542731880104 389.9460598986377
22.411542731880104 398.2998889711173
38 425.2998889711173
" stroke="rgb(25,179,102)" stroke-width="5" fill-opacity="0.0"></path><path d="
M 38 362.9460598986377 C
20 394.1229744348775
20 394.1229744348775
2 425.2998889711173
" stroke="rgb(25,179,102)" stroke-width="5" fill-opacity="0.0"></path><path d="
M 164 331.7691453623979 C
132.8230854637602 331.7691453623979
125.5884572681199 335.9460598986377
110 362.9460598986377
" stroke="rgb(25,179,102)" stroke-width="5" fill-opacity="0.0"></path><path d="
M 164 331.7691453623979 C
200 331.7691453623979
200 331.7691453623979
236 331.7691453623979
" stroke="rgb(25,179,102)" stroke-width="5" fill-opacity="0.0"></path><path d="
M 146 362.9460598986377 C
161.5884572681199 389.9460598986377
168.8230854637602 394.1229744348775
200 394.1229744348775
" stroke="rgb(25,179,102)" stroke-width="5" fill-opacity="0.0"></path><path d="
M 146 362.9460598986377 C
164 394.1229744348775
164 394.1229744348775
182 425.2998889711173
" stroke="rgb(25,179,102)" stroke-width="5" fill-opacity="0.0"></path><path d="
M 146 362.9460598986377 C
161.5884572681199 389.9460598986377
161.5884572681199 398.2998889711173
146 425.2998889711173
" stroke="rgb(25,179,102)" stroke-width="5" fill-opacity="0.0"></path><path d="
M 110 362.9460598986377 C
94.4115427318801 389.9460598986377
87.17691453623979 394.1229744348775
56 394.1229744348775
" stroke="rgb(25,179,102)" stroke-width="5" fill-opacity="0.0"></path><path d="
M 110 362.9460598986377 C
94.4115427318801 389.9460598986377
94.4115427318801 398.2998889711173
110 425.2998889711173
" stroke="rgb(25,179,102)" stroke-width="5" fill-opacity="0.0"></path><path d="
M 110 362.9460598986377 C
92 394.1229744348775
92 394.1229744348775
74 425.2998889711173
" stroke="rgb(25,179,102)" stroke-width="5" fill-opacity="0.0"></path><path d="
M 236 331.7691453623979 C
272 331.7691453623979
272 331.7691453623979
308 331.7691453623979
" stroke="rgb(25,179,102)" stroke-width="5" fill-opacity="0.0"></path><path d="
M 218 362.9460598986377 C
236 394.1229744348775
236 394.1229744348775
254 425.2998889711173
" stroke="rgb(25,179,102)" stroke-width="5" fill-opacity="0.0"></path><path d="
M 182 362.9460598986377 C
164 394.1229744348775
164 394.1229744348775
146 425.2998889711173
" stroke="rgb(25,179,102)" stroke-width="5" fill-opacity="0.0"></path><path d="
M 308 331.7691453623979 C
276.8230854637602 331.7691453623979
269.5884572681199 335.9460598986377
254 362.9460598986377
" stroke="rgb(25,179,102)" stroke-width="5" fill-opacity="0.0"></path><path d="
M 308 331.7691453623979 C
344 331.7691453623979
344 331.7691453623979
380 331.7691453623979
" stroke="rgb(25,179,102)" stroke-width="5" fill-opacity="0.0"></path><path d="
M 308 331.7691453623979 C
339.1769145362398 331.7691453623979
346.4115427318801 335.9460598986377
362 362.9460598986377
" stroke="rgb(25,179,102)" stroke-width="5" fill-opacity="0.0"></path><path d="
M 290 362.9460598986377 C
308 394.1229744348775
308 394.1229744348775
326 425.2998889711173
" stroke="rgb(25,179,102)" stroke-width="5" fill-opacity="0.0"></path><path d="
M 290 362.9460598986377 C
305.5884572681199 389.9460598986377
305.5884572681199 398.2998889711173
290 425.2998889711173
" stroke="rgb(25,179,102)" stroke-width="5" fill-opacity="0.0"></path><path d="
M 254 362.9460598986377 C
236 394.1229744348775
236 394.1229744348775
218 425.2998889711173
" stroke="rgb(25,179,102)" stroke-width="5" fill-opacity="0.0"></path><path d="
M 380 331.7691453623979 C
416 331.7691453623979
416 331.7691453623979
452 331.7691453623979
" stroke="rgb(25,179,102)" stroke-width="5" fill-opacity="0.0"></path><path d="
M 362 362.9460598986377 C
380 394.1229744348775
380 394.1229744348775
398 425.2998889711173
" stroke="rgb(25,179,102)" stroke-width="5" fill-opacity="0.0"></path><path d="
M 362 362.9460598986377 C
377.5884572681199 389.9460598986377
377.5884572681199 398.2998889711173
362 425.2998889711173
" stroke="rgb(25,179,102)" stroke-width="5" fill-opacity="0.0"></path><path d="
M 326 362.9460598986377 C
310.4115427318801 389.9460598986377
310.4115427318801 398.2998889711173
326 425.2998889711173
" stroke="rgb(25,179,102)" stroke-width="5" fill-opacity="0.0"></path><path d="
M 326 362.9460598986377 C
308 394.1229744348775
308 394.1229744348775
290 425.2998889711173
" stroke="rgb(25,179,102)" stroke-width="5" fill-opacity="0.0"></path><path d="
M 452 331.7691453623979 C
488 331.7691453623979
488 331.7691453623979
524 331.7691453623979
" stroke="rgb(25,179,102)" stroke-width="5" fill-opacity="0.0"></path><path d="
M 434 362.9460598986377 C
452 394.1229744348775
452 394.1229744348775
470 425.2998889711173
" stroke="rgb(25,179,102)" stroke-width="5" fill-opacity="0.0"></path><path d="
M 398 362.9460598986377 C
382.4115427318801 389.9460598986377
375.1769145362398 394.1229744348775
344 394.1229744348775
" stroke="rgb(25,179,102)" stroke-width="5" fill-opacity="0.0"></path><path d="
M 398 362.9460598986377 C
380 394.1229744348775
380 394.1229744348775
362 425.2998889711173
" stroke="rgb(25,179,102)" stroke-width="5" fill-opacity="0.0"></path><path d="
M 524 331.7691453623979 C
492.8230854637602 331.7691453623979
485.5884572681199 335.9460598986377
470 362.9460598986377
" stroke="rgb(25,179,102)" stroke-width="5" fill-opacity="0.0"></path><path d="
M 470 362.9460598986377 C
454.4115427318801 389.9460598986377
454.4115427318801 398.2998889711173
470 425.2998889711173
" stroke="rgb(25,179,102)" stroke-width="5" fill-opacity="0.0"></path><path d="
M 470 362.9460598986377 C
452 394.1229744348775
452 394.1229744348775
434 425.2998889711173
" stroke="rgb(25,179,102)" stroke-width="5" fill-opacity="0.0"></path><path d="
M 56 394.1229744348775 C
92 394.1229744348775
92 394.1229744348775
128 394.1229744348775
" stroke="rgb(25,179,102)" stroke-width="5" fill-opacity="0.0"></path><path d="
M 56 394.1229744348775 C
87.17691453623979 394.1229744348775
94.4115427318801 398.2998889711173
110 425.2998889711173
" stroke="rgb(25,179,102)" stroke-width="5" fill-opacity="0.0"></path><path d="
M 38 425.2998889711173 C
56 456.4768035073571
56 456.4768035073571
74 487.6537180435969
" stroke="rgb(25,179,102)" stroke-width="5" fill-opacity="0.0"></path><path d="
M 38 425.2998889711173 C
53.588457268119896 452.2998889711173
53.588457268119896 460.6537180435969
38 487.6537180435969
" stroke="rgb(25,179,102)" stroke-width="5" fill-opacity="0.0"></path><path d="
M 128 394.1229744348775 C
96.82308546376021 394.1229744348775
89.5884572681199 398.2998889711173
74 425.2998889711173
" stroke="rgb(25,179,102)" stroke-width="5" fill-opacity="0.0"></path><path d="
M 128 394.1229744348775 C
164 394.1229744348775
164 394.1229744348775
200 394.1229744348775
" stroke="rgb(25,179,102)" stroke-width="5" fill-opacity="0.0"></path><path d="
M 128 394.1229744348775 C
159.1769145362398 394.1229744348775
166.4115427318801 398.2998889711173
182 425.2998889711173
" stroke="rgb(25,179,102)" stroke-width="5" fill-opacity="0.0"></path><path d="
M 110 425.2998889711173 C
128 456.4768035073571
128 456.4768035073571
146 487.6537180435969
" stroke="rgb(25,179,102)" stroke-width="5" fill-opacity="0.0"></path><path d="
M 74 425.2998889711173 C
58.411542731880104 452.2998889711173
58.411542731880104 460.6537180435969
74 487.6537180435969
" stroke="rgb(25,179,102)" stroke-width="5" fill-opacity="0.0"></path><path d="
M 74 425.2998889711173 C
56 456.4768035073571
56 456.4768035073571
38 487.6537180435969
" stroke="rgb(25,179,102)" stroke-width="5" fill-opacity="0.0"></path><path d="
M 200 394.1229744348775 C
168.8230854637602 394.1229744348775
161.5884572681199 398.2998889711173
146 425.2998889711173
" stroke="rgb(25,179,102)" stroke-width="5" fill-opacity="0.0"></path><path d="
M 200 394.1229744348775 C
236 394.1229744348775
236 394.1229744348775
272 394.1229744348775
" stroke="rgb(25,179,102)" stroke-width="5" fill-opacity="0.0"></path><path d="
M 182 425.2998889711173 C
197.5884572681199 452.2998889711173
204.8230854637602 456.4768035073571
236 456.4768035073571
" stroke="rgb(25,179,102)" stroke-width="5" fill-opacity="0.0"></path><path d="
M 182 425.2998889711173 C
200 456.4768035073571
200 456.4768035073571
218 487.6537180435969
" stroke="rgb(25,179,102)" stroke-width="5" fill-opacity="0.0"></path><path d="
M 146 425.2998889711173 C
130.4115427318801 452.2998889711173
123.17691453623979 456.4768035073571
92 456.4768035073571
" stroke="rgb(25,179,102)" stroke-width="5" fill-opacity="0.0"></path><path d="
M 146 425.2998889711173 C
128 456.4768035073571
128 456.4768035073571
110 487.6537180435969
" stroke="rgb(25,179,102)" stroke-width="5" fill-opacity="0.0"></path><path d="
M 272 394.1229744348775 C
308 394.1229744348775
308 394.1229744348775
344 394.1229744348775
" stroke="rgb(25,179,102)" stroke-width="5" fill-opacity="0.0"></path><path d="
M 254 425.2998889711173 C
272 456.4768035073571
272 456.4768035073571
290 487.6537180435969
" stroke="rgb(25,179,102)" stroke-width="5" fill-opacity="0.0"></path><path d="
M 254 425.2998889711173 C
269.5884572681199 452.2998889711173
269.5884572681199 460.6537180435969
254 487.6537180435969
" stroke="rgb(25,179,102)" stroke-width="5" fill-opacity="0.0"></path><path d="
M 218 425.2998889711173 C
202.4115427318801 452.2998889711173
195.1769145362398 456.4768035073571
164 456.4768035073571
" stroke="rgb(25,179,102)" stroke-width="5" fill-opacity="0.0"></path><path d="
M 218 425.2998889711173 C
200 456.4768035073571
200 456.4768035073571
182 487.6537180435969
" stroke="rgb(25,179,102)" stroke-width="5" fill-opacity="0.0"></path><path d="
M 344 394.1229744348775 C
312.8230854637602 394.1229744348775
305.5884572681199 398.2998889711173
290 425.2998889711173
" stroke="rgb(25,179,102)" stroke-width="5" fill-opacity="0.0"></path><path d="
M 344 394.1229744348775 C
380 394.1229744348775
380 394.1229744348775
416 394.1229744348775
" stroke="rgb(25,179,102)" stroke-width="5" fill-opacity="0.0"></path><path d="
M 344 394.1229744348775 C
375.1769145362398 394.1229744348775
382.4115427318801 398.2998889711173
398 425.2998889711173
" stroke="rgb(25,179,102)" stroke-width="5" fill-opacity="0.0"></path><path d="
M 326 425.2998889711173 C
344 456.4768035073571
344 456.4768035073571
362 487.6537180435969
" stroke="rgb(25,179,102)" stroke-width="5" fill-opacity="0.0"></path><path d="
M 326 425.2998889711173 C
341.5884572681199 452.2998889711173
341.5884572681199 460.6537180435969
326 487.6537180435969
" stroke="rgb(25,179,102)" stroke-width="5" fill-opacity="0.0"></path><path d="
M 290 425.2998889711173 C
274.4115427318801 452.2998889711173
267.1769145362398 456.4768035073571
236 456.4768035073571
" stroke="rgb(25,179,102)" stroke-width="5" fill-opacity="0.0"></path><path d="
M 290 425.2998889711173 C
274.4115427318801 452.2998889711173
274.4115427318801 460.6537180435969
290 487.6537180435969
" stroke="rgb(25,179,102)" stroke-width="5" fill-opacity="0.0"></path><path d="
M 290 425.2998889711173 C
272 456.4768035073571
272 456.4768035073571
254 487.6537180435969
" stroke="rgb(25,179,102)" stroke-width="5" fill-opacity="0.0"></path><path d="
M 416 394.1229744348775 C
452 394.1229744348775
452 394.1229744348775
488 394.1229744348775
" stroke="rgb(25,179,102)" stroke-width="5" fill-opacity="0.0"></path><path d="
M 398 425.2998889711173 C
416 456.4768035073571
416 456.4768035073571
434 487.6537180435969
" stroke="rgb(25,179,102)" stroke-width="5" fill-opacity="0.0"></path><path d="
M 398 425.2998889711173 C
413.5884572681199 452.2998889711173
413.5884572681199 460.6537180435969
398 487.6537180435969
" stroke="rgb(25,179,102)" stroke-width="5" fill-opacity="0.0"></path><path d="
M 362 425.2998889711173 C
346.4115427318801 452.2998889711173
346.4115427318801 460.6537180435969
362 487.6537180435969
" stroke="rgb(25,179,102)" stroke-width="5" fill-opacity="0.0"></path><path d="
M 362 425.2998889711173 C
344 456.4768035073571
344 456.4768035073571
326 487.6537180435969
" stroke="rgb(25,179,102)" stroke-width="5" fill-opacity="0.0"></path><path d="
M 470 425.2998889711173 C
488 456.4768035073571
488 456.4768035073571
506 487.6537180435969
" stroke="rgb(25,179,102)" stroke-width="5" fill-opacity="0.0"></path><path d="
M 434 425.2998889711173 C
418.4115427318801 452.2998889711173
418.4115427318801 460.6537180435969
434 487.6537180435969
" stroke="rgb(25,179,102)" stroke-width="5" fill-opacity="0.0"></path><path d="
M 434 425.2998889711173 C
416 456.4768035073571
416 456.4768035073571
398 487.6537180435969
" stroke="rgb(25,179,102)" stroke-width="5" fill-opacity="0.0"></path><path d="
M 92 456.4768035073571 C
128 456.4768035073571
128 456.4768035073571
164 456.4768035073571
" stroke="rgb(25,179,102)" stroke-width="5" fill-opacity="0.0"></path><path d="
M 164 456.4768035073571 C
132.8230854637602 456.4768035073571
125.5884572681199 460.6537180435969
110 487.6537180435969
" stroke="rgb(25,179,102)" stroke-width="5" fill-opacity="0.0"></path><path d="
M 164 456.4768035073571 C
200 456.4768035073571
200 456.4768035073571
236 456.4768035073571
" stroke="rgb(25,179,102)" stroke-width="5" fill-opacity="0.0"></path><path d="
M 164 456.4768035073571 C
195.1769145362398 456.4768035073571
202.4115427318801 460.6537180435969
218 487.6537180435969
" stroke="rgb(25,179,102)" stroke-width="5" fill-opacity="0.0"></path><path d="
M 236 456.4768035073571 C
272 456.4768035073571
272 456.4768035073571
308 456.4768035073571
" stroke="rgb(25,179,102)" stroke-width="5" fill-opacity="0.0"></path><path d="
M 236 456.4768035073571 C
267.1769145362398 456.4768035073571
274.4115427318801 460.6537180435969
290 487.6537180435969
" stroke="rgb(25,179,102)" stroke-width="5" fill-opacity="0.0"></path><path d="
M 308 456.4768035073571 C
276.8230854637602 456.4768035073571
269.5884572681199 460.6537180435969
254 487.6537180435969
" stroke="rgb(25,179,102)" stroke-width="5" fill-opacity="0.0"></path><path d="
M 308 456.4768035073571 C
344 456.4768035073571
344 456.4768035073571
380 456.4768035073571
" stroke="rgb(25,179,102)" stroke-width="5" fill-opacity="0.0"></path><path d="
M 308 456.4768035073571 C
339.1769145362398 456.4768035073571
346.4115427318801 460.6537180435969
362 487.6537180435969
" stroke="rgb(25,179,102)" stroke-width="5" fill-opacity="0.0"></path><path d="
M 380 456.4768035073571 C
348.8230854637602 456.4768035073571
341.5884572681199 460.6537180435969
326 487.6537180435969
" stroke="rgb(25,179,102)" stroke-width="5" fill-opacity="0.0"></path><path d="
M 380 456.4768035073571 C
416 456.4768035073571
416 456.4768035073571
452 456.4768035073571
" stroke="rgb(25,179,102)" stroke-width="5" fill-opacity="0.0"></path><path d="
M 452 456.4768035073571 C
488 456.4768035073571
488 456.4768035073571
524 456.4768035073571
" stroke="rgb(25,179,102)" stroke-width="5" fill-opacity="0.0"></path><path d="
M 524 456.4768035073571 C
492.8230854637602 456.4768035073571
485.5884572681199 460.6537180435969
470 487.6537180435969
" stroke="rgb(25,179,102)" stroke-width="5" fill-opacity="0.0"></path><line x1="59" y1="20" x2="53" y2="20" stroke="#808" stroke-width="2"></line><line x1="39.5" y1="53.77499074759311" x2="36.5" y2="48.578838324886476" stroke="#808" stroke-width="2"></line><line x1="0.5" y1="53.77499074759311" x2="3.5" y2="48.578838324886476" stroke="#040" stroke-width="5"></line><line x1="131" y1="20" x2="125" y2="20" stroke="#808" stroke-width="2"></line><line x1="111.5" y1="53.77499074759311" x2="108.5" y2="48.578838324886476" stroke="#808" stroke-width="2"></line><line x1="72.5" y1="53.77499074759311" x2="75.5" y2="48.578838324886476" stroke="#808" stroke-width="2"></line><line x1="203" y1="20" x2="197" y2="20" stroke="#808" stroke-width="2"></line><line x1="183.5" y1="53.77499074759311" x2="180.5" y2="48.578838324886476" stroke="#808" stroke-width="2"></line><line x1="144.5" y1="53.77499074759311" x2="147.5" y2="48.578838324886476" stroke="#808" stroke-width="2"></line><line x1="275" y1="20" x2="269" y2="20" stroke="#808" stroke-width="2"></line><line x1="255.5" y1="53.77499074759311" x2="252.5" y2="48.578838324886476" stroke="#808" stroke-width="2"></line><line x1="216.5" y1="53.77499074759311" x2="219.5" y2="48.578838324886476" stroke="#808" stroke-width="2"></line><line x1="347" y1="20" x2="341" y2="20" stroke="#808" stroke-width="2"></line><line x1="327.5" y1="53.77499074759311" x2="324.5" y2="48.578838324886476" stroke="#808" stroke-width="2"></line><line x1="288.5" y1="53.77499074759311" x2="291.5" y2="48.578838324886476" stroke="#808" stroke-width="2"></line><line x1="419" y1="20" x2="413" y2="20" stroke="#808" stroke-width="2"></line><line x1="399.5" y1="53.77499074759311" x2="396.5" y2="48.578838324886476" stroke="#808" stroke-width="2"></line><line x1="360.5" y1="53.77499074759311" x2="363.5" y2="48.578838324886476" stroke="#808" stroke-width="2"></line><line x1="491" y1="20" x2="485" y2="20" stroke="#808" stroke-width="2"></line><line x1="471.5" y1="53.77499074759311" x2="468.5" y2="48.578838324886476" stroke="#808" stroke-width="2"></line><line x1="432.5" y1="53.77499074759311" x2="435.5" y2="48.578838324886476" stroke="#808" stroke-width="2"></line><line x1="95" y1="82.35382907247958" x2="89" y2="82.35382907247958" stroke="#808" stroke-width="2"></line><line x1="75.5" y1="116.12881982007269" x2="72.5" y2="110.93266739736606" stroke="#808" stroke-width="2"></line><line x1="36.5" y1="116.12881982007269" x2="39.5" y2="110.93266739736606" stroke="#808" stroke-width="2"></line><line x1="167" y1="82.35382907247958" x2="161" y2="82.35382907247958" stroke="#808" stroke-width="2"></line><line x1="147.5" y1="116.12881982007269" x2="144.5" y2="110.93266739736606" stroke="#808" stroke-width="2"></line><line x1="108.5" y1="116.12881982007269" x2="111.5" y2="110.93266739736606" stroke="#808" stroke-width="2"></line><line x1="239" y1="82.35382907247958" x2="233" y2="82.35382907247958" stroke="#808" stroke-width="2"></line><line x1="219.5" y1="116.12881982007269" x2="216.5" y2="110.93266739736606" stroke="#808" stroke-width="2"></line><line x1="180.5" y1="116.12881982007269" x2="183.5" y2="110.93266739736606" stroke="#808" stroke-width="2"></line><line x1="311" y1="82.35382907247958" x2="305" y2="82.35382907247958" stroke="#808" stroke-width="2"></line><line x1="291.5" y1="116.12881982007269" x2="288.5" y2="110.93266739736606" stroke="#808" stroke-width="2"></line><line x1="252.5" y1="116.12881982007269" x2="255.5" y2="110.93266739736606" stroke="#808" stroke-width="2"></line><line x1="383" y1="82.35382907247958" x2="377" y2="82.35382907247958" stroke="#808" stroke-width="2"></line><line x1="363.5" y1="116.12881982007269" x2="360.5" y2="110.93266739736606" stroke="#808" stroke-width="2"></line><line x1="324.5" y1="116.12881982007269" x2="327.5" y2="110.93266739736606" stroke="#808" stroke-width="2"></line><line x1="455" y1="82.35382907247958" x2="449" y2="82.35382907247958" stroke="#808" stroke-width="2"></line><line x1="435.5" y1="116.12881982007269" x2="432.5" y2="110.93266739736606" stroke="#808" stroke-width="2"></line><line x1="396.5" y1="116.12881982007269" x2="399.5" y2="110.93266739736606" stroke="#808" stroke-width="2"></line><line x1="527" y1="82.35382907247958" x2="521" y2="82.35382907247958" stroke="#808" stroke-width="2"></line><line x1="507.5" y1="116.12881982007269" x2="504.5" y2="110.93266739736606" stroke="#808" stroke-width="2"></line><line x1="468.5" y1="116.12881982007269" x2="471.5" y2="110.93266739736606" stroke="#808" stroke-width="2"></line><line x1="59" y1="144.70765814495917" x2="53" y2="144.70765814495917" stroke="#808" stroke-width="2"></line><line x1="39.5" y1="178.48264889255228" x2="36.5" y2="173.28649646984564" stroke="#808" stroke-width="2"></line><line x1="0.5" y1="178.48264889255228" x2="3.5" y2="173.28649646984564" stroke="#808" stroke-width="2"></line><line x1="131" y1="144.70765814495917" x2="125" y2="144.70765814495917" stroke="#808" stroke-width="2"></line><line x1="111.5" y1="178.48264889255228" x2="108.5" y2="173.28649646984564" stroke="#808" stroke-width="2"></line><line x1="72.5" y1="178.48264889255228" x2="75.5" y2="173.28649646984564" stroke="#808" stroke-width="2"></line><line x1="203" y1="144.70765814495917" x2="197" y2="144.70765814495917" stroke="#808" stroke-width="2"></line><line x1="183.5" y1="178.48264889255228" x2="180.5" y2="173.28649646984564" stroke="#808" stroke-width="2"></line><line x1="144.5" y1="178.48264889255228" x2="147.5" y2="173.28649646984564" stroke="#808" stroke-width="2"></line><line x1="275" y1="144.70765814495917" x2="269" y2="144.70765814495917" stroke="#808" stroke-width="2"></line><line x1="255.5" y1="178.48264889255228" x2="252.5" y2="173.28649646984564" stroke="#808" stroke-width="2"></line><line x1="216.5" y1="178.48264889255228" x2="219.5" y2="173.28649646984564" stroke="#808" stroke-width="2"></line><line x1="347" y1="144.70765814495917" x2="341" y2="144.70765814495917" stroke="#808" stroke-width="2"></line><line x1="327.5" y1="178.48264889255228" x2="324.5" y2="173.28649646984564" stroke="#808" stroke-width="2"></line><line x1="288.5" y1="178.48264889255228" x2="291.5" y2="173.28649646984564" stroke="#808" stroke-width="2"></line><line x1="419" y1="144.70765814495917" x2="413" y2="144.70765814495917" stroke="#808" stroke-width="2"></line><line x1="399.5" y1="178.48264889255228" x2="396.5" y2="173.28649646984564" stroke="#808" stroke-width="2"></line><line x1="360.5" y1="178.48264889255228" x2="363.5" y2="173.28649646984564" stroke="#808" stroke-width="2"></line><line x1="491" y1="144.70765814495917" x2="485" y2="144.70765814495917" stroke="#808" stroke-width="2"></line><line x1="471.5" y1="178.48264889255228" x2="468.5" y2="173.28649646984564" stroke="#808" stroke-width="2"></line><line x1="432.5" y1="178.48264889255228" x2="435.5" y2="173.28649646984564" stroke="#808" stroke-width="2"></line><line x1="95" y1="207.06148721743875" x2="89" y2="207.06148721743875" stroke="#808" stroke-width="2"></line><line x1="75.5" y1="240.83647796503186" x2="72.5" y2="235.64032554232523" stroke="#808" stroke-width="2"></line><line x1="36.5" y1="240.83647796503186" x2="39.5" y2="235.64032554232523" stroke="#808" stroke-width="2"></line><line x1="167" y1="207.06148721743875" x2="161" y2="207.06148721743875" stroke="#808" stroke-width="2"></line><line x1="147.5" y1="240.83647796503186" x2="144.5" y2="235.64032554232523" stroke="#808" stroke-width="2"></line><line x1="108.5" y1="240.83647796503186" x2="111.5" y2="235.64032554232523" stroke="#808" stroke-width="2"></line><line x1="239" y1="207.06148721743875" x2="233" y2="207.06148721743875" stroke="#808" stroke-width="2"></line><line x1="219.5" y1="240.83647796503186" x2="216.5" y2="235.64032554232523" stroke="#808" stroke-width="2"></line><line x1="180.5" y1="240.83647796503186" x2="183.5" y2="235.64032554232523" stroke="#808" stroke-width="2"></line><line x1="311" y1="207.06148721743875" x2="305" y2="207.06148721743875" stroke="#808" stroke-width="2"></line><line x1="291.5" y1="240.83647796503186" x2="288.5" y2="235.64032554232523" stroke="#808" stroke-width="2"></line><line x1="252.5" y1="240.83647796503186" x2="255.5" y2="235.64032554232523" stroke="#808" stroke-width="2"></line><line x1="383" y1="207.06148721743875" x2="377" y2="207.06148721743875" stroke="#808" stroke-width="2"></line><line x1="363.5" y1="240.83647796503186" x2="360.5" y2="235.64032554232523" stroke="#808" stroke-width="2"></line><line x1="324.5" y1="240.83647796503186" x2="327.5" y2="235.64032554232523" stroke="#808" stroke-width="2"></line><line x1="455" y1="207.06148721743875" x2="449" y2="207.06148721743875" stroke="#808" stroke-width="2"></line><line x1="435.5" y1="240.83647796503186" x2="432.5" y2="235.64032554232523" stroke="#808" stroke-width="2"></line><line x1="396.5" y1="240.83647796503186" x2="399.5" y2="235.64032554232523" stroke="#808" stroke-width="2"></line><line x1="527" y1="207.06148721743875" x2="521" y2="207.06148721743875" stroke="#808" stroke-width="2"></line><line x1="507.5" y1="240.83647796503186" x2="504.5" y2="235.64032554232523" stroke="#808" stroke-width="2"></line><line x1="468.5" y1="240.83647796503186" x2="471.5" y2="235.64032554232523" stroke="#808" stroke-width="2"></line><line x1="59" y1="269.41531628991834" x2="53" y2="269.41531628991834" stroke="#808" stroke-width="2"></line><line x1="39.5" y1="303.19030703751145" x2="36.5" y2="297.9941546148048" stroke="#808" stroke-width="2"></line><line x1="0.5" y1="303.19030703751145" x2="3.5" y2="297.9941546148048" stroke="#808" stroke-width="2"></line><line x1="131" y1="269.41531628991834" x2="125" y2="269.41531628991834" stroke="#808" stroke-width="2"></line><line x1="111.5" y1="303.19030703751145" x2="108.5" y2="297.9941546148048" stroke="#808" stroke-width="2"></line><line x1="72.5" y1="303.19030703751145" x2="75.5" y2="297.9941546148048" stroke="#808" stroke-width="2"></line><line x1="203" y1="269.41531628991834" x2="197" y2="269.41531628991834" stroke="#808" stroke-width="2"></line><line x1="183.5" y1="303.19030703751145" x2="180.5" y2="297.9941546148048" stroke="#808" stroke-width="2"></line><line x1="144.5" y1="303.19030703751145" x2="147.5" y2="297.9941546148048" stroke="#808" stroke-width="2"></line><line x1="275" y1="269.41531628991834" x2="269" y2="269.41531628991834" stroke="#808" stroke-width="2"></line><line x1="255.5" y1="303.19030703751145" x2="252.5" y2="297.9941546148048" stroke="#808" stroke-width="2"></line><line x1="216.5" y1="303.19030703751145" x2="219.5" y2="297.9941546148048" stroke="#808" stroke-width="2"></line><line x1="347" y1="269.41531628991834" x2="341" y2="269.41531628991834" stroke="#808" stroke-width="2"></line><line x1="327.5" y1="303.19030703751145" x2="324.5" y2="297.9941546148048" stroke="#808" stroke-width="2"></line><line x1="288.5" y1="303.19030703751145" x2="291.5" y2="297.9941546148048" stroke="#808" stroke-width="2"></line><line x1="419" y1="269.41531628991834" x2="413" y2="269.41531628991834" stroke="#808" stroke-width="2"></line><line x1="399.5" y1="303.19030703751145" x2="396.5" y2="297.9941546148048" stroke="#808" stroke-width="2"></line><line x1="360.5" y1="303.19030703751145" x2="363.5" y2="297.9941546148048" stroke="#808" stroke-width="2"></line><line x1="491" y1="269.41531628991834" x2="485" y2="269.41531628991834" stroke="#808" stroke-width="2"></line><line x1="471.5" y1="303.19030703751145" x2="468.5" y2="297.9941546148048" stroke="#808" stroke-width="2"></line><line x1="432.5" y1="303.19030703751145" x2="435.5" y2="297.9941546148048" stroke="#808" stroke-width="2"></line><line x1="95" y1="331.7691453623979" x2="89" y2="331.7691453623979" stroke="#808" stroke-width="2"></line><line x1="75.5" y1="365.54413610999103" x2="72.5" y2="360.3479836872844" stroke="#808" stroke-width="2"></line><line x1="36.5" y1="365.54413610999103" x2="39.5" y2="360.3479836872844" stroke="#808" stroke-width="2"></line><line x1="167" y1="331.7691453623979" x2="161" y2="331.7691453623979" stroke="#808" stroke-width="2"></line><line x1="147.5" y1="365.54413610999103" x2="144.5" y2="360.3479836872844" stroke="#808" stroke-width="2"></line><line x1="108.5" y1="365.54413610999103" x2="111.5" y2="360.3479836872844" stroke="#808" stroke-width="2"></line><line x1="239" y1="331.7691453623979" x2="233" y2="331.7691453623979" stroke="#808" stroke-width="2"></line><line x1="219.5" y1="365.54413610999103" x2="216.5" y2="360.3479836872844" stroke="#808" stroke-width="2"></line><line x1="180.5" y1="365.54413610999103" x2="183.5" y2="360.3479836872844" stroke="#808" stroke-width="2"></line><line x1="311" y1="331.7691453623979" x2="305" y2="331.7691453623979" stroke="#808" stroke-width="2"></line><line x1="291.5" y1="365.54413610999103" x2="288.5" y2="360.3479836872844" stroke="#808" stroke-width="2"></line><line x1="252.5" y1="365.54413610999103" x2="255.5" y2="360.3479836872844" stroke="#808" stroke-width="2"></line><line x1="383" y1="331.7691453623979" x2="377" y2="331.7691453623979" stroke="#808" stroke-width="2"></line><line x1="363.5" y1="365.54413610999103" x2="360.5" y2="360.3479836872844" stroke="#808" stroke-width="2"></line><line x1="324.5" y1="365.54413610999103" x2="327.5" y2="360.3479836872844" stroke="#808" stroke-width="2"></line><line x1="455" y1="331.7691453623979" x2="449" y2="331.7691453623979" stroke="#808" stroke-width="2"></line><line x1="435.5" y1="365.54413610999103" x2="432.5" y2="360.3479836872844" stroke="#808" stroke-width="2"></line><line x1="396.5" y1="365.54413610999103" x2="399.5" y2="360.3479836872844" stroke="#808" stroke-width="2"></line><line x1="527" y1="331.7691453623979" x2="521" y2="331.7691453623979" stroke="#808" stroke-width="2"></line><line x1="507.5" y1="365.54413610999103" x2="504.5" y2="360.3479836872844" stroke="#808" stroke-width="2"></line><line x1="468.5" y1="365.54413610999103" x2="471.5" y2="360.3479836872844" stroke="#808" stroke-width="2"></line><line x1="59" y1="394.1229744348775" x2="53" y2="394.1229744348775" stroke="#808" stroke-width="2"></line><line x1="39.5" y1="427.8979651824706" x2="36.5" y2="422.701812759764" stroke="#808" stroke-width="2"></line><line x1="0.5" y1="427.8979651824706" x2="3.5" y2="422.701812759764" stroke="#808" stroke-width="2"></line><line x1="131" y1="394.1229744348775" x2="125" y2="394.1229744348775" stroke="#808" stroke-width="2"></line><line x1="111.5" y1="427.8979651824706" x2="108.5" y2="422.701812759764" stroke="#808" stroke-width="2"></line><line x1="72.5" y1="427.8979651824706" x2="75.5" y2="422.701812759764" stroke="#808" stroke-width="2"></line><line x1="203" y1="394.1229744348775" x2="197" y2="394.1229744348775" stroke="#808" stroke-width="2"></line><line x1="183.5" y1="427.8979651824706" x2="180.5" y2="422.701812759764" stroke="#808" stroke-width="2"></line><line x1="144.5" y1="427.8979651824706" x2="147.5" y2="422.701812759764" stroke="#808" stroke-width="2"></line><line x1="275" y1="394.1229744348775" x2="269" y2="394.1229744348775" stroke="#808" stroke-width="2"></line><line x1="255.5" y1="427.8979651824706" x2="252.5" y2="422.701812759764" stroke="#808" stroke-width="2"></line><line x1="216.5" y1="427.8979651824706" x2="219.5" y2="422.701812759764" stroke="#808" stroke-width="2"></line><line x1="347" y1="394.1229744348775" x2="341" y2="394.1229744348775" stroke="#808" stroke-width="2"></line><line x1="327.5" y1="427.8979651824706" x2="324.5" y2="422.701812759764" stroke="#808" stroke-width="2"></line><line x1="288.5" y1="427.8979651824706" x2="291.5" y2="422.701812759764" stroke="#808" stroke-width="2"></line><line x1="419" y1="394.1229744348775" x2="413" y2="394.1229744348775" stroke="#808" stroke-width="2"></line><line x1="399.5" y1="427.8979651824706" x2="396.5" y2="422.701812759764" stroke="#808" stroke-width="2"></line><line x1="360.5" y1="427.8979651824706" x2="363.5" y2="422.701812759764" stroke="#808" stroke-width="2"></line><line x1="491" y1="394.1229744348775" x2="485" y2="394.1229744348775" stroke="#808" stroke-width="2"></line><line x1="471.5" y1="427.8979651824706" x2="468.5" y2="422.701812759764" stroke="#808" stroke-width="2"></line><line x1="432.5" y1="427.8979651824706" x2="435.5" y2="422.701812759764" stroke="#808" stroke-width="2"></line><line x1="95" y1="456.4768035073571" x2="89" y2="456.4768035073571" stroke="#808" stroke-width="2"></line><line x1="75.5" y1="490.2517942549502" x2="72.5" y2="485.05564183224357" stroke="#808" stroke-width="2"></line><line x1="36.5" y1="490.2517942549502" x2="39.5" y2="485.05564183224357" stroke="#808" stroke-width="2"></line><line x1="167" y1="456.4768035073571" x2="161" y2="456.4768035073571" stroke="#808" stroke-width="2"></line><line x1="147.5" y1="490.2517942549502" x2="144.5" y2="485.05564183224357" stroke="#808" stroke-width="2"></line><line x1="108.5" y1="490.2517942549502" x2="111.5" y2="485.05564183224357" stroke="#808" stroke-width="2"></line><line x1="239" y1="456.4768035073571" x2="233" y2="456.4768035073571" stroke="#808" stroke-width="2"></line><line x1="219.5" y1="490.2517942549502" x2="216.5" y2="485.05564183224357" stroke="#808" stroke-width="2"></line><line x1="180.5" y1="490.2517942549502" x2="183.5" y2="485.05564183224357" stroke="#808" stroke-width="2"></line><line x1="311" y1="456.4768035073571" x2="305" y2="456.4768035073571" stroke="#808" stroke-width="2"></line><line x1="291.5" y1="490.2517942549502" x2="288.5" y2="485.05564183224357" stroke="#808" stroke-width="2"></line><line x1="252.5" y1="490.2517942549502" x2="255.5" y2="485.05564183224357" stroke="#808" stroke-width="2"></line><line x1="383" y1="456.4768035073571" x2="377" y2="456.4768035073571" stroke="#808" stroke-width="2"></line><line x1="363.5" y1="490.2517942549502" x2="360.5" y2="485.05564183224357" stroke="#808" stroke-width="2"></line><line x1="324.5" y1="490.2517942549502" x2="327.5" y2="485.05564183224357" stroke="#808" stroke-width="2"></line><line x1="455" y1="456.4768035073571" x2="449" y2="456.4768035073571" stroke="#808" stroke-width="2"></line><line x1="435.5" y1="490.2517942549502" x2="432.5" y2="485.05564183224357" stroke="#808" stroke-width="2"></line><line x1="396.5" y1="490.2517942549502" x2="399.5" y2="485.05564183224357" stroke="#808" stroke-width="2"></line><line x1="527" y1="456.4768035073571" x2="521" y2="456.4768035073571" stroke="#808" stroke-width="2"></line><line x1="507.5" y1="490.2517942549502" x2="504.5" y2="485.05564183224357" stroke="#808" stroke-width="2"></line><line x1="468.5" y1="490.2517942549502" x2="471.5" y2="485.05564183224357" stroke="#808" stroke-width="2"></line></svg>
