<svg xmlns="http://www.w3.org/2000/svg" version="1.1"><path d="
M 350 409 C
321.38530568914865 406.89067084206084
320.51998902288653 421.69269084195184
307 447
" stroke="rgb(25,179,102)" stroke-width="5" fill-opacity="0.0"></path><path d="
M 119 122 C
129.4130436327833 156.47924770498554
131.4412482770381 171.25240014146695
102 192
" stroke="rgb(25,179,102)" stroke-width="5" fill-opacity="0.0"></path><path d="
M 119 122 C
108.26775799216705 86.46383558281359
117.88540811843859 68.04015934244147
153 56
" stroke="rgb(25,179,102)" stroke-width="5" fill-opacity="0.0"></path><path d="
M 119 122 C
109.10874137322952 89.24846564238038
115.81372883669681 62.341217338504705
150 61
" stroke="rgb(25,179,102)" stroke-width="5" fill-opacity="0.0"></path><path d="
M 119 122 C
128.8298018989331 154.54804133320056
120.9737238703682 156.05733637317869
119 190
" stroke="rgb(25,179,102)" stroke-width="5" fill-opacity="0.0"></path><path d="
M 119 122 C
127.5581494053019 150.33739717681442
112.36352480464286 172.746119465143
83 169
" stroke="rgb(25,179,102)" stroke-width="5" fill-opacity="0.0"></path><path d="
M 356 279 C
377.0838258757666 305.71558134198756
408.85807271499 321.9557085634538
423 291
" stroke="rgb(25,179,102)" stroke-width="5" fill-opacity="0.0"></path><path d="
M 356 279 C
379.8752565493751 309.252638309766
380.1254473290694 309.65331433825554
410 334
" stroke="rgb(25,179,102)" stroke-width="5" fill-opacity="0.0"></path><path d="
M 356 279 C
346.15583333924 266.5263324256584
350.6623123826527 263.92081064272645
343 250
" stroke="rgb(25,179,102)" stroke-width="5" fill-opacity="0.0"></path><path d="
M 185 390 C
208.53737217945098 417.5906163556744
212.80810666041668 424.81950459333007
204 460
" stroke="rgb(25,179,102)" stroke-width="5" fill-opacity="0.0"></path><path d="
M 185 390 C
210.29072140039437 419.64590040878556
211.26439671454287 437.24888669085
250 433
" stroke="rgb(25,179,102)" stroke-width="5" fill-opacity="0.0"></path><path d="
M 185 390 C
203.52248977315352 411.7121480421312
229.22371351599577 412.5199236613014
242 387
" stroke="rgb(25,179,102)" stroke-width="5" fill-opacity="0.0"></path><path d="
M 185 390 C
211.4268915493199 420.97772430377165
226.34611819523445 399.6746222417739
259 424
" stroke="rgb(25,179,102)" stroke-width="5" fill-opacity="0.0"></path><path d="
M 185 390 C
163.4257871891492 364.7106081213462
156.1146383376379 363.09815097438843
123 366
" stroke="rgb(25,179,102)" stroke-width="5" fill-opacity="0.0"></path><path d="
M 185 390 C
173.36743769006165 376.3642567453988
177.3086801005695 373.66223429713637
167 359
" stroke="rgb(25,179,102)" stroke-width="5" fill-opacity="0.0"></path><path d="
M 185 390 C
210.86504577525315 420.3191260930136
202.2692061713798 425.9695569405565
217 463
" stroke="rgb(25,179,102)" stroke-width="5" fill-opacity="0.0"></path><path d="
M 467 405 C
437.94890357372725 406.51122348823844
442.8216981367173 377.0554193485309
414 381
" stroke="rgb(25,179,102)" stroke-width="5" fill-opacity="0.0"></path><path d="
M 467 405 C
432.74616883498743 406.78186714398515
437.9183357597012 423.53358347560976
412 446
" stroke="rgb(25,179,102)" stroke-width="5" fill-opacity="0.0"></path><path d="
M 417 15 C
399.9741171326418 41.14133341256712
423.77512288562883 49.00900163470718
410 77
" stroke="rgb(25,179,102)" stroke-width="5" fill-opacity="0.0"></path><path d="
M 484 156 C
469.8003334965946 170.94555021376152
475.78330410652 177.57147685168087
458 188
" stroke="rgb(25,179,102)" stroke-width="5" fill-opacity="0.0"></path><path d="
M 440 308 C
409.58325529254074 307.7323408861113
397.16969809378895 309.87738237901885
385 282
" stroke="rgb(25,179,102)" stroke-width="5" fill-opacity="0.0"></path><path d="
M 440 308 C
398.974158543214 307.6389837085962
383.01155013798166 278.47812490499314
358 311
" stroke="rgb(25,179,102)" stroke-width="5" fill-opacity="0.0"></path><path d="
M 440 308 C
402.927185519384 307.6737692751582
403.9922309659248 292.53527929296786
367 295
" stroke="rgb(25,179,102)" stroke-width="5" fill-opacity="0.0"></path><path d="
M 440 308 C
479.2444994823247 308.34534096457304
471.51302986803535 283.66982709042014
496 253
" stroke="rgb(25,179,102)" stroke-width="5" fill-opacity="0.0"></path><path d="
M 102 192 C
130.41631166312553 171.97468523433113
116.16969101805859 155.06213086978258
147 139
" stroke="rgb(25,179,102)" stroke-width="5" fill-opacity="0.0"></path><path d="
M 102 192 C
133.97610593695265 169.46605562470737
163.06508819212885 163.66739325180805
147 128
" stroke="rgb(25,179,102)" stroke-width="5" fill-opacity="0.0"></path><path d="
M 131 192 C
160.8227685476795 221.37860575574578
155.42072364717475 226.5600781007993
172 265
" stroke="rgb(25,179,102)" stroke-width="5" fill-opacity="0.0"></path><path d="
M 131 192 C
157.524043058376 218.1290095456643
176.3868462976234 237.0382420684208
203 211
" stroke="rgb(25,179,102)" stroke-width="5" fill-opacity="0.0"></path><path d="
M 131 192 C
109.01662160669386 170.3440291278197
96.39309588784992 180.26059401913832
84 152
" stroke="rgb(25,179,102)" stroke-width="5" fill-opacity="0.0"></path><path d="
M 60 298 C
99.49972922098061 296.98936086103356
99.49172148242604 300.5881569329723
139 300
" stroke="rgb(25,179,102)" stroke-width="5" fill-opacity="0.0"></path><path d="
M 60 298 C
37.865654027509095 298.56632885329606
40.622627142807175 287.05960605295024
20 279
" stroke="rgb(25,179,102)" stroke-width="5" fill-opacity="0.0"></path><path d="
M 60 298 C
100.29810048121296 296.96893375282474
108.80488577187384 262.4683559422007
140 288
" stroke="rgb(25,179,102)" stroke-width="5" fill-opacity="0.0"></path><path d="
M 354 234 C
314.25263080968244 224.5582500325101
332.83413313562005 197.88681601409343
324 158
" stroke="rgb(25,179,102)" stroke-width="5" fill-opacity="0.0"></path><path d="
M 354 234 C
320.0554455942585 225.9366739991702
309.2705878825775 234.27735512399656
291 264
" stroke="rgb(25,179,102)" stroke-width="5" fill-opacity="0.0"></path><path d="
M 354 234 C
324.32572891868404 226.95105427793817
323.38668012491445 214.8346444513446
294 223
" stroke="rgb(25,179,102)" stroke-width="5" fill-opacity="0.0"></path><path d="
M 354 234 C
335.9745758245659 229.71816823127364
335.4997718443595 233.0042119829217
317 232
" stroke="rgb(25,179,102)" stroke-width="5" fill-opacity="0.0"></path><path d="
M 105 170 C
77.29272542909193 157.4577938203715
72.49275414348193 130.4554120944617
95 110
" stroke="rgb(25,179,102)" stroke-width="5" fill-opacity="0.0"></path><path d="
M 139 300 C
174.91954985684754 299.46526821541585
175.96134646157486 300.48346921844865
210 289
" stroke="rgb(25,179,102)" stroke-width="5" fill-opacity="0.0"></path><path d="
M 139 300 C
107.6825505777951 300.4662206426556
110.25160703551606 315.91743962928246
79 318
" stroke="rgb(25,179,102)" stroke-width="5" fill-opacity="0.0"></path><path d="
M 123 20 C
147.66473169833583 9.516631731685282
149.39210837920504 8.795299780630067
176 12
" stroke="rgb(25,179,102)" stroke-width="5" fill-opacity="0.0"></path><path d="
M 123 20 C
93.7735188626631 32.42227033713605
98.59839489649733 41.19305213510258
70 55
" stroke="rgb(25,179,102)" stroke-width="5" fill-opacity="0.0"></path><path d="
M 362 291 C
350.4118080342751 252.30938347653907
366.4601347903001 247.28842094242472
392 216
" stroke="rgb(25,179,102)" stroke-width="5" fill-opacity="0.0"></path><path d="
M 362 291 C
351.35505243621674 255.4586847265847
354.046672596154 234.01098223596622
317 232
" stroke="rgb(25,179,102)" stroke-width="5" fill-opacity="0.0"></path><path d="
M 362 291 C
355.5173392935101 269.35571414519455
353.8949950087357 269.79391532162407
343 250
" stroke="rgb(25,179,102)" stroke-width="5" fill-opacity="0.0"></path><path d="
M 362 291 C
350.04122819645346 251.07209275518312
366.5322424582842 245.8203952253476
347 209
" stroke="rgb(25,179,102)" stroke-width="5" fill-opacity="0.0"></path><path d="
M 204 460 C
212.26569858244727 426.985938951045
206.5507947457446 426.03010747322946
207 392
" stroke="rgb(25,179,102)" stroke-width="5" fill-opacity="0.0"></path><path d="
M 204 460 C
213.99399095203975 420.0829592172648
223.57872697803728 423.79547119212236
242 387
" stroke="rgb(25,179,102)" stroke-width="5" fill-opacity="0.0"></path><path d="
M 204 460 C
210.45442621129052 434.22034945382296
232.09623595500605 445.66297024919464
239 420
" stroke="rgb(25,179,102)" stroke-width="5" fill-opacity="0.0"></path><path d="
M 250 433 C
222.18025608675083 436.0515321727347
224.6761694266952 446.84312065788987
197 451
" stroke="rgb(25,179,102)" stroke-width="5" fill-opacity="0.0"></path><path d="
M 250 433 C
285.01779668621276 429.1589174386552
287.6884336303256 410.15190835386596
290 375
" stroke="rgb(25,179,102)" stroke-width="5" fill-opacity="0.0"></path><path d="
M 303 427 C
316.1835166766923 396.00895471212084
318.00377545046194 393.13093581427376
347 376
" stroke="rgb(25,179,102)" stroke-width="5" fill-opacity="0.0"></path><path d="
M 423 291 C
441.14251010995804 251.28729010870612
451.3521216885672 255.3123485108119
490 235
" stroke="rgb(25,179,102)" stroke-width="5" fill-opacity="0.0"></path><path d="
M 423 291 C
436.1960938842748 262.1146558580756
446.242350194485 267.0897375105245
476 256
" stroke="rgb(25,179,102)" stroke-width="5" fill-opacity="0.0"></path><path d="
M 423 291 C
408.6881571735132 322.32764202601174
429.23102267306353 329.1480896307588
455 352
" stroke="rgb(25,179,102)" stroke-width="5" fill-opacity="0.0"></path><path d="
M 423 291 C
409.88429582391626 319.70937658615145
432.60915480832864 335.7038146058631
464 339
" stroke="rgb(25,179,102)" stroke-width="5" fill-opacity="0.0"></path><path d="
M 76 128 C
100.90731429494818 122.69663365279467
121.52409877738697 139.00333898157183
113 163
" stroke="rgb(25,179,102)" stroke-width="5" fill-opacity="0.0"></path><path d="
M 76 128 C
111.13588647346984 120.51872459246155
115.1408962412797 155.5981175948086
147 139
" stroke="rgb(25,179,102)" stroke-width="5" fill-opacity="0.0"></path><path d="
M 76 128 C
38.98469551366775 135.88144871099925
21.258978653682362 142.155807181855
21 180
" stroke="rgb(25,179,102)" stroke-width="5" fill-opacity="0.0"></path><path d="
M 420 37 C
431.7470230693432 76.500094291132
393.9688302097894 69.13425034201268
372 104
" stroke="rgb(25,179,102)" stroke-width="5" fill-opacity="0.0"></path><path d="
M 385 282 C
371.72320595975765 251.58656974274382
371.01537081680186 241.70788474463953
392 216
" stroke="rgb(25,179,102)" stroke-width="5" fill-opacity="0.0"></path><path d="
M 385 282 C
374.43750183425203 257.80426416703614
355.7305026448173 273.1286467915937
343 250
" stroke="rgb(25,179,102)" stroke-width="5" fill-opacity="0.0"></path><path d="
M 385 282 C
368.5369309535782 244.28770283352196
366.283305806174 245.35112263996223
347 209
" stroke="rgb(25,179,102)" stroke-width="5" fill-opacity="0.0"></path><path d="
M 153 56 C
118.82816723713543 67.71690426805714
132.164329613027 95.06213601082953
147 128
" stroke="rgb(25,179,102)" stroke-width="5" fill-opacity="0.0"></path><path d="
M 153 56 C
115.51885559750082 68.85160745895251
124.32252159415715 83.35061487838439
95 110
" stroke="rgb(25,179,102)" stroke-width="5" fill-opacity="0.0"></path><path d="
M 172 265 C
155.36523689765232 226.43142916144322
152.33309480715502 218.62707337172714
171 181
" stroke="rgb(25,179,102)" stroke-width="5" fill-opacity="0.0"></path><path d="
M 172 265 C
161.68589713123575 241.0862114667594
156.32828128966068 235.7525283194206
169 213
" stroke="rgb(25,179,102)" stroke-width="5" fill-opacity="0.0"></path><path d="
M 476 55 C
488.7478872532486 32.31759777760608
486.39672230750676 25.87621638362788
474 3
" stroke="rgb(25,179,102)" stroke-width="5" fill-opacity="0.0"></path><path d="
M 324 158 C
317.70857167999674 129.59369911983856
302.7321399095774 132.00615125469542
305 103
" stroke="rgb(25,179,102)" stroke-width="5" fill-opacity="0.0"></path><path d="
M 324 158 C
331.7402094154304 192.94766312938938
328.48796948133315 213.41720494560008
294 223
" stroke="rgb(25,179,102)" stroke-width="5" fill-opacity="0.0"></path><path d="
M 324 158 C
316.0357355757029 122.04071062743486
305.7745651308477 123.23428133162167
275 103
" stroke="rgb(25,179,102)" stroke-width="5" fill-opacity="0.0"></path><path d="
M 324 158 C
330.04892144899327 185.31136300706922
333.8911945046015 184.28848004505164
347 209
" stroke="rgb(25,179,102)" stroke-width="5" fill-opacity="0.0"></path><path d="
M 486 416 C
450.1681719009187 433.60909126212624
442.168610252211 419.84937944426196
412 446
" stroke="rgb(25,179,102)" stroke-width="5" fill-opacity="0.0"></path><path d="
M 150 61 C
188.80312428977044 59.47765136955157
202.31228611736822 67.96761762730169
214 105
" stroke="rgb(25,179,102)" stroke-width="5" fill-opacity="0.0"></path><path d="
M 150 61 C
106.83020153238729 62.69366474418737
113.71777685959353 32.45689864981449
71 26
" stroke="rgb(25,179,102)" stroke-width="5" fill-opacity="0.0"></path><path d="
M 150 61 C
121.91022397563728 62.10203579848247
114.28792452265984 45.10236553236348
115 17
" stroke="rgb(25,179,102)" stroke-width="5" fill-opacity="0.0"></path><path d="
M 118 497 C
80.4164192497838 485.5119863339227
91.23430124014838 467.6908452450058
71 434
" stroke="rgb(25,179,102)" stroke-width="5" fill-opacity="0.0"></path><path d="
M 118 497 C
154.30562008116908 508.0973848505768
154.1414653903057 482.8251295911127
192 480
" stroke="rgb(25,179,102)" stroke-width="5" fill-opacity="0.0"></path><path d="
M 241 58 C
219.93863983927815 80.99824141495081
228.67195566339032 92.7354593059267
200 105
" stroke="rgb(25,179,102)" stroke-width="5" fill-opacity="0.0"></path><path d="
M 241 58 C
213.03732668314763 88.53422507572432
194.40533005746425 78.67891660049101
185 119
" stroke="rgb(25,179,102)" stroke-width="5" fill-opacity="0.0"></path><path d="
M 241 58 C
261.06314292148033 36.09177560567143
270.9039175452419 43.66444494712343
284 17
" stroke="rgb(25,179,102)" stroke-width="5" fill-opacity="0.0"></path><path d="
M 241 58 C
217.71198151384783 83.42967154700654
200.02279942169895 96.63292021611137
221 124
" stroke="rgb(25,179,102)" stroke-width="5" fill-opacity="0.0"></path><path d="
M 1 440 C
24.509574048184394 460.941583704986
34.529740548034916 461.51938920465744
35 493
" stroke="rgb(25,179,102)" stroke-width="5" fill-opacity="0.0"></path><path d="
M 291 264 C
268.80392207781017 300.10864335407905
250.1612275477709 275.4509852071758
210 289
" stroke="rgb(25,179,102)" stroke-width="5" fill-opacity="0.0"></path><path d="
M 291 264 C
307.7944110315788 236.67880386764915
310.3952958816269 238.04155687719793
324 209
" stroke="rgb(25,179,102)" stroke-width="5" fill-opacity="0.0"></path><path d="
M 6 399 C
27.50688325257128 421.32608279032104
47.783638734333195 422.501036938315
68 399
" stroke="rgb(25,179,102)" stroke-width="5" fill-opacity="0.0"></path><path d="
M 6 399 C
31.608494016234836 425.5839243570332
51.99523470762153 402.3563766900564
71 434
" stroke="rgb(25,179,102)" stroke-width="5" fill-opacity="0.0"></path><path d="
M 171 181 C
188.56016063515406 145.60380305078547
203.18153991164183 157.92507353815975
233 132
" stroke="rgb(25,179,102)" stroke-width="5" fill-opacity="0.0"></path><path d="
M 171 181 C
189.0756045037985 144.56481752725452
162.60503913350118 120.99584014026837
200 105
" stroke="rgb(25,179,102)" stroke-width="5" fill-opacity="0.0"></path><path d="
M 171 181 C
185.12384509001194 152.53041974539587
177.78065746010617 149.9496541707929
185 119
" stroke="rgb(25,179,102)" stroke-width="5" fill-opacity="0.0"></path><path d="
M 490 406 C
451.878017993335 427.6267077449045
445.118817981693 417.2920935020422
412 446
" stroke="rgb(25,179,102)" stroke-width="5" fill-opacity="0.0"></path><path d="
M 137 474 C
162.5206991499137 463.3255484965458
164.41355048252555 482.0585924851301
192 480
" stroke="rgb(25,179,102)" stroke-width="5" fill-opacity="0.0"></path><path d="
M 137 474 C
166.64035115606 461.60243639478097
165.22773145857997 455.77210139580995
197 451
" stroke="rgb(25,179,102)" stroke-width="5" fill-opacity="0.0"></path><path d="
M 137 474 C
103.70494284587954 487.9262044040669
101.5709332379963 480.90010585517996
66 487
" stroke="rgb(25,179,102)" stroke-width="5" fill-opacity="0.0"></path><path d="
M 103 470 C
78.27270160543702 498.8714515413798
64.33318254536522 475.1577567040545
27 468
" stroke="rgb(25,179,102)" stroke-width="5" fill-opacity="0.0"></path><path d="
M 103 470 C
129.07049735818265 439.56023706569005
121.00856499321779 430.2328129596552
155 409
" stroke="rgb(25,179,102)" stroke-width="5" fill-opacity="0.0"></path><path d="
M 103 470 C
131.68446273450257 436.50818611014125
121.37745453295953 429.58182957047836
146 393
" stroke="rgb(25,179,102)" stroke-width="5" fill-opacity="0.0"></path><path d="
M 103 470 C
89.7564317626997 485.4631141864752
86.06636284164244 483.55891262715534
66 487
" stroke="rgb(25,179,102)" stroke-width="5" fill-opacity="0.0"></path><path d="
M 20 279 C
59.17410698786195 294.309779283306
58.09557358700867 256.6081916520876
100 253
" stroke="rgb(25,179,102)" stroke-width="5" fill-opacity="0.0"></path><path d="
M 489 479 C
471.40296706978637 500.7794497646974
457.6900177209719 492.20617374329487
433 479
" stroke="rgb(25,179,102)" stroke-width="5" fill-opacity="0.0"></path><path d="
M 392 216 C
367.7532277820595 245.70427640948876
355.2874721059585 234.0783358091147
317 232
" stroke="rgb(25,179,102)" stroke-width="5" fill-opacity="0.0"></path><path d="
M 392 216 C
372.15384157800884 240.31316507345826
375.91806671559993 242.95161461311028
360 270
" stroke="rgb(25,179,102)" stroke-width="5" fill-opacity="0.0"></path><path d="
M 392 216 C
418.3964018883788 183.66225166547318
435.1887737428997 188.56891331773286
439 147
" stroke="rgb(25,179,102)" stroke-width="5" fill-opacity="0.0"></path><path d="
M 473 29 C
438.7732335616758 48.91929866176024
427.4860181050212 41.468476378983254
410 77
" stroke="rgb(25,179,102)" stroke-width="5" fill-opacity="0.0"></path><path d="
M 473 29 C
450.92257179355624 41.84862497660046
444.0961205141668 38.81645263805151
422 26
" stroke="rgb(25,179,102)" stroke-width="5" fill-opacity="0.0"></path><path d="
M 214 105 C
220.61629456149228 125.96365059515082
219.31708950751153 126.40332826973226
227 147
" stroke="rgb(25,179,102)" stroke-width="5" fill-opacity="0.0"></path><path d="
M 214 105 C
223.64174154658326 135.5497433696077
238.4150473411101 126.53796413055812
267 141
" stroke="rgb(25,179,102)" stroke-width="5" fill-opacity="0.0"></path><path d="
M 214 105 C
223.44597987431487 134.92947484026473
225.46500756259584 134.22720096003482
238 163
" stroke="rgb(25,179,102)" stroke-width="5" fill-opacity="0.0"></path><path d="
M 214 105 C
221.9002077436238 130.03171423629607
221.94317339622913 141.83112206908837
248 145
" stroke="rgb(25,179,102)" stroke-width="5" fill-opacity="0.0"></path><path d="
M 106 344 C
75.93687300657996 313.6485849526336
66.45689197671719 315.2658344264942
24 320
" stroke="rgb(25,179,102)" stroke-width="5" fill-opacity="0.0"></path><path d="
M 106 344 C
76.92927496850825 314.65050347717363
43.28260645063776 334.2466932952389
41 293
" stroke="rgb(25,179,102)" stroke-width="5" fill-opacity="0.0"></path><path d="
M 106 344 C
131.22634209134455 369.4682481668932
132.53067252827472 374.81089519247155
168 380
" stroke="rgb(25,179,102)" stroke-width="5" fill-opacity="0.0"></path><path d="
M 207 392 C
207.24877728066832 373.1535650622028
209.22619519000096 371.71827164771884
221 357
" stroke="rgb(25,179,102)" stroke-width="5" fill-opacity="0.0"></path><path d="
M 207 392 C
206.52680790666648 427.84726055422936
203.74863777766893 429.688569540583
217 463
" stroke="rgb(25,179,102)" stroke-width="5" fill-opacity="0.0"></path><path d="
M 207 392 C
207.51628485862625 352.888192959865
235.48926627725783 361.08805012531656
273 350
" stroke="rgb(25,179,102)" stroke-width="5" fill-opacity="0.0"></path><path d="
M 203 211 C
227.4285103222027 187.09920747259548
238.94431542319833 179.02082648950753
227 147
" stroke="rgb(25,179,102)" stroke-width="5" fill-opacity="0.0"></path><path d="
M 203 211 C
233.2012614849853 181.4511623796207
201.11411270777768 159.72255745034528
233 132
" stroke="rgb(25,179,102)" stroke-width="5" fill-opacity="0.0"></path><path d="
M 203 211 C
179.69263065686405 233.80387103766918
189.88379366986126 242.92758170983282
165 264
" stroke="rgb(25,179,102)" stroke-width="5" fill-opacity="0.0"></path><path d="
M 24 320 C
65.2084501410013 315.4050422225432
52.10802322388068 359.1373303050986
93 366
" stroke="rgb(25,179,102)" stroke-width="5" fill-opacity="0.0"></path><path d="
M 24 320 C
51.34868224914238 316.95047885145146
51.54272129317751 319.82971200353285
79 318
" stroke="rgb(25,179,102)" stroke-width="5" fill-opacity="0.0"></path><path d="
M 158 320 C
120.90049484296239 306.4030622159642
118.42521557983294 315.37276257568936
79 318
" stroke="rgb(25,179,102)" stroke-width="5" fill-opacity="0.0"></path><path d="
M 100 365 C
133.6909846816595 373.7845063139703
133.54934475501682 374.95992527919356
168 380
" stroke="rgb(25,179,102)" stroke-width="5" fill-opacity="0.0"></path><path d="
M 311 311 C
334.59988242778286 293.9399428666013
337.94398319466967 296.93594612744334
367 295
" stroke="rgb(25,179,102)" stroke-width="5" fill-opacity="0.0"></path><path d="
M 311 311 C
336.88918731558664 292.2850332584194
343.79762387089625 297.5314912013688
360 270
" stroke="rgb(25,179,102)" stroke-width="5" fill-opacity="0.0"></path><path d="
M 311 311 C
288.93549105808205 326.95015501968624
299.1091177548144 342.28223024020303
273 350
" stroke="rgb(25,179,102)" stroke-width="5" fill-opacity="0.0"></path><path d="
M 27 468 C
61.05678383667976 474.52958457343715
88.67730641483801 453.9923495332427
78 421
" stroke="rgb(25,179,102)" stroke-width="5" fill-opacity="0.0"></path><path d="
M 1 53 C
3.115886964694248 82.03055325605484
4.6142582760175594 81.92544549138518
6 111
" stroke="rgb(25,179,102)" stroke-width="5" fill-opacity="0.0"></path><path d="
M 1 53 C
3.510243597861062 87.44123512708853
16.77072110476041 89.91560063731242
4 122
" stroke="rgb(25,179,102)" stroke-width="5" fill-opacity="0.0"></path><path d="
M 358 311 C
333.0833565736257 343.398470339862
310.77721245523327 298.98696198338786
277 322
" stroke="rgb(25,179,102)" stroke-width="5" fill-opacity="0.0"></path><path d="
M 457 316 C
463.39350774718855 291.950612093306
457.22984241922524 285.7944028228916
438 270
" stroke="rgb(25,179,102)" stroke-width="5" fill-opacity="0.0"></path><path d="
M 457 316 C
466.5183652203328 280.1963587950561
472.88490837116876 281.95155503579616
496 253
" stroke="rgb(25,179,102)" stroke-width="5" fill-opacity="0.0"></path><path d="
M 457 316 C
448.3052652335414 348.70552839109826
463.510894222817 355.8746975187889
442 382
" stroke="rgb(25,179,102)" stroke-width="5" fill-opacity="0.0"></path><path d="
M 119 190 C
120.68871677439476 160.95868054554205
121.20093951359961 152.44092548967717
147 139
" stroke="rgb(25,179,102)" stroke-width="5" fill-opacity="0.0"></path><path d="
M 24 419 C
22.073298252838615 456.3568978955358
34.441280806203466 455.59762263087435
35 493
" stroke="rgb(25,179,102)" stroke-width="5" fill-opacity="0.0"></path><path d="
M 24 419 C
25.51967675709663 389.5349260555155
23.559329548805568 389.49893473425493
23 360
" stroke="rgb(25,179,102)" stroke-width="5" fill-opacity="0.0"></path><path d="
M 233 132 C
262.03219307860167 106.75853084610974
269.53111820911175 118.12938044390536
301 96
" stroke="rgb(25,179,102)" stroke-width="5" fill-opacity="0.0"></path><path d="
M 233 132 C
261.9929338407926 106.79266401811917
265.94856618218716 111.28039457926684
293 84
" stroke="rgb(25,179,102)" stroke-width="5" fill-opacity="0.0"></path><path d="
M 165 264 C
184.80099786629944 247.23186106036795
191.43343092778156 257.81980520100257
212 242
" stroke="rgb(25,179,102)" stroke-width="5" fill-opacity="0.0"></path><path d="
M 410 334 C
431.0193434806518 351.1300087461268
437.0327688000217 336.1683147408447
464 339
" stroke="rgb(25,179,102)" stroke-width="5" fill-opacity="0.0"></path><path d="
M 155 409 C
125.54346952712709 427.400076426491
121.94724688830412 438.8003774908427
128 473
" stroke="rgb(25,179,102)" stroke-width="5" fill-opacity="0.0"></path><path d="
M 155 409 C
176.80537996906878 395.3792289350223
181.787073254683 380.03193915359776
167 359
" stroke="rgb(25,179,102)" stroke-width="5" fill-opacity="0.0"></path><path d="
M 155 409 C
190.6315966894756 386.74265700137255
194.75647653087435 389.8066681625162
221 357
" stroke="rgb(25,179,102)" stroke-width="5" fill-opacity="0.0"></path><path d="
M 200 105 C
171.05296331037886 117.38220767430944
174.92197603744907 124.45306719049955
147 139
" stroke="rgb(25,179,102)" stroke-width="5" fill-opacity="0.0"></path><path d="
M 84 152 C
69.22070420024748 118.29803543317664
59.63714899656671 95.5694767049155
25 108
" stroke="rgb(25,179,102)" stroke-width="5" fill-opacity="0.0"></path><path d="
M 279 467 C
303.91252394354404 476.7270833635959
313.50726124363945 464.2003429883137
329 486
" stroke="rgb(25,179,102)" stroke-width="5" fill-opacity="0.0"></path><path d="
M 279 467 C
300.7114417298809 475.47722230509424
300.2051993330125 476.7394513568238
322 485
" stroke="rgb(25,179,102)" stroke-width="5" fill-opacity="0.0"></path><path d="
M 279 467 C
250.2548693742862 455.7764771434879
230.98354793504603 449.7991022732279
239 420
" stroke="rgb(25,179,102)" stroke-width="5" fill-opacity="0.0"></path><path d="
M 279 467 C
318.7642481464351 482.52593215715996
326.67137816163887 454.2919341403252
364 475
" stroke="rgb(25,179,102)" stroke-width="5" fill-opacity="0.0"></path><path d="
M 279 467 C
240.0877349440349 451.8067242434583
238.30983824698546 444.79538365344837
197 451
" stroke="rgb(25,179,102)" stroke-width="5" fill-opacity="0.0"></path><path d="
M 128 473 C
120.85473807868533 432.6274197991284
123.1064663910187 427.01302866394644
146 393
" stroke="rgb(25,179,102)" stroke-width="5" fill-opacity="0.0"></path><path d="
M 128 473 C
121.7140207257051 437.4825892756364
89.10600365188166 455.31700282490283
78 421
" stroke="rgb(25,179,102)" stroke-width="5" fill-opacity="0.0"></path><path d="
M 128 473 C
126.68137276336005 465.5494146397218
126.58044699558867 465.544075906651
126 458
" stroke="rgb(25,179,102)" stroke-width="5" fill-opacity="0.0"></path><path d="
M 424 5 C
444.71636330353374 24.06127727818893
449.6142721988431 17.69287989838861
471 36
" stroke="rgb(25,179,102)" stroke-width="5" fill-opacity="0.0"></path><path d="
M 451 361 C
428.112985781889 393.44124812919483
427.57086831810875 403.41869472609187
443 440
" stroke="rgb(25,179,102)" stroke-width="5" fill-opacity="0.0"></path><path d="
M 321 450 C
339.2560005640076 415.2909458007431
313.2351186399303 395.94825272399606
347 376
" stroke="rgb(25,179,102)" stroke-width="5" fill-opacity="0.0"></path><path d="
M 41 293 C
39.03065186667653 257.41388377569456
64.4908247149598 256.05752687253766
100 253
" stroke="rgb(25,179,102)" stroke-width="5" fill-opacity="0.0"></path><path d="
M 41 293 C
42.91670744210395 327.6348990554525
22.342400747729283 325.3183396703184
23 360
" stroke="rgb(25,179,102)" stroke-width="5" fill-opacity="0.0"></path><path d="
M 156 393 C
150.7469129439418 428.40699191376575
123.2540554613211 422.3109290035381
126 458
" stroke="rgb(25,179,102)" stroke-width="5" fill-opacity="0.0"></path><path d="
M 156 393 C
152.35685778295803 417.55560047700743
134.9918215276373 425.36088365707394
112 416
" stroke="rgb(25,179,102)" stroke-width="5" fill-opacity="0.0"></path><path d="
M 147 139 C
115.657345952794 155.3290550025763
118.05705184405471 173.47248432118667
83 169
" stroke="rgb(25,179,102)" stroke-width="5" fill-opacity="0.0"></path><path d="
M 418 22 C
439.0263603445411 21.622944750056917
441.19041742519653 17.860183766579883
455 2
" stroke="rgb(25,179,102)" stroke-width="5" fill-opacity="0.0"></path><path d="
M 418 22 C
434.00523736129816 21.712986048237806
433.0605043108415 28.522679054742124
449 30
" stroke="rgb(25,179,102)" stroke-width="5" fill-opacity="0.0"></path><path d="
M 391 484 C
378.6461905771263 456.9143323371323
382.28973486947905 454.76147717174615
383 425
" stroke="rgb(25,179,102)" stroke-width="5" fill-opacity="0.0"></path><path d="
M 324 209 C
312.30132806776584 233.97280671093972
308.4040135610934 232.9575031213551
303 260
" stroke="rgb(25,179,102)" stroke-width="5" fill-opacity="0.0"></path><path d="
M 310 170 C
276.79723074166003 173.85046926717195
281.1808184024984 149.03525589528417
248 145
" stroke="rgb(25,179,102)" stroke-width="5" fill-opacity="0.0"></path><path d="
M 289 34 C
266.7727636306798 70.81304067015341
271.1185061119219 73.13217135684542
255 113
" stroke="rgb(25,179,102)" stroke-width="5" fill-opacity="0.0"></path><path d="
M 25 108 C
57.72020703910685 96.25742569459395
38.694039362280336 70.11412678753051
70 55
" stroke="rgb(25,179,102)" stroke-width="5" fill-opacity="0.0"></path><path d="
M 146 393 C
169.22648033872068 358.4923108412774
195.01610711080716 389.482107541275
221 357
" stroke="rgb(25,179,102)" stroke-width="5" fill-opacity="0.0"></path><path d="
M 146 393 C
127.0130657180913 421.2089759930147
123.391440813766 424.0965279215843
126 458
" stroke="rgb(25,179,102)" stroke-width="5" fill-opacity="0.0"></path><path d="
M 322 485 C
280.99977801506617 469.460315409052
294.16217471668887 450.19392046244786
259 424
" stroke="rgb(25,179,102)" stroke-width="5" fill-opacity="0.0"></path><path d="
M 327 366 C
371.1217107558108 367.3321561397108
370.2658762480939 386.9855174924947
414 381
" stroke="rgb(25,179,102)" stroke-width="5" fill-opacity="0.0"></path><path d="
M 294 223 C
253.45002246326342 234.2671789623738
245.35904422050234 216.34022274659094
212 242
" stroke="rgb(25,179,102)" stroke-width="5" fill-opacity="0.0"></path><path d="
M 294 223 C
262.3032683116105 231.80722432292058
260.93499601426606 240.3437466389082
249 271
" stroke="rgb(25,179,102)" stroke-width="5" fill-opacity="0.0"></path><path d="
M 46 429 C
61.30325253045301 457.6366978192176
34.515026801934184 460.5344058887388
35 493
" stroke="rgb(25,179,102)" stroke-width="5" fill-opacity="0.0"></path><path d="
M 46 429 C
28.860040932350596 396.92630668040704
23.689415773911165 396.35965767015256
23 360
" stroke="rgb(25,179,102)" stroke-width="5" fill-opacity="0.0"></path><path d="
M 71 26 C
37.76207776137863 20.976005049827506
41.90762491700909 58.86208585791831
9 52
" stroke="rgb(25,179,102)" stroke-width="5" fill-opacity="0.0"></path><path d="
M 148 278 C
123.5209167144121 266.46637604665165
126.9603592010705 250.67857118367746
100 253
" stroke="rgb(25,179,102)" stroke-width="5" fill-opacity="0.0"></path><path d="
M 242 387 C
258.52446290951474 353.99330180778344
246.4951551122312 342.7835136195294
277 322
" stroke="rgb(25,179,102)" stroke-width="5" fill-opacity="0.0"></path><path d="
M 242 387 C
224.4878168254067 421.97961464138064
235.6844986594637 445.1897019468921
197 451
" stroke="rgb(25,179,102)" stroke-width="5" fill-opacity="0.0"></path><path d="
M 274 314 C
243.21104690403826 328.7153106407805
242.31667848105053 330.3523130734482
221 357
" stroke="rgb(25,179,102)" stroke-width="5" fill-opacity="0.0"></path><path d="
M 304 490 C
334.04027124430576 504.4942093116023
359.08058368053554 495.8246936076616
365 463
" stroke="rgb(25,179,102)" stroke-width="5" fill-opacity="0.0"></path><path d="
M 6 111 C
7.680825569800884 146.2657741358942
21.24160209440685 144.69501977867742
21 180
" stroke="rgb(25,179,102)" stroke-width="5" fill-opacity="0.0"></path><path d="
M 414 381 C
454.1870543453946 375.499939723939
443.53152077991626 337.2518752550784
484 340
" stroke="rgb(25,179,102)" stroke-width="5" fill-opacity="0.0"></path><path d="
M 414 381 C
380.7171118009921 385.5551457860688
375.9226340127193 358.91254138947824
347 376
" stroke="rgb(25,179,102)" stroke-width="5" fill-opacity="0.0"></path><path d="
M 414 381 C
387.33666455981813 384.6491839093611
383.6420762736881 398.0957672835896
383 425
" stroke="rgb(25,179,102)" stroke-width="5" fill-opacity="0.0"></path><path d="
M 410 77 C
429.31007664309885 37.76199622766663
426.2824522152515 34.98185030028919
455 2
" stroke="rgb(25,179,102)" stroke-width="5" fill-opacity="0.0"></path><path d="
M 422 26 C
445.944789069452 39.88873919473808
467.63076984318525 36.682287137647926
475 10
" stroke="rgb(25,179,102)" stroke-width="5" fill-opacity="0.0"></path><path d="
M 100 253 C
139.73092590001286 249.57895818095022
149.59680158750803 247.83914309172184
169 213
" stroke="rgb(25,179,102)" stroke-width="5" fill-opacity="0.0"></path><path d="
M 168 380 C
196.583444340718 384.1817113268465
202.95474768613803 379.5581220168936
221 357
" stroke="rgb(25,179,102)" stroke-width="5" fill-opacity="0.0"></path><path d="
M 168 380 C
130.25406444294688 374.477831139598
130.6216113768147 372.31382272572847
93 366
" stroke="rgb(25,179,102)" stroke-width="5" fill-opacity="0.0"></path><path d="
M 168 380 C
203.04586009933683 385.12715222103964
203.9921866912412 385.88230407417046
235 403
" stroke="rgb(25,179,102)" stroke-width="5" fill-opacity="0.0"></path><path d="
M 426 408 C
429.27129706331493 425.81989381347563
435.9590493041505 423.30643796852763
443 440
" stroke="rgb(25,179,102)" stroke-width="5" fill-opacity="0.0"></path><path d="
M 327 201 C
288.2913023289614 183.63230802287958
304.85708278510833 160.15310113275274
267 141
" stroke="rgb(25,179,102)" stroke-width="5" fill-opacity="0.0"></path><path d="
M 327 201 C
361.8915485648408 216.65502598999305
379.3963558287735 237.0412169435277
360 270
" stroke="rgb(25,179,102)" stroke-width="5" fill-opacity="0.0"></path><path d="
M 172 498 C
153.67807383216356 478.691788754513
170.67758656641237 454.9535491689476
197 451
" stroke="rgb(25,179,102)" stroke-width="5" fill-opacity="0.0"></path><path d="
M 65 241 C
48.77786933480648 207.0722462181566
20.742653866794523 217.60563485659728
21 180
" stroke="rgb(25,179,102)" stroke-width="5" fill-opacity="0.0"></path><path d="
M 259 424 C
246.2128713639217 414.4742800143828
248.9593851058739 410.7062031809385
235 403
" stroke="rgb(25,179,102)" stroke-width="5" fill-opacity="0.0"></path><path d="
M 229 155 C
201.85389750071815 186.68736529120847
189.3020553808044 176.5469267781885
169 213
" stroke="rgb(25,179,102)" stroke-width="5" fill-opacity="0.0"></path><path d="
M 229 155 C
245.0684141407369 136.24350600453897
245.74253897982112 135.89758536308727
255 113
" stroke="rgb(25,179,102)" stroke-width="5" fill-opacity="0.0"></path><path d="
M 71 434 C
52.601191311479916 403.3653164069998
57.75771673310221 360.08548648359516
93 366
" stroke="rgb(25,179,102)" stroke-width="5" fill-opacity="0.0"></path><path d="
M 9 52 C
38.89384215581043 58.23363466714976
42.500289129626935 68.27651693953973
70 55
" stroke="rgb(25,179,102)" stroke-width="5" fill-opacity="0.0"></path><path d="
M 438 270 C
418.0387833188179 253.60488400141992
405.3888629190454 257.72048471460073
403 232
" stroke="rgb(25,179,102)" stroke-width="5" fill-opacity="0.0"></path><path d="
M 140 288 C
169.39123319145116 312.0552574603919
145.1556359591337 327.9303402070427
167 359
" stroke="rgb(25,179,102)" stroke-width="5" fill-opacity="0.0"></path><path d="
M 123 366 C
108.0572635647265 367.3094379809483
107.79312230983754 368.48264623460267
93 366
" stroke="rgb(25,179,102)" stroke-width="5" fill-opacity="0.0"></path><path d="
M 147 128 C
132.50793760691968 95.82500772968132
114.08911215566334 83.95225312945975
138 58
" stroke="rgb(25,179,102)" stroke-width="5" fill-opacity="0.0"></path><path d="
M 147 128 C
135.70074370317673 102.91361311111743
115.36101520982531 91.49516118348332
95 110
" stroke="rgb(25,179,102)" stroke-width="5" fill-opacity="0.0"></path><path d="
M 466 285 C
434.01214069441306 296.3699981110806
429.60024440550063 329.4755151947997
455 352
" stroke="rgb(25,179,102)" stroke-width="5" fill-opacity="0.0"></path><path d="
M 167 359 C
190.29181964794043 392.12840378720074
199.54661296386507 383.4281490996375
235 403
" stroke="rgb(25,179,102)" stroke-width="5" fill-opacity="0.0"></path><path d="
M 239 420 C
247.4428693797788 388.6158008444378
255.46912511978576 391.4224182596958
278 368
" stroke="rgb(25,179,102)" stroke-width="5" fill-opacity="0.0"></path><path d="
M 315 334 C
327.02312613899505 303.8057217697489
334.5718993073276 297.1606215461992
367 295
" stroke="rgb(25,179,102)" stroke-width="5" fill-opacity="0.0"></path><path d="
M 315 334 C
329.4715562352092 297.6568567659431
340.15946405478945 303.7135452512311
360 270
" stroke="rgb(25,179,102)" stroke-width="5" fill-opacity="0.0"></path><path d="
M 315 334 C
305.70531367123476 357.3422108218109
295.41788386009154 349.8928930572451
278 368
" stroke="rgb(25,179,102)" stroke-width="5" fill-opacity="0.0"></path><path d="
M 315 334 C
306.117531044125 356.3069887086517
291.5755062577205 351.04133183935545
290 375
" stroke="rgb(25,179,102)" stroke-width="5" fill-opacity="0.0"></path><path d="
M 238 163 C
229.50398534628994 143.49826328236523
233.94094213543326 140.88289124076113
221 124
" stroke="rgb(25,179,102)" stroke-width="5" fill-opacity="0.0"></path><path d="
M 221 357 C
241.62589658962577 331.21585002614853
249.7125085138565 340.59147138861385
277 322
" stroke="rgb(25,179,102)" stroke-width="5" fill-opacity="0.0"></path><path d="
M 364 475 C
394.21938361088326 491.76421349715764
402.52729584856934 462.7007883104924
433 479
" stroke="rgb(25,179,102)" stroke-width="5" fill-opacity="0.0"></path><path d="
M 307 447 C
326.19982250154845 411.0609291173376
311.91885135680013 396.725901907365
347 376
" stroke="rgb(25,179,102)" stroke-width="5" fill-opacity="0.0"></path><path d="
M 257 164 C
272.3582166403007 126.52834162157232
267.8737421991276 119.29487162682248
301 96
" stroke="rgb(25,179,102)" stroke-width="5" fill-opacity="0.0"></path><path d="
M 257 164 C
266.67815857131626 140.38679931334048
245.43465050540723 136.65912274464745
255 113
" stroke="rgb(25,179,102)" stroke-width="5" fill-opacity="0.0"></path><path d="
M 257 164 C
273.6349461453575 123.41332032869583
262.1148550262027 115.14655390163611
293 84
" stroke="rgb(25,179,102)" stroke-width="5" fill-opacity="0.0"></path><path d="
M 23 360 C
22.336483969441357 325.0062899012238
44.07745421364386 320.3271862409054
79 318
" stroke="rgb(25,179,102)" stroke-width="5" fill-opacity="0.0"></path><path d="
M 138 58 C
115.13947201232932 82.81221997574835
119.96722747250611 87.30886621748186
95 110
" stroke="rgb(25,179,102)" stroke-width="5" fill-opacity="0.0"></path><path d="
M 443 440 C
431.72824671468436 413.2755247408864
423.5638236758474 404.3910116463003
442 382
" stroke="rgb(25,179,102)" stroke-width="5" fill-opacity="0.0"></path><path d="
M 484 340 C
474.01051440193015 339.32163616992386
473.95774573387905 340.0456098217849
464 339
" stroke="rgb(25,179,102)" stroke-width="5" fill-opacity="0.0"></path><path d="
M 119 418 C
158.46439360578404 433.35615958916003
155.12293861675363 457.2898115952559
197 451
" stroke="rgb(25,179,102)" stroke-width="5" fill-opacity="0.0"></path><path d="
M 235 403 C
262.01539354187867 417.9137021486088
287.9751354955703 405.7920431887639
290 375
" stroke="rgb(25,179,102)" stroke-width="5" fill-opacity="0.0"></path><line x1="352.99188223989853" y1="409.2205462821717" x2="347.00811776010147" y2="408.7794537178283" stroke="#808" stroke-width="2"></line><line x1="118.13266453832944" y1="119.12811400001172" x2="119.86733546167056" y2="124.87188599998828" stroke="#808" stroke-width="2"></line><line x1="357.8585297662116" y1="281.35496647706617" x2="354.1414702337884" y2="276.64503352293383" stroke="#808" stroke-width="2"></line><line x1="183.05295910198944" y1="387.7176696686338" x2="186.94704089801056" y2="392.2823303313662" stroke="#808" stroke-width="2"></line><line x1="464.00405082307054" y1="405.15584777590874" x2="469.99594917692946" y2="404.84415222409126" stroke="#808" stroke-width="2"></line><line x1="418.637263913592" y1="12.486164906512482" x2="415.362736086408" y2="17.51383509348752" stroke="#808" stroke-width="2"></line><line x1="488.23197392519245" y1="143.5763490765375" x2="491.76802607480755" y2="148.4236509234625" stroke="#040" stroke-width="5"></line><line x1="481.93364500557345" y1="158.17489701756392" x2="486.06635499442655" y2="153.82510298243608" stroke="#808" stroke-width="2"></line><line x1="442.9998838538966" y1="308.0263981652812" x2="437.0001161461034" y2="307.9736018347188" stroke="#808" stroke-width="2"></line><line x1="99.5477449661183" y1="193.72813345804133" x2="104.4522550338817" y2="190.27186654195867" stroke="#808" stroke-width="2"></line><line x1="128.86282443849908" y1="189.89465427558247" x2="133.13717556150092" y2="194.10534572441753" stroke="#808" stroke-width="2"></line><line x1="57.0009814814181" y1="298.0767328169874" x2="62.9990185185819" y2="297.9232671830126" stroke="#808" stroke-width="2"></line><line x1="356.9187807620967" y1="234.6933389234815" x2="351.0812192379033" y2="233.3066610765185" stroke="#808" stroke-width="2"></line><line x1="102.26697127173074" y1="168.76284440329644" x2="107.73302872826926" y2="171.23715559670356" stroke="#808" stroke-width="2"></line><line x1="340.6888716138944" y1="6.016177095174829" x2="341.3111283861056" y2="11.983822904825171" stroke="#040" stroke-width="5"></line><line x1="136.00033237573282" y1="300.0446558386248" x2="141.99966762426718" y2="299.9553441613752" stroke="#808" stroke-width="2"></line><line x1="120.23904179131877" y1="21.173503204050046" x2="125.76095820868123" y2="18.826496795949954" stroke="#808" stroke-width="2"></line><line x1="361.1392507096256" y1="288.1261331521589" x2="362.8607492903744" y2="293.8738668478411" stroke="#808" stroke-width="2"></line><line x1="204.72861761164836" y1="457.089825370189" x2="203.27138238835164" y2="462.910174629811" stroke="#808" stroke-width="2"></line><line x1="252.98211358275927" y1="432.67289362659426" x2="247.01788641724073" y2="433.32710637340574" stroke="#808" stroke-width="2"></line><line x1="304.17435157247104" y1="424.2394025312924" x2="301.82564842752896" y2="429.7605974687076" stroke="#808" stroke-width="2"></line><line x1="421.7533954716919" y1="293.7287317841814" x2="424.2466045283081" y2="288.2712682158186" stroke="#808" stroke-width="2"></line><line x1="73.06577667246844" y1="128.624766727803" x2="78.93422332753156" y2="127.375233272197" stroke="#808" stroke-width="2"></line><line x1="420.8551617448462" y1="39.87553445295853" x2="419.1448382551538" y2="34.12446554704147" stroke="#808" stroke-width="2"></line><line x1="386.20024944054586" y1="284.7494365387238" x2="383.79975055945414" y2="279.2505634612762" stroke="#808" stroke-width="2"></line><line x1="155.83781624927383" y1="55.02696406265886" x2="150.16218375072617" y2="56.97303593734114" stroke="#808" stroke-width="2"></line><line x1="487.34443471049303" y1="236.39569803079524" x2="492.65556528950697" y2="233.60430196920476" stroke="#808" stroke-width="2"></line><line x1="170.81188682425713" y1="262.2452972789017" x2="173.18811317574287" y2="267.7547027210983" stroke="#808" stroke-width="2"></line><line x1="477.46982332200946" y1="52.38473339751431" x2="474.53017667799054" y2="57.61526660248569" stroke="#808" stroke-width="2"></line><line x1="324.6487196101605" y1="160.92902080350981" x2="323.3512803898395" y2="155.07097919649019" stroke="#808" stroke-width="2"></line><line x1="488.69244017445806" y1="414.6768348905128" x2="483.30755982554194" y2="417.3231651094872" stroke="#808" stroke-width="2"></line><line x1="152.99769386293966" y1="60.882392584868406" x2="147.00230613706034" y2="61.117607415131594" stroke="#808" stroke-width="2"></line><line x1="115.13103365794404" y1="496.123055230844" x2="120.86896634205596" y2="497.876944769156" stroke="#808" stroke-width="2"></line><line x1="238.9738907252595" y1="60.21243784247389" x2="243.0261092747405" y2="55.78756215752611" stroke="#808" stroke-width="2"></line><line x1="-1.240136153163418" y1="438.0045576893104" x2="3.240136153163418" y2="441.9954423106896" stroke="#808" stroke-width="2"></line><line x1="188.44528690169435" y1="272.2620207226776" x2="183.55471309830565" y2="275.7379792773224" stroke="#040" stroke-width="5"></line><line x1="11.326069609989727" y1="234.3601824397409" x2="16.673930390010273" y2="231.6398175602591" stroke="#040" stroke-width="5"></line><line x1="292.57102785284593" y1="261.4442473739459" x2="289.42897214715407" y2="266.5557526260541" stroke="#808" stroke-width="2"></line><line x1="8.0813112825069" y1="401.16058865712785" x2="3.9186887174931018" y2="396.83941134287215" stroke="#808" stroke-width="2"></line><line x1="172.33325589751453" y1="178.31254233303244" x2="169.66674410248547" y2="183.68745766696756" stroke="#808" stroke-width="2"></line><line x1="487.39064574564895" y1="407.4802940165049" x2="492.60935425435105" y2="404.5197059834951" stroke="#808" stroke-width="2"></line><line x1="134.23234371925597" y1="475.1576176880379" x2="139.76765628074403" y2="472.8423823119621" stroke="#808" stroke-width="2"></line><line x1="101.04852046670008" y1="472.2785362913747" x2="104.95147953329992" y2="467.7214637086253" stroke="#808" stroke-width="2"></line><line x1="22.794193276817587" y1="280.09200912623817" x2="17.205806723182413" y2="277.90799087376183" stroke="#808" stroke-width="2"></line><line x1="490.88539638538003" y1="476.666487525211" x2="487.11460361461997" y2="481.333512474789" stroke="#808" stroke-width="2"></line><line x1="393.89705356284463" y1="213.6759544368282" x2="390.10294643715537" y2="218.3240455631718" stroke="#808" stroke-width="2"></line><line x1="475.5928624475416" y1="27.491005524155714" x2="470.4071375524584" y2="30.508994475844286" stroke="#808" stroke-width="2"></line><line x1="213.0970781652498" y1="102.13910290986702" x2="214.9029218347502" y2="107.86089709013298" stroke="#808" stroke-width="2"></line><line x1="108.1111737229677" y1="346.1314186617018" x2="103.8888262770323" y2="341.8685813382982" stroke="#808" stroke-width="2"></line><line x1="207.15740738957516" y1="289.9589928316511" x2="212.84259261042484" y2="288.0410071683489" stroke="#808" stroke-width="2"></line><line x1="207.03959724108384" y1="389.00026133496624" x2="206.96040275891616" y2="394.99973866503376" stroke="#808" stroke-width="2"></line><line x1="205.14435565430233" y1="208.9019678677719" x2="200.85564434569767" y2="213.0980321322281" stroke="#808" stroke-width="2"></line><line x1="225.9515177152973" y1="144.18918430012485" x2="228.0484822847027" y2="149.81081569987515" stroke="#808" stroke-width="2"></line><line x1="21.0184779939977" y1="320.3324553018437" x2="26.9815220060023" y2="319.6675446981563" stroke="#808" stroke-width="2"></line><line x1="155.18321858932939" y1="318.9676519557337" x2="160.81678141067061" y2="321.0323480442663" stroke="#808" stroke-width="2"></line><line x1="102.9029453670338" y1="365.7569069929767" x2="97.0970546329662" y2="364.2430930070233" stroke="#808" stroke-width="2"></line><line x1="4.732336357443753" y1="407.90924104528415" x2="3.267663642556247" y2="402.09075895471585" stroke="#040" stroke-width="5"></line><line x1="426.94077019693935" y1="68.40681314175623" x2="421.05922980306065" y2="69.59318685824377" stroke="#040" stroke-width="5"></line><line x1="308.56873013044776" y1="312.75753430163036" x2="313.43126986955224" y2="309.24246569836964" stroke="#808" stroke-width="2"></line><line x1="469.4799843413461" y1="12.961353581060957" x2="468.5200156586539" y2="7.038646418939043" stroke="#040" stroke-width="5"></line><line x1="66.04357794203224" y1="401.2742938972563" x2="69.95642205796776" y2="396.7257061027437" stroke="#808" stroke-width="2"></line><line x1="29.946336493688655" y1="468.5648904902354" x2="24.053663506311345" y2="467.4351095097646" stroke="#808" stroke-width="2"></line><line x1="305.23384281580064" y1="100.0091276293532" x2="304.76615718419936" y2="105.9908723706468" stroke="#808" stroke-width="2"></line><line x1="111.99581266841504" y1="165.82694319063617" x2="114.00418733158496" y2="160.17305680936383" stroke="#808" stroke-width="2"></line><line x1="0.7819239717030908" y1="50.00793669086327" x2="1.2180760282969092" y2="55.99206330913673" stroke="#808" stroke-width="2"></line><line x1="359.8288898595509" y1="308.62194157312484" x2="356.1711101404491" y2="313.37805842687516" stroke="#808" stroke-width="2"></line><line x1="457.77077468574237" y1="313.1007058818018" x2="456.22922531425763" y2="318.8992941181982" stroke="#808" stroke-width="2"></line><line x1="119.17415210620896" y1="187.00505909175106" x2="118.82584789379104" y2="192.99494090824894" stroke="#808" stroke-width="2"></line><line x1="24.154521205675756" y1="416.003982110034" x2="23.845478794324244" y2="421.996017889966" stroke="#808" stroke-width="2"></line><line x1="230.73603222694797" y1="133.9683622437402" x2="235.26396777305203" y2="130.0316377562598" stroke="#808" stroke-width="2"></line><line x1="162.710608054007" y1="265.9387327091743" x2="167.289391945993" y2="262.0612672908257" stroke="#808" stroke-width="2"></line><line x1="412.3255350272931" y1="335.8952273839392" x2="407.6744649727069" y2="332.1047726160608" stroke="#808" stroke-width="2"></line><line x1="152.45560704838607" y1="410.58935977921215" x2="157.54439295161393" y2="407.41064022078785" stroke="#808" stroke-width="2"></line><line x1="472.5706657737026" y1="0.36238674754337197" x2="475.4293342262974" y2="5.637613252456628" stroke="#808" stroke-width="2"></line><line x1="197.24174911538321" y1="106.1798525575303" x2="202.75825088461679" y2="103.8201474424697" stroke="#808" stroke-width="2"></line><line x1="82.79517055163298" y1="149.25256738019883" x2="85.20482944836702" y2="154.74743261980117" stroke="#808" stroke-width="2"></line><line x1="281.7945382000127" y1="468.0911261378364" x2="276.2054617999873" y2="465.9088738621636" stroke="#808" stroke-width="2"></line><line x1="128.52282404302304" y1="475.9540912342101" x2="127.47717595697698" y2="470.0459087657899" stroke="#808" stroke-width="2"></line><line x1="421.7923250088569" y1="2.96870210616921" x2="426.2076749911431" y2="7.03129789383079" stroke="#808" stroke-width="2"></line><line x1="173.02152540377762" y1="11.64126739811125" x2="178.97847459622238" y2="12.35873260188875" stroke="#808" stroke-width="2"></line><line x1="449.27059048396546" y1="363.4513552834808" x2="452.72940951603454" y2="358.5486447165192" stroke="#808" stroke-width="2"></line><line x1="322.39652504121" y1="447.3448695306495" x2="319.60347495879" y2="452.6551304693505" stroke="#808" stroke-width="2"></line><line x1="41.1657674087331" y1="295.9954166932502" x2="40.8342325912669" y2="290.0045833067498" stroke="#808" stroke-width="2"></line><line x1="456.0654737897431" y1="303.62334253931147" x2="461.9345262102569" y2="302.37665746068853" stroke="#040" stroke-width="5"></line><line x1="156.44026981755192" y1="390.0324820998429" x2="155.55973018244808" y2="395.9675179001571" stroke="#808" stroke-width="2"></line><line x1="144.33942317027717" y1="140.38612082198563" x2="149.66057682972283" y2="137.61387917801437" stroke="#808" stroke-width="2"></line><line x1="373.59929056608934" y1="101.46183734066989" x2="370.40070943391066" y2="106.53816265933011" stroke="#808" stroke-width="2"></line><line x1="420.9995177543608" y1="21.94621114172654" x2="415.0004822456392" y2="22.05378885827346" stroke="#808" stroke-width="2"></line><line x1="146.32119344285704" y1="18.69340822872278" x2="143.67880655714296" y2="13.306591771277217" stroke="#040" stroke-width="5"></line><line x1="389.7550725930453" y1="481.27050265590657" x2="392.2449274069547" y2="486.72949734409343" stroke="#808" stroke-width="2"></line><line x1="325.27264773140917" y1="206.28331677375903" x2="322.72735226859083" y2="211.71668322624097" stroke="#808" stroke-width="2"></line><line x1="312.9800282448233" y1="169.65441114014567" x2="307.0199717551767" y2="170.34558885985433" stroke="#808" stroke-width="2"></line><line x1="290.5506325955215" y1="31.431821938862832" x2="287.4493674044785" y2="36.56817806113717" stroke="#808" stroke-width="2"></line><line x1="27.823670199444727" y1="106.98664586408908" x2="22.176329800555273" y2="109.01335413591092" stroke="#808" stroke-width="2"></line><line x1="144.32486339446478" y1="395.4887581949229" x2="147.67513660553522" y2="390.5112418050771" stroke="#808" stroke-width="2"></line><line x1="330.73788293693485" y1="488.44535537243786" x2="327.26211706306515" y2="483.55464462756214" stroke="#808" stroke-width="2"></line><line x1="319.1947324464531" y1="483.93676251335035" x2="324.8052675535469" y2="486.06323748664965" stroke="#808" stroke-width="2"></line><line x1="329.9986335302248" y1="366.090537016802" x2="324.0013664697752" y2="365.909462983198" stroke="#808" stroke-width="2"></line><line x1="291.10950687295923" y1="223.80314972609725" x2="296.89049312704077" y2="222.19685027390275" stroke="#808" stroke-width="2"></line><line x1="184.31851199470478" y1="121.92157048496844" x2="185.68148800529522" y2="116.07842951503156" stroke="#808" stroke-width="2"></line><line x1="47.41394720841291" y1="431.645893666008" x2="44.58605279158709" y2="426.354106333992" stroke="#808" stroke-width="2"></line><line x1="73.96630565988164" y1="26.448364508133935" x2="68.03369434011836" y2="25.551635491866065" stroke="#808" stroke-width="2"></line><line x1="145.28614453331446" y1="276.7213333092862" x2="150.71385546668554" y2="279.2786666907138" stroke="#808" stroke-width="2"></line><line x1="243.3430134184828" y1="384.31740518196" x2="240.6569865815172" y2="389.68259481804" stroke="#808" stroke-width="2"></line><line x1="276.7067393103213" y1="312.70633763834553" x2="271.2932606896787" y2="315.29366236165447" stroke="#808" stroke-width="2"></line><line x1="306.7019362292366" y1="491.30366430231817" x2="301.2980637707634" y2="488.69633569768183" stroke="#808" stroke-width="2"></line><line x1="6.1428228711901305" y1="113.99659834269877" x2="5.8571771288098695" y2="108.00340165730123" stroke="#808" stroke-width="2"></line><line x1="416.9722920451401" y1="380.59320767165906" x2="411.0277079548599" y2="381.40679232834094" stroke="#808" stroke-width="2"></line><line x1="411.32466032931393" y1="74.30829514769137" x2="408.67533967068607" y2="79.69170485230863" stroke="#808" stroke-width="2"></line><line x1="419.40494225224955" y1="24.49478397369672" x2="424.59505774775045" y2="27.50521602630328" stroke="#808" stroke-width="2"></line><line x1="97.01105971379621" y1="253.25736348907344" x2="102.98894028620379" y2="252.74263651092656" stroke="#808" stroke-width="2"></line><line x1="314.00441012444617" y1="231.83739219736015" x2="319.99558987555383" y2="232.16260780263985" stroke="#808" stroke-width="2"></line><line x1="285.322529288068" y1="14.307247452475004" x2="282.677470711932" y2="19.692752547524996" stroke="#808" stroke-width="2"></line><line x1="165.03159848310565" y1="379.5657276954498" x2="170.96840151689435" y2="380.4342723045502" stroke="#808" stroke-width="2"></line><line x1="5.109449353595288" y1="119.21268549822469" x2="2.8905506464047117" y2="124.78731450177531" stroke="#808" stroke-width="2"></line><line x1="272.49329469352665" y1="101.3518408734293" x2="277.50670530647335" y2="104.6481591265707" stroke="#808" stroke-width="2"></line><line x1="456.9700075255387" y1="-0.2625362647526499" x2="453.0299924744613" y2="4.26253626475265" stroke="#808" stroke-width="2"></line><line x1="80.02411991932131" y1="168.62034522863553" x2="85.97588008067869" y2="169.37965477136447" stroke="#808" stroke-width="2"></line><line x1="34.955190800243564" y1="490.0003346627303" x2="35.044809199756436" y2="495.9996653372697" stroke="#808" stroke-width="2"></line><line x1="425.4583249013197" y1="405.04930718517335" x2="426.5416750986803" y2="410.95069281482665" stroke="#808" stroke-width="2"></line><line x1="329.73711826140914" y1="202.2280812770581" x2="324.26288173859086" y2="199.7719187229419" stroke="#808" stroke-width="2"></line><line x1="174.06501141240815" y1="500.17617275661286" x2="169.93498858759185" y2="495.82382724338714" stroke="#808" stroke-width="2"></line><line x1="63.70590530691107" y1="238.2934673611207" x2="66.29409469308894" y2="243.7065326388793" stroke="#808" stroke-width="2"></line><line x1="261.4058237509329" y1="425.7922087153697" x2="256.5941762490671" y2="422.2077912846303" stroke="#808" stroke-width="2"></line><line x1="230.95177321520214" y1="152.7217152687999" x2="227.04822678479786" y2="157.2782847312001" stroke="#808" stroke-width="2"></line><line x1="72.54459814776092" y1="436.5718119219596" x2="69.45540185223908" y2="431.4281880780404" stroke="#808" stroke-width="2"></line><line x1="264.32310000467095" y1="139.64567123082787" x2="269.67689999532905" y2="142.35432876917213" stroke="#808" stroke-width="2"></line><line x1="6.063171598278739" y1="51.387595771697036" x2="11.936828401721261" y2="52.612404228302964" stroke="#808" stroke-width="2"></line><line x1="435.68173022796896" y1="268.09589252822036" x2="440.31826977203104" y2="271.90410747177964" stroke="#808" stroke-width="2"></line><line x1="137.6784333717406" y1="286.0999135833988" x2="142.3215666282594" y2="289.9000864166012" stroke="#808" stroke-width="2"></line><line x1="171.99567382069748" y1="331.16105390398167" x2="166.00432617930252" y2="330.83894609601833" stroke="#040" stroke-width="5"></line><line x1="120.0114527129453" y1="366.26188759618964" x2="125.9885472870547" y2="365.73811240381036" stroke="#808" stroke-width="2"></line><line x1="148.23203536623808" y1="130.7353407203379" x2="145.76796463376192" y2="125.26465927966211" stroke="#808" stroke-width="2"></line><line x1="463.1732593466061" y1="286.00475732316323" x2="468.8267406533939" y2="283.99524267683677" stroke="#808" stroke-width="2"></line><line x1="461.72759113227585" y1="166.2490983208419" x2="456.27240886772415" y2="163.7509016791581" stroke="#040" stroke-width="5"></line><line x1="165.27454852804286" y1="356.54585713172173" x2="168.72545147195714" y2="361.45414286827827" stroke="#808" stroke-width="2"></line><line x1="78.9237201520612" y1="423.85424965282925" x2="77.0762798479388" y2="418.14575034717075" stroke="#808" stroke-width="2"></line><line x1="238.22065821109734" y1="422.897002998975" x2="239.77934178890266" y2="417.102997001025" stroke="#808" stroke-width="2"></line><line x1="414.2669001990636" y1="444.03501565210166" x2="409.7330998009364" y2="447.96498434789834" stroke="#808" stroke-width="2"></line><line x1="313.8901729717851" y1="336.78716414433086" x2="316.1098270282149" y2="331.21283585566914" stroke="#808" stroke-width="2"></line><line x1="473.27900697348525" y1="37.95092983338857" x2="468.72099302651475" y2="34.04907016661143" stroke="#808" stroke-width="2"></line><line x1="239.19819420756303" y1="165.75033282367107" x2="236.80180579243697" y2="160.24966717632893" stroke="#808" stroke-width="2"></line><line x1="219.12599371500855" y1="359.3426695122899" x2="222.87400628499145" y2="354.6573304877101" stroke="#808" stroke-width="2"></line><line x1="341.5533934834792" y1="247.37182010007692" x2="344.4466065165208" y2="252.62817989992308" stroke="#808" stroke-width="2"></line><line x1="274.5207414463425" y1="323.689164593554" x2="279.4792585536575" y2="320.310835406446" stroke="#808" stroke-width="2"></line><line x1="361.3766319107311" y1="473.54468564625864" x2="366.6233680892689" y2="476.45531435374136" stroke="#808" stroke-width="2"></line><line x1="214.37790731096348" y1="240.17091366511409" x2="209.62209268903652" y2="243.82908633488591" stroke="#808" stroke-width="2"></line><line x1="305.58638311485095" y1="449.64607016196123" x2="308.41361688514905" y2="444.35392983803877" stroke="#808" stroke-width="2"></line><line x1="258.1377323845536" y1="161.22411004880632" x2="255.8622676154464" y2="166.77588995119368" stroke="#808" stroke-width="2"></line><line x1="369.9933631408621" y1="294.8005580111201" x2="364.0066368591379" y2="295.1994419888799" stroke="#808" stroke-width="2"></line><line x1="114.92400849737922" y1="19.999037394153238" x2="115.07599150262078" y2="14.000962605846762" stroke="#808" stroke-width="2"></line><line x1="67.29837564866058" y1="56.304310493805" x2="72.70162435133942" y2="53.695689506195" stroke="#808" stroke-width="2"></line><line x1="90.0413755380325" y1="365.50347075307945" x2="95.9586244619675" y2="366.49652924692055" stroke="#808" stroke-width="2"></line><line x1="126.23014210275797" y1="460.99115940941607" x2="125.76985789724203" y2="455.00884059058393" stroke="#808" stroke-width="2"></line><line x1="194.99168176474996" y1="479.7767507705218" x2="189.00831823525004" y2="480.2232492294782" stroke="#808" stroke-width="2"></line><line x1="247.91162204704116" y1="273.7956096708076" x2="250.08837795295884" y2="268.2043903291924" stroke="#808" stroke-width="2"></line><line x1="446.01280279474025" y1="29.723137476554694" x2="451.98719720525975" y2="30.276862523445306" stroke="#808" stroke-width="2"></line><line x1="473.18886351334856" y1="257.04762190384554" x2="478.81113648665144" y2="254.95237809615446" stroke="#808" stroke-width="2"></line><line x1="215.89111125904418" y1="460.2124624199517" x2="218.10888874095582" y2="465.7875375800483" stroke="#808" stroke-width="2"></line><line x1="23.056872802619313" y1="362.99946086560936" x2="22.943127197380687" y2="357.00053913439064" stroke="#808" stroke-width="2"></line><line x1="114.77853689647569" y1="417.1312527192998" x2="109.22146310352431" y2="414.8687472807002" stroke="#808" stroke-width="2"></line><line x1="245.02194189718193" y1="144.63782609668874" x2="250.97805810281807" y2="145.36217390331126" stroke="#808" stroke-width="2"></line><line x1="135.967227944282" y1="60.206317694597054" x2="140.032772055718" y2="55.793682305402946" stroke="#808" stroke-width="2"></line><line x1="402.7225605641579" y1="229.01285632092467" x2="403.2774394358421" y2="234.98714367907533" stroke="#808" stroke-width="2"></line><line x1="430.3546409584673" y1="477.5850528132184" x2="435.6453590415327" y2="480.4149471867816" stroke="#808" stroke-width="2"></line><line x1="201.71382587161514" y1="1.2896944616015205" x2="204.28617412838486" y2="6.7103055383984795" stroke="#040" stroke-width="5"></line><line x1="455.4121491339884" y1="189.51757302799007" x2="460.5878508660116" y2="186.48242697200993" stroke="#808" stroke-width="2"></line><line x1="444.16587016989297" y1="442.7641900706995" x2="441.83412983010703" y2="437.2358099293005" stroke="#808" stroke-width="2"></line><line x1="76.00663893259805" y1="318.1994731063633" x2="81.99336106740195" y2="317.8005268936367" stroke="#808" stroke-width="2"></line><line x1="486.99310663157763" y1="340.2032552385696" x2="481.00689336842237" y2="339.7967447614304" stroke="#808" stroke-width="2"></line><line x1="349.58290429864394" y1="374.4740231377748" x2="344.41709570135606" y2="377.5259768622252" stroke="#808" stroke-width="2"></line><line x1="457.2445553808191" y1="353.99047008076883" x2="452.7554446191809" y2="350.00952991923117" stroke="#808" stroke-width="2"></line><line x1="358.4784246636384" y1="272.5854996607573" x2="361.5215753363616" y2="267.4145003392427" stroke="#808" stroke-width="2"></line><line x1="497.8718054070944" y1="250.655571601014" x2="494.1281945929056" y2="255.344428398986" stroke="#808" stroke-width="2"></line><line x1="438.7260952314481" y1="149.98746986223534" x2="439.2739047685519" y2="144.01253013776466" stroke="#808" stroke-width="2"></line><line x1="382.9284246262086" y1="427.9991460394363" x2="383.0715753737914" y2="422.0008539605637" stroke="#808" stroke-width="2"></line><line x1="483.3934216059303" y1="491.1912620376998" x2="478.6065783940697" y2="494.8087379623002" stroke="#040" stroke-width="5"></line><line x1="121.79580108416974" y1="419.0878861602922" x2="116.20419891583026" y2="416.9121138397078" stroke="#808" stroke-width="2"></line><line x1="466.9835965524988" y1="339.3132915765184" x2="461.0164034475012" y2="338.6867084234816" stroke="#808" stroke-width="2"></line><line x1="167.54030581712962" y1="215.62093359177496" x2="170.45969418287038" y2="210.37906640822504" stroke="#808" stroke-width="2"></line><line x1="364.46758518658424" y1="465.95237776486266" x2="365.53241481341576" y2="460.04762223513734" stroke="#808" stroke-width="2"></line><line x1="232.37362302422025" y1="401.55012277033745" x2="237.62637697577975" y2="404.44987722966255" stroke="#808" stroke-width="2"></line><line x1="302.4121208254349" y1="262.94183583432397" x2="303.5878791745651" y2="257.05816416567603" stroke="#808" stroke-width="2"></line><line x1="275.92022693413406" y1="370.16206937781806" x2="280.07977306586594" y2="365.83793062218194" stroke="#808" stroke-width="2"></line><line x1="303.45398389421246" y1="94.2743224383026" x2="298.54601610578754" y2="97.7256775616974" stroke="#808" stroke-width="2"></line><line x1="119.94332682581177" y1="274.285493567718" x2="116.05667317418823" y2="269.714506432282" stroke="#040" stroke-width="5"></line><line x1="270.12305805286803" y1="350.85041462407025" x2="275.87694194713197" y2="349.14958537592975" stroke="#808" stroke-width="2"></line><line x1="194.0332767611571" y1="451.4455931149709" x2="199.9667232388429" y2="450.5544068850291" stroke="#808" stroke-width="2"></line><line x1="222.82506299001182" y1="126.38099665738721" x2="219.17493700998818" y2="121.61900334261279" stroke="#808" stroke-width="2"></line><line x1="361.7608015665129" y1="469.2678969195063" x2="364.2391984334871" y2="474.7321030804937" stroke="#040" stroke-width="5"></line><line x1="348.4058604103811" y1="211.65019933335645" x2="345.5941395896189" y2="206.34980066664355" stroke="#808" stroke-width="2"></line><line x1="413.4256505610743" y1="473.63960612169853" x2="410.5743494389257" y2="468.36039387830147" stroke="#040" stroke-width="5"></line><line x1="253.8755290782458" y1="115.7812883967919" x2="256.1244709217542" y2="110.2187116032081" stroke="#808" stroke-width="2"></line><line x1="474.20134699211883" y1="12.891738814796785" x2="475.79865300788117" y2="7.108261185203214" stroke="#808" stroke-width="2"></line><line x1="290.1968528611387" y1="372.0064654752181" x2="289.8031471388613" y2="377.9935345247819" stroke="#808" stroke-width="2"></line><line x1="443.9069072467385" y1="379.68403265300736" x2="440.0930927532615" y2="384.31596734699264" stroke="#808" stroke-width="2"></line><line x1="71.52523059490123" y1="448.04633569575356" x2="70.47476940509877" y2="453.95366430424644" stroke="#040" stroke-width="5"></line><line x1="295.11236209190423" y1="81.86975907637517" x2="290.88763790809577" y2="86.13024092362483" stroke="#808" stroke-width="2"></line><line x1="92.77989894449344" y1="112.01770941994596" x2="97.22010105550656" y2="107.98229058005404" stroke="#808" stroke-width="2"></line><line x1="20.979470621206207" y1="182.99992975661203" x2="21.020529378793793" y2="177.00007024338797" stroke="#808" stroke-width="2"></line><line x1="68.95683879839454" y1="486.49294544641754" x2="63.04316120160546" y2="487.50705455358246" stroke="#808" stroke-width="2"></line></svg>
