<svg xmlns="http://www.w3.org/2000/svg" version="1.1"><path d="
M 20 20 C
20 63.1335136523794
37.8664863476206 81
81 81
" stroke="rgb(25,179,102)" stroke-width="5" fill-opacity="0.0"></path><path d="
M 20 20 C
20 81
20 81
20 142
" stroke="rgb(25,179,102)" stroke-width="5" fill-opacity="0.0"></path><path d="
M 81 81 C
124.1335136523794 81
142 63.1335136523794
142 20
" stroke="rgb(25,179,102)" stroke-width="5" fill-opacity="0.0"></path><path d="
M 81 81 C
142 81
142 81
203 81
" stroke="rgb(25,179,102)" stroke-width="5" fill-opacity="0.0"></path><path d="
M 81 81 C
124.1335136523794 81
142 98.8664863476206
142 142
" stroke="rgb(25,179,102)" stroke-width="5" fill-opacity="0.0"></path><path d="
M 20 142 C
20 185.1335136523794
37.8664863476206 203
81 203
" stroke="rgb(25,179,102)" stroke-width="5" fill-opacity="0.0"></path><path d="
M 20 142 C
20 203
20 203
20 264
" stroke="rgb(25,179,102)" stroke-width="5" fill-opacity="0.0"></path><path d="
M 81 203 C
124.1335136523794 203
142 185.1335136523794
142 142
" stroke="rgb(25,179,102)" stroke-width="5" fill-opacity="0.0"></path><path d="
M 81 203 C
142 203
142 203
203 203
" stroke="rgb(25,179,102)" stroke-width="5" fill-opacity="0.0"></path><path d="
M 20 264 C
20 325
20 325
20 386
" stroke="rgb(25,179,102)" stroke-width="5" fill-opacity="0.0"></path><path d="
M 81 325 C
37.8664863476206 325
20 342.8664863476206
20 386
" stroke="rgb(25,179,102)" stroke-width="5" fill-opacity="0.0"></path><path d="
M 81 325 C
142 325
142 325
203 325
" stroke="rgb(25,179,102)" stroke-width="5" fill-opacity="0.0"></path><path d="
M 81 325 C
124.1335136523794 325
142 342.8664863476206
142 386
" stroke="rgb(25,179,102)" stroke-width="5" fill-opacity="0.0"></path><path d="
M 81 447 C
142 447
142 447
203 447
" stroke="rgb(25,179,102)" stroke-width="5" fill-opacity="0.0"></path><path d="
M 142 20 C
142 81
142 81
142 142
" stroke="rgb(25,179,102)" stroke-width="5" fill-opacity="0.0"></path><path d="
M 203 81 C
264 81
264 81
325 81
" stroke="rgb(25,179,102)" stroke-width="5" fill-opacity="0.0"></path><path d="
M 203 81 C
246.1335136523794 81
264 98.8664863476206
264 142
" stroke="rgb(25,179,102)" stroke-width="5" fill-opacity="0.0"></path><path d="
M 142 142 C
142 185.1335136523794
159.8664863476206 203
203 203
" stroke="rgb(25,179,102)" stroke-width="5" fill-opacity="0.0"></path><path d="
M 142 142 C
142 203
142 203
142 264
" stroke="rgb(25,179,102)" stroke-width="5" fill-opacity="0.0"></path><path d="
M 203 203 C
159.8664863476206 203
142 220.8664863476206
142 264
" stroke="rgb(25,179,102)" stroke-width="5" fill-opacity="0.0"></path><path d="
M 203 203 C
246.1335136523794 203
264 185.1335136523794
264 142
" stroke="rgb(25,179,102)" stroke-width="5" fill-opacity="0.0"></path><path d="
M 203 203 C
264 203
264 203
325 203
" stroke="rgb(25,179,102)" stroke-width="5" fill-opacity="0.0"></path><path d="
M 142 264 C
142 325
142 325
142 386
" stroke="rgb(25,179,102)" stroke-width="5" fill-opacity="0.0"></path><path d="
M 203 325 C
159.8664863476206 325
142 342.8664863476206
142 386
" stroke="rgb(25,179,102)" stroke-width="5" fill-opacity="0.0"></path><path d="
M 203 325 C
246.1335136523794 325
264 307.1335136523794
264 264
" stroke="rgb(25,179,102)" stroke-width="5" fill-opacity="0.0"></path><path d="
M 203 325 C
264 325
264 325
325 325
" stroke="rgb(25,179,102)" stroke-width="5" fill-opacity="0.0"></path><path d="
M 142 386 C
142 429.1335136523794
159.8664863476206 447
203 447
" stroke="rgb(25,179,102)" stroke-width="5" fill-opacity="0.0"></path><path d="
M 203 447 C
246.1335136523794 447
264 429.1335136523794
264 386
" stroke="rgb(25,179,102)" stroke-width="5" fill-opacity="0.0"></path><path d="
M 203 447 C
264 447
264 447
325 447
" stroke="rgb(25,179,102)" stroke-width="5" fill-opacity="0.0"></path><path d="
M 264 20 C
264 81
264 81
264 142
" stroke="rgb(25,179,102)" stroke-width="5" fill-opacity="0.0"></path><path d="
M 325 81 C
368.1335136523794 81
386 63.1335136523794
386 20
" stroke="rgb(25,179,102)" stroke-width="5" fill-opacity="0.0"></path><path d="
M 325 81 C
386 81
386 81
447 81
" stroke="rgb(25,179,102)" stroke-width="5" fill-opacity="0.0"></path><path d="
M 325 81 C
368.1335136523794 81
386 98.8664863476206
386 142
" stroke="rgb(25,179,102)" stroke-width="5" fill-opacity="0.0"></path><path d="
M 264 142 C
264 185.1335136523794
281.8664863476206 203
325 203
" stroke="rgb(25,179,102)" stroke-width="5" fill-opacity="0.0"></path><path d="
M 264 142 C
264 203
264 203
264 264
" stroke="rgb(25,179,102)" stroke-width="5" fill-opacity="0.0"></path><path d="
M 325 203 C
281.8664863476206 203
264 220.8664863476206
264 264
" stroke="rgb(25,179,102)" stroke-width="5" fill-opacity="0.0"></path><path d="
M 325 203 C
368.1335136523794 203
386 185.1335136523794
386 142
" stroke="rgb(25,179,102)" stroke-width="5" fill-opacity="0.0"></path><path d="
M 325 203 C
386 203
386 203
447 203
" stroke="rgb(25,179,102)" stroke-width="5" fill-opacity="0.0"></path><path d="
M 325 203 C
368.1335136523794 203
386 220.8664863476206
386 264
" stroke="rgb(25,179,102)" stroke-width="5" fill-opacity="0.0"></path><path d="
M 264 264 C
264 325
264 325
264 386
" stroke="rgb(25,179,102)" stroke-width="5" fill-opacity="0.0"></path><path d="
M 325 325 C
281.8664863476206 325
264 342.8664863476206
264 386
" stroke="rgb(25,179,102)" stroke-width="5" fill-opacity="0.0"></path><path d="
M 325 325 C
386 325
386 325
447 325
" stroke="rgb(25,179,102)" stroke-width="5" fill-opacity="0.0"></path><path d="
M 325 325 C
368.1335136523794 325
386 342.8664863476206
386 386
" stroke="rgb(25,179,102)" stroke-width="5" fill-opacity="0.0"></path><path d="
M 325 447 C
368.1335136523794 447
386 429.1335136523794
386 386
" stroke="rgb(25,179,102)" stroke-width="5" fill-opacity="0.0"></path><path d="
M 325 447 C
386 447
386 447
447 447
" stroke="rgb(25,179,102)" stroke-width="5" fill-opacity="0.0"></path><path d="
M 386 20 C
386 63.1335136523794
403.8664863476206 81
447 81
" stroke="rgb(25,179,102)" stroke-width="5" fill-opacity="0.0"></path><path d="
M 386 20 C
386 81
386 81
386 142
" stroke="rgb(25,179,102)" stroke-width="5" fill-opacity="0.0"></path><path d="
M 447 81 C
403.8664863476206 81
386 98.8664863476206
386 142
" stroke="rgb(25,179,102)" stroke-width="5" fill-opacity="0.0"></path><path d="
M 386 142 C
386 185.1335136523794
403.8664863476206 203
447 203
" stroke="rgb(25,179,102)" stroke-width="5" fill-opacity="0.0"></path><path d="
M 386 142 C
386 203
386 203
386 264
" stroke="rgb(25,179,102)" stroke-width="5" fill-opacity="0.0"></path><path d="
M 386 264 C
386 307.1335136523794
403.8664863476206 325
447 325
" stroke="rgb(25,179,102)" stroke-width="5" fill-opacity="0.0"></path><path d="
M 386 264 C
386 325
386 325
386 386
" stroke="rgb(25,179,102)" stroke-width="5" fill-opacity="0.0"></path><path d="
M 447 325 C
403.8664863476206 325
386 342.8664863476206
386 386
" stroke="rgb(25,179,102)" stroke-width="5" fill-opacity="0.0"></path><line x1="20" y1="23" x2="20" y2="17" stroke="#808" stroke-width="2"></line><line x1="84" y1="81" x2="78" y2="81" stroke="#808" stroke-width="2"></line><line x1="20" y1="145" x2="20" y2="139" stroke="#808" stroke-width="2"></line><line x1="84" y1="203" x2="78" y2="203" stroke="#808" stroke-width="2"></line><line x1="20" y1="267" x2="20" y2="261" stroke="#808" stroke-width="2"></line><line x1="84" y1="325" x2="78" y2="325" stroke="#808" stroke-width="2"></line><line x1="20" y1="389" x2="20" y2="383" stroke="#808" stroke-width="2"></line><line x1="84" y1="447" x2="78" y2="447" stroke="#808" stroke-width="2"></line><line x1="142" y1="23" x2="142" y2="17" stroke="#808" stroke-width="2"></line><line x1="206" y1="81" x2="200" y2="81" stroke="#808" stroke-width="2"></line><line x1="142" y1="145" x2="142" y2="139" stroke="#808" stroke-width="2"></line><line x1="206" y1="203" x2="200" y2="203" stroke="#808" stroke-width="2"></line><line x1="142" y1="267" x2="142" y2="261" stroke="#808" stroke-width="2"></line><line x1="206" y1="325" x2="200" y2="325" stroke="#808" stroke-width="2"></line><line x1="142" y1="389" x2="142" y2="383" stroke="#808" stroke-width="2"></line><line x1="206" y1="447" x2="200" y2="447" stroke="#808" stroke-width="2"></line><line x1="264" y1="23" x2="264" y2="17" stroke="#808" stroke-width="2"></line><line x1="328" y1="81" x2="322" y2="81" stroke="#808" stroke-width="2"></line><line x1="264" y1="145" x2="264" y2="139" stroke="#808" stroke-width="2"></line><line x1="328" y1="203" x2="322" y2="203" stroke="#808" stroke-width="2"></line><line x1="264" y1="267" x2="264" y2="261" stroke="#808" stroke-width="2"></line><line x1="328" y1="325" x2="322" y2="325" stroke="#808" stroke-width="2"></line><line x1="264" y1="389" x2="264" y2="383" stroke="#808" stroke-width="2"></line><line x1="328" y1="447" x2="322" y2="447" stroke="#808" stroke-width="2"></line><line x1="386" y1="23" x2="386" y2="17" stroke="#808" stroke-width="2"></line><line x1="450" y1="81" x2="444" y2="81" stroke="#808" stroke-width="2"></line><line x1="386" y1="145" x2="386" y2="139" stroke="#808" stroke-width="2"></line><line x1="450" y1="203" x2="444" y2="203" stroke="#808" stroke-width="2"></line><line x1="386" y1="267" x2="386" y2="261" stroke="#808" stroke-width="2"></line><line x1="450" y1="325" x2="444" y2="325" stroke="#808" stroke-width="2"></line><line x1="386" y1="389" x2="386" y2="383" stroke="#808" stroke-width="2"></line><line x1="450" y1="447" x2="444" y2="447" stroke="#808" stroke-width="2"></line></svg>
