<svg xmlns="http://www.w3.org/2000/svg" version="1.1"><path d="
M 76 20 C
48 20
34 44.24871130596428
48 68.49742261192856
" stroke="rgb(25,179,102)" stroke-width="5" fill-opacity="0.0"></path><path d="
M 76 20 C
27.502577388071437 20
16.24871130596428 26.497422611928556
-8 68.49742261192856
" stroke="rgb(25,179,102)" stroke-width="5" fill-opacity="0.0"></path><path d="
M 76 20 C
132 20
132 20
188 20
" stroke="rgb(25,179,102)" stroke-width="5" fill-opacity="0.0"></path><path d="
M 76 20 C
124.49742261192856 20
135.7512886940357 26.497422611928556
160 68.49742261192856
" stroke="rgb(25,179,102)" stroke-width="5" fill-opacity="0.0"></path><path d="
M 76 20 C
104 20
118 44.24871130596428
104 68.49742261192856
" stroke="rgb(25,179,102)" stroke-width="5" fill-opacity="0.0"></path><path d="
M 48 68.49742261192856 C
34 44.24871130596428
6 44.24871130596428
-8 68.49742261192856
" stroke="rgb(25,179,102)" stroke-width="5" fill-opacity="0.0"></path><path d="
M 48 68.49742261192856 C
62 92.74613391789283
90 92.74613391789283
104 68.49742261192856
" stroke="rgb(25,179,102)" stroke-width="5" fill-opacity="0.0"></path><path d="
M 188 20 C
160 20
146 44.24871130596428
160 68.49742261192856
" stroke="rgb(25,179,102)" stroke-width="5" fill-opacity="0.0"></path><path d="
M 188 20 C
236.49742261192856 20
247.7512886940357 26.497422611928556
272 68.49742261192856
" stroke="rgb(25,179,102)" stroke-width="5" fill-opacity="0.0"></path><path d="
M 160 68.49742261192856 C
146 44.24871130596428
118 44.24871130596428
104 68.49742261192856
" stroke="rgb(25,179,102)" stroke-width="5" fill-opacity="0.0"></path><path d="
M 160 68.49742261192856 C
188 116.99484522385713
188 116.99484522385713
216 165.4922678357857
" stroke="rgb(25,179,102)" stroke-width="5" fill-opacity="0.0"></path><path d="
M 104 68.49742261192856 C
90 92.74613391789285
104 116.99484522385713
132 116.99484522385713
" stroke="rgb(25,179,102)" stroke-width="5" fill-opacity="0.0"></path><path d="
M 104 68.49742261192856 C
79.75128869403571 110.49742261192856
79.75128869403571 123.4922678357857
104 165.4922678357857
" stroke="rgb(25,179,102)" stroke-width="5" fill-opacity="0.0"></path><path d="
M 300 20 C
272 20
258 44.24871130596428
272 68.49742261192856
" stroke="rgb(25,179,102)" stroke-width="5" fill-opacity="0.0"></path><path d="
M 300 20 C
348.4974226119286 20
359.75128869403574 26.497422611928556
384 68.49742261192856
" stroke="rgb(25,179,102)" stroke-width="5" fill-opacity="0.0"></path><path d="
M 300 20 C
328 20
342 44.24871130596428
328 68.49742261192856
" stroke="rgb(25,179,102)" stroke-width="5" fill-opacity="0.0"></path><path d="
M 272 68.49742261192856 C
258 44.24871130596428
230 44.24871130596428
216 68.49742261192856
" stroke="rgb(25,179,102)" stroke-width="5" fill-opacity="0.0"></path><path d="
M 272 68.49742261192856 C
286 92.74613391789283
314 92.74613391789283
328 68.49742261192856
" stroke="rgb(25,179,102)" stroke-width="5" fill-opacity="0.0"></path><path d="
M 272 68.49742261192856 C
286 92.74613391789285
272 116.99484522385713
244 116.99484522385713
" stroke="rgb(25,179,102)" stroke-width="5" fill-opacity="0.0"></path><path d="
M 272 68.49742261192856 C
296.24871130596426 110.49742261192856
296.24871130596426 123.4922678357857
272 165.4922678357857
" stroke="rgb(25,179,102)" stroke-width="5" fill-opacity="0.0"></path><path d="
M 412 20 C
468 20
468 20
524 20
" stroke="rgb(25,179,102)" stroke-width="5" fill-opacity="0.0"></path><path d="
M 412 20 C
460.4974226119286 20
471.75128869403574 26.497422611928556
496 68.49742261192856
" stroke="rgb(25,179,102)" stroke-width="5" fill-opacity="0.0"></path><path d="
M 384 68.49742261192856 C
398 92.74613391789283
426 92.74613391789283
440 68.49742261192856
" stroke="rgb(25,179,102)" stroke-width="5" fill-opacity="0.0"></path><path d="
M 328 68.49742261192856 C
314 92.74613391789285
328 116.99484522385713
356 116.99484522385713
" stroke="rgb(25,179,102)" stroke-width="5" fill-opacity="0.0"></path><path d="
M 328 68.49742261192856 C
303.75128869403574 110.49742261192856
303.75128869403574 123.4922678357857
328 165.4922678357857
" stroke="rgb(25,179,102)" stroke-width="5" fill-opacity="0.0"></path><path d="
M 328 68.49742261192856 C
300 116.99484522385713
300 116.99484522385713
272 165.4922678357857
" stroke="rgb(25,179,102)" stroke-width="5" fill-opacity="0.0"></path><path d="
M 524 20 C
496 20
482 44.24871130596428
496 68.49742261192856
" stroke="rgb(25,179,102)" stroke-width="5" fill-opacity="0.0"></path><path d="
M 524 20 C
475.5025773880714 20
464.24871130596426 26.497422611928556
440 68.49742261192856
" stroke="rgb(25,179,102)" stroke-width="5" fill-opacity="0.0"></path><path d="
M 496 68.49742261192856 C
482 44.24871130596428
454 44.24871130596428
440 68.49742261192856
" stroke="rgb(25,179,102)" stroke-width="5" fill-opacity="0.0"></path><path d="
M 496 68.49742261192856 C
510 92.74613391789285
496 116.99484522385713
468 116.99484522385713
" stroke="rgb(25,179,102)" stroke-width="5" fill-opacity="0.0"></path><path d="
M 440 68.49742261192856 C
415.75128869403574 110.49742261192856
415.75128869403574 123.4922678357857
440 165.4922678357857
" stroke="rgb(25,179,102)" stroke-width="5" fill-opacity="0.0"></path><path d="
M 440 68.49742261192856 C
412 116.99484522385713
412 116.99484522385713
384 165.4922678357857
" stroke="rgb(25,179,102)" stroke-width="5" fill-opacity="0.0"></path><path d="
M 132 116.99484522385713 C
104 116.99484522385713
90 141.2435565298214
104 165.4922678357857
" stroke="rgb(25,179,102)" stroke-width="5" fill-opacity="0.0"></path><path d="
M 104 165.4922678357857 C
118 189.74097914174996
104 213.98969044771425
76 213.98969044771425
" stroke="rgb(25,179,102)" stroke-width="5" fill-opacity="0.0"></path><path d="
M 104 165.4922678357857 C
128.2487113059643 207.4922678357857
139.50257738807144 213.98969044771425
188 213.98969044771425
" stroke="rgb(25,179,102)" stroke-width="5" fill-opacity="0.0"></path><path d="
M 104 165.4922678357857 C
132 213.98969044771425
132 213.98969044771425
160 262.4871130596428
" stroke="rgb(25,179,102)" stroke-width="5" fill-opacity="0.0"></path><path d="
M 104 165.4922678357857 C
128.24871130596426 207.4922678357857
128.24871130596426 220.4871130596428
104 262.4871130596428
" stroke="rgb(25,179,102)" stroke-width="5" fill-opacity="0.0"></path><path d="
M 48 165.4922678357857 C
34 189.74097914174996
48 213.98969044771425
76 213.98969044771425
" stroke="rgb(25,179,102)" stroke-width="5" fill-opacity="0.0"></path><path d="
M 48 165.4922678357857 C
23.751288694035722 207.4922678357857
23.751288694035722 220.4871130596428
48 262.4871130596428
" stroke="rgb(25,179,102)" stroke-width="5" fill-opacity="0.0"></path><path d="
M 244 116.99484522385713 C
216 116.99484522385713
202 141.2435565298214
216 165.4922678357857
" stroke="rgb(25,179,102)" stroke-width="5" fill-opacity="0.0"></path><path d="
M 244 116.99484522385713 C
195.50257738807144 116.99484522385713
184.2487113059643 123.4922678357857
160 165.4922678357857
" stroke="rgb(25,179,102)" stroke-width="5" fill-opacity="0.0"></path><path d="
M 216 165.4922678357857 C
202 141.2435565298214
174 141.2435565298214
160 165.4922678357857
" stroke="rgb(25,179,102)" stroke-width="5" fill-opacity="0.0"></path><path d="
M 216 165.4922678357857 C
230 189.74097914174996
216 213.98969044771425
188 213.98969044771425
" stroke="rgb(25,179,102)" stroke-width="5" fill-opacity="0.0"></path><path d="
M 356 116.99484522385713 C
328 116.99484522385713
314 141.2435565298214
328 165.4922678357857
" stroke="rgb(25,179,102)" stroke-width="5" fill-opacity="0.0"></path><path d="
M 356 116.99484522385713 C
412 116.99484522385713
412 116.99484522385713
468 116.99484522385713
" stroke="rgb(25,179,102)" stroke-width="5" fill-opacity="0.0"></path><path d="
M 328 165.4922678357857 C
342 189.74097914175
370 189.74097914175
384 165.4922678357857
" stroke="rgb(25,179,102)" stroke-width="5" fill-opacity="0.0"></path><path d="
M 328 165.4922678357857 C
342 189.74097914174996
328 213.98969044771425
300 213.98969044771425
" stroke="rgb(25,179,102)" stroke-width="5" fill-opacity="0.0"></path><path d="
M 328 165.4922678357857 C
352.24871130596426 207.4922678357857
363.5025773880714 213.98969044771425
412 213.98969044771425
" stroke="rgb(25,179,102)" stroke-width="5" fill-opacity="0.0"></path><path d="
M 328 165.4922678357857 C
356 213.98969044771425
356 213.98969044771425
384 262.4871130596428
" stroke="rgb(25,179,102)" stroke-width="5" fill-opacity="0.0"></path><path d="
M 272 165.4922678357857 C
258 189.74097914174996
272 213.98969044771425
300 213.98969044771425
" stroke="rgb(25,179,102)" stroke-width="5" fill-opacity="0.0"></path><path d="
M 272 165.4922678357857 C
244 213.98969044771425
244 213.98969044771425
216 262.4871130596428
" stroke="rgb(25,179,102)" stroke-width="5" fill-opacity="0.0"></path><path d="
M 468 116.99484522385713 C
440 116.99484522385713
426 141.2435565298214
440 165.4922678357857
" stroke="rgb(25,179,102)" stroke-width="5" fill-opacity="0.0"></path><path d="
M 468 116.99484522385713 C
419.5025773880714 116.99484522385713
408.24871130596426 123.4922678357857
384 165.4922678357857
" stroke="rgb(25,179,102)" stroke-width="5" fill-opacity="0.0"></path><path d="
M 440 165.4922678357857 C
454 189.74097914174996
440 213.98969044771425
412 213.98969044771425
" stroke="rgb(25,179,102)" stroke-width="5" fill-opacity="0.0"></path><path d="
M 440 165.4922678357857 C
468 213.98969044771425
468 213.98969044771425
496 262.4871130596428
" stroke="rgb(25,179,102)" stroke-width="5" fill-opacity="0.0"></path><path d="
M 440 165.4922678357857 C
464.24871130596426 207.4922678357857
464.24871130596426 220.4871130596428
440 262.4871130596428
" stroke="rgb(25,179,102)" stroke-width="5" fill-opacity="0.0"></path><path d="
M 384 165.4922678357857 C
370 189.74097914174996
384 213.98969044771425
412 213.98969044771425
" stroke="rgb(25,179,102)" stroke-width="5" fill-opacity="0.0"></path><path d="
M 384 165.4922678357857 C
359.75128869403574 207.4922678357857
359.75128869403574 220.4871130596428
384 262.4871130596428
" stroke="rgb(25,179,102)" stroke-width="5" fill-opacity="0.0"></path><path d="
M 384 165.4922678357857 C
356 213.98969044771425
356 213.98969044771425
328 262.4871130596428
" stroke="rgb(25,179,102)" stroke-width="5" fill-opacity="0.0"></path><path d="
M 76 213.98969044771425 C
132 213.98969044771425
132 213.98969044771425
188 213.98969044771425
" stroke="rgb(25,179,102)" stroke-width="5" fill-opacity="0.0"></path><path d="
M 76 213.98969044771425 C
124.49742261192856 213.98969044771425
135.7512886940357 220.4871130596428
160 262.4871130596428
" stroke="rgb(25,179,102)" stroke-width="5" fill-opacity="0.0"></path><path d="
M 48 262.4871130596428 C
62 286.7358243656071
90 286.7358243656071
104 262.4871130596428
" stroke="rgb(25,179,102)" stroke-width="5" fill-opacity="0.0"></path><path d="
M 48 262.4871130596428 C
76 310.9845356715714
76 310.9845356715714
104 359.4819582835
" stroke="rgb(25,179,102)" stroke-width="5" fill-opacity="0.0"></path><path d="
M 188 213.98969044771425 C
160 213.98969044771425
146 238.23840175367854
160 262.4871130596428
" stroke="rgb(25,179,102)" stroke-width="5" fill-opacity="0.0"></path><path d="
M 188 213.98969044771425 C
139.50257738807144 213.98969044771425
128.2487113059643 220.4871130596428
104 262.4871130596428
" stroke="rgb(25,179,102)" stroke-width="5" fill-opacity="0.0"></path><path d="
M 188 213.98969044771425 C
244 213.98969044771425
244 213.98969044771425
300 213.98969044771425
" stroke="rgb(25,179,102)" stroke-width="5" fill-opacity="0.0"></path><path d="
M 188 213.98969044771425 C
236.49742261192856 213.98969044771425
247.7512886940357 220.4871130596428
272 262.4871130596428
" stroke="rgb(25,179,102)" stroke-width="5" fill-opacity="0.0"></path><path d="
M 160 262.4871130596428 C
174 286.7358243656071
202 286.7358243656071
216 262.4871130596428
" stroke="rgb(25,179,102)" stroke-width="5" fill-opacity="0.0"></path><path d="
M 160 262.4871130596428 C
184.2487113059643 304.4871130596428
195.50257738807142 310.9845356715714
244 310.9845356715714
" stroke="rgb(25,179,102)" stroke-width="5" fill-opacity="0.0"></path><path d="
M 104 262.4871130596428 C
79.75128869403571 304.4871130596428
79.75128869403571 317.4819582835
104 359.4819582835
" stroke="rgb(25,179,102)" stroke-width="5" fill-opacity="0.0"></path><path d="
M 104 262.4871130596428 C
76 310.9845356715714
76 310.9845356715714
48 359.4819582835
" stroke="rgb(25,179,102)" stroke-width="5" fill-opacity="0.0"></path><path d="
M 300 213.98969044771425 C
272 213.98969044771425
258 238.23840175367854
272 262.4871130596428
" stroke="rgb(25,179,102)" stroke-width="5" fill-opacity="0.0"></path><path d="
M 300 213.98969044771425 C
356 213.98969044771425
356 213.98969044771425
412 213.98969044771425
" stroke="rgb(25,179,102)" stroke-width="5" fill-opacity="0.0"></path><path d="
M 300 213.98969044771425 C
348.4974226119286 213.98969044771425
359.75128869403574 220.4871130596428
384 262.4871130596428
" stroke="rgb(25,179,102)" stroke-width="5" fill-opacity="0.0"></path><path d="
M 272 262.4871130596428 C
286 286.7358243656071
314 286.7358243656071
328 262.4871130596428
" stroke="rgb(25,179,102)" stroke-width="5" fill-opacity="0.0"></path><path d="
M 272 262.4871130596428 C
286 286.7358243656071
272 310.9845356715714
244 310.9845356715714
" stroke="rgb(25,179,102)" stroke-width="5" fill-opacity="0.0"></path><path d="
M 272 262.4871130596428 C
300 310.9845356715714
300 310.9845356715714
328 359.4819582835
" stroke="rgb(25,179,102)" stroke-width="5" fill-opacity="0.0"></path><path d="
M 216 262.4871130596428 C
202 286.7358243656071
216 310.9845356715714
244 310.9845356715714
" stroke="rgb(25,179,102)" stroke-width="5" fill-opacity="0.0"></path><path d="
M 412 213.98969044771425 C
363.5025773880714 213.98969044771425
352.24871130596426 220.4871130596428
328 262.4871130596428
" stroke="rgb(25,179,102)" stroke-width="5" fill-opacity="0.0"></path><path d="
M 384 262.4871130596428 C
370 238.23840175367852
342 238.23840175367852
328 262.4871130596428
" stroke="rgb(25,179,102)" stroke-width="5" fill-opacity="0.0"></path><path d="
M 384 262.4871130596428 C
398 286.7358243656071
426 286.7358243656071
440 262.4871130596428
" stroke="rgb(25,179,102)" stroke-width="5" fill-opacity="0.0"></path><path d="
M 384 262.4871130596428 C
398 286.7358243656071
384 310.9845356715714
356 310.9845356715714
" stroke="rgb(25,179,102)" stroke-width="5" fill-opacity="0.0"></path><path d="
M 384 262.4871130596428 C
408.24871130596426 304.4871130596428
419.5025773880714 310.9845356715714
468 310.9845356715714
" stroke="rgb(25,179,102)" stroke-width="5" fill-opacity="0.0"></path><path d="
M 384 262.4871130596428 C
412 310.9845356715714
412 310.9845356715714
440 359.4819582835
" stroke="rgb(25,179,102)" stroke-width="5" fill-opacity="0.0"></path><path d="
M 328 262.4871130596428 C
314 286.7358243656071
328 310.9845356715714
356 310.9845356715714
" stroke="rgb(25,179,102)" stroke-width="5" fill-opacity="0.0"></path><path d="
M 328 262.4871130596428 C
303.7512886940357 304.4871130596428
303.7512886940357 317.4819582835
328 359.4819582835
" stroke="rgb(25,179,102)" stroke-width="5" fill-opacity="0.0"></path><path d="
M 328 262.4871130596428 C
300 310.9845356715714
300 310.9845356715714
272 359.4819582835
" stroke="rgb(25,179,102)" stroke-width="5" fill-opacity="0.0"></path><path d="
M 496 262.4871130596428 C
510 286.7358243656071
496 310.9845356715714
468 310.9845356715714
" stroke="rgb(25,179,102)" stroke-width="5" fill-opacity="0.0"></path><path d="
M 440 262.4871130596428 C
426 286.7358243656071
440 310.9845356715714
468 310.9845356715714
" stroke="rgb(25,179,102)" stroke-width="5" fill-opacity="0.0"></path><path d="
M 440 262.4871130596428 C
415.7512886940357 304.4871130596428
415.7512886940357 317.4819582835
440 359.4819582835
" stroke="rgb(25,179,102)" stroke-width="5" fill-opacity="0.0"></path><path d="
M 132 310.9845356715714 C
83.50257738807143 310.9845356715714
72.24871130596429 317.4819582835
48 359.4819582835
" stroke="rgb(25,179,102)" stroke-width="5" fill-opacity="0.0"></path><path d="
M 132 310.9845356715714 C
188 310.9845356715714
188 310.9845356715714
244 310.9845356715714
" stroke="rgb(25,179,102)" stroke-width="5" fill-opacity="0.0"></path><path d="
M 132 310.9845356715714 C
180.49742261192858 310.9845356715714
191.7512886940357 317.4819582835
216 359.4819582835
" stroke="rgb(25,179,102)" stroke-width="5" fill-opacity="0.0"></path><path d="
M 104 359.4819582835 C
90 335.2332469775357
62 335.2332469775357
48 359.4819582835
" stroke="rgb(25,179,102)" stroke-width="5" fill-opacity="0.0"></path><path d="
M 104 359.4819582835 C
118 383.73066958946424
146 383.73066958946424
160 359.4819582835
" stroke="rgb(25,179,102)" stroke-width="5" fill-opacity="0.0"></path><path d="
M 104 359.4819582835 C
117.99999999999999 383.73066958946424
103.99999999999999 407.9793808954285
76 407.9793808954285
" stroke="rgb(25,179,102)" stroke-width="5" fill-opacity="0.0"></path><path d="
M 104 359.4819582835 C
128.24871130596426 401.4819582835
139.50257738807144 407.9793808954285
188 407.9793808954285
" stroke="rgb(25,179,102)" stroke-width="5" fill-opacity="0.0"></path><path d="
M 104 359.4819582835 C
132 407.97938089542856
132 407.97938089542856
160 456.4768035073571
" stroke="rgb(25,179,102)" stroke-width="5" fill-opacity="0.0"></path><path d="
M 48 359.4819582835 C
34.00000000000001 383.73066958946424
48.000000000000014 407.9793808954285
76 407.9793808954285
" stroke="rgb(25,179,102)" stroke-width="5" fill-opacity="0.0"></path><path d="
M 48 359.4819582835 C
23.751288694035722 401.4819582835
23.751288694035722 414.4768035073571
48 456.4768035073571
" stroke="rgb(25,179,102)" stroke-width="5" fill-opacity="0.0"></path><path d="
M 48 359.4819582835 C
20.000000000000004 407.97938089542856
19.999999999999996 407.97938089542856
-8 456.4768035073571
" stroke="rgb(25,179,102)" stroke-width="5" fill-opacity="0.0"></path><path d="
M 244 310.9845356715714 C
216 310.9845356715714
202 335.2332469775357
216 359.4819582835
" stroke="rgb(25,179,102)" stroke-width="5" fill-opacity="0.0"></path><path d="
M 244 310.9845356715714 C
272 310.9845356715714
286 335.2332469775357
272 359.4819582835
" stroke="rgb(25,179,102)" stroke-width="5" fill-opacity="0.0"></path><path d="
M 216 359.4819582835 C
202 335.2332469775357
174 335.2332469775357
160 359.4819582835
" stroke="rgb(25,179,102)" stroke-width="5" fill-opacity="0.0"></path><path d="
M 216 359.4819582835 C
230 383.73066958946424
258 383.73066958946424
272 359.4819582835
" stroke="rgb(25,179,102)" stroke-width="5" fill-opacity="0.0"></path><path d="
M 216 359.4819582835 C
244 407.97938089542856
244 407.97938089542856
272 456.4768035073571
" stroke="rgb(25,179,102)" stroke-width="5" fill-opacity="0.0"></path><path d="
M 160 359.4819582835 C
135.75128869403574 401.4819582835
124.49742261192856 407.9793808954285
76 407.9793808954285
" stroke="rgb(25,179,102)" stroke-width="5" fill-opacity="0.0"></path><path d="
M 160 359.4819582835 C
146 383.73066958946424
160.00000000000003 407.9793808954285
188 407.9793808954285
" stroke="rgb(25,179,102)" stroke-width="5" fill-opacity="0.0"></path><path d="
M 356 310.9845356715714 C
328 310.9845356715714
314 335.2332469775357
328 359.4819582835
" stroke="rgb(25,179,102)" stroke-width="5" fill-opacity="0.0"></path><path d="
M 356 310.9845356715714 C
307.5025773880714 310.9845356715714
296.24871130596426 317.4819582835
272 359.4819582835
" stroke="rgb(25,179,102)" stroke-width="5" fill-opacity="0.0"></path><path d="
M 356 310.9845356715714 C
412 310.9845356715714
412 310.9845356715714
468 310.9845356715714
" stroke="rgb(25,179,102)" stroke-width="5" fill-opacity="0.0"></path><path d="
M 328 359.4819582835 C
314 335.2332469775357
286 335.2332469775357
272 359.4819582835
" stroke="rgb(25,179,102)" stroke-width="5" fill-opacity="0.0"></path><path d="
M 328 359.4819582835 C
342 383.73066958946424
370 383.73066958946424
384 359.4819582835
" stroke="rgb(25,179,102)" stroke-width="5" fill-opacity="0.0"></path><path d="
M 328 359.4819582835 C
342 383.73066958946424
328 407.9793808954285
300 407.9793808954285
" stroke="rgb(25,179,102)" stroke-width="5" fill-opacity="0.0"></path><path d="
M 328 359.4819582835 C
352.24871130596426 401.4819582835
363.5025773880715 407.9793808954285
412 407.9793808954285
" stroke="rgb(25,179,102)" stroke-width="5" fill-opacity="0.0"></path><path d="
M 272 359.4819582835 C
247.75128869403574 401.4819582835
236.49742261192856 407.9793808954285
188 407.9793808954285
" stroke="rgb(25,179,102)" stroke-width="5" fill-opacity="0.0"></path><path d="
M 272 359.4819582835 C
258 383.73066958946424
272 407.9793808954285
300 407.9793808954285
" stroke="rgb(25,179,102)" stroke-width="5" fill-opacity="0.0"></path><path d="
M 272 359.4819582835 C
244 407.97938089542856
244 407.97938089542856
216 456.4768035073571
" stroke="rgb(25,179,102)" stroke-width="5" fill-opacity="0.0"></path><path d="
M 468 310.9845356715714 C
440 310.9845356715714
426 335.2332469775357
440 359.4819582835
" stroke="rgb(25,179,102)" stroke-width="5" fill-opacity="0.0"></path><path d="
M 440 359.4819582835 C
468 407.97938089542856
468 407.97938089542856
496 456.4768035073571
" stroke="rgb(25,179,102)" stroke-width="5" fill-opacity="0.0"></path><path d="
M 440 359.4819582835 C
464.24871130596426 401.4819582835
464.24871130596426 414.4768035073571
440 456.4768035073571
" stroke="rgb(25,179,102)" stroke-width="5" fill-opacity="0.0"></path><path d="
M 384 359.4819582835 C
359.75128869403574 401.4819582835
348.4974226119285 407.9793808954285
300 407.9793808954285
" stroke="rgb(25,179,102)" stroke-width="5" fill-opacity="0.0"></path><path d="
M 384 359.4819582835 C
356 407.97938089542856
356 407.97938089542856
328 456.4768035073571
" stroke="rgb(25,179,102)" stroke-width="5" fill-opacity="0.0"></path><path d="
M 76 407.9793808954285 C
47.99999999999999 407.9793808954285
34 432.2280922013928
48 456.4768035073571
" stroke="rgb(25,179,102)" stroke-width="5" fill-opacity="0.0"></path><path d="
M 76 407.9793808954285 C
27.50257738807143 407.9793808954285
16.248711305964285 414.4768035073571
-8 456.4768035073571
" stroke="rgb(25,179,102)" stroke-width="5" fill-opacity="0.0"></path><path d="
M 76 407.9793808954285 C
132 407.9793808954285
132 407.9793808954285
188 407.9793808954285
" stroke="rgb(25,179,102)" stroke-width="5" fill-opacity="0.0"></path><path d="
M 188 407.9793808954285 C
139.50257738807142 407.9793808954285
128.2487113059643 414.4768035073571
104 456.4768035073571
" stroke="rgb(25,179,102)" stroke-width="5" fill-opacity="0.0"></path><path d="
M 188 407.9793808954285 C
236.49742261192858 407.9793808954285
247.7512886940357 414.4768035073571
272 456.4768035073571
" stroke="rgb(25,179,102)" stroke-width="5" fill-opacity="0.0"></path><path d="
M 188 407.9793808954285 C
216 407.9793808954285
230 432.2280922013928
216 456.4768035073571
" stroke="rgb(25,179,102)" stroke-width="5" fill-opacity="0.0"></path><path d="
M 160 456.4768035073571 C
146 432.2280922013928
118 432.2280922013928
104 456.4768035073571
" stroke="rgb(25,179,102)" stroke-width="5" fill-opacity="0.0"></path><path d="
M 300 407.9793808954285 C
272 407.9793808954285
258 432.2280922013928
272 456.4768035073571
" stroke="rgb(25,179,102)" stroke-width="5" fill-opacity="0.0"></path><path d="
M 300 407.9793808954285 C
348.4974226119286 407.9793808954285
359.75128869403574 414.4768035073571
384 456.4768035073571
" stroke="rgb(25,179,102)" stroke-width="5" fill-opacity="0.0"></path><path d="
M 300 407.9793808954285 C
328 407.9793808954285
342 432.2280922013928
328 456.4768035073571
" stroke="rgb(25,179,102)" stroke-width="5" fill-opacity="0.0"></path><path d="
M 272 456.4768035073571 C
258 432.2280922013928
230 432.2280922013928
216 456.4768035073571
" stroke="rgb(25,179,102)" stroke-width="5" fill-opacity="0.0"></path><path d="
M 412 407.9793808954285 C
363.5025773880714 407.9793808954285
352.24871130596426 414.4768035073571
328 456.4768035073571
" stroke="rgb(25,179,102)" stroke-width="5" fill-opacity="0.0"></path><path d="
M 384 456.4768035073571 C
398 480.72551481332135
426 480.72551481332135
440 456.4768035073571
" stroke="rgb(25,179,102)" stroke-width="5" fill-opacity="0.0"></path></svg>
