<svg xmlns="http://www.w3.org/2000/svg" version="1.1"><path d="
M 99 20 C
30.58399310102935 20
14.708003449485325 29.166006898970657
-19.5 88.41600689897065
" stroke="#000" stroke-width="5" fill-opacity="0.0"></path><path d="
M 99 20 C
178 20
178 20
257 20
" stroke="#000" stroke-width="5" fill-opacity="0.0"></path><path d="
M 99 20 C
167.41600689897064 20
183.29199655051468 29.166006898970657
217.5 88.41600689897065
" stroke="#000" stroke-width="5" fill-opacity="0.0"></path><path d="
M 99 20 C
138.5 20
158.25 54.208003449485325
138.5 88.41600689897065
" stroke="#000" stroke-width="5" fill-opacity="0.0"></path><path d="
M 59.5 88.41600689897065 C
39.75 54.208003449485325
0.25 54.208003449485325
-19.5 88.41600689897065
" stroke="#000" stroke-width="5" fill-opacity="0.0"></path><path d="
M 59.5 88.41600689897065 C
79.25 122.62401034845598
118.75 122.62401034845598
138.5 88.41600689897065
" stroke="#000" stroke-width="5" fill-opacity="0.0"></path><path d="
M 59.5 88.41600689897065 C
93.70800344948532 147.66600689897064
109.58399310102935 156.8320137979413
178 156.8320137979413
" stroke="#000" stroke-width="5" fill-opacity="0.0"></path><path d="
M 59.5 88.41600689897065 C
99 156.83201379794133
99 156.8320137979413
138.5 225.24802069691196
" stroke="#000" stroke-width="5" fill-opacity="0.0"></path><path d="
M 59.5 88.41600689897065 C
93.70800344948533 147.66600689897066
93.70800344948533 165.99802069691196
59.5 225.24802069691196
" stroke="#000" stroke-width="5" fill-opacity="0.0"></path><path d="
M 257 20 C
217.5 20
197.75 54.208003449485325
217.5 88.41600689897065
" stroke="#000" stroke-width="5" fill-opacity="0.0"></path><path d="
M 257 20 C
188.58399310102936 20
172.70800344948532 29.166006898970657
138.5 88.41600689897065
" stroke="#000" stroke-width="5" fill-opacity="0.0"></path><path d="
M 257 20 C
336 20
336 20
415 20
" stroke="#000" stroke-width="5" fill-opacity="0.0"></path><path d="
M 257 20 C
325.41600689897064 20
341.2919965505147 29.166006898970657
375.5 88.41600689897065
" stroke="#000" stroke-width="5" fill-opacity="0.0"></path><path d="
M 217.5 88.41600689897065 C
251.70800344948532 147.66600689897064
267.58399310102936 156.8320137979413
336 156.8320137979413
" stroke="#000" stroke-width="5" fill-opacity="0.0"></path><path d="
M 217.5 88.41600689897065 C
257 156.83201379794133
257 156.8320137979413
296.5 225.24802069691196
" stroke="#000" stroke-width="5" fill-opacity="0.0"></path><path d="
M 217.5 88.41600689897065 C
251.70800344948532 147.66600689897066
251.70800344948532 165.99802069691196
217.5 225.24802069691196
" stroke="#000" stroke-width="5" fill-opacity="0.0"></path><path d="
M 138.5 88.41600689897065 C
118.75 122.62401034845598
138.5 156.8320137979413
178 156.8320137979413
" stroke="#000" stroke-width="5" fill-opacity="0.0"></path><path d="
M 138.5 88.41600689897065 C
104.29199655051467 147.66600689897066
104.29199655051467 165.99802069691196
138.5 225.24802069691196
" stroke="#000" stroke-width="5" fill-opacity="0.0"></path><path d="
M 138.5 88.41600689897065 C
99 156.83201379794133
99 156.8320137979413
59.5 225.24802069691196
" stroke="#000" stroke-width="5" fill-opacity="0.0"></path><path d="
M 415 20 C
346.58399310102936 20
330.7080034494853 29.166006898970657
296.5 88.41600689897065
" stroke="#000" stroke-width="5" fill-opacity="0.0"></path><path d="
M 415 20 C
494 20
494 20
573 20
" stroke="#000" stroke-width="5" fill-opacity="0.0"></path><path d="
M 415 20 C
483.41600689897064 20
499.2919965505147 29.166006898970657
533.5 88.41600689897065
" stroke="#000" stroke-width="5" fill-opacity="0.0"></path><path d="
M 375.5 88.41600689897065 C
395.25 122.62401034845598
434.75 122.62401034845598
454.5 88.41600689897065
" stroke="#000" stroke-width="5" fill-opacity="0.0"></path><path d="
M 375.5 88.41600689897065 C
395.25 122.62401034845598
375.5 156.8320137979413
336 156.8320137979413
" stroke="#000" stroke-width="5" fill-opacity="0.0"></path><path d="
M 375.5 88.41600689897065 C
409.7080034494853 147.66600689897064
425.58399310102936 156.8320137979413
494 156.8320137979413
" stroke="#000" stroke-width="5" fill-opacity="0.0"></path><path d="
M 375.5 88.41600689897065 C
415 156.83201379794133
415 156.8320137979413
454.5 225.24802069691196
" stroke="#000" stroke-width="5" fill-opacity="0.0"></path><path d="
M 375.5 88.41600689897065 C
409.7080034494853 147.66600689897066
409.7080034494853 165.99802069691196
375.5 225.24802069691196
" stroke="#000" stroke-width="5" fill-opacity="0.0"></path><path d="
M 296.5 88.41600689897065 C
262.2919965505147 147.66600689897064
246.41600689897064 156.8320137979413
178 156.8320137979413
" stroke="#000" stroke-width="5" fill-opacity="0.0"></path><path d="
M 296.5 88.41600689897065 C
262.2919965505147 147.66600689897066
262.2919965505147 165.99802069691196
296.5 225.24802069691196
" stroke="#000" stroke-width="5" fill-opacity="0.0"></path><path d="
M 296.5 88.41600689897065 C
257 156.83201379794133
257 156.8320137979413
217.5 225.24802069691196
" stroke="#000" stroke-width="5" fill-opacity="0.0"></path><path d="
M 573 20 C
504.58399310102936 20
488.7080034494853 29.166006898970657
454.5 88.41600689897065
" stroke="#000" stroke-width="5" fill-opacity="0.0"></path><path d="
M 454.5 88.41600689897065 C
420.2919965505147 147.66600689897064
404.41600689897064 156.8320137979413
336 156.8320137979413
" stroke="#000" stroke-width="5" fill-opacity="0.0"></path><path d="
M 454.5 88.41600689897065 C
434.75 122.62401034845598
454.5 156.8320137979413
494 156.8320137979413
" stroke="#000" stroke-width="5" fill-opacity="0.0"></path><path d="
M 454.5 88.41600689897065 C
420.2919965505147 147.66600689897066
420.2919965505147 165.99802069691196
454.5 225.24802069691196
" stroke="#000" stroke-width="5" fill-opacity="0.0"></path><path d="
M 454.5 88.41600689897065 C
415 156.83201379794133
415 156.8320137979413
375.5 225.24802069691196
" stroke="#000" stroke-width="5" fill-opacity="0.0"></path><path d="
M 178 156.8320137979413 C
109.58399310102935 156.8320137979413
93.70800344948532 165.99802069691196
59.5 225.24802069691196
" stroke="#000" stroke-width="5" fill-opacity="0.0"></path><path d="
M 178 156.8320137979413 C
257 156.8320137979413
257 156.8320137979413
336 156.8320137979413
" stroke="#000" stroke-width="5" fill-opacity="0.0"></path><path d="
M 178 156.8320137979413 C
246.41600689897064 156.8320137979413
262.2919965505147 165.99802069691196
296.5 225.24802069691196
" stroke="#000" stroke-width="5" fill-opacity="0.0"></path><path d="
M 178 156.8320137979413 C
217.5 156.8320137979413
237.25 191.04001724742665
217.5 225.24802069691196
" stroke="#000" stroke-width="5" fill-opacity="0.0"></path><path d="
M 138.5 225.24802069691196 C
118.75 191.04001724742665
79.25 191.04001724742665
59.5 225.24802069691196
" stroke="#000" stroke-width="5" fill-opacity="0.0"></path><path d="
M 138.5 225.24802069691196 C
172.70800344948532 284.49802069691196
188.58399310102936 293.6640275958826
257 293.6640275958826
" stroke="#000" stroke-width="5" fill-opacity="0.0"></path><path d="
M 138.5 225.24802069691196 C
178 293.6640275958826
178 293.6640275958826
217.5 362.08003449485324
" stroke="#000" stroke-width="5" fill-opacity="0.0"></path><path d="
M 138.5 225.24802069691196 C
172.70800344948532 284.49802069691196
172.70800344948532 302.83003449485324
138.5 362.08003449485324
" stroke="#000" stroke-width="5" fill-opacity="0.0"></path><path d="
M 59.5 225.24802069691196 C
39.75 259.4560241463973
59.50000000000001 293.6640275958826
99 293.6640275958826
" stroke="#000" stroke-width="5" fill-opacity="0.0"></path><path d="
M 59.5 225.24802069691196 C
25.291996550514682 284.49802069691196
25.291996550514682 302.83003449485324
59.5 362.08003449485324
" stroke="#000" stroke-width="5" fill-opacity="0.0"></path><path d="
M 59.5 225.24802069691196 C
20.000000000000007 293.6640275958826
19.999999999999993 293.6640275958826
-19.5 362.08003449485324
" stroke="#000" stroke-width="5" fill-opacity="0.0"></path><path d="
M 336 156.8320137979413 C
296.5 156.8320137979413
276.75 191.04001724742665
296.5 225.24802069691196
" stroke="#000" stroke-width="5" fill-opacity="0.0"></path><path d="
M 336 156.8320137979413 C
267.58399310102936 156.8320137979413
251.70800344948532 165.99802069691196
217.5 225.24802069691196
" stroke="#000" stroke-width="5" fill-opacity="0.0"></path><path d="
M 336 156.8320137979413 C
415 156.8320137979413
415 156.8320137979413
494 156.8320137979413
" stroke="#000" stroke-width="5" fill-opacity="0.0"></path><path d="
M 336 156.8320137979413 C
404.41600689897064 156.8320137979413
420.2919965505147 165.99802069691196
454.5 225.24802069691196
" stroke="#000" stroke-width="5" fill-opacity="0.0"></path><path d="
M 336 156.8320137979413 C
375.5 156.8320137979413
395.25 191.04001724742665
375.5 225.24802069691196
" stroke="#000" stroke-width="5" fill-opacity="0.0"></path><path d="
M 296.5 225.24802069691196 C
316.25 259.4560241463973
355.75 259.4560241463973
375.5 225.24802069691196
" stroke="#000" stroke-width="5" fill-opacity="0.0"></path><path d="
M 296.5 225.24802069691196 C
330.7080034494853 284.49802069691196
346.58399310102936 293.6640275958826
415 293.6640275958826
" stroke="#000" stroke-width="5" fill-opacity="0.0"></path><path d="
M 296.5 225.24802069691196 C
336 293.6640275958826
336 293.6640275958826
375.5 362.08003449485324
" stroke="#000" stroke-width="5" fill-opacity="0.0"></path><path d="
M 296.5 225.24802069691196 C
330.7080034494853 284.49802069691196
330.7080034494853 302.83003449485324
296.5 362.08003449485324
" stroke="#000" stroke-width="5" fill-opacity="0.0"></path><path d="
M 217.5 225.24802069691196 C
183.29199655051468 284.49802069691196
167.41600689897064 293.6640275958826
99 293.6640275958826
" stroke="#000" stroke-width="5" fill-opacity="0.0"></path><path d="
M 217.5 225.24802069691196 C
183.29199655051468 284.49802069691196
183.29199655051468 302.83003449485324
217.5 362.08003449485324
" stroke="#000" stroke-width="5" fill-opacity="0.0"></path><path d="
M 217.5 225.24802069691196 C
178 293.6640275958826
178 293.6640275958826
138.5 362.08003449485324
" stroke="#000" stroke-width="5" fill-opacity="0.0"></path><path d="
M 494 156.8320137979413 C
454.5 156.8320137979413
434.75 191.04001724742665
454.5 225.24802069691196
" stroke="#000" stroke-width="5" fill-opacity="0.0"></path><path d="
M 494 156.8320137979413 C
425.58399310102936 156.8320137979413
409.7080034494853 165.99802069691196
375.5 225.24802069691196
" stroke="#000" stroke-width="5" fill-opacity="0.0"></path><path d="
M 454.5 225.24802069691196 C
474.25 259.4560241463973
454.5 293.6640275958826
415 293.6640275958826
" stroke="#000" stroke-width="5" fill-opacity="0.0"></path><path d="
M 454.5 225.24802069691196 C
488.7080034494853 284.49802069691196
504.58399310102936 293.6640275958826
573 293.6640275958826
" stroke="#000" stroke-width="5" fill-opacity="0.0"></path><path d="
M 454.5 225.24802069691196 C
494 293.6640275958826
494 293.6640275958826
533.5 362.08003449485324
" stroke="#000" stroke-width="5" fill-opacity="0.0"></path><path d="
M 454.5 225.24802069691196 C
488.7080034494853 284.49802069691196
488.7080034494853 302.83003449485324
454.5 362.08003449485324
" stroke="#000" stroke-width="5" fill-opacity="0.0"></path><path d="
M 375.5 225.24802069691196 C
341.2919965505147 284.49802069691196
325.41600689897064 293.6640275958826
257 293.6640275958826
" stroke="#000" stroke-width="5" fill-opacity="0.0"></path><path d="
M 375.5 225.24802069691196 C
341.2919965505147 284.49802069691196
341.2919965505147 302.83003449485324
375.5 362.08003449485324
" stroke="#000" stroke-width="5" fill-opacity="0.0"></path><path d="
M 375.5 225.24802069691196 C
336 293.6640275958826
336 293.6640275958826
296.5 362.08003449485324
" stroke="#000" stroke-width="5" fill-opacity="0.0"></path><path d="
M 99 293.6640275958826 C
59.50000000000001 293.6640275958826
39.75 327.8720310453679
59.5 362.08003449485324
" stroke="#000" stroke-width="5" fill-opacity="0.0"></path><path d="
M 99 293.6640275958826 C
30.58399310102935 293.6640275958826
14.708003449485325 302.83003449485324
-19.5 362.08003449485324
" stroke="#000" stroke-width="5" fill-opacity="0.0"></path><path d="
M 99 293.6640275958826 C
178 293.6640275958826
178 293.6640275958826
257 293.6640275958826
" stroke="#000" stroke-width="5" fill-opacity="0.0"></path><path d="
M 99 293.6640275958826 C
167.41600689897064 293.6640275958826
183.29199655051468 302.83003449485324
217.5 362.08003449485324
" stroke="#000" stroke-width="5" fill-opacity="0.0"></path><path d="
M 99 293.6640275958826 C
138.5 293.6640275958826
158.25 327.8720310453679
138.5 362.08003449485324
" stroke="#000" stroke-width="5" fill-opacity="0.0"></path><path d="
M 59.5 362.08003449485324 C
93.70800344948533 421.33003449485324
109.58399310102934 430.49604139382393
178 430.49604139382393
" stroke="#000" stroke-width="5" fill-opacity="0.0"></path><path d="
M 59.5 362.08003449485324 C
99 430.49604139382393
99 430.49604139382393
138.5 498.91204829279457
" stroke="#000" stroke-width="5" fill-opacity="0.0"></path><path d="
M 59.5 362.08003449485324 C
93.70800344948533 421.33003449485324
93.70800344948533 439.66204829279457
59.5 498.91204829279457
" stroke="#000" stroke-width="5" fill-opacity="0.0"></path><path d="
M 257 293.6640275958826 C
217.5 293.6640275958826
197.75 327.8720310453679
217.5 362.08003449485324
" stroke="#000" stroke-width="5" fill-opacity="0.0"></path><path d="
M 257 293.6640275958826 C
188.58399310102936 293.6640275958826
172.70800344948532 302.83003449485324
138.5 362.08003449485324
" stroke="#000" stroke-width="5" fill-opacity="0.0"></path><path d="
M 257 293.6640275958826 C
336 293.6640275958826
336 293.6640275958826
415 293.6640275958826
" stroke="#000" stroke-width="5" fill-opacity="0.0"></path><path d="
M 257 293.6640275958826 C
325.41600689897064 293.6640275958826
341.2919965505147 302.83003449485324
375.5 362.08003449485324
" stroke="#000" stroke-width="5" fill-opacity="0.0"></path><path d="
M 257 293.6640275958826 C
296.5 293.6640275958826
316.25 327.8720310453679
296.5 362.08003449485324
" stroke="#000" stroke-width="5" fill-opacity="0.0"></path><path d="
M 217.5 362.08003449485324 C
197.75 327.8720310453679
158.25 327.8720310453679
138.5 362.08003449485324
" stroke="#000" stroke-width="5" fill-opacity="0.0"></path><path d="
M 217.5 362.08003449485324 C
251.70800344948532 421.33003449485324
267.58399310102936 430.49604139382393
336 430.49604139382393
" stroke="#000" stroke-width="5" fill-opacity="0.0"></path><path d="
M 217.5 362.08003449485324 C
257 430.49604139382393
257 430.49604139382393
296.5 498.91204829279457
" stroke="#000" stroke-width="5" fill-opacity="0.0"></path><path d="
M 217.5 362.08003449485324 C
251.70800344948532 421.33003449485324
251.70800344948532 439.66204829279457
217.5 498.91204829279457
" stroke="#000" stroke-width="5" fill-opacity="0.0"></path><path d="
M 138.5 362.08003449485324 C
104.29199655051467 421.33003449485324
104.29199655051467 439.66204829279457
138.5 498.91204829279457
" stroke="#000" stroke-width="5" fill-opacity="0.0"></path><path d="
M 138.5 362.08003449485324 C
99 430.49604139382393
99 430.49604139382393
59.5 498.91204829279457
" stroke="#000" stroke-width="5" fill-opacity="0.0"></path><path d="
M 415 293.6640275958826 C
346.58399310102936 293.6640275958826
330.7080034494853 302.83003449485324
296.5 362.08003449485324
" stroke="#000" stroke-width="5" fill-opacity="0.0"></path><path d="
M 415 293.6640275958826 C
494 293.6640275958826
494 293.6640275958826
573 293.6640275958826
" stroke="#000" stroke-width="5" fill-opacity="0.0"></path><path d="
M 415 293.6640275958826 C
483.41600689897064 293.6640275958826
499.2919965505147 302.83003449485324
533.5 362.08003449485324
" stroke="#000" stroke-width="5" fill-opacity="0.0"></path><path d="
M 375.5 362.08003449485324 C
395.25 396.28803794433856
375.5 430.49604139382393
336 430.49604139382393
" stroke="#000" stroke-width="5" fill-opacity="0.0"></path><path d="
M 375.5 362.08003449485324 C
409.7080034494853 421.33003449485324
425.58399310102936 430.49604139382393
494 430.49604139382393
" stroke="#000" stroke-width="5" fill-opacity="0.0"></path><path d="
M 375.5 362.08003449485324 C
415 430.49604139382393
415 430.49604139382393
454.5 498.91204829279457
" stroke="#000" stroke-width="5" fill-opacity="0.0"></path><path d="
M 375.5 362.08003449485324 C
409.7080034494853 421.33003449485324
409.7080034494853 439.66204829279457
375.5 498.91204829279457
" stroke="#000" stroke-width="5" fill-opacity="0.0"></path><path d="
M 296.5 362.08003449485324 C
262.2919965505147 421.33003449485324
246.41600689897066 430.49604139382393
178 430.49604139382393
" stroke="#000" stroke-width="5" fill-opacity="0.0"></path><path d="
M 296.5 362.08003449485324 C
262.2919965505147 421.33003449485324
262.2919965505147 439.66204829279457
296.5 498.91204829279457
" stroke="#000" stroke-width="5" fill-opacity="0.0"></path><path d="
M 296.5 362.08003449485324 C
257 430.49604139382393
257 430.49604139382393
217.5 498.91204829279457
" stroke="#000" stroke-width="5" fill-opacity="0.0"></path><path d="
M 573 293.6640275958826 C
533.5 293.6640275958826
513.75 327.8720310453679
533.5 362.08003449485324
" stroke="#000" stroke-width="5" fill-opacity="0.0"></path><path d="
M 573 293.6640275958826 C
504.58399310102936 293.6640275958826
488.7080034494853 302.83003449485324
454.5 362.08003449485324
" stroke="#000" stroke-width="5" fill-opacity="0.0"></path><path d="
M 454.5 362.08003449485324 C
420.2919965505147 421.33003449485324
404.41600689897064 430.49604139382393
336 430.49604139382393
" stroke="#000" stroke-width="5" fill-opacity="0.0"></path><path d="
M 454.5 362.08003449485324 C
420.2919965505147 421.33003449485324
420.2919965505147 439.66204829279457
454.5 498.91204829279457
" stroke="#000" stroke-width="5" fill-opacity="0.0"></path><path d="
M 454.5 362.08003449485324 C
415 430.49604139382393
415 430.49604139382393
375.5 498.91204829279457
" stroke="#000" stroke-width="5" fill-opacity="0.0"></path><path d="
M 178 430.49604139382393 C
109.58399310102935 430.49604139382393
93.70800344948532 439.66204829279457
59.5 498.91204829279457
" stroke="#000" stroke-width="5" fill-opacity="0.0"></path><path d="
M 178 430.49604139382393 C
257 430.49604139382393
257 430.49604139382393
336 430.49604139382393
" stroke="#000" stroke-width="5" fill-opacity="0.0"></path><path d="
M 178 430.49604139382393 C
246.41600689897064 430.49604139382393
262.2919965505147 439.66204829279457
296.5 498.91204829279457
" stroke="#000" stroke-width="5" fill-opacity="0.0"></path><path d="
M 138.5 498.91204829279457 C
118.75 464.70404484330925
79.25 464.70404484330925
59.5 498.91204829279457
" stroke="#000" stroke-width="5" fill-opacity="0.0"></path><path d="
M 336 430.49604139382393 C
267.58399310102936 430.49604139382393
251.70800344948532 439.66204829279457
217.5 498.91204829279457
" stroke="#000" stroke-width="5" fill-opacity="0.0"></path><path d="
M 336 430.49604139382393 C
415 430.49604139382393
415 430.49604139382393
494 430.49604139382393
" stroke="#000" stroke-width="5" fill-opacity="0.0"></path><path d="
M 336 430.49604139382393 C
404.41600689897064 430.49604139382393
420.2919965505147 439.66204829279457
454.5 498.91204829279457
" stroke="#000" stroke-width="5" fill-opacity="0.0"></path><path d="
M 336 430.49604139382393 C
375.5 430.49604139382393
395.25 464.70404484330925
375.5 498.91204829279457
" stroke="#000" stroke-width="5" fill-opacity="0.0"></path><path d="
M 494 430.49604139382393 C
425.58399310102936 430.49604139382393
409.7080034494853 439.66204829279457
375.5 498.91204829279457
" stroke="#000" stroke-width="5" fill-opacity="0.0"></path><line x1="102" y1="20" x2="96" y2="20" stroke="#808" stroke-width="2"></line><line x1="61" y1="91.01408311032397" x2="58" y2="85.81793068761733" stroke="#808" stroke-width="2"></line><line x1="-21" y1="91.01408311032397" x2="-18" y2="85.81793068761733" stroke="#808" stroke-width="2"></line><line x1="260" y1="20" x2="254" y2="20" stroke="#808" stroke-width="2"></line><line x1="219" y1="91.01408311032397" x2="216" y2="85.81793068761733" stroke="#808" stroke-width="2"></line><line x1="137" y1="91.01408311032397" x2="140" y2="85.81793068761733" stroke="#808" stroke-width="2"></line><line x1="418" y1="20" x2="412" y2="20" stroke="#808" stroke-width="2"></line><line x1="377" y1="91.01408311032397" x2="374" y2="85.81793068761733" stroke="#808" stroke-width="2"></line><line x1="295" y1="91.01408311032397" x2="298" y2="85.81793068761733" stroke="#808" stroke-width="2"></line><line x1="576" y1="20" x2="570" y2="20" stroke="#808" stroke-width="2"></line><line x1="535" y1="91.01408311032397" x2="532" y2="85.81793068761733" stroke="#808" stroke-width="2"></line><line x1="453" y1="91.01408311032397" x2="456" y2="85.81793068761733" stroke="#808" stroke-width="2"></line><line x1="181" y1="156.8320137979413" x2="175" y2="156.8320137979413" stroke="#808" stroke-width="2"></line><line x1="140" y1="227.84609690826528" x2="137" y2="222.64994448555865" stroke="#808" stroke-width="2"></line><line x1="58" y1="227.84609690826528" x2="61" y2="222.64994448555865" stroke="#808" stroke-width="2"></line><line x1="339" y1="156.8320137979413" x2="333" y2="156.8320137979413" stroke="#808" stroke-width="2"></line><line x1="298" y1="227.84609690826528" x2="295" y2="222.64994448555865" stroke="#808" stroke-width="2"></line><line x1="216" y1="227.84609690826528" x2="219" y2="222.64994448555865" stroke="#808" stroke-width="2"></line><line x1="497" y1="156.8320137979413" x2="491" y2="156.8320137979413" stroke="#808" stroke-width="2"></line><line x1="456" y1="227.84609690826528" x2="453" y2="222.64994448555865" stroke="#808" stroke-width="2"></line><line x1="374" y1="227.84609690826528" x2="377" y2="222.64994448555865" stroke="#808" stroke-width="2"></line><line x1="102" y1="293.6640275958826" x2="96" y2="293.6640275958826" stroke="#808" stroke-width="2"></line><line x1="61" y1="364.67811070620655" x2="58" y2="359.4819582834999" stroke="#808" stroke-width="2"></line><line x1="-21" y1="364.67811070620655" x2="-18" y2="359.4819582834999" stroke="#808" stroke-width="2"></line><line x1="260" y1="293.6640275958826" x2="254" y2="293.6640275958826" stroke="#808" stroke-width="2"></line><line x1="219" y1="364.67811070620655" x2="216" y2="359.4819582834999" stroke="#808" stroke-width="2"></line><line x1="137" y1="364.67811070620655" x2="140" y2="359.4819582834999" stroke="#808" stroke-width="2"></line><line x1="418" y1="293.6640275958826" x2="412" y2="293.6640275958826" stroke="#808" stroke-width="2"></line><line x1="377" y1="364.67811070620655" x2="374" y2="359.4819582834999" stroke="#808" stroke-width="2"></line><line x1="295" y1="364.67811070620655" x2="298" y2="359.4819582834999" stroke="#808" stroke-width="2"></line><line x1="576" y1="293.6640275958826" x2="570" y2="293.6640275958826" stroke="#808" stroke-width="2"></line><line x1="535" y1="364.67811070620655" x2="532" y2="359.4819582834999" stroke="#808" stroke-width="2"></line><line x1="453" y1="364.67811070620655" x2="456" y2="359.4819582834999" stroke="#808" stroke-width="2"></line><line x1="181" y1="430.49604139382393" x2="175" y2="430.49604139382393" stroke="#808" stroke-width="2"></line><line x1="140" y1="501.5101245041479" x2="137" y2="496.31397208144125" stroke="#808" stroke-width="2"></line><line x1="58" y1="501.5101245041479" x2="61" y2="496.31397208144125" stroke="#808" stroke-width="2"></line><line x1="339" y1="430.49604139382393" x2="333" y2="430.49604139382393" stroke="#808" stroke-width="2"></line><line x1="298" y1="501.5101245041479" x2="295" y2="496.31397208144125" stroke="#808" stroke-width="2"></line><line x1="216" y1="501.5101245041479" x2="219" y2="496.31397208144125" stroke="#808" stroke-width="2"></line><line x1="497" y1="430.49604139382393" x2="491" y2="430.49604139382393" stroke="#808" stroke-width="2"></line><line x1="456" y1="501.5101245041479" x2="453" y2="496.31397208144125" stroke="#808" stroke-width="2"></line><line x1="374" y1="501.5101245041479" x2="377" y2="496.31397208144125" stroke="#808" stroke-width="2"></line></svg>
