<svg viewBox="-28 15 569 531.347293078232" xmlns="http://www.w3.org/2000/svg" version="1.1"><path d="
M 106 20 C
63 20
41.5 57.23909236273086
63 94.47818472546172
" stroke="rgb(25,87,102)" stroke-width="5" fill-opacity="0.0"></path><path d="
M 106 20 C
31.52181527453827 20
14.239092362730865 29.978184725461716
-23 94.47818472546172
" stroke="rgb(25,74,102)" stroke-width="5" fill-opacity="0.0"></path><path d="
M 106 20 C
192 20
192 20
278 20
" stroke="rgb(25,106,102)" stroke-width="5" fill-opacity="0.0"></path><path d="
M 106 20 C
180.47818472546174 20
197.76090763726913 29.978184725461716
235 94.47818472546172
" stroke="rgb(25,106,102)" stroke-width="5" fill-opacity="0.0"></path><path d="
M 106 20 C
149 20
170.5 57.23909236273086
149 94.47818472546172
" stroke="rgb(25,87,102)" stroke-width="5" fill-opacity="0.0"></path><path d="
M 63 94.47818472546172 C
41.5 57.23909236273086
-1.5 57.23909236273086
-23 94.47818472546172
" stroke="rgb(25,74,102)" stroke-width="5" fill-opacity="0.0"></path><path d="
M 63 94.47818472546172 C
84.5 131.7172770881926
127.5 131.7172770881926
149 94.47818472546172
" stroke="rgb(25,87,102)" stroke-width="5" fill-opacity="0.0"></path><path d="
M 63 94.47818472546172 C
100.23909236273087 158.97818472546172
117.52181527453827 168.95636945092343
192 168.95636945092343
" stroke="rgb(25,106,102)" stroke-width="5" fill-opacity="0.0"></path><path d="
M 63 94.47818472546172 C
106 168.95636945092343
106 168.95636945092343
149 243.43455417638515
" stroke="rgb(25,87,102)" stroke-width="5" fill-opacity="0.0"></path><path d="
M 63 94.47818472546172 C
100.23909236273086 158.9781847254617
100.23909236273086 178.93455417638518
63 243.43455417638515
" stroke="rgb(25,87,102)" stroke-width="5" fill-opacity="0.0"></path><path d="
M 278 20 C
235 20
213.5 57.23909236273086
235 94.47818472546172
" stroke="rgb(25,125,102)" stroke-width="5" fill-opacity="0.0"></path><path d="
M 278 20 C
203.52181527453826 20
186.23909236273087 29.978184725461716
149 94.47818472546172
" stroke="rgb(25,106,102)" stroke-width="5" fill-opacity="0.0"></path><path d="
M 278 20 C
364 20
364 20
450 20
" stroke="rgb(25,125,102)" stroke-width="5" fill-opacity="0.0"></path><path d="
M 278 20 C
352.47818472546174 20
369.76090763726916 29.978184725461716
407 94.47818472546172
" stroke="rgb(25,152,102)" stroke-width="5" fill-opacity="0.0"></path><path d="
M 278 20 C
321 20
342.5 57.23909236273086
321 94.47818472546172
" stroke="rgb(25,125,102)" stroke-width="5" fill-opacity="0.0"></path><path d="
M 235 94.47818472546172 C
213.5 57.23909236273086
170.5 57.23909236273086
149 94.47818472546172
" stroke="rgb(25,106,102)" stroke-width="5" fill-opacity="0.0"></path><path d="
M 235 94.47818472546172 C
256.5 131.7172770881926
299.5 131.7172770881926
321 94.47818472546172
" stroke="rgb(25,125,102)" stroke-width="5" fill-opacity="0.0"></path><path d="
M 235 94.47818472546172 C
256.5 131.7172770881926
235 168.95636945092343
192 168.95636945092343
" stroke="rgb(25,125,102)" stroke-width="5" fill-opacity="0.0"></path><path d="
M 235 94.47818472546172 C
272.23909236273084 158.97818472546172
289.52181527453826 168.95636945092343
364 168.95636945092343
" stroke="rgb(25,152,102)" stroke-width="5" fill-opacity="0.0"></path><path d="
M 235 94.47818472546172 C
278 168.95636945092343
278 168.95636945092343
321 243.43455417638515
" stroke="rgb(25,125,102)" stroke-width="5" fill-opacity="0.0"></path><path d="
M 235 94.47818472546172 C
272.23909236273084 158.9781847254617
272.23909236273084 178.93455417638518
235 243.43455417638515
" stroke="rgb(25,125,102)" stroke-width="5" fill-opacity="0.0"></path><path d="
M 149 94.47818472546172 C
127.5 131.7172770881926
149 168.95636945092343
192 168.95636945092343
" stroke="rgb(25,106,102)" stroke-width="5" fill-opacity="0.0"></path><path d="
M 149 94.47818472546172 C
111.76090763726914 158.9781847254617
111.76090763726914 178.93455417638518
149 243.43455417638515
" stroke="rgb(25,87,102)" stroke-width="5" fill-opacity="0.0"></path><path d="
M 149 94.47818472546172 C
106 168.95636945092343
106 168.95636945092343
63 243.43455417638515
" stroke="rgb(25,87,102)" stroke-width="5" fill-opacity="0.0"></path><path d="
M 450 20 C
407 20
385.5 57.23909236273086
407 94.47818472546172
" stroke="rgb(25,152,102)" stroke-width="5" fill-opacity="0.0"></path><path d="
M 450 20 C
375.52181527453826 20
358.23909236273084 29.978184725461716
321 94.47818472546172
" stroke="rgb(25,125,102)" stroke-width="5" fill-opacity="0.0"></path><path d="
M 407 94.47818472546172 C
385.5 57.23909236273086
342.5 57.23909236273086
321 94.47818472546172
" stroke="rgb(25,152,102)" stroke-width="5" fill-opacity="0.0"></path><path d="
M 407 94.47818472546172 C
428.5 131.7172770881926
407 168.95636945092343
364 168.95636945092343
" stroke="rgb(25,179,102)" stroke-width="5" fill-opacity="0.0"></path><path d="
M 407 94.47818472546172 C
444.23909236273084 158.97818472546172
461.52181527453826 168.95636945092343
536 168.95636945092343
" stroke="rgb(25,217,102)" stroke-width="5" fill-opacity="0.0"></path><path d="
M 407 94.47818472546172 C
450 168.95636945092343
450 168.95636945092343
493 243.43455417638515
" stroke="rgb(25,179,102)" stroke-width="5" fill-opacity="0.0"></path><path d="
M 407 94.47818472546172 C
444.23909236273084 158.9781847254617
444.23909236273084 178.93455417638518
407 243.43455417638515
" stroke="rgb(25,179,102)" stroke-width="5" fill-opacity="0.0"></path><path d="
M 321 94.47818472546172 C
283.76090763726916 158.97818472546172
266.47818472546174 168.95636945092343
192 168.95636945092343
" stroke="rgb(25,125,102)" stroke-width="5" fill-opacity="0.0"></path><path d="
M 321 94.47818472546172 C
299.5 131.7172770881926
321 168.95636945092343
364 168.95636945092343
" stroke="rgb(25,152,102)" stroke-width="5" fill-opacity="0.0"></path><path d="
M 321 94.47818472546172 C
283.76090763726916 158.9781847254617
283.76090763726916 178.93455417638518
321 243.43455417638515
" stroke="rgb(25,125,102)" stroke-width="5" fill-opacity="0.0"></path><path d="
M 321 94.47818472546172 C
278 168.95636945092343
278 168.95636945092343
235 243.43455417638515
" stroke="rgb(25,125,102)" stroke-width="5" fill-opacity="0.0"></path><path d="
M 192 168.95636945092343 C
149 168.95636945092343
127.5 206.19546181365428
149 243.43455417638515
" stroke="rgb(25,106,102)" stroke-width="5" fill-opacity="0.0"></path><path d="
M 192 168.95636945092343 C
117.52181527453827 168.95636945092343
100.23909236273087 178.93455417638515
63 243.43455417638515
" stroke="rgb(25,106,102)" stroke-width="5" fill-opacity="0.0"></path><path d="
M 192 168.95636945092343 C
278 168.95636945092343
278 168.95636945092343
364 168.95636945092343
" stroke="rgb(25,152,102)" stroke-width="5" fill-opacity="0.0"></path><path d="
M 192 168.95636945092343 C
266.47818472546174 168.95636945092343
283.76090763726916 178.93455417638515
321 243.43455417638515
" stroke="rgb(25,125,102)" stroke-width="5" fill-opacity="0.0"></path><path d="
M 192 168.95636945092343 C
235 168.95636945092343
256.5 206.19546181365428
235 243.43455417638515
" stroke="rgb(25,125,102)" stroke-width="5" fill-opacity="0.0"></path><path d="
M 149 243.43455417638515 C
127.5 206.19546181365428
84.5 206.19546181365428
63 243.43455417638515
" stroke="rgb(25,87,102)" stroke-width="5" fill-opacity="0.0"></path><path d="
M 149 243.43455417638515 C
170.5 280.673646539116
213.5 280.673646539116
235 243.43455417638515
" stroke="rgb(25,106,102)" stroke-width="5" fill-opacity="0.0"></path><path d="
M 149 243.43455417638515 C
170.5 280.673646539116
149 317.91273890184686
106 317.91273890184686
" stroke="rgb(25,87,102)" stroke-width="5" fill-opacity="0.0"></path><path d="
M 149 243.43455417638515 C
186.23909236273087 307.9345541763852
203.52181527453826 317.91273890184686
278 317.91273890184686
" stroke="rgb(25,106,102)" stroke-width="5" fill-opacity="0.0"></path><path d="
M 149 243.43455417638515 C
192 317.91273890184686
192 317.91273890184686
235 392.39092362730855
" stroke="rgb(25,87,102)" stroke-width="5" fill-opacity="0.0"></path><path d="
M 149 243.43455417638515 C
186.23909236273084 307.9345541763851
186.23909236273084 327.89092362730855
149 392.39092362730855
" stroke="rgb(25,87,102)" stroke-width="5" fill-opacity="0.0"></path><path d="
M 63 243.43455417638515 C
41.5 280.673646539116
63 317.91273890184686
106 317.91273890184686
" stroke="rgb(25,87,102)" stroke-width="5" fill-opacity="0.0"></path><path d="
M 63 243.43455417638515 C
25.76090763726915 307.9345541763851
25.76090763726915 327.89092362730855
63 392.39092362730855
" stroke="rgb(25,74,102)" stroke-width="5" fill-opacity="0.0"></path><path d="
M 63 243.43455417638515 C
20.000000000000007 317.91273890184686
19.999999999999993 317.91273890184686
-23 392.39092362730855
" stroke="rgb(25,74,102)" stroke-width="5" fill-opacity="0.0"></path><path d="
M 364 168.95636945092343 C
321 168.95636945092343
299.5 206.19546181365428
321 243.43455417638515
" stroke="rgb(25,152,102)" stroke-width="5" fill-opacity="0.0"></path><path d="
M 364 168.95636945092343 C
289.52181527453826 168.95636945092343
272.23909236273084 178.93455417638515
235 243.43455417638515
" stroke="rgb(25,152,102)" stroke-width="5" fill-opacity="0.0"></path><path d="
M 364 168.95636945092343 C
450 168.95636945092343
450 168.95636945092343
536 168.95636945092343
" stroke="rgb(25,217,102)" stroke-width="5" fill-opacity="0.0"></path><path d="
M 364 168.95636945092343 C
438.47818472546174 168.95636945092343
455.76090763726916 178.93455417638515
493 243.43455417638515
" stroke="rgb(25,179,102)" stroke-width="5" fill-opacity="0.0"></path><path d="
M 364 168.95636945092343 C
407 168.95636945092343
428.5 206.19546181365428
407 243.43455417638515
" stroke="rgb(25,179,102)" stroke-width="5" fill-opacity="0.0"></path><path d="
M 321 243.43455417638515 C
299.5 206.19546181365428
256.5 206.19546181365428
235 243.43455417638515
" stroke="rgb(25,125,102)" stroke-width="5" fill-opacity="0.0"></path><path d="
M 321 243.43455417638515 C
342.5 280.673646539116
385.5 280.673646539116
407 243.43455417638515
" stroke="rgb(25,152,102)" stroke-width="5" fill-opacity="0.0"></path><path d="
M 321 243.43455417638515 C
342.5 280.673646539116
321 317.91273890184686
278 317.91273890184686
" stroke="rgb(25,125,102)" stroke-width="5" fill-opacity="0.0"></path><path d="
M 321 243.43455417638515 C
358.23909236273084 307.9345541763852
375.52181527453826 317.91273890184686
450 317.91273890184686
" stroke="rgb(25,125,102)" stroke-width="5" fill-opacity="0.0"></path><path d="
M 321 243.43455417638515 C
364 317.91273890184686
364 317.91273890184686
407 392.39092362730855
" stroke="rgb(25,125,102)" stroke-width="5" fill-opacity="0.0"></path><path d="
M 321 243.43455417638515 C
358.23909236273084 307.9345541763851
358.23909236273084 327.89092362730855
321 392.39092362730855
" stroke="rgb(25,125,102)" stroke-width="5" fill-opacity="0.0"></path><path d="
M 235 243.43455417638515 C
197.76090763726913 307.9345541763852
180.47818472546174 317.91273890184686
106 317.91273890184686
" stroke="rgb(25,106,102)" stroke-width="5" fill-opacity="0.0"></path><path d="
M 235 243.43455417638515 C
213.5 280.673646539116
235 317.91273890184686
278 317.91273890184686
" stroke="rgb(25,125,102)" stroke-width="5" fill-opacity="0.0"></path><path d="
M 235 243.43455417638515 C
197.76090763726916 307.9345541763851
197.76090763726916 327.89092362730855
235 392.39092362730855
" stroke="rgb(25,106,102)" stroke-width="5" fill-opacity="0.0"></path><path d="
M 235 243.43455417638515 C
192 317.91273890184686
192 317.91273890184686
149 392.39092362730855
" stroke="rgb(25,106,102)" stroke-width="5" fill-opacity="0.0"></path><path d="
M 536 168.95636945092343 C
493 168.95636945092343
471.5 206.19546181365428
493 243.43455417638515
" stroke="rgb(25,217,102)" stroke-width="5" fill-opacity="0.0"></path><path d="
M 536 168.95636945092343 C
461.52181527453826 168.95636945092343
444.23909236273084 178.93455417638515
407 243.43455417638515
" stroke="rgb(25,217,102)" stroke-width="5" fill-opacity="0.0"></path><path d="
M 493 243.43455417638515 C
471.5 206.19546181365428
428.5 206.19546181365428
407 243.43455417638515
" stroke="rgb(25,179,102)" stroke-width="5" fill-opacity="0.0"></path><path d="
M 493 243.43455417638515 C
514.5 280.673646539116
493 317.91273890184686
450 317.91273890184686
" stroke="rgb(25,152,102)" stroke-width="5" fill-opacity="0.0"></path><path d="
M 407 243.43455417638515 C
369.76090763726916 307.9345541763852
352.47818472546174 317.91273890184686
278 317.91273890184686
" stroke="rgb(25,152,102)" stroke-width="5" fill-opacity="0.0"></path><path d="
M 407 243.43455417638515 C
385.5 280.673646539116
407 317.91273890184686
450 317.91273890184686
" stroke="rgb(25,152,102)" stroke-width="5" fill-opacity="0.0"></path><path d="
M 407 243.43455417638515 C
369.76090763726916 307.9345541763851
369.76090763726916 327.89092362730855
407 392.39092362730855
" stroke="rgb(25,152,102)" stroke-width="5" fill-opacity="0.0"></path><path d="
M 407 243.43455417638515 C
364 317.91273890184686
364 317.91273890184686
321 392.39092362730855
" stroke="rgb(25,152,102)" stroke-width="5" fill-opacity="0.0"></path><path d="
M 106 317.91273890184686 C
63.000000000000014 317.91273890184686
41.50000000000001 355.1518312645777
63 392.39092362730855
" stroke="rgb(25,74,102)" stroke-width="5" fill-opacity="0.0"></path><path d="
M 106 317.91273890184686 C
31.521815274538284 317.91273890184686
14.239092362730858 327.89092362730855
-23 392.39092362730855
" stroke="rgb(25,74,102)" stroke-width="5" fill-opacity="0.0"></path><path d="
M 106 317.91273890184686 C
192 317.91273890184686
192 317.91273890184686
278 317.91273890184686
" stroke="rgb(25,106,102)" stroke-width="5" fill-opacity="0.0"></path><path d="
M 106 317.91273890184686 C
180.47818472546172 317.91273890184686
197.76090763726916 327.89092362730855
235 392.39092362730855
" stroke="rgb(25,87,102)" stroke-width="5" fill-opacity="0.0"></path><path d="
M 106 317.91273890184686 C
149 317.91273890184686
170.5 355.1518312645777
149 392.39092362730855
" stroke="rgb(25,87,102)" stroke-width="5" fill-opacity="0.0"></path><path d="
M 63 392.39092362730855 C
41.5 355.1518312645777
-1.5 355.1518312645777
-23 392.39092362730855
" stroke="rgb(25,61,102)" stroke-width="5" fill-opacity="0.0"></path><path d="
M 63 392.39092362730855 C
84.5 429.6300159900394
127.5 429.6300159900394
149 392.39092362730855
" stroke="rgb(25,74,102)" stroke-width="5" fill-opacity="0.0"></path><path d="
M 63 392.39092362730855 C
100.23909236273087 456.89092362730855
117.52181527453827 466.8691083527703
192 466.8691083527703
" stroke="rgb(25,74,102)" stroke-width="5" fill-opacity="0.0"></path><path d="
M 63 392.39092362730855 C
106 466.8691083527703
106 466.8691083527703
149 541.347293078232
" stroke="rgb(25,61,102)" stroke-width="5" fill-opacity="0.0"></path><path d="
M 63 392.39092362730855 C
100.23909236273087 456.89092362730855
100.23909236273087 476.84729307823204
63 541.347293078232
" stroke="rgb(25,61,102)" stroke-width="5" fill-opacity="0.0"></path><path d="
M 278 317.91273890184686 C
235 317.91273890184686
213.5 355.1518312645777
235 392.39092362730855
" stroke="rgb(25,106,102)" stroke-width="5" fill-opacity="0.0"></path><path d="
M 278 317.91273890184686 C
203.52181527453828 317.91273890184686
186.23909236273084 327.89092362730855
149 392.39092362730855
" stroke="rgb(25,106,102)" stroke-width="5" fill-opacity="0.0"></path><path d="
M 278 317.91273890184686 C
364 317.91273890184686
364 317.91273890184686
450 317.91273890184686
" stroke="rgb(25,125,102)" stroke-width="5" fill-opacity="0.0"></path><path d="
M 278 317.91273890184686 C
352.4781847254617 317.91273890184686
369.76090763726916 327.89092362730855
407 392.39092362730855
" stroke="rgb(25,125,102)" stroke-width="5" fill-opacity="0.0"></path><path d="
M 278 317.91273890184686 C
321 317.91273890184686
342.5 355.1518312645777
321 392.39092362730855
" stroke="rgb(25,125,102)" stroke-width="5" fill-opacity="0.0"></path><path d="
M 235 392.39092362730855 C
213.5 355.1518312645777
170.5 355.1518312645777
149 392.39092362730855
" stroke="rgb(25,87,102)" stroke-width="5" fill-opacity="0.0"></path><path d="
M 235 392.39092362730855 C
256.5 429.6300159900394
299.5 429.6300159900394
321 392.39092362730855
" stroke="rgb(25,106,102)" stroke-width="5" fill-opacity="0.0"></path><path d="
M 235 392.39092362730855 C
256.5 429.6300159900394
235 466.8691083527703
192 466.8691083527703
" stroke="rgb(25,87,102)" stroke-width="5" fill-opacity="0.0"></path><path d="
M 235 392.39092362730855 C
272.23909236273084 456.89092362730855
289.52181527453826 466.8691083527703
364 466.8691083527703
" stroke="rgb(25,87,102)" stroke-width="5" fill-opacity="0.0"></path><path d="
M 235 392.39092362730855 C
278 466.8691083527703
278 466.8691083527703
321 541.347293078232
" stroke="rgb(25,87,102)" stroke-width="5" fill-opacity="0.0"></path><path d="
M 235 392.39092362730855 C
272.23909236273084 456.89092362730855
272.23909236273084 476.84729307823204
235 541.347293078232
" stroke="rgb(25,87,102)" stroke-width="5" fill-opacity="0.0"></path><path d="
M 149 392.39092362730855 C
127.5 429.6300159900394
149 466.8691083527703
192 466.8691083527703
" stroke="rgb(25,87,102)" stroke-width="5" fill-opacity="0.0"></path><path d="
M 149 392.39092362730855 C
111.76090763726913 456.89092362730855
111.76090763726913 476.84729307823204
149 541.347293078232
" stroke="rgb(25,74,102)" stroke-width="5" fill-opacity="0.0"></path><path d="
M 149 392.39092362730855 C
106 466.8691083527703
106 466.8691083527703
63 541.347293078232
" stroke="rgb(25,74,102)" stroke-width="5" fill-opacity="0.0"></path><path d="
M 450 317.91273890184686 C
407 317.91273890184686
385.5 355.1518312645777
407 392.39092362730855
" stroke="rgb(25,125,102)" stroke-width="5" fill-opacity="0.0"></path><path d="
M 450 317.91273890184686 C
375.5218152745383 317.91273890184686
358.23909236273084 327.89092362730855
321 392.39092362730855
" stroke="rgb(25,125,102)" stroke-width="5" fill-opacity="0.0"></path><path d="
M 407 392.39092362730855 C
385.5 355.1518312645777
342.5 355.1518312645777
321 392.39092362730855
" stroke="rgb(25,125,102)" stroke-width="5" fill-opacity="0.0"></path><path d="
M 407 392.39092362730855 C
428.5 429.6300159900394
407 466.8691083527703
364 466.8691083527703
" stroke="rgb(25,106,102)" stroke-width="5" fill-opacity="0.0"></path><path d="
M 407 392.39092362730855 C
444.23909236273084 456.89092362730855
461.52181527453826 466.8691083527703
536 466.8691083527703
" stroke="rgb(25,106,102)" stroke-width="5" fill-opacity="0.0"></path><path d="
M 407 392.39092362730855 C
450 466.8691083527703
450 466.8691083527703
493 541.347293078232
" stroke="rgb(25,106,102)" stroke-width="5" fill-opacity="0.0"></path><path d="
M 407 392.39092362730855 C
444.23909236273084 456.89092362730855
444.23909236273084 476.84729307823204
407 541.347293078232
" stroke="rgb(25,106,102)" stroke-width="5" fill-opacity="0.0"></path><path d="
M 321 392.39092362730855 C
283.76090763726916 456.89092362730855
266.47818472546174 466.8691083527703
192 466.8691083527703
" stroke="rgb(25,106,102)" stroke-width="5" fill-opacity="0.0"></path><path d="
M 321 392.39092362730855 C
299.5 429.6300159900394
321 466.8691083527703
364 466.8691083527703
" stroke="rgb(25,106,102)" stroke-width="5" fill-opacity="0.0"></path><path d="
M 321 392.39092362730855 C
283.76090763726916 456.89092362730855
283.76090763726916 476.84729307823204
321 541.347293078232
" stroke="rgb(25,106,102)" stroke-width="5" fill-opacity="0.0"></path><path d="
M 321 392.39092362730855 C
278 466.8691083527703
278 466.8691083527703
235 541.347293078232
" stroke="rgb(25,106,102)" stroke-width="5" fill-opacity="0.0"></path><path d="
M 192 466.8691083527703 C
149 466.8691083527703
127.5 504.1082007155012
149 541.347293078232
" stroke="rgb(25,74,102)" stroke-width="5" fill-opacity="0.0"></path><path d="
M 192 466.8691083527703 C
117.52181527453827 466.8691083527703
100.23909236273087 476.84729307823204
63 541.347293078232
" stroke="rgb(25,74,102)" stroke-width="5" fill-opacity="0.0"></path><path d="
M 192 466.8691083527703 C
278 466.8691083527703
278 466.8691083527703
364 466.8691083527703
" stroke="rgb(25,87,102)" stroke-width="5" fill-opacity="0.0"></path><path d="
M 192 466.8691083527703 C
266.47818472546174 466.8691083527703
283.76090763726916 476.84729307823204
321 541.347293078232
" stroke="rgb(25,87,102)" stroke-width="5" fill-opacity="0.0"></path><path d="
M 192 466.8691083527703 C
235 466.8691083527703
256.5 504.1082007155012
235 541.347293078232
" stroke="rgb(25,87,102)" stroke-width="5" fill-opacity="0.0"></path><path d="
M 149 541.347293078232 C
127.5 504.1082007155012
84.5 504.1082007155012
63 541.347293078232
" stroke="rgb(25,61,102)" stroke-width="5" fill-opacity="0.0"></path><path d="
M 149 541.347293078232 C
170.5 578.5863854409629
213.5 578.5863854409629
235 541.347293078232
" stroke="rgb(25,74,102)" stroke-width="5" fill-opacity="0.0"></path><path d="
M 364 466.8691083527703 C
321 466.8691083527703
299.5 504.1082007155012
321 541.347293078232
" stroke="rgb(25,87,102)" stroke-width="5" fill-opacity="0.0"></path><path d="
M 364 466.8691083527703 C
289.52181527453826 466.8691083527703
272.23909236273084 476.84729307823204
235 541.347293078232
" stroke="rgb(25,87,102)" stroke-width="5" fill-opacity="0.0"></path><path d="
M 364 466.8691083527703 C
450 466.8691083527703
450 466.8691083527703
536 466.8691083527703
" stroke="rgb(25,87,102)" stroke-width="5" fill-opacity="0.0"></path><path d="
M 364 466.8691083527703 C
438.47818472546174 466.8691083527703
455.76090763726916 476.84729307823204
493 541.347293078232
" stroke="rgb(25,87,102)" stroke-width="5" fill-opacity="0.0"></path><path d="
M 364 466.8691083527703 C
407 466.8691083527703
428.5 504.1082007155012
407 541.347293078232
" stroke="rgb(25,87,102)" stroke-width="5" fill-opacity="0.0"></path><path d="
M 321 541.347293078232 C
299.5 504.1082007155012
256.5 504.1082007155012
235 541.347293078232
" stroke="rgb(25,87,102)" stroke-width="5" fill-opacity="0.0"></path><path d="
M 321 541.347293078232 C
342.5 578.5863854409629
385.5 578.5863854409629
407 541.347293078232
" stroke="rgb(25,87,102)" stroke-width="5" fill-opacity="0.0"></path><path d="
M 536 466.8691083527703 C
493 466.8691083527703
471.5 504.1082007155012
493 541.347293078232
" stroke="rgb(25,87,102)" stroke-width="5" fill-opacity="0.0"></path><path d="
M 536 466.8691083527703 C
461.52181527453826 466.8691083527703
444.23909236273084 476.84729307823204
407 541.347293078232
" stroke="rgb(25,87,102)" stroke-width="5" fill-opacity="0.0"></path><path d="
M 493 541.347293078232 C
471.5 504.1082007155012
428.5 504.1082007155012
407 541.347293078232
" stroke="rgb(25,87,102)" stroke-width="5" fill-opacity="0.0"></path><line x1="109" y1="20" x2="103" y2="20" stroke="rgb(255,0,87)" stroke-width="2"></line><line x1="64.5" y1="97.07626093681503" x2="61.5" y2="91.8801085141084" stroke="rgb(255,0,87)" stroke-width="2"></line><line x1="-24.5" y1="97.07626093681503" x2="-21.5" y2="91.8801085141084" stroke="rgb(184,0,61)" stroke-width="2"></line><line x1="281" y1="20" x2="275" y2="20" stroke="rgb(255,0,125)" stroke-width="2"></line><line x1="236.5" y1="97.07626093681503" x2="233.5" y2="91.8801085141084" stroke="rgb(255,0,125)" stroke-width="2"></line><line x1="147.5" y1="97.07626093681503" x2="150.5" y2="91.8801085141084" stroke="rgb(255,0,87)" stroke-width="2"></line><line x1="453" y1="20" x2="447" y2="20" stroke="rgb(255,0,125)" stroke-width="2"></line><line x1="408.5" y1="97.07626093681503" x2="405.5" y2="91.8801085141084" stroke="rgb(255,0,179)" stroke-width="2"></line><line x1="319.5" y1="97.07626093681503" x2="322.5" y2="91.8801085141084" stroke="rgb(255,0,125)" stroke-width="2"></line><line x1="195" y1="168.95636945092343" x2="189" y2="168.95636945092343" stroke="rgb(255,0,125)" stroke-width="2"></line><line x1="150.5" y1="246.03263038773846" x2="147.5" y2="240.83647796503183" stroke="rgb(255,0,87)" stroke-width="2"></line><line x1="61.5" y1="246.03263038773846" x2="64.5" y2="240.83647796503183" stroke="rgb(255,0,87)" stroke-width="2"></line><line x1="367" y1="168.95636945092343" x2="361" y2="168.95636945092343" stroke="rgb(255,0,179)" stroke-width="2"></line><line x1="322.5" y1="246.03263038773846" x2="319.5" y2="240.83647796503183" stroke="rgb(255,0,125)" stroke-width="2"></line><line x1="233.5" y1="246.03263038773846" x2="236.5" y2="240.83647796503183" stroke="rgb(255,0,125)" stroke-width="2"></line><line x1="539" y1="168.95636945092343" x2="533" y2="168.95636945092343" stroke="rgb(255,0,255)" stroke-width="2"></line><line x1="494.5" y1="246.03263038773846" x2="491.5" y2="240.83647796503183" stroke="rgb(255,0,179)" stroke-width="2"></line><line x1="405.5" y1="246.03263038773846" x2="408.5" y2="240.83647796503183" stroke="rgb(255,0,179)" stroke-width="2"></line><line x1="109" y1="317.91273890184686" x2="103" y2="317.91273890184686" stroke="rgb(255,0,87)" stroke-width="2"></line><line x1="64.5" y1="394.98899983866187" x2="61.5" y2="389.79284741595524" stroke="rgb(184,0,61)" stroke-width="2"></line><line x1="-24.5" y1="394.98899983866187" x2="-21.5" y2="389.79284741595524" stroke="rgb(184,0,61)" stroke-width="2"></line><line x1="281" y1="317.91273890184686" x2="275" y2="317.91273890184686" stroke="rgb(255,0,125)" stroke-width="2"></line><line x1="236.5" y1="394.98899983866187" x2="233.5" y2="389.79284741595524" stroke="rgb(255,0,87)" stroke-width="2"></line><line x1="147.5" y1="394.98899983866187" x2="150.5" y2="389.79284741595524" stroke="rgb(255,0,87)" stroke-width="2"></line><line x1="453" y1="317.91273890184686" x2="447" y2="317.91273890184686" stroke="rgb(255,0,125)" stroke-width="2"></line><line x1="408.5" y1="394.98899983866187" x2="405.5" y2="389.79284741595524" stroke="rgb(255,0,125)" stroke-width="2"></line><line x1="319.5" y1="394.98899983866187" x2="322.5" y2="389.79284741595524" stroke="rgb(255,0,125)" stroke-width="2"></line><line x1="195" y1="466.8691083527703" x2="189" y2="466.8691083527703" stroke="rgb(255,0,87)" stroke-width="2"></line><line x1="150.5" y1="543.9453692895854" x2="147.5" y2="538.7492168668787" stroke="rgb(184,0,61)" stroke-width="2"></line><line x1="61.5" y1="543.9453692895854" x2="64.5" y2="538.7492168668787" stroke="rgb(184,0,61)" stroke-width="2"></line><line x1="367" y1="466.8691083527703" x2="361" y2="466.8691083527703" stroke="rgb(255,0,87)" stroke-width="2"></line><line x1="322.5" y1="543.9453692895854" x2="319.5" y2="538.7492168668787" stroke="rgb(255,0,87)" stroke-width="2"></line><line x1="233.5" y1="543.9453692895854" x2="236.5" y2="538.7492168668787" stroke="rgb(255,0,87)" stroke-width="2"></line><line x1="539" y1="466.8691083527703" x2="533" y2="466.8691083527703" stroke="rgb(255,0,87)" stroke-width="2"></line><line x1="494.5" y1="543.9453692895854" x2="491.5" y2="538.7492168668787" stroke="rgb(255,0,87)" stroke-width="2"></line><line x1="405.5" y1="543.9453692895854" x2="408.5" y2="538.7492168668787" stroke="rgb(255,0,87)" stroke-width="2"></line></svg>
